<svg xmlns="http://www.w3.org/2000/svg" xmlns:xlink="http://www.w3.org/1999/xlink" width="421" height="179.037" viewBox="0 0 421 179.037">
  <defs>
    <clipPath id="clip-path">
      <rect id="Rectángulo_379448" data-name="Rectángulo 379448" width="273.309" height="174.758" fill="none"/>
    </clipPath>
    <clipPath id="clip-path-4">
      <rect id="Rectángulo_379427" data-name="Rectángulo 379427" width="25.991" height="42.753" fill="none"/>
    </clipPath>
    <clipPath id="clip-path-7">
      <rect id="Rectángulo_379435" data-name="Rectángulo 379435" width="2.917" height="3.476" fill="none"/>
    </clipPath>
    <clipPath id="clip-path-8">
      <rect id="Rectángulo_379438" data-name="Rectángulo 379438" width="2.595" height="0.374" fill="none"/>
    </clipPath>
    <clipPath id="clip-path-9">
      <rect id="Rectángulo_379441" data-name="Rectángulo 379441" width="5.256" height="0.374" fill="none"/>
    </clipPath>
  </defs>
  <g id="Grupo_1075049" data-name="Grupo 1075049" transform="translate(45 -26)">
    <path id="Trazado_642062" data-name="Trazado 642062" d="M0,0,421,179H0Z" transform="translate(-45 26)" fill="#edd8f5"/>
    <path id="Trazado_642063" data-name="Trazado 642063" d="M0,0,421,179H0Z" transform="translate(376 205) rotate(180)" fill="#ffe49a"/>
    <g id="Grupo_1075048" data-name="Grupo 1075048" transform="translate(29 30.279)" clip-path="url(#clip-path)">
      <g id="Grupo_1075026" data-name="Grupo 1075026">
        <g id="Grupo_1075025" data-name="Grupo 1075025" clip-path="url(#clip-path)">
          <path id="Trazado_641979" data-name="Trazado 641979" d="M463.534,183.888l3.6-5.808-1.779-1.1a1.624,1.624,0,0,1-.754-1.529,9.489,9.489,0,0,0,.032-1.022,1.625,1.625,0,0,1,.848-1.475l1.844-.989-3.232-6.025-1.844.989a1.625,1.625,0,0,1-1.7-.11,9.543,9.543,0,0,0-.869-.538,1.625,1.625,0,0,1-.856-1.474l.066-2.092-6.832-.212L452,164.6a1.627,1.627,0,0,1-.952,1.414q-.227.107-.45.226t-.437.249a1.621,1.621,0,0,1-1.7.013l-1.792-1.11-3.6,5.808,1.782,1.106a1.625,1.625,0,0,1,.753,1.53,9.473,9.473,0,0,0-.033,1.018,1.623,1.623,0,0,1-.848,1.473l-1.845.989,3.232,6.026,1.845-.989a1.624,1.624,0,0,1,1.7.109,9.421,9.421,0,0,0,.866.535,1.625,1.625,0,0,1,.858,1.474l-.064,2.1,6.831.212.065-2.1a1.622,1.622,0,0,1,.95-1.409q.228-.108.453-.229c.149-.079.294-.163.438-.249a1.627,1.627,0,0,1,1.705-.012Zm-5.784-4.314A5.6,5.6,0,1,1,460.042,172a5.595,5.595,0,0,1-2.292,7.579" transform="translate(-243.189 -89.231)" fill="#665b3d"/>
          <path id="Trazado_641980" data-name="Trazado 641980" d="M28.388,227.076l4.829-7.907.021.088L30.693,217.7a2.273,2.273,0,0,1-.874-1.244,5.589,5.589,0,0,1-.064-1.51l.018-.741a2.316,2.316,0,0,1,1.073-1.977l2.626-1.423-.051.168-4.4-8.158.2.06-2.634,1.414a2.365,2.365,0,0,1-2.283-.193l-.629-.389-.631-.387a2.377,2.377,0,0,1-1.2-1.962l.082-2.989.169.18-9.261-.266.2-.191-.088,2.992a2.421,2.421,0,0,1-1.335,1.923l-.66.335-.642.367a2.421,2.421,0,0,1-2.348.055L5.413,202.2l.309-.073-4.9,7.862-.066-.28,2.535,1.589a2.4,2.4,0,0,1,.987,2.107l-.027.739-.025.738a2.4,2.4,0,0,1-1.117,2.033L.471,218.323l.072-.237L4.9,226.264,4.7,226.2l2.64-1.4a2.331,2.331,0,0,1,1.552-.125,5.655,5.655,0,0,1,1.346.716l.63.39a2.345,2.345,0,0,1,1.171,1.944l-.094,2.986-.12-.129,9.259.33-.085.08.118-2.979a2.685,2.685,0,0,1,1.935-2.117,2.671,2.671,0,0,1,2.815-.4l2.523,1.584m0,0-2.543-1.547a2.608,2.608,0,0,0-2.756.441,2.585,2.585,0,0,0-1.85,2.056L21.162,231l0,.082-.083,0-9.262-.246-.124,0,0-.125.08-2.97a2.077,2.077,0,0,0-1.047-1.716l-.638-.391-.638-.393a2.068,2.068,0,0,0-1.993-.169l-2.616,1.406-.135.072-.073-.135-4.4-8.157L.151,218.1l.155-.083L2.915,216.6a2.026,2.026,0,0,0,.935-1.723l.022-.751.024-.749a2.016,2.016,0,0,0-.834-1.765L.54,210.051l-.173-.107.107-.174,4.866-7.885.118-.192.192.119,2.521,1.565a1.991,1.991,0,0,0,1.93-.041l.653-.37.67-.336a2.007,2.007,0,0,0,1.117-1.587l.1-2.966.007-.2.2.006,9.26.31.175.006-.005.175-.1,2.966a2.046,2.046,0,0,0,1.027,1.693l.637.395.636.4a2.054,2.054,0,0,0,1.98.178l2.622-1.393.13-.069.069.129,4.361,8.178.059.11-.11.059-2.62,1.4a2.1,2.1,0,0,0-.977,1.779c-.019.372-.038,1.123-.058,1.5a2.119,2.119,0,0,0,.856,1.863l2.514,1.588.055.035-.034.054Z" transform="translate(-0.083 -108.659)" fill="#ebebeb"/>
          <path id="Trazado_641981" data-name="Trazado 641981" d="M31.564,232.009a7.7,7.7,0,1,1-1.333-14.137,7.715,7.715,0,0,1,1.333,14.137m0,0A7.476,7.476,0,1,0,20.9,223.18a7.487,7.487,0,0,0,10.664,8.829" transform="translate(-11.101 -119.439)" fill="#ebebeb"/>
          <path id="Trazado_641982" data-name="Trazado 641982" d="M148.808,308.4l4.147-2.393-.733-1.27a1.138,1.138,0,0,1,.04-1.193,6.693,6.693,0,0,0,.359-.62,1.137,1.137,0,0,1,1.011-.63H155.1v-4.79h-1.466a1.137,1.137,0,0,1-1.011-.629,6.77,6.77,0,0,0-.359-.62,1.138,1.138,0,0,1-.04-1.194l.733-1.269-4.147-2.393-.734,1.275a1.141,1.141,0,0,1-1.057.558q-.176-.009-.352-.009c-.119,0-.236,0-.353.009a1.137,1.137,0,0,1-1.052-.554l-.739-1.278-4.147,2.393.734,1.273a1.14,1.14,0,0,1-.042,1.194,6.347,6.347,0,0,0-.358.617,1.139,1.139,0,0,1-1.012.628h-1.466v4.79H139.7a1.139,1.139,0,0,1,1.012.629,6.478,6.478,0,0,0,.358.617,1.14,1.14,0,0,1,.042,1.194l-.734,1.273,4.147,2.393.735-1.273a1.138,1.138,0,0,1,1.053-.556c.118.006.236.009.356.009s.235,0,.352-.009a1.141,1.141,0,0,1,1.057.557Zm-2.143-4.578a3.922,3.922,0,1,1,3.924-3.92,3.92,3.92,0,0,1-3.924,3.92" transform="translate(-75.904 -160.011)" fill="#b285c3"/>
          <path id="Trazado_641983" data-name="Trazado 641983" d="M207.807,47.526l-2.393-4.147-1.269.733a1.138,1.138,0,0,1-1.194-.04,6.587,6.587,0,0,0-.62-.358,1.138,1.138,0,0,1-.63-1.012V41.236h-4.79V42.7a1.138,1.138,0,0,1-.629,1.012,6.657,6.657,0,0,0-.62.358,1.138,1.138,0,0,1-1.193.04l-1.269-.733L190.8,47.526l1.275.734a1.14,1.14,0,0,1,.558,1.056c-.006.117-.009.234-.009.353s0,.235.009.352a1.136,1.136,0,0,1-.554,1.052l-1.279.739L193.2,55.96l1.273-.734a1.139,1.139,0,0,1,1.194.042,6.538,6.538,0,0,0,.617.358,1.138,1.138,0,0,1,.629,1.011V58.1h4.79V56.637a1.138,1.138,0,0,1,.629-1.011,6.589,6.589,0,0,0,.617-.358,1.139,1.139,0,0,1,1.194-.042l1.273.734,2.393-4.147-1.273-.735a1.138,1.138,0,0,1-.556-1.054q.009-.176.009-.355t-.009-.353a1.14,1.14,0,0,1,.557-1.057Zm-4.578,2.143a3.923,3.923,0,1,1-3.92-3.924,3.919,3.919,0,0,1,3.92,3.924" transform="translate(-104.773 -22.643)" fill="#ebebeb"/>
          <path id="Trazado_641984" data-name="Trazado 641984" d="M513.932,214.618l-2.5-4.009.09.024-1.343.76a1.283,1.283,0,0,1-.805.114,2.5,2.5,0,0,1-.73-.319c-.5-.234-1.007-.544-1.06-1.152-.018-.537-.012-1.033-.018-1.551l.131.131-4.894.037.168-.168c0,.521.015,1.007,0,1.557a1.311,1.311,0,0,1-.752,1.038c-.164.094-.5.278-.663.372a1.407,1.407,0,0,1-1.288.039l-1.358-.742.265-.071-2.435,4.05-.079-.293,1.355.743a2.2,2.2,0,0,1,0,3.067l-1.35.751.084-.314,2.435,4.05-.286-.077,1.359-.741a1.4,1.4,0,0,1,.881-.115,2.584,2.584,0,0,1,.759.341c.523.256,1.039.591,1.093,1.233.013.555,0,1.037,0,1.559l-.2-.2,4.894.02-.178.178c.053-.869-.255-2.137.771-2.568l.331-.179a1.555,1.555,0,0,1,1.585-.211l1.349.753-.176.047,2.485-4.02.031.119-1.337-.76a1.345,1.345,0,0,1-.528-1.4,1.323,1.323,0,0,1,.55-1.37l1.357-.72m0,0-1.33.763a1.262,1.262,0,0,0-.482,1.327,1.235,1.235,0,0,0,.5,1.291l1.35.724.077.041-.045.077-2.405,4.068-.064.108-.112-.06-1.349-.727a1.27,1.27,0,0,0-1.307.223,3.677,3.677,0,0,0-.619.384.91.91,0,0,0-.284.573c-.008.534.007,1.139.007,1.7h-.179l-4.894.02h-.2c-.006-.563,0-1.183-.011-1.717-.031-.487-.508-.718-.892-.915a2.174,2.174,0,0,0-.634-.292.985.985,0,0,0-.618.083l-1.338.739-.179.1-.107-.176-2.455-4.038-.122-.2.206-.113,1.339-.735a.863.863,0,0,0,.377-.466,2.255,2.255,0,0,0,.038-.692,1.1,1.1,0,0,0-.412-1.165l-1.335-.74-.192-.106.114-.186,2.455-4.038.1-.163.166.092,1.338.74a1.255,1.255,0,0,0,1.268-.211,3.771,3.771,0,0,0,.62-.37.9.9,0,0,0,.288-.556c.016-.528.01-1.133.019-1.689h.166l4.894.037h.132v.13c.07.8-.316,1.9.579,2.328a4.811,4.811,0,0,0,1,.507,1.106,1.106,0,0,0,.694-.081l1.354-.723.058-.031.032.055Z" transform="translate(-272.493 -114.388)" fill="#ebebeb"/>
          <path id="Trazado_641985" data-name="Trazado 641985" d="M515.081,222.137c.021,3.475-4.447,5.18-6.94,2.874a3.86,3.86,0,0,1,0-5.752c2.494-2.309,6.959-.6,6.938,2.878m0,0c.014-3.386-4.387-4.916-6.673-2.594a3.588,3.588,0,0,0,0,5.184c2.284,2.321,6.691.8,6.676-2.59" transform="translate(-278.32 -119.817)" fill="#ebebeb"/>
          <path id="Trazado_641986" data-name="Trazado 641986" d="M485.051,31.389v31.6h4.435v7.664l7.665-7.664h42.062v-31.6Z" transform="translate(-266.346 -17.236)" fill="#fff"/>
          <path id="Trazado_641987" data-name="Trazado 641987" d="M484.722,30.918c.114,9.312.2,22.442.27,31.6l-.27-.27,4.435-.024.292,0v.3l.042,7.664-.572-.237,7.63-7.7.111-.112c12.445-.024,29.947-.069,42.222-.057l-.441.441.057-31.6.385.385c-13.5-.053-40.662-.264-54.161-.385m0,0c13.7-.121,40.848-.331,54.546-.387v.387l.057,31.6v.441c-12.334.038-29.989-.054-42.5-.055l.272-.113-7.7,7.63-.576.571,0-.808.041-7.664.294.294-4.435-.024h-.271c0-9.309.217-22.445.271-31.866" transform="translate(-266.017 -16.765)" fill="#ebebeb"/>
          <path id="Trazado_641988" data-name="Trazado 641988" d="M567.82,63.3a2.566,2.566,0,1,0,2.566-2.566A2.566,2.566,0,0,0,567.82,63.3" transform="translate(-311.795 -33.352)" fill="#ebebeb"/>
          <path id="Trazado_641989" data-name="Trazado 641989" d="M539.418,63.3a2.566,2.566,0,1,0,2.566-2.566,2.566,2.566,0,0,0-2.566,2.566" transform="translate(-296.2 -33.352)" fill="#ebebeb"/>
          <path id="Trazado_641990" data-name="Trazado 641990" d="M511.016,63.3a2.566,2.566,0,1,0,2.566-2.566,2.566,2.566,0,0,0-2.566,2.566" transform="translate(-280.604 -33.352)" fill="#ebebeb"/>
          <path id="Trazado_641991" data-name="Trazado 641991" d="M69.946,100.375A12.373,12.373,0,1,1,57.71,86.19V98.562Z" transform="translate(-24.893 -47.328)" fill="#543f5c"/>
          <path id="Trazado_641992" data-name="Trazado 641992" d="M90.74,92.974a12.331,12.331,0,0,1-.134,1.814L78.369,92.974V80.6A12.36,12.36,0,0,1,90.74,92.974" transform="translate(-43.033 -44.26)" fill="#d29de5"/>
          <line id="Línea_902" data-name="Línea 902" x2="13.157" transform="translate(34.156 55.799)" fill="none"/>
          <circle id="Elipse_5890" data-name="Elipse 5890" cx="0.922" cy="0.922" r="0.922" transform="translate(47.313 54.877)" fill="none"/>
          <rect id="Rectángulo_379418" data-name="Rectángulo 379418" width="10.219" height="0.461" transform="translate(51.579 55.107)" fill="#c7c7c7"/>
          <rect id="Rectángulo_379419" data-name="Rectángulo 379419" width="5.785" height="0.461" transform="translate(51.578 56.029)" fill="#c7c7c7"/>
          <rect id="Rectángulo_379420" data-name="Rectángulo 379420" width="3.487" height="24.816" transform="translate(170.792 128.505)" fill="#e79e9e"/>
          <rect id="Rectángulo_379421" data-name="Rectángulo 379421" width="3.487" height="18.809" transform="translate(176.786 134.512)" fill="#e79e9e"/>
          <rect id="Rectángulo_379422" data-name="Rectángulo 379422" width="3.487" height="9.405" transform="translate(182.78 143.917)" fill="#e79e9e"/>
          <rect id="Rectángulo_379423" data-name="Rectángulo 379423" width="3.487" height="14.777" transform="translate(188.774 138.545)" fill="#e79e9e"/>
          <rect id="Rectángulo_379424" data-name="Rectángulo 379424" width="3.487" height="20.418" transform="translate(194.768 132.904)" fill="#e79e9e"/>
          <rect id="Rectángulo_379425" data-name="Rectángulo 379425" width="3.487" height="23.735" transform="translate(200.762 129.586)" fill="#e79e9e"/>
          <path id="Trazado_641993" data-name="Trazado 641993" d="M374.2,278l.041,6.993.02,6.993.028,13.986-.088-.088q4.807-.014,9.615,0l9.615.019,9.615.019,9.615.051-9.615.052-9.615.019-9.615.019q-4.808.017-9.615,0h-.088v-.088l.028-13.986.02-6.993Z" transform="translate(-205.426 -152.655)" fill="#ebebeb"/>
          <path id="Trazado_641994" data-name="Trazado 641994" d="M372.6,280.995a3.046,3.046,0,0,1,1.538,0,2.7,2.7,0,0,1-.769.1,2.73,2.73,0,0,1-.769-.1" transform="translate(-204.597 -154.243)" fill="#ebebeb"/>
          <path id="Trazado_641995" data-name="Trazado 641995" d="M372.6,285.709a2.732,2.732,0,0,1,.769-.1,2.7,2.7,0,0,1,.769.1,2.68,2.68,0,0,1-.769.1,2.713,2.713,0,0,1-.769-.1" transform="translate(-204.597 -156.831)" fill="#ebebeb"/>
          <path id="Trazado_641996" data-name="Trazado 641996" d="M372.6,290.424a3.044,3.044,0,0,1,1.538,0,2.682,2.682,0,0,1-.769.1,2.732,2.732,0,0,1-.769-.1" transform="translate(-204.597 -159.42)" fill="#ebebeb"/>
          <path id="Trazado_641997" data-name="Trazado 641997" d="M372.6,295.139a2.713,2.713,0,0,1,.769-.1,2.679,2.679,0,0,1,.769.1,2.7,2.7,0,0,1-.769.1,2.734,2.734,0,0,1-.769-.1" transform="translate(-204.597 -162.009)" fill="#ebebeb"/>
          <path id="Trazado_641998" data-name="Trazado 641998" d="M372.6,299.854a2.733,2.733,0,0,1,.769-.1,2.7,2.7,0,0,1,.769.1,2.681,2.681,0,0,1-.769.1,2.73,2.73,0,0,1-.769-.1" transform="translate(-204.597 -164.598)" fill="#ebebeb"/>
          <path id="Trazado_641999" data-name="Trazado 641999" d="M372.6,304.569a2.729,2.729,0,0,1,.769-.1,2.7,2.7,0,0,1,.769.1,2.692,2.692,0,0,1-.769.1,2.729,2.729,0,0,1-.769-.1" transform="translate(-204.597 -167.187)" fill="#ebebeb"/>
          <path id="Trazado_642000" data-name="Trazado 642000" d="M372.6,309.284a2.732,2.732,0,0,1,.769-.1,2.7,2.7,0,0,1,.769.1,2.7,2.7,0,0,1-.769.1,2.731,2.731,0,0,1-.769-.1" transform="translate(-204.597 -169.776)" fill="#ebebeb"/>
          <path id="Trazado_642001" data-name="Trazado 642001" d="M372.6,314a2.732,2.732,0,0,1,.769-.1,2.7,2.7,0,0,1,.769.1,2.7,2.7,0,0,1-.769.1,2.732,2.732,0,0,1-.769-.1" transform="translate(-204.597 -172.365)" fill="#ebebeb"/>
          <path id="Trazado_642002" data-name="Trazado 642002" d="M372.6,318.713a2.733,2.733,0,0,1,.769-.1,2.7,2.7,0,0,1,.769.1,2.7,2.7,0,0,1-.769.1,2.73,2.73,0,0,1-.769-.1" transform="translate(-204.597 -174.954)" fill="#ebebeb"/>
          <path id="Trazado_642003" data-name="Trazado 642003" d="M372.6,323.428a2.73,2.73,0,0,1,.769-.1,2.7,2.7,0,0,1,.769.1,3.047,3.047,0,0,1-1.538,0" transform="translate(-204.597 -177.543)" fill="#ebebeb"/>
          <path id="Trazado_642004" data-name="Trazado 642004" d="M372.6,328.143a2.733,2.733,0,0,1,.769-.1,2.68,2.68,0,0,1,.769.1,2.7,2.7,0,0,1-.769.1,2.73,2.73,0,0,1-.769-.1" transform="translate(-204.597 -180.132)" fill="#ebebeb"/>
          <path id="Trazado_642005" data-name="Trazado 642005" d="M372.6,332.858a2.728,2.728,0,0,1,.769-.1,2.7,2.7,0,0,1,.769.1,3.046,3.046,0,0,1-1.538,0" transform="translate(-204.597 -182.721)" fill="#ebebeb"/>
        </g>
      </g>
      <path id="Trazado_642006" data-name="Trazado 642006" d="M411,72.827l4.6-14.679,2.622,1.862Z" transform="translate(-225.684 -31.93)" fill="#455a64"/>
      <path id="Trazado_642007" data-name="Trazado 642007" d="M419.011,94.912l12.525-3.057.7,3.454Z" transform="translate(-230.083 -50.438)" fill="#455a64"/>
      <path id="Trazado_642008" data-name="Trazado 642008" d="M416.1,73.723l15.8-15.213,3.048,4.2Z" transform="translate(-228.484 -32.129)" fill="#455a64"/>
      <g id="Grupo_1075031" data-name="Grupo 1075031">
        <g id="Grupo_1075030" data-name="Grupo 1075030" clip-path="url(#clip-path)">
          <path id="Trazado_642009" data-name="Trazado 642009" d="M358.938,340.531H315.91q-1.211-3.591-2.286-7.029c-.884-2.832-1.619-5.564-2.191-8.157-.135-.613-.262-1.222-.379-1.822-.23-1.177-.428-2.322-.586-3.431-.8-5.569-.685-10.195.455-13.333,1.014-2.8,2.85-4.419,5.582-4.45.108,0,.221,0,.329,0,.221,0,.442.022.672.05,4.383.505,10.763,4.608,19.406,13.59q3.1,3.233,6.61,7.322,1.163,1.359,2.408,2.786c3.887,4.473,8.328,9.4,13.008,14.474" transform="translate(-170.197 -165.999)" fill="#ad6359"/>
          <path id="Trazado_642010" data-name="Trazado 642010" d="M359.988,331.448H303.036c-1.1-2.818-2.124-5.528-3.048-8.093q-1.035-2.874-1.849-5.537c-.221-.721-.433-1.434-.627-2.133h0q-.6-2.09-1.046-4.04c-.194-.821-.37-1.619-.523-2.4-.149-.735-.284-1.456-.4-2.16-.077-.469-.149-.929-.212-1.384s-.122-.9-.176-1.339c-.081-.694-.149-1.366-.194-2.025-.027-.352-.05-.7-.068-1.037,0-.059,0-.117-.009-.176-.212-4.662.437-8.305,1.831-10.866a8.1,8.1,0,0,1,4.315-3.918,2.884,2.884,0,0,1,.329-.122,12.506,12.506,0,0,1,7.8.406h0c3.891,1.276,8.441,3.986,13.486,8.2,10.339,8.635,24.172,22.617,37.347,36.63" transform="translate(-161.899 -156.916)" fill="#e79e9e"/>
          <path id="Trazado_642011" data-name="Trazado 642011" d="M386.191,334.307a28.945,28.945,0,0,0,3.4,9.392c1.181,2.029,3.436,4.806,6.015,3.111a3.721,3.721,0,0,0,1.263-1.456c-3.553-3.76-7.151-7.489-10.677-11.047m-12.458,15.069h5.334c-1.8-1.123-3.864-1.6-5.334,0m5.149-22.36c-3.134-3.075-6.2-5.988-9.072-8.6a6.077,6.077,0,0,0-.735,4.238,16.222,16.222,0,0,0,.262,2.142,24.281,24.281,0,0,0,2.3,6.7c.888,1.65,2.489,4.468,4.739,4.432a2.4,2.4,0,0,0,1.975-1.028,6.535,6.535,0,0,0,1.028-3.494,23.115,23.115,0,0,0-.5-4.392" transform="translate(-202.621 -174.844)" fill="#263238"/>
          <g id="Grupo_1075029" data-name="Grupo 1075029" transform="translate(132.942 131.779)" opacity="0.1">
            <g id="Grupo_1075028" data-name="Grupo 1075028">
              <g id="Grupo_1075027" data-name="Grupo 1075027" clip-path="url(#clip-path-4)">
                <path id="Trazado_642012" data-name="Trazado 642012" d="M320.834,335.016H303.047c-1.1-2.818-2.128-5.528-3.048-8.094q-1.035-2.874-1.853-5.537c-.221-.721-.433-1.434-.631-2.133q-.6-2.09-1.046-4.035l0,0c-.194-.821-.37-1.619-.523-2.4-.149-.735-.284-1.456-.4-2.16-.077-.469-.149-.929-.212-1.384s-.122-.9-.176-1.339c-.735-6.24-.135-10.97,1.578-14.095a9.633,9.633,0,0,1,1.055-1.569l1.326,2.457,3.517,6.524,4.631,8.589,1.677,3.111.433.8,6.583,12.21,3.467,6.434Z" transform="translate(-294.843 -292.263)"/>
              </g>
            </g>
          </g>
          <path id="Trazado_642013" data-name="Trazado 642013" d="M314.682,325.8H285.834c0-4.784,0-9.415.009-13.784,0-.852,0-1.7,0-2.529,0-1.574.009-3.111.014-4.6.027-10.83.077-19.366.1-23.591v0c.014-1.871.023-2.9.023-2.9l-.262-.983-.514-1.925a33.178,33.178,0,0,1,10.857,5.086q.906.636,1.822,1.38a30.441,30.441,0,0,1,4.288,4.247c.135.162.266.32.4.487.23.293.455.591.676.9.253.338.5.685.73,1.046v0a29.22,29.22,0,0,1,2.872,5.5c1.889,4.784,4.464,15.754,7.277,29.046q.271,1.3.555,2.629" transform="translate(-156.61 -151.27)" fill="#e79e9e"/>
          <path id="Trazado_642014" data-name="Trazado 642014" d="M233,327.043H140.737c11.105-18.374,21.661-33.966,27.283-39.629a22.772,22.772,0,0,1,2.4-2.106,29.557,29.557,0,0,1,5.564-3.377,38.94,38.94,0,0,1,6.042-2.254c1.136-.329,2.3-.609,3.467-.852a55.75,55.75,0,0,1,16.724-.785h0c1.425.149,2.818.352,4.171.609a36.851,36.851,0,0,1,10.014,3.282,21.912,21.912,0,0,1,2.151,1.258,14.845,14.845,0,0,1,3.851,3.58c.144.2.293.424.437.667.095.158.189.32.284.491q.23.419.46.893.548,1.136,1.1,2.6v0c2.2,5.8,4.459,15.285,6.637,26.557.559,2.913,1.118,5.943,1.668,9.063" transform="translate(-77.28 -152.511)" fill="#ebebeb"/>
          <path id="Trazado_642015" data-name="Trazado 642015" d="M225.18,301.009a104.838,104.838,0,0,0,10.227,11.669,47.242,47.242,0,0,0,12.215,8.918,21.762,21.762,0,0,0,14.326,2.057,15.715,15.715,0,0,0,10.816-9.633A15.048,15.048,0,0,1,262.5,325.583c-5.312,1.679-11.135.677-15.986-1.671a41.062,41.062,0,0,1-12.545-9.851,57.742,57.742,0,0,1-8.784-13.053" transform="translate(-123.648 -165.287)" fill="#c7c7c7"/>
          <path id="Trazado_642016" data-name="Trazado 642016" d="M176.4,327.181H127.627c9.365-18.126,17.431-33.163,20.57-37.054a0,0,0,0,0,0,0,6.653,6.653,0,0,1,.509-.582c3.774-3.747,9.225-6.425,14.162-8.251a74.5,74.5,0,0,1,11.885-3.3s.023.636.068,1.822c.086,2.4.257,7.052.464,13.175q.034.933.068,1.907c.3,8.792.681,20.218,1.042,32.284" transform="translate(-70.081 -152.649)" fill="#e79e9e"/>
          <path id="Trazado_642017" data-name="Trazado 642017" d="M207.941,329.235v0c-.032-.077-.068-.149-.1-.221-.045-.09-.095-.176-.144-.257,0,0,0,0-.009-.009a2.871,2.871,0,0,0-.176-.234v0a1.263,1.263,0,0,0-.131-.14c-.068-.068-.135-.126-.2-.185h0a2.236,2.236,0,0,0-.212-.149,1.2,1.2,0,0,0-.149-.081,1.905,1.905,0,0,0-.464-.167c-.027-.009-.059-.014-.086-.023h0a3.173,3.173,0,0,0-1.483.117,10.31,10.31,0,0,0-2.985,1.619,24.352,24.352,0,0,0-3.156,2.782c-.334.347-.658.708-.974,1.078-.212.248-.415.5-.618.757s-.4.514-.591.78a19.381,19.381,0,0,0-3.269,6.953c-.122.28-.239.555-.343.834q-.074.183-.135.365c-.036.1-.072.207-.1.311-.045.131-.081.261-.117.388-.446,1.569-.464,2.989.307,3.9a1.975,1.975,0,0,0,.135.144,2.5,2.5,0,0,0,.307.257h0a3.093,3.093,0,0,0,1.037.464.839.839,0,0,0,.153.027.862.862,0,0,0,.149.027,3.161,3.161,0,0,0,1.357-.162c.126-.041.257-.09.388-.144l0,0a4.229,4.229,0,0,0,.46-.216c.144-.072.289-.153.428-.239s.248-.153.374-.239a15.124,15.124,0,0,0,1.529-1.195c.068-.059.131-.117.194-.176s.113-.1.171-.158c.122-.108.239-.216.356-.329.054-.05.108-.1.162-.153.194-.18.374-.361.546-.523.144-.144.28-.275.4-.392.234-.225.469-.46.7-.7.176-.18.347-.361.519-.55.2-.212.392-.433.586-.654s.383-.446.568-.672v0a23.779,23.779,0,0,0,3.548-5.835c.7-1.7,1.9-4.955,1.078-6.98" transform="translate(-105.522 -179.953)" fill="#263238"/>
          <path id="Trazado_642018" data-name="Trazado 642018" d="M157.642,306.826v0c-1.2,5.181-4.013,11.394-8.486,18.13-.505.762-1.019,1.538-1.538,2.336l0,0c-1.285,1.975-2.62,4.058-3.986,6.231H103.477c12.756-12.684,32.654-43.191,48.016-43.962,7.085-.356,8.21,8.369,6.15,17.256" transform="translate(-56.82 -159)" fill="#ad6359"/>
          <path id="Trazado_642019" data-name="Trazado 642019" d="M159.3,296.846a36.78,36.78,0,0,1-1.434,9.284v0q-.284,1.055-.627,2.155c-.09.284-.18.573-.275.861-.144.437-.293.884-.451,1.339-.117.329-.234.663-.356,1-.1.289-.212.586-.325.879s-.221.6-.338.9c-.455,1.2-.942,2.453-1.461,3.733-.126.32-.257.645-.392.969s-.266.654-.4.983v0c-1.6,3.882-3.436,8.066-5.433,12.431H100.97c.081-.081,14.1-18.488,25.128-30.217,10.146-10.8,21.891-17.693,28.049-14.894,3.1,1.41,4.874,4.568,5.122,9.239v0c.023.428.036.87.027,1.33" transform="translate(-55.444 -156.852)" fill="#e79e9e"/>
          <path id="Trazado_642020" data-name="Trazado 642020" d="M207.837,329.01c-.045-.09-.095-.176-.144-.257,0,0,0,0-.009-.009a2.871,2.871,0,0,0-.176-.234v0a1.263,1.263,0,0,0-.131-.14,1.563,1.563,0,0,0-.2-.185h0a2.236,2.236,0,0,0-.212-.149,1.2,1.2,0,0,0-.149-.081,1.905,1.905,0,0,0-.464-.167v0a.736.736,0,0,0-.086-.018h0a3.173,3.173,0,0,0-1.483.117,10.31,10.31,0,0,0-2.985,1.619,24.352,24.352,0,0,0-3.156,2.782c-.334.347-.658.708-.974,1.078-.212.248-.415.5-.618.757s-.4.514-.591.78a19.381,19.381,0,0,0-3.269,6.953c-.122.28-.239.555-.343.834q-.074.183-.135.365c-.036.1-.072.207-.1.311-.045.131-.081.261-.117.388-.446,1.569-.464,2.989.307,3.9a1.975,1.975,0,0,0,.135.144,2.5,2.5,0,0,0,.307.257h0a3.166,3.166,0,0,0,1.042.46c.05.009.1.023.149.032a.862.862,0,0,0,.149.027,3.161,3.161,0,0,0,1.357-.162c.126-.041.257-.09.388-.144l0,0a4.229,4.229,0,0,0,.46-.216c.144-.072.289-.153.428-.239s.248-.153.374-.239a15.124,15.124,0,0,0,1.529-1.195c.068-.059.131-.117.194-.176s.113-.1.171-.158c.122-.108.239-.216.356-.329.054-.05.108-.1.162-.153.194-.18.374-.361.546-.523.144-.144.28-.275.4-.392.234-.225.469-.46.7-.7.176-.18.347-.361.519-.55.2-.212.392-.433.586-.654s.383-.446.568-.672v0c.135-.329.271-.658.4-.983s.266-.649.392-.969c.519-1.281,1.006-2.53,1.461-3.733.117-.3.23-.6.338-.9s.221-.591.325-.879c.122-.334.239-.667.356-1,.158-.455.307-.9.451-1.339.095-.289.185-.577.275-.861q.345-1.1.627-2.155v0c-.032-.077-.068-.149-.1-.221" transform="translate(-105.522 -179.953)" fill="#263238"/>
          <path id="Trazado_642021" data-name="Trazado 642021" d="M206.878,384.768c-.162.311-.325.627-.491.938h-.419c.221-.356.446-.708.672-1.064a.135.135,0,0,1,.239.126" transform="translate(-113.098 -211.174)" fill="#263238"/>
          <path id="Trazado_642022" data-name="Trazado 642022" d="M263.682,69.222c-.041-.018-.081.041-.045.063,4.324,2.913,6.912,8.215,4.906,13.391-1.718,4.423-5.474,6.367-9.635,6.826a14.8,14.8,0,0,0,7.9-8.432,10.787,10.787,0,0,0-3.3-11.692c3.3-3.851,5.492-9.063,4.306-14.05a10.74,10.74,0,0,0-8.7-8.26,12.541,12.541,0,0,0-.879-13.919,12.687,12.687,0,0,0-12.535-4.135,10.129,10.129,0,0,0-9.433-14.5,6.8,6.8,0,0,0-2.435-7.074c-2.421-1.975-5.722-2.2-8.8-1.871a8.1,8.1,0,0,0-5.807-5.4A7.844,7.844,0,0,0,210.4,4.844c-4.324-2.453-9.374-4.5-14.474-3.4-4.2.915-8.1,4.026-8.914,8.3a15.5,15.5,0,0,0-20.5,9.992,10.981,10.981,0,0,0-9.721,4.482,15.847,15.847,0,0,0-3.161,6.908,8.2,8.2,0,0,0-7.724,5.321c-1.186,3.125-.428,6.123,1.064,8.828a6.031,6.031,0,0,1-.776,2.561,13.6,13.6,0,0,0-.311,12.945c-4.094,3.824-3.751,10.776.672,13.987a10.283,10.283,0,0,0,4.162,14.054,15.13,15.13,0,0,0,.14,12.729c1.492,3.039,4.5,5.758,8.035,5.424-.866,2.566,1.208,5.158,3.657,6.069a13.252,13.252,0,0,0,2.9.658c1.168.153,2.714.036,3.76.6,1.1.573,1.565,1.916,2.259,2.854a11.811,11.811,0,0,0,1.713,1.84,14.1,14.1,0,0,0,14.3,2.142,13.044,13.044,0,0,0,3.269-1.889c2.417,3.219,6.66,3.851,10.573,3.206.464-.077.924-.171,1.375-.28a24.383,24.383,0,0,0,4.013-1.456,12.406,12.406,0,0,1,1.357-.519,4.981,4.981,0,0,1,2.309-.185c.821.135,1.6.451,2.417.591,2.786.469,5.181-.866,7.39-2.435a11.924,11.924,0,0,0,6.7,4.279h0c7.151,1.583,15.191-3.972,16.715-12.165a13.944,13.944,0,0,0,12.016-4.752l0,0a12.456,12.456,0,0,0,.87-1.168A13.135,13.135,0,0,0,257.2,91.42v0s0,0,0-.009,0,0,0-.009c-.131-.271-.271-.537-.424-.8.135,0,.275.009.415,0,5.185.068,10.258-2.268,12.237-7.575,2.1-5.636-.69-11.155-5.749-13.806M153.539,31.943s-1.06.5-1.547.794a11.215,11.215,0,0,0-5.082,7.787,11.263,11.263,0,0,0,0,2.836c.014.126.014.23.023.352a9.944,9.944,0,0,1-.491-5.492,8.641,8.641,0,0,1,7.129-6.709c-.027.262-.036.433-.036.433M219.071.863A6.778,6.778,0,0,1,224.026,5.7c-.018,0-.036,0-.054,0a8.614,8.614,0,0,0-3.9-2.863,8.264,8.264,0,0,0-9.018,2.367c-.077-.045-.158-.086-.234-.131,1.862-2.94,4.369-5.136,8.251-4.216m7.985,120.721h0a13.631,13.631,0,0,1-6.421-3.729c.032-.023.068-.045.1-.068a14.287,14.287,0,0,0,6.6,2.525v0a15.089,15.089,0,0,0,13.563-5.708c-3.373,5-8.486,8.2-13.833,6.975" transform="translate(-78.53 0)" fill="#263238"/>
          <path id="Trazado_642023" data-name="Trazado 642023" d="M269.017,270.88c-9.635,1.716-25.467-7.556-31.254-19.694-.392-.834,4.769-32.941,5.132-39.409l40.017,12.128s-4.747,13.336-5.31,24.616a14.527,14.527,0,0,0,.13,2.671c.006.122.034.272.034.443.539,5.088.562,17.58-8.75,19.245" transform="translate(-130.546 -116.289)" fill="#ad6359"/>
          <path id="Trazado_642024" data-name="Trazado 642024" d="M287.29,252.2c0,.114.032.255.033.426a25.858,25.858,0,0,1-4.175.012C259.7,250.8,255.78,221.755,255.16,213.61l10,3.026,27.317,8.281s-4.754,13.338-5.3,24.619a13.808,13.808,0,0,0,.111,2.668" transform="translate(-140.111 -117.295)" fill="#263238"/>
          <path id="Trazado_642025" data-name="Trazado 642025" d="M233.707,81.042c-3.474,14.984,7.18,56.852,18.267,65.591,16.072,12.668,40.939,12.281,51.337-6.707,10.08-18.406-4.771-72.725-17.019-80.518-18.041-11.477-47.453-.5-52.585,21.634" transform="translate(-127.963 -30.091)" fill="#ad6359"/>
          <path id="Trazado_642026" data-name="Trazado 642026" d="M324.749,162.381c-.049-.1-.188.189-.155.3.793,2.8,1.23,6.143-1.091,7.717-.072.048-.028.188.063.152,3.008-1.216,2.383-5.646,1.183-8.173" transform="translate(-177.619 -89.153)" fill="#263238"/>
          <path id="Trazado_642027" data-name="Trazado 642027" d="M315.823,157.22c-4.628.787-2.712,9.984,1.575,9.255,4.219-.718,2.3-9.915-1.575-9.255" transform="translate(-171.95 -86.312)" fill="#263238"/>
          <path id="Trazado_642028" data-name="Trazado 642028" d="M364.155,154.55c0-.114.252.088.271.205.5,2.868,1.561,6.067,4.335,6.477.086.013.108.158.01.164-3.237.212-4.6-4.05-4.617-6.846" transform="translate(-199.961 -84.846)" fill="#263238"/>
          <path id="Trazado_642029" data-name="Trazado 642029" d="M366.079,146.662c4.509-1.3,6.781,7.813,2.6,9.019-4.112,1.188-6.384-7.928-2.6-9.019" transform="translate(-199.96 -80.464)" fill="#263238"/>
          <path id="Trazado_642030" data-name="Trazado 642030" d="M306.068,141.2a36.662,36.662,0,0,1,3.72-1.02c1.432-.376,2.533-.822,3.992-.317a1.987,1.987,0,0,1,1.108,2.158c-.447,1.828-2.086,2.724-3.791,3.247a7.235,7.235,0,0,1-5.21-.2c-1.734-.7-1.447-3.258.181-3.87" transform="translate(-167.32 -76.675)" fill="#263238"/>
          <path id="Trazado_642031" data-name="Trazado 642031" d="M363.486,124.221a36.469,36.469,0,0,1-3.85-.236c-1.477-.107-2.663-.04-3.88-.99a1.986,1.986,0,0,1-.351-2.4c1.013-1.585,2.854-1.9,4.636-1.847a7.236,7.236,0,0,1,4.868,1.868c1.414,1.227.316,3.551-1.423,3.605" transform="translate(-195.018 -65.202)" fill="#263238"/>
          <path id="Trazado_642032" data-name="Trazado 642032" d="M345.107,222.668c.63.744,1.234,1.744,2.277,1.932a7.693,7.693,0,0,0,3.183-.434.1.1,0,0,1,.112.16,3.919,3.919,0,0,1-3.826,1.225,3.1,3.1,0,0,1-2.035-2.778c-.028-.172.2-.212.29-.1" transform="translate(-189.341 -122.236)" fill="#263238"/>
          <path id="Trazado_642033" data-name="Trazado 642033" d="M335.1,162.215a9.7,9.7,0,0,0,7.13,3.123,12.2,12.2,0,0,0,3.465-.451,3.476,3.476,0,0,0,.643-.192c.2-.061.381-.118.6-.2a.709.709,0,0,0,.452-.728l0-.02a1.335,1.335,0,0,0-.078-.283l0-.021-.049-.245c-.323-2.171-1.115-5.42-1.115-5.42.859.257,5.205,1.354,4.942.236-2.212-9.245-4.671-19.528-8.824-28.26a.264.264,0,0,0-.5.162c1.774,8.97,5.113,17.568,7.039,26.55-1.372-.261-3.626-.794-4.753-.572-.291.143,1.641,6.252,1.708,7.239a.35.35,0,0,1,0,.106c-3.548,1.106-6.478.493-10.434-1.321-.237-.123-.426.106-.218.3" transform="translate(-183.956 -71.161)" fill="#263238"/>
          <path id="Trazado_642034" data-name="Trazado 642034" d="M289.452,72.111c-1.795-3.576-3.657-4.139-3.657-4.139s-.555-4.432-5.289-9.577c-4.955-5.384-9.6-5.573-9.6-5.573a19.668,19.668,0,0,0-7.886-3.508,29.688,29.688,0,0,0-5.366-.762c-2.038-.108-8.08.591-9.847,1.583-2.034,1.15-4.464.316-6.7.568a14.905,14.905,0,0,0-5.907,1.957,16.083,16.083,0,0,0-4.072,3.35,24.942,24.942,0,0,0-1.858,2.561,7.1,7.1,0,0,1-3.535,2.741,12.87,12.87,0,0,0-6.93,7.963,16.525,16.525,0,0,0-.645,6.75c.262,2.841-2.534,4.558-3.319,7.138a9.667,9.667,0,0,0-.361,1.691,10.746,10.746,0,0,0,3.873,9.636c-3.35,3.138-3.95,9.239-1.362,13.635a9.343,9.343,0,0,0,2.02,2.4c.081.068.162.135.243.2a9.872,9.872,0,0,0,1.488.965,15.164,15.164,0,0,0,5.023,1.492,8.685,8.685,0,0,0,1.871.05c.2,0,.392,0,.586,0a8.257,8.257,0,0,0,1.208-.131,8.433,8.433,0,0,0,1.619-.473,9.877,9.877,0,0,0,3.824-2.777,11.123,11.123,0,0,0,1.727-2.723,11.311,11.311,0,0,0-.054-9.365v-.063s7.9,1.928,11.321-3.88c2.092-3.558,2.331-8.094,1.8-12.418,9,4.148,19.853-2.534,19.929-13.41,2.71,2.291,8.6,5.048,11.613,3.655,2.552,9.185,7.442,9,9.309,8.878a.612.612,0,0,0,.131-.014c.234-.036.861-4.292-1.2-8.4m-53.265,33.421a10.953,10.953,0,0,1-2.327,3.833,4.414,4.414,0,0,1-.32.338c.095-.126.185-.253.271-.383a11.063,11.063,0,0,0,1.1-2.052,13.008,13.008,0,0,0,.586-1.736,26.758,26.758,0,0,0,.676-7.2,10.768,10.768,0,0,1,.009,7.2m22.86-24.8c4.6-1.961,8.188-6.367,9.442-12.228-.654,6.732-4.459,10.659-9.442,12.228" transform="translate(-117.732 -26.654)" fill="#263238"/>
          <path id="Trazado_642035" data-name="Trazado 642035" d="M217.465,86.827c5.982,5.176,15.605,4.9,23,.325,4.85-3,7.371-9.778,11.955-15.627,7.548-9.63,25.4-11.885,20.617-26.8-4.252-13.258-26.367-14.831-45.422-3.65-16.834,9.876-23.593,34.124-10.151,45.751" transform="translate(-115.493 -18.468)" fill="#fff"/>
          <path id="Trazado_642036" data-name="Trazado 642036" d="M316.352,158.757a10.686,10.686,0,0,0-.347-1.078v0c-.1-.262-.2-.523-.32-.776a13.238,13.238,0,0,0-16.705-6.984c-.3.113-.6.234-.884.37a13.255,13.255,0,0,0-7.458,9.428,13.4,13.4,0,0,0-.234,1.758A13.242,13.242,0,0,0,308.245,174.7a12.872,12.872,0,0,0,2.728-1.4c.18-.117.356-.243.532-.374a13.259,13.259,0,0,0,4.847-14.171m-8.729,14.289A11.463,11.463,0,1,1,314.35,158.3a11.475,11.475,0,0,1-6.727,14.749" transform="translate(-159.448 -81.861)" fill="#ffc727"/>
          <path id="Trazado_642037" data-name="Trazado 642037" d="M381.165,145.147a15.771,15.771,0,0,0-4.788-8.391,10.236,10.236,0,0,0-3.86-2.182,7.7,7.7,0,0,0-3.9-.126,8.755,8.755,0,0,0-5.988,5.456,14.324,14.324,0,0,0-1.091,4.955v0a16.376,16.376,0,0,0,.009,1.758,17.5,17.5,0,0,0,.243,2.029c.05.3.113.6.18.9a16.929,16.929,0,0,0,2.336,5.532c2.354,3.567,5.88,5.686,9.365,5.307a8.087,8.087,0,0,0,.857-.144,7.474,7.474,0,0,0,2.394-1.019c3.747-2.412,5.614-8.125,4.247-14.077m-4.423,12.016a6,6,0,0,1-2.615,1.357c-4.36,1-9.027-3.21-10.438-9.369a16.648,16.648,0,0,1-.347-2.218v0c-.023-.225-.036-.455-.045-.681v0c-.018-.379-.018-.753,0-1.127v0a12.624,12.624,0,0,1,.956-4.513c.095-.225.2-.442.311-.654a6.8,6.8,0,0,1,4.45-3.769,6.472,6.472,0,0,1,.658-.113,6.4,6.4,0,0,1,3.4.613,9.055,9.055,0,0,1,2.142,1.411,14.039,14.039,0,0,1,4.229,7.458c1.091,4.77-.09,9.342-2.7,11.619" transform="translate(-198.511 -73.721)" fill="#ffc727"/>
          <path id="Trazado_642038" data-name="Trazado 642038" d="M345.3,165.9l-1.411-1.068c1.58-2.09,5.6-5.335,9.518-2.686l-.99,1.465c-3.509-2.378-6.971,2.1-7.117,2.289" transform="translate(-188.831 -88.487)" fill="#ffc727"/>
          <path id="Trazado_642039" data-name="Trazado 642039" d="M220.037,181.416l-1.612-.728c.342-.752,3.434-7.368,7.345-8.216,3.657-.782,24.817-.154,25.827-.111l-.075,1.767c-6.821-.287-22.554-.539-25.377.074-2.582.559-5.284,5.4-6.108,7.214" transform="translate(-119.939 -94.492)" fill="#ffc727"/>
          <path id="Trazado_642040" data-name="Trazado 642040" d="M240.076,176.351s-10.787-12.841-16.7-8.877,3.048,23.17,10.582,25.238a7.445,7.445,0,0,0,9.583-4.868Z" transform="translate(-121.608 -91.545)" fill="#ad6359"/>
          <path id="Trazado_642041" data-name="Trazado 642041" d="M231.6,180.468a.1.1,0,0,0-.021.2c5.3,1.618,8.409,6.121,10.73,10.869-1.689-1.758-3.852-2.61-6.226-.576-.124.107.022.3.163.261a4.581,4.581,0,0,1,5.162,1.147,22.115,22.115,0,0,1,2.764,3.847c.28.436,1.084.119.863-.393-.016-.037-.036-.077-.053-.114-.449-6.531-6.326-15.205-13.383-15.241" transform="translate(-127.121 -99.097)" fill="#263238"/>
          <path id="Trazado_642042" data-name="Trazado 642042" d="M280.522,41.873v4.405a.842.842,0,0,1-.842.842.862.862,0,0,1-.665-.326,1.756,1.756,0,1,0,0,2.225.863.863,0,0,1,.665-.326.842.842,0,0,1,.842.842V53.94h-4.406a.842.842,0,0,0-.842.842.861.861,0,0,0,.326.665,1.756,1.756,0,1,1-2.225,0,.862.862,0,0,0,.326-.665.842.842,0,0,0-.842-.842h-4.406V49.535a.842.842,0,0,1,.842-.842.863.863,0,0,1,.665.326,1.756,1.756,0,1,0,0-2.225.862.862,0,0,1-.665.326.842.842,0,0,1-.842-.842V41.873h4.406a.842.842,0,0,0,.842-.842.863.863,0,0,0-.326-.665,1.756,1.756,0,1,1,2.225,0,.862.862,0,0,0-.326.665.842.842,0,0,0,.842.842Z" transform="translate(-147.411 -20.454)" fill="#263238"/>
          <path id="Trazado_642043" data-name="Trazado 642043" d="M274.89,32.8h-4.406a.842.842,0,0,1-.842-.842.862.862,0,0,1,.326-.665,1.756,1.756,0,1,0-2.225,0,.863.863,0,0,1,.326.665.842.842,0,0,1-.842.842h-4.406V28.4a.842.842,0,0,0-.842-.842.861.861,0,0,0-.665.326,1.756,1.756,0,1,1,0-2.225.862.862,0,0,0,.665.326.842.842,0,0,0,.842-.842V20.737h4.406a.842.842,0,0,1,.842.842.862.862,0,0,1-.326.665,1.756,1.756,0,1,0,2.225,0,.861.861,0,0,1-.326-.665.842.842,0,0,1,.842-.842h4.406v4.406a.842.842,0,0,0,.842.842.863.863,0,0,0,.665-.326,1.756,1.756,0,1,1,0,2.225.863.863,0,0,0-.665-.326.842.842,0,0,0-.842.842Z" transform="translate(-141.78 -11.387)" fill="#fff"/>
          <path id="Trazado_642044" data-name="Trazado 642044" d="M182.8,94.7h4.405a.842.842,0,0,1,.842.842.862.862,0,0,1-.326.665,1.756,1.756,0,1,0,2.225,0,.863.863,0,0,1-.326-.665.842.842,0,0,1,.842-.842h4.406V99.1a.842.842,0,0,0,.842.842.861.861,0,0,0,.665-.326,1.756,1.756,0,1,1,0,2.225.862.862,0,0,0-.665-.326.842.842,0,0,0-.842.842v4.406h-4.406a.842.842,0,0,1-.842-.842.863.863,0,0,1,.326-.665,1.756,1.756,0,1,0-2.225,0,.862.862,0,0,1,.326.665.842.842,0,0,1-.842.842H182.8V102.36a.842.842,0,0,0-.842-.842.863.863,0,0,0-.665.326,1.756,1.756,0,1,1,0-2.225.862.862,0,0,0,.665.326.842.842,0,0,0,.842-.842Z" transform="translate(-97.841 -52)" fill="#fff"/>
        </g>
      </g>
      <path id="Trazado_642045" data-name="Trazado 642045" d="M117.13,386.663l-24.042.04-24.043.11,24.043.11,24.042.04,48.085.076,48.085-.075,24.043-.039,24.042-.11-24.042-.111-24.043-.04-48.085-.075Z" transform="translate(-37.913 -212.279)" fill="#263238"/>
      <g id="Grupo_1075033" data-name="Grupo 1075033">
        <g id="Grupo_1075032" data-name="Grupo 1075032" clip-path="url(#clip-path)">
          <path id="Trazado_642046" data-name="Trazado 642046" d="M227.6,43.691c4.472,8.34.507,13.21,1.111,15.845a43.685,43.685,0,0,0,1.717,4.661l-8.056,5.615a42.23,42.23,0,0,0-3.779-3.224c-2.258-1.482-8.2.557-14.476-6.529-4.124-4.653-5.891-15.308,2.634-21.25s17.9-.594,20.849,4.882" transform="translate(-110.201 -19.881)" fill="#ffc727"/>
          <rect id="Rectángulo_379429" data-name="Rectángulo 379429" width="0.323" height="15.89" transform="translate(103.157 37.995) rotate(-45.444)" fill="#fff"/>
          <rect id="Rectángulo_379430" data-name="Rectángulo 379430" width="0.322" height="15.89" transform="matrix(0.912, -0.411, 0.411, 0.912, 111.87, 31.851)" fill="#fff"/>
          <path id="Trazado_642047" data-name="Trazado 642047" d="M236.947,78.628c-.853.595-2.123.131-2.8-.2L234,78.357a1.178,1.178,0,0,1-.415.893c-1.178.821-3.369-1.3-3.461-1.4l.113-.115c.022.021,2.188,2.123,3.256,1.378a1.072,1.072,0,0,0,.354-.843,6.725,6.725,0,0,1-2.195-1.855c-.477-.684-.5-1.23-.056-1.537h0a.845.845,0,0,1,.883-.081c.789.369,1.423,1.843,1.52,2.986a3.317,3.317,0,0,1,.012.4c1.046.549,2.163.79,2.847.313a2.268,2.268,0,0,0,.661-2.137q-.012-.143-.032-.288a3.981,3.981,0,0,1-2.243-1.63c-.608-.872-.663-1.639-.144-2a.652.652,0,0,1,.682-.038c.783.367,1.612,1.987,1.85,3.539a1.471,1.471,0,0,0,1.106-.233h0c.917-.639-.1-3.562-.107-3.592l.152-.054c.044.125,1.064,3.069.046,3.778a1.625,1.625,0,0,1-1.176.26c.01.082.019.164.026.245A2.464,2.464,0,0,1,236.947,78.628Zm-1.758-6.055c-.523.365-.248,1.157.185,1.777a4.016,4.016,0,0,0,2.086,1.558c-.242-1.469-1.031-3.022-1.749-3.359a.488.488,0,0,0-.521.024m-3.5,2.442h0c-.48.335-.146.966.1,1.313a6.471,6.471,0,0,0,2.068,1.769c0-.093,0-.192-.013-.295-.092-1.077-.7-2.513-1.428-2.855a.685.685,0,0,0-.722.068" transform="translate(-126.362 -39.57)" fill="#fff"/>
          <rect id="Rectángulo_379431" data-name="Rectángulo 379431" width="12.116" height="2.368" transform="translate(110.997 50.242) rotate(-34.878)" fill="#dbdbdb"/>
          <rect id="Rectángulo_379432" data-name="Rectángulo 379432" width="12.116" height="2.368" transform="translate(112.57 52.499) rotate(-34.878)" fill="#dbdbdb"/>
          <rect id="Rectángulo_379433" data-name="Rectángulo 379433" width="12.116" height="2.368" transform="translate(114.143 54.755) rotate(-34.878)" fill="#dbdbdb"/>
          <path id="Trazado_642048" data-name="Trazado 642048" d="M206.527,63.993c-2.587-4.062-2.8-10.348,1.121-13.646-2.689,4.087-2.34,9.11-1.121,13.646" transform="translate(-112.366 -27.646)" fill="#fff"/>
        </g>
      </g>
      <g id="Grupo_1075047" data-name="Grupo 1075047">
        <g id="Grupo_1075046" data-name="Grupo 1075046" clip-path="url(#clip-path)">
          <path id="Trazado_642049" data-name="Trazado 642049" d="M292.509,90.842a5.78,5.78,0,0,0,.1-2.208l1.365-.58-.634-1.876-1.462.372a5.682,5.682,0,0,0-1.48-1.671l.542-1.336-1.775-.879-.735,1.245a5.807,5.807,0,0,0-2.3-.162L285.6,82.5l-1.872.631.334,1.313a5.779,5.779,0,0,0-1.793,1.569l-1.177-.472-.874,1.771,1.1.656a5.833,5.833,0,0,0-.12,2.42l-1.144.489.631,1.871,1.26-.32a5.7,5.7,0,0,0,1.628,1.768l-.482,1.188,1.775.879.7-1.171a5.8,5.8,0,0,0,2.33.069l.536,1.261,1.876-.63-.358-1.409a5.788,5.788,0,0,0,1.645-1.539l1.35.539.873-1.767Zm-6.069,2.623a4.041,4.041,0,1,1,4.572-3.429,4.041,4.041,0,0,1-4.572,3.429" transform="translate(-153.778 -45.304)" fill="#dbdbdb"/>
          <path id="Trazado_642050" data-name="Trazado 642050" d="M297.959,99.813l-.746.565-1.382-1.824-.505-.667a1.177,1.177,0,0,0,.29-.164,1.214,1.214,0,0,0,.383-.5l.537.708Z" transform="translate(-162.166 -53.388)" fill="#dbdbdb"/>
          <path id="Trazado_642051" data-name="Trazado 642051" d="M293.464,92.467a2.036,2.036,0,1,0-.66,3.036,2.039,2.039,0,0,0,.7-.62,2.037,2.037,0,0,0-.045-2.416m-.875,2.2a1.184,1.184,0,0,1-.29.164,1.214,1.214,0,1,1,.29-.164" transform="translate(-159.139 -50.337)" fill="#dbdbdb"/>
          <path id="Trazado_642052" data-name="Trazado 642052" d="M223.281,119.937a4.03,4.03,0,0,0,.7-1.373l1.033.023.135-1.373-1.035-.184a3.962,3.962,0,0,0-.46-1.485l.727-.693-.874-1.067-.825.579a4.041,4.041,0,0,0-1.414-.763l.021-.941-1.369-.137-.165.929a4.028,4.028,0,0,0-1.589.481l-.611-.638-1.064.874.51.732a4.064,4.064,0,0,0-.771,1.5l-.867-.018-.137,1.369.891.159a3.971,3.971,0,0,0,.526,1.589l-.647.616.875,1.067.777-.543a4.05,4.05,0,0,0,1.46.713l-.022.954,1.372.138.177-1a4.039,4.039,0,0,0,1.486-.5l.7.729,1.062-.871Zm-4.605-.077a2.815,2.815,0,1,1,3.886-.865,2.815,2.815,0,0,1-3.886.865" transform="translate(-118.182 -61.787)" fill="#dbdbdb"/>
          <path id="Trazado_642053" data-name="Trazado 642053" d="M270.916,132.2a4.03,4.03,0,0,0,1.3-.819l.874.551.823-1.107-.793-.69a3.967,3.967,0,0,0,.37-1.51l.98-.22-.2-1.365-1.005.073a4.046,4.046,0,0,0-.82-1.382l.5-.8-1.1-.822-.619.712a4.029,4.029,0,0,0-1.61-.4l-.2-.862-1.361.2.06.89a4.06,4.06,0,0,0-1.434.891l-.734-.462-.822,1.1.683.595a3.956,3.956,0,0,0-.367,1.633l-.872.2.2,1.365.946-.066a4.039,4.039,0,0,0,.884,1.362l-.509.807,1.1.824.665-.764a4.041,4.041,0,0,0,1.534.332l.226.987,1.359-.2Zm-3.91-2.436a2.815,2.815,0,1,1,3.777,1.258,2.815,2.815,0,0,1-3.777-1.258" transform="translate(-145.281 -67.847)" fill="#b285c3"/>
          <path id="Trazado_642054" data-name="Trazado 642054" d="M245.186,132.433a5.775,5.775,0,0,0-.622-2.121l1.1-.991-1.208-1.569-1.262.825a5.688,5.688,0,0,0-1.942-1.1l.079-1.44-1.964-.257-.293,1.416a5.814,5.814,0,0,0-2.229.592l-.9-1-1.566,1.2.741,1.134a5.793,5.793,0,0,0-1.189,2.065l-1.266-.065-.253,1.959,1.253.264a5.829,5.829,0,0,0,.67,2.329l-.924.833,1.2,1.566,1.088-.711a5.691,5.691,0,0,0,2.112,1.145l-.071,1.281,1.964.256.279-1.332a5.809,5.809,0,0,0,2.227-.689l.915,1.019,1.57-1.2-.8-1.217a5.782,5.782,0,0,0,1.058-1.989l1.451.073.254-1.955Zm-4.892,4.448a4.041,4.041,0,1,1,3.214-4.725,4.041,4.041,0,0,1-3.214,4.725" transform="translate(-127.62 -69.067)" fill="#665b3d"/>
          <g id="Grupo_1075036" data-name="Grupo 1075036" transform="translate(111.541 61.694)" opacity="0.6">
            <g id="Grupo_1075035" data-name="Grupo 1075035">
              <g id="Grupo_1075034" data-name="Grupo 1075034" clip-path="url(#clip-path-7)">
                <path id="Trazado_642055" data-name="Trazado 642055" d="M250.433,137.67a.843.843,0,1,1-.843-.843.843.843,0,0,1,.843.843" transform="translate(-248.13 -136.827)" fill="#455a64"/>
                <path id="Trazado_642056" data-name="Trazado 642056" d="M250.3,142.079v.308H247.38v-.308a1.458,1.458,0,0,1,2.917,0" transform="translate(-247.38 -138.912)" fill="#455a64"/>
              </g>
            </g>
          </g>
          <path id="Trazado_642057" data-name="Trazado 642057" d="M245.642,138.8a.843.843,0,1,1-.843-.843.844.844,0,0,1,.843.843" transform="translate(-133.958 -75.752)" fill="#543f5c"/>
          <path id="Trazado_642058" data-name="Trazado 642058" d="M245.506,143.207v.308h-2.917v-.308a1.458,1.458,0,0,1,2.917,0" transform="translate(-133.208 -77.837)" fill="#543f5c"/>
          <path id="Trazado_642059" data-name="Trazado 642059" d="M320.8,54.641l.22-1.686-1.975-.459a9.35,9.35,0,0,0-.363-2.715l1.773-.955-.652-1.571-1.939.592a9.046,9.046,0,0,0-1.676-2.168l1.066-1.718L315.9,42.927l-1.387,1.479a8.911,8.911,0,0,0-2.531-1.038l.06-2.021-1.686-.22L309.9,43.1a9.2,9.2,0,0,0-2.715.367l-.955-1.777-1.571.652.588,1.938a9.234,9.234,0,0,0-2.163,1.677L301.366,44.9l-1.038,1.35,1.484,1.378a8.91,8.91,0,0,0-1.038,2.536l-2.021-.055-.22,1.681,1.975.464a9.223,9.223,0,0,0,.367,2.715l-1.782.955.657,1.571,1.939-.588a9.323,9.323,0,0,0,1.672,2.163L302.3,60.782l1.35,1.038,1.378-1.479a9.045,9.045,0,0,0,2.54,1.038l-.06,2.016,1.681.22.464-1.97a9.358,9.358,0,0,0,2.715-.372l.955,1.778L314.9,62.4l-.592-1.938a9.047,9.047,0,0,0,2.168-1.676l1.718,1.065,1.029-1.35-1.474-1.382a9.359,9.359,0,0,0,1.038-2.536Zm-11.024,3.711a5.981,5.981,0,1,1,5.981-5.981,5.981,5.981,0,0,1-5.981,5.981" transform="translate(-163.927 -22.583)" fill="#b285c3"/>
          <path id="Trazado_642060" data-name="Trazado 642060" d="M323.2,57.492a1.224,1.224,0,1,1-1.224-1.224,1.225,1.225,0,0,1,1.224,1.224" transform="translate(-176.13 -30.897)" fill="#ffc727"/>
          <rect id="Rectángulo_379436" data-name="Rectángulo 379436" width="2.595" height="0.374" transform="translate(144.553 27.632)" fill="#ffc727"/>
          <g id="Grupo_1075039" data-name="Grupo 1075039" transform="translate(144.553 27.632)" opacity="0.1">
            <g id="Grupo_1075038" data-name="Grupo 1075038">
              <g id="Grupo_1075037" data-name="Grupo 1075037" clip-path="url(#clip-path-8)">
                <rect id="Rectángulo_379437" data-name="Rectángulo 379437" width="2.595" height="0.374"/>
              </g>
            </g>
          </g>
          <rect id="Rectángulo_379439" data-name="Rectángulo 379439" width="5.256" height="0.374" transform="translate(143.222 32.783)" fill="#ffc727"/>
          <g id="Grupo_1075042" data-name="Grupo 1075042" transform="translate(143.222 32.783)" opacity="0.1">
            <g id="Grupo_1075041" data-name="Grupo 1075041">
              <g id="Grupo_1075040" data-name="Grupo 1075040" clip-path="url(#clip-path-9)">
                <rect id="Rectángulo_379440" data-name="Rectángulo 379440" width="5.256" height="0.374"/>
              </g>
            </g>
          </g>
          <rect id="Rectángulo_379442" data-name="Rectángulo 379442" width="5.256" height="0.374" transform="translate(143.222 33.832)" fill="#ffc727"/>
          <g id="Grupo_1075045" data-name="Grupo 1075045" transform="translate(143.222 33.832)" opacity="0.1">
            <g id="Grupo_1075044" data-name="Grupo 1075044">
              <g id="Grupo_1075043" data-name="Grupo 1075043" clip-path="url(#clip-path-9)">
                <rect id="Rectángulo_379443" data-name="Rectángulo 379443" width="5.256" height="0.374"/>
              </g>
            </g>
          </g>
          <rect id="Rectángulo_379445" data-name="Rectángulo 379445" width="4.865" height="0.675" transform="translate(143.417 33.157)" fill="#ffc727"/>
          <rect id="Rectángulo_379446" data-name="Rectángulo 379446" width="2.117" height="0.374" transform="translate(144.792 28.006)" fill="#ffc727"/>
          <path id="Trazado_642061" data-name="Trazado 642061" d="M323,67.346h-4.3a4.691,4.691,0,0,0,1.186-2.155c.171-.991.255-2.247.255-2.247h1.419s.084,1.256.256,2.247A4.681,4.681,0,0,0,323,67.346" transform="translate(-175.002 -34.563)" fill="#ffc727"/>
        </g>
      </g>
    </g>
  </g>
</svg>
