<svg xmlns="http://www.w3.org/2000/svg" xmlns:xlink="http://www.w3.org/1999/xlink" width="505" height="316.303" viewBox="0 0 505 316.303">
  <defs>
    <clipPath id="clip-path">
      <rect id="Rectángulo_379259" data-name="Rectángulo 379259" width="295" height="316" transform="translate(910 795.284)" fill="#fff" stroke="#707070" stroke-width="1"/>
    </clipPath>
    <clipPath id="clip-path-2">
      <rect id="Rectángulo_379288" data-name="Rectángulo 379288" width="683.512" height="505.74" fill="none"/>
    </clipPath>
    <clipPath id="clip-path-3">
      <rect id="Rectángulo_379260" data-name="Rectángulo 379260" width="683.421" height="455.312" fill="none"/>
    </clipPath>
    <clipPath id="clip-path-4">
      <path id="Trazado_641776" data-name="Trazado 641776" d="M1168.167,935.7l.078.095-33.34,4.733c.182,1.277-47.353,9.115-106.172,17.505S922.083,972.187,921.9,970.91c0-.031.02-.066.071-.1l-25.275,3.6-2.654,203.676h297.916l-22.883-242.518Z" transform="translate(-894.042 -935.568)" fill="none"/>
    </clipPath>
    <clipPath id="clip-path-6">
      <rect id="Rectángulo_379262" data-name="Rectángulo 379262" width="40.826" height="4.57" fill="none"/>
    </clipPath>
    <clipPath id="clip-path-7">
      <rect id="Rectángulo_379264" data-name="Rectángulo 379264" width="40.828" height="4.57" fill="none"/>
    </clipPath>
    <clipPath id="clip-path-9">
      <rect id="Rectángulo_379268" data-name="Rectángulo 379268" width="40.828" height="4.568" fill="none"/>
    </clipPath>
    <clipPath id="clip-path-12">
      <rect id="Rectángulo_379273" data-name="Rectángulo 379273" width="89.996" height="174.508" fill="none"/>
    </clipPath>
    <clipPath id="clip-path-13">
      <rect id="Rectángulo_379274" data-name="Rectángulo 379274" width="89.994" height="174.508" fill="none"/>
    </clipPath>
  </defs>
  <g id="Grupo_1075281" data-name="Grupo 1075281" transform="translate(-289.5 -838.284)">
    <g id="Grupo_1074808" data-name="Grupo 1074808" transform="translate(289.5 859.284)">
      <g id="Image_Place_Holder" data-name="Image Place Holder" transform="translate(0 24.534)">
        <rect id="Image_Place_Holder-2" data-name="Image Place Holder" width="505" height="270.769" rx="10" fill="#edd8f5"/>
      </g>
    </g>
    <g id="Enmascarar_grupo_1074707" data-name="Enmascarar grupo 1074707" transform="translate(-520 43)" clip-path="url(#clip-path)">
      <g id="Grupo_1074871" data-name="Grupo 1074871" transform="translate(-209 -85.716)">
        <g id="Grupo_1074870" data-name="Grupo 1074870" transform="translate(909 742)" clip-path="url(#clip-path-2)">
          <g id="Grupo_1074820" data-name="Grupo 1074820" transform="translate(0.092 -0.028)">
            <g id="Grupo_1074819" data-name="Grupo 1074819" clip-path="url(#clip-path-3)">
              <path id="Trazado_641765" data-name="Trazado 641765" d="M1016.315,987.111c.182,1.277,48.013-4.489,106.832-12.879S1229.5,958,1229.319,956.727s-48.012,4.489-106.832,12.879-106.354,16.228-106.172,17.505" transform="translate(-784.852 -738.584)" fill="#f69d7d"/>
              <path id="Trazado_641766" data-name="Trazado 641766" d="M1664.858,845.951a27.49,27.49,0,0,1,11.049,1.57l3.342-2.367,6.081,3.593-.461,4.071a27.536,27.536,0,0,1,6.705,8.921l4.034.688,1.76,6.841-3.2,2.55a27.482,27.482,0,0,1-1.571,11.049l2.368,3.342-3.593,6.081-4.072-.463a27.482,27.482,0,0,1-8.921,6.706l-.687,4.036-6.842,1.758-2.549-3.2a27.488,27.488,0,0,1-11.048-1.572l-3.344,2.369-6.081-3.595.463-4.071a27.442,27.442,0,0,1-6.7-8.92l-4.036-.688-1.758-6.841,3.2-2.549a27.478,27.478,0,0,1,1.571-11.05l-2.368-3.342,3.594-6.081,4.068.462a27.472,27.472,0,0,1,8.922-6.705l.689-4.035,6.842-1.759Zm-14.043,17.468,4.844,2.862.411-.693,1.948.223a11.435,11.435,0,0,1,3.52-2.646l.329-1.933,2.9-.745,1.222,1.533a11.469,11.469,0,0,1,4.358.62l1.6-1.134.694.409,2.861-4.843a18.728,18.728,0,0,0-24.69,6.348m10.384,6.137,5.135,3.034,3.036-5.135a6.694,6.694,0,0,0-8.171,2.1m6.327,3.739,5.135,3.034a6.69,6.69,0,0,0-2.1-8.169ZM1678.2,879.6l4.844,2.862a18.728,18.728,0,0,0-6.348-24.69l-2.863,4.843.694.409-.222,1.951a11.481,11.481,0,0,1,2.647,3.519l1.933.33.744,2.9-1.533,1.221a11.464,11.464,0,0,1-.622,4.359l1.135,1.6Zm4.138,4.054-4.842-2.864-.411.694-1.95-.222a11.436,11.436,0,0,1-3.519,2.645l-.331,1.933-2.9.747-1.22-1.535a11.491,11.491,0,0,1-4.361-.62l-1.6,1.134-.694-.411L1657.651,890a18.724,18.724,0,0,0,24.689-6.346m-10.382-6.137-5.135-3.035-3.036,5.135a6.693,6.693,0,0,0,8.171-2.1m-6.328-3.739-5.135-3.035a6.693,6.693,0,0,0,2.1,8.171Zm-10.675-6.309-4.843-2.863a18.728,18.728,0,0,0,6.347,24.692l2.861-4.844-.693-.41.223-1.95a11.467,11.467,0,0,1-2.647-3.52l-1.932-.33-.746-2.9,1.534-1.221a11.471,11.471,0,0,1,.621-4.359l-1.136-1.6Z" transform="translate(-1263.187 -650.711)" fill="#ed7500" fill-rule="evenodd"/>
              <path id="Trazado_641767" data-name="Trazado 641767" d="M1482.654,635.356a26.12,26.12,0,0,1,7.363,1.33l3.881-6.006a33.463,33.463,0,0,1,11.05,7.141l-3.879,6a26.15,26.15,0,0,1,4.177,6.044l6.989-1.5A33.571,33.571,0,0,1,1515,661.227l-6.992,1.5a26.138,26.138,0,0,1-1.323,7.226l6.005,3.88a33.461,33.461,0,0,1-7.14,11.051l-6-3.879a26.187,26.187,0,0,1-5.923,4.117l1.539,6.981a33.536,33.536,0,0,1-12.848,2.832l-1.539-6.981a26.131,26.131,0,0,1-7.363-1.33l-3.88,6.005a33.45,33.45,0,0,1-11.05-7.141l3.88-6a26.2,26.2,0,0,1-4.178-6.044l-6.989,1.5a33.551,33.551,0,0,1-2.768-12.861l6.991-1.5a26.148,26.148,0,0,1,1.324-7.227l-6.005-3.88a33.461,33.461,0,0,1,7.14-11.05l6,3.879a26.145,26.145,0,0,1,5.922-4.117l-1.539-6.981a33.541,33.541,0,0,1,12.848-2.832Zm-4.44,10.417a16.266,16.266,0,1,0,19.387,12.383,16.266,16.266,0,0,0-19.387-12.383m.41,1.86a14.361,14.361,0,1,0,17.117,10.933,14.36,14.36,0,0,0-17.117-10.933m-.658-2.983a17.415,17.415,0,1,0,20.756,13.258,17.416,17.416,0,0,0-20.756-13.258" transform="translate(-1118.516 -485.18)" fill="#0ea5ac" fill-rule="evenodd"/>
              <path id="Trazado_641768" data-name="Trazado 641768" d="M1156.393,813.535l8.229-.015,2.208,11.679a45.733,45.733,0,0,1,11.02,2.923l7.713-9.033,7.135,4.1-3.932,11.22a46.283,46.283,0,0,1,8.076,8.042l11.206-3.969,4.127,7.119-9.006,7.746a45.7,45.7,0,0,1,2.969,11.01l11.685,2.165.014,8.226-11.676,2.209a45.753,45.753,0,0,1-2.927,11.02l9.033,7.713-4.1,7.133-11.223-3.927a46.273,46.273,0,0,1-8.044,8.07l3.971,11.209-7.119,4.128-7.748-9.006A45.642,45.642,0,0,1,1167,916.264l-2.162,11.686-8.231.015-2.208-11.679a45.718,45.718,0,0,1-11.017-2.926l-7.715,9.036-7.133-4.1,3.93-11.224a46.161,46.161,0,0,1-8.073-8.041L1113.18,903l-4.127-7.116,9.006-7.746a45.67,45.67,0,0,1-2.969-11.011l-11.683-2.163-.015-8.229,11.677-2.208a45.7,45.7,0,0,1,2.926-11.02l-9.035-7.712,4.1-7.133,11.221,3.928a46.339,46.339,0,0,1,8.042-8.071l-3.969-11.209,7.118-4.127,7.748,9.006a45.6,45.6,0,0,1,11.008-2.964Zm33.49,32.669-7.2,7.226a28.05,28.05,0,0,1-.144,34.8l7.219,7.192a38.194,38.194,0,0,0,.124-49.223m-11.778,2.61,7.191-7.218a38.187,38.187,0,0,0-49.474.093l7.218,7.19a28.048,28.048,0,0,1,35.065-.065m-34.724,44.064-7.2,7.224a38.193,38.193,0,0,0,48.969-.09l-7.226-7.2a28.053,28.053,0,0,1-34.545.065m-11.821,2.656,7.191-7.22a28.046,28.046,0,0,1-.272-34.8l-7.224-7.2a38.186,38.186,0,0,0,.306,49.22m29.017-43.819a19.027,19.027,0,1,0,19.064,18.995,19.028,19.028,0,0,0-19.064-18.995" transform="translate(-852.089 -628.142)" fill="#2c4b5f" fill-rule="evenodd"/>
              <path id="Trazado_641769" data-name="Trazado 641769" d="M1583.832,1067.312a15.016,15.016,0,0,1,6.037.858l1.826-1.293,3.323,1.963-.252,2.224a15.045,15.045,0,0,1,3.664,4.875l2.2.376.961,3.738-1.75,1.393a15.021,15.021,0,0,1-.859,6.038l1.294,1.826-1.963,3.323-2.225-.253a15.018,15.018,0,0,1-4.875,3.664l-.376,2.205-3.739.96-1.393-1.75a15.02,15.02,0,0,1-6.037-.859l-1.827,1.295-3.323-1.964.253-2.225a15,15,0,0,1-3.663-4.874l-2.205-.376-.961-3.738,1.75-1.393a15.017,15.017,0,0,1,.859-6.038l-1.294-1.826,1.964-3.323,2.223.253a15.007,15.007,0,0,1,4.875-3.664l.377-2.2,3.738-.961Zm-7.673,9.544,2.646,1.564.224-.379,1.065.122a6.247,6.247,0,0,1,1.923-1.446l.18-1.056,1.585-.407.668.838a6.265,6.265,0,0,1,2.381.339l.876-.62.379.223,1.563-2.646a10.233,10.233,0,0,0-13.491,3.469m5.674,3.354,2.806,1.657,1.659-2.806a3.657,3.657,0,0,0-4.465,1.148m3.457,2.043,2.806,1.657a3.655,3.655,0,0,0-1.148-4.463Zm5.833,3.447,2.647,1.564a10.234,10.234,0,0,0-3.469-13.491l-1.564,2.646.379.224-.121,1.066a6.27,6.27,0,0,1,1.446,1.923l1.057.18.406,1.585-.837.667a6.259,6.259,0,0,1-.34,2.382l.62.875Zm2.261,2.215-2.646-1.565-.224.379-1.065-.121a6.25,6.25,0,0,1-1.923,1.445l-.181,1.056-1.585.408-.667-.839a6.281,6.281,0,0,1-2.383-.339l-.874.62-.379-.224-1.563,2.646a10.23,10.23,0,0,0,13.49-3.467m-5.673-3.353-2.806-1.659-1.659,2.806a3.656,3.656,0,0,0,4.465-1.147m-3.457-2.043-2.806-1.658a3.657,3.657,0,0,0,1.148,4.465Zm-5.833-3.447-2.646-1.564a10.233,10.233,0,0,0,3.468,13.492l1.563-2.647-.378-.224.121-1.065a6.265,6.265,0,0,1-1.446-1.923l-1.056-.18-.407-1.585.838-.667a6.274,6.274,0,0,1,.339-2.382l-.621-.875Z" transform="translate(-1210.803 -822.759)" fill="#2a62bf" fill-rule="evenodd"/>
            </g>
          </g>
          <g id="Grupo_1074822" data-name="Grupo 1074822" transform="translate(203.696 213.157)">
            <g id="Grupo_1074821" data-name="Grupo 1074821" clip-path="url(#clip-path-4)">
              <path id="Trazado_641770" data-name="Trazado 641770" d="M1009.265,800.933c24.633-36.4,59.118-52.984,99.206-56.066a94.023,94.023,0,0,1,11.232-.181l.22.006c16.527.746,32.605,5.725,48.035,13.289,4.149,2.034,8.229,4.257,12.271,6.546,28.371,16.067,44.155,40.736,42.816,76.879-.751,20.285,8.281,35.049,21.622,47.458a52.064,52.064,0,0,1,6.785,7.167q.39.533.757,1.093c.141.215.288.423.423.645,3.671,6,2.914,10.457-2.562,14.231-3.509,2.419-7.212,4.5-10.283,7.632-4.69,4.788-4.993,7.613-1.413,13.535,4.03,6.666,4.008,6.939-2.184,11.675-1.662,1.271-3.422,2.227-1.087,4.633,3.435,3.539,2.206,6.993-.752,9.572-4.152,3.62-4.777,8.264-4,13.457.68,4.53,1.683,9,2.531,13.5,2.286,12.144-.9,17.781-11.87,20.971-11.452,3.33-22.849.446-34.27-.656-7.655-.739-15.192-3.4-23.023-1.464-5.084,1.258-7.892,4.368-8.545,10.061-.952,8.3-3.424,16.24-4.836,24.411-1.151,6.664-4.054,8.745-10.055,8.476-5.03-.225-12.223-.332-20.57-.364h-.234c-32.3-.118-81.706.865-90.512.387-7.166-.389-3.688-4.861-.385-11.806,26.806-56.347-5.123-101.766-10.352-108.121a113.937,113.937,0,0,1-18.029-30.518,101.73,101.73,0,0,1-7.014-30.76c-1.031-26.245,4.067-47.946,16.073-65.69" transform="translate(-970.502 -788.107)" fill="#fbc0a4"/>
              <path id="Trazado_641771" data-name="Trazado 641771" d="M1928.928,1188.633l-6.978-26.5,4.377,27.047Z" transform="translate(-1687.754 -1110.516)" fill="#f69d7d"/>
              <path id="Trazado_641772" data-name="Trazado 641772" d="M1768.172,989.017a78.07,78.07,0,0,1,4.67,12.989,56.278,56.278,0,0,0-36.869,6.422c-11.464,6.379-22.215,16.907-27.325,28.99,0,0,6.474-27.881,25.883-39.748,21.952-13.422,33.641-8.652,33.641-8.652" transform="translate(-1523.05 -976.203)" fill="#27293e"/>
              <path id="Trazado_641773" data-name="Trazado 641773" d="M1525.487,1768.352a157.078,157.078,0,0,1-53.579-45.074c10.173,24.155,30.275,47.705,49.229,65.809" transform="translate(-1340.248 -1543.808)" fill="#f69d7d"/>
              <path id="Trazado_641774" data-name="Trazado 641774" d="M2013.9,1437.407a38.584,38.584,0,0,0-15.559,4.245l1.867.8a32.246,32.246,0,0,1-.407-15.916c-3.593,5.284-3.8,12.3-1.663,18.2,5.065-2.685,10.521-4.992,15.763-7.331" transform="translate(-1745.52 -1314.673)" fill="#f69d7d"/>
              <path id="Trazado_641775" data-name="Trazado 641775" d="M1803.18,1244.613a52.322,52.322,0,0,0,18.976,9.924c7,2.6,14.952,2.923,21.346-1.695l-.1-.657c-7.035-2.521-13.084-2.648-20.185-2.858a70.163,70.163,0,0,1-19.69-5.281l-.348.566" transform="translate(-1596.044 -1173.764)" fill="#27293e"/>
            </g>
          </g>
          <g id="Grupo_1074869" data-name="Grupo 1074869" transform="translate(0.092 -0.028)">
            <g id="Grupo_1074868" data-name="Grupo 1074868" clip-path="url(#clip-path-3)">
              <path id="Trazado_641777" data-name="Trazado 641777" d="M988.983,1064.274" transform="translate(-763.748 -816.6)" fill="#f69d7d"/>
              <g id="Grupo_1074825" data-name="Grupo 1074825" transform="translate(279.651 325.163)" opacity="0.99">
                <g id="Grupo_1074824" data-name="Grupo 1074824">
                  <g id="Grupo_1074823" data-name="Grupo 1074823" clip-path="url(#clip-path-6)">
                    <rect id="Rectángulo_379261" data-name="Rectángulo 379261" width="40.828" height="4.57" transform="translate(-0.001)" fill="#6c4148"/>
                  </g>
                </g>
              </g>
              <g id="Grupo_1074828" data-name="Grupo 1074828" transform="translate(267.319 350.989)" opacity="0.99">
                <g id="Grupo_1074827" data-name="Grupo 1074827">
                  <g id="Grupo_1074826" data-name="Grupo 1074826" clip-path="url(#clip-path-7)">
                    <rect id="Rectángulo_379263" data-name="Rectángulo 379263" width="40.828" height="4.57" transform="translate(0 0)" fill="#6c4148"/>
                  </g>
                </g>
              </g>
              <g id="Grupo_1074831" data-name="Grupo 1074831" transform="translate(254.3 376.815)" opacity="0.99">
                <g id="Grupo_1074830" data-name="Grupo 1074830">
                  <g id="Grupo_1074829" data-name="Grupo 1074829" clip-path="url(#clip-path-7)">
                    <rect id="Rectángulo_379265" data-name="Rectángulo 379265" width="40.828" height="4.57" fill="#6c4148"/>
                  </g>
                </g>
              </g>
              <g id="Grupo_1074834" data-name="Grupo 1074834" transform="translate(318.231 247.687)" opacity="0.99">
                <g id="Grupo_1074833" data-name="Grupo 1074833">
                  <g id="Grupo_1074832" data-name="Grupo 1074832" clip-path="url(#clip-path-9)">
                    <rect id="Rectángulo_379267" data-name="Rectángulo 379267" width="40.828" height="4.57" transform="translate(0.001 -0.001)" fill="#6c4148"/>
                  </g>
                </g>
              </g>
              <g id="Grupo_1074837" data-name="Grupo 1074837" transform="translate(304.597 273.513)" opacity="0.99">
                <g id="Grupo_1074836" data-name="Grupo 1074836">
                  <g id="Grupo_1074835" data-name="Grupo 1074835" clip-path="url(#clip-path-7)">
                    <rect id="Rectángulo_379269" data-name="Rectángulo 379269" width="40.828" height="4.57" transform="translate(0 -0.001)" fill="#6c4148"/>
                  </g>
                </g>
              </g>
              <g id="Grupo_1074840" data-name="Grupo 1074840" transform="translate(292.1 299.338)" opacity="0.99">
                <g id="Grupo_1074839" data-name="Grupo 1074839">
                  <g id="Grupo_1074838" data-name="Grupo 1074838" clip-path="url(#clip-path-7)">
                    <rect id="Rectángulo_379271" data-name="Rectángulo 379271" width="40.828" height="4.57" transform="translate(0 0)" fill="#6c4148"/>
                  </g>
                </g>
              </g>
              <g id="Grupo_1074843" data-name="Grupo 1074843" transform="translate(240.787 228.07)" opacity="0.99">
                <g id="Grupo_1074842" data-name="Grupo 1074842">
                  <g id="Grupo_1074841" data-name="Grupo 1074841" clip-path="url(#clip-path-12)">
                    <path id="Trazado_641779" data-name="Trazado 641779" d="M1143.539,1000.9l-86.3,174.508h3.7l86.3-174.508Z" transform="translate(-1057.243 -1000.901)" fill="#6c4148"/>
                  </g>
                </g>
              </g>
              <g id="Grupo_1074846" data-name="Grupo 1074846" transform="translate(281.604 228.07)" opacity="0.99">
                <g id="Grupo_1074845" data-name="Grupo 1074845">
                  <g id="Grupo_1074844" data-name="Grupo 1074844" clip-path="url(#clip-path-13)">
                    <path id="Trazado_641780" data-name="Trazado 641780" d="M1322.684,1000.9l-86.3,174.508h3.7l86.3-174.508Z" transform="translate(-1236.389 -1000.901)" fill="#6c4148"/>
                  </g>
                </g>
              </g>
              <g id="Grupo_1074849" data-name="Grupo 1074849" transform="translate(228.668 428.353)" opacity="0.99">
                <g id="Grupo_1074848" data-name="Grupo 1074848">
                  <g id="Grupo_1074847" data-name="Grupo 1074847" clip-path="url(#clip-path-7)">
                    <rect id="Rectángulo_379275" data-name="Rectángulo 379275" width="40.828" height="4.57" transform="translate(0)" fill="#6c4148"/>
                  </g>
                </g>
              </g>
              <g id="Grupo_1074852" data-name="Grupo 1074852" transform="translate(216.336 454.178)" opacity="0.99">
                <g id="Grupo_1074851" data-name="Grupo 1074851">
                  <g id="Grupo_1074850" data-name="Grupo 1074850" clip-path="url(#clip-path-7)">
                    <rect id="Rectángulo_379277" data-name="Rectángulo 379277" width="40.828" height="4.57" transform="translate(0 0)" fill="#6c4148"/>
                  </g>
                </g>
              </g>
              <g id="Grupo_1074855" data-name="Grupo 1074855" transform="translate(267.25 350.876)" opacity="0.99">
                <g id="Grupo_1074854" data-name="Grupo 1074854">
                  <g id="Grupo_1074853" data-name="Grupo 1074853" clip-path="url(#clip-path-7)">
                    <rect id="Rectángulo_379279" data-name="Rectángulo 379279" width="40.828" height="4.57" transform="translate(0 0)" fill="#6c4148"/>
                  </g>
                </g>
              </g>
              <g id="Grupo_1074858" data-name="Grupo 1074858" transform="translate(253.616 376.701)" opacity="0.99">
                <g id="Grupo_1074857" data-name="Grupo 1074857">
                  <g id="Grupo_1074856" data-name="Grupo 1074856" clip-path="url(#clip-path-6)">
                    <rect id="Rectángulo_379281" data-name="Rectángulo 379281" width="40.828" height="4.57" transform="translate(-0.001 0)" fill="#6c4148"/>
                  </g>
                </g>
              </g>
              <g id="Grupo_1074861" data-name="Grupo 1074861" transform="translate(241.117 402.527)" opacity="0.99">
                <g id="Grupo_1074860" data-name="Grupo 1074860">
                  <g id="Grupo_1074859" data-name="Grupo 1074859" clip-path="url(#clip-path-7)">
                    <rect id="Rectángulo_379283" data-name="Rectángulo 379283" width="40.828" height="4.57" transform="translate(0.001)" fill="#6c4148"/>
                  </g>
                </g>
              </g>
              <g id="Grupo_1074864" data-name="Grupo 1074864" transform="translate(189.805 331.26)" opacity="0.99">
                <g id="Grupo_1074863" data-name="Grupo 1074863">
                  <g id="Grupo_1074862" data-name="Grupo 1074862" clip-path="url(#clip-path-13)">
                    <path id="Trazado_641781" data-name="Trazado 641781" d="M919.774,1453.808l-86.3,174.508h3.7l86.3-174.508Z" transform="translate(-833.479 -1453.808)" fill="#6c4148"/>
                  </g>
                </g>
              </g>
              <g id="Grupo_1074867" data-name="Grupo 1074867" transform="translate(230.621 331.26)" opacity="0.99">
                <g id="Grupo_1074866" data-name="Grupo 1074866">
                  <g id="Grupo_1074865" data-name="Grupo 1074865" clip-path="url(#clip-path-12)">
                    <path id="Trazado_641782" data-name="Trazado 641782" d="M1098.919,1453.808l-86.3,174.508h3.7l86.3-174.508Z" transform="translate(-1012.623 -1453.808)" fill="#6c4148"/>
                  </g>
                </g>
              </g>
            </g>
          </g>
        </g>
      </g>
    </g>
  </g>
</svg>
