<svg xmlns="http://www.w3.org/2000/svg" xmlns:xlink="http://www.w3.org/1999/xlink" width="124.417" height="124.418" viewBox="0 0 124.417 124.418">
  <defs>
    <clipPath id="clip-path">
      <rect id="Rectángulo_379098" data-name="Rectángulo 379098" width="115" height="115" transform="translate(389.246 2670.246)" fill="#fff" stroke="#707070" stroke-width="1"/>
    </clipPath>
    <linearGradient id="linear-gradient" x1="0.989" y1="1.001" x2="0.081" y2="0.049" gradientUnits="objectBoundingBox">
      <stop offset="0" stop-color="#8c50af"/>
      <stop offset="1" stop-color="#fbe3b1"/>
    </linearGradient>
    <clipPath id="clip-path-2">
      <rect id="Rectángulo_379453" data-name="Rectángulo 379453" width="87" height="87" transform="translate(408 2139)" fill="#fff" stroke="#707070" stroke-width="1"/>
    </clipPath>
    <clipPath id="clip-path-3">
      <rect id="Rectángulo_379454" data-name="Rectángulo 379454" width="82" height="82.031" fill="#543f5c" stroke="#543f5c" stroke-width="0.5"/>
    </clipPath>
  </defs>
  <g id="Grupo_1075349" data-name="Grupo 1075349" transform="translate(-741.598 -2121.581)">
    <g id="Enmascarar_grupo_1074685" data-name="Enmascarar grupo 1074685" transform="translate(357.754 -543.246)" clip-path="url(#clip-path)">
      <rect id="Imagen_39" data-name="Imagen 39" width="128.611" height="124.518" transform="translate(382.686 2667.283)" fill="#fff"/>
    </g>
    <path id="Sustracción_196" data-name="Sustracción 196" d="M113.2,113.2H0V0H113.2V113.2ZM6.49,6.49V106.714H106.713V6.49Z" transform="matrix(-0.995, -0.105, 0.105, -0.995, 854.182, 2245.999)" fill="url(#linear-gradient)"/>
    <g id="Enmascarar_grupo_1074722" data-name="Enmascarar grupo 1074722" transform="translate(353 2)" clip-path="url(#clip-path-2)">
      <g id="Grupo_1075058" data-name="Grupo 1075058" transform="translate(411 2141)">
        <g id="Grupo_1075057" data-name="Grupo 1075057" clip-path="url(#clip-path-3)">
          <path id="Trazado_642076" data-name="Trazado 642076" d="M57.091,3.79c.257-.384.492-.782.773-1.147a6.7,6.7,0,0,1,6-2.63A17.293,17.293,0,0,1,78.684,11.036a13.2,13.2,0,0,1,.5,7.586.459.459,0,0,0,.234.575A4.088,4.088,0,0,1,81.28,23.6a4.142,4.142,0,0,1-3.361,3.146c-.294.043-.4.161-.5.453a13.559,13.559,0,0,1-3.434,5.528,12.916,12.916,0,0,1-2.6,2.03,1.825,1.825,0,0,0-.211.171,35.233,35.233,0,0,1,5.913,1.524,24.987,24.987,0,0,1,5.263,2.309,12.615,12.615,0,0,1,4.768,5.912c1.993,4.613,4.03,9.207,6.045,13.811.54,1.232,1.088,2.461,1.6,3.706a6.583,6.583,0,0,1-3.293,8.461,6.491,6.491,0,0,1-5.942-.028c-.712-.354-1.408-.74-2.111-1.11-.084-.044-.173-.08-.321-.147-.013.18-.032.316-.032.453q.012,5.459.026,10.917c0,.159,0,.319-.015.477a.875.875,0,0,1-.871.816.884.884,0,0,1-.847-.773,7.058,7.058,0,0,1-.035-.844q0-5.826.017-11.653a.552.552,0,0,0-.355-.538c-1.646-.865-3.287-1.74-4.932-2.608-.683-.36-.694-.364-1.231.193-2.769,2.87-5.814,5.437-8.8,8.066-.248.218-.492.444-.756.641a.783.783,0,0,1-1.186-.008c-.928-.761-1.856-1.525-2.747-2.328q-3.738-3.371-7.441-6.782a.585.585,0,0,0-.781-.09q-2.757,1.46-5.524,2.9a.542.542,0,0,0-.283.575q.008,4.613.01,9.227c0,.968.015,1.936,0,2.9a1.632,1.632,0,0,1-.152.667A.747.747,0,0,1,46.33,82a.769.769,0,0,1-.694-.661,4.224,4.224,0,0,1-.063-.767q.014-5.532.036-11.064a.938.938,0,0,0-.043-.163c-.2.089-.384.163-.562.256-.987.515-1.975,1.027-2.955,1.555a6.817,6.817,0,0,1-9.806-6.292,7.484,7.484,0,0,1,.721-2.71c2.468-5.607,4.939-11.213,7.363-16.84a13.756,13.756,0,0,1,7.084-7.164A40.525,40.525,0,0,1,56.5,35.1c.294-.061.591-.105.94-.166a3.027,3.027,0,0,0-.253-.2,13.739,13.739,0,0,1-5.978-7.423.737.737,0,0,0-.65-.593,4.129,4.129,0,0,1-3.314-4.586,3.988,3.988,0,0,1,1.712-2.722.728.728,0,0,0,.333-.788A29.86,29.86,0,0,1,49.1,15,16.2,16.2,0,0,1,54.048,4.25a5.017,5.017,0,0,1,.562-.473,1.652,1.652,0,0,1,2.481.013m22.334,51.7a.666.666,0,0,0,.083-.145,10.623,10.623,0,0,0,.23-4.371,8.355,8.355,0,0,0-4.789-6.378,5.608,5.608,0,0,0-6.278.659c-.648.522-1.253,1.1-1.872,1.653-.473.427-.924.878-1.406,1.293a.934.934,0,0,1-1.385.063c-.259-.184-.5-.392-.746-.6-1.036-.861-2.032-1.775-3.113-2.574a5.77,5.77,0,0,0-4.834-1.026,8.478,8.478,0,0,0-6.382,6.9,9.39,9.39,0,0,0,.267,4.182c.17.51.141.52.63.278,1.25-.618,2.483-1.272,3.753-1.846A5.075,5.075,0,0,1,58,62.705c-.831.468-1.683.9-2.523,1.351a3.268,3.268,0,0,0-.352.258c.564.538,1.071,1.054,1.611,1.532q3.867,3.42,7.749,6.824a.253.253,0,0,0,.406,0c.363-.347.744-.674,1.122-1,2.546-2.226,5.094-4.449,7.443-6.887.106-.11.208-.223.327-.35-.083-.05-.123-.076-.165-.1-1.371-.73-2.754-1.441-4.111-2.2A4.881,4.881,0,0,1,66.829,57.7a5.15,5.15,0,0,1,7.285-4.716c.851.373,1.682.791,2.523,1.188l2.788,1.315M57.971,36.6c-.53.084-1.03.139-1.517.245a36.8,36.8,0,0,0-8.675,3.015,11.637,11.637,0,0,0-5.27,4.85c-.658,1.225-1.174,2.528-1.733,3.8q-3.233,7.376-6.45,14.759a4.663,4.663,0,0,0-.1,3.58,5.064,5.064,0,0,0,7.116,2.78c3.238-1.755,6.509-3.448,9.764-5.172,2.055-1.088,4.112-2.17,6.156-3.278a3.393,3.393,0,0,0-3.238-5.96c-2.584,1.26-5.148,2.56-7.721,3.841-.821.409-1.639.825-2.473,1.206a.731.731,0,0,1-.973-.352.7.7,0,0,1,.111-.963,2.011,2.011,0,0,1,.509-.352c.981-.5,1.969-.987,2.954-1.48.468-.234.934-.47,1.408-.709-.027-.078-.043-.123-.059-.168a10.529,10.529,0,0,1-.3-6.634,10.018,10.018,0,0,1,7.271-7.146,5.859,5.859,0,0,1,3.22-.1Zm6.29-1.616.012.1c.844-.106,1.7-.168,2.531-.327a11.449,11.449,0,0,0,5.993-3.2A12.3,12.3,0,0,0,76.05,25.93c.179-.653.389-.813,1.062-.843.159-.007.319-.006.477-.019A2.337,2.337,0,0,0,79.664,22.6a2.379,2.379,0,0,0-2.283-2.329c-1.409,0-2.818-.007-4.226,0a16.17,16.17,0,0,1-7.284-1.739,22.573,22.573,0,0,1-6.634-5.151.563.563,0,0,0-.613-.2c-.414.107-.829.208-1.244.31a5.6,5.6,0,0,0-2.789,1.678,6.352,6.352,0,0,0-1.723,4.071c-.055.869-.263,1.051-1.122,1.026a3.3,3.3,0,0,0-1.422.287,2.37,2.37,0,0,0,.9,4.539c1.279.1,1.112.074,1.442,1.257a12.037,12.037,0,0,0,11.6,8.632m6.391,7.427c.153-.013.285-.017.414-.037a7.624,7.624,0,0,1,4.241.524,10.593,10.593,0,0,1,5.8,12.875c-.117.405,0,.527.3.664,1.054.49,2.11.974,3.156,1.478a3.306,3.306,0,0,1,.76.5.65.65,0,0,1,.156.777.672.672,0,0,1-.658.5,2.25,2.25,0,0,1-.813-.158c-1.542-.715-3.071-1.458-4.607-2.187-1.955-.928-3.908-1.863-5.871-2.773a3.451,3.451,0,0,0-3.2,6.118c.5.281,1.018.533,1.526.8q7.1,3.759,14.206,7.518a5.27,5.27,0,0,0,2.09.632A4.941,4.941,0,0,0,93.36,63.37a11.291,11.291,0,0,0-.569-1.506c-1.113-2.556-2.237-5.107-3.356-7.66-1.4-3.192-2.764-6.4-4.2-9.573a9.76,9.76,0,0,0-4.782-4.985,34.9,34.9,0,0,0-9.8-3.061ZM55.549,5.289l-.081-.055c-.2.186-.412.358-.594.558a14.573,14.573,0,0,0-4.068,9.137,32.722,32.722,0,0,0,.132,3.408c0,.065.085.127.131.19.053-.055.132-.1.153-.165.061-.185.1-.378.145-.569a7.892,7.892,0,0,1,3.688-5.131,8.343,8.343,0,0,1,2.877-1.051.461.461,0,0,0,.429-.447,3.622,3.622,0,0,1,3.669-2.959.761.761,0,0,1,.789.667.747.747,0,0,1-.427.817,3.552,3.552,0,0,1-.871.268A1.747,1.747,0,0,0,60.045,11.4a.672.672,0,0,0,.139.514,7.332,7.332,0,0,0,.747.706,30.777,30.777,0,0,0,5.4,4.171,11.972,11.972,0,0,0,5.349,1.659c1.774.077,3.553.031,5.328.072.393.009.561-.116.591-.483,0-.049.015-.1.023-.145a12.131,12.131,0,0,0-1.167-7.813A15.275,15.275,0,0,0,64.4,1.8a5.429,5.429,0,0,0-5.857,3.082c-.324.588-.556,1.225-.866,1.821a3.456,3.456,0,0,1-.637.926.863.863,0,0,1-1.43-.365,3.525,3.525,0,0,1-.154-1.039,6.75,6.75,0,0,1,.092-.931m4.238,30.688c-.019.18-.038.273-.038.367,0,2.106-.006,4.212.009,6.317a.565.565,0,0,0,.24.378c.553.38,1.157.695,1.681,1.11.93.736,1.822,1.521,2.716,2.3.189.166.3.188.481,0,.307-.315.642-.6.961-.908a17,17,0,0,1,2.917-2.394.518.518,0,0,0,.175-.387c.01-2.154.006-4.307,0-6.461,0-.092-.02-.184-.04-.357a13.4,13.4,0,0,1-9.1.029" transform="translate(-22.726 0)" fill="#543f5c" stroke="#543f5c" stroke-width="0.5"/>
          <path id="Trazado_642077" data-name="Trazado 642077" d="M216.149,83.476a5.747,5.747,0,0,1,4.343-5.908,3.677,3.677,0,0,1,2.861.445,16.237,16.237,0,0,1,1.747,1.332c.217.181.349.2.549,0,.306-.3.621-.593.952-.864a4.093,4.093,0,0,1,4.951-.324,5.862,5.862,0,0,1,2.826,5.215,7.439,7.439,0,0,1-1.281,3.969,22.086,22.086,0,0,1-3.9,4.524c-.964.887-1.952,1.75-2.929,2.622-.082.073-.166.145-.254.211a.822.822,0,0,1-1.246-.034c-.755-.643-1.5-1.3-2.248-1.951A26.964,26.964,0,0,1,217.59,87.5a7.376,7.376,0,0,1-1.441-4.024m16.483-.182a4.135,4.135,0,0,0-1.728-3.55,2.612,2.612,0,0,0-3.378.122c-.494.42-.934.9-1.423,1.328a.886.886,0,0,1-1.4,0c-.525-.441-1.02-.92-1.56-1.341a2.833,2.833,0,0,0-3.8.087,4.275,4.275,0,0,0-1.371,4.454,7.419,7.419,0,0,0,1.608,3.1,34.8,34.8,0,0,0,5.569,5.264c.224.184.4.109.581-.054.643-.567,1.3-1.115,1.932-1.7a23.468,23.468,0,0,0,3.468-3.685,6.892,6.892,0,0,0,1.494-4.025" transform="translate(-152.379 -54.606)" fill="#543f5c" stroke="#543f5c" stroke-width="0.5"/>
          <path id="Trazado_642078" data-name="Trazado 642078" d="M18.234,84.091a7.91,7.91,0,0,1-1.445,3.536,24.617,24.617,0,0,1-4.563,5.008c-.749.669-1.5,1.332-2.25,2a.833.833,0,0,1-1.294.05,54.462,54.462,0,0,1-6.02-5.6,10.878,10.878,0,0,1-2.44-4.223A5.913,5.913,0,0,1,2.75,78.214a4.322,4.322,0,0,1,5.233.293c.358.276.694.582,1.033.882a.3.3,0,0,0,.5-.019c.207-.224.443-.423.669-.629a4.21,4.21,0,0,1,5.8-.18c1.509,1.226,2.238,2.838,2.25,5.529M1.712,83.25c.018.244.024.489.055.731a6.682,6.682,0,0,0,1.291,2.966A30.316,30.316,0,0,0,9.076,92.79c.194.158.337.117.507-.043.285-.269.587-.52.884-.776A27.571,27.571,0,0,0,14.6,87.861a7.86,7.86,0,0,0,1.871-4.078A4.234,4.234,0,0,0,14.8,79.776a2.543,2.543,0,0,0-3.2-.029c-.381.284-.718.628-1.074.946-.228.2-.443.425-.684.611a.815.815,0,0,1-1.138,0c-.233-.178-.445-.383-.672-.571-.443-.366-.867-.761-1.339-1.087a2.6,2.6,0,0,0-3.009-.024,3.963,3.963,0,0,0-1.98,3.627" transform="translate(0 -54.615)" fill="#543f5c" stroke="#543f5c" stroke-width="0.5"/>
        </g>
      </g>
    </g>
  </g>
</svg>
