<svg xmlns="http://www.w3.org/2000/svg" xmlns:xlink="http://www.w3.org/1999/xlink" width="124.417" height="124.418" viewBox="0 0 124.417 124.418">
  <defs>
    <clipPath id="clip-path">
      <rect id="Rectángulo_379101" data-name="Rectángulo 379101" width="115" height="115" transform="translate(389.246 2670.246)" fill="#fff" stroke="#707070" stroke-width="1"/>
    </clipPath>
    <linearGradient id="linear-gradient" x1="0.989" y1="1.001" x2="0.081" y2="0.049" gradientUnits="objectBoundingBox">
      <stop offset="0" stop-color="#8c50af"/>
      <stop offset="1" stop-color="#fbe3b1"/>
    </linearGradient>
    <clipPath id="clip-path-2">
      <rect id="Rectángulo_379451" data-name="Rectángulo 379451" width="87" height="87" transform="translate(408 2139)" fill="#fff" stroke="#707070" stroke-width="1"/>
    </clipPath>
    <clipPath id="clip-path-3">
      <rect id="Rectángulo_379450" data-name="Rectángulo 379450" width="79.667" height="70.14" fill="#543f5c"/>
    </clipPath>
  </defs>
  <g id="Grupo_1075348" data-name="Grupo 1075348" transform="translate(-389.496 -2116.58)">
    <g id="Enmascarar_grupo_1074686" data-name="Enmascarar grupo 1074686" transform="translate(3.754 -548.665)" clip-path="url(#clip-path)">
      <rect id="Imagen_40" data-name="Imagen 40" width="128.611" height="124.518" transform="translate(382.686 2667.283)" fill="#fff"/>
    </g>
    <path id="Sustracción_197" data-name="Sustracción 197" d="M113.2,113.2H0V0H113.2V113.2ZM6.49,6.49V106.714H106.713V6.49Z" transform="matrix(-0.995, -0.105, 0.105, -0.995, 502.08, 2240.998)" fill="url(#linear-gradient)"/>
    <g id="Enmascarar_grupo_1074721" data-name="Enmascarar grupo 1074721" clip-path="url(#clip-path-2)">
      <g id="Grupo_1075054" data-name="Grupo 1075054" transform="translate(412 2147)">
        <g id="Grupo_1075053" data-name="Grupo 1075053" clip-path="url(#clip-path-3)">
          <path id="Trazado_642064" data-name="Trazado 642064" d="M24.807,2.314c-.483.051-.906.082-1.324.141A17.425,17.425,0,0,0,12,8.976c-.142.175-.279.357-.436.519a1.1,1.1,0,0,1-1.513.163,1.05,1.05,0,0,1-.256-1.463,13.321,13.321,0,0,1,1.2-1.5,19.837,19.837,0,0,1,7.734-5.336A19.6,19.6,0,0,1,25.609.006,1.343,1.343,0,0,1,27.115,1.5q0,4.729,0,9.458v.433c.1.009.155.02.211.019,2.9-.011,5.805-.027,8.708-.028.282,0,.366-.075.364-.359-.011-1.392,0-2.784,0-4.176A2.087,2.087,0,0,1,37.62,4.828a1.776,1.776,0,0,1,1.956.1,20.949,20.949,0,0,1,1.787,1.634q4.157,4.145,8.295,8.309a2.918,2.918,0,0,1,.8,2.852,2.866,2.866,0,0,1-.884,1.4c-1.293,1.28-2.6,2.551-3.887,3.833-1.8,1.794-3.6,3.6-5.405,5.393a2.6,2.6,0,0,1-1.362.863A2.144,2.144,0,0,1,36.4,27.064c0-1.309,0-2.617,0-3.926,0-.2,0-.4,0-.645h-9.28v.442q0,22.771,0,45.542a2.546,2.546,0,0,1-.074.668,1.234,1.234,0,0,1-1.181.966c-.213.019-.427.026-.641.026q-10.386.006-20.772.007a4.673,4.673,0,0,1-.5-.025,1.149,1.149,0,0,1-.934-1.754,26.276,26.276,0,0,1,6.444-7.872,25.443,25.443,0,0,1,8.619-4.685c.186-.058.5-.032.467-.375-.042-.384.2-.836-.392-1.072a19.016,19.016,0,0,1-6.29-4.17A19.972,19.972,0,0,1,6.412,40.62c-.081-.321-.12-.654-.17-.983a.678.678,0,0,0-.411-.528A15.978,15.978,0,0,1,3.592,37.8,9.218,9.218,0,0,1,.038,31.3a6.5,6.5,0,0,1,3.994-6.624,10.969,10.969,0,0,1,1.509-.4c.227-.052.3-.144.3-.383.039-2.163.009-4.332.174-6.487a15.036,15.036,0,0,1,1.095-4.337,1.056,1.056,0,0,1,1.456-.57,1.252,1.252,0,0,1,.655,1.383,18.659,18.659,0,0,0-1.091,6.895c.015,1.368,0,2.736,0,4.1a4.1,4.1,0,0,1-.023.534A1.152,1.152,0,0,1,6.914,26.5a8.217,8.217,0,0,0-1.523.121,3.888,3.888,0,0,0-3.032,3.317,5.955,5.955,0,0,0,.894,4.126,6.617,6.617,0,0,0,3.94,3.1A1.489,1.489,0,0,1,8.33,38.491,17.535,17.535,0,0,0,19.054,52.3c.27.121.552.219.831.318a1.364,1.364,0,0,1,.952,1.428,15.194,15.194,0,0,0,.077,2.17,4.888,4.888,0,0,0,2.761,3.75c.343.176.714.3,1.117.466V46.016c-.345,0-.66,0-.974,0a1.316,1.316,0,0,1-1.062-.406,1.106,1.106,0,0,1-.255-1.189,1.094,1.094,0,0,1,.973-.73,6.347,6.347,0,0,1,.962-.014c.275.018.334-.078.334-.343,0-4.651.017-9.3.021-13.954q.012-13.134.015-26.268v-.8M38.742,7.242c0,.192,0,.262,0,.332,0,1.534,0,3.069-.015,4.6-.007,1.037-.468,1.5-1.505,1.528-.119,0-.238,0-.357,0H27.445c-.1,0-.2.011-.3.017v6.407a1.92,1.92,0,0,0,.2.022l9.276-.01c.25,0,.5-.011.749.008a1.254,1.254,0,0,1,1.3.961,3.087,3.087,0,0,1,.07.707c.011,1.463.012,2.926.019,4.388,0,.1.016.2.024.3l.119.083a2.518,2.518,0,0,1,.262-.379q2.58-2.59,5.171-5.172c1.2-1.19,2.408-2.367,3.609-3.554.48-.475.483-.631.01-1.1-.369-.37-.766-.713-1.136-1.083Q42.95,11.44,39.094,7.576c-.089-.089-.182-.172-.353-.334M5.956,67.825h.923q8.744,0,17.488,0c.307,0,.416-.072.415-.39,0-1.5.024-3,.021-4.5,0-.09-.14-.225-.242-.261-.48-.171-.986-.276-1.452-.476a7.443,7.443,0,0,1-3.981-3.987c-.12-.273-.253-.311-.517-.223a23.933,23.933,0,0,0-9.672,6.043,24.6,24.6,0,0,0-2.983,3.792" transform="translate(0 -0.004)" fill="#543f5c"/>
          <path id="Trazado_642065" data-name="Trazado 642065" d="M125.078,51.528c-3.045,0-6.029,0-9.013,0-.238,0-.265.113-.264.31,0,1.428.008,2.855-.008,4.283a2.13,2.13,0,0,1-2.3,2.209,1.885,1.885,0,0,1-1.257-.6c-.944-.906-1.871-1.829-2.8-2.753-2.274-2.268-4.508-4.579-6.831-6.795a2.944,2.944,0,0,1-.036-4.244c3.231-3.178,6.428-6.39,9.629-9.6a2.082,2.082,0,0,1,3.42.669,2.94,2.94,0,0,1,.173,1.01c.019,1.38.013,2.76.007,4.14,0,.209.019.327.281.327,2.95-.006,5.9,0,8.85,0a1.191,1.191,0,0,0,.15-.025v-.409q0-4.889,0-9.779a1.424,1.424,0,0,1,.927-1.525,1.133,1.133,0,0,1,1.379.877c.021.26,0,.523,0,.784q0,6.5.005,12.99c0,.221.064.3.283.291.321-.011.643-.015.963.006a1.215,1.215,0,0,1,1.133,1.129A1.231,1.231,0,0,1,128.659,46c-.4.028-.8.005-1.237.005V60.414c.267-.106.528-.2.779-.312a5.009,5.009,0,0,0,3.159-4.82c.006-.416,0-.833,0-1.249a1.3,1.3,0,0,1,.993-1.425,17.256,17.256,0,0,0,4.1-2.128A17.688,17.688,0,0,0,143.837,38.8c.03-.164.048-.329.066-.5a1.249,1.249,0,0,1,.972-1.107,6.707,6.707,0,0,0,4.633-4.372,4.862,4.862,0,0,0-.164-4.3,3.916,3.916,0,0,0-3.425-2.029,6.112,6.112,0,0,1-.957-.064.939.939,0,0,1-.828-.861c-.06-.7-.069-1.4-.08-2.1-.023-1.522.032-3.048-.06-4.565a17.245,17.245,0,0,0-5.932-12.164A17.348,17.348,0,0,0,127.8,2.351c-.124-.011-.25,0-.407,0v1.47q0,9.743,0,19.486c0,.357.02.714.021,1.07a1.015,1.015,0,0,1-.68,1.059,1.027,1.027,0,0,1-1.316-.4,2.031,2.031,0,0,1-.324-.992q-.027-11.3-.011-22.591A1.324,1.324,0,0,1,126.557,0a19.538,19.538,0,0,1,9.093,2.332,20.013,20.013,0,0,1,10.111,12.88,21.459,21.459,0,0,1,.608,5.438q.013,1.605-.019,3.211c-.006.28.1.366.354.411a6.258,6.258,0,0,1,5.183,4.434,7.663,7.663,0,0,1-.652,5.872,9.068,9.068,0,0,1-4.846,4.513.684.684,0,0,0-.448.582,17.228,17.228,0,0,1-1.921,5.56,19.888,19.888,0,0,1-9.617,8.98c-.065.029-.13.059-.194.09-.285.138-.611.185-.576.664.06.823-.081.633.669.884A25.848,25.848,0,0,1,149.183,68.37a1.109,1.109,0,0,1-.714,1.681,2.971,2.971,0,0,1-.741.08q-10.278.006-20.557,0c-.25,0-.5-.008-.749-.025a1.338,1.338,0,0,1-1.343-1.377c-.006-.107,0-.214,0-.321V51.528ZM113.446,36.32c-.208.191-.359.319-.5.458q-4.255,4.248-8.508,8.5c-.716.716-.725.751-.011,1.464q4.428,4.427,8.865,8.846a1.48,1.48,0,0,0,.2.127c0-.186,0-.312,0-.438-.009-.951-.024-1.9-.025-2.854,0-.678-.009-1.357.038-2.032A1.155,1.155,0,0,1,114.6,49.26a5.815,5.815,0,0,1,.818-.047q4.639-.005,9.278,0c.124,0,.249-.018.36-.026V42.812a.453.453,0,0,0-.095-.028l-9.456.02c-.166,0-.333-.007-.5-.018-1.131-.078-1.532-.506-1.533-1.656,0-1.475.007-2.95.009-4.425,0-.1-.016-.2-.032-.386m13.945,31.472H146.18l.081-.1c-.857-1.071-1.657-2.193-2.58-3.2a23.369,23.369,0,0,0-9.971-6.456c-.477-.16-.451-.15-.71.3a13.245,13.245,0,0,1-1.136,1.8,7.164,7.164,0,0,1-4.168,2.495c-.243.053-.321.145-.316.4.019,1.129.011,2.259.012,3.388,0,.449,0,.9,0,1.366" transform="translate(-72.552 0)" fill="#543f5c"/>
          <path id="Trazado_642066" data-name="Trazado 642066" d="M205.309,119.545a6.564,6.564,0,0,1-4.465-1.771c-.562-.527-.653-1.041-.305-1.543a1.105,1.105,0,0,1,1.646-.272,8.616,8.616,0,0,0,1.723,1.048,3.931,3.931,0,0,0,3.933-.626c.19-.143.363-.309.557-.446a1.1,1.1,0,0,1,1.516.133,1.07,1.07,0,0,1,0,1.463,9.6,9.6,0,0,1-1.73,1.289,6.075,6.075,0,0,1-2.877.726" transform="translate(-142.942 -82.548)" fill="#543f5c"/>
          <path id="Trazado_642067" data-name="Trazado 642067" d="M48.437,119.542a6.8,6.8,0,0,1-4.575-1.685,2.151,2.151,0,0,1-.478-.611,1.08,1.08,0,0,1,.274-1.267,1.032,1.032,0,0,1,1.313-.118,4.707,4.707,0,0,1,.509.389,4.165,4.165,0,0,0,5.347.065c.138-.113.274-.228.414-.339a1.113,1.113,0,0,1,1.546.062,1.031,1.031,0,0,1,0,1.555,5.894,5.894,0,0,1-2.919,1.7c-.549.138-1.118.2-1.436.254" transform="translate(-30.883 -82.538)" fill="#543f5c"/>
          <path id="Trazado_642068" data-name="Trazado 642068" d="M251.135,105.4a5.761,5.761,0,0,1,1.592-3.423,1.1,1.1,0,0,1,1.6-.057,1.116,1.116,0,0,1,.049,1.546,3.75,3.75,0,0,0-.93,2.261,1.094,1.094,0,0,1-1.214,1.148c-.667-.041-1.112-.58-1.093-1.475" transform="translate(-179.189 -72.493)" fill="#543f5c"/>
          <path id="Trazado_642069" data-name="Trazado 642069" d="M18.083,105.431c.01.861-.435,1.388-1.071,1.434a1.079,1.079,0,0,1-1.223-1.094,3.934,3.934,0,0,0-.954-2.326,1.106,1.106,0,0,1,1.593-1.532,2.8,2.8,0,0,1,.375.38,6.276,6.276,0,0,1,1.281,3.137" transform="translate(-10.385 -72.493)" fill="#543f5c"/>
        </g>
      </g>
    </g>
  </g>
</svg>
