<svg xmlns="http://www.w3.org/2000/svg" xmlns:xlink="http://www.w3.org/1999/xlink" width="124.417" height="124.418" viewBox="0 0 124.417 124.418">
  <defs>
    <clipPath id="clip-path">
      <rect id="Rectángulo_379102" data-name="Rectángulo 379102" width="115" height="115" transform="translate(389.246 2670.246)" fill="#fff" stroke="#707070" stroke-width="1"/>
    </clipPath>
    <linearGradient id="linear-gradient" x1="0.989" y1="1.001" x2="0.081" y2="0.049" gradientUnits="objectBoundingBox">
      <stop offset="0" stop-color="#8c50af"/>
      <stop offset="1" stop-color="#fbe3b1"/>
    </linearGradient>
    <clipPath id="clip-path-2">
      <rect id="Rectángulo_379456" data-name="Rectángulo 379456" width="87" height="87" transform="translate(408 2139)" fill="#fff" stroke="#707070" stroke-width="1"/>
    </clipPath>
    <clipPath id="clip-path-3">
      <rect id="Rectángulo_379457" data-name="Rectángulo 379457" width="78.579" height="84" fill="#543f5c"/>
    </clipPath>
  </defs>
  <g id="Grupo_1075350" data-name="Grupo 1075350" transform="translate(-1092.828 -2121.581)">
    <g id="Enmascarar_grupo_1074687" data-name="Enmascarar grupo 1074687" transform="translate(708.754 -543.664)" clip-path="url(#clip-path)">
      <rect id="Imagen_41" data-name="Imagen 41" width="128.611" height="124.518" transform="translate(382.686 2667.283)" fill="#fff"/>
    </g>
    <path id="Sustracción_198" data-name="Sustracción 198" d="M113.2,113.2H0V0H113.2V113.2ZM6.49,6.49V106.714H106.713V6.49Z" transform="matrix(-0.995, -0.105, 0.105, -0.995, 1205.412, 2245.999)" fill="url(#linear-gradient)"/>
    <g id="Enmascarar_grupo_1074723" data-name="Enmascarar grupo 1074723" transform="translate(704 2)" clip-path="url(#clip-path-2)">
      <g id="Grupo_1075060" data-name="Grupo 1075060" transform="translate(412 2141)">
        <g id="Grupo_1075059" data-name="Grupo 1075059" clip-path="url(#clip-path-3)">
          <path id="Trazado_642079" data-name="Trazado 642079" d="M98.673,169.427c.012-.215.031-.4.031-.584,0-2.534,0-5.068-.024-7.6a3.937,3.937,0,0,1,1.444-3.208,14.628,14.628,0,0,0,4.14-5.373,13.149,13.149,0,0,0,1.172-5.391c-.014-1.379.017-2.759.025-4.138,0-.109-.019-.218-.033-.365a4.722,4.722,0,0,1-5.54-.979,4.671,4.671,0,0,1-6.216.551,4.747,4.747,0,0,1-2.56,2.056,5.473,5.473,0,0,1-1.431.252c-1.065.038-2.132.013-3.2.015-.1,0-.2.01-.379.02,0,.522-.017,1.032.017,1.538.005.081.224.192.357.215a9.114,9.114,0,0,1,4.383,2.025,9.472,9.472,0,0,1,3.328,5.768,9.587,9.587,0,0,1,.093,1.538,1.019,1.019,0,0,1-.727,1,1.049,1.049,0,0,1-1.218-.2,1.736,1.736,0,0,1-.541-1.238,6.456,6.456,0,0,0-4.123-6.019,8.918,8.918,0,0,0-2.313-.6,2.033,2.033,0,0,1-1.685-2.084c0-.637,0-1.274,0-1.964-.428,0-.825,0-1.221,0a1.4,1.4,0,0,1-1.193-.519,1.081,1.081,0,0,1,.4-1.726,2.553,2.553,0,0,1,1.016-.2c2.032-.018,4.065,0,6.1-.011a10.009,10.009,0,0,0,1.35-.072,1.907,1.907,0,0,0,1.68-1.973v-2.31c-.14-.007-.249-.017-.358-.017-3.562,0-7.126-.058-10.687.018a4.138,4.138,0,0,0-4.116,4.069c-.01,1.819-.011,3.638.03,5.456a13.689,13.689,0,0,0,4.479,9.928c.281.268.583.515.872.775a3.894,3.894,0,0,1,1.387,3.042c-.015,2.521,0,5.042,0,7.564v.757h2.309a1.212,1.212,0,0,1,1.051.475,1.13,1.13,0,0,1-.366,1.73.819.819,0,0,1-.276.114,8.181,8.181,0,0,1-3.391-.107,2.686,2.686,0,0,1-1.768-2.513c0-2.634-.021-5.269.014-7.9a1.8,1.8,0,0,0-.7-1.528,16.061,16.061,0,0,1-2.82-2.963,15.732,15.732,0,0,1-2.8-6.1,21.739,21.739,0,0,1-.444-3.418c-.076-1.652-.063-3.312-.019-4.966a6.715,6.715,0,0,1,3.8-6.161.436.436,0,0,0,.27-.461c.009-1.428-.061-2.867.083-4.282a4.57,4.57,0,0,1,5.455-3.975,9.121,9.121,0,0,1,1.552.646,3.713,3.713,0,0,1,.349.2,4.822,4.822,0,0,1,3.508-2.3,4.745,4.745,0,0,1,3.869,1.473,4.562,4.562,0,0,1,5.336-1.023,4.905,4.905,0,0,1,2.759,4.1c.424-.127.864-.3,1.32-.39a4.567,4.567,0,0,1,5.254,3.519,7.227,7.227,0,0,1,.156,1.491c.012,4.039.09,8.08-.016,12.117a16.248,16.248,0,0,1-5.856,12.312c-.133.115-.269.227-.394.349a1.54,1.54,0,0,0-.513,1.192c.023,2.647.011,5.293.011,7.94a2.709,2.709,0,0,1-2.74,2.832c-2.22.034-4.441.014-6.661,0a1.382,1.382,0,0,1-1.153-.535,1.152,1.152,0,0,1,.62-1.8,2.654,2.654,0,0,1,.633-.063q3.18-.006,6.36,0Zm-4.431-34.775h.02c0,1.241,0,2.483,0,3.724a2.321,2.321,0,0,0,.934,2.067,2.164,2.164,0,0,0,2.384.131,2.212,2.212,0,0,0,1.116-2.116q.017-3.648.011-7.3a7.928,7.928,0,0,0-.047-.9,2.184,2.184,0,0,0-4.2-.542,3.959,3.959,0,0,0-.205,1.247c-.026,1.228-.009,2.457-.009,3.686m11.205,1.95h-.008c0-.7.022-1.4-.01-2.1a2.3,2.3,0,0,0-.226-.93,2.149,2.149,0,0,0-3.852.014,1.866,1.866,0,0,0-.207.813c-.02,1.453.014,2.907-.021,4.359a1.937,1.937,0,0,0,.674,1.524,2.068,2.068,0,0,0,2.307.4,1.951,1.951,0,0,0,1.336-1.788c.037-.762.008-1.527.008-2.291m-13.66-1.212c0-1.778.008-3.518-.01-5.258a1.516,1.516,0,0,0-.213-.706,2.168,2.168,0,0,0-4.056,1.118q-.011,2.274-.013,4.548a2.756,2.756,0,0,0,.033.3Zm-11.057-.006h4.307a.514.514,0,0,0,.036-.124c0-1.089.02-2.179-.024-3.267a3.027,3.027,0,0,0-.3-1.255,2.1,2.1,0,0,0-2.242-1.021,2.015,2.015,0,0,0-1.758,1.841c-.088,1.256-.021,2.523-.021,3.826" transform="translate(-51.761 -87.87)" fill="#543f5c"/>
          <path id="Trazado_642080" data-name="Trazado 642080" d="M83.684,44.067c.145-.885.279-1.751.43-2.613.212-1.207.424-2.414.665-3.616a1.146,1.146,0,0,0-.31-1.135c-1.262-1.238-2.513-2.488-3.792-3.708a4.311,4.311,0,0,1-1.489-2.5,3.438,3.438,0,0,1,2.673-3.77c1.005-.2,2.028-.3,3.042-.46,1.049-.164,2.1-.343,3.145-.516a1.047,1.047,0,0,0,.818-.634c.786-1.622,1.6-3.231,2.387-4.852A3.958,3.958,0,0,1,93,18.323a3.345,3.345,0,0,1,4.45,1.276c.64,1.132,1.179,2.32,1.761,3.485.341.683.687,1.364,1.014,2.054a.992.992,0,0,0,.8.605c.829.123,1.66.234,2.487.366q1.833.292,3.662.608a3.385,3.385,0,0,1,2.166,5.19A16.308,16.308,0,0,1,107.351,34c-.867.871-1.742,1.735-2.631,2.582a1.292,1.292,0,0,0-.405,1.284c.272,1.45.536,2.9.761,4.359a10.353,10.353,0,0,1,.212,2.414,3.381,3.381,0,0,1-4.364,2.727,20.073,20.073,0,0,1-2.16-1.045c-1.18-.607-2.349-1.236-3.529-1.843a1.524,1.524,0,0,0-1.477.038c-1.639.864-3.282,1.722-4.919,2.591A3.456,3.456,0,0,1,83.9,45.159a9.418,9.418,0,0,1-.22-1.092m2.435-.009a2.526,2.526,0,0,0,.338.761.956.956,0,0,0,1.3.145c1.667-.865,3.339-1.722,4.991-2.613a3.548,3.548,0,0,1,3.581-.005c1.568.838,3.145,1.658,4.721,2.481a4.391,4.391,0,0,0,.655.276.961.961,0,0,0,1.2-.934c-.045-.3-.009-.6-.058-.9-.239-1.444-.415-2.905-.764-4.323a4.259,4.259,0,0,1,1.442-4.587c.67-.585,1.3-1.216,1.939-1.836.611-.593,1.251-1.164,1.8-1.808a1.01,1.01,0,0,0-.591-1.665c-.121-.03-.244-.056-.367-.074-1.573-.229-3.147-.454-4.72-.686a8.622,8.622,0,0,1-1.436-.257,3.48,3.48,0,0,1-2.071-1.854q-1.211-2.459-2.425-4.917c-.236-.476-.548-.928-1.132-.918-.56.009-.864.452-1.095.913-.4.795-.781,1.6-1.175,2.393-.444.9-.881,1.8-1.345,2.686a3.27,3.27,0,0,1-2.335,1.794c-1.364.259-2.746.422-4.121.625-.669.1-1.345.159-2.006.3A1.009,1.009,0,0,0,81.87,30.8c.226.267.479.513.73.757,1.177,1.146,2.368,2.277,3.532,3.434A3.3,3.3,0,0,1,87.151,37.9c-.218,1.511-.5,3.013-.749,4.519-.085.505-.174,1.01-.283,1.644" transform="translate(-55.255 -12.525)" fill="#543f5c"/>
          <path id="Trazado_642081" data-name="Trazado 642081" d="M24.2,153.029c2.1.048,3.325.8,3.989,2.3a3.644,3.644,0,0,1-.6,4.142,37.031,37.031,0,0,1-3.165,3.161,3.869,3.869,0,0,1-6.11-1.461,3.655,3.655,0,0,1,.778-4.192c.942-1.054,1.989-2.017,3.018-2.989a3.135,3.135,0,0,1,2.086-.961m1.969,3.818a1.414,1.414,0,0,0-.833-1.242,1.592,1.592,0,0,0-1.78.271c-.891.88-1.77,1.772-2.651,2.662a2.249,2.249,0,0,0-.282.35,1.47,1.47,0,0,0,.329,1.929,1.559,1.559,0,0,0,1.906-.036c.942-.9,1.874-1.808,2.8-2.719a1.581,1.581,0,0,0,.507-1.215" transform="translate(-12.541 -106.815)" fill="#543f5c"/>
          <path id="Trazado_642082" data-name="Trazado 642082" d="M207.232,6.7a3.674,3.674,0,0,1,1.073-2.759c.936-.944,1.866-1.893,2.827-2.811a3.884,3.884,0,0,1,6.43,1.587,3.481,3.481,0,0,1-.73,3.67,33.977,33.977,0,0,1-3.3,3.289,3.521,3.521,0,0,1-4.076.5A3.735,3.735,0,0,1,207.232,6.7m3.8,1.416a1.45,1.45,0,0,0,1.355-.6q1.187-1.176,2.364-2.362a1.7,1.7,0,0,0,.406-.531,2.018,2.018,0,0,0,.182-.893,1.494,1.494,0,0,0-2.556-.888c-.972.919-1.9,1.891-2.82,2.859a1.3,1.3,0,0,0-.237,1.533,1.3,1.3,0,0,0,1.305.88" transform="translate(-144.652 0)" fill="#543f5c"/>
          <path id="Trazado_642083" data-name="Trazado 642083" d="M211.119,153.133a3.276,3.276,0,0,1,2.531.985c.989.942,1.962,1.9,2.905,2.89A3.77,3.77,0,0,1,217.7,159.6a3.865,3.865,0,0,1-2.147,3.582,3.474,3.474,0,0,1-4.117-.349,29.115,29.115,0,0,1-3.527-3.534,3.841,3.841,0,0,1,1.2-5.7,3.576,3.576,0,0,1,2.005-.464m2.63,8.067a1.476,1.476,0,0,0,1.073-2.536q-1.324-1.358-2.676-2.69a1.618,1.618,0,0,0-2.209-.026,1.494,1.494,0,0,0,.047,2.156c.884.9,1.8,1.78,2.688,2.678a1.4,1.4,0,0,0,1.077.419" transform="translate(-144.563 -106.884)" fill="#543f5c"/>
          <path id="Trazado_642084" data-name="Trazado 642084" d="M24.324,10.566a3.392,3.392,0,0,1-2.215-.949c-1.082-1.026-2.171-2.053-3.161-3.165a3.482,3.482,0,0,1-.706-3.937A3.865,3.865,0,0,1,21.364.053a3.633,3.633,0,0,1,3.174,1.014c.975.939,1.931,1.9,2.878,2.867a3.941,3.941,0,0,1,.8,4.222,4.08,4.08,0,0,1-3.892,2.41m.185-2.441A1.45,1.45,0,0,0,26.1,6.489a2.1,2.1,0,0,0-.531-1c-.762-.831-1.559-1.63-2.372-2.411a3.639,3.639,0,0,0-.965-.627.962.962,0,0,0-.644-.021,1.491,1.491,0,0,0-.728,2.6c.839.912,1.745,1.762,2.628,2.634a1.231,1.231,0,0,0,1.017.46" transform="translate(-12.505 -0.005)" fill="#543f5c"/>
          <path id="Trazado_642085" data-name="Trazado 642085" d="M5.293,88.463c-.614,0-1.232.049-1.84-.01a3.75,3.75,0,0,1-2.941-2.02A3.872,3.872,0,0,1,3.224,80.75a9.623,9.623,0,0,1,4.538.1,3.894,3.894,0,0,1-.93,7.63c-.512-.022-1.026,0-1.539,0v-.013m.042-2.437v.033a14.193,14.193,0,0,0,1.425-.013,1.739,1.739,0,0,0,.861-.3,1.5,1.5,0,0,0-.795-2.659,25.387,25.387,0,0,0-3.222.054A1.376,1.376,0,0,0,2.439,84.59a1.361,1.361,0,0,0,1.173,1.423,15.1,15.1,0,0,0,1.723.013" transform="translate(0 -56.21)" fill="#543f5c"/>
          <path id="Trazado_642086" data-name="Trazado 642086" d="M230.487,88.611c-.676-.032-1.358-.019-2.027-.105a3.857,3.857,0,0,1-3.2-3.291,3.805,3.805,0,0,1,2.221-4.09,5.2,5.2,0,0,1,1.773-.433,9.949,9.949,0,0,1,3.62.2A3.9,3.9,0,0,1,235.7,84a3.676,3.676,0,0,1-1.325,3.6,3.292,3.292,0,0,1-2.348.942c-.514-.008-1.028,0-1.541,0v.074m-.013-2.483v0c.489,0,.978.012,1.466,0a1.285,1.285,0,0,0,1-.436A1.514,1.514,0,0,0,231.9,83.14c-.938-.037-1.881-.047-2.819,0a1.51,1.51,0,0,0-1.491,1.571,1.461,1.461,0,0,0,1.569,1.419c.438.012.877,0,1.316,0" transform="translate(-157.207 -56.275)" fill="#543f5c"/>
        </g>
      </g>
    </g>
  </g>
</svg>
