<svg xmlns="http://www.w3.org/2000/svg" xmlns:xlink="http://www.w3.org/1999/xlink" width="124.417" height="124.418" viewBox="0 0 124.417 124.418">
  <defs>
    <clipPath id="clip-path">
      <rect id="Rectángulo_379108" data-name="Rectángulo 379108" width="115" height="115" transform="translate(389.246 2670.246)" fill="#fff" stroke="#707070" stroke-width="1"/>
    </clipPath>
    <linearGradient id="linear-gradient" x1="0.989" y1="1.001" x2="0.081" y2="0.049" gradientUnits="objectBoundingBox">
      <stop offset="0" stop-color="#8c50af"/>
      <stop offset="1" stop-color="#fbe3b1"/>
    </linearGradient>
    <clipPath id="clip-path-2">
      <rect id="Rectángulo_379459" data-name="Rectángulo 379459" width="87" height="87" transform="translate(408 2139)" fill="#fff" stroke="#707070" stroke-width="1"/>
    </clipPath>
    <clipPath id="clip-path-3">
      <rect id="Rectángulo_379460" data-name="Rectángulo 379460" width="83.588" height="67.952" fill="#543f5c"/>
    </clipPath>
  </defs>
  <g id="Grupo_1075351" data-name="Grupo 1075351" transform="translate(-9397.598 9578.419)">
    <g id="Enmascarar_grupo_1074689" data-name="Enmascarar grupo 1074689" transform="translate(9013.754 -12243.246)" clip-path="url(#clip-path)">
      <rect id="Imagen_43" data-name="Imagen 43" width="128.611" height="124.518" transform="translate(382.686 2667.283)" fill="#fff"/>
    </g>
    <path id="Sustracción_200" data-name="Sustracción 200" d="M113.2,113.2H0V0H113.2V113.2ZM6.49,6.49V106.714H106.713V6.49Z" transform="matrix(-0.995, -0.105, 0.105, -0.995, 9510.182, -9454.001)" fill="url(#linear-gradient)"/>
    <g id="Enmascarar_grupo_1074724" data-name="Enmascarar grupo 1074724" transform="translate(9009 -11698)" clip-path="url(#clip-path-2)">
      <g id="Grupo_1075064" data-name="Grupo 1075064" transform="translate(409.862 2148.524)">
        <g id="Grupo_1075063" data-name="Grupo 1075063" clip-path="url(#clip-path-3)">
          <path id="Trazado_642095" data-name="Trazado 642095" d="M18.282,49.674c0-1.222,0-2.418-.007-3.614a.326.326,0,0,0-.148-.246A12.783,12.783,0,0,1,12.4,40.725a12.269,12.269,0,0,1-1.9-6.586.4.4,0,0,0-.329-.471,5.147,5.147,0,0,1-.6-9.588l.1-.046c.269-.116.646-.163.777-.367s.041-.579.041-.878q0-2.282,0-4.564a12.577,12.577,0,0,1,2.668-7.771A12.858,12.858,0,0,1,19.386,5.99a13.06,13.06,0,0,1,17.171,12.34c0,1.684.008,3.367-.006,5.051a.436.436,0,0,0,.358.5,5.062,5.062,0,0,1,3.489,5.71,4.941,4.941,0,0,1-3.54,4.069.367.367,0,0,0-.306.409,12.907,12.907,0,0,1-7.293,11.56.766.766,0,0,0-.5.831c.032,1.057.011,2.117.011,3.228h.415c1.91,0,3.82-.014,5.729.007.822.009,1.642.111,2.464.127a1.271,1.271,0,0,0,.712-.223,33.943,33.943,0,0,1,4.344-2.775,22.818,22.818,0,0,1,10.195-2.438c.72-.006,1.441,0,2.2,0,0-.794,0-1.564,0-2.334,0-.448.135-.978-.057-1.322-.18-.321-.717-.438-1.089-.659a13,13,0,0,1-6.487-9.434,14.741,14.741,0,0,1-.147-1.785.359.359,0,0,0-.286-.392A4.979,4.979,0,0,1,43.248,24.5a5.052,5.052,0,0,1,3.069-5.725c-.1-.115-.189-.227-.29-.325a8.986,8.986,0,0,1-2.785-5.294,10.978,10.978,0,0,1,1.906-7.878,11.547,11.547,0,0,1,6.3-4.671,13.55,13.55,0,0,1,3.94-.588q5.392-.036,10.784,0a4.2,4.2,0,0,1,3.6,1.724,1.8,1.8,0,0,1,.3.514,1.355,1.355,0,0,0,.813.851A3.694,3.694,0,0,1,73.1,6.626q0,5.705,0,11.411v.44a11.741,11.741,0,0,1,1.1.484,4.969,4.969,0,0,1,2.77,5.161,4.977,4.977,0,0,1-3.494,4.311c-.272.1-.376.2-.387.509a12.88,12.88,0,0,1-6.423,11.025,3.273,3.273,0,0,1-.75.415c-.532.158-.644.484-.617,1,.046.9.02,1.8.008,2.693,0,.256.062.338.336.336,2.134-.015,4.272-.091,6.4,0a11.8,11.8,0,0,1,10.654,7.4,12.179,12.179,0,0,1,.887,4.667q0,4.845,0,9.69c0,1.231-.553,1.785-1.784,1.785H1.785A1.548,1.548,0,0,1,.01,66.192c0-1.684-.026-3.367.008-5.05A10.345,10.345,0,0,1,.86,57.184a1.58,1.58,0,0,0,0-1.2c-.991-2.777.91-6.59,3.95-7.664,1.831-.647,3.626-1.41,5.484-1.965a6.34,6.34,0,0,1,7.369,3.026c.2.343.2.356.614.3M70.509,18.3c.01-.179.026-.324.024-.469-.01-.673-.035-1.346-.036-2.019,0-3.03,0-6.06,0-9.09,0-.985-.3-1.317-1.258-1.454a1.283,1.283,0,0,1-1.241-1.25,1.312,1.312,0,0,0-1.481-1.317c-3.993,0-7.987.009-11.98,0a8.432,8.432,0,0,0-5.2,1.8,8.748,8.748,0,0,0-3.35,5.114,7.048,7.048,0,0,0,.475,5.228,6,6,0,0,0,5.256,3.413c2.307.068,4.617-.017,6.926.018a8.314,8.314,0,0,0,5.418-1.911c.556-.439,1.041-.965,1.566-1.444a1.272,1.272,0,0,1,1.308-.437,1.292,1.292,0,0,1,.461,2.277,12.563,12.563,0,0,1-9.709,4.2c-1.5-.014-3,.014-4.492-.009-.734-.012-1.467-.086-2.2-.156-.431-.041-.857-.13-1.3-.2a2.233,2.233,0,0,0-.036.279c.006,2.855.033,5.711.011,8.566a8.076,8.076,0,0,0,.512,2.7A10.4,10.4,0,0,0,62.5,38.937a10.036,10.036,0,0,0,7-5.6,7.955,7.955,0,0,0,.968-3.458c.034-2.63.024-5.262.032-7.893,0-.332,0-.664,0-1-.509-.109-1.015-.19-1.5-.33a1.254,1.254,0,0,1-.971-.942A1.225,1.225,0,0,1,69.4,18.191c.358.019.713.071,1.111.113M33.921,23.62c.012-.173.025-.27.025-.368-.006-1.77-.044-3.541-.008-5.311a8.762,8.762,0,0,0-.5-2.966A10.466,10.466,0,0,0,20.79,8.213a10.206,10.206,0,0,0-5.582,3.738A9.62,9.62,0,0,0,13.1,17.929c0,1.745.013,3.491-.007,5.236,0,.333.075.421.407.421,2.658,0,5.316.029,7.973.014a9.143,9.143,0,0,0,7.1-3.036,6.1,6.1,0,0,1,.676-.645,1.271,1.271,0,0,1,1.821.226,1.22,1.22,0,0,1-.191,1.748,13.232,13.232,0,0,1-3.217,2.658,11.164,11.164,0,0,1-4.763,1.515c-.559.036-1.123.01-1.684.011q-3.893.009-7.785.017c-.217,0-.341.024-.34.3.013,2.618.037,5.237,0,7.854a9.278,9.278,0,0,0,.824,3.911,10.38,10.38,0,0,0,11.242,6.154,10.006,10.006,0,0,0,7.127-4.61,8.948,8.948,0,0,0,1.628-4.779c.055-2.792.024-5.585.029-8.378,0-.146,0-.291,0-.33a16.664,16.664,0,0,1-1.815-.474,1.212,1.212,0,0,1-.634-1.542,1.341,1.341,0,0,1,1.519-.8c.287.073.575.14.911.221M80.874,65.256c.008-.105.016-.166.016-.226q0-5.05,0-10.1a2.191,2.191,0,0,0-.036-.446,9.123,9.123,0,0,0-8.693-7.462c-2.381-.092-4.767-.02-7.151-.013a.38.38,0,0,0-.288.154Q63.8,48.972,62.9,50.8a1.225,1.225,0,0,0-.117.606c.032.421.11.838.181,1.255.317,1.866.642,3.73.955,5.6.2,1.2.378,2.409.577,3.612.165.993.369,1.981.51,2.978.048.338.159.419.485.418q7.489-.015,14.978-.007h.409m-36.531,0c0-1.427-.034-2.8.01-4.168a7.577,7.577,0,0,0-.93-3.877A8.614,8.614,0,0,0,36.2,52.321c-2.583-.191-5.189-.075-7.784-.084a.378.378,0,0,0-.277.174c-.588,1.14-1.176,2.28-1.729,3.436a1.352,1.352,0,0,0-.111.814c.313,1.408.665,2.807,1.011,4.207.328,1.328.671,2.652.994,3.981.079.322.242.416.575.415q7.507-.018,15.013-.008h.447M40.588,50.968c.278.148.5.249.709.38a11.59,11.59,0,0,1,5.658,9.261c.111,1.4.062,2.815.087,4.222,0,.132,0,.265,0,.394h8.07a5.107,5.107,0,0,1,.035-.513c.227-1.324.464-2.646.691-3.969q.475-2.779.939-5.559c.2-1.2.393-2.407.566-3.614a1.369,1.369,0,0,0-.069-.744c-.592-1.235-1.216-2.454-1.84-3.673a.335.335,0,0,0-.246-.145,34.182,34.182,0,0,0-6.048.26,17.859,17.859,0,0,0-4.809,1.462,18.941,18.941,0,0,0-3.744,2.238M2.722,65.256h.312q7.619,0,15.237.008a.372.372,0,0,0,.431-.338q.314-1.3.641-2.606.688-2.751,1.38-5.5a1.417,1.417,0,0,0-.121-1.044c-.5-.962-.965-1.939-1.458-2.9-.139-.271-.327-.517-.492-.774a1.044,1.044,0,0,0-.15.482,5.576,5.576,0,0,1-3.611,5.061c-2.143.872-4.347,1.592-6.516,2.4a5.474,5.474,0,0,1-4.711-.419c-.259-.139-.505-.3-.759-.452a25.528,25.528,0,0,0-.183,6.084M9.514,56.93c-.322-.874-.629-1.673-.909-2.483a4.058,4.058,0,0,1-.223-.977,1.125,1.125,0,0,1,.967-1.261,1.2,1.2,0,0,1,1.428.8c.331.832.622,1.679.92,2.524.169.479.2.507.693.358.167-.051.327-.126.5-.167.286-.069.3-.213.2-.465-.319-.81-.621-1.627-.918-2.446a1.341,1.341,0,0,1,.044-1.323,1.239,1.239,0,0,1,2.256.227c.306.72.55,1.467.824,2.2.026.071.067.136.109.22.058-.052.094-.071.11-.1a3.307,3.307,0,0,0-.136-3.6A3.955,3.955,0,0,0,10.634,48.9C9.081,49.433,7.543,50.013,6,50.576a3.808,3.808,0,0,0-2.733,3.2A3.364,3.364,0,0,0,5.3,57.618a2.071,2.071,0,0,0,.291.073c-.057-.186-.09-.315-.135-.44-.244-.679-.5-1.355-.733-2.037a1.252,1.252,0,0,1,.726-1.592,1.217,1.217,0,0,1,1.661.7c.374.986.707,1.987,1.09,3.072l1.313-.46m52.932,8.3c-.085-.592-.156-1.158-.25-1.72-.307-1.84-.626-3.678-.934-5.518-.285-1.7-.552-3.412-.851-5.113a2.377,2.377,0,0,0-.34-.643,2.527,2.527,0,0,0-.3.626c-.394,2.315-.766,4.635-1.15,6.952-.3,1.8-.606,3.6-.912,5.416ZM23.21,57.477l-1.96,7.758h4.507a.773.773,0,0,0,0-.167q-.926-3.692-1.864-7.382a.373.373,0,0,0-.245-.2,1.872,1.872,0,0,0-.436-.009M21.008,46.8v2.877h5.035V46.765a14.34,14.34,0,0,1-5.035.031m36.54-2.425h5.041V41.516a9.83,9.83,0,0,1-5.041-.01Zm.677,2.642c.371.73.756,1.385,1.04,2.082a.834.834,0,0,0,1.007.609.486.486,0,0,0,.461-.28c.345-.715.709-1.421,1.063-2.132.041-.081.066-.17.107-.279ZM21.7,52.283c.4.816.782,1.593,1.174,2.364a.323.323,0,0,0,.237.13,7.11,7.11,0,0,0,.82,0,.328.328,0,0,0,.241-.123c.39-.771.766-1.549,1.169-2.371ZM73.114,25.82a2.563,2.563,0,0,0,1.326-2.7,2.29,2.29,0,0,0-1.326-1.816ZM10.466,31.084V26.511a2.5,2.5,0,0,0-1.29,2.652,2.615,2.615,0,0,0,1.29,1.921m36.553-5.227V21.235A2.647,2.647,0,0,0,45.7,23.472a2.733,2.733,0,0,0,1.317,2.386m-10.432.593v4.623a2.621,2.621,0,0,0,1.282-1.982,2.837,2.837,0,0,0-1.282-2.641" transform="translate(0 0)" fill="#543f5c"/>
          <path id="Trazado_642096" data-name="Trazado 642096" d="M219.936,75.911a2.011,2.011,0,0,1-.361,1.511,1.236,1.236,0,0,1-2.106-.321,3.521,3.521,0,0,1-.008-2.273,1.317,1.317,0,0,1,1.254-.83,1.549,1.549,0,0,1,1.218,1.345c.019.21,0,.423,0,.567" transform="translate(-152.002 -51.763)" fill="#543f5c"/>
          <path id="Trazado_642097" data-name="Trazado 642097" d="M176.5,75.985a6.386,6.386,0,0,1,0,.708,1.266,1.266,0,0,1-2.518.086,7.548,7.548,0,0,1,0-1.669A1.4,1.4,0,0,1,175.22,74a1.354,1.354,0,0,1,1.237,1.1,8.323,8.323,0,0,1,.071.889l-.031,0" transform="translate(-121.678 -51.766)" fill="#543f5c"/>
          <path id="Trazado_642098" data-name="Trazado 642098" d="M54.59,93.545c0,.174.009.349,0,.522a1.426,1.426,0,0,1-1.1,1.388,1.388,1.388,0,0,1-1.376-.817,3.044,3.044,0,0,1-.081-2.012,1.258,1.258,0,0,1,1.551-.991,1.327,1.327,0,0,1,1,1.276c.018.21,0,.422,0,.634h0" transform="translate(-36.309 -64.095)" fill="#543f5c"/>
          <path id="Trazado_642099" data-name="Trazado 642099" d="M95.692,93.5a7.9,7.9,0,0,1,.069-.854A1.15,1.15,0,0,1,96.9,91.612a1.124,1.124,0,0,1,1.327.929,7.013,7.013,0,0,1-.011,1.925,1.42,1.42,0,0,1-1.293,1.01,1.441,1.441,0,0,1-1.2-1.337c-.017-.211,0-.424,0-.635l-.024,0" transform="translate(-66.944 -64.089)" fill="#543f5c"/>
        </g>
      </g>
    </g>
  </g>
</svg>
