<svg xmlns="http://www.w3.org/2000/svg" xmlns:xlink="http://www.w3.org/1999/xlink" width="124.417" height="124.418" viewBox="0 0 124.417 124.418">
  <defs>
    <clipPath id="clip-path">
      <rect id="Rectángulo_379105" data-name="Rectángulo 379105" width="115" height="115" transform="translate(389.246 2670.246)" fill="#fff" stroke="#707070" stroke-width="1"/>
    </clipPath>
    <linearGradient id="linear-gradient" x1="0.989" y1="1.001" x2="0.081" y2="0.049" gradientUnits="objectBoundingBox">
      <stop offset="0" stop-color="#8c50af"/>
      <stop offset="1" stop-color="#fbe3b1"/>
    </linearGradient>
    <clipPath id="clip-path-2">
      <rect id="Rectángulo_379462" data-name="Rectángulo 379462" width="87" height="87" transform="translate(408 2139)" fill="#fff" stroke="#707070" stroke-width="1"/>
    </clipPath>
    <clipPath id="clip-path-3">
      <rect id="Rectángulo_379463" data-name="Rectángulo 379463" width="81.596" height="84" fill="#543f5c"/>
    </clipPath>
  </defs>
  <g id="Grupo_1075352" data-name="Grupo 1075352" transform="translate(-9748.828 9578.419)">
    <g id="Enmascarar_grupo_1074688" data-name="Enmascarar grupo 1074688" transform="translate(9364.582 -12243.664)" clip-path="url(#clip-path)">
      <rect id="Imagen_42" data-name="Imagen 42" width="128.611" height="124.518" transform="translate(382.686 2667.283)" fill="#fff"/>
    </g>
    <path id="Sustracción_199" data-name="Sustracción 199" d="M113.2,113.2H0V0H113.2V113.2ZM6.49,6.49V106.714H106.713V6.49Z" transform="matrix(-0.995, -0.105, 0.105, -0.995, 9861.412, -9454.001)" fill="url(#linear-gradient)"/>
    <g id="Enmascarar_grupo_1074725" data-name="Enmascarar grupo 1074725" transform="translate(9359 -11698)" clip-path="url(#clip-path-2)">
      <g id="Grupo_1075066" data-name="Grupo 1075066" transform="translate(411 2141)">
        <g id="Grupo_1075065" data-name="Grupo 1075065" clip-path="url(#clip-path-3)">
          <path id="Trazado_642100" data-name="Trazado 642100" d="M15.706,75.987a6.071,6.071,0,1,1,6.394-.038c.054.059.094.136.157.17a7.949,7.949,0,0,1,2.585,2.539c.924,1.293,1.786,2.631,2.653,3.965a.78.78,0,0,0,.77.421c.675-.029,1.351-.008,2.037-.008A9.079,9.079,0,0,1,36.328,75.5a6.841,6.841,0,0,1-2.309-6.544,6.8,6.8,0,0,1,11.8-3.157c2.234,2.563,2.568,6.531-.708,9.661,3.52,1.4,5.709,3.853,6.143,7.792.754,0,1.525.013,2.295-.014.125,0,.274-.167.359-.293.883-1.306,1.741-2.629,2.635-3.928a10.07,10.07,0,0,1,2.978-2.859c-2.195-1.576-3.309-3.635-2.818-6.345a5.864,5.864,0,0,1,2.587-3.865,6.036,6.036,0,1,1,6.505,10.166c.208.131.41.243.6.377a5.1,5.1,0,0,1,2.119,3.47,37.578,37.578,0,0,1,.442,8.933c-.109,1.419-.288,2.835-.514,4.24a2.1,2.1,0,0,1-.651.963.728.728,0,0,0-.3.533q-.072,2.781-.174,5.561c-.009.255.106.315.32.383a38.086,38.086,0,0,1,8.327,3.557,13.986,13.986,0,0,1,4.327,3.755,6.918,6.918,0,0,1,1.3,3.622,6.184,6.184,0,0,1-1.43,4.064,14.941,14.941,0,0,1-4.859,4.015,30.813,30.813,0,0,1-6.7,2.84c-2.4.7-4.811,1.356-7.248,1.9a79.2,79.2,0,0,1-10.165,1.48,104.147,104.147,0,0,1-15.632.332c-1.505-.091-3.016-.12-4.517-.257-1.747-.16-3.488-.4-5.23-.62-1.191-.153-2.386-.3-3.566-.522-1.6-.3-3.194-.649-4.779-1.026a43.528,43.528,0,0,1-11.094-4.064,15.511,15.511,0,0,1-4.925-4,6.285,6.285,0,0,1,0-8.006,14.381,14.381,0,0,1,3.952-3.381,34.863,34.863,0,0,1,7.6-3.372c.367-.12.74-.224,1.1-.367a.379.379,0,0,0,.176-.3q-.13-2.944-.29-5.886c-.005-.1-.045-.245-.111-.273a1.519,1.519,0,0,1-.807-1.359c-.127-.833-.21-1.674-.319-2.51a33.2,33.2,0,0,1-.075-7.623c.111-1.1.3-2.192.494-3.28a4.66,4.66,0,0,1,2.28-3.119l.274-.178M47.536,99.749v.586q0,6.936-.009,13.872a1.468,1.468,0,0,1-.222.9c-1.719,1.976-3.954,2.841-6.41,1.179a.773.773,0,0,0-.98-.026,4.072,4.072,0,0,1-5.611-.889,1.6,1.6,0,0,1-.4-1.094q.012-7,.005-14v-.49c-.128,0-.2,0-.265,0-1.323.115-2.648.206-3.966.352-1.769.2-3.532.442-5.3.655-.36.043-.472.235-.488.568-.087,1.811-.2,3.62-.277,5.431-.1,2.225-.2,4.45-.26,6.675a3.262,3.262,0,0,1-2.138,3.07,5.709,5.709,0,0,1-2.964.374,3.646,3.646,0,0,1-3.522-3.644c-.127-3.236-.236-6.473-.355-9.71-.006-.157-.036-.312-.056-.482-.135.028-.217.038-.3.062a32.308,32.308,0,0,0-6.859,2.89,12.7,12.7,0,0,0-3.507,2.758,4.124,4.124,0,0,0,.054,5.878,12.235,12.235,0,0,0,3.117,2.457,41.178,41.178,0,0,0,10.81,4.107,75.468,75.468,0,0,0,10.484,1.816c2.213.241,4.436.393,6.658.529a117.628,117.628,0,0,0,17.954-.416c1.77-.163,3.531-.446,5.287-.734a68.953,68.953,0,0,0,8.282-1.849,42.72,42.72,0,0,0,6.473-2.418,15.343,15.343,0,0,0,5.133-3.587,4.078,4.078,0,0,0,.214-5.458,10.384,10.384,0,0,0-1.829-1.8,27.544,27.544,0,0,0-8.708-4.156,2.4,2.4,0,0,0-.4-.058.855.855,0,0,0-.043.156q-.172,5.1-.341,10.209a3.2,3.2,0,0,1-1.42,2.8,5.067,5.067,0,0,1-5.1.416,3.286,3.286,0,0,1-2.131-3.377,10.491,10.491,0,0,0-.02-1.494,75.016,75.016,0,0,1-.318-7.712c.011-.981-.086-1.963-.147-2.943a.349.349,0,0,0-.175-.264,13.12,13.12,0,0,0-1.62-.337c-1.62-.182-3.243-.331-4.865-.487-1.14-.11-2.28-.21-3.48-.32m1.192-16.593a.406.406,0,0,0,.031-.11,6.3,6.3,0,0,0-6.141-5.455c-1.162-.005-2.326-.036-3.487,0a7.276,7.276,0,0,0-1.958.26,6.335,6.335,0,0,0-4.326,4.879c-.063.25.075.3.278.349a6.581,6.581,0,0,1,1.03.293c.508.208,1,.462,1.493.7a1.085,1.085,0,0,1,.677.965c.02.331.046.663.046,1q-.008,13.7-.022,27.405c0,.724.318,1.044,1.053,1.072a3.065,3.065,0,0,0,1.827-.693.794.794,0,0,0,.294-.571c.009-1.965-.021-3.93-.021-5.9,0-2.976.024-5.951.012-8.927a1.234,1.234,0,0,1,.808-1.262,1.178,1.178,0,0,1,1.314.352,1.057,1.057,0,0,1,.269.918q.009,5.211.013,10.422c0,1.578-.022,3.156-.006,4.733a.889.889,0,0,0,.264.635,2.2,2.2,0,0,0,2.627-.074.779.779,0,0,0,.258-.51c.028-.51-.009-1.023-.01-1.535q0-12.81,0-25.62c0-.429.021-.857.037-1.286a1.123,1.123,0,0,1,.744-1.055c.631-.264,1.268-.519,1.912-.748a8.928,8.928,0,0,1,.982-.236M33.284,85.59h-.472c-1.758,0-3.515-.008-5.273.005a1.606,1.606,0,0,1-1.366-.648c-.22-.284-.436-.573-.635-.872-.727-1.094-1.4-2.226-2.182-3.28a15.56,15.56,0,0,0-1.98-2.22,4.1,4.1,0,0,0-4.8-.229,1.9,1.9,0,0,0-.93,1.121,26.264,26.264,0,0,0-.631,5.716c-.053,2.066.182,4.14.3,6.21a.387.387,0,0,0,.189.281,1.618,1.618,0,0,1,.95,1.68c.063,2.075.168,4.148.25,6.222q.277,6.968.543,13.936a.714.714,0,0,0,.434.677,3.388,3.388,0,0,0,2.1.276,1.142,1.142,0,0,0,1.117-1.189c.1-2.46.209-4.92.294-7.381.148-4.313.28-8.627.42-12.94a1.232,1.232,0,0,1,.6-1.072.527.527,0,0,0,.291-.53c-.01-1.495-.057-2.992.02-4.483a2.589,2.589,0,0,0-.708-2.1,12.3,12.3,0,0,1-1.2-1.533,1.133,1.133,0,0,1,.048-1.356,1.086,1.086,0,0,1,1.29-.415,2.33,2.33,0,0,1,.889.7q1.4,1.7,2.74,3.441a1.3,1.3,0,0,0,1.17.549c1.051-.032,2.1-.032,3.155-.033.927,0,1.854.014,2.781.019.328,0,.622-.045.59-.558m14.967.621a2.674,2.674,0,0,0,.315.036c2.228,0,4.457.009,6.685-.006A.74.74,0,0,0,55.733,86c.394-.445.756-.918,1.13-1.381.7-.861,1.374-1.737,2.091-2.58a1.141,1.141,0,0,1,1.78-.138,1.182,1.182,0,0,1,.089,1.655c-.506.692-1.073,1.339-1.583,2.027a1.227,1.227,0,0,0-.226.676q-.025,2.636.005,5.273a.837.837,0,0,0,.23.442c.22.269.574.423.588.854.036,1.147.1,2.294.151,3.44q.217,5.2.426,10.41c.088,2.282.154,4.564.233,6.846.019.562.138.749.661.916a3.784,3.784,0,0,0,2.287.038.843.843,0,0,0,.679-.864c.049-1.881.139-3.76.215-5.641q.255-6.326.513-12.652c.033-.8.073-1.6.134-2.4a1.061,1.061,0,0,1,.683-.966.516.516,0,0,0,.373-.55c.1-1.461.22-2.92.3-4.382a36.307,36.307,0,0,0-.356-6.371,2.761,2.761,0,0,0-.754-1.839,4.2,4.2,0,0,0-5.038-.228,10.676,10.676,0,0,0-2.152,2.344q-1.337,1.976-2.651,3.966a1.83,1.83,0,0,1-1.647.861q-2.221-.01-4.443-.01c-.3,0-.608,0-.912.016-.282.013-.408.145-.282.455M40.7,65.909a4.327,4.327,0,0,0-4.345,4.362,4.338,4.338,0,0,0,8.676.042,4.3,4.3,0,0,0-4.33-4.4M25.024,88.449c0,1.384,0,2.806,0,4.228a1.351,1.351,0,0,1-.56,1.228.739.739,0,0,0-.345.657c-.042.829-.1,1.656-.14,2.485-.018.38,0,.762,0,1.165a5.139,5.139,0,0,0,.577,0q2.834-.339,5.674-.69V88.581c-1.32,0-2.6.012-3.888-.006-.449-.006-.9-.085-1.312-.127m31.481.113a5.723,5.723,0,0,1-.639.1c-1.38.055-2.76.115-4.141.14-.344.006-.482.058-.48.444.014,2.463.007,4.926,0,7.39,0,.938-.015.916.9,1.012,1.319.137,2.634.313,3.951.465.459.053.92.082,1.358.12,0-1.3.005-2.534-.01-3.764,0-.1-.13-.221-.231-.28a1.31,1.31,0,0,1-.707-1.225c.005-.415,0-.83,0-1.246V88.561M18.9,74.292a3.369,3.369,0,0,0,3.558-3.62,3.506,3.506,0,0,0-3.6-3.454A3.59,3.59,0,0,0,15.3,71.062a3.443,3.443,0,0,0,3.6,3.231m47.328-3.378a3.521,3.521,0,0,0-3.589-3.56,3.588,3.588,0,0,0-3.575,3.685,3.55,3.55,0,0,0,3.592,3.478,3.486,3.486,0,0,0,3.571-3.6M47.553,96.871c.331-.1.629-.195.933-.27.236-.059.284-.2.283-.425,0-2.362.007-4.724,0-7.087,0-.1-.07-.264-.14-.284-.348-.1-.707-.162-1.08-.241Zm-13.669.074V88.581c-.259,0-.494.016-.725,0-.292-.025-.38.09-.378.378q.028,3.544.034,7.088c0,.957.031.987,1.069.9" transform="translate(0 -42.292)" fill="#543f5c"/>
          <path id="Trazado_642101" data-name="Trazado 642101" d="M103.2,7.565c-.2.856-.333,1.734-.611,2.564a5.1,5.1,0,0,1-4.57,3.5c-1.312.173-2.649.158-3.975.213a.665.665,0,0,0-.665.416,15.447,15.447,0,0,0-1.395,4.922,8.731,8.731,0,0,0-.128,1.733,1.22,1.22,0,0,1-1.773,1.112,8.56,8.56,0,0,1-2.59-2.237,12.931,12.931,0,0,1-2.4-4.829c-.252-.9-.24-.9-1.147-.9-2.256,0-4.512-.009-6.768.01a2.7,2.7,0,0,0-.987.228,7.478,7.478,0,0,1-2.926.676c-3.612-.01-7.225,0-10.838-.02-.4,0-.6.1-.693.5a16.291,16.291,0,0,1-3.464,6.4,2.9,2.9,0,0,1-.588.579,1.153,1.153,0,0,1-1.753-.538,4.522,4.522,0,0,1-.234-.921A11.069,11.069,0,0,0,53,15.191a1.775,1.775,0,0,0-.749-.47,6.97,6.97,0,0,1-3.278-2.014,5.632,5.632,0,0,1,.951-8.45,7.2,7.2,0,0,1,4.431-1.4c5.274-.009,10.547-.013,15.821.017a1.762,1.762,0,0,0,1.557-.634A6.393,6.393,0,0,1,76.812.023C81.338.02,85.864,0,90.39,0c1.9,0,3.792.022,5.689.017a6.5,6.5,0,0,1,5.654,2.832,7.263,7.263,0,0,1,1.362,4.691l.11.025M89.561,18.394c.111-.469.207-.8.268-1.138A15.179,15.179,0,0,1,91.7,12.235a1.671,1.671,0,0,1,1.349-.838c.261-.03.525-.035.787-.045,1.119-.042,2.246-.009,3.355-.14A3.4,3.4,0,0,0,100.5,8.2a6.254,6.254,0,0,0,.085-1.445A4.419,4.419,0,0,0,96.01,2.431c-6.1.05-12.208.013-18.312.017a13.445,13.445,0,0,0-1.615.072,12.431,12.431,0,0,0-1.328.3L74.72,3a7.009,7.009,0,0,1,4.336,3.173,5.2,5.2,0,0,1,.109,5.316c.224,0,.37,0,.517,0q2.906-.046,5.812-.091a1.579,1.579,0,0,1,1.621,1.389,12.161,12.161,0,0,0,1.921,4.988c.131.187.3.351.525.621m-31.815.163c.072-.146.093-.2.121-.245a13.457,13.457,0,0,0,1.789-4.783,1.208,1.208,0,0,1,1.11-1.045c.193-.017.387-.014.581-.014q5.959,0,11.917.007a4.319,4.319,0,0,0,2.8-.977A3.274,3.274,0,0,0,76.616,6.9a4,4,0,0,0-3.152-1.51c-6.491-.016-12.983-.005-19.474-.009a4.381,4.381,0,0,0-2.4.69,3.265,3.265,0,0,0-.014,5.644,12.962,12.962,0,0,0,1.785.746,2.787,2.787,0,0,1,.785.409,12,12,0,0,1,2.774,3.845c.265.559.506,1.13.822,1.838" transform="translate(-31.656 0)" fill="#543f5c"/>
          <path id="Trazado_642102" data-name="Trazado 642102" d="M171.537,19.9c-1.48,0-2.96,0-4.44,0a3.034,3.034,0,0,1-.656-.075,1.3,1.3,0,0,1-1.128-1.326,1.538,1.538,0,0,1,1.357-1.251c.1-.008.193,0,.29,0q4.544,0,9.088.005a2.046,2.046,0,0,1,.726.124,1.3,1.3,0,0,1,.883,1.43,1.466,1.466,0,0,1-1.432,1.1c-1.563.01-3.126,0-4.689,0" transform="translate(-110.206 -11.493)" fill="#543f5c"/>
          <path id="Trazado_642103" data-name="Trazado 642103" d="M147.607,20.4c-.539,0-1.079.02-1.617,0a1.238,1.238,0,0,1-1.1-1.781,1.1,1.1,0,0,1,1.034-.648c1.131-.034,2.266-.057,3.4,0a1.214,1.214,0,0,1-.1,2.425c-.538.022-1.078,0-1.617,0Z" transform="translate(-96.514 -11.954)" fill="#543f5c"/>
          <path id="Trazado_642104" data-name="Trazado 642104" d="M93.048,23.219c1.785,0,3.571,0,5.356,0a1.363,1.363,0,0,1,1.407,1.048A1.252,1.252,0,0,1,98.627,25.8c-.48.044-.967.021-1.451.021q-4.65,0-9.3,0a2.614,2.614,0,0,1-.618-.052,1.238,1.238,0,0,1-1-1.414,1.367,1.367,0,0,1,1.387-1.127c1.8-.007,3.6,0,5.4,0" transform="translate(-57.501 -15.478)" fill="#543f5c"/>
          <path id="Trazado_642105" data-name="Trazado 642105" d="M66.262,26.244c-.692,0-1.384.019-2.075-.006a1.421,1.421,0,0,1-1.235-1.158,1.276,1.276,0,0,1,.987-1.255,3.248,3.248,0,0,1,.738-.086c1.065-.009,2.131-.012,3.2,0a3.274,3.274,0,0,1,.856.125,1.1,1.1,0,0,1,.835,1.3A1.212,1.212,0,0,1,68.5,26.22c-.745.036-1.493.009-2.239.009v.015" transform="translate(-41.965 -15.821)" fill="#543f5c"/>
        </g>
      </g>
    </g>
  </g>
</svg>
