<svg xmlns="http://www.w3.org/2000/svg" xmlns:xlink="http://www.w3.org/1999/xlink" width="124" height="124.001" viewBox="0 0 124 124.001">
  <defs>
    <clipPath id="clip-path">
      <rect id="Rectángulo_378056" data-name="Rectángulo 378056" width="114.583" height="114.583" transform="translate(0)" fill="#7edbb4" stroke="#707070" stroke-width="1"/>
    </clipPath>
    <clipPath id="clip-path-2">
      <rect id="Rectángulo_379510" data-name="Rectángulo 379510" width="79" height="79" transform="translate(1178 1172)" fill="#fff" stroke="#707070" stroke-width="1"/>
    </clipPath>
    <clipPath id="clip-path-3">
      <rect id="Rectángulo_379506" data-name="Rectángulo 379506" width="73.245" height="74.043" fill="none"/>
    </clipPath>
    <clipPath id="clip-path-4">
      <path id="Trazado_642355" data-name="Trazado 642355" d="M23.609,37.194V16.819A1.225,1.225,0,0,1,24.831,15.6H40.974a1.22,1.22,0,0,1,.994,1.932l-2.752,3.864,2.752,3.869a1.222,1.222,0,0,1-.994,1.932H26.053v10a1.222,1.222,0,1,1-2.444,0M30.826,0C23.241,0,16.646,2.473,12.232,6.964,8.114,11.166,6,17.013,6.122,23.892c.008.478.025,1.049.085,1.653A5.3,5.3,0,0,1,5.6,28.5c-.736,1.374-2.008,3.771-5.044,9.475A4.809,4.809,0,0,0,0,40.128v.135a4.439,4.439,0,0,0,.6,2.165,4.507,4.507,0,0,0,3.924,2.207l1.852.042.017.271a44.2,44.2,0,0,1,.055,5.716c-.127,3.492.4,5.585,1.772,7.023,1.273,1.323,3.124,1.907,6,1.915h5.513V66.87a3.829,3.829,0,0,0,3.945,3.7H44.724a3.825,3.825,0,0,0,3.941-3.7v-2.9c0-.1-.008-.186-.017-.275V55.755a29.611,29.611,0,0,1,5.12-16.84,24.751,24.751,0,0,0,4.351-14.033C58.118,12.857,50.947,0,30.826,0Z" fill="#fce5e5"/>
    </clipPath>
    <clipPath id="clip-path-5">
      <path id="Trazado_642356" data-name="Trazado 642356" d="M6.806,3.689A1.225,1.225,0,0,0,5.584,4.911V14.06a1.229,1.229,0,0,0,1.222,1.226H22.948a1.222,1.222,0,0,0,.994-1.932L21.19,9.486l2.752-3.864a1.22,1.22,0,0,0-.994-1.932Z" transform="translate(-5.584 -3.689)" fill="#d29de5"/>
    </clipPath>
    <clipPath id="clip-path-6">
      <path id="Trazado_642357" data-name="Trazado 642357" d="M5.584,17.367a1.222,1.222,0,1,0,2.444,0v-10H6.806A1.229,1.229,0,0,1,5.584,6.142Z" transform="translate(-5.584 -6.142)" fill="#543f5c"/>
    </clipPath>
  </defs>
  <g id="Grupo_1075365" data-name="Grupo 1075365" transform="translate(-319 -1148.999)">
    <g id="Grupo_1072817" data-name="Grupo 1072817" transform="translate(54 -4132.583)">
      <g id="Enmascarar_grupo_154435" data-name="Enmascarar grupo 154435" transform="translate(270 5286.583)" clip-path="url(#clip-path)">
        <rect id="Imagen_21" data-name="Imagen 21" width="128.145" height="124.067" transform="translate(-6.537 -2.952)" fill="#7edbb4"/>
      </g>
      <path id="Sustracción_167" data-name="Sustracción 167" d="M112.825,112.826H0V0H112.825V112.825ZM6.468,6.468v99.888h99.887V6.468Z" transform="matrix(-0.995, -0.105, 0.105, -0.995, 377.207, 5405.583)" fill="#fff"/>
    </g>
    <g id="Enmascarar_grupo_1074780" data-name="Enmascarar grupo 1074780" transform="translate(-837)" clip-path="url(#clip-path-2)">
      <g id="Grupo_1075133" data-name="Grupo 1075133" transform="translate(1181 1174)">
        <g id="Grupo_1075126" data-name="Grupo 1075126" transform="translate(0.001 0.005)">
          <g id="Grupo_1075125" data-name="Grupo 1075125" transform="translate(0 0)" clip-path="url(#clip-path-3)">
            <path id="Trazado_642354" data-name="Trazado 642354" d="M2.159,10.832H3.348c-.4-.009-.794-.009-1.2-.018Z" transform="translate(7.61 38.274)" fill="#64737a"/>
          </g>
        </g>
        <g id="Grupo_1075140" data-name="Grupo 1075140" transform="translate(4.988 0.005)">
          <g id="Grupo_1075135" data-name="Grupo 1075135">
            <g id="Grupo_1075134" data-name="Grupo 1075134" clip-path="url(#clip-path-4)">
              <rect id="Rectángulo_379511" data-name="Rectángulo 379511" width="58.118" height="70.565" transform="translate(0 -0.002)" fill="#fce5e5"/>
            </g>
          </g>
          <g id="Grupo_1075137" data-name="Grupo 1075137" transform="translate(23.609 15.597)">
            <g id="Grupo_1075136" data-name="Grupo 1075136" clip-path="url(#clip-path-5)">
              <rect id="Rectángulo_379512" data-name="Rectángulo 379512" width="18.658" height="11.597" transform="translate(0 -0.002)" fill="#d29de5"/>
            </g>
          </g>
          <g id="Grupo_1075139" data-name="Grupo 1075139" transform="translate(23.609 25.968)">
            <g id="Grupo_1075138" data-name="Grupo 1075138" clip-path="url(#clip-path-6)">
              <rect id="Rectángulo_379513" data-name="Rectángulo 379513" width="2.444" height="12.447" transform="translate(0 -0.002)" fill="#543f5c"/>
            </g>
          </g>
        </g>
      </g>
    </g>
  </g>
</svg>
