<svg xmlns="http://www.w3.org/2000/svg" xmlns:xlink="http://www.w3.org/1999/xlink" width="400" height="290" viewBox="0 0 400 290">
  <defs>
    <clipPath id="clip-path">
      <path id="Trazado_642575" data-name="Trazado 642575" d="M-4.226,0h374.06V290H-4.226Z" transform="translate(30.166)" fill="none"/>
    </clipPath>
    <clipPath id="clip-path-2">
      <rect id="Rectángulo_379590" data-name="Rectángulo 379590" width="435" height="290" fill="none"/>
    </clipPath>
    <clipPath id="clip-path-3">
      <rect id="Rectángulo_379549" data-name="Rectángulo 379549" width="13.614" height="10.805" fill="none"/>
    </clipPath>
    <clipPath id="clip-path-4">
      <rect id="Rectángulo_379550" data-name="Rectángulo 379550" width="8.336" height="4.904" fill="none"/>
    </clipPath>
    <clipPath id="clip-path-5">
      <rect id="Rectángulo_379553" data-name="Rectángulo 379553" width="2.354" height="3.746" fill="none"/>
    </clipPath>
    <clipPath id="clip-path-6">
      <rect id="Rectángulo_379556" data-name="Rectángulo 379556" width="18.488" height="10.373" fill="none"/>
    </clipPath>
    <clipPath id="clip-path-7">
      <rect id="Rectángulo_379557" data-name="Rectángulo 379557" width="8.39" height="4.576" fill="none"/>
    </clipPath>
    <clipPath id="clip-path-8">
      <rect id="Rectángulo_379558" data-name="Rectángulo 379558" width="19.063" height="10.944" fill="none"/>
    </clipPath>
    <clipPath id="clip-path-9">
      <rect id="Rectángulo_379559" data-name="Rectángulo 379559" width="2.437" height="8.621" fill="none"/>
    </clipPath>
    <clipPath id="clip-path-10">
      <rect id="Rectángulo_379560" data-name="Rectángulo 379560" width="2.729" height="3.651" fill="none"/>
    </clipPath>
  </defs>
  <g id="Grupo_1075277" data-name="Grupo 1075277" transform="translate(-180 -1976.459)">
    <g id="Image_Place_Holder" data-name="Image Place Holder" transform="translate(180 1994.534)">
      <rect id="Image_Place_Holder-2" data-name="Image Place Holder" width="400" height="271.924" rx="10" fill="#edd8f5"/>
    </g>
    <g id="Grupo_1075202" data-name="Grupo 1075202" transform="translate(180 1976.459)">
      <g id="Enmascarar_grupo_1074781" data-name="Enmascarar grupo 1074781" clip-path="url(#clip-path)">
        <g id="Grupo_1075200" data-name="Grupo 1075200" transform="translate(-15)">
          <g id="Grupo_1075199" data-name="Grupo 1075199" clip-path="url(#clip-path-2)">
            <path id="Trazado_642460" data-name="Trazado 642460" d="M253.716,250.065a23.946,23.946,0,0,0-.13-2.486l4.907-2.256a28.608,28.608,0,0,0-1.412-5.314l-5.376.513a23.423,23.423,0,0,0-2.479-4.3l3.128-4.416a28.838,28.838,0,0,0-3.874-3.889l-4.4,3.14a23.527,23.527,0,0,0-4.289-2.491l.51-5.4a28.272,28.272,0,0,0-5.29-1.42l-2.246,4.929a23.636,23.636,0,0,0-4.954,0l-2.246-4.929a28.3,28.3,0,0,0-5.292,1.42l.51,5.4a23.6,23.6,0,0,0-4.287,2.491l-4.4-3.14a28.678,28.678,0,0,0-3.874,3.889l3.128,4.416a23.538,23.538,0,0,0-2.481,4.3l-5.374-.513a28.542,28.542,0,0,0-1.414,5.314l4.909,2.256a23.913,23.913,0,0,0,0,4.973l-4.909,2.253a28.543,28.543,0,0,0,1.414,5.314l5.374-.513a23.617,23.617,0,0,0,2.481,4.307l-3.128,4.414a28.86,28.86,0,0,0,3.874,3.892l4.4-3.143a23.436,23.436,0,0,0,4.287,2.491l-.51,5.4a28.3,28.3,0,0,0,5.292,1.42l2.246-4.929a23.3,23.3,0,0,0,4.954,0l2.246,4.929a28.276,28.276,0,0,0,5.29-1.42l-.51-5.4a23.367,23.367,0,0,0,4.289-2.491l4.4,3.143a29.023,29.023,0,0,0,3.874-3.892l-3.128-4.414a23.5,23.5,0,0,0,2.479-4.307l5.376.513a28.609,28.609,0,0,0,1.412-5.314l-4.907-2.253a24.018,24.018,0,0,0,.13-2.487M230.29,265.687a15.624,15.624,0,1,1,15.56-15.623,15.593,15.593,0,0,1-15.56,15.623" transform="translate(-14.943 -15.576)" fill="#b285c3"/>
            <path id="Trazado_642461" data-name="Trazado 642461" d="M241.647,251.452a9.9,9.9,0,1,1-9.9-9.937,9.917,9.917,0,0,1,9.9,9.937" transform="translate(-16.405 -16.964)" fill="#b285c3"/>
            <path id="Trazado_642462" data-name="Trazado 642462" d="M120.928,262.747a16.689,16.689,0,0,0-.091-1.731l3.415-1.569a19.884,19.884,0,0,0-.983-3.7l-3.742.357a16.246,16.246,0,0,0-1.725-3l2.177-3.075a20.083,20.083,0,0,0-2.7-2.707l-3.062,2.186a16.288,16.288,0,0,0-2.986-1.734l.356-3.755a19.592,19.592,0,0,0-3.682-.988l-1.563,3.431a16.365,16.365,0,0,0-3.449,0l-1.563-3.431a19.62,19.62,0,0,0-3.683.988l.355,3.755a16.335,16.335,0,0,0-2.984,1.734l-3.062-2.186a19.976,19.976,0,0,0-2.7,2.707l2.177,3.075a16.36,16.36,0,0,0-1.727,3l-3.74-.357a19.888,19.888,0,0,0-.984,3.7l3.417,1.569a16.718,16.718,0,0,0,0,3.461l-3.417,1.569a19.877,19.877,0,0,0,.984,3.7l3.74-.356a16.437,16.437,0,0,0,1.727,3l-2.177,3.073a20.151,20.151,0,0,0,2.7,2.708l3.062-2.188a16.279,16.279,0,0,0,2.984,1.734l-.355,3.755a19.694,19.694,0,0,0,3.683.988l1.563-3.431a16.2,16.2,0,0,0,3.449,0l1.563,3.431a19.665,19.665,0,0,0,3.682-.988l-.356-3.755a16.233,16.233,0,0,0,2.986-1.734l3.062,2.188a20.261,20.261,0,0,0,2.7-2.708l-2.177-3.073a16.322,16.322,0,0,0,1.725-3l3.742.356a19.873,19.873,0,0,0,.983-3.7l-3.415-1.569a16.713,16.713,0,0,0,.091-1.73M104.622,273.62a10.875,10.875,0,1,1,10.83-10.874,10.853,10.853,0,0,1-10.83,10.874" transform="translate(-6.285 -17.071)" fill="#b285c3"/>
            <path id="Trazado_642463" data-name="Trazado 642463" d="M286.761,201.139a11.74,11.74,0,0,0-.065-1.244l2.454-1.128a14.236,14.236,0,0,0-.706-2.657l-2.689.257a11.68,11.68,0,0,0-1.239-2.153l1.564-2.208a14.427,14.427,0,0,0-1.937-1.945l-2.2,1.57a11.754,11.754,0,0,0-2.145-1.246l.255-2.7a14.126,14.126,0,0,0-2.645-.71l-1.123,2.466a11.825,11.825,0,0,0-2.478,0l-1.122-2.466a14.153,14.153,0,0,0-2.648.71l.256,2.7a11.778,11.778,0,0,0-2.144,1.246l-2.2-1.57a14.319,14.319,0,0,0-1.937,1.945l1.564,2.208a11.793,11.793,0,0,0-1.241,2.153l-2.687-.257a14.308,14.308,0,0,0-.708,2.657l2.456,1.128a11.956,11.956,0,0,0,0,2.487l-2.456,1.127a14.308,14.308,0,0,0,.708,2.657l2.687-.256a11.825,11.825,0,0,0,1.241,2.153l-1.564,2.208a14.487,14.487,0,0,0,1.937,1.946l2.2-1.572a11.671,11.671,0,0,0,2.144,1.246l-.256,2.7a14.155,14.155,0,0,0,2.648.71l1.122-2.465a11.662,11.662,0,0,0,2.478,0l1.123,2.465a14.127,14.127,0,0,0,2.645-.71l-.255-2.7a11.648,11.648,0,0,0,2.145-1.246l2.2,1.572a14.6,14.6,0,0,0,1.937-1.946l-1.564-2.208a11.71,11.71,0,0,0,1.239-2.153l2.689.256a14.236,14.236,0,0,0,.706-2.657l-2.454-1.127a11.748,11.748,0,0,0,.065-1.243m-11.716,7.813a7.814,7.814,0,1,1,7.782-7.813,7.8,7.8,0,0,1-7.782,7.813" transform="translate(-19.295 -13.134)" fill="#b285c3"/>
            <path id="Trazado_642464" data-name="Trazado 642464" d="M284.424,277.661a6.435,6.435,0,1,1-6.435-6.461,6.448,6.448,0,0,1,6.435,6.461" transform="translate(-20.08 -19.05)" fill="#fff"/>
            <rect id="Rectángulo_379546" data-name="Rectángulo 379546" width="0.992" height="25.595" transform="translate(257.412 245.814)" fill="#fff"/>
            <rect id="Rectángulo_379547" data-name="Rectángulo 379547" width="25.493" height="0.996" transform="translate(245.162 258.113)" fill="#fff"/>
            <path id="Trazado_642465" data-name="Trazado 642465" d="M361.875,304.617H32.829a121.034,121.034,0,0,0-20.954.268s9.575-17.97,33.936-17.22S70.389,281,84.252,259.309s35.059-40.643,60.111-23.744,44.8,51.369,91.3,30.279,64.974-7.16,83.434,8.419c18.285,15.434,30.747,7.483,42.218,29.087q.166.312.332.634a2.551,2.551,0,0,1,.232.633" transform="translate(38.125 -16.09)" fill="#b285c3"/>
            <rect id="Rectángulo_379548" data-name="Rectángulo 379548" width="326.791" height="4.546" transform="translate(66.209 285.454)" fill="#3c2355"/>
            <path id="Trazado_642466" data-name="Trazado 642466" d="M347.084,296.676v13.1H370.27s.307-4.316-5.067-6.551-6.906-7.939-6.524-9.944-11.594,3.392-11.594,3.392" transform="translate(-25.665 -20.57)" fill="#3c2355"/>
            <path id="Trazado_642467" data-name="Trazado 642467" d="M357.446,285.04h-14.74l-16.583-95.27-24.567,95.27H288.044c-1.864-10.692,11.881-116.088,15.566-143.907.24-1.81.436-3.29.583-4.394a3.6,3.6,0,0,1,.907-2.136c4.79-17.112,41.291.748,41.291.748a6.091,6.091,0,0,1,.645,1.387,32.335,32.335,0,0,1,1.1,4.394c5.518,28.448,9.311,143.907,9.311,143.907" transform="translate(-21.287 -8.934)" fill="#7e57a4"/>
            <path id="Trazado_642468" data-name="Trazado 642468" d="M356.873,285.687,344.431,136.234l.317-.027L357.189,285.66Z" transform="translate(-25.469 -9.567)" fill="#fff"/>
            <path id="Trazado_642469" data-name="Trazado 642469" d="M325.6,166.754l2.661,25.8-11.512,44.64s.559-16.892,3.323-25.217-.921-15.519,5.528-45.22" transform="translate(-23.422 -11.713)" fill="#6e4e93"/>
            <path id="Trazado_642470" data-name="Trazado 642470" d="M327.622,33.325l4.453,5.867s4.862-9.078,7.011-11.7,2.534-15.108-4.376-14.953c0,0-2.764-11.331-13.052-10.791s-14.357,6.166-12.9,9.326c0,0-3.378,1.156-3.378,5.935S310.95,22.6,310.95,22.6Z" transform="translate(-22.582 -0.122)" fill="#3c2355"/>
            <path id="Trazado_642471" data-name="Trazado 642471" d="M334.747,51.887s-5.629,6.32-6.243,6.836-7.37.617-7.37.617L317.3,54.662V42.536l9.415-8.121L328.5,31.9a27.28,27.28,0,0,0,1.447,4.578c.077.168.154.333.237.489a36.8,36.8,0,0,0,2.77,4.345Z" transform="translate(-23.463 -2.241)" fill="#f7bfb2"/>
            <g id="Grupo_1075177" data-name="Grupo 1075177" transform="translate(293.832 29.658)" opacity="0.51">
              <g id="Grupo_1075176" data-name="Grupo 1075176">
                <g id="Grupo_1075175" data-name="Grupo 1075175" clip-path="url(#clip-path-3)">
                  <path id="Trazado_642472" data-name="Trazado 642472" d="M330.909,38.247c-3.86,5.948-11.5,4.188-13.613,4.289l9.415-8.121L328.5,31.9a24.4,24.4,0,0,0,2.4,6.347" transform="translate(-317.295 -31.899)" fill="#fc9090"/>
                </g>
              </g>
            </g>
            <path id="Trazado_642473" data-name="Trazado 642473" d="M310.409,17.519s-1.126,22.4.409,23.484,13.24,1.626,18.2-6.544l-1.058-3.631s4.765-4.373,3.071-6.475c-1.74-2.158-3.071,1.027-3.94,0s-.973-7.143-1.946-7.657-10.031,4.316-14.74.822" transform="translate(-22.924 -1.17)" fill="#f7bfb2"/>
            <line id="Línea_904" data-name="Línea 904" x2="0.003" transform="translate(312.396 162.029)" fill="#fff"/>
            <path id="Trazado_642474" data-name="Trazado 642474" d="M379.013,207.3H335.908a2.784,2.784,0,0,1-2.778-2.789V176.256a2.784,2.784,0,0,1,2.778-2.789h43.105a2.784,2.784,0,0,1,2.778,2.789v28.258a2.784,2.784,0,0,1-2.778,2.789" transform="translate(-24.634 -12.185)" fill="#3c2355"/>
            <path id="Trazado_642475" data-name="Trazado 642475" d="M377.641,208.334H334.535a2.784,2.784,0,0,1-2.778-2.789V177.286a2.784,2.784,0,0,1,2.778-2.789h43.106a2.784,2.784,0,0,1,2.778,2.789v28.258a2.784,2.784,0,0,1-2.778,2.789" transform="translate(-24.532 -12.257)" fill="#dcd3d8"/>
            <path id="Trazado_642476" data-name="Trazado 642476" d="M361.266,179.533h-7.514a2.784,2.784,0,0,1-2.778-2.789V169.2a2.784,2.784,0,0,1,2.778-2.789h7.514a2.784,2.784,0,0,1,2.778,2.789v7.544a2.785,2.785,0,0,1-2.778,2.789m-5.925-11.527a2.784,2.784,0,0,0-2.778,2.789v4.353a2.784,2.784,0,0,0,2.778,2.789h4.336a2.784,2.784,0,0,0,2.778-2.789v-4.353a2.784,2.784,0,0,0-2.778-2.789Z" transform="translate(-25.953 -11.689)" fill="#dcd3d8"/>
            <path id="Trazado_642477" data-name="Trazado 642477" d="M362.664,153.561c.008.048.013.095.022.143a37.117,37.117,0,0,1,.375,4.184c.3,8.717-.712,10.532-2.245,10.662-1.69.141-6.173.518-5.683-1.807a20.766,20.766,0,0,0,.559-4.353c-.319-.345-.944,1.457-.944,1.457s-.9,3.059-1.678,2.771c-1.007-.373-.373-3.183-.373-3.183a44.914,44.914,0,0,1,2.027-6.922c.594-1.665,1.085-2.928,1.085-2.928s.113-.232.311-.6c1.15-2.107,5.154-8.589,6.543.576" transform="translate(-26.066 -10.451)" fill="#f7bfb2"/>
            <g id="Grupo_1075180" data-name="Grupo 1075180" transform="translate(328.659 142.534)" opacity="0.51">
              <g id="Grupo_1075179" data-name="Grupo 1075179">
                <g id="Grupo_1075178" data-name="Grupo 1075178" clip-path="url(#clip-path-4)">
                  <path id="Trazado_642478" data-name="Trazado 642478" d="M362.863,154.021a37.13,37.13,0,0,1,.376,4.184l-8.336-1.376c.594-1.665,1.085-2.928,1.085-2.928s.112-.232.311-.6Z" transform="translate(-354.903 -153.302)" fill="#fc9090"/>
                </g>
              </g>
            </g>
            <path id="Trazado_642479" data-name="Trazado 642479" d="M299.965,89.471l5.374,40.7H347.1l5.221-40.544,2.774,19.631a7.107,7.107,0,0,1,.286,3.129l-4.244,36.151,7.927,1.422L369.525,112.4a7.109,7.109,0,0,0,.076-3.62c-1.828-7.589-5.083-36.878-7.88-42.893C358.5,58.948,333.284,53.4,333.284,53.4L321.768,58.33l-6.142-2.158s-15.2,6.784-18.118,8.478Z" transform="translate(-22 -3.751)" fill="#daebeb"/>
            <rect id="Rectángulo_379551" data-name="Rectángulo 379551" width="16.429" height="3.237" transform="translate(307.293 72.463)" fill="#fff"/>
            <path id="Trazado_642480" data-name="Trazado 642480" d="M272.306,310.069h28.713l-.615-13.1h-10.44s.921,2.62-6.143,4.47-10.594,4.625-11.515,8.633" transform="translate(-20.136 -20.859)" fill="#3c2355"/>
            <path id="Trazado_642481" data-name="Trazado 642481" d="M353.707,82.078l2.755,9.563-2.3,17.872s-1.175-16.72-.454-27.434" transform="translate(-26.138 -5.765)" fill="#7acbc5"/>
            <path id="Trazado_642482" data-name="Trazado 642482" d="M323,58.718v70.468l3.915-5.619-3.169-64.85Z" transform="translate(-23.884 -4.124)" fill="#b285c3"/>
            <path id="Trazado_642483" data-name="Trazado 642483" d="M322.684,58.8v70.468l-3.915-5.619,3.169-64.85Z" transform="translate(-23.572 -4.13)" fill="#6e4e93"/>
            <path id="Trazado_642484" data-name="Trazado 642484" d="M320.688,62.021l2.172,1.542,2.913-1.542-2.29-3.317Z" transform="translate(-23.714 -4.123)" fill="#6e4e93"/>
            <path id="Trazado_642485" data-name="Trazado 642485" d="M317.1,53.4l5.937,4.933L320.07,62.8l-5.4-5.627Z" transform="translate(-23.269 -3.751)" fill="#fff"/>
            <path id="Trazado_642486" data-name="Trazado 642486" d="M335.222,51.46l-11.516,6.735,2.256,4.467,12.707-8.53Z" transform="translate(-23.937 -3.615)" fill="#fff"/>
            <path id="Trazado_642803" data-name="Trazado 642803" d="M0,0,150.975-.078V.239L0,.318Z" transform="translate(272.087 276.081) rotate(-82.461)" fill="#fff"/>
            <g id="Grupo_1075183" data-name="Grupo 1075183" transform="translate(304.436 23.956)" opacity="0.51">
              <g id="Grupo_1075182" data-name="Grupo 1075182">
                <g id="Grupo_1075181" data-name="Grupo 1075181" clip-path="url(#clip-path-5)">
                  <path id="Trazado_642487" data-name="Trazado 642487" d="M328.745,26.634l.512,2.878s2.2-2.21,1.791-3.34-2.3.462-2.3.462" transform="translate(-328.745 -25.766)" fill="#fc9090"/>
                </g>
              </g>
            </g>
            <path id="Trazado_642488" data-name="Trazado 642488" d="M315.5,16.661c-3.966,0-4.779-1.962-4.82-2.068l.3-.115-.148.058.148-.058c.012.03,1.294,3.03,8.517,1.342l.072.311a17.981,17.981,0,0,1-4.064.531" transform="translate(-22.973 -1.017)" fill="#fff"/>
            <path id="Trazado_642489" data-name="Trazado 642489" d="M316.835,14.79a12.807,12.807,0,0,1-2.2-.166l.062-.313a15.461,15.461,0,0,0,7.624-.814l.112.3a16.022,16.022,0,0,1-5.6,1" transform="translate(-23.266 -0.948)" fill="#fff"/>
            <path id="Trazado_642490" data-name="Trazado 642490" d="M322.918,25.763a1.053,1.053,0,1,1-1.022-1.3,1.189,1.189,0,0,1,1.022,1.3" transform="translate(-23.727 -1.718)" fill="#3c2355"/>
            <path id="Trazado_642491" data-name="Trazado 642491" d="M321.974,26.005a.648.648,0,1,1-.63-.8.731.731,0,0,1,.63.8" transform="translate(-23.716 -1.77)" fill="#f7bfb2"/>
            <path id="Trazado_642492" data-name="Trazado 642492" d="M313.517,25.763a1.053,1.053,0,1,1-1.022-1.3,1.189,1.189,0,0,1,1.022,1.3" transform="translate(-23.032 -1.718)" fill="#3c2355"/>
            <path id="Trazado_642493" data-name="Trazado 642493" d="M312.572,26.005a.648.648,0,1,1-.629-.8.731.731,0,0,1,.629.8" transform="translate(-23.02 -1.77)" fill="#f7bfb2"/>
            <path id="Trazado_642494" data-name="Trazado 642494" d="M320.505,22.462a2.436,2.436,0,0,1,3.532.373" transform="translate(-23.7 -1.537)" fill="#3c2355"/>
            <path id="Trazado_642495" data-name="Trazado 642495" d="M313.465,22.364a1.9,1.9,0,0,0-2.7.48" transform="translate(-22.98 -1.544)" fill="#3c2355"/>
            <path id="Trazado_642496" data-name="Trazado 642496" d="M315.845,25.617s-.151.537-.417,1.331a30.188,30.188,0,0,1-1.116,2.862c-.114.256-.245.5-.379.747a2.306,2.306,0,0,0-.345.684.59.59,0,0,0,.31.548,2.347,2.347,0,0,0,.593.271,6.867,6.867,0,0,0,.974.224c.24.036.379.052.379.052s-.139,0-.382-.014a5.4,5.4,0,0,1-1-.157,2.462,2.462,0,0,1-.64-.257.946.946,0,0,1-.292-.268.614.614,0,0,1-.1-.417,2.313,2.313,0,0,1,.354-.753c.13-.238.247-.488.369-.738.237-.5.455-1.013.65-1.5l.535-1.323.512-1.3" transform="translate(-23.176 -1.799)" fill="#3c2355"/>
            <path id="Trazado_642497" data-name="Trazado 642497" d="M313.421,36.206h6.308s-3.237,4.008-6.308,0" transform="translate(-23.176 -2.543)" fill="#fff"/>
            <path id="Trazado_642498" data-name="Trazado 642498" d="M292.9,65.459,272.558,94.124a6.192,6.192,0,0,1-3.531,2.421l-34.311,8.682v9.712l38.322-3.222a9.72,9.72,0,0,0,6.543-3.338L297.44,87.7Z" transform="translate(-17.356 -4.598)" fill="#daebeb"/>
            <rect id="Rectángulo_379554" data-name="Rectángulo 379554" width="6.275" height="7.813" transform="translate(211.079 101.12)" fill="#f7bfb2"/>
            <path id="Trazado_642499" data-name="Trazado 642499" d="M229.783,110.757H217.071a.719.719,0,0,1-.718-.721v-.556a.719.719,0,0,1,.718-.721h12.712a.719.719,0,0,1,.718.721v.556a.719.719,0,0,1-.718.721" transform="translate(-15.998 -7.64)" fill="#f7bfb2"/>
            <path id="Trazado_642500" data-name="Trazado 642500" d="M228.181,112.905H215.469a.719.719,0,0,1-.718-.721v-.556a.719.719,0,0,1,.718-.721h12.712a.719.719,0,0,1,.718.721v.556a.719.719,0,0,1-.718.721" transform="translate(-15.88 -7.79)" fill="#f7bfb2"/>
            <path id="Trazado_642501" data-name="Trazado 642501" d="M229.783,114.946H217.071a.719.719,0,0,1-.718-.721v-.556a.719.719,0,0,1,.718-.721h12.712a.719.719,0,0,1,.718.721v.556a.719.719,0,0,1-.718.721" transform="translate(-15.998 -7.934)" fill="#f7bfb2"/>
            <path id="Trazado_642502" data-name="Trazado 642502" d="M232.37,117.012H219.658a.719.719,0,0,1-.718-.721v-.556a.719.719,0,0,1,.718-.721H232.37a.719.719,0,0,1,.718.721v.556a.719.719,0,0,1-.718.721" transform="translate(-16.19 -8.079)" fill="#f7bfb2"/>
            <path id="Trazado_642503" data-name="Trazado 642503" d="M224.4,107.5c1.332.693,1.54,1,5.676,1.575s3.823-.508,3.823-.508-.462-1.4-3.338-1.309A13.57,13.57,0,0,1,225,106.1c-1.027-.42-1.9.725-.6,1.4" transform="translate(-16.545 -7.446)" fill="#f7bfb2"/>
            <g id="Grupo_1075186" data-name="Grupo 1075186" transform="translate(198.871 98.56)" opacity="0.35">
              <g id="Grupo_1075185" data-name="Grupo 1075185">
                <g id="Grupo_1075184" data-name="Grupo 1075184" clip-path="url(#clip-path-6)">
                  <rect id="Rectángulo_379555" data-name="Rectángulo 379555" width="6.275" height="7.813" transform="translate(12.208 2.561)" fill="#fc9090"/>
                  <path id="Trazado_642504" data-name="Trazado 642504" d="M229.783,110.757H217.071a.719.719,0,0,1-.718-.721v-.556a.719.719,0,0,1,.718-.721h12.712a.719.719,0,0,1,.718.721v.556a.719.719,0,0,1-.718.721" transform="translate(-214.869 -106.199)" fill="#fc9090"/>
                  <path id="Trazado_642505" data-name="Trazado 642505" d="M228.181,112.905H215.469a.719.719,0,0,1-.718-.721v-.556a.719.719,0,0,1,.718-.721h12.712a.719.719,0,0,1,.718.721v.556a.719.719,0,0,1-.718.721" transform="translate(-214.751 -106.35)" fill="#fc9090"/>
                  <path id="Trazado_642506" data-name="Trazado 642506" d="M229.783,114.946H217.071a.719.719,0,0,1-.718-.721v-.556a.719.719,0,0,1,.718-.721h12.712a.719.719,0,0,1,.718.721v.556a.719.719,0,0,1-.718.721" transform="translate(-214.869 -106.494)" fill="#fc9090"/>
                  <path id="Trazado_642507" data-name="Trazado 642507" d="M232.37,117.012H219.658a.719.719,0,0,1-.718-.721v-.556a.719.719,0,0,1,.718-.721H232.37a.719.719,0,0,1,.718.721v.556a.719.719,0,0,1-.718.721" transform="translate(-215.061 -106.639)" fill="#fc9090"/>
                  <path id="Trazado_642508" data-name="Trazado 642508" d="M224.4,107.5c1.332.693,1.54,1,5.676,1.575s3.823-.508,3.823-.508-.462-1.4-3.338-1.309A13.57,13.57,0,0,1,225,106.1c-1.027-.42-1.9.725-.6,1.4" transform="translate(-215.416 -106.006)" fill="#fc9090"/>
                </g>
              </g>
            </g>
            <path id="Trazado_642509" data-name="Trazado 642509" d="M142.257,295.966v13.1H119.072s-.307-4.316,5.067-6.551,6.907-7.939,6.524-9.944,11.594,3.392,11.594,3.392" transform="translate(-8.805 -20.52)" fill="#3c2355"/>
            <path id="Trazado_642510" data-name="Trazado 642510" d="M208.641,309.359H179.928l.615-13.1h10.44s-.921,2.62,6.143,4.47,10.594,4.625,11.515,8.633" transform="translate(-13.305 -20.81)" fill="#3c2355"/>
            <path id="Trazado_642511" data-name="Trazado 642511" d="M188.112,157.7c-.011.048-.018.094-.029.142a37.315,37.315,0,0,0-.568,4.163c-.7,8.693-.01,9.893,1.515,10.093,1.683.219,5.243,1.091,5.561-.32a11.191,11.191,0,0,0,.079-4.935c.333-.33.875,1.5.875,1.5s.759,3.1,1.549,2.846c1.022-.326.519-3.162.519-3.162a44.8,44.8,0,0,0-1.707-7.009c-.517-1.69-.95-2.975-.95-2.975s-.1-.237-.282-.612c-1.052-2.158-4.754-8.819-6.562.271" transform="translate(-13.846 -10.751)" fill="#f7bfb2"/>
            <g id="Grupo_1075189" data-name="Grupo 1075189" transform="translate(173.67 146.681)" opacity="0.51">
              <g id="Grupo_1075188" data-name="Grupo 1075188">
                <g id="Grupo_1075187" data-name="Grupo 1075187" clip-path="url(#clip-path-7)">
                  <path id="Trazado_642512" data-name="Trazado 642512" d="M188.106,158.177a36.888,36.888,0,0,0-.568,4.163l8.391-.989c-.517-1.69-.95-2.974-.95-2.974s-.1-.238-.282-.613Z" transform="translate(-187.538 -157.763)" fill="#fc9090"/>
                </g>
              </g>
            </g>
            <path id="Trazado_642513" data-name="Trazado 642513" d="M212.364,210.318H169.259a2.784,2.784,0,0,1-2.778-2.789V179.27a2.784,2.784,0,0,1,2.778-2.789h43.105a2.784,2.784,0,0,1,2.778,2.789v28.258a2.784,2.784,0,0,1-2.778,2.789" transform="translate(-12.311 -12.396)" fill="#3c2355"/>
            <path id="Trazado_642514" data-name="Trazado 642514" d="M210.991,211.347H167.886a2.784,2.784,0,0,1-2.778-2.789V180.3a2.784,2.784,0,0,1,2.778-2.789h43.105a2.784,2.784,0,0,1,2.778,2.789v28.258a2.784,2.784,0,0,1-2.778,2.789" transform="translate(-12.209 -12.469)" fill="#dcd3d8"/>
            <path id="Trazado_642515" data-name="Trazado 642515" d="M194.058,182.547h-6.4a3.347,3.347,0,0,1-3.337-3.351v-6.422a3.347,3.347,0,0,1,3.337-3.35h6.4a3.347,3.347,0,0,1,3.337,3.35V179.2a3.347,3.347,0,0,1-3.337,3.351m-6.4-11.527a1.753,1.753,0,0,0-1.747,1.754V179.2a1.753,1.753,0,0,0,1.747,1.755h6.4a1.754,1.754,0,0,0,1.747-1.755v-6.422a1.754,1.754,0,0,0-1.747-1.754Z" transform="translate(-13.63 -11.901)" fill="#dcd3d8"/>
            <path id="Trazado_642516" data-name="Trazado 642516" d="M188.8,285.513H174.539L161.551,217.9l-9.031-47.016-8.828,114.633H129.237q-1.3-12.343-2.266-23.571c-7.741-89.667-.438-127.1,7.849-127.207,0,0,28.6-18.265,37.251,3.43S188.8,285.513,188.8,285.513" transform="translate(-9.146 -8.959)" fill="#ccb67b"/>
            <path id="Trazado_642517" data-name="Trazado 642517" d="M195.162,153.223l-9.25.916L180.545,133.4c0-.017-.009-.033-.013-.048l-5.491-21.224L171.923,94.1l1.449-10.95,3.1-23.435s11.66,2.156,13.312,47.829Z" transform="translate(-12.713 -4.194)" fill="#f1f3f7"/>
            <path id="Trazado_642518" data-name="Trazado 642518" d="M180.084,105.11a64,64,0,0,0,.447,29.645l-5.491-21.224L171.923,95.5l1.449-10.95a21.268,21.268,0,0,1,6.711-4.872s2.16,15.082,0,25.43" transform="translate(-12.713 -5.597)" fill="#7acbc5"/>
            <path id="Trazado_642519" data-name="Trazado 642519" d="M141.143,54.079s-19.858,1.928-22.083,13.207c-1.437,7.289,11.6,65.713,11.6,65.713h41.062s8.222-65.419,2.309-72.744-32.885-6.176-32.885-6.176" transform="translate(-8.796 -3.794)" fill="#fff"/>
            <path id="Trazado_642520" data-name="Trazado 642520" d="M159.876,56.731V127.2l-3.915-5.619,3.169-64.85Z" transform="translate(-11.533 -3.985)" fill="#b285c3"/>
            <path id="Trazado_642521" data-name="Trazado 642521" d="M160.188,56.812v70.468l3.915-5.619-3.17-64.85Z" transform="translate(-11.845 -3.991)" fill="#b285c3"/>
            <path id="Trazado_642522" data-name="Trazado 642522" d="M162.091,60.034l-2.172,1.542-2.912-1.542,2.289-3.317Z" transform="translate(-11.61 -3.984)" fill="#6e4e93"/>
            <path id="Trazado_642523" data-name="Trazado 642523" d="M217.34,110.273l-.019.114-.3,1.858-.3,1.875-.016.1-.286,1.8-.013.076-.3,1.9-3.76-.6-1-.16h0l-1.431-.23,1.214-7.616v-.007l.017-.092.607.1,3.19.513Z" transform="translate(-15.522 -7.676)" fill="#f7bfb2"/>
            <path id="Trazado_642524" data-name="Trazado 642524" d="M214.661,111.858l12.554,2.014a.718.718,0,0,0,.821-.6l.087-.549a.719.719,0,0,0-.595-.825l-12.554-2.014a.717.717,0,0,0-.821.6l-.088.549a.72.72,0,0,0,.6.825" transform="translate(-15.829 -7.718)" fill="#f7bfb2"/>
            <path id="Trazado_642525" data-name="Trazado 642525" d="M215.9,114.232l12.553,2.014a.719.719,0,0,0,.822-.6l.087-.549a.719.719,0,0,0-.595-.825l-12.554-2.014a.717.717,0,0,0-.821.6l-.088.549a.721.721,0,0,0,.6.826" transform="translate(-15.92 -7.885)" fill="#f7bfb2"/>
            <path id="Trazado_642526" data-name="Trazado 642526" d="M214,116l12.553,2.014a.719.719,0,0,0,.822-.6l.087-.549a.719.719,0,0,0-.595-.825l-12.554-2.014a.718.718,0,0,0-.822.6l-.087.549a.72.72,0,0,0,.6.825" transform="translate(-15.78 -8.009)" fill="#f7bfb2"/>
            <path id="Trazado_642527" data-name="Trazado 642527" d="M224.554,118.613a.852.852,0,0,1-.013.16.994.994,0,0,1-1.141.826l-7.242-1.161-3.76-.6-1-.16h0a1,1,0,0,1-.832-.983.968.968,0,0,1,.012-.163.992.992,0,0,1,1.138-.827l.537.086,1.459.233,2.768.443,7.242,1.161a.966.966,0,0,1,.366.137,1,1,0,0,1,.473.849" transform="translate(-15.57 -8.126)" fill="#f7bfb2"/>
            <path id="Trazado_642528" data-name="Trazado 642528" d="M220.786,109.65a8.442,8.442,0,0,1-2.806.632c-.171.009-.359.019-.562.025-.636.022-1.436.022-2.486,0-.327-.007-.623-.02-.9-.038a7.654,7.654,0,0,1-2.145-.37c-.572-.218-.664-.466-.668-.6v-.006a.236.236,0,0,1,.017-.093,1.485,1.485,0,0,1,.559-.517,4.177,4.177,0,0,1,2.942-.248,13.545,13.545,0,0,0,5.673-.265c1.08-.252,1.763,1.017.371,1.48" transform="translate(-15.619 -7.596)" fill="#f7bfb2"/>
            <g id="Grupo_1075192" data-name="Grupo 1075192" transform="translate(194.392 100.541)" opacity="0.31">
              <g id="Grupo_1075191" data-name="Grupo 1075191">
                <g id="Grupo_1075190" data-name="Grupo 1075190" clip-path="url(#clip-path-8)">
                  <path id="Trazado_642529" data-name="Trazado 642529" d="M217.34,110.273l-.019.114-.3,1.858-.3,1.875-.016.1-.286,1.8-.013.076-.3,1.9-3.76-.6-1-.16h0l-1.431-.23,1.214-7.616v-.007l.017-.092.607.1,3.19.513Z" transform="translate(-209.914 -108.217)" fill="#f7bfb2"/>
                  <path id="Trazado_642530" data-name="Trazado 642530" d="M214.661,111.858l12.554,2.014a.718.718,0,0,0,.821-.6l.087-.549a.719.719,0,0,0-.595-.825l-12.554-2.014a.717.717,0,0,0-.821.6l-.088.549a.72.72,0,0,0,.6.825" transform="translate(-210.22 -108.259)" fill="#f7bfb2"/>
                  <path id="Trazado_642531" data-name="Trazado 642531" d="M215.9,114.232l12.553,2.014a.719.719,0,0,0,.822-.6l.087-.549a.719.719,0,0,0-.595-.825l-12.554-2.014a.717.717,0,0,0-.821.6l-.088.549a.721.721,0,0,0,.6.826" transform="translate(-210.312 -108.426)" fill="#f7bfb2"/>
                  <path id="Trazado_642532" data-name="Trazado 642532" d="M214,116l12.553,2.014a.719.719,0,0,0,.822-.6l.087-.549a.719.719,0,0,0-.595-.825l-12.554-2.014a.718.718,0,0,0-.822.6l-.087.549a.72.72,0,0,0,.6.825" transform="translate(-210.171 -108.55)" fill="#f7bfb2"/>
                  <path id="Trazado_642533" data-name="Trazado 642533" d="M224.554,118.613a.852.852,0,0,1-.013.16.994.994,0,0,1-1.141.826l-7.242-1.161-3.76-.6-1-.16h0a1,1,0,0,1-.832-.983.968.968,0,0,1,.012-.163.992.992,0,0,1,1.138-.827l.537.086,1.459.233,2.768.443,7.242,1.161a.966.966,0,0,1,.366.137,1,1,0,0,1,.473.849" transform="translate(-209.962 -108.668)" fill="#f7bfb2"/>
                  <path id="Trazado_642534" data-name="Trazado 642534" d="M220.786,109.65a8.442,8.442,0,0,1-2.806.632c-.171.009-.359.019-.562.025-.636.022-1.436.022-2.486,0-.327-.007-.623-.02-.9-.038a7.654,7.654,0,0,1-2.145-.37c-.572-.218-.664-.466-.668-.6v-.006a.236.236,0,0,1,.017-.093,1.485,1.485,0,0,1,.559-.517,4.177,4.177,0,0,1,2.942-.248,13.545,13.545,0,0,0,5.673-.265c1.08-.252,1.763,1.017.371,1.48" transform="translate(-210.011 -108.137)" fill="#f7bfb2"/>
                </g>
              </g>
            </g>
            <g id="Grupo_1075195" data-name="Grupo 1075195" transform="translate(194.392 101.088)" opacity="0.51">
              <g id="Grupo_1075194" data-name="Grupo 1075194">
                <g id="Grupo_1075193" data-name="Grupo 1075193" clip-path="url(#clip-path-9)">
                  <path id="Trazado_642535" data-name="Trazado 642535" d="M212.351,117.346l-1-.16h0l-1.43-.23,1.214-7.616v-.007a.245.245,0,0,1,.016-.092,1.477,1.477,0,0,1,.559-.517l.048.613.044.6.4,5.36Z" transform="translate(-209.914 -108.725)" fill="#fc9090"/>
                </g>
              </g>
            </g>
            <path id="Trazado_642536" data-name="Trazado 642536" d="M123.977,64.043s6.008-5.974,15.641,2.679c7.277,6.536,18.888,19.932,22.614,24.284a6.346,6.346,0,0,0,2.963,1.942l39.921,12.224-1.059,8.756L159.136,106.8a11.423,11.423,0,0,1-6-2.931l-28.31-26.412s-6.356-6.044-.847-13.415" transform="translate(-9.001 -4.357)" fill="#fff"/>
            <path id="Trazado_642537" data-name="Trazado 642537" d="M206.531,117.238l-44.921-7.128a11.542,11.542,0,0,1-6.085-2.972l.217-.234a11.23,11.23,0,0,0,5.917,2.891l44.922,7.128Z" transform="translate(-11.5 -7.509)" fill="#7acbc5"/>
            <path id="Trazado_642538" data-name="Trazado 642538" d="M205.241,105.316,165.319,93.091a6.5,6.5,0,0,1-3.038-1.991c-3.451-4.031-15.281-17.7-22.6-24.269-9.4-8.445-15.364-2.743-15.423-2.684l-.223-.227c.061-.061,6.226-5.979,15.859,2.673,7.333,6.587,19.174,20.264,22.628,24.3a6.176,6.176,0,0,0,2.89,1.893l39.921,12.226Z" transform="translate(-9.172 -4.347)" fill="#7acbc5"/>
            <path id="Trazado_642539" data-name="Trazado 642539" d="M165.867,20.459s3.664,1.161,5.338-3.262-.588-6.536-.588-6.536,1.4-3.589-3.414-6.033-12.914.238-15.833,4.016c0,0-6.9-2.971-11.188,6.178s2.844,15.218,3.889,18.9,2.816,4.8,2.816,4.8Z" transform="translate(-10.265 -0.259)" fill="#3c2355"/>
            <path id="Trazado_642540" data-name="Trazado 642540" d="M147.181,52.619a29.24,29.24,0,0,0,7.453,2.315c5.412.672,8.095-1.3,8.095-1.3l.367-8.407.345-2.418-1.3-1.282s-.431-.33-1.131-.851c-3.029-2.232-12.226-6.516-12.226-6.516s0,.721.049,1.185c.243,2.326-1.332,5.315-1.332,5.315Z" transform="translate(-10.883 -2.399)" fill="#f7bfb2"/>
            <path id="Trazado_642541" data-name="Trazado 642541" d="M167.9,16.671s2.424,20.163-1.5,22.162-14.115,2.468-17.8-5.9c0,0-4.684-3.348-4.249-6.665.312-2.374,3.456-.586,3.456-.586s.884-4.041,1.3-5.823,11.783,3.283,18.8-3.187" transform="translate(-10.672 -1.171)" fill="#f7bfb2"/>
            <g id="Grupo_1075198" data-name="Grupo 1075198" transform="translate(134.421 25.255)" opacity="0.51">
              <g id="Grupo_1075197" data-name="Grupo 1075197">
                <g id="Grupo_1075196" data-name="Grupo 1075196" clip-path="url(#clip-path-10)">
                  <path id="Trazado_642542" data-name="Trazado 642542" d="M147.884,28.353l-.2,2.46s-3.474-2.48-2.277-3.4,2.478.936,2.478.936" transform="translate(-145.155 -27.163)" fill="#fc9090"/>
                </g>
              </g>
            </g>
            <path id="Trazado_642543" data-name="Trazado 642543" d="M156.963,26.978a1.055,1.055,0,1,0,.794-1.46,1.19,1.19,0,0,0-.794,1.46" transform="translate(-11.605 -1.792)" fill="#3c2355"/>
            <path id="Trazado_642544" data-name="Trazado 642544" d="M157.993,27.056a.649.649,0,1,0,.489-.9.734.734,0,0,0-.489.9" transform="translate(-11.682 -1.837)" fill="#f7bfb2"/>
            <path id="Trazado_642545" data-name="Trazado 642545" d="M165.911,26.1a1.055,1.055,0,1,0,.794-1.46,1.19,1.19,0,0,0-.794,1.46" transform="translate(-12.267 -1.73)" fill="#3c2355"/>
            <path id="Trazado_642546" data-name="Trazado 642546" d="M166.941,26.173a.649.649,0,1,0,.489-.9.732.732,0,0,0-.489.9" transform="translate(-12.344 -1.775)" fill="#f7bfb2"/>
            <path id="Trazado_642547" data-name="Trazado 642547" d="M158.677,23.316s-1.863-1.25-3.428.96" transform="translate(-11.48 -1.613)" fill="#3c2355"/>
            <path id="Trazado_642548" data-name="Trazado 642548" d="M165.334,22.733a1.9,1.9,0,0,1,2.748.021" transform="translate(-12.226 -1.555)" fill="#3c2355"/>
            <path id="Trazado_642549" data-name="Trazado 642549" d="M163.643,26.367s.223.474.594,1.168a28.454,28.454,0,0,0,1.479,2.476c.146.219.307.43.469.633a2.183,2.183,0,0,1,.426.579.557.557,0,0,1-.2.556,2.2,2.2,0,0,1-.507.345,6.251,6.251,0,0,1-.868.36c-.217.073-.342.108-.342.108s.129-.019.352-.073a5.064,5.064,0,0,0,.9-.3,2.355,2.355,0,0,0,.553-.339.887.887,0,0,0,.229-.293.583.583,0,0,0,.031-.4,2.209,2.209,0,0,0-.445-.642c-.157-.2-.306-.414-.457-.626-.3-.427-.58-.867-.836-1.284l-.7-1.142-.677-1.12" transform="translate(-12.101 -1.852)" fill="#3c2355"/>
            <path id="Trazado_642550" data-name="Trazado 642550" d="M167.3,37.049l-5.93,1.005s3.451,3.68,5.93-1.005" transform="translate(-11.933 -2.602)" fill="#fff"/>
            <path id="Trazado_642551" data-name="Trazado 642551" d="M161.625,15.91l-.059-.312a11.26,11.26,0,0,0,8.119-5.558l.289.132a11.569,11.569,0,0,1-8.348,5.738" transform="translate(-11.947 -0.705)" fill="#fff"/>
            <path id="Trazado_642552" data-name="Trazado 642552" d="M157.56,14.517a18.948,18.948,0,0,1-2.085-.118l.035-.317c6.968.765,9.9-2.614,9.925-2.649l.244.205c-.109.13-2.476,2.879-8.12,2.879" transform="translate(-11.497 -0.803)" fill="#fff"/>
            <path id="Trazado_642553" data-name="Trazado 642553" d="M168.8,32.493s-7,.231-8.485,1.376c-2.679,2.069-9.264.046-12.078-10.2l-.476,1.745a36.974,36.974,0,0,1,1.974,9.029c.28,4.443,4,9.819,12.729,9.444,6.873-.3,6.336-11.394,6.336-11.394" transform="translate(-10.926 -1.663)" fill="#3c2355"/>
            <path id="Trazado_642554" data-name="Trazado 642554" d="M168.07,37.021l-5.767.628s2.482,3.1,5.767-.628" transform="translate(-12.002 -2.6)" fill="#fff"/>
            <path id="Trazado_642555" data-name="Trazado 642555" d="M147.142,51.805l11.539,4.369,3.858-3.092,2.577,2.228-3.905,5.03L158.894,56.8l-1.973,4.135-12.3-7.058Z" transform="translate(-10.694 -3.639)" fill="#fff"/>
            <path id="Trazado_642556" data-name="Trazado 642556" d="M163.855,220.425l-9.032-47.015,1.052-9.862s4.939,15.219,5.873,29.9c.6,9.464,2.819,18.6,2.107,26.976" transform="translate(-11.449 -11.488)" fill="#665b3d"/>
            <path id="Trazado_642557" data-name="Trazado 642557" d="M134.04,295.666H129.5q-1.3-12.343-2.265-23.571a43.385,43.385,0,0,1,2.065,9.348c.372,4.872,3.27,6.857,4.741,14.223" transform="translate(-9.408 -19.112)" fill="#67aba6"/>
            <path id="Trazado_642558" data-name="Trazado 642558" d="M130.8,139.6h42.1V136.21H130.967Z" transform="translate(-9.672 -9.568)" fill="#665b3d"/>
            <path id="Trazado_642559" data-name="Trazado 642559" d="M134.73,286.376h-.318c.054-69.448,5.887-145.775,5.946-146.538l.317.025c-.058.762-5.892,77.077-5.945,146.513" transform="translate(-9.939 -9.823)" fill="#fff"/>
            <path id="Trazado_642560" data-name="Trazado 642560" d="M187.471,285.935c-7.225-75.061-18-145.415-18.113-146.117l.315-.048c.107.7,10.889,71.064,18.115,146.135Z" transform="translate(-12.523 -9.818)" fill="#fff"/>
            <path id="Trazado_642561" data-name="Trazado 642561" d="M133.933,132.389,127.91,81.437l.315-.038,6.023,50.954Z" transform="translate(-9.458 -5.718)" fill="#7acbc5"/>
            <rect id="Rectángulo_379561" data-name="Rectángulo 379561" width="28.653" height="7.087" transform="translate(73.928 278.983)" fill="#ead86a"/>
            <rect id="Rectángulo_379562" data-name="Rectángulo 379562" width="0.318" height="5.733" transform="translate(78.22 279.722)" fill="#fff"/>
            <rect id="Rectángulo_379563" data-name="Rectángulo 379563" width="0.318" height="5.733" transform="translate(93.289 279.722)" fill="#fff"/>
            <rect id="Rectángulo_379564" data-name="Rectángulo 379564" width="0.318" height="5.733" transform="translate(96.858 279.722)" fill="#fff"/>
            <rect id="Rectángulo_379565" data-name="Rectángulo 379565" width="28.653" height="7.087" transform="translate(74.194 264.445)" fill="#ead86a"/>
            <rect id="Rectángulo_379566" data-name="Rectángulo 379566" width="0.318" height="5.733" transform="translate(78.485 265.186)" fill="#fff"/>
            <rect id="Rectángulo_379567" data-name="Rectángulo 379567" width="0.318" height="5.733" transform="translate(93.555 265.186)" fill="#fff"/>
            <rect id="Rectángulo_379568" data-name="Rectángulo 379568" width="0.318" height="5.733" transform="translate(97.123 265.186)" fill="#fff"/>
            <rect id="Rectángulo_379569" data-name="Rectángulo 379569" width="28.653" height="0.217" transform="translate(73.928 278.875)" fill="#f79f4f"/>
            <rect id="Rectángulo_379570" data-name="Rectángulo 379570" width="28.653" height="7.087" transform="translate(76.228 271.789)" fill="#ead86a"/>
            <rect id="Rectángulo_379571" data-name="Rectángulo 379571" width="0.318" height="5.733" transform="translate(83.19 272.528)" fill="#fff"/>
            <rect id="Rectángulo_379572" data-name="Rectángulo 379572" width="0.318" height="5.733" transform="translate(86.415 272.528)" fill="#fff"/>
            <rect id="Rectángulo_379573" data-name="Rectángulo 379573" width="0.318" height="5.733" transform="translate(99.157 272.528)" fill="#fff"/>
            <rect id="Rectángulo_379574" data-name="Rectángulo 379574" width="28.653" height="0.217" transform="translate(76.228 271.572)" fill="#f79f4f"/>
            <rect id="Rectángulo_379575" data-name="Rectángulo 379575" width="28.493" height="7.048" transform="translate(352.551 274.071)" fill="#ead86a"/>
            <rect id="Rectángulo_379576" data-name="Rectángulo 379576" width="0.316" height="5.701" transform="translate(359.473 274.807)" fill="#fff"/>
            <rect id="Rectángulo_379577" data-name="Rectángulo 379577" width="0.316" height="5.701" transform="translate(362.68 274.807)" fill="#fff"/>
            <rect id="Rectángulo_379578" data-name="Rectángulo 379578" width="0.316" height="5.701" transform="translate(375.351 274.807)" fill="#fff"/>
            <rect id="Rectángulo_379579" data-name="Rectángulo 379579" width="28.493" height="0.215" transform="translate(352.551 273.856)" fill="#f79f4f"/>
            <rect id="Rectángulo_379580" data-name="Rectángulo 379580" width="28.493" height="7.048" transform="translate(351.049 266.809)" fill="#ead86a"/>
            <rect id="Rectángulo_379581" data-name="Rectángulo 379581" width="0.316" height="5.701" transform="translate(357.971 267.544)" fill="#fff"/>
            <rect id="Rectángulo_379582" data-name="Rectángulo 379582" width="0.316" height="5.701" transform="translate(361.179 267.544)" fill="#fff"/>
            <rect id="Rectángulo_379583" data-name="Rectángulo 379583" width="0.316" height="5.701" transform="translate(373.85 267.544)" fill="#fff"/>
            <rect id="Rectángulo_379584" data-name="Rectángulo 379584" width="28.493" height="0.215" transform="translate(351.049 266.594)" fill="#f79f4f"/>
            <path id="Trazado_642562" data-name="Trazado 642562" d="M108.771,267.867a14.327,14.327,0,1,0-14.326,14.383,14.355,14.355,0,0,0,14.326-14.383" transform="translate(-5.924 -17.805)" fill="#ead86a"/>
            <path id="Trazado_642563" data-name="Trazado 642563" d="M106.46,271.181l-.432-.118A11.389,11.389,0,0,0,95.1,256.689a11.272,11.272,0,0,0-5.892,1.657l-.232-.383a11.768,11.768,0,0,1,17.9,10.1,11.894,11.894,0,0,1-.414,3.12" transform="translate(-6.579 -17.999)" fill="#d6c056"/>
            <path id="Trazado_642564" data-name="Trazado 642564" d="M94.649,280.255a11.832,11.832,0,0,1-9.571-18.708l.363.261a11.343,11.343,0,1,0,18.8,12.67l.379.239a11.71,11.71,0,0,1-9.975,5.538" transform="translate(-6.128 -18.372)" fill="#d6c056"/>
            <path id="Trazado_642565" data-name="Trazado 642565" d="M96.264,276.593H94.539v-1.859a7.346,7.346,0,0,1-3.189-.829l-.12-.063V270.8l.365.3a4.932,4.932,0,0,0,1.446.727,7.278,7.278,0,0,0,1.5.37v-2.8a6.674,6.674,0,0,1-2.745-1.667,3.506,3.506,0,0,1-.8-2.321,3.435,3.435,0,0,1,1.037-2.51,4.242,4.242,0,0,1,2.509-1.171v-1.66h1.725v1.612a6.4,6.4,0,0,1,2.644.614l.115.064v2.9l-.34-.207a6.366,6.366,0,0,0-2.419-.851v2.919a7.065,7.065,0,0,1,2.689,1.591,3.283,3.283,0,0,1,.892,2.311,3.344,3.344,0,0,1-1,2.514,4.54,4.54,0,0,1-2.585,1.121Zm-1.278-.449h.831v-1.884l.2-.023a4.225,4.225,0,0,0,2.523-1.024,2.873,2.873,0,0,0,.858-2.19,2.807,2.807,0,0,0-.771-2,6.843,6.843,0,0,0-2.661-1.529l-.148-.053V263.7l.248.027a6.947,6.947,0,0,1,2.511.752v-1.853a6.688,6.688,0,0,0-2.546-.509l-.213-.01v-1.59h-.831v1.614l-.2.02a3.882,3.882,0,0,0-2.438,1.065,2.962,2.962,0,0,0-.906,2.192,3.07,3.07,0,0,0,.7,2.032,6.607,6.607,0,0,0,2.705,1.591l.145.054v3.6l-.238-.016a7.185,7.185,0,0,1-1.854-.417,6.51,6.51,0,0,1-1.218-.549v1.869a6.94,6.94,0,0,0,3.087.722h.222Zm.831-3.478V269.4l.313.137c.92.4,1.386.943,1.386,1.612,0,.574-.25,1.3-1.442,1.479Zm.447-2.567v2.03a.929.929,0,0,0,.8-.982c0-.408-.264-.753-.8-1.048m-1.278-2.968-.323-.161c-.89-.443-1.341-1.02-1.341-1.714a1.454,1.454,0,0,1,1.4-1.5l.263-.047Zm-.447-2.865a.944.944,0,0,0-.77.99,1.353,1.353,0,0,0,.77,1.131Z" transform="translate(-6.729 -18.268)" fill="#d6c056"/>
            <path id="Trazado_642566" data-name="Trazado 642566" d="M105.229,266.113c-1.973.413-2.306.748-2.717,2.728-.411-1.98-.745-2.315-2.717-2.728,1.972-.413,2.306-.748,2.717-2.728.411,1.98.744,2.315,2.717,2.728" transform="translate(-7.379 -18.501)" fill="#fff"/>
            <path id="Trazado_642567" data-name="Trazado 642567" d="M401.28,291.008c-1.962.41-2.294.743-2.7,2.713-.408-1.97-.74-2.3-2.7-2.713,1.962-.41,2.294-.743,2.7-2.713.408,1.97.74,2.3,2.7,2.713" transform="translate(-29.273 -20.25)" fill="#fff"/>
            <path id="Trazado_642568" data-name="Trazado 642568" d="M92.112,260.768c-.913.191-1.068.346-1.258,1.263-.191-.917-.345-1.072-1.259-1.263.913-.191,1.068-.346,1.259-1.263.19.917.344,1.071,1.258,1.263" transform="translate(-6.625 -18.228)" fill="#fff"/>
            <path id="Trazado_642569" data-name="Trazado 642569" d="M90.3,287.485c-.913.192-1.068.346-1.258,1.263-.191-.917-.345-1.071-1.259-1.263.913-.191,1.068-.346,1.259-1.263.19.917.344,1.072,1.258,1.263" transform="translate(-6.491 -20.105)" fill="#fff"/>
            <rect id="Rectángulo_379585" data-name="Rectángulo 379585" width="28.493" height="0.215" transform="translate(350.053 281.119)" fill="#f79f4f"/>
            <rect id="Rectángulo_379586" data-name="Rectángulo 379586" width="28.493" height="7.048" transform="translate(350.053 281.334)" fill="#ead86a"/>
            <rect id="Rectángulo_379587" data-name="Rectángulo 379587" width="0.316" height="5.701" transform="translate(354.32 282.069)" fill="#fff"/>
            <rect id="Rectángulo_379588" data-name="Rectángulo 379588" width="0.316" height="5.701" transform="translate(369.305 282.069)" fill="#fff"/>
            <rect id="Rectángulo_379589" data-name="Rectángulo 379589" width="0.316" height="5.701" transform="translate(372.854 282.069)" fill="#fff"/>
            <path id="Trazado_642570" data-name="Trazado 642570" d="M388.126,305.632c-.908.19-1.062.344-1.251,1.256-.189-.912-.343-1.066-1.251-1.256.908-.19,1.062-.344,1.251-1.256.189.912.343,1.066,1.251,1.256" transform="translate(-28.515 -21.38)" fill="#fff"/>
            <path id="Trazado_642571" data-name="Trazado 642571" d="M195.546,34.58a.32.32,0,0,1,.058-.4l6.649-6.14a7.553,7.553,0,0,1-6.752-7.514V7.553A7.547,7.547,0,0,1,203.026,0H234.28A7.547,7.547,0,0,1,241.8,7.553V20.529a7.547,7.547,0,0,1-7.523,7.553H215.672l-19.751,6.638a.317.317,0,0,1-.375-.14M203.026.638a6.909,6.909,0,0,0-6.888,6.916V20.529a6.909,6.909,0,0,0,6.888,6.916.319.319,0,0,1,.215.554l-6.11,5.643,18.389-6.18a.311.311,0,0,1,.1-.017H234.28a6.91,6.91,0,0,0,6.888-6.916V7.553A6.91,6.91,0,0,0,234.28.638Z" transform="translate(-14.457)" fill="#7e57a4"/>
            <path id="Trazado_642572" data-name="Trazado 642572" d="M218.734,15.125a1.636,1.636,0,1,1,1.636,1.643,1.641,1.641,0,0,1-1.636-1.643m.635,0a1,1,0,1,0,1-1.005,1,1,0,0,0-1,1.005" transform="translate(-16.174 -0.947)" fill="#7e57a4"/>
            <path id="Trazado_642573" data-name="Trazado 642573" d="M212.207,15.125a1.637,1.637,0,1,1,1.636,1.643,1.641,1.641,0,0,1-1.636-1.643m.635,0a1,1,0,1,0,1-1.005,1,1,0,0,0-1,1.005" transform="translate(-15.692 -0.947)" fill="#7e57a4"/>
            <path id="Trazado_642574" data-name="Trazado 642574" d="M225.372,15.125a1.637,1.637,0,1,1,1.636,1.643,1.641,1.641,0,0,1-1.636-1.643m.635,0a1,1,0,1,0,1-1.005,1,1,0,0,0-1,1.005" transform="translate(-16.665 -0.947)" fill="#7e57a4"/>
          </g>
        </g>
      </g>
    </g>
  </g>
</svg>
