<svg xmlns="http://www.w3.org/2000/svg" xmlns:xlink="http://www.w3.org/1999/xlink" width="400" height="290" viewBox="0 0 400 290">
  <defs>
    <clipPath id="clip-path">
      <rect id="Rectángulo_379620" data-name="Rectángulo 379620" width="400" height="290" fill="none"/>
    </clipPath>
    <clipPath id="clip-path-3">
      <rect id="Rectángulo_379599" data-name="Rectángulo 379599" width="12.408" height="7.882" fill="none"/>
    </clipPath>
    <clipPath id="clip-path-4">
      <rect id="Rectángulo_379600" data-name="Rectángulo 379600" width="12.209" height="6.895" fill="none"/>
    </clipPath>
    <clipPath id="clip-path-5">
      <rect id="Rectángulo_379601" data-name="Rectángulo 379601" width="7.232" height="4.926" fill="none"/>
    </clipPath>
    <clipPath id="clip-path-6">
      <rect id="Rectángulo_379602" data-name="Rectángulo 379602" width="6.133" height="5.976" fill="none"/>
    </clipPath>
    <clipPath id="clip-path-7">
      <rect id="Rectángulo_379603" data-name="Rectángulo 379603" width="14.353" height="12.486" fill="none"/>
    </clipPath>
    <clipPath id="clip-path-8">
      <rect id="Rectángulo_379604" data-name="Rectángulo 379604" width="2.712" height="3.996" fill="none"/>
    </clipPath>
    <clipPath id="clip-path-9">
      <rect id="Rectángulo_379605" data-name="Rectángulo 379605" width="6.199" height="4.667" fill="none"/>
    </clipPath>
    <clipPath id="clip-path-10">
      <rect id="Rectángulo_379609" data-name="Rectángulo 379609" width="3.546" height="6.031" fill="none"/>
    </clipPath>
    <clipPath id="clip-path-13">
      <rect id="Rectángulo_379612" data-name="Rectángulo 379612" width="19.266" height="15.166" fill="none"/>
    </clipPath>
    <clipPath id="clip-path-14">
      <rect id="Rectángulo_379613" data-name="Rectángulo 379613" width="21.684" height="20.61" fill="none"/>
    </clipPath>
    <clipPath id="clip-path-15">
      <rect id="Rectángulo_379614" data-name="Rectángulo 379614" width="6.049" height="7.705" fill="none"/>
    </clipPath>
    <clipPath id="clip-path-16">
      <rect id="Rectángulo_379615" data-name="Rectángulo 379615" width="11.94" height="13.675" fill="none"/>
    </clipPath>
    <clipPath id="clip-path-17">
      <rect id="Rectángulo_379616" data-name="Rectángulo 379616" width="2.097" height="4.965" fill="none"/>
    </clipPath>
    <clipPath id="clip-path-18">
      <rect id="Rectángulo_379617" data-name="Rectángulo 379617" width="6.597" height="6.355" fill="none"/>
    </clipPath>
  </defs>
  <g id="Grupo_1075275" data-name="Grupo 1075275" transform="translate(-1020 -1974.913)">
    <g id="Grupo_1072822" data-name="Grupo 1072822" transform="translate(1020 1994.534)">
      <g id="Image_Place_Holder" data-name="Image Place Holder" transform="translate(0 0)">
        <rect id="Image_Place_Holder-2" data-name="Image Place Holder" width="400" height="270.307" rx="10" fill="#edd8f5"/>
      </g>
    </g>
    <g id="Grupo_1075254" data-name="Grupo 1075254" transform="translate(1020 1974.913)">
      <g id="Grupo_1075253" data-name="Grupo 1075253" clip-path="url(#clip-path)">
        <path id="Trazado_642576" data-name="Trazado 642576" d="M172.882,120.621h-95.3l-3.663-6.544h95.3Z" transform="translate(-7.322 -8.05)" fill="#e1eaea"/>
        <path id="Trazado_642577" data-name="Trazado 642577" d="M172.882,109.284h-95.3l-3.663-6.544h95.3Z" transform="translate(-7.322 -7.25)" fill="#b285c3"/>
        <path id="Trazado_642578" data-name="Trazado 642578" d="M172.882,97.947h-95.3L73.922,91.4h95.3Z" transform="translate(-7.322 -6.45)" fill="#b285c3"/>
        <path id="Trazado_642579" data-name="Trazado 642579" d="M172.882,86.611h-95.3l-3.663-6.544h95.3Z" transform="translate(-7.322 -5.65)" fill="#b285c3"/>
        <path id="Trazado_642580" data-name="Trazado 642580" d="M172.882,75.274h-95.3L73.922,68.73h95.3Z" transform="translate(-7.322 -4.85)" fill="#b285c3"/>
        <path id="Trazado_642581" data-name="Trazado 642581" d="M172.882,63.937h-95.3l-3.663-6.544h95.3Z" transform="translate(-7.322 -4.05)" fill="#b285c3"/>
        <path id="Trazado_642582" data-name="Trazado 642582" d="M172.882,52.6h-95.3l-3.663-6.544h95.3Z" transform="translate(-7.322 -3.25)" fill="#b285c3"/>
        <path id="Trazado_642583" data-name="Trazado 642583" d="M172.882,41.264h-95.3L73.922,34.72h95.3Z" transform="translate(-7.322 -2.45)" fill="#b285c3"/>
        <path id="Trazado_642584" data-name="Trazado 642584" d="M172.882,29.927h-95.3l-3.663-6.544h95.3Z" transform="translate(-7.322 -1.65)" fill="#b285c3"/>
        <path id="Trazado_642585" data-name="Trazado 642585" d="M172.882,18.59h-95.3l-3.663-6.544h95.3Z" transform="translate(-7.322 -0.85)" fill="#b285c3"/>
        <path id="Trazado_642586" data-name="Trazado 642586" d="M172.882,7.253h-95.3L73.922.709h95.3Z" transform="translate(-7.322 -0.05)" fill="#b285c3"/>
        <rect id="Rectángulo_379591" data-name="Rectángulo 379591" width="0.748" height="99.85" transform="translate(61.704 0.659)" fill="#e1eaea"/>
        <rect id="Rectángulo_379592" data-name="Rectángulo 379592" width="1.753" height="9.106" transform="translate(61.201 101.109)" fill="#e1eaea"/>
        <g id="Grupo_1075252" data-name="Grupo 1075252">
          <g id="Grupo_1075251" data-name="Grupo 1075251" clip-path="url(#clip-path)">
            <path id="Trazado_642587" data-name="Trazado 642587" d="M215.295,61.588c-14.243,0-25.831-11.953-25.831-26.648S201.052,8.292,215.295,8.292s25.831,11.954,25.831,26.648-11.588,26.648-25.831,26.648m0-52.019C201.734,9.568,190.7,20.95,190.7,34.94s11.033,25.373,24.594,25.373,24.594-11.382,24.594-25.373S228.856,9.568,215.295,9.568" transform="translate(-18.767 -0.585)" fill="#daebeb"/>
            <path id="Trazado_642588" data-name="Trazado 642588" d="M220.9,48.989h-.59V48.46a12.46,12.46,0,0,1,2.214-7.061,6.246,6.246,0,0,0,1.089-3.545,6.085,6.085,0,0,0-5.89-6.153,5.85,5.85,0,0,0-4.242,1.76,6.286,6.286,0,0,0-.732,7.9,12.873,12.873,0,0,1,2.237,7.219v.4h-.591v-.4a12.25,12.25,0,0,0-2.131-6.871,6.912,6.912,0,0,1,.8-8.687,6.411,6.411,0,0,1,4.58-1.934h.082a6.688,6.688,0,0,1,6.473,6.763,6.862,6.862,0,0,1-1.2,3.9,11.844,11.844,0,0,0-2.106,6.71Z" transform="translate(-20.91 -2.194)" fill="#ead86a"/>
            <rect id="Rectángulo_379593" data-name="Rectángulo 379593" width="0.59" height="10.097" transform="translate(195.859 36.674)" fill="#ead86a"/>
            <path id="Trazado_642589" data-name="Trazado 642589" d="M216.557,39.753h0a1.617,1.617,0,0,1-1.69-1.306,1.276,1.276,0,0,1,.879-1.432,1.567,1.567,0,0,1,.506-.091c1.145,0,1.468,1.478,1.478,2.351l0,.218-.2.072a2.856,2.856,0,0,1-.977.187m-.3-2.22a1,1,0,0,0-.32.06.658.658,0,0,0-.483.757,1.023,1.023,0,0,0,1.107.795,2.16,2.16,0,0,0,.569-.084c-.045-.472-.217-1.528-.873-1.528" transform="translate(-21.282 -2.606)" fill="#ead86a"/>
            <rect id="Rectángulo_379594" data-name="Rectángulo 379594" width="0.59" height="10.097" transform="translate(197.027 36.674)" fill="#ead86a"/>
            <path id="Trazado_642590" data-name="Trazado 642590" d="M219.862,39.753a2.871,2.871,0,0,1-.976-.186l-.2-.073,0-.218c.01-.874.332-2.352,1.478-2.352a1.545,1.545,0,0,1,.506.092,1.273,1.273,0,0,1,.879,1.431,1.617,1.617,0,0,1-1.69,1.306m-.568-.692a2.122,2.122,0,0,0,.568.084,1.022,1.022,0,0,0,1.107-.795.659.659,0,0,0-.483-.757.992.992,0,0,0-.32-.059c-.659,0-.83,1.055-.873,1.527" transform="translate(-21.662 -2.606)" fill="#ead86a"/>
            <path id="Trazado_642591" data-name="Trazado 642591" d="M217.8,39.447l-.212-.569a.976.976,0,0,0,.3-.31,3.489,3.489,0,0,1-.406-1.737c.013-.584.179-1.287.612-1.509a.619.619,0,0,1,.682.082,1.4,1.4,0,0,1,.436,1.415,5.022,5.022,0,0,1-.612,1.736,1.534,1.534,0,0,0,.41.342l-.286.533a2.126,2.126,0,0,1-.468-.364,1.251,1.251,0,0,1-.451.382m.56-3.582-.008,0c-.107.055-.272.4-.285.977a3.028,3.028,0,0,0,.178,1.1,4.025,4.025,0,0,0,.376-1.2c.037-.291.032-.673-.2-.842a.157.157,0,0,0-.066-.033" transform="translate(-21.542 -2.488)" fill="#ead86a"/>
            <rect id="Rectángulo_379595" data-name="Rectángulo 379595" width="0.573" height="6.565" transform="translate(196.451 18.015)" fill="#ead86a"/>
            <path id="Trazado_642734" data-name="Trazado 642734" d="M.011.117,6.5.019,6.488.6,0,.7Z" transform="translate(200.719 25.938) rotate(-51.451)" fill="#ead86a"/>
            <path id="Trazado_642735" data-name="Trazado 642735" d="M.011.117,6.5.019,6.488.6,0,.7Z" transform="translate(200.719 25.938) rotate(-51.451)" fill="#ead86a"/>
            <path id="Trazado_642736" data-name="Trazado 642736" d="M.117.011.7,0,.6,6.488.019,6.5Z" transform="translate(188.155 21.3) rotate(-38.549)" fill="#ead86a"/>
            <path id="Trazado_642592" data-name="Trazado 642592" d="M220.823,51.855h-5.7a.734.734,0,0,1-.722-.744V50.96a.734.734,0,0,1,.722-.744h5.7a.734.734,0,0,1,.722.744v.151a.734.734,0,0,1-.722.744m-5.7-1.32a.42.42,0,0,0-.413.426v.151a.42.42,0,0,0,.413.425h5.7a.419.419,0,0,0,.412-.425V50.96a.419.419,0,0,0-.412-.426Z" transform="translate(-21.238 -3.544)" fill="#3c2355"/>
            <path id="Trazado_642593" data-name="Trazado 642593" d="M220.907,53.276h-5.7a.734.734,0,0,1-.721-.744V52.38a.734.734,0,0,1,.721-.744h5.7a.734.734,0,0,1,.721.744v.151a.734.734,0,0,1-.721.744m-5.7-1.321a.419.419,0,0,0-.412.426v.151a.419.419,0,0,0,.412.425h5.7a.419.419,0,0,0,.412-.425V52.38a.419.419,0,0,0-.412-.426Z" transform="translate(-21.246 -3.644)" fill="#3c2355"/>
            <path id="Trazado_642594" data-name="Trazado 642594" d="M220.907,54.7h-5.7a.733.733,0,0,1-.721-.744V53.8a.733.733,0,0,1,.721-.744h5.7a.733.733,0,0,1,.721.744v.151a.733.733,0,0,1-.721.744m-5.7-1.32a.419.419,0,0,0-.412.425v.151a.419.419,0,0,0,.412.425h5.7a.419.419,0,0,0,.412-.425V53.8a.419.419,0,0,0-.412-.425Z" transform="translate(-21.246 -3.744)" fill="#3c2355"/>
            <path id="Trazado_642595" data-name="Trazado 642595" d="M205.886,281.466v13.916l-11.633-2.567-.223-4.454-.073-1.433-.182-3.568-.1-1.894Z" transform="translate(-19.185 -19.862)" fill="#f7bfb2"/>
            <path id="Trazado_642596" data-name="Trazado 642596" d="M194.287,292.759l-.609,15.575h34.988s-2.054-6.294-8.29-6.294c-4.711,0-14.048-2.7-14.49-9.281Z" transform="translate(-19.185 -20.659)" fill="#3c2355"/>
            <path id="Trazado_642597" data-name="Trazado 642597" d="M165.894,278.863l-.607,6.708-.339,3.741-.307,3.406-11.35-3.672v-.019l.2-4.865.039-1.008.143-3.568.073-1.9Z" transform="translate(-15.184 -19.595)" fill="#f7bfb2"/>
            <path id="Trazado_642598" data-name="Trazado 642598" d="M153.192,289l-2.01,15.449,34.837,3.356s-1.478-6.464-7.686-7.062c-4.692-.453-13.744-4.036-13.592-10.631Z" transform="translate(-14.975 -20.393)" fill="#3c2355"/>
            <g id="Grupo_1075205" data-name="Grupo 1075205" transform="translate(138.302 258.094)" opacity="0.41">
              <g id="Grupo_1075204" data-name="Grupo 1075204">
                <g id="Grupo_1075203" data-name="Grupo 1075203" clip-path="url(#clip-path-3)">
                  <path id="Trazado_642599" data-name="Trazado 642599" d="M153.763,277.689l12.153,1.174-.607,6.708-11.8-1.408.039-1.008.143-3.568Z" transform="translate(-153.508 -277.689)" fill="#fc9090"/>
                </g>
              </g>
            </g>
            <g id="Grupo_1075208" data-name="Grupo 1075208" transform="translate(174.492 261.604)" opacity="0.41">
              <g id="Grupo_1075207" data-name="Grupo 1075207">
                <g id="Grupo_1075206" data-name="Grupo 1075206" clip-path="url(#clip-path-4)">
                  <path id="Trazado_642600" data-name="Trazado 642600" d="M205.886,281.952v5.739l-11.856.67-.073-1.433-.182-3.568-.1-1.894h6.631Z" transform="translate(-193.677 -281.466)" fill="#fc9090"/>
                </g>
              </g>
            </g>
            <path id="Trazado_642601" data-name="Trazado 642601" d="M167.76,278.879l-14.237-1.372-.232-65.867,17.05-14L176.787,210Z" transform="translate(-15.184 -13.947)" fill="#6e4e93"/>
            <path id="Trazado_642602" data-name="Trazado 642602" d="M155.573,303.452h-1.478l-29.282-79.877h10.775Z" transform="translate(-12.363 -15.777)" fill="#3c2355"/>
            <path id="Trazado_642603" data-name="Trazado 642603" d="M67.143,303.452h1.479L97.9,223.574H87.128Z" transform="translate(-6.651 -15.777)" fill="#3c2355"/>
            <path id="Trazado_642604" data-name="Trazado 642604" d="M139.223,222.578H76.045a4.574,4.574,0,0,1-4.5-4.643v-3.586a4.574,4.574,0,0,1,4.5-4.644h63.178a4.574,4.574,0,0,1,4.5,4.644v3.586a4.574,4.574,0,0,1-4.5,4.643" transform="translate(-7.087 -14.798)" fill="#dcd3d8"/>
            <path id="Trazado_642605" data-name="Trazado 642605" d="M109.473,213.244l-31.3,4.357a7.056,7.056,0,0,1-7.888-6.2l-4.951-37.853c-1.912-14.618,8.026-28.068,22.195-30.041l12.589-1.752a7.054,7.054,0,0,1,7.887,6.2l7.476,57.153a7.2,7.2,0,0,1-6.01,8.136" transform="translate(-6.449 -9.998)" fill="#dcd3d8"/>
            <path id="Trazado_642606" data-name="Trazado 642606" d="M94.536,198.175s6.08,10.113,40.383,10.113h32.8l15.008,71.02h14.135s-1.919-74.892-12.5-85.194c-7.873-7.671-59.4-14.671-59.4-14.671s-23.808,1.029-26.04,6.79-4.383,11.942-4.383,11.942" transform="translate(-9.364 -12.663)" fill="#7e57a4"/>
            <path id="Trazado_642607" data-name="Trazado 642607" d="M182.552,279.329l-14.981-70.894H134.9c-17.746,0-27.8-2.757-33.115-5.068-5.787-2.52-7.336-5.015-7.4-5.12l-.039-.065.024-.072c.022-.062,2.179-6.25,4.386-11.948,2.242-5.789,25.2-6.848,26.177-6.89l.013.319c-.237.01-23.734,1.09-25.9,6.69-2.07,5.347-4.1,11.127-4.354,11.86.594.84,7.823,9.977,40.211,9.977h32.92l.026.125,15.008,71.02Z" transform="translate(-9.345 -12.65)" fill="#fff"/>
            <path id="Trazado_642608" data-name="Trazado 642608" d="M213.8,90.479c-1.455.717-7.3,2.592-10.436,3.579v0c-1.208.378-2.017.627-2.017.627l-5.215-1.833a11.811,11.811,0,0,1,2.227-3.093A6.5,6.5,0,0,1,201.344,88c3.333-.793,7.074-1.585,7.074-1.585s1.442.691,0,1.585a25.823,25.823,0,0,1-3.263,1.634s7.008-1.368,8.642-2.243,2.879-2.859,3.745-2.859-1.728,4.951-3.745,5.945" transform="translate(-19.427 -5.965)" fill="#f7bfb2"/>
            <g id="Grupo_1075211" data-name="Grupo 1075211" transform="translate(176.702 83.797)" opacity="0.41">
              <g id="Grupo_1075210" data-name="Grupo 1075210">
                <g id="Grupo_1075209" data-name="Grupo 1075209" clip-path="url(#clip-path-5)">
                  <path id="Trazado_642609" data-name="Trazado 642609" d="M203.361,94.455v0c-1.207.378-2.017.626-2.017.626l-5.215-1.833a11.811,11.811,0,0,1,2.227-3.093Z" transform="translate(-196.129 -90.159)" fill="#fc9090"/>
                </g>
              </g>
            </g>
            <path id="Trazado_642610" data-name="Trazado 642610" d="M196.526,95.037l-16.921,32.2a8.752,8.752,0,0,1-5.392,4.483,8.45,8.45,0,0,1-6.394-.734l-5.738-3.158-.017-.01-19.66-10.82-7.386-4.064-1.476-.814L136.086,95.5a27.314,27.314,0,0,1,5.888,2.185l.021.011.744.49,25.792,16.973a1.712,1.712,0,0,0,2.23-.436L189.371,90Z" transform="translate(-13.228 -6.351)" fill="#fff"/>
            <path id="Trazado_642611" data-name="Trazado 642611" d="M162.225,128.969l-19.66-10.82-7.385-4.065a36.587,36.587,0,0,1,5.962-7.72,18.752,18.752,0,0,0,7.561,12.123c7.623,5.341,8.4,7.652,13.523,10.482" transform="translate(-13.39 -7.506)" fill="#e0e9e9"/>
            <path id="Trazado_642612" data-name="Trazado 642612" d="M137.761,117.26a65.955,65.955,0,0,1-3.17,15.94c-4.886,13.441-2.324,38.746-2.324,38.746-26.061,5.087-38.511,20.185-38.511,20.185-9.3-9.361-8.673-70.154-2.558-85.215,6.942-17.1,23.852-12.6,23.852-12.6a55.293,55.293,0,0,1,16.394,1.452,27.172,27.172,0,0,1,5.888,2.185l.022.011a8.3,8.3,0,0,1,.74.432s0,.018,0,.058a136.139,136.139,0,0,1-.335,18.809" transform="translate(-8.585 -6.618)" fill="#fff"/>
            <path id="Trazado_642613" data-name="Trazado 642613" d="M139.988,133.607l-.289-.112a64.908,64.908,0,0,0,3.16-15.9,136.812,136.812,0,0,0,.335-18.784c0-.046,0-.068,0-.068h.31a.428.428,0,0,0,0,.044,137.136,137.136,0,0,1-.335,18.84,65.23,65.23,0,0,1-3.179,15.981" transform="translate(-13.838 -6.968)" fill="#7acbc5"/>
            <path id="Trazado_642614" data-name="Trazado 642614" d="M100.134,188.247c-6-19.331-6.047-38.366-5.033-50.928a133.4,133.4,0,0,1,3.676-22.867l.3.088a133.115,133.115,0,0,0-3.666,22.813c-1.011,12.532-.961,31.518,5.02,50.8Z" transform="translate(-9.371 -8.076)" fill="#7acbc5"/>
            <path id="Trazado_642615" data-name="Trazado 642615" d="M186.417,169.345c-.841.209-2.5-1.418-4.286-1.883s-8.907-.112-8.907-.112a25.645,25.645,0,0,1,3.543.81c1.6.522.356,1.541.356,1.541s-3.822.126-7.239.151a5.866,5.866,0,0,1-2.394-.525l-.014-.007a8.167,8.167,0,0,1-1.214-.663,11.982,11.982,0,0,1-2.22-1.9c-.209-.23-.321-.375-.321-.375l.924-.6,3.732-2.43s.708.039,1.8.112c3.187.2,9.637.644,11.263,1,2.185.479,5.822,4.677,4.98,4.882" transform="translate(-16.217 -11.527)" fill="#f7bfb2"/>
            <g id="Grupo_1075214" data-name="Grupo 1075214" transform="translate(147.824 151.823)" opacity="0.41">
              <g id="Grupo_1075213" data-name="Grupo 1075213">
                <g id="Grupo_1075212" data-name="Grupo 1075212" clip-path="url(#clip-path-6)">
                  <path id="Trazado_642616" data-name="Trazado 642616" d="M170.209,163.462l-2.684,5.866-.014-.007-1.214-.663a11.977,11.977,0,0,1-2.22-1.9l.6-.976,3.731-2.43s.708.04,1.8.112" transform="translate(-164.076 -163.35)" fill="#fc9090"/>
                </g>
              </g>
            </g>
            <path id="Trazado_642617" data-name="Trazado 642617" d="M99.075,98.125s8.3-7.211,16.909,10.072c7.187,14.43,12.875,24.594,14.556,27.556a4.266,4.266,0,0,0,1.34,1.443l30.755,20.509-4.362,7.741-38.367-19.222a4.246,4.246,0,0,1-1.691-1.547c-2.886-4.624-14.8-23.752-19.139-31.44-1.844-3.264-5.622-10.784,0-15.114" transform="translate(-9.521 -6.819)" fill="#fff"/>
            <path id="Trazado_642618" data-name="Trazado 642618" d="M158.187,165.578l-38.366-19.223a4.381,4.381,0,0,1-1.753-1.6c-3.409-5.461-14.864-23.87-19.143-31.446-3.994-7.07-3.979-12.225.041-15.322A7.312,7.312,0,0,1,105,96.622c3.981.825,7.717,4.691,11.1,11.492,7.213,14.482,12.962,24.746,14.552,27.547a4.128,4.128,0,0,0,1.291,1.391L162.7,157.559l-.168.269-30.756-20.509a4.457,4.457,0,0,1-1.389-1.5c-1.591-2.8-7.344-13.072-14.56-27.563-3.34-6.7-7-10.515-10.884-11.322a7.143,7.143,0,0,0-5.788,1.3c-3.88,2.989-3.867,8,.034,14.911,4.276,7.57,15.728,25.974,19.136,31.433a4.064,4.064,0,0,0,1.629,1.489l38.366,19.223Z" transform="translate(-9.503 -6.807)" fill="#7acbc5"/>
            <path id="Trazado_642619" data-name="Trazado 642619" d="M139.056,60.729s4.8,1.818,7.023-2.572a5.589,5.589,0,0,0-1.052-7.024s3.6-5.389-.982-8.524S129.2,43.1,125.8,46.662c0,0-6.621-3.936-12.049,5.041s1.063,16.165,1.682,20.114,2.557,5.62,2.557,5.62Z" transform="translate(-11.055 -2.922)" fill="#ead86a"/>
            <path id="Trazado_642620" data-name="Trazado 642620" d="M116.7,92.557a13.963,13.963,0,0,0,6.328,4.027c5.175,1.2,8.7-2.918,8.7-2.918l1.49-8.615.609-2.36-1.105-1.425s-.378-.379-1-.979c-2.911-2.8-11.168-10.434-11.158-6.727a9.566,9.566,0,0,1-1.094,4.833,4.264,4.264,0,0,1-.981,1.242Z" transform="translate(-11.56 -5.121)" fill="#f7bfb2"/>
            <g id="Grupo_1075217" data-name="Grupo 1075217" transform="translate(107.917 67.443)" opacity="0.51">
              <g id="Grupo_1075216" data-name="Grupo 1075216">
                <g id="Grupo_1075215" data-name="Grupo 1075215" clip-path="url(#clip-path-7)">
                  <path id="Trazado_642621" data-name="Trazado 642621" d="M119.782,78.393c3.795,4.606,11.251,6.23,13.744,6.657l.609-2.36c-.341-.717-1.654-1.488-2.1-2.4-2.911-2.8-11.168-10.434-11.158-6.727a9.572,9.572,0,0,1-1.094,4.833" transform="translate(-119.782 -72.564)" fill="#fc9090"/>
                </g>
              </g>
            </g>
            <path id="Trazado_642622" data-name="Trazado 642622" d="M141.764,57.156s-.427,23.8-4.638,25.394-14.091-1.728-16.818-10.877c0,0-4.338-4.058-3.5-7.45.6-2.428,3.564-.182,3.564-.182s1.376-4.09,2-5.892,11.526,4.866,19.391-.993" transform="translate(-11.56 -4.033)" fill="#f7bfb2"/>
            <g id="Grupo_1075220" data-name="Grupo 1075220" transform="translate(105.885 60.556)" opacity="0.51">
              <g id="Grupo_1075219" data-name="Grupo 1075219">
                <g id="Grupo_1075218" data-name="Grupo 1075218" clip-path="url(#clip-path-8)">
                  <path id="Trazado_642623" data-name="Trazado 642623" d="M120.238,66.618l-.5,2.532s-3.218-3-1.9-3.81,2.395,1.278,2.395,1.278" transform="translate(-117.526 -65.154)" fill="#fc9090"/>
                </g>
              </g>
            </g>
            <path id="Trazado_642624" data-name="Trazado 642624" d="M129.475,66.974c.035.754.532,1.341,1.107,1.312a1.244,1.244,0,0,0,.977-1.419c-.037-.754-.532-1.341-1.107-1.311a1.241,1.241,0,0,0-.977,1.418" transform="translate(-12.825 -4.626)" fill="#3c2355"/>
            <path id="Trazado_642625" data-name="Trazado 642625" d="M130.54,67.178c.023.464.328.825.682.808a.765.765,0,0,0,.6-.874c-.023-.464-.327-.825-.682-.807a.764.764,0,0,0-.6.873" transform="translate(-12.93 -4.679)" fill="#f7bfb2"/>
            <path id="Trazado_642626" data-name="Trazado 642626" d="M139.326,66.485c.036.754.532,1.341,1.108,1.312a1.244,1.244,0,0,0,.977-1.419c-.037-.754-.532-1.341-1.108-1.311a1.243,1.243,0,0,0-.977,1.418" transform="translate(-13.801 -4.591)" fill="#3c2355"/>
            <path id="Trazado_642627" data-name="Trazado 642627" d="M140.392,66.689c.023.464.328.825.682.808a.765.765,0,0,0,.6-.874c-.023-.464-.327-.825-.682-.808a.766.766,0,0,0-.6.874" transform="translate(-13.906 -4.644)" fill="#f7bfb2"/>
            <path id="Trazado_642628" data-name="Trazado 642628" d="M131.605,63.391s-1.736-1.528-3.582.575" transform="translate(-12.681 -4.435)" fill="#3c2355"/>
            <path id="Trazado_642629" data-name="Trazado 642629" d="M139.145,62.922a1.9,1.9,0,0,1,2.776.362" transform="translate(-13.783 -4.408)" fill="#3c2355"/>
            <path id="Trazado_642630" data-name="Trazado 642630" d="M136.842,66.46s.18.555.491,1.373.755,1.9,1.281,2.94c.131.261.276.515.425.762a2.487,2.487,0,0,1,.387.7.628.628,0,0,1-.289.589,2.413,2.413,0,0,1-.592.316,6.851,6.851,0,0,1-.981.285c-.242.051-.384.073-.384.073s.143,0,.39-.034a5.338,5.338,0,0,0,1.012-.216,2.462,2.462,0,0,0,.639-.3.982.982,0,0,0,.285-.295.657.657,0,0,0,.086-.444,2.456,2.456,0,0,0-.4-.77c-.145-.243-.277-.5-.414-.754-.268-.512-.514-1.038-.738-1.534s-.432-.96-.613-1.358l-.587-1.331" transform="translate(-13.555 -4.69)" fill="#3c2355"/>
            <path id="Trazado_642631" data-name="Trazado 642631" d="M138.841,77.452l-5.844.3s2.916,4.06,5.844-.3" transform="translate(-13.174 -5.465)" fill="#fff"/>
            <path id="Trazado_642632" data-name="Trazado 642632" d="M136.089,55.251l-.038-.317a12.328,12.328,0,0,0,9.859-7.119l.287.116a12.642,12.642,0,0,1-10.109,7.32" transform="translate(-13.476 -3.374)" fill="#fff"/>
            <path id="Trazado_642633" data-name="Trazado 642633" d="M133.842,53.61a17,17,0,0,1-3.941-.488l.069-.311c6.965,1.659,10.327-1.5,10.36-1.531l.212.232c-.027.027-2.223,2.1-6.7,2.1" transform="translate(-12.867 -3.619)" fill="#fff"/>
            <path id="Trazado_642634" data-name="Trazado 642634" d="M190.578,166.544h47.48a4.321,4.321,0,0,0,3.515-2.472l12.755-28.217c.617-1.365.044-2.472-1.279-2.472h-47.48a4.321,4.321,0,0,0-3.515,2.472L189.3,164.072c-.617,1.365-.044,2.472,1.279,2.472" transform="translate(-18.726 -9.412)" fill="#7e57a4"/>
            <path id="Trazado_642635" data-name="Trazado 642635" d="M198.5,160.239h15.034a1.571,1.571,0,0,0,1.278-.9l9.245-20.454c.224-.5.016-.9-.465-.9H208.556a1.571,1.571,0,0,0-1.278.9l-9.245,20.454c-.224.5-.016.9.465.9" transform="translate(-19.607 -9.737)" fill="#daebeb"/>
            <path id="Trazado_642636" data-name="Trazado 642636" d="M232.137,142.359h18.3a1.178,1.178,0,0,0,.959-.675c.168-.372.012-.674-.349-.674h-18.3a1.179,1.179,0,0,0-.959.674c-.168.373-.013.675.349.675" transform="translate(-22.953 -9.951)" fill="#7acbc5"/>
            <path id="Trazado_642637" data-name="Trazado 642637" d="M230.783,145.261h18.3a1.179,1.179,0,0,0,.959-.674c.168-.373.012-.675-.35-.675h-18.3a1.178,1.178,0,0,0-.959.675c-.168.372-.013.674.349.674" transform="translate(-22.819 -10.155)" fill="#7acbc5"/>
            <path id="Trazado_642638" data-name="Trazado 642638" d="M233.546,139.336h18.3a1.179,1.179,0,0,0,.959-.675c.168-.372.012-.674-.35-.674h-18.3a1.179,1.179,0,0,0-.959.674c-.168.373-.013.675.349.675" transform="translate(-23.093 -9.737)" fill="#7acbc5"/>
            <path id="Trazado_642639" data-name="Trazado 642639" d="M241.343,161.043h-18.3a.549.549,0,0,1-.49-.248.694.694,0,0,1,0-.652l5.537-12.25a1.327,1.327,0,0,1,1.1-.767h18.3a.549.549,0,0,1,.49.248.694.694,0,0,1,0,.652l-5.538,12.25a1.326,1.326,0,0,1-1.1.767m-12.155-13.6a1.03,1.03,0,0,0-.819.582l-5.536,12.25a.38.38,0,0,0-.021.347.258.258,0,0,0,.229.1h18.3a1.029,1.029,0,0,0,.819-.582l5.537-12.25a.388.388,0,0,0,.021-.348.26.26,0,0,0-.23-.1Z" transform="translate(-22.037 -10.382)" fill="#3c2355"/>
            <path id="Trazado_642640" data-name="Trazado 642640" d="M251.831,139.483h-18.3a.549.549,0,0,1-.49-.248.7.7,0,0,1,0-.653,1.328,1.328,0,0,1,1.1-.766h18.3a.549.549,0,0,1,.49.248.694.694,0,0,1,0,.652,1.329,1.329,0,0,1-1.1.767m-17.692-1.349a1.027,1.027,0,0,0-.818.582.38.38,0,0,0-.021.347.258.258,0,0,0,.229.1h18.3a1.029,1.029,0,0,0,.819-.583.383.383,0,0,0,.021-.347.26.26,0,0,0-.23-.1Z" transform="translate(-23.076 -9.725)" fill="#3c2355"/>
            <path id="Trazado_642641" data-name="Trazado 642641" d="M250.421,142.505h-18.3a.549.549,0,0,1-.49-.248.694.694,0,0,1,0-.652,1.327,1.327,0,0,1,1.1-.767h18.3a.548.548,0,0,1,.49.248.7.7,0,0,1,0,.653,1.33,1.33,0,0,1-1.1.766m-17.692-1.349a1.029,1.029,0,0,0-.819.583.38.38,0,0,0-.02.347.259.259,0,0,0,.229.1h18.3a1.03,1.03,0,0,0,.819-.582.383.383,0,0,0,.021-.347.258.258,0,0,0-.23-.1Z" transform="translate(-22.936 -9.938)" fill="#3c2355"/>
            <path id="Trazado_642642" data-name="Trazado 642642" d="M249.068,145.407h-18.3a.549.549,0,0,1-.49-.248.694.694,0,0,1,0-.652,1.327,1.327,0,0,1,1.1-.767h18.3a.548.548,0,0,1,.49.248.692.692,0,0,1,0,.652,1.327,1.327,0,0,1-1.1.767m-17.692-1.349a1.027,1.027,0,0,0-.818.582.379.379,0,0,0-.021.348.259.259,0,0,0,.229.1h18.3a1.027,1.027,0,0,0,.818-.582.383.383,0,0,0,.022-.348.26.26,0,0,0-.23-.1Z" transform="translate(-22.802 -10.143)" fill="#3c2355"/>
            <path id="Trazado_642643" data-name="Trazado 642643" d="M214.894,166.245H193.869a.55.55,0,0,1-.491-.248.694.694,0,0,1,0-.652,1.328,1.328,0,0,1,1.1-.767H215.5a.551.551,0,0,1,.491.248.694.694,0,0,1,0,.652,1.329,1.329,0,0,1-1.1.767M194.479,164.9a1.026,1.026,0,0,0-.818.582.381.381,0,0,0-.023.347.26.26,0,0,0,.231.1h21.024a1.032,1.032,0,0,0,.82-.583.382.382,0,0,0,.019-.347.258.258,0,0,0-.229-.1Z" transform="translate(-19.147 -11.614)" fill="#3c2355"/>
            <path id="Trazado_642644" data-name="Trazado 642644" d="M213.514,160.387H198.481a.683.683,0,0,1-.61-.307.874.874,0,0,1,0-.82l9.246-20.454a1.716,1.716,0,0,1,1.418-.991h15.034a.681.681,0,0,1,.61.307.869.869,0,0,1-.005.819L214.932,159.4a1.716,1.716,0,0,1-1.418.992m-4.975-22.253a1.429,1.429,0,0,0-1.138.807L198.156,159.4a.562.562,0,0,0-.024.514.393.393,0,0,0,.35.158h15.033a1.426,1.426,0,0,0,1.138-.807l9.246-20.454a.561.561,0,0,0,.025-.513.39.39,0,0,0-.35-.159Z" transform="translate(-19.59 -9.725)" fill="#3c2355"/>
            <path id="Trazado_642645" data-name="Trazado 642645" d="M193.25,166.544h47.48a4.321,4.321,0,0,0,3.515-2.472L257,135.855c.617-1.365.044-2.472-1.279-2.472H208.24a4.321,4.321,0,0,0-3.515,2.472l-12.755,28.217c-.617,1.365-.044,2.472,1.279,2.472" transform="translate(-18.991 -9.412)" fill="#dcd3d8"/>
            <path id="Trazado_642646" data-name="Trazado 642646" d="M172.692,172.172h65.255a1.555,1.555,0,0,0,0-3.109H172.692a1.555,1.555,0,0,0,0,3.109" transform="translate(-16.957 -11.93)" fill="#dcd3d8"/>
            <path id="Trazado_642647" data-name="Trazado 642647" d="M249.633,182.582H10.824a3.614,3.614,0,0,1-3.557-3.669v-2.833a3.614,3.614,0,0,1,3.557-3.668H249.633a3.614,3.614,0,0,1,3.557,3.668v2.833a3.614,3.614,0,0,1-3.557,3.669" transform="translate(-0.72 -12.166)" fill="#3c2355"/>
            <path id="Trazado_642648" data-name="Trazado 642648" d="M35.192,300.442h2.33L47.727,180.931H40.7Z" transform="translate(-3.486 -12.768)" fill="#3c2355"/>
            <path id="Trazado_642649" data-name="Trazado 642649" d="M249.574,300.442h-2.33l-10.2-119.511h7.023Z" transform="translate(-23.48 -12.768)" fill="#3c2355"/>
            <path id="Trazado_642650" data-name="Trazado 642650" d="M22.493,272.154S3.422,240.589,10.839,231.663c2.792-3.361,18.6,8.524,4.77-22.384-3.839-8.581.3-11.9,3.839-9.781,3.73,2.231,7.414,6.217,7.772-4.38.7-20.655,6.538-24.188,11.424-19.872C47.721,183.261,29.22,222,37.6,213.928s19.18-8.155,5.4,16.372-1.056,40.1-20.506,41.854" transform="translate(-0.904 -12.252)" fill="#67aba6"/>
            <path id="Trazado_642651" data-name="Trazado 642651" d="M53.818,227.38c4.873-1.8,13.2-2.834,12.148,1.525s-8.451,5.668-8.451,8.5,8.733,1.09,7.536,6.1-13.874,5.42-16.2,7.615-1.056,4.59,4.965,5.462-.105,10.172-15.74,18.817l-14.249.436s-3.287-21,.939-26.664,5.7,2.273,8.663-4.094S46.74,230,53.818,227.38" transform="translate(-2.24 -15.936)" fill="#7acbc5"/>
            <path id="Trazado_642652" data-name="Trazado 642652" d="M35.031,276.508l.423,0c0-.3-.08-30.1,16.988-34.624l-.1-.423c-7.2,1.911-12.483,8.587-15.261,19.307a68.559,68.559,0,0,0-2.045,15.745" transform="translate(-3.47 -17.039)" fill="#7e57a4"/>
            <path id="Trazado_642653" data-name="Trazado 642653" d="M35.454,276.492c.825-12.547,16.622-14.388,16.781-14.405l-.043-.433c-.163.018-16.311,1.9-17.159,14.809Z" transform="translate(-3.47 -18.464)" fill="#7e57a4"/>
            <path id="Trazado_642654" data-name="Trazado 642654" d="M38.968,308.453H21.052L15.7,279.169H44.319Z" transform="translate(-1.555 -19.7)" fill="#e1eaea"/>
            <path id="Trazado_642655" data-name="Trazado 642655" d="M118.287,171.09h7.651l.945-1.924a12.352,12.352,0,0,0,1.26-5.441v-8.02h-12.06v8.02a12.34,12.34,0,0,0,1.26,5.441Z" transform="translate(-11.498 -10.987)" fill="#7acbc5"/>
            <path id="Trazado_642656" data-name="Trazado 642656" d="M111.628,159.846a4.015,4.015,0,1,1,4.013,4.14,4.082,4.082,0,0,1-4.013-4.14m.778,0a3.236,3.236,0,1,0,3.234-3.338,3.29,3.29,0,0,0-3.234,3.338" transform="translate(-11.057 -10.988)" fill="#7acbc5"/>
            <path id="Trazado_642657" data-name="Trazado 642657" d="M231.6,152.724H221.568c-1.089,0-1.657-.919-1.26-2.044a3.155,3.155,0,0,1,2.7-2.044h10.031c1.089,0,1.656.92,1.26,2.044a3.154,3.154,0,0,1-2.7,2.044" transform="translate(-21.81 -10.489)" fill="#fff"/>
            <path id="Trazado_642658" data-name="Trazado 642658" d="M261.887,83.225l-5.215,1.833s-.369-.115-.984-.3c-2.646-.832-9.832-3.1-11.469-3.91-2.014-.99-4.607-5.941-3.745-5.941s2.115,1.981,3.745,2.859,8.642,2.244,8.642,2.244a25.893,25.893,0,0,1-3.263-1.635c-1.441-.893,0-1.585,0-1.585s3.742.793,7.074,1.585a6.741,6.741,0,0,1,3.246,2.02,11.907,11.907,0,0,1,1.969,2.834" transform="translate(-23.803 -5.286)" fill="#f7bfb2"/>
            <g id="Grupo_1075223" data-name="Grupo 1075223" transform="translate(231.885 75.106)" opacity="0.41">
              <g id="Grupo_1075222" data-name="Grupo 1075222">
                <g id="Grupo_1075221" data-name="Grupo 1075221" clip-path="url(#clip-path-9)">
                  <path id="Trazado_642659" data-name="Trazado 642659" d="M263.579,83.642l-5.215,1.833s-.369-.115-.984-.3l4.23-4.364a11.906,11.906,0,0,1,1.969,2.834" transform="translate(-257.38 -80.808)" fill="#fc9090"/>
                </g>
              </g>
            </g>
            <path id="Trazado_642660" data-name="Trazado 642660" d="M354.309,295.244v12.713H376.2s.29-4.188-4.784-6.356-6.521-7.7-6.16-9.647-10.947,3.29-10.947,3.29" transform="translate(-35.096 -20.571)" fill="#3c2355"/>
            <path id="Trazado_642661" data-name="Trazado 642661" d="M276.7,308.261h27.11l-.58-12.713h-9.858s.869,2.543-5.8,4.338-10,4.486-10.873,8.375" transform="translate(-27.408 -20.856)" fill="#3c2355"/>
            <path id="Trazado_642662" data-name="Trazado 642662" d="M360.39,284.6H347.476L331.771,172.621,306.292,284.235H293.378c-.488-43.027,8.824-97.061,14.477-125.708.705-3.568,1.351-6.747,1.916-9.458.8-3.85,1.438-6.759,1.833-8.53.182-.821.314-1.4.384-1.71.042-.183.063-.277.063-.277s38.169-17.085,43.823-.494v0c.035.1.067.205.1.309.021.058.038.119.056.18a65.93,65.93,0,0,1,1.57,10.517c.255,2.707.485,5.782.695,9.156,1.483,23.785,1.951,62.391,2.084,90.684.1,20.57.013,35.686.013,35.686" transform="translate(-29.059 -9.231)" fill="#665b3d"/>
            <path id="Trazado_642663" data-name="Trazado 642663" d="M322.989,142.1a14.971,14.971,0,0,1-11.413,7.709c.8-3.849,1.438-6.758,1.833-8.529Z" transform="translate(-30.863 -9.97)" fill="#67aba6"/>
            <path id="Trazado_642664" data-name="Trazado 642664" d="M334.789,53.185s16.578,1.08,26,10.8,23.907,45.821,23.559,48.024c-.34,2.143-4.969,9.352-33.786,16.2a2.785,2.785,0,0,1-3.292-1.926l-1.451-4.667a2.914,2.914,0,0,1,1.425-3.464l20.874-10.6L353.636,82.89l-1.047,50.183H308.612L305.47,84.162s-11.56,26.272-17.45,26.272c-4.362,0-21.988-18.055-28.4-23.694a2.943,2.943,0,0,1-.4-3.943l2.129-2.866a2.736,2.736,0,0,1,3.7-.69l19.834,12.83s10.471-28.085,19.895-32.046a99.47,99.47,0,0,1,18.15-5.58Z" transform="translate(-25.619 -3.753)" fill="#fff"/>
            <path id="Trazado_642665" data-name="Trazado 642665" d="M362.3,135.29l-.31-.007.108-5.17q-.958.237-1.944.471a2.958,2.958,0,0,1-3.474-2.033l-1.451-4.667a3.1,3.1,0,0,1,1.5-3.655l5.63-2.861.685-32.816,14.848,25.282-.151.076-15.076,7.659-.253,12.137c29.205-7.293,31.205-14.669,31.338-15.507l.3.052c-.107.678-.879,3.151-6.288,6.447-5.562,3.39-14.086,6.527-25.362,9.337Zm.057-17.563-5.487,2.787a2.77,2.77,0,0,0-1.346,3.272l1.451,4.668a2.65,2.65,0,0,0,3.11,1.819q1.031-.245,2.021-.491Zm.978-32.073-.659,31.554,14.78-7.508Z" transform="translate(-35.173 -5.966)" fill="#7acbc5"/>
            <path id="Trazado_642666" data-name="Trazado 642666" d="M360.142,77.591s2.326,10.333,1.628,16.689,1.487,14.36,1.487,14.36l.957-28.388Z" transform="translate(-35.674 -5.475)" fill="#7acbc5"/>
            <path id="Trazado_642667" data-name="Trazado 642667" d="M363.28,149.644c-7.445.573-12.558-7.709-12.558-7.709l10.932-2.989c.021.059.038.119.056.18a65.95,65.95,0,0,1,1.57,10.517" transform="translate(-34.741 -9.805)" fill="#67aba6"/>
            <path id="Trazado_642668" data-name="Trazado 642668" d="M313.409,141.948h45.219l-.614-2.81H314.037Z" transform="translate(-31.045 -9.818)" fill="#7e57a4"/>
            <rect id="Rectángulo_379606" data-name="Rectángulo 379606" width="8.551" height="2.81" transform="translate(298.524 129.32)" fill="#ead86a"/>
            <rect id="Rectángulo_379607" data-name="Rectángulo 379607" width="1.134" height="3.105" transform="translate(288.896 129.32)" fill="#67aba6"/>
            <path id="Trazado_642737" data-name="Trazado 642737" d="M.241.163,32.5.026l-.2,49.052L.039,49.215Z" transform="matrix(0.991, -0.136, 0.136, 0.991, 296.99, 91.201)" fill="#dcd3d8"/>
            <path id="Trazado_642669" data-name="Trazado 642669" d="M361.718,97.057l6.1,45.873-31.946,4.521-6.464-48.624,23.551-3.333.366,2.751Z" transform="translate(-32.629 -6.739)" fill="#fff"/>
            <path id="Trazado_642670" data-name="Trazado 642670" d="M308.441,135.325l-3.1-48.284c-1.772,3.947-11.833,25.795-17.337,25.795-3.351,0-14.193-10.278-22.109-17.782-2.585-2.45-4.817-4.566-6.391-5.95a3.106,3.106,0,0,1-.426-4.161l.245.194a2.78,2.78,0,0,0,.382,3.724c1.578,1.388,3.812,3.5,6.4,5.958,7.88,7.469,18.67,17.7,21.9,17.7,5.725,0,17.195-25.916,17.31-26.178l.254-.578,3.182,49.544Z" transform="translate(-25.602 -5.994)" fill="#7acbc5"/>
            <path id="Trazado_642671" data-name="Trazado 642671" d="M356.11,131.53a4.606,4.606,0,0,1-.052.663,12.9,12.9,0,0,0-2.423.223c-1.078.177-2.146.417-2.708.569a24.5,24.5,0,0,1-13.475.151c-1.5-.415-1.326-1.329-1.326-1.329s-.775-.479-.778-.936c0-.63.7-.864.7-.864s.2-.85,2.5-1.026,7.092.011,7.442-.749-1.093-.781-1.093-.781-2.4-.1-2.276-1.051c.056-.451,2.237-.361,2.237-.361a30.844,30.844,0,0,1,5.665.073c.872.108,1.613.212,2.042.273l.395.061s1.3.209,1.671.306c.011,0,.022,0,.032.007,1.4.415,1.494,3.417,1.449,4.771" transform="translate(-33.218 -8.887)" fill="#f7bfb2"/>
            <g id="Grupo_1075226" data-name="Grupo 1075226" transform="translate(319.346 117.497)" opacity="0.41">
              <g id="Grupo_1075225" data-name="Grupo 1075225">
                <g id="Grupo_1075224" data-name="Grupo 1075224" clip-path="url(#clip-path-10)">
                  <path id="Trazado_642672" data-name="Trazado 642672" d="M358,131.563a4.605,4.605,0,0,1-.052.663,12.905,12.905,0,0,0-2.423.223l-1.071-6.031.395.061s1.3.209,1.671.306Z" transform="translate(-354.457 -126.418)" fill="#fc9090"/>
                </g>
              </g>
            </g>
            <path id="Trazado_642673" data-name="Trazado 642673" d="M343.161,53.185l18.847,29.7,14.485,24.664-20.334,10.33a3.643,3.643,0,0,0-1.781,4.329l1.07,3.444a3.478,3.478,0,0,0,4.115,2.407c28.258-6.807,32.823-13.927,33.16-16.054.349-2.2-14.136-38.3-23.559-48.024s-26-10.8-26-10.8" transform="translate(-33.992 -3.753)" fill="#fff"/>
            <path id="Trazado_642674" data-name="Trazado 642674" d="M316.641,19.315s-4.8,1.818-7.023-2.572a5.589,5.589,0,0,1,1.052-7.024s-3.6-5.389.982-8.524,14.841.487,18.243,4.053c0,0,6.621-3.937,12.049,5.04s-1.063,16.165-1.682,20.115-2.557,5.619-2.557,5.619Z" transform="translate(-30.593 0)" fill="#3c2355"/>
            <path id="Trazado_642675" data-name="Trazado 642675" d="M340.99,51.763a18.385,18.385,0,0,1-6.328,3.406,9.747,9.747,0,0,1-8.471-1.574l-1.723-9.96-.609-2.36,1.105-1.425s.378-.378,1-.978c2.911-2.8,11.168-10.434,11.158-6.728a9.573,9.573,0,0,0,1.094,4.834,4.282,4.282,0,0,0,.981,1.242Z" transform="translate(-32.08 -2.198)" fill="#f7bfb2"/>
            <g id="Grupo_1075229" data-name="Grupo 1075229" transform="translate(291.779 28.952)" opacity="0.51">
              <g id="Grupo_1075228" data-name="Grupo 1075228">
                <g id="Grupo_1075227" data-name="Grupo 1075227" clip-path="url(#clip-path-7)">
                  <path id="Trazado_642676" data-name="Trazado 642676" d="M338.212,36.979c-3.795,4.606-11.251,6.23-13.744,6.657l-.609-2.36c.341-.717,1.654-1.488,2.1-2.4,2.911-2.8,11.168-10.434,11.158-6.728a9.563,9.563,0,0,0,1.094,4.834" transform="translate(-323.859 -31.15)" fill="#fc9090"/>
                </g>
              </g>
            </g>
            <path id="Trazado_642677" data-name="Trazado 642677" d="M315.052,15.741s.427,23.8,4.639,25.394,14.09-1.728,16.816-10.877c0,0,4.338-4.058,3.5-7.45-.6-2.428-3.564-.182-3.564-.182s-1.376-4.09-2-5.892-11.526,4.866-19.39-.993" transform="translate(-31.207 -1.111)" fill="#f7bfb2"/>
            <g id="Grupo_1075232" data-name="Grupo 1075232" transform="translate(305.453 22.065)" opacity="0.51">
              <g id="Grupo_1075231" data-name="Grupo 1075231">
                <g id="Grupo_1075230" data-name="Grupo 1075230" clip-path="url(#clip-path-8)">
                  <path id="Trazado_642678" data-name="Trazado 642678" d="M339.036,25.2l.5,2.532s3.217-3,1.9-3.81-2.395,1.278-2.395,1.278" transform="translate(-339.036 -23.74)" fill="#fc9090"/>
                </g>
              </g>
            </g>
            <path id="Trazado_642679" data-name="Trazado 642679" d="M329.868,25.56c-.037.754-.532,1.341-1.109,1.312a1.244,1.244,0,0,1-.977-1.419c.037-.754.532-1.341,1.108-1.311a1.244,1.244,0,0,1,.978,1.418" transform="translate(-32.468 -1.704)" fill="#3c2355"/>
            <path id="Trazado_642680" data-name="Trazado 642680" d="M328.891,25.764c-.023.464-.328.825-.682.808a.765.765,0,0,1-.6-.874c.023-.464.328-.825.682-.808a.766.766,0,0,1,.6.874" transform="translate(-32.451 -1.756)" fill="#f7bfb2"/>
            <path id="Trazado_642681" data-name="Trazado 642681" d="M320.017,25.071c-.036.754-.532,1.341-1.108,1.312a1.244,1.244,0,0,1-.977-1.419c.037-.754.532-1.341,1.108-1.311a1.243,1.243,0,0,1,.977,1.418" transform="translate(-31.492 -1.669)" fill="#3c2355"/>
            <path id="Trazado_642682" data-name="Trazado 642682" d="M319.039,25.275c-.023.464-.328.825-.682.808a.765.765,0,0,1-.6-.874c.023-.464.328-.825.682-.808a.766.766,0,0,1,.6.874" transform="translate(-31.475 -1.722)" fill="#f7bfb2"/>
            <path id="Trazado_642683" data-name="Trazado 642683" d="M327.573,21.977s1.736-1.528,3.582.575" transform="translate(-32.448 -1.513)" fill="#3c2355"/>
            <path id="Trazado_642684" data-name="Trazado 642684" d="M320.122,21.508a1.9,1.9,0,0,0-2.776.362" transform="translate(-31.435 -1.485)" fill="#3c2355"/>
            <path id="Trazado_642685" data-name="Trazado 642685" d="M322.428,25.046s-.181.555-.492,1.373-.754,1.9-1.281,2.94c-.13.262-.276.515-.424.762a2.442,2.442,0,0,0-.386.7.626.626,0,0,0,.289.589,2.408,2.408,0,0,0,.591.316,6.822,6.822,0,0,0,.982.285c.242.051.383.074.383.074s-.142,0-.389-.035a5.286,5.286,0,0,1-1.013-.216,2.475,2.475,0,0,1-.639-.3.983.983,0,0,1-.285-.295.662.662,0,0,1-.086-.444,2.477,2.477,0,0,1,.4-.77c.144-.243.277-.5.413-.754.268-.512.514-1.037.739-1.534s.432-.96.612-1.358l.587-1.331" transform="translate(-31.665 -1.767)" fill="#3c2355"/>
            <path id="Trazado_642686" data-name="Trazado 642686" d="M320.088,36.037l5.844.3s-2.916,4.06-5.844-.3" transform="translate(-31.706 -2.543)" fill="#fff"/>
            <path id="Trazado_642687" data-name="Trazado 642687" d="M322.368,13.837a12.64,12.64,0,0,1-10.109-7.32l.287-.116a12.33,12.33,0,0,0,9.859,7.12Z" transform="translate(-30.931 -0.452)" fill="#fff"/>
            <path id="Trazado_642688" data-name="Trazado 642688" d="M324.56,12.2c-4.478,0-6.673-2.071-6.7-2.1l.212-.232c.033.033,3.4,3.187,10.36,1.531l.069.311a17,17,0,0,1-3.941.488" transform="translate(-31.485 -0.696)" fill="#fff"/>
            <path id="Trazado_642689" data-name="Trazado 642689" d="M335.238,175.321a.1.1,0,0,0,0-.021l-.583-6.535s-4.234,10.812-4.3,19.5-2.809,11.907-1.7,15.857Z" transform="translate(-32.529 -11.909)" fill="#67aba6"/>
            <path id="Trazado_642690" data-name="Trazado 642690" d="M367.309,293.562H363.3c-.523-5.224,1.57-9,1.745-15.119s2.255-20.566,2.255-20.566c.1,20.57.013,35.686.013,35.686" transform="translate(-35.978 -18.197)" fill="#67aba6"/>
            <path id="Trazado_642691" data-name="Trazado 642691" d="M327.923,60.855l6.4-.225-3.49-5.9Z" transform="translate(-32.482 -3.862)" fill="#daebeb"/>
            <path id="Trazado_642692" data-name="Trazado 642692" d="M324.738,55.3l.939-3.859,4.839,2.947,10.13-4.553,1.486,3.185-8.7,6.3-2.919-4.931-1.571,4.931Z" transform="translate(-32.167 -3.517)" fill="#67aba6"/>
            <path id="Trazado_642693" data-name="Trazado 642693" d="M329.7,78.567l-.308-.02,1.45-23.824.309.02Z" transform="translate(-32.627 -3.862)" fill="#7acbc5"/>
            <path id="Trazado_642694" data-name="Trazado 642694" d="M333.709,63.009a.7.7,0,1,1-.7-.72.71.71,0,0,1,.7.72" transform="translate(-32.917 -4.395)" fill="#7acbc5"/>
            <path id="Trazado_642695" data-name="Trazado 642695" d="M333.419,69.788a.7.7,0,1,1-.7-.72.71.71,0,0,1,.7.72" transform="translate(-32.888 -4.874)" fill="#7acbc5"/>
            <path id="Trazado_642696" data-name="Trazado 642696" d="M332.934,77.173a.7.7,0,1,1-.7-.72.71.71,0,0,1,.7.72" transform="translate(-32.84 -5.395)" fill="#7acbc5"/>
            <path id="Trazado_642697" data-name="Trazado 642697" d="M361.94,285.725c-1.207-48.049-10.765-138.029-10.862-138.932l.307-.035c.1.9,9.656,90.9,10.864,138.959Z" transform="translate(-34.776 -10.356)" fill="#fff"/>
            <path id="Trazado_642698" data-name="Trazado 642698" d="M297.133,284.74l-.307-.036c6.211-56.084,24.714-141.721,24.9-142.58l.3.07c-.186.858-18.685,86.479-24.894,142.546" transform="translate(-29.402 -10.029)" fill="#fff"/>
            <path id="Trazado_642699" data-name="Trazado 642699" d="M374.558,27.557c-.608,0-5.84-1.758-5.84-6.652s4.418-4.017,4.418-4.017-3.445-6.9,7.383-9.413,23.36,3.641,28.1,20.584,17.919,16.694,20.275,34.39-14.678,22.23-14.678,22.23L394.754,56.3Z" transform="translate(-36.523 -0.489)" fill="#ead86a"/>
            <path id="Trazado_642700" data-name="Trazado 642700" d="M412.95,86.782l-.129.515-.493,1.973-3.63,14.524-2.442,9.772-1.441,5.783-.067.259h-30.9s-5.919-20.524-4.872-29.525,3.665-26.23,3.665-26.23l10.907-2.438c6.988-2.759,10.38-2.2,15.388-1.156a36.552,36.552,0,0,1,8.872,2.931,19.149,19.149,0,0,1,4.47,3.01,12.875,12.875,0,0,1,3.239,4.526c3.187,7.622-2.565,16.055-2.565,16.055" transform="translate(-36.536 -4.192)" fill="#7e57a4"/>
            <path id="Trazado_642701" data-name="Trazado 642701" d="M417.1,89.133l-.492,1.973-3.63,14.525c-.75-.188-1.166-1.333-.715-3.569.967-4.8,0-16.645,0-16.645Z" transform="translate(-40.818 -6.028)" fill="#6e4e93"/>
            <path id="Trazado_642702" data-name="Trazado 642702" d="M419.062,292.717v17.939h15.873s-.776-4.962-4.189-7.2c-2.82-1.851-4.172-4.437-3.747-9.885Z" transform="translate(-41.51 -20.656)" fill="#3c2355"/>
            <path id="Trazado_642703" data-name="Trazado 642703" d="M379.507,301.17v10.082H352.821a12.028,12.028,0,0,1,8.624-5.041,12.9,12.9,0,0,0,8.863-5.041Z" transform="translate(-34.948 -21.252)" fill="#3c2355"/>
            <path id="Trazado_642704" data-name="Trazado 642704" d="M386.519,219.987l-.1,1.278-1.144,15.166-4.436,58.719-9.2-.5L368,236.431l-.845-13.513-.879-14.092Z" transform="translate(-36.281 -14.736)" fill="#f7bfb2"/>
            <path id="Trazado_642705" data-name="Trazado 642705" d="M426.487,295.914h-9.238L404.543,237.2l-3.79-17.521v0h20.478l.367,5.3.841,12.224Z" transform="translate(-39.696 -15.501)" fill="#f7bfb2"/>
            <g id="Grupo_1075235" data-name="Grupo 1075235" transform="translate(330.874 206.529)" opacity="0.41">
              <g id="Grupo_1075234" data-name="Grupo 1075234">
                <g id="Grupo_1075233" data-name="Grupo 1075233" clip-path="url(#clip-path-13)">
                  <path id="Trazado_642706" data-name="Trazado 642706" d="M386.518,222.21l-1.145,15.166H368.1l-.844-13.513c4.6.058,10.181.309,10.181.309Z" transform="translate(-367.252 -222.21)" fill="#fc9090"/>
                </g>
              </g>
            </g>
            <g id="Grupo_1075238" data-name="Grupo 1075238" transform="translate(361.058 201.085)" opacity="0.41">
              <g id="Grupo_1075237" data-name="Grupo 1075237">
                <g id="Grupo_1075236" data-name="Grupo 1075236" clip-path="url(#clip-path-14)">
                  <path id="Trazado_642707" data-name="Trazado 642707" d="M422.438,236.962H404.544l-3.79-17.521.014,0,14.3-3.086,2.4,3.086,4.129,5.3Z" transform="translate(-400.754 -216.352)" fill="#fc9090"/>
                </g>
              </g>
            </g>
            <path id="Trazado_642708" data-name="Trazado 642708" d="M375.817,126.879s-11.169,1.5-11.866,101.231h57.588s.132-91.8-18.848-100.5c-5.925-2.718-10.769-2.369-14.631-2.586-8.508-.476-12.243,1.859-12.243,1.859" transform="translate(-36.051 -8.818)" fill="#af6464"/>
            <path id="Trazado_642709" data-name="Trazado 642709" d="M374.394,124.179l.114,5.486,31.657-.455-.868-5.031Z" transform="translate(-37.085 -8.763)" fill="#ead86a"/>
            <path id="Trazado_642710" data-name="Trazado 642710" d="M413.928,133.334l-24.561,5.217a2.706,2.706,0,0,1-3.192-2.169L377.618,93.5a2.789,2.789,0,0,1,2.1-3.294l24.561-5.216a2.707,2.707,0,0,1,3.193,2.168l8.556,42.879a2.787,2.787,0,0,1-2.1,3.293" transform="translate(-37.399 -5.994)" fill="#3c2355"/>
            <path id="Trazado_642711" data-name="Trazado 642711" d="M414.972,132.55l-24.561,5.216a2.7,2.7,0,0,1-3.192-2.168l-8.557-42.878a2.788,2.788,0,0,1,2.1-3.294l24.561-5.216a2.706,2.706,0,0,1,3.192,2.168l8.557,42.879a2.787,2.787,0,0,1-2.1,3.293" transform="translate(-37.503 -5.938)" fill="#dcd3d8"/>
            <path id="Trazado_642712" data-name="Trazado 642712" d="M400.783,115.014l-1.181.251a1.563,1.563,0,0,1-1.843-1.253l-.289-1.445a1.611,1.611,0,0,1,1.214-1.9l1.181-.251a1.563,1.563,0,0,1,1.844,1.253l.288,1.445a1.61,1.61,0,0,1-1.214,1.9" transform="translate(-39.368 -7.789)" fill="#fff"/>
            <path id="Trazado_642713" data-name="Trazado 642713" d="M403.057,100.128a25.482,25.482,0,0,1-10.624,8.555c-.22.1-.517.244-.859.417a25.641,25.641,0,0,0-3.093,1.837,6.408,6.408,0,0,0-.537.425,1.754,1.754,0,0,1-.192-.194c-.667-.742-2.946-3.583-2-4.947.192-.274,1.138-1.343,1.138-1.343s.534-.594,1.306-1.408l.006-.007c.122-.133.255-.27.391-.414a31.864,31.864,0,0,1,4.384-3.7s1.651-1.476,1.969-1.163c.67.666-1.145,2.286-1.145,2.286s-1.113.943-.38,1.314,4.366-2.863,6.269-4.2,2.569-.807,2.569-.807a.975.975,0,0,1,1.071.223c.276.357-.038,1.231-.038,1.231s.691.605-.234,1.894" transform="translate(-38.188 -6.822)" fill="#f7bfb2"/>
            <g id="Grupo_1075241" data-name="Grupo 1075241" transform="translate(347.337 96.64)" opacity="0.41">
              <g id="Grupo_1075240" data-name="Grupo 1075240">
                <g id="Grupo_1075239" data-name="Grupo 1075239" clip-path="url(#clip-path-15)">
                  <path id="Trazado_642714" data-name="Trazado 642714" d="M391.574,109.616a25.562,25.562,0,0,0-3.092,1.837l-.73.231c-.667-.742-2.946-3.583-2-4.947.192-.274,1.138-1.343,1.138-1.343s.534-.594,1.306-1.408l.007-.007Z" transform="translate(-385.525 -103.977)" fill="#fc9090"/>
                </g>
              </g>
            </g>
            <path id="Trazado_642715" data-name="Trazado 642715" d="M387.142,108.887s-25.6,16.461-30.665,16.752-4.537-5.692-4.537-5.692,4.188-29.525,7.155-41.407,11.866-14.348,11.866-14.348-1.881,12.9-2.8,19.508c-.094.684-.181,1.3-.251,1.825a78.483,78.483,0,0,0-.4,12.436l-2.684,11.109v0l-.322,1.332,19.4-9Z" transform="translate(-34.86 -4.53)" fill="#7e57a4"/>
            <path id="Trazado_642716" data-name="Trazado 642716" d="M384.14,45.491l-.082,6.2-.132,8.993c.268,4.268,3.469,4.787,5.562,4.758a12.222,12.222,0,0,0,10.937-6.785l-1.4-15.957a12.341,12.341,0,0,1-3.116-4.684Z" transform="translate(-38.03 -2.683)" fill="#f7bfb2"/>
            <g id="Grupo_1075244" data-name="Grupo 1075244" transform="translate(346.029 35.332)" opacity="0.22" style="mix-blend-mode: multiply;isolation: isolate">
              <g id="Grupo_1075243" data-name="Grupo 1075243">
                <g id="Grupo_1075242" data-name="Grupo 1075242" clip-path="url(#clip-path-16)">
                  <path id="Trazado_642717" data-name="Trazado 642717" d="M384.155,45.491l-.082,6.2c2.651-1.325,13-6.976,11.85-13.675Z" transform="translate(-384.073 -38.015)" fill="#fc9090"/>
                </g>
              </g>
            </g>
            <path id="Trazado_642718" data-name="Trazado 642718" d="M390.669,43.08s-9.527,5.458-13.334,3.168-2.3-21.134-1.471-24.489c0,0,8.022,1.851,13.628-.565,0,0,.1,6.584,2.7,9.419,0,0,1.071-4.075,3.46-2.873s2.781,6.819-.8,9.67a7.693,7.693,0,0,1-4.188,5.67" transform="translate(-37.132 -1.496)" fill="#f7bfb2"/>
            <g id="Grupo_1075247" data-name="Grupo 1075247" transform="translate(356.344 27.424)" opacity="0.22" style="mix-blend-mode: multiply;isolation: isolate">
              <g id="Grupo_1075246" data-name="Grupo 1075246">
                <g id="Grupo_1075245" data-name="Grupo 1075245" clip-path="url(#clip-path-17)">
                  <path id="Trazado_642719" data-name="Trazado 642719" d="M397.232,34.471l-1.711-2.178s.326-3.238,1.514-2.734.2,4.912.2,4.912" transform="translate(-395.522 -29.506)" fill="#fc9090"/>
                </g>
              </g>
            </g>
            <path id="Trazado_642720" data-name="Trazado 642720" d="M378.507,29.569a2,2,0,0,1,.005.362,4.109,4.109,0,0,1-.173.931,5.213,5.213,0,0,1-.214.592c-.086.207-.2.414-.31.63s-.249.427-.4.635-.306.413-.463.618-.332.391-.5.595a2.015,2.015,0,0,0-.378.692.956.956,0,0,0,.086.748,1.634,1.634,0,0,0,.441.481,3.978,3.978,0,0,0,.823.459c.208.089.33.131.33.131l-.314-.165a4.912,4.912,0,0,1-.774-.511,1.516,1.516,0,0,1-.385-.463.847.847,0,0,1-.053-.634,1.84,1.84,0,0,1,.357-.624l.505-.591c.157-.212.325-.415.462-.638s.273-.439.4-.655a5.882,5.882,0,0,0,.484-1.273,3.76,3.76,0,0,0,.111-.957,1.766,1.766,0,0,0-.039-.362" transform="translate(-37.248 -2.087)" fill="#3c2355"/>
            <path id="Trazado_642721" data-name="Trazado 642721" d="M383.3,30.436c-.113.655.165,1.254.62,1.337s.915-.38,1.028-1.034-.165-1.254-.62-1.337-.915.38-1.028,1.035" transform="translate(-37.965 -2.074)" fill="#3c2355"/>
            <path id="Trazado_642722" data-name="Trazado 642722" d="M382.833,31.038c-.078.454.114.871.431.929s.636-.264.714-.719-.114-.87-.431-.928-.635.264-.714.718" transform="translate(-37.92 -2.139)" fill="#f7bfb2"/>
            <path id="Trazado_642723" data-name="Trazado 642723" d="M375.527,29.658c-.042.555.235,1.03.621,1.061s.732-.392.776-.947-.236-1.031-.622-1.061-.732.392-.775.947" transform="translate(-37.197 -2.026)" fill="#3c2355"/>
            <path id="Trazado_642724" data-name="Trazado 642724" d="M375.183,30.2c-.03.386.163.716.432.737s.508-.272.538-.658-.163-.715-.431-.737-.509.273-.539.658" transform="translate(-37.163 -2.085)" fill="#f7bfb2"/>
            <path id="Trazado_642725" data-name="Trazado 642725" d="M386.246,28.862a3.765,3.765,0,0,0-3.36-1.38" transform="translate(-37.927 -1.935)" fill="#3c2355"/>
            <path id="Trazado_642726" data-name="Trazado 642726" d="M378.1,26.956a2.264,2.264,0,0,0-2.858.173" transform="translate(-37.169 -1.873)" fill="#3c2355"/>
            <path id="Trazado_642727" data-name="Trazado 642727" d="M377.419,40.686s1,2.141,2.494,1.842a9.046,9.046,0,0,0,3.37-2.171Z" transform="translate(-37.385 -2.848)" fill="#fff"/>
            <path id="Trazado_642728" data-name="Trazado 642728" d="M381.324,20.419a13.67,13.67,0,0,1-7.017-1.587l.158-.274c4.781,2.933,13.3.792,13.387.77l.075.31a30.143,30.143,0,0,1-6.6.781" transform="translate(-37.077 -1.31)" fill="#fff"/>
            <path id="Trazado_642729" data-name="Trazado 642729" d="M379.932,18.1a7.615,7.615,0,0,1-4.243-1.29l.172-.265a7.431,7.431,0,0,0,4.427,1.224l.027.317c-.023,0-.16.014-.384.014" transform="translate(-37.214 -1.167)" fill="#fff"/>
            <path id="Trazado_642730" data-name="Trazado 642730" d="M411.537,127.209a7.465,7.465,0,0,0-1,.263,27.435,27.435,0,0,0-2.715,1.091c-.464.212-.862.41-1.131.554a24.639,24.639,0,0,1-13.134,3.122c-1.552-.072-1.57-1-1.57-1s-.859-.3-.952-.742a1.035,1.035,0,0,1,.505-1s.022-.875,2.227-1.552,6.928-1.555,7.113-2.376-1.232-.522-1.232-.522-2.363.436-2.44-.522c-.035-.454,2.115-.846,2.115-.846a31,31,0,0,1,5.543-1.185c1.386-.137,2.453-.208,2.453-.208s1.4-.09,1.728-.069c1.48.094,2.2,3.126,2.415,4.418a4.547,4.547,0,0,1,.077.58" transform="translate(-38.732 -8.624)" fill="#f7bfb2"/>
            <g id="Grupo_1075250" data-name="Grupo 1075250" transform="translate(366.132 113.584)" opacity="0.41">
              <g id="Grupo_1075249" data-name="Grupo 1075249">
                <g id="Grupo_1075248" data-name="Grupo 1075248" clip-path="url(#clip-path-18)">
                  <path id="Trazado_642731" data-name="Trazado 642731" d="M412.057,127.471l.925-.842c-.22-1.293-.936-4.325-2.415-4.419-.328-.021-1.728.069-1.728.069s-1.068.072-2.453.208l2.956,6.075Z" transform="translate(-406.386 -122.208)" fill="#fc9090"/>
                </g>
              </g>
            </g>
            <path id="Trazado_642732" data-name="Trazado 642732" d="M411.27,124.149l-2.667-4.511-1.5-2.54,18.3-15.384-9.287-12.155-6.942-9.088,2.418-16.991a19.175,19.175,0,0,1,4.471,3.01c.967,1.343,1.12,1.07,2.3,2.722,7.835,11.025,20.138,29.333,20.48,32.862.523,5.4-27.573,22.075-27.573,22.075" transform="translate(-40.325 -4.479)" fill="#7e57a4"/>
            <path id="Trazado_642733" data-name="Trazado 642733" d="M369.305,86.99a78.553,78.553,0,0,0-.4,12.437l-2.684,11.108c-.9-3.5,1.257-5.189.378-11.086s2.369-16.124,2.96-14.284c-.095.684-.182,1.3-.251,1.825" transform="translate(-36.254 -5.994)" fill="#6e4e93"/>
            <rect id="Rectángulo_379618" data-name="Rectángulo 379618" width="400" height="1.442" transform="translate(0 287.245)" fill="#3c2355"/>
          </g>
        </g>
      </g>
    </g>
  </g>
</svg>
