<svg xmlns="http://www.w3.org/2000/svg" xmlns:xlink="http://www.w3.org/1999/xlink" width="124.417" height="124.418" viewBox="0 0 124.417 124.418">
  <defs>
    <clipPath id="clip-path">
      <rect id="Rectángulo_379638" data-name="Rectángulo 379638" width="115" height="115" transform="translate(389.246 2670.246)" fill="#fff" stroke="#707070" stroke-width="1"/>
    </clipPath>
    <linearGradient id="linear-gradient" x1="0.989" y1="1.001" x2="0.081" y2="0.049" gradientUnits="objectBoundingBox">
      <stop offset="0" stop-color="#8c50af"/>
      <stop offset="1" stop-color="#fbe3b1"/>
    </linearGradient>
    <clipPath id="clip-path-2">
      <rect id="Rectángulo_379652" data-name="Rectángulo 379652" width="87" height="87" transform="translate(408 2139)" fill="#fff" stroke="#707070" stroke-width="1"/>
    </clipPath>
    <clipPath id="clip-path-3">
      <rect id="Rectángulo_379655" data-name="Rectángulo 379655" width="79.735" height="84" transform="translate(-4)" fill="#543f5c" stroke="#543f5c" stroke-width="1"/>
    </clipPath>
  </defs>
  <g id="Grupo_1075369" data-name="Grupo 1075369" transform="translate(-1094.828 -3255.581)">
    <g id="Enmascarar_grupo_1074787" data-name="Enmascarar grupo 1074787" transform="translate(710.754 590.754)" clip-path="url(#clip-path)">
      <rect id="Imagen_52" data-name="Imagen 52" width="128.611" height="124.518" transform="translate(382.686 2667.283)" fill="#fff"/>
    </g>
    <path id="Sustracción_222" data-name="Sustracción 222" d="M113.2,113.2H0V0H113.2V113.2ZM6.49,6.49V106.714H106.713V6.49Z" transform="matrix(-0.995, -0.105, 0.105, -0.995, 1207.412, 3379.999)" fill="url(#linear-gradient)"/>
    <g id="Enmascarar_grupo_1074792" data-name="Enmascarar grupo 1074792" transform="translate(706 1136)" clip-path="url(#clip-path-2)">
      <g id="Grupo_1075295" data-name="Grupo 1075295" transform="translate(416 2141)">
        <g id="Grupo_1075294" data-name="Grupo 1075294" clip-path="url(#clip-path-3)">
          <path id="Trazado_642789" data-name="Trazado 642789" d="M214.605,303.048a1.407,1.407,0,0,1-.189-.013,2.235,2.235,0,0,1-1.826-1.2l-9.51-18.429a.938.938,0,0,1,.33-1.221l2.568-1.63a.937.937,0,0,1,.8-.094l4.989,1.693a.448.448,0,0,0,.5-.126l2.874-4.109a.938.938,0,0,1,.736-.4l5.324-.184a.38.38,0,0,0,.369-.249l.19-.99.759-3.8a.938.938,0,0,1,.574-.688l.074-.029a.938.938,0,0,1,1.161.409l11.106,19.571a2.044,2.044,0,0,1-.093,2.194l-.018.027a2.242,2.242,0,0,1-2.056.945l-10.757-.756-6.035,8.167a2.321,2.321,0,0,1-1.843.914h-.026m-9.465-19.74,9.122,17.676a.373.373,0,0,0,.316.182l.061.005a.438.438,0,0,0,.331-.157l6.338-8.576a.941.941,0,0,1,.82-.378l11.28.792.021,0a.393.393,0,0,0,.337-.122l.025-.036a.184.184,0,0,0,.014-.211l-9.916-17.474-.479,2.44a2.24,2.24,0,0,1-2.137,1.758l-4.863.168-2.6,3.724a2.308,2.308,0,0,1-2.646.827L206.6,282.38Z" transform="translate(-165.375 -220.775)" fill="#543f5c" stroke="#543f5c" stroke-width="0.5"/>
          <path id="Trazado_642790" data-name="Trazado 642790" d="M20.586,311.884h-.043a2.25,2.25,0,0,1-1.812-.965l-5.876-8.536-10.462.788A2.21,2.21,0,0,1,.222,300L9.374,281.45a.938.938,0,0,1,1.778.39l.008.3a.352.352,0,0,0,.287.316l.95.158,4.16.739a.937.937,0,0,1,.686.528l2.156,4.643a.351.351,0,0,0,.4.189l5.083-1.08a.936.936,0,0,1,.827.224l3.8,3.465a.359.359,0,0,0,.245.1.39.39,0,0,0,.211-.067l.276-.188a.938.938,0,0,1,1.367,1.191l-9.034,18.287a2.232,2.232,0,0,1-1.788,1.225,1.273,1.273,0,0,1-.2.016M13.321,300.47a.937.937,0,0,1,.772.406l6.18,8.978a.369.369,0,0,0,.274.154l.051,0a.352.352,0,0,0,.293-.19L29.1,293.2a2.213,2.213,0,0,1-.859-.492L24.8,289.567l-4.607.979a2.237,2.237,0,0,1-2.492-1.234l-1.949-4.2-3.67-.652-.953-.159-.02,0a2.259,2.259,0,0,1-.868-.362L1.906,300.829a.324.324,0,0,0,.027.325.341.341,0,0,0,.313.147l11-.829.071,0" transform="translate(3 -228.525)" fill="#543f5c" stroke="#543f5c" stroke-width="0.5"/>
          <path id="Trazado_642791" data-name="Trazado 642791" d="M55.252,56.859a2.287,2.287,0,0,1-1.558-.607l-3.357-3.1-4.472.971A2.3,2.3,0,0,1,43.3,52.835l-1.9-4.15-4.5-.814a2.3,2.3,0,0,1-1.878-2.155c0-.008,0-.016,0-.024l-.008-.321s0-.007,0-.011l-.163-4.231L31,38.659a2.3,2.3,0,0,1-.914-2.721l1.6-4.3-2.608-3.75a2.31,2.31,0,0,1,.218-2.873l3.084-3.337L31.411,17.2A2.3,2.3,0,0,1,32.7,14.635l4.151-1.9.817-4.5a2.3,2.3,0,0,1,2.175-1.878l4.555-.176,2.471-3.84a2.309,2.309,0,0,1,2.729-.911l4.28,1.59L57.632.407A2.284,2.284,0,0,1,60.5.617l3.351,3.1,4.47-.971a2.3,2.3,0,0,1,2.569,1.284L72.8,8.179,77.286,9a2.3,2.3,0,0,1,1.882,2.173l.172,4.557,3.845,2.475a2.291,2.291,0,0,1,.9,2.727l-1.577,4.284,2.6,3.762c.015.022.029.044.043.067A2.284,2.284,0,0,1,84.9,31.84l-3.1,3.353.978,4.461a2.3,2.3,0,0,1-1.3,2.574l-4.144,1.908-.808,4.486a2.3,2.3,0,0,1-2.164,1.884l-4.574.177-2.471,3.849a2.3,2.3,0,0,1-2.729.905L60.31,53.85,58.3,55.25l-1.434.983-.042.031-.263.184a2.28,2.28,0,0,1-1.309.41m-4.612-5.846a1.023,1.023,0,0,1,.694.272l3.75,3.467a.242.242,0,0,0,.3.022l.224-.157c.019-.015.037-.029.055-.041l1.47-1.008L59.6,51.86a1.024,1.024,0,0,1,.928-.112L65.3,53.52a.244.244,0,0,0,.293-.094l2.759-4.3a1.023,1.023,0,0,1,.821-.469l5.1-.2a.257.257,0,0,0,.237-.21l.181-1.032.721-3.975a1.023,1.023,0,0,1,.6-.757l.059-.026,4.555-2.1a.248.248,0,0,0,.147-.278l-1.091-4.978a1.023,1.023,0,0,1,.248-.914l3.469-3.75a.232.232,0,0,0,.025-.294q-.023-.032-.043-.066l-2.862-4.143a1.024,1.024,0,0,1-.118-.935l1.763-4.79a.239.239,0,0,0-.091-.29l-4.3-2.766a1.023,1.023,0,0,1-.468-.821l-.192-5.093a.245.245,0,0,0-.2-.234L71.905,10.1a1.024,1.024,0,0,1-.745-.579L69.028,4.88a.246.246,0,0,0-.274-.138L63.761,5.826a1.022,1.022,0,0,1-.911-.248L59.105,2.117a.248.248,0,0,0-.312-.026L54.6,5a1.022,1.022,0,0,1-.939.118L48.882,3.342a.252.252,0,0,0-.3.1L45.826,7.731a1.023,1.023,0,0,1-.821.468l-5.093.2a.245.245,0,0,0-.235.2l-.912,5.029a1.023,1.023,0,0,1-.581.748l-4.636,2.122a.245.245,0,0,0-.137.274l1.079,4.995a1.023,1.023,0,0,1-.249.91L30.79,26.407a.253.253,0,0,0-.03.317l2.908,4.182a1.023,1.023,0,0,1,.119.939l-1.781,4.8a.241.241,0,0,0,.1.286L36.4,39.7a1.023,1.023,0,0,1,.469.821l.184,4.781c0,.011,0,.023,0,.034l.007.292a.259.259,0,0,0,.21.235l5.016.907a1.023,1.023,0,0,1,.748.581l2.123,4.636a.245.245,0,0,0,.274.137l4.994-1.084a1.019,1.019,0,0,1,.217-.023" transform="translate(-20.787 3.513)" fill="#543f5c" stroke="#543f5c" stroke-width="1"/>
          <path id="Trazado_642792" data-name="Trazado 642792" d="M169.18,117.037,157,132.657a1.255,1.255,0,0,1-1,.491h-.008a1.283,1.283,0,0,1-.991-.481l-5.518-6.893a1.273,1.273,0,0,1,1.991-1.584l4.51,5.637,11.195-14.361a1.269,1.269,0,0,1,2,1.566" transform="translate(-120.794 -91.867)" fill="#543f5c" stroke="#543f5c" stroke-width="1"/>
        </g>
      </g>
    </g>
  </g>
</svg>
