<svg xmlns="http://www.w3.org/2000/svg" xmlns:xlink="http://www.w3.org/1999/xlink" width="400" height="290" viewBox="0 0 400 290">
  <defs>
    <clipPath id="clip-path">
      <rect id="Rectángulo_379545" data-name="Rectángulo 379545" width="400" height="290" fill="none"/>
    </clipPath>
    <clipPath id="clip-path-3">
      <rect id="Rectángulo_379528" data-name="Rectángulo 379528" width="13.453" height="10.585" fill="none"/>
    </clipPath>
    <clipPath id="clip-path-4">
      <rect id="Rectángulo_379530" data-name="Rectángulo 379530" width="8.225" height="5.902" fill="none"/>
    </clipPath>
    <clipPath id="clip-path-5">
      <rect id="Rectángulo_379531" data-name="Rectángulo 379531" width="10.386" height="6.149" fill="none"/>
    </clipPath>
    <clipPath id="clip-path-6">
      <rect id="Rectángulo_379534" data-name="Rectángulo 379534" width="20.03" height="15.263" fill="none"/>
    </clipPath>
    <clipPath id="clip-path-7">
      <rect id="Rectángulo_379535" data-name="Rectángulo 379535" width="21.936" height="14.825" fill="none"/>
    </clipPath>
    <clipPath id="clip-path-8">
      <rect id="Rectángulo_379537" data-name="Rectángulo 379537" width="2.396" height="6.709" fill="none"/>
    </clipPath>
    <clipPath id="clip-path-9">
      <rect id="Rectángulo_379538" data-name="Rectángulo 379538" width="12.789" height="6.852" fill="none"/>
    </clipPath>
    <clipPath id="clip-path-10">
      <rect id="Rectángulo_379540" data-name="Rectángulo 379540" width="2.326" height="3.67" fill="none"/>
    </clipPath>
    <clipPath id="clip-path-11">
      <rect id="Rectángulo_379541" data-name="Rectángulo 379541" width="4.671" height="5.21" fill="none"/>
    </clipPath>
    <clipPath id="clip-path-12">
      <rect id="Rectángulo_379542" data-name="Rectángulo 379542" width="2.299" height="4.189" fill="none"/>
    </clipPath>
  </defs>
  <g id="Grupo_1075276" data-name="Grupo 1075276" transform="translate(-600 -1974)">
    <g id="Image_Place_Holder" data-name="Image Place Holder" transform="translate(600 1994.534)">
      <rect id="Image_Place_Holder-2" data-name="Image Place Holder" width="400" height="269.394" rx="10" fill="#edd8f5"/>
    </g>
    <g id="Grupo_1075174" data-name="Grupo 1075174" transform="translate(600 1974)">
      <g id="Grupo_1075173" data-name="Grupo 1075173" clip-path="url(#clip-path)">
        <g id="Grupo_1075172" data-name="Grupo 1075172">
          <g id="Grupo_1075171" data-name="Grupo 1075171" clip-path="url(#clip-path)">
            <path id="Trazado_642358" data-name="Trazado 642358" d="M37.56,273.089s12.354-1.139,18.751-8.489,13.279-9.412,11.886,0,33.16-11.489,34.092,7.8-64.729.693-64.729.693" transform="translate(9.814 -23.022)" fill="#fff"/>
            <path id="Trazado_642359" data-name="Trazado 642359" d="M386.2,286.772a169.83,169.83,0,0,1-21.248,6.154c-13.412,3.1-10.593-7.562-5.557-10.568s-13.7.443-23.15.291-2.824-7.224-6.968-13.369S307.142,257.729,313,251.413s20.7,3.919,31.266,8.282-5.9-4.984,3.247-10.727,21.947,26.579,27.561,20.761S386.2,286.772,386.2,286.772" transform="translate(-13.448 -22.13)" fill="#fff"/>
            <rect id="Rectángulo_379514" data-name="Rectángulo 379514" width="354.606" height="40.949" transform="translate(24.185 248.083)" fill="#fff"/>
            <rect id="Rectángulo_379515" data-name="Rectángulo 379515" width="366.952" height="0.625" transform="translate(18.025 289.375)" fill="#dcd3d8"/>
            <path id="Trazado_642360" data-name="Trazado 642360" d="M339.753,302.356v12.837h22.913s.3-4.228-5.008-6.418-6.825-7.778-6.447-9.742-11.457,3.323-11.457,3.323" transform="translate(-15.816 -26.615)" fill="#3c2355"/>
            <rect id="Rectángulo_379516" data-name="Rectángulo 379516" width="1.884" height="33.081" transform="translate(130.718 3.02)" fill="#7e57a4"/>
            <rect id="Rectángulo_379517" data-name="Rectángulo 379517" width="1.884" height="33.081" transform="translate(262.304)" fill="#7e57a4"/>
            <rect id="Rectángulo_379518" data-name="Rectángulo 379518" width="163.869" height="117.913" transform="translate(117.125 31.186)" fill="#fff"/>
            <path id="Trazado_642361" data-name="Trazado 642361" d="M277.929,152.433h-164.5V33.9h164.5Zm-163.869-.626H277.3V34.52H114.06Z" transform="translate(3.379 -3.021)" fill="#7e57a4"/>
            <rect id="Rectángulo_379519" data-name="Rectángulo 379519" width="6.98" height="39.104" transform="translate(238.052 83.11)" fill="#dcd3d8"/>
            <rect id="Rectángulo_379520" data-name="Rectángulo 379520" width="6.98" height="42.207" transform="translate(222.878 80.008)" fill="#dcd3d8"/>
            <rect id="Rectángulo_379521" data-name="Rectángulo 379521" width="6.98" height="49.249" transform="translate(207.703 72.966)" fill="#dcd3d8"/>
            <rect id="Rectángulo_379522" data-name="Rectángulo 379522" width="6.98" height="56.773" transform="translate(192.529 65.441)" fill="#dcd3d8"/>
            <rect id="Rectángulo_379523" data-name="Rectángulo 379523" width="6.98" height="47.713" transform="translate(177.355 74.502)" fill="#dcd3d8"/>
            <rect id="Rectángulo_379524" data-name="Rectángulo 379524" width="6.98" height="34.574" transform="translate(162.181 87.641)" fill="#dcd3d8"/>
            <rect id="Rectángulo_379525" data-name="Rectángulo 379525" width="6.98" height="31.038" transform="translate(147.006 91.177)" fill="#dcd3d8"/>
            <rect id="Rectángulo_379526" data-name="Rectángulo 379526" width="129.35" height="3.666" transform="translate(131.345 126.609)" fill="#daebeb"/>
            <path id="Trazado_642362" data-name="Trazado 642362" d="M135.615,128.969l-.537-.771,22.634-15.64.208.053L179.175,118l25.437-22.549,18.613,4.236L255.01,71.461l.628.7L223.49,100.709l-18.614-4.236-25.448,22.559L157.9,113.573Z" transform="translate(1.544 -6.37)" fill="#ead86a"/>
            <path id="Trazado_642363" data-name="Trazado 642363" d="M264.561,69.637l3.5,3.495,4.415-7.858Z" transform="translate(-9.438 -5.818)" fill="#ead86a"/>
            <path id="Trazado_642364" data-name="Trazado 642364" d="M349.3,287.578H334.731l-16.388-93.335-24.279,93.335H280.71C278.868,277.1,292.452,173.849,296.094,146.6c.237-1.773.431-3.224.577-4.3.2-1.471.307-2.265.307-2.265,4.734-16.764,41.4.906,41.4.906a5.944,5.944,0,0,1,.637,1.359,31.479,31.479,0,0,1,1.086,4.3c5.455,27.87,9.2,140.983,9.2,140.983" transform="translate(-10.793 -11.837)" fill="#7e57a4"/>
            <rect id="Rectángulo_379527" data-name="Rectángulo 379527" width="0.372" height="143.663" transform="translate(321.509 132.619) rotate(-4.887)" fill="#fff"/>
            <path id="Trazado_642365" data-name="Trazado 642365" d="M341.537,147.524h-44c.236-1.773.431-3.223.577-4.3h42.339a31.557,31.557,0,0,1,1.086,4.3" transform="translate(-12.235 -12.766)" fill="#ead86a"/>
            <path id="Trazado_642366" data-name="Trazado 642366" d="M318.161,172.512l2.63,25.272-11.377,43.733s.553-16.549,3.284-24.7-.911-15.2,5.463-44.3" transform="translate(-13.242 -15.377)" fill="#6e4e93"/>
            <path id="Trazado_642367" data-name="Trazado 642367" d="M102.408,26.472a7.521,7.521,0,0,0,2.41-6.277c-.3-4.128-9.105-9.464-16.591-5.135a8.75,8.75,0,0,0-10.015,1.611c-7.09,6.408-2.428,13.693-11.938,22.049s-18.209,28.8-1.011,34.032S92.173,32.782,92.173,32.782Z" transform="translate(8.298 -1.199)" fill="#ead86a"/>
            <path id="Trazado_642368" data-name="Trazado 642368" d="M320.03,38.441l4.4,5.748s4.8-8.894,6.929-11.461,2.5-14.8-4.324-14.649c0,0-2.732-11.1-12.9-10.572s-14.187,6.041-12.746,9.137c0,0-3.339,1.132-3.339,5.814s5.5,5.475,5.5,5.475Z" transform="translate(-12.279 -0.667)" fill="#3c2355"/>
            <path id="Trazado_642369" data-name="Trazado 642369" d="M327.211,57.24s-5.562,6.192-6.17,6.7-7.283.6-7.283.6l-3.793-4.583V48.078l9.3-7.956,1.772-2.465a26.555,26.555,0,0,0,1.43,4.485c.076.166.152.326.234.48a36.235,36.235,0,0,0,2.737,4.256Z" transform="translate(-13.289 -3.357)" fill="#f7bfb2"/>
            <g id="Grupo_1075143" data-name="Grupo 1075143" transform="translate(296.675 34.3)" opacity="0.51">
              <g id="Grupo_1075142" data-name="Grupo 1075142">
                <g id="Grupo_1075141" data-name="Grupo 1075141" clip-path="url(#clip-path-3)">
                  <path id="Trazado_642370" data-name="Trazado 642370" d="M323.417,43.876c-3.815,5.827-11.368,4.1-13.453,4.2l9.3-7.956,1.773-2.465a23.769,23.769,0,0,0,2.376,6.218" transform="translate(-309.964 -37.657)" fill="#fc9090"/>
                </g>
              </g>
            </g>
            <path id="Trazado_642371" data-name="Trazado 642371" d="M303.074,23.259s-1.113,21.949.4,23.007,13.084,1.593,17.991-6.411L320.423,36.3s4.71-4.283,3.035-6.342c-1.72-2.115-3.035,1.007-3.894,0s-.962-7-1.923-7.5-9.913,4.228-14.567.805" transform="translate(-12.671 -1.998)" fill="#f7bfb2"/>
            <path id="Trazado_642804" data-name="Trazado 642804" d="M0,0,21.42.034l.047,29.585L.047,29.585Z" transform="translate(311.548 168.844) rotate(-68.805)" fill="#3c2355"/>
            <path id="Trazado_642372" data-name="Trazado 642372" d="M361.743,174.215l-7.351,18.87-23.963-9.249.888-2.277a2.273,2.273,0,0,0-1.3-2.946l5.636-14.468Z" transform="translate(-14.989 -14.631)" fill="#fff"/>
            <line id="Línea_903" data-name="Línea 903" x2="0.003" transform="translate(315.02 163.981)" fill="#fff"/>
            <path id="Trazado_642373" data-name="Trazado 642373" d="M358.346,159.223c0,.048,0,.094,0,.142a35.848,35.848,0,0,1-.34,4.1c-1.181,8.464-5.025,14.5-6.333,15.541-1.517,1.208-2.125.905-2.125.905s-1.214.982-1.744.831-.3-1.586-.3-1.586-.531-.528.379-3.247,3.111-8.231,2.428-8.986-1.4.891-1.4.891l-1.927-.743a43.706,43.706,0,0,1,3.141-6.34c.859-1.507,1.551-2.643,1.551-2.643s.148-.2.4-.526c1.474-1.839,6.467-7.421,6.273,1.659" transform="translate(-16.428 -13.742)" fill="#f7bfb2"/>
            <g id="Grupo_1075146" data-name="Grupo 1075146" transform="translate(333.691 143.822)" opacity="0.51">
              <g id="Grupo_1075145" data-name="Grupo 1075145">
                <g id="Grupo_1075144" data-name="Grupo 1075144" clip-path="url(#clip-path-4)">
                  <path id="Trazado_642374" data-name="Trazado 642374" d="M358.635,159.7a36.027,36.027,0,0,1-.34,4.1l-7.885-2.734c.859-1.508,1.551-2.642,1.551-2.642s.148-.207.4-.526Z" transform="translate(-350.41 -157.896)" fill="#fc9090"/>
                </g>
              </g>
            </g>
            <path id="Trazado_642375" data-name="Trazado 642375" d="M251.771,81.947l-8.043,4.229-.9-1.867-1.554-3.232-2.952-6.144a2.107,2.107,0,0,1,.57-2.546l3.448-2.815a.605.605,0,0,0,.194-.656L240.663,63.2a1.057,1.057,0,0,1,.668-1.326h0a1.058,1.058,0,0,1,1.317.58l3.906,8.98a2.406,2.406,0,0,0,.777.978l1.32.979a2.413,2.413,0,0,1,.871,1.232l1.084,3.534,1.056,3.44Z" transform="translate(-7.196 -5.51)" fill="#f7bfb2"/>
            <g id="Grupo_1075149" data-name="Grupo 1075149" transform="translate(234.084 72.65)" opacity="0.51">
              <g id="Grupo_1075148" data-name="Grupo 1075148">
                <g id="Grupo_1075147" data-name="Grupo 1075147" clip-path="url(#clip-path-5)">
                  <path id="Trazado_642376" data-name="Trazado 642376" d="M251.957,83.2l-8.832,2.71-1.554-3.233,9.329-2.918Z" transform="translate(-241.572 -79.759)" fill="#fc9090"/>
                </g>
              </g>
            </g>
            <path id="Trazado_642377" data-name="Trazado 642377" d="M251.561,78.434l12.264,22.148a.912.912,0,0,0,1.589.078c3.7-5.947,18.176-29.032,20.686-30.479C288.982,68.52,304,61.874,304,61.874l6.07,2.115,11.38-4.833s23.976,5.437,27.163,12.233c2.763,5.893,9.749,34.275,11.555,41.709a6.905,6.905,0,0,1-.075,3.547l-10.418,36.147-7.891-2.265,4.647-34.832a6.918,6.918,0,0,0-.282-3.065l-5.883-17.982-5.159,39.72H293.838L288.527,94.5S276.5,112.629,271.49,118.1c-2.5,2.735-9.249,7.38-14.669-.7-5.443-8.119-14.728-34.985-14.728-34.985Z" transform="translate(-7.533 -5.273)" fill="#daebeb"/>
            <rect id="Rectángulo_379532" data-name="Rectángulo 379532" width="16.236" height="3.172" transform="translate(309.977 76.235)" fill="#fff"/>
            <rect id="Rectángulo_379533" data-name="Rectángulo 379533" width="0.314" height="68.717" transform="translate(302.233 59.471)" fill="#7acbc5"/>
            <path id="Trazado_642378" data-name="Trazado 642378" d="M264.974,315.562H293.35l-.608-12.837H282.425s.91,2.567-6.07,4.379-10.47,4.531-11.38,8.457" transform="translate(-9.473 -26.983)" fill="#3c2355"/>
            <path id="Trazado_642379" data-name="Trazado 642379" d="M291.788,97.1l-1.365-8.76s-1.214,7.853-4.7,13.366a49.425,49.425,0,0,0-5.178,11.487Z" transform="translate(-10.793 -7.874)" fill="#7acbc5"/>
            <path id="Trazado_642380" data-name="Trazado 642380" d="M346.373,87.837,349.1,97.2l-2.274,17.509s-1.161-16.38-.448-26.876" transform="translate(-16.357 -7.829)" fill="#7acbc5"/>
            <path id="Trazado_642381" data-name="Trazado 642381" d="M163.37,84.335l-22.346,25.143a6.993,6.993,0,0,1-5.228,2.345h-.252a7,7,0,0,1-5.375-2.513l-1.035-1.242-.349-.42-2.2-2.643L112.469,88.062l-.085-.1-4.1-22.5s9.812,2.813,27,31.184a.915.915,0,0,0,1.351.239l22.631-18.133Z" transform="translate(3.816 -5.834)" fill="#daebeb"/>
            <path id="Trazado_642382" data-name="Trazado 642382" d="M115.28,88.56s7.223,12.46,11.693,18.5L112.858,90.121c1.341-.878,2.422-1.561,2.422-1.561" transform="translate(3.428 -7.894)" fill="#7acbc5"/>
            <path id="Trazado_642383" data-name="Trazado 642383" d="M111.8,98.822c-1.4,4.529-4.552,16.16-4.552,16.16s-30.5,5.135-30.2,2.417c.124-1.123-1.1-6.158-2.571-11.684v0c-2.1-7.859-4.713-16.706-4.713-16.706s-.567-.417-1.4-1.142c-3.1-2.722-9.845-9.784-4.218-15.622a26.3,26.3,0,0,1,16.546-7.7l15.32-.906,8.347,1.661c2.124,1.661,9.021,28.414,7.435,33.528" transform="translate(7.743 -5.672)" fill="#daebeb"/>
            <path id="Trazado_642384" data-name="Trazado 642384" d="M82.429,64.538S87.17,74.1,91.629,74.7s4.763-2.352,4.763-2.352,2.327,2.754,3.945.64-2.3-9.361-2.3-9.361Z" transform="translate(6.009 -5.672)" fill="#fff"/>
            <path id="Trazado_642385" data-name="Trazado 642385" d="M75.068,107.543c-2.1-7.859-4.713-16.706-4.713-16.706s-.567-.417-1.4-1.142l4.23-5.513s2.789,7.878,1.575,12.843a24.166,24.166,0,0,0,.3,10.518" transform="translate(7.151 -7.503)" fill="#7acbc5"/>
            <path id="Trazado_642386" data-name="Trazado 642386" d="M73.275,302.283l.3,13.692H58.05s.759-4.682,4.1-6.8c2.758-1.746,3.854-1.756,3.438-6.9Z" transform="translate(8.077 -26.943)" fill="#3c2355"/>
            <path id="Trazado_642387" data-name="Trazado 642387" d="M80.125,222.7l-1.271,13.819-5.406,58.674h-7.69l-4.624-57.231L60.1,225.113Z" transform="translate(7.903 -19.85)" fill="#f7bfb2"/>
            <path id="Trazado_642388" data-name="Trazado 642388" d="M133.459,298.335h-9.711l-19.09-63.911-2.562-8.582,20.031-6.243,1.905,13.242Z" transform="translate(4.341 -19.574)" fill="#f7bfb2"/>
            <g id="Grupo_1075152" data-name="Grupo 1075152" transform="translate(67.998 202.846)" opacity="0.51">
              <g id="Grupo_1075151" data-name="Grupo 1075151">
                <g id="Grupo_1075150" data-name="Grupo 1075150" clip-path="url(#clip-path-6)">
                  <path id="Trazado_642389" data-name="Trazado 642389" d="M60.095,225.113l20.03-2.417-1.271,13.819-17.721,1.444Z" transform="translate(-60.095 -222.696)" fill="#fc9090"/>
                </g>
              </g>
            </g>
            <g id="Grupo_1075155" data-name="Grupo 1075155" transform="translate(106.438 200.025)" opacity="0.51">
              <g id="Grupo_1075154" data-name="Grupo 1075154">
                <g id="Grupo_1075153" data-name="Grupo 1075153" clip-path="url(#clip-path-7)">
                  <path id="Trazado_642390" data-name="Trazado 642390" d="M124.033,232.841l-19.375,1.583-2.562-8.581,20.03-6.244Z" transform="translate(-102.097 -219.599)" fill="#fc9090"/>
                </g>
              </g>
            </g>
            <path id="Trazado_642391" data-name="Trazado 642391" d="M125.753,306.04v10.27h28.174a12.728,12.728,0,0,0-9.105-5.135,13.667,13.667,0,0,1-9.357-5.135Z" transform="translate(2.335 -27.278)" fill="#3c2355"/>
            <path id="Trazado_642392" data-name="Trazado 642392" d="M78.389,122.756s-21.649,10.061-22.053,99.268H122.5s-5.26-85.985-16.489-96.255-27.618-3.013-27.618-3.013" transform="translate(8.222 -10.72)" fill="#af6464"/>
            <path id="Trazado_642393" data-name="Trazado 642393" d="M122.481,223.963H56.164v-.157c.211-46.45,6.285-71.059,11.343-83.524l.292.117c-5.043,12.427-11.1,36.951-11.32,83.251h66Z" transform="translate(8.237 -12.504)" fill="#fff"/>
            <path id="Trazado_642394" data-name="Trazado 642394" d="M79.927,124.66l27.921,1.058.759-5.739-30.56-.288Z" transform="translate(6.381 -10.668)" fill="#3c2355"/>
            <rect id="Rectángulo_379536" data-name="Rectángulo 379536" width="32.023" height="21.709" transform="translate(83.962 125.881) rotate(-84.801)" fill="#3c2355"/>
            <path id="Trazado_642395" data-name="Trazado 642395" d="M95.151,124.84l-9.833-.89.83-9.08,9.832.892Zm-9.491-1.173,9.207.833.773-8.456-9.207-.834Z" transform="translate(5.764 -10.239)" fill="#fff"/>
            <path id="Trazado_642396" data-name="Trazado 642396" d="M102.847,116.706,99.363,119.5l2.389.257a.732.732,0,0,1,.653.8l-.7,7a.733.733,0,0,1-.728.656,63.28,63.28,0,0,1-9.639-.589,3.4,3.4,0,0,1-1.93-.773c-1.047-1.51,0-5.21,0-5.21s.553-.3,1.357-.725c1.62-.861,4.269-2.244,5.487-2.749,1.432-.592,4.552-2.075,5.821-2.679a.73.73,0,0,1,1.047.655.722.722,0,0,1-.273.568" transform="translate(5.456 -10.287)" fill="#f7bfb2"/>
            <g id="Grupo_1075158" data-name="Grupo 1075158" transform="translate(94.4 110.624)" opacity="0.51">
              <g id="Grupo_1075157" data-name="Grupo 1075157">
                <g id="Grupo_1075156" data-name="Grupo 1075156" clip-path="url(#clip-path-8)">
                  <path id="Trazado_642397" data-name="Trazado 642397" d="M91.339,128.158a3.4,3.4,0,0,1-1.93-.773c-1.047-1.51,0-5.21,0-5.21s.553-.3,1.356-.725Z" transform="translate(-88.944 -121.449)" fill="#fc9090"/>
                </g>
              </g>
            </g>
            <path id="Trazado_642398" data-name="Trazado 642398" d="M62.908,72.943a10.923,10.923,0,0,0-3.117,4.005c-4.772,8.715-10.367,28.5-12.3,38.2a7.5,7.5,0,0,0,.969,5.38l.088.145a7.6,7.6,0,0,0,6.478,3.62H86.58v-7.4L63.712,113.82a1.51,1.51,0,0,1-1.224-2.012s5.188-13.938,6.793-18.627c2.351-6.872,4.354-21.857-2.316-21.676a8.672,8.672,0,0,0-4.057,1.438" transform="translate(8.984 -6.373)" fill="#daebeb"/>
            <path id="Trazado_642399" data-name="Trazado 642399" d="M48.4,121.234l-.089-.144a7.641,7.641,0,0,1-.988-5.492c1.828-9.185,7.591-29.976,12.571-38.705l.273.155c-4.963,8.7-10.711,29.444-12.535,38.612a7.321,7.321,0,0,0,.948,5.268l.089.144Z" transform="translate(8.999 -6.854)" fill="#7acbc5"/>
            <path id="Trazado_642400" data-name="Trazado 642400" d="M71.247,93.216l-.3-.1c2.06-6.021,3.445-16.347.686-20.074a3.25,3.25,0,0,0-2.849-1.4l-.009-.312a3.579,3.579,0,0,1,3.111,1.523c3.057,4.129,1.09,15.3-.642,20.36" transform="translate(7.167 -6.358)" fill="#7acbc5"/>
            <path id="Trazado_642401" data-name="Trazado 642401" d="M99.115,50.538,98.951,52.3l-.913,9.717-1.646,8.721L82.429,62.922s2.683-9.231,3.9-14.287c.231-.961.41-1.77.507-2.338.543-3.19,12.282,4.241,12.282,4.241" transform="translate(6.009 -4.056)" fill="#f7bfb2"/>
            <g id="Grupo_1075161" data-name="Grupo 1075161" transform="translate(92.335 41.446)" opacity="0.51">
              <g id="Grupo_1075160" data-name="Grupo 1075160">
                <g id="Grupo_1075159" data-name="Grupo 1075159" clip-path="url(#clip-path-9)">
                  <path id="Trazado_642402" data-name="Trazado 642402" d="M99.476,50.538,99.312,52.3c-5.678.455-10.968-2.006-12.625-3.664.231-.961.41-1.77.507-2.338.543-3.19,12.282,4.241,12.282,4.241" transform="translate(-86.687 -45.502)" fill="#fc9090"/>
                </g>
              </g>
            </g>
            <path id="Trazado_642403" data-name="Trazado 642403" d="M86.86,44.715C88.626,47.46,95.1,50.8,98.526,50.642s8.158-17.457,6.2-22.9a15.8,15.8,0,0,1-8,.768c-4.079-.812-7.14.705-8.4,4.266-.874,2.481-.9-1.543-3.426-1.3s-3.018,5.278-.408,6.74a6.079,6.079,0,0,1,1.256,1.249s.383,4.118,1.11,5.247" transform="translate(5.981 -2.473)" fill="#f7bfb2"/>
            <path id="Trazado_642404" data-name="Trazado 642404" d="M180.663,70.3l-2.855,7.108a2.744,2.744,0,0,1-.975,1.221l-8.163,4.361-1.305.7L164,79.1l.006,0,.021-.005c.1-.036.447-.167.965-.357,1.447-.537,4.221-1.573,6.543-2.488,1.709-.673,3.178-1.278,3.694-1.57,1.211-.686,3.29-3.706,4.082-4.9a.771.771,0,0,1,.883-.3l.1.033a.6.6,0,0,1,.371.8" transform="translate(-0.909 -6.189)" fill="#f7bfb2"/>
            <path id="Trazado_642405" data-name="Trazado 642405" d="M172.7,73.97a.749.749,0,0,1-.076.329l-1.093,2.284-.134.281a.767.767,0,0,1-.367.365l-6.005,1.885-1,.314-.021.006.761-.619,6.583-5.338a.768.768,0,0,1,1.354.493" transform="translate(-0.91 -6.525)" fill="#f7bfb2"/>
            <path id="Trazado_642406" data-name="Trazado 642406" d="M309.74,59.156l5.867,4.833-2.933,4.376-5.336-5.513Z" transform="translate(-13.066 -5.273)" fill="#fff"/>
            <path id="Trazado_642407" data-name="Trazado 642407" d="M327.755,57.218l-11.38,6.6,2.229,4.377,12.558-8.357Z" transform="translate(-13.833 -5.1)" fill="#fff"/>
            <path id="Trazado_642408" data-name="Trazado 642408" d="M45.545,300.09H22.353v-7H45.545Zm-22.564-.626H44.917v-5.748H22.981Z" transform="translate(11.104 -26.124)" fill="#dcd3d8"/>
            <path id="Trazado_642409" data-name="Trazado 642409" d="M112.618,309.2H89.426v-7h23.192Zm-22.564-.625H111.99v-5.748H90.054Z" transform="translate(5.415 -26.936)" fill="#dcd3d8"/>
            <path id="Trazado_642410" data-name="Trazado 642410" d="M57.873,293.094H34.681v-7H57.873Zm-22.564-.626H57.245v-5.748H35.309Z" transform="translate(10.059 -25.501)" fill="#dcd3d8"/>
            <path id="Trazado_642411" data-name="Trazado 642411" d="M219.7,309.2H196.507v-7H219.7Zm-22.564-.625h21.936v-5.748H197.135Z" transform="translate(-3.666 -26.936)" fill="#dcd3d8"/>
            <path id="Trazado_642412" data-name="Trazado 642412" d="M244.354,309.2H221.161v-7h23.193Zm-22.564-.625h21.936v-5.748H221.79Z" transform="translate(-5.757 -26.936)" fill="#dcd3d8"/>
            <path id="Trazado_642413" data-name="Trazado 642413" d="M232.911,301.89H209.719v-7h23.192Zm-22.564-.625h21.936v-5.748H210.347Z" transform="translate(-4.787 -26.285)" fill="#dcd3d8"/>
            <path id="Trazado_642414" data-name="Trazado 642414" d="M167.059,279.357H143.866v-7h23.193Zm-22.564-.626h21.936v-5.748H144.495Z" transform="translate(0.798 -24.276)" fill="#dcd3d8"/>
            <path id="Trazado_642415" data-name="Trazado 642415" d="M330.188,309.2H307v-7h23.192Zm-22.564-.625H329.56v-5.748H307.624Z" transform="translate(-13.037 -26.936)" fill="#dcd3d8"/>
            <path id="Trazado_642416" data-name="Trazado 642416" d="M384.216,296.591H361.023v-7h23.193Zm-22.565-.625h21.936v-5.748H361.651Z" transform="translate(-17.619 -25.812)" fill="#dcd3d8"/>
            <path id="Trazado_642417" data-name="Trazado 642417" d="M397.26,303.6H374.067v-7H397.26Zm-22.564-.625h21.936v-5.748H374.7Z" transform="translate(-18.726 -26.437)" fill="#dcd3d8"/>
            <path id="Trazado_642418" data-name="Trazado 642418" d="M8.719,259.639s3.945-17.4,9.1-23.186,3.642-14.346-4.552-10.97,9.712-27.969-4.552-22.114,0,56.271,0,56.271" transform="translate(12.798 -18.062)" fill="#fff"/>
            <rect id="Rectángulo_379539" data-name="Rectángulo 379539" width="371.977" height="1.387" transform="translate(13 288.561)" fill="#3c2355"/>
            <path id="Trazado_642419" data-name="Trazado 642419" d="M286.826,288.947l-.311-.042,18.9-140.983.311.042Z" transform="translate(-11.3 -13.185)" fill="#fff"/>
            <path id="Trazado_642420" data-name="Trazado 642420" d="M400.643,259.213s-3.945-17.4-9.1-23.186-3.642-14.346,4.552-10.97-9.712-27.969,4.552-22.113,0,56.27,0,56.27" transform="translate(-19.954 -18.024)" fill="#fff"/>
            <g id="Grupo_1075164" data-name="Grupo 1075164" transform="translate(307.153 28.714)" opacity="0.51">
              <g id="Grupo_1075163" data-name="Grupo 1075163">
                <g id="Grupo_1075162" data-name="Grupo 1075162" clip-path="url(#clip-path-10)">
                  <path id="Trazado_642421" data-name="Trazado 642421" d="M321.413,32.375l.506,2.819s2.174-2.165,1.77-3.272-2.276.453-2.276.453" transform="translate(-321.413 -31.524)" fill="#fc9090"/>
                </g>
              </g>
            </g>
            <g id="Grupo_1075167" data-name="Grupo 1075167" transform="translate(163.089 72.29)" opacity="0.51">
              <g id="Grupo_1075166" data-name="Grupo 1075166">
                <g id="Grupo_1075165" data-name="Grupo 1075165" clip-path="url(#clip-path-11)">
                  <path id="Trazado_642422" data-name="Trazado 642422" d="M168.669,83.877l-1.305.7L164,79.986l.006,0,.762-.619.224.257.037.042Z" transform="translate(-163.998 -79.364)" fill="#fc9090"/>
                </g>
              </g>
            </g>
            <g id="Grupo_1075170" data-name="Grupo 1075170" transform="translate(90.947 30.813)" opacity="0.51">
              <g id="Grupo_1075169" data-name="Grupo 1075169">
                <g id="Grupo_1075168" data-name="Grupo 1075168" clip-path="url(#clip-path-12)">
                  <path id="Trazado_642423" data-name="Trazado 642423" d="M86,38.017l1.467-2.064s-.86-2.819-1.923-1.963S86,38.017,86,38.017" transform="translate(-85.17 -33.828)" fill="#fc9090"/>
                </g>
              </g>
            </g>
            <path id="Trazado_642424" data-name="Trazado 642424" d="M131.034,112.2l-.349-.42c.3.284.4.414.349.42" transform="translate(1.916 -9.963)" fill="#7acbc5"/>
            <path id="Trazado_642425" data-name="Trazado 642425" d="M102.662,116.086l-.307-.067c.035-.158,3.519-15.9,2.476-21.046-1.048-5.168-6.914-20.856-6.974-21.014l.295-.109c.059.158,5.935,15.869,6.987,21.062,1.057,5.213-2.332,20.525-2.477,21.175" transform="translate(4.7 -6.582)" fill="#7acbc5"/>
            <path id="Trazado_642426" data-name="Trazado 642426" d="M98.047,79.3a.679.679,0,1,1-.679-.676.677.677,0,0,1,.679.676" transform="translate(4.8 -7.008)" fill="#7acbc5"/>
            <path id="Trazado_642427" data-name="Trazado 642427" d="M100.535,85.76a.679.679,0,1,1-.679-.676.677.677,0,0,1,.679.676" transform="translate(4.588 -7.584)" fill="#7acbc5"/>
            <path id="Trazado_642428" data-name="Trazado 642428" d="M102.556,92.074a.679.679,0,1,1-.679-.676.677.677,0,0,1,.679.676" transform="translate(4.417 -8.147)" fill="#7acbc5"/>
            <path id="Trazado_642429" data-name="Trazado 642429" d="M113.734,157.714l-.314,0a97,97,0,0,0-5.282-31.353l.294-.109a97.277,97.277,0,0,1,5.3,31.467" transform="translate(3.828 -11.253)" fill="#67aba6"/>
            <rect id="Rectángulo_379543" data-name="Rectángulo 379543" width="0.32" height="24.946" transform="translate(108.42 115.39) rotate(-2.989)" fill="#67aba6"/>
            <path id="Trazado_642430" data-name="Trazado 642430" d="M90.537,15.045c-2-3.047-6.215-2.358-6.257-2.352l-.054-.307c.046-.007,4.459-.729,6.574,2.488Z" transform="translate(5.857 -1.097)" fill="#ead86a"/>
            <path id="Trazado_642431" data-name="Trazado 642431" d="M61.738,67.364c-4.251-7.8,6.536-21.394,7-21.969l.245.195c-.112.138-11.119,14-6.966,21.626Z" transform="translate(7.848 -4.046)" fill="#fff"/>
            <path id="Trazado_642432" data-name="Trazado 642432" d="M65,68.36c-3.376-5.3.39-11.828.427-11.892l.272.158c-.038.064-3.707,6.425-.434,11.567Z" transform="translate(7.607 -5.033)" fill="#fff"/>
            <path id="Trazado_642433" data-name="Trazado 642433" d="M308.11,22.376c-3.92,0-4.723-1.922-4.764-2.026l.292-.113-.146.056.146-.057c.012.03,1.279,2.969,8.417,1.314l.071.305a17.917,17.917,0,0,1-4.017.52" transform="translate(-12.728 -1.804)" fill="#fff"/>
            <path id="Trazado_642434" data-name="Trazado 642434" d="M309.479,20.522a12.765,12.765,0,0,1-2.174-.163l.061-.307a15.407,15.407,0,0,0,7.535-.8l.111.292a15.962,15.962,0,0,1-5.533.976" transform="translate(-13.063 -1.716)" fill="#fff"/>
            <path id="Trazado_642435" data-name="Trazado 642435" d="M95.738,44.825l5.235.929s-2.268,2.116-3.633,1.323a3.47,3.47,0,0,1-1.6-2.253" transform="translate(4.88 -3.995)" fill="#fff"/>
            <path id="Trazado_642436" data-name="Trazado 642436" d="M101.92,35.608a8.785,8.785,0,0,0,.1,1.085,6.993,6.993,0,0,0,.241,1.082,3.6,3.6,0,0,0,.544,1.129c.124.176.283.3.435.485a.875.875,0,0,1,.167.649,1.169,1.169,0,0,1-.261.558,2,2,0,0,1-1.137.687,1.469,1.469,0,0,1-.223.026h-.079a1.316,1.316,0,0,0,.295-.057,2.1,2.1,0,0,0,.689-.361,1.805,1.805,0,0,0,.36-.366,1.169,1.169,0,0,0,.22-.506.735.735,0,0,0-.15-.541,6.016,6.016,0,0,1-.439-.483,3.757,3.757,0,0,1-.548-1.181,6.9,6.9,0,0,1-.212-2.205" transform="translate(4.374 -3.174)" fill="#3c2355"/>
            <path id="Trazado_642437" data-name="Trazado 642437" d="M96.974,35.781c0,.646-.377,1.17-.843,1.17s-.842-.524-.842-1.17.377-1.17.842-1.17.843.524.843,1.17" transform="translate(4.918 -3.085)" fill="#3c2355"/>
            <path id="Trazado_642438" data-name="Trazado 642438" d="M97.38,36.46c0,.449-.262.812-.585.812s-.586-.363-.586-.812.263-.812.586-.812.585.363.585.812" transform="translate(4.84 -3.177)" fill="#f7bfb2"/>
            <path id="Trazado_642439" data-name="Trazado 642439" d="M94.167,33.723a3.848,3.848,0,0,1,3.565-.731" transform="translate(5.013 -2.922)" fill="#3c2355"/>
            <path id="Trazado_642440" data-name="Trazado 642440" d="M105.481,36.33c0,.51-.3.924-.665.924s-.665-.414-.665-.924.3-.924.665-.924.665.414.665.924" transform="translate(4.167 -3.156)" fill="#3c2355"/>
            <path id="Trazado_642441" data-name="Trazado 642441" d="M105.8,36.867c0,.354-.207.641-.462.641s-.462-.287-.462-.641.207-.641.462-.641.462.287.462.641" transform="translate(4.105 -3.229)" fill="#f7bfb2"/>
            <path id="Trazado_642442" data-name="Trazado 642442" d="M106,34.126a2.979,2.979,0,0,0-2.759-.567" transform="translate(4.244 -2.977)" fill="#3c2355"/>
            <path id="Trazado_642443" data-name="Trazado 642443" d="M95.738,44.825l5.235.929s-1.641,2.294-3.006,1.5a6.913,6.913,0,0,1-2.228-2.43" transform="translate(4.88 -3.995)" fill="#fff"/>
            <path id="Trazado_642444" data-name="Trazado 642444" d="M101.92,35.608a8.785,8.785,0,0,0,.1,1.085,6.993,6.993,0,0,0,.241,1.082,3.6,3.6,0,0,0,.544,1.129c.124.176.283.3.435.485a.875.875,0,0,1,.167.649,1.169,1.169,0,0,1-.261.558,2,2,0,0,1-1.137.687,1.469,1.469,0,0,1-.223.026h-.079a1.316,1.316,0,0,0,.295-.057,2.1,2.1,0,0,0,.689-.361,1.805,1.805,0,0,0,.36-.366,1.169,1.169,0,0,0,.22-.506.735.735,0,0,0-.15-.541,6.016,6.016,0,0,1-.439-.483,3.757,3.757,0,0,1-.548-1.181,6.9,6.9,0,0,1-.212-2.205" transform="translate(4.374 -3.174)" fill="#3c2355"/>
            <path id="Trazado_642445" data-name="Trazado 642445" d="M96.974,35.781c0,.646-.377,1.17-.843,1.17s-.842-.524-.842-1.17.377-1.17.842-1.17.843.524.843,1.17" transform="translate(4.918 -3.085)" fill="#3c2355"/>
            <path id="Trazado_642446" data-name="Trazado 642446" d="M97.38,36.46c0,.449-.262.812-.585.812s-.586-.363-.586-.812.263-.812.586-.812.585.363.585.812" transform="translate(4.84 -3.177)" fill="#f7bfb2"/>
            <path id="Trazado_642447" data-name="Trazado 642447" d="M94.167,33.723a3.848,3.848,0,0,1,3.565-.731" transform="translate(5.013 -2.922)" fill="#3c2355"/>
            <path id="Trazado_642448" data-name="Trazado 642448" d="M105.481,36.33c0,.51-.3.924-.665.924s-.665-.414-.665-.924.3-.924.665-.924.665.414.665.924" transform="translate(4.167 -3.156)" fill="#3c2355"/>
            <path id="Trazado_642449" data-name="Trazado 642449" d="M105.8,36.867c0,.354-.207.641-.462.641s-.462-.287-.462-.641.207-.641.462-.641.462.287.462.641" transform="translate(4.105 -3.229)" fill="#f7bfb2"/>
            <path id="Trazado_642450" data-name="Trazado 642450" d="M106,34.126a2.979,2.979,0,0,0-2.759-.567" transform="translate(4.244 -2.977)" fill="#3c2355"/>
            <path id="Trazado_642451" data-name="Trazado 642451" d="M315.562,31.494a1.038,1.038,0,1,1-1.01-1.277,1.167,1.167,0,0,1,1.01,1.277" transform="translate(-13.592 -2.693)" fill="#3c2355"/>
            <path id="Trazado_642452" data-name="Trazado 642452" d="M314.627,31.747a.639.639,0,1,1-.622-.786.718.718,0,0,1,.622.786" transform="translate(-13.579 -2.76)" fill="#f7bfb2"/>
            <path id="Trazado_642453" data-name="Trazado 642453" d="M306.161,31.494a1.038,1.038,0,1,1-1.01-1.277,1.167,1.167,0,0,1,1.01,1.277" transform="translate(-12.795 -2.693)" fill="#3c2355"/>
            <path id="Trazado_642454" data-name="Trazado 642454" d="M305.226,31.747a.639.639,0,1,1-.622-.786.718.718,0,0,1,.622.786" transform="translate(-12.782 -2.76)" fill="#f7bfb2"/>
            <path id="Trazado_642455" data-name="Trazado 642455" d="M313.173,28.208a2.421,2.421,0,0,1,3.491.366" transform="translate(-13.561 -2.463)" fill="#3c2355"/>
            <path id="Trazado_642456" data-name="Trazado 642456" d="M306.1,28.114a1.887,1.887,0,0,0-2.667.47" transform="translate(-12.735 -2.473)" fill="#3c2355"/>
            <path id="Trazado_642457" data-name="Trazado 642457" d="M308.485,31.375s-.149.526-.412,1.3a29.5,29.5,0,0,1-1.1,2.8c-.113.25-.242.494-.374.731a2.251,2.251,0,0,0-.34.67.575.575,0,0,0,.307.536,2.332,2.332,0,0,0,.586.267,6.837,6.837,0,0,0,.963.22c.237.036.374.051.374.051s-.137,0-.378-.014a5.376,5.376,0,0,1-.989-.154,2.479,2.479,0,0,1-.632-.251.932.932,0,0,1-.288-.262.6.6,0,0,1-.1-.41,2.3,2.3,0,0,1,.35-.737c.128-.233.244-.479.364-.723.234-.491.449-.993.642-1.466l.529-1.3.506-1.27" transform="translate(-12.96 -2.797)" fill="#3c2355"/>
            <path id="Trazado_642458" data-name="Trazado 642458" d="M306.09,41.964h6.233s-3.2,3.927-6.233,0" transform="translate(-12.96 -3.74)" fill="#fff"/>
            <path id="Trazado_642459" data-name="Trazado 642459" d="M281.349,275.556l-.313-.016c.6-11.317,12.921-110.867,13.045-111.871l.311.038c-.124,1-12.44,100.542-13.043,111.849" transform="translate(-10.836 -14.588)" fill="#fff"/>
          </g>
        </g>
      </g>
    </g>
  </g>
</svg>
