<svg xmlns="http://www.w3.org/2000/svg" xmlns:xlink="http://www.w3.org/1999/xlink" width="400" height="290.462" viewBox="0 0 400 290.462">
  <defs>
    <clipPath id="clip-path">
      <rect id="Rectángulo_379620" data-name="Rectángulo 379620" width="397.667" height="290.463" fill="none"/>
    </clipPath>
    <clipPath id="clip-path-3">
      <rect id="Rectángulo_379599" data-name="Rectángulo 379599" width="12.335" height="7.894" fill="none"/>
    </clipPath>
    <clipPath id="clip-path-4">
      <rect id="Rectángulo_379600" data-name="Rectángulo 379600" width="12.137" height="6.906" fill="none"/>
    </clipPath>
    <clipPath id="clip-path-5">
      <rect id="Rectángulo_379601" data-name="Rectángulo 379601" width="7.19" height="4.934" fill="none"/>
    </clipPath>
    <clipPath id="clip-path-6">
      <rect id="Rectángulo_379602" data-name="Rectángulo 379602" width="6.097" height="5.986" fill="none"/>
    </clipPath>
    <clipPath id="clip-path-7">
      <rect id="Rectángulo_379603" data-name="Rectángulo 379603" width="14.269" height="12.506" fill="none"/>
    </clipPath>
    <clipPath id="clip-path-8">
      <rect id="Rectángulo_379604" data-name="Rectángulo 379604" width="2.696" height="4.002" fill="none"/>
    </clipPath>
    <clipPath id="clip-path-9">
      <rect id="Rectángulo_379605" data-name="Rectángulo 379605" width="6.162" height="4.674" fill="none"/>
    </clipPath>
    <clipPath id="clip-path-10">
      <rect id="Rectángulo_379609" data-name="Rectángulo 379609" width="3.525" height="6.041" fill="none"/>
    </clipPath>
    <clipPath id="clip-path-13">
      <rect id="Rectángulo_379612" data-name="Rectángulo 379612" width="19.153" height="15.19" fill="none"/>
    </clipPath>
    <clipPath id="clip-path-14">
      <rect id="Rectángulo_379613" data-name="Rectángulo 379613" width="21.557" height="20.643" fill="none"/>
    </clipPath>
    <clipPath id="clip-path-15">
      <rect id="Rectángulo_379614" data-name="Rectángulo 379614" width="6.014" height="7.717" fill="none"/>
    </clipPath>
    <clipPath id="clip-path-16">
      <rect id="Rectángulo_379615" data-name="Rectángulo 379615" width="11.871" height="13.697" fill="none"/>
    </clipPath>
    <clipPath id="clip-path-17">
      <rect id="Rectángulo_379616" data-name="Rectángulo 379616" width="2.085" height="4.973" fill="none"/>
    </clipPath>
    <clipPath id="clip-path-18">
      <rect id="Rectángulo_379617" data-name="Rectángulo 379617" width="6.558" height="6.365" fill="none"/>
    </clipPath>
  </defs>
  <g id="Grupo_1075272" data-name="Grupo 1075272" transform="translate(-1020 -1974.913)">
    <g id="Grupo_1072822" data-name="Grupo 1072822" transform="translate(1020 1970)">
      <g id="Image_Place_Holder" data-name="Image Place Holder" transform="translate(0 24.534)">
        <rect id="Image_Place_Holder-2" data-name="Image Place Holder" width="400" height="270.77" rx="10" fill="#edd8f5"/>
      </g>
    </g>
    <g id="Grupo_1075254" data-name="Grupo 1075254" transform="translate(1022.333 1974.913)">
      <g id="Grupo_1075253" data-name="Grupo 1075253" clip-path="url(#clip-path)">
        <path id="Trazado_642576" data-name="Trazado 642576" d="M172.3,120.631H77.564l-3.642-6.555h94.742Z" transform="translate(-7.711 -7.881)" fill="#e1eaea"/>
        <path id="Trazado_642577" data-name="Trazado 642577" d="M172.3,109.295H77.564l-3.642-6.555h94.742Z" transform="translate(-7.711 -7.098)" fill="#b285c3"/>
        <path id="Trazado_642578" data-name="Trazado 642578" d="M172.3,97.958H77.564L73.922,91.4h94.742Z" transform="translate(-7.711 -6.315)" fill="#b285c3"/>
        <path id="Trazado_642579" data-name="Trazado 642579" d="M172.3,86.621H77.564l-3.642-6.555h94.742Z" transform="translate(-7.711 -5.531)" fill="#b285c3"/>
        <path id="Trazado_642580" data-name="Trazado 642580" d="M172.3,75.284H77.564L73.922,68.73h94.742Z" transform="translate(-7.711 -4.748)" fill="#b285c3"/>
        <path id="Trazado_642581" data-name="Trazado 642581" d="M172.3,63.948H77.564l-3.642-6.555h94.742Z" transform="translate(-7.711 -3.965)" fill="#b285c3"/>
        <path id="Trazado_642582" data-name="Trazado 642582" d="M172.3,52.611H77.564l-3.642-6.555h94.742Z" transform="translate(-7.711 -3.182)" fill="#b285c3"/>
        <path id="Trazado_642583" data-name="Trazado 642583" d="M172.3,41.274H77.564L73.922,34.72h94.742Z" transform="translate(-7.711 -2.399)" fill="#b285c3"/>
        <path id="Trazado_642584" data-name="Trazado 642584" d="M172.3,29.937H77.564l-3.642-6.555h94.742Z" transform="translate(-7.711 -1.615)" fill="#b285c3"/>
        <path id="Trazado_642585" data-name="Trazado 642585" d="M172.3,18.6H77.564l-3.642-6.555h94.742Z" transform="translate(-7.711 -0.832)" fill="#b285c3"/>
        <path id="Trazado_642586" data-name="Trazado 642586" d="M172.3,7.264H77.564L73.922.709h94.742Z" transform="translate(-7.711 -0.049)" fill="#b285c3"/>
        <rect id="Rectángulo_379591" data-name="Rectángulo 379591" width="0.743" height="100.009" transform="translate(61.344 0.66)" fill="#e1eaea"/>
        <rect id="Rectángulo_379592" data-name="Rectángulo 379592" width="1.743" height="9.12" transform="translate(60.844 101.271)" fill="#e1eaea"/>
        <g id="Grupo_1075252" data-name="Grupo 1075252">
          <g id="Grupo_1075251" data-name="Grupo 1075251" clip-path="url(#clip-path)">
            <path id="Trazado_642587" data-name="Trazado 642587" d="M215.144,61.673c-14.16,0-25.68-11.973-25.68-26.69s11.52-26.69,25.68-26.69,25.68,11.973,25.68,26.69-11.52,26.69-25.68,26.69m0-52.1c-13.482,0-24.451,11.4-24.451,25.412S201.662,60.4,215.144,60.4,239.595,49,239.595,34.982,228.626,9.57,215.144,9.57" transform="translate(-19.763 -0.573)" fill="#daebeb"/>
            <path id="Trazado_642588" data-name="Trazado 642588" d="M220.843,49.018h-.587v-.53a12.545,12.545,0,0,1,2.2-7.072,6.289,6.289,0,0,0,1.083-3.551,6.074,6.074,0,0,0-5.856-6.163,5.794,5.794,0,0,0-4.217,1.763A6.232,6.232,0,0,0,211.68,37.8a6.3,6.3,0,0,0,1.06,3.578,12.961,12.961,0,0,1,2.224,7.23v.4h-.588v-.4a12.334,12.334,0,0,0-2.118-6.882,6.963,6.963,0,0,1,.8-8.7,6.351,6.351,0,0,1,4.554-1.937h.082a6.676,6.676,0,0,1,6.436,6.773,6.909,6.909,0,0,1-1.19,3.9,11.925,11.925,0,0,0-2.093,6.72Z" transform="translate(-22.019 -2.148)" fill="#ead86a"/>
            <rect id="Rectángulo_379593" data-name="Rectángulo 379593" width="0.587" height="10.113" transform="translate(194.717 36.732)" fill="#ead86a"/>
            <path id="Trazado_642589" data-name="Trazado 642589" d="M216.547,39.758h0a1.611,1.611,0,0,1-1.68-1.308,1.278,1.278,0,0,1,.874-1.435,1.548,1.548,0,0,1,.5-.091c1.138,0,1.459,1.48,1.469,2.355l0,.219-.2.073a2.821,2.821,0,0,1-.971.187m-.3-2.224a.983.983,0,0,0-.318.061.66.66,0,0,0-.48.758,1.018,1.018,0,0,0,1.1.8,2.133,2.133,0,0,0,.565-.084c-.045-.473-.216-1.53-.868-1.53" transform="translate(-22.411 -2.551)" fill="#ead86a"/>
            <rect id="Rectángulo_379594" data-name="Rectángulo 379594" width="0.587" height="10.113" transform="translate(195.877 36.732)" fill="#ead86a"/>
            <path id="Trazado_642590" data-name="Trazado 642590" d="M219.855,39.758a2.836,2.836,0,0,1-.97-.186l-.2-.073,0-.219c.01-.875.331-2.356,1.469-2.356a1.526,1.526,0,0,1,.5.092,1.276,1.276,0,0,1,.874,1.434,1.61,1.61,0,0,1-1.68,1.308m-.565-.694a2.1,2.1,0,0,0,.565.084,1.017,1.017,0,0,0,1.1-.8.66.66,0,0,0-.48-.758.98.98,0,0,0-.318-.06c-.655,0-.825,1.057-.868,1.529" transform="translate(-22.811 -2.551)" fill="#ead86a"/>
            <path id="Trazado_642591" data-name="Trazado 642591" d="M217.8,39.453l-.21-.57a.974.974,0,0,0,.294-.311,3.516,3.516,0,0,1-.4-1.74c.013-.585.178-1.289.608-1.512a.612.612,0,0,1,.678.082,1.409,1.409,0,0,1,.434,1.417,5.054,5.054,0,0,1-.608,1.739A1.528,1.528,0,0,0,219,38.9l-.285.534a2.116,2.116,0,0,1-.465-.365,1.246,1.246,0,0,1-.449.383m.557-3.588-.008,0c-.107.055-.271.4-.283.978a3.053,3.053,0,0,0,.177,1.1,4.053,4.053,0,0,0,.373-1.206c.037-.291.032-.674-.194-.843a.156.156,0,0,0-.065-.033" transform="translate(-22.685 -2.436)" fill="#ead86a"/>
            <rect id="Rectángulo_379595" data-name="Rectángulo 379595" width="0.57" height="6.575" transform="translate(195.305 18.044)" fill="#ead86a"/>
            <path id="Trazado_642734" data-name="Trazado 642734" d="M0,0,6.478-.121,6.467.456-.011.578Z" transform="translate(199.646 26.043) rotate(-51.451)" fill="#ead86a"/>
            <path id="Trazado_642735" data-name="Trazado 642735" d="M0,0,6.478-.121,6.467.456-.011.578Z" transform="translate(199.646 26.043) rotate(-51.451)" fill="#ead86a"/>
            <path id="Trazado_642736" data-name="Trazado 642736" d="M0,0,.578-.011.456,6.467l-.578.011Z" transform="translate(187.155 21.27) rotate(-38.549)" fill="#ead86a"/>
            <path id="Trazado_642592" data-name="Trazado 642592" d="M220.786,51.857h-5.663a.732.732,0,0,1-.717-.745v-.151a.732.732,0,0,1,.717-.746h5.663a.733.733,0,0,1,.717.746v.151a.733.733,0,0,1-.717.745m-5.663-1.322a.419.419,0,0,0-.41.426v.151a.419.419,0,0,0,.41.425h5.663a.418.418,0,0,0,.409-.425v-.151a.418.418,0,0,0-.409-.426Z" transform="translate(-22.365 -3.469)" fill="#3c2355"/>
            <path id="Trazado_642593" data-name="Trazado 642593" d="M220.869,53.278h-5.663a.733.733,0,0,1-.717-.746v-.151a.732.732,0,0,1,.717-.746h5.663a.732.732,0,0,1,.717.746v.151a.733.733,0,0,1-.717.746m-5.663-1.323a.418.418,0,0,0-.409.426v.151a.418.418,0,0,0,.409.425h5.663a.418.418,0,0,0,.409-.425v-.151a.418.418,0,0,0-.409-.426Z" transform="translate(-22.374 -3.567)" fill="#3c2355"/>
            <path id="Trazado_642594" data-name="Trazado 642594" d="M220.869,54.7h-5.663a.732.732,0,0,1-.717-.745V53.8a.732.732,0,0,1,.717-.745h5.663a.732.732,0,0,1,.717.745v.152a.732.732,0,0,1-.717.745m-5.663-1.322a.418.418,0,0,0-.409.425v.152a.418.418,0,0,0,.409.425h5.663a.418.418,0,0,0,.409-.425V53.8a.418.418,0,0,0-.409-.425Z" transform="translate(-22.374 -3.665)" fill="#3c2355"/>
            <path id="Trazado_642595" data-name="Trazado 642595" d="M205.814,281.466V295.4l-11.565-2.571-.222-4.461-.073-1.435-.181-3.574-.1-1.9Z" transform="translate(-20.203 -19.445)" fill="#f7bfb2"/>
            <path id="Trazado_642596" data-name="Trazado 642596" d="M194.283,292.759l-.605,15.6h34.784s-2.042-6.3-8.241-6.3c-4.684,0-13.966-2.705-14.405-9.3Z" transform="translate(-20.203 -20.225)" fill="#3c2355"/>
            <path id="Trazado_642597" data-name="Trazado 642597" d="M165.821,278.865l-.6,6.718-.337,3.747-.305,3.412-11.284-3.678v-.019l.194-4.872.039-1.009.142-3.574.073-1.9Z" transform="translate(-15.99 -19.184)" fill="#f7bfb2"/>
            <path id="Trazado_642598" data-name="Trazado 642598" d="M153.18,289l-2,15.474,34.634,3.362s-1.469-6.475-7.641-7.073c-4.665-.453-13.664-4.043-13.512-10.648Z" transform="translate(-15.77 -19.965)" fill="#3c2355"/>
            <g id="Grupo_1075205" data-name="Grupo 1075205" transform="translate(137.496 258.505)" opacity="0.41">
              <g id="Grupo_1075204" data-name="Grupo 1075204">
                <g id="Grupo_1075203" data-name="Grupo 1075203" clip-path="url(#clip-path-3)">
                  <path id="Trazado_642599" data-name="Trazado 642599" d="M153.761,277.689l12.082,1.176-.6,6.718-11.732-1.41.039-1.009.142-3.574Z" transform="translate(-153.508 -277.689)" fill="#fc9090"/>
                </g>
              </g>
            </g>
            <g id="Grupo_1075208" data-name="Grupo 1075208" transform="translate(173.474 262.021)" opacity="0.41">
              <g id="Grupo_1075207" data-name="Grupo 1075207">
                <g id="Grupo_1075206" data-name="Grupo 1075206" clip-path="url(#clip-path-4)">
                  <path id="Trazado_642600" data-name="Trazado 642600" d="M205.814,281.953V287.7l-11.787.671-.073-1.435-.181-3.574-.1-1.9h6.592Z" transform="translate(-193.677 -281.466)" fill="#fc9090"/>
                </g>
              </g>
            </g>
            <path id="Trazado_642601" data-name="Trazado 642601" d="M167.676,279.009l-14.154-1.374-.231-65.972,16.951-14.022,6.408,12.384Z" transform="translate(-15.99 -13.654)" fill="#6e4e93"/>
            <path id="Trazado_642602" data-name="Trazado 642602" d="M155.394,303.579h-1.47l-29.111-80h10.712Z" transform="translate(-13.019 -15.445)" fill="#3c2355"/>
            <path id="Trazado_642603" data-name="Trazado 642603" d="M67.143,303.579h1.471l29.11-80H87.011Z" transform="translate(-7.004 -15.445)" fill="#3c2355"/>
            <path id="Trazado_642604" data-name="Trazado 642604" d="M138.828,222.6H76.019a4.566,4.566,0,0,1-4.475-4.651v-3.591a4.566,4.566,0,0,1,4.475-4.652h62.809a4.565,4.565,0,0,1,4.475,4.652v3.591a4.565,4.565,0,0,1-4.475,4.651" transform="translate(-7.463 -14.487)" fill="#dcd3d8"/>
            <path id="Trazado_642605" data-name="Trazado 642605" d="M109.214,213.358,78.1,217.722a7.026,7.026,0,0,1-7.842-6.211L65.335,173.6c-1.9-14.641,7.979-28.113,22.065-30.089l12.515-1.755a7.024,7.024,0,0,1,7.841,6.211l7.432,57.244a7.2,7.2,0,0,1-5.975,8.149" transform="translate(-6.791 -9.788)" fill="#dcd3d8"/>
            <path id="Trazado_642606" data-name="Trazado 642606" d="M94.536,198.2s6.045,10.129,40.147,10.129h32.6l14.92,71.133H196.26s-1.908-75.011-12.422-85.33c-7.827-7.683-59.056-14.695-59.056-14.695s-23.67,1.031-25.888,6.8S94.536,198.2,94.536,198.2" transform="translate(-9.861 -12.397)" fill="#7e57a4"/>
            <path id="Trazado_642607" data-name="Trazado 642607" d="M182.038,279.489l-14.894-71.007h-32.48c-17.642,0-27.641-2.761-32.922-5.076-5.753-2.524-7.294-5.023-7.356-5.128l-.039-.065.024-.073c.021-.062,2.167-6.259,4.36-11.967,2.229-5.8,25.053-6.859,26.024-6.9l.013.319c-.236.01-23.6,1.092-25.752,6.7-2.058,5.356-4.074,11.145-4.329,11.878.59.842,7.777,9.992,39.976,9.992h32.728l.026.126,14.92,71.133Z" transform="translate(-9.841 -12.385)" fill="#fff"/>
            <path id="Trazado_642608" data-name="Trazado 642608" d="M213.693,90.488c-1.447.718-7.255,2.6-10.375,3.585v0c-1.2.379-2.005.628-2.005.628l-5.184-1.836a11.832,11.832,0,0,1,2.214-3.1,6.448,6.448,0,0,1,2.97-1.763c3.313-.794,7.033-1.587,7.033-1.587s1.433.693,0,1.587a25.593,25.593,0,0,1-3.244,1.637s6.968-1.37,8.591-2.246,2.863-2.864,3.723-2.864-1.718,4.959-3.723,5.954" transform="translate(-20.458 -5.84)" fill="#f7bfb2"/>
            <g id="Grupo_1075211" data-name="Grupo 1075211" transform="translate(175.671 83.93)" opacity="0.41">
              <g id="Grupo_1075210" data-name="Grupo 1075210">
                <g id="Grupo_1075209" data-name="Grupo 1075209" clip-path="url(#clip-path-5)">
                  <path id="Trazado_642609" data-name="Trazado 642609" d="M203.319,94.462v0c-1.2.379-2.005.627-2.005.627l-5.184-1.836a11.832,11.832,0,0,1,2.214-3.1Z" transform="translate(-196.129 -90.159)" fill="#fc9090"/>
                </g>
              </g>
            </g>
            <path id="Trazado_642610" data-name="Trazado 642610" d="M196.159,95.045l-16.822,32.248a8.717,8.717,0,0,1-5.361,4.49,8.3,8.3,0,0,1-2.29.321,8.392,8.392,0,0,1-4.066-1.057l-5.7-3.163-.017-.01-19.546-10.838-7.343-4.071-1.467-.815,2.529-16.643a27.031,27.031,0,0,1,5.853,2.189l.021.011.74.491,25.642,17a1.694,1.694,0,0,0,2.217-.437L189.045,90Z" transform="translate(-13.93 -6.217)" fill="#fff"/>
            <path id="Trazado_642611" data-name="Trazado 642611" d="M162.068,129l-19.546-10.837L135.18,114.1a36.6,36.6,0,0,1,5.927-7.732,18.817,18.817,0,0,0,7.517,12.142c7.578,5.349,8.347,7.664,13.444,10.5" transform="translate(-14.101 -7.348)" fill="#e0e9e9"/>
            <path id="Trazado_642612" data-name="Trazado 642612" d="M137.463,117.3a66.494,66.494,0,0,1-3.151,15.965C129.455,146.726,132,172.071,132,172.071c-25.909,5.095-38.286,20.217-38.286,20.217-9.251-9.376-8.622-70.266-2.543-85.351,6.9-17.13,23.712-12.622,23.712-12.622a54.579,54.579,0,0,1,16.3,1.454,26.891,26.891,0,0,1,5.853,2.189l.021.011a8.236,8.236,0,0,1,.735.433s0,.018,0,.058a137.375,137.375,0,0,1-.333,18.839" transform="translate(-9.041 -6.479)" fill="#fff"/>
            <path id="Trazado_642613" data-name="Trazado 642613" d="M139.987,133.663l-.288-.113a65.437,65.437,0,0,0,3.141-15.924,138.054,138.054,0,0,0,.333-18.814c0-.046,0-.068,0-.068h.308a.431.431,0,0,0,0,.044,138.377,138.377,0,0,1-.333,18.87,65.761,65.761,0,0,1-3.16,16.006" transform="translate(-14.572 -6.822)" fill="#7acbc5"/>
            <path id="Trazado_642614" data-name="Trazado 642614" d="M100.1,188.365c-5.963-19.362-6.012-38.427-5-51.01a134.515,134.515,0,0,1,3.654-22.9l.3.088A134.233,134.233,0,0,0,95.4,137.39c-1,12.552-.956,31.568,4.991,50.878Z" transform="translate(-9.868 -7.907)" fill="#7acbc5"/>
            <path id="Trazado_642615" data-name="Trazado 642615" d="M186.284,169.354c-.837.209-2.485-1.421-4.261-1.886s-8.855-.112-8.855-.112a25.333,25.333,0,0,1,3.522.811c1.593.523.354,1.543.354,1.543s-3.8.127-7.2.152a5.8,5.8,0,0,1-2.38-.526l-.014-.007a8.1,8.1,0,0,1-1.207-.664,11.938,11.938,0,0,1-2.207-1.9c-.208-.231-.319-.375-.319-.375l.919-.6,3.71-2.434s.7.039,1.787.112c3.168.2,9.58.645,11.2,1,2.172.479,5.788,4.684,4.951,4.89" transform="translate(-17.078 -11.285)" fill="#f7bfb2"/>
            <g id="Grupo_1075214" data-name="Grupo 1075214" transform="translate(146.961 152.065)" opacity="0.41">
              <g id="Grupo_1075213" data-name="Grupo 1075213">
                <g id="Grupo_1075212" data-name="Grupo 1075212" clip-path="url(#clip-path-6)">
                  <path id="Trazado_642616" data-name="Trazado 642616" d="M170.173,163.462l-2.668,5.875-.014-.007-1.207-.664a11.933,11.933,0,0,1-2.207-1.9l.6-.977,3.709-2.434s.7.04,1.787.112" transform="translate(-164.076 -163.35)" fill="#fc9090"/>
                </g>
              </g>
            </g>
            <path id="Trazado_642617" data-name="Trazado 642617" d="M99.058,98.127s8.253-7.222,16.81,10.088c7.145,14.453,12.8,24.633,14.471,27.6a4.261,4.261,0,0,0,1.332,1.446L162.246,157.8l-4.337,7.754L119.767,146.3a4.233,4.233,0,0,1-1.681-1.549c-2.869-4.631-14.71-23.79-19.027-31.49-1.833-3.269-5.589-10.8,0-15.138" transform="translate(-10.026 -6.676)" fill="#fff"/>
            <path id="Trazado_642618" data-name="Trazado 642618" d="M157.824,165.688l-38.142-19.253a4.368,4.368,0,0,1-1.743-1.606c-3.389-5.47-14.777-23.908-19.032-31.5-3.971-7.081-3.956-12.244.041-15.346a7.232,7.232,0,0,1,6-1.366c3.958.827,7.672,4.7,11.039,11.51,7.171,14.506,12.886,24.786,14.467,27.59a4.122,4.122,0,0,0,1.284,1.394l30.575,20.541-.167.269L131.57,137.384a4.452,4.452,0,0,1-1.381-1.5c-1.582-2.807-7.3-13.093-14.475-27.607-3.32-6.716-6.96-10.531-10.821-11.34a7.064,7.064,0,0,0-5.754,1.3c-3.858,2.994-3.844,8.017.034,14.935,4.251,7.582,15.636,26.015,19.024,31.484a4.052,4.052,0,0,0,1.619,1.491L157.958,165.4Z" transform="translate(-10.008 -6.664)" fill="#7acbc5"/>
            <path id="Trazado_642619" data-name="Trazado 642619" d="M138.9,60.759s4.776,1.821,6.982-2.576a5.624,5.624,0,0,0-1.046-7.035s3.578-5.4-.976-8.537S129.1,43.1,125.718,46.67c0,0-6.582-3.942-11.979,5.049s1.057,16.19,1.672,20.146,2.542,5.629,2.542,5.629Z" transform="translate(-11.641 -2.861)" fill="#ead86a"/>
            <path id="Trazado_642620" data-name="Trazado 642620" d="M116.7,92.589a13.878,13.878,0,0,0,6.291,4.034c5.145,1.206,8.652-2.923,8.652-2.923l1.481-8.629.605-2.364-1.1-1.427s-.376-.38-.99-.98c-2.894-2.808-11.1-10.45-11.093-6.738A9.639,9.639,0,0,1,119.46,78.4a4.264,4.264,0,0,1-.975,1.244Z" transform="translate(-12.173 -5.013)" fill="#f7bfb2"/>
            <g id="Grupo_1075217" data-name="Grupo 1075217" transform="translate(107.287 67.551)" opacity="0.51">
              <g id="Grupo_1075216" data-name="Grupo 1075216">
                <g id="Grupo_1075215" data-name="Grupo 1075215" clip-path="url(#clip-path-7)">
                  <path id="Trazado_642621" data-name="Trazado 642621" d="M119.782,78.4c3.773,4.614,11.185,6.24,13.664,6.667l.605-2.364c-.339-.718-1.644-1.49-2.089-2.406-2.894-2.808-11.1-10.45-11.093-6.738a9.644,9.644,0,0,1-1.087,4.841" transform="translate(-119.782 -72.564)" fill="#fc9090"/>
                </g>
              </g>
            </g>
            <path id="Trazado_642622" data-name="Trazado 642622" d="M141.618,57.156S141.193,81,137.007,82.59,123,80.86,120.287,71.7c0,0-4.313-4.064-3.482-7.462.595-2.432,3.543-.182,3.543-.182s1.368-4.1,1.992-5.9,11.459,4.873,19.278-.994" transform="translate(-12.173 -3.949)" fill="#f7bfb2"/>
            <g id="Grupo_1075220" data-name="Grupo 1075220" transform="translate(105.267 60.653)" opacity="0.51">
              <g id="Grupo_1075219" data-name="Grupo 1075219">
                <g id="Grupo_1075218" data-name="Grupo 1075218" clip-path="url(#clip-path-8)">
                  <path id="Trazado_642623" data-name="Trazado 642623" d="M120.222,66.62l-.493,2.536s-3.2-3.01-1.888-3.816,2.381,1.28,2.381,1.28" transform="translate(-117.526 -65.154)" fill="#fc9090"/>
                </g>
              </g>
            </g>
            <path id="Trazado_642624" data-name="Trazado 642624" d="M129.475,66.976c.035.755.528,1.343,1.1,1.314a1.245,1.245,0,0,0,.971-1.422c-.037-.755-.529-1.343-1.1-1.314a1.242,1.242,0,0,0-.971,1.421" transform="translate(-13.505 -4.529)" fill="#3c2355"/>
            <path id="Trazado_642625" data-name="Trazado 642625" d="M130.54,67.179c.022.465.326.827.678.809a.766.766,0,0,0,.6-.875c-.022-.465-.325-.827-.678-.808a.765.765,0,0,0-.6.874" transform="translate(-13.617 -4.581)" fill="#f7bfb2"/>
            <path id="Trazado_642626" data-name="Trazado 642626" d="M139.326,66.487c.036.755.529,1.343,1.1,1.314a1.245,1.245,0,0,0,.971-1.422c-.037-.755-.529-1.343-1.1-1.314a1.244,1.244,0,0,0-.971,1.421" transform="translate(-14.533 -4.495)" fill="#3c2355"/>
            <path id="Trazado_642627" data-name="Trazado 642627" d="M140.392,66.69c.022.465.326.827.678.809a.766.766,0,0,0,.6-.875c-.022-.465-.325-.827-.678-.809a.767.767,0,0,0-.6.875" transform="translate(-14.644 -4.547)" fill="#f7bfb2"/>
            <path id="Trazado_642628" data-name="Trazado 642628" d="M131.584,63.392s-1.726-1.53-3.561.576" transform="translate(-13.354 -4.342)" fill="#3c2355"/>
            <path id="Trazado_642629" data-name="Trazado 642629" d="M139.145,62.923a1.883,1.883,0,0,1,2.76.362" transform="translate(-14.514 -4.315)" fill="#3c2355"/>
            <path id="Trazado_642630" data-name="Trazado 642630" d="M136.842,66.46s.179.556.488,1.375.751,1.9,1.274,2.944c.13.262.274.516.423.763a2.5,2.5,0,0,1,.384.7.631.631,0,0,1-.288.59,2.393,2.393,0,0,1-.588.317,6.772,6.772,0,0,1-.975.286c-.241.051-.382.074-.382.074s.142,0,.388-.034a5.273,5.273,0,0,0,1.006-.216,2.439,2.439,0,0,0,.635-.3.98.98,0,0,0,.283-.3.663.663,0,0,0,.085-.445,2.467,2.467,0,0,0-.4-.771c-.144-.243-.276-.5-.411-.755-.266-.513-.511-1.04-.734-1.536s-.43-.962-.609-1.36l-.583-1.333" transform="translate(-14.274 -4.591)" fill="#3c2355"/>
            <path id="Trazado_642631" data-name="Trazado 642631" d="M138.807,77.452l-5.81.3s2.9,4.066,5.81-.3" transform="translate(-13.873 -5.351)" fill="#fff"/>
            <path id="Trazado_642632" data-name="Trazado 642632" d="M136.089,55.263l-.038-.317a12.279,12.279,0,0,0,9.8-7.131l.286.116a12.591,12.591,0,0,1-10.05,7.332" transform="translate(-14.192 -3.303)" fill="#fff"/>
            <path id="Trazado_642633" data-name="Trazado 642633" d="M133.819,53.614a16.783,16.783,0,0,1-3.918-.489l.069-.312c6.925,1.662,10.266-1.5,10.3-1.533l.21.233c-.027.027-2.21,2.1-6.661,2.1" transform="translate(-13.55 -3.543)" fill="#fff"/>
            <path id="Trazado_642634" data-name="Trazado 642634" d="M190.569,166.6h47.2a4.3,4.3,0,0,0,3.494-2.476l12.68-28.262c.614-1.368.044-2.476-1.272-2.476h-47.2a4.3,4.3,0,0,0-3.494,2.476L189.3,164.121c-.614,1.368-.044,2.476,1.272,2.476" transform="translate(-19.72 -9.215)" fill="#7e57a4"/>
            <path id="Trazado_642635" data-name="Trazado 642635" d="M198.495,160.274h14.946a1.562,1.562,0,0,0,1.27-.9l9.192-20.487c.223-.5.016-.9-.462-.9H208.494a1.562,1.562,0,0,0-1.27.9l-9.192,20.487c-.223.5-.016.9.462.9" transform="translate(-20.647 -9.533)" fill="#daebeb"/>
            <path id="Trazado_642636" data-name="Trazado 642636" d="M232.135,142.361h18.2a1.172,1.172,0,0,0,.953-.676c.167-.372.012-.675-.347-.675h-18.2a1.173,1.173,0,0,0-.953.675c-.167.373-.013.676.347.676" transform="translate(-24.171 -9.742)" fill="#7acbc5"/>
            <path id="Trazado_642637" data-name="Trazado 642637" d="M230.781,145.263h18.2a1.173,1.173,0,0,0,.953-.675c.167-.373.012-.676-.348-.676H231.387a1.172,1.172,0,0,0-.953.676c-.167.372-.013.675.347.675" transform="translate(-24.03 -9.942)" fill="#7acbc5"/>
            <path id="Trazado_642638" data-name="Trazado 642638" d="M233.544,139.338h18.2a1.172,1.172,0,0,0,.953-.676c.167-.372.012-.675-.348-.675H234.15a1.173,1.173,0,0,0-.953.675c-.167.373-.013.676.347.676" transform="translate(-24.318 -9.533)" fill="#7acbc5"/>
            <path id="Trazado_642639" data-name="Trazado 642639" d="M241.233,161.066h-18.2a.545.545,0,0,1-.487-.249.7.7,0,0,1,0-.653l5.5-12.269a1.319,1.319,0,0,1,1.092-.768h18.2a.545.545,0,0,1,.487.249.7.7,0,0,1,0,.654L242.325,160.3a1.318,1.318,0,0,1-1.092.768m-12.084-13.62a1.024,1.024,0,0,0-.814.583l-5.5,12.269a.383.383,0,0,0-.021.347.255.255,0,0,0,.228.1h18.2a1.023,1.023,0,0,0,.814-.583l5.5-12.269a.391.391,0,0,0,.021-.348.258.258,0,0,0-.228-.1Z" transform="translate(-23.206 -10.164)" fill="#3c2355"/>
            <path id="Trazado_642640" data-name="Trazado 642640" d="M251.721,139.486h-18.2a.545.545,0,0,1-.487-.249.7.7,0,0,1,0-.654,1.32,1.32,0,0,1,1.092-.767h18.2a.545.545,0,0,1,.487.249.7.7,0,0,1,0,.654,1.322,1.322,0,0,1-1.093.768m-17.589-1.351a1.022,1.022,0,0,0-.813.583.383.383,0,0,0-.021.347.255.255,0,0,0,.228.1h18.2a1.024,1.024,0,0,0,.814-.584.386.386,0,0,0,.021-.347.257.257,0,0,0-.228-.1Z" transform="translate(-24.3 -9.521)" fill="#3c2355"/>
            <path id="Trazado_642641" data-name="Trazado 642641" d="M250.311,142.508h-18.2a.545.545,0,0,1-.487-.249.7.7,0,0,1,0-.654,1.319,1.319,0,0,1,1.092-.768h18.2a.544.544,0,0,1,.487.249.7.7,0,0,1,0,.654,1.323,1.323,0,0,1-1.093.767m-17.589-1.351a1.024,1.024,0,0,0-.814.584.383.383,0,0,0-.02.347.257.257,0,0,0,.228.1h18.2a1.024,1.024,0,0,0,.814-.583.386.386,0,0,0,.021-.347.256.256,0,0,0-.228-.1Z" transform="translate(-24.153 -9.73)" fill="#3c2355"/>
            <path id="Trazado_642642" data-name="Trazado 642642" d="M248.958,145.41h-18.2a.545.545,0,0,1-.487-.249.7.7,0,0,1,0-.654,1.319,1.319,0,0,1,1.092-.768h18.2a.544.544,0,0,1,.487.249.7.7,0,0,1,0,.654,1.319,1.319,0,0,1-1.092.768m-17.589-1.351a1.022,1.022,0,0,0-.813.583.382.382,0,0,0-.021.348.257.257,0,0,0,.228.1h18.2a1.022,1.022,0,0,0,.813-.583.386.386,0,0,0,.021-.348.257.257,0,0,0-.228-.1Z" transform="translate(-24.012 -9.93)" fill="#3c2355"/>
            <path id="Trazado_642643" data-name="Trazado 642643" d="M214.768,166.248h-20.9a.545.545,0,0,1-.488-.249.7.7,0,0,1,0-.654,1.321,1.321,0,0,1,1.093-.768h20.9a.546.546,0,0,1,.488.249.7.7,0,0,1,0,.654,1.322,1.322,0,0,1-1.093.768m-20.3-1.351a1.02,1.02,0,0,0-.813.583.385.385,0,0,0-.022.347.258.258,0,0,0,.229.1h20.9a1.026,1.026,0,0,0,.815-.584A.385.385,0,0,0,215.6,165a.256.256,0,0,0-.228-.1Z" transform="translate(-20.163 -11.37)" fill="#3c2355"/>
            <path id="Trazado_642644" data-name="Trazado 642644" d="M213.422,160.423H198.477a.678.678,0,0,1-.606-.307.881.881,0,0,1,0-.821l9.192-20.487a1.706,1.706,0,0,1,1.41-.992h14.946a.676.676,0,0,1,.606.307.877.877,0,0,1-.005.82l-9.192,20.487a1.706,1.706,0,0,1-1.41.993m-4.946-22.288a1.421,1.421,0,0,0-1.131.808l-9.192,20.487a.567.567,0,0,0-.024.515.389.389,0,0,0,.348.158h14.945a1.418,1.418,0,0,0,1.131-.808l9.192-20.487a.565.565,0,0,0,.025-.514.387.387,0,0,0-.348-.159Z" transform="translate(-20.63 -9.521)" fill="#3c2355"/>
            <path id="Trazado_642645" data-name="Trazado 642645" d="M193.241,166.6h47.2a4.3,4.3,0,0,0,3.494-2.476l12.68-28.262c.614-1.368.044-2.476-1.272-2.476h-47.2a4.3,4.3,0,0,0-3.494,2.476l-12.68,28.262c-.614,1.368-.044,2.476,1.272,2.476" transform="translate(-19.999 -9.215)" fill="#dcd3d8"/>
            <path id="Trazado_642646" data-name="Trazado 642646" d="M172.684,172.177h64.874a1.558,1.558,0,0,0,0-3.114H172.684a1.558,1.558,0,0,0,0,3.114" transform="translate(-17.856 -11.68)" fill="#dcd3d8"/>
            <path id="Trazado_642647" data-name="Trazado 642647" d="M248.219,182.6H10.8a3.607,3.607,0,0,1-3.536-3.675v-2.837a3.607,3.607,0,0,1,3.536-3.674H248.219a3.607,3.607,0,0,1,3.536,3.674v2.837a3.608,3.608,0,0,1-3.536,3.675" transform="translate(-0.758 -11.911)" fill="#3c2355"/>
            <path id="Trazado_642648" data-name="Trazado 642648" d="M35.192,300.633h2.316l10.145-119.7H40.671Z" transform="translate(-3.671 -12.499)" fill="#3c2355"/>
            <path id="Trazado_642649" data-name="Trazado 642649" d="M249.5,300.633h-2.316l-10.145-119.7h6.982Z" transform="translate(-24.726 -12.499)" fill="#3c2355"/>
            <path id="Trazado_642650" data-name="Trazado 642650" d="M22.415,272.311S3.455,240.7,10.829,231.756c2.776-3.366,18.489,8.537,4.742-22.419-3.817-8.6.3-11.919,3.817-9.8,3.708,2.234,7.371,6.227,7.727-4.387.693-20.688,6.5-24.226,11.357-19.9,9.024,8.028-9.369,46.825-1.041,38.744s19.068-8.168,5.371,16.4-1.05,40.163-20.386,41.921" transform="translate(-0.952 -11.995)" fill="#67aba6"/>
            <path id="Trazado_642651" data-name="Trazado 642651" d="M53.636,227.383c4.845-1.8,13.127-2.838,12.077,1.528s-8.4,5.677-8.4,8.514,8.682,1.092,7.492,6.112-13.793,5.429-16.1,7.627-1.05,4.6,4.936,5.471-.1,10.188-15.648,18.847l-14.166.437s-3.267-21.03.933-26.706,5.672,2.276,8.612-4.1S46.6,230,53.636,227.383" transform="translate(-2.359 -15.601)" fill="#7acbc5"/>
            <path id="Trazado_642652" data-name="Trazado 642652" d="M35.031,276.564l.42,0c0-.3-.08-30.147,16.889-34.679l-.1-.424c-7.163,1.914-12.41,8.6-15.172,19.338a69.157,69.157,0,0,0-2.033,15.77" transform="translate(-3.654 -16.681)" fill="#7e57a4"/>
            <path id="Trazado_642653" data-name="Trazado 642653" d="M35.451,276.516c.82-12.567,16.525-14.411,16.683-14.428l-.043-.434c-.162.018-16.216,1.9-17.059,14.832Z" transform="translate(-3.654 -18.076)" fill="#7e57a4"/>
            <path id="Trazado_642654" data-name="Trazado 642654" d="M38.832,308.5H21.02L15.7,279.169H44.152Z" transform="translate(-1.638 -19.286)" fill="#e1eaea"/>
            <path id="Trazado_642655" data-name="Trazado 642655" d="M118.274,171.114h7.606l.94-1.927a12.448,12.448,0,0,0,1.252-5.45v-8.033h-11.99v8.033a12.436,12.436,0,0,0,1.253,5.45Z" transform="translate(-12.109 -10.757)" fill="#7acbc5"/>
            <path id="Trazado_642656" data-name="Trazado 642656" d="M111.628,159.852A3.992,3.992,0,1,1,115.617,164a4.075,4.075,0,0,1-3.989-4.146m.774,0a3.218,3.218,0,1,0,3.216-3.343,3.284,3.284,0,0,0-3.216,3.343" transform="translate(-11.644 -10.757)" fill="#7acbc5"/>
            <path id="Trazado_642657" data-name="Trazado 642657" d="M231.532,152.73h-9.973c-1.083,0-1.647-.921-1.252-2.047a3.139,3.139,0,0,1,2.686-2.047h9.973c1.083,0,1.646.922,1.252,2.047a3.139,3.139,0,0,1-2.686,2.047" transform="translate(-22.967 -10.268)" fill="#fff"/>
            <path id="Trazado_642658" data-name="Trazado 642658" d="M261.761,83.238l-5.184,1.836s-.367-.115-.978-.3c-2.631-.833-9.775-3.108-11.4-3.916-2-.991-4.581-5.95-3.723-5.95s2.1,1.984,3.723,2.864,8.591,2.247,8.591,2.247a25.663,25.663,0,0,1-3.244-1.637c-1.433-.895,0-1.587,0-1.587s3.72.794,7.033,1.587A6.7,6.7,0,0,1,259.8,80.4a11.932,11.932,0,0,1,1.957,2.838" transform="translate(-25.066 -5.175)" fill="#f7bfb2"/>
            <g id="Grupo_1075223" data-name="Grupo 1075223" transform="translate(230.533 75.225)" opacity="0.41">
              <g id="Grupo_1075222" data-name="Grupo 1075222">
                <g id="Grupo_1075221" data-name="Grupo 1075221" clip-path="url(#clip-path-9)">
                  <path id="Trazado_642659" data-name="Trazado 642659" d="M263.542,83.646l-5.184,1.836s-.367-.115-.978-.3l4.205-4.371a11.932,11.932,0,0,1,1.957,2.838" transform="translate(-257.38 -80.808)" fill="#fc9090"/>
                </g>
              </g>
            </g>
            <path id="Trazado_642660" data-name="Trazado 642660" d="M354.309,295.25v12.733h21.763s.288-4.195-4.756-6.367-6.483-7.715-6.124-9.662-10.884,3.3-10.884,3.3" transform="translate(-36.958 -20.139)" fill="#3c2355"/>
            <path id="Trazado_642661" data-name="Trazado 642661" d="M276.7,308.281h26.952l-.577-12.733h-9.8s.864,2.547-5.766,4.345-9.944,4.494-10.809,8.389" transform="translate(-28.863 -20.418)" fill="#3c2355"/>
            <path id="Trazado_642662" data-name="Trazado 642662" d="M360,284.84H347.16L331.547,172.687,306.217,284.48H293.378c-.485-43.1,8.772-97.216,14.393-125.908.7-3.574,1.344-6.758,1.905-9.473.8-3.856,1.43-6.77,1.822-8.544.181-.822.313-1.4.382-1.713.042-.183.063-.277.063-.277s37.946-17.112,43.567-.494v0c.035.1.066.206.1.31.021.058.038.119.056.181a66.494,66.494,0,0,1,1.561,10.534c.253,2.712.482,5.791.691,9.17,1.474,23.823,1.939,62.491,2.072,90.829.1,20.6.013,35.743.013,35.743" transform="translate(-30.6 -9.037)" fill="#665b3d"/>
            <path id="Trazado_642663" data-name="Trazado 642663" d="M322.923,142.1a14.9,14.9,0,0,1-11.347,7.721c.8-3.855,1.43-6.769,1.822-8.543Z" transform="translate(-32.501 -9.76)" fill="#67aba6"/>
            <path id="Trazado_642664" data-name="Trazado 642664" d="M334.345,53.185S350.826,54.267,360.2,64s23.768,45.894,23.421,48.1c-.338,2.147-4.94,9.367-33.589,16.23a2.767,2.767,0,0,1-3.273-1.929l-1.442-4.674a2.927,2.927,0,0,1,1.417-3.47l20.752-10.621-14.4-24.7L352.041,133.2H308.32L305.2,84.211s-11.493,26.314-17.349,26.314c-4.337,0-21.859-18.084-28.234-23.732a2.964,2.964,0,0,1-.4-3.949l2.117-2.871a2.707,2.707,0,0,1,3.678-.691l19.719,12.85S295.135,64,304.5,60.037a98.335,98.335,0,0,1,18.044-5.589Z" transform="translate(-26.979 -3.674)" fill="#fff"/>
            <path id="Trazado_642665" data-name="Trazado 642665" d="M362.255,135.371l-.308-.007.107-5.179q-.953.237-1.933.472a2.939,2.939,0,0,1-3.454-2.036l-1.442-4.674a3.109,3.109,0,0,1,1.5-3.661l5.6-2.865L363,84.551l14.761,25.323-.15.076-14.988,7.671-.252,12.156c29.035-7.3,31.023-14.693,31.155-15.531l.3.052c-.107.68-.874,3.156-6.251,6.458-5.529,3.4-14,6.538-25.214,9.352Zm.056-17.591-5.455,2.792a2.783,2.783,0,0,0-1.338,3.277l1.442,4.675a2.632,2.632,0,0,0,3.092,1.822q1.025-.246,2.009-.492Zm.973-32.124-.655,31.6,14.694-7.52Z" transform="translate(-37.039 -5.841)" fill="#7acbc5"/>
            <path id="Trazado_642666" data-name="Trazado 642666" d="M360.142,77.591s2.313,10.35,1.618,16.716,1.478,14.383,1.478,14.383l.951-28.433Z" transform="translate(-37.567 -5.36)" fill="#7acbc5"/>
            <path id="Trazado_642667" data-name="Trazado 642667" d="M363.207,149.661c-7.4.573-12.485-7.721-12.485-7.721l10.868-2.994c.021.059.038.119.056.181a66.511,66.511,0,0,1,1.561,10.534" transform="translate(-36.584 -9.599)" fill="#67aba6"/>
            <path id="Trazado_642668" data-name="Trazado 642668" d="M313.409,141.952h44.956l-.611-2.814h-43.72Z" transform="translate(-32.692 -9.612)" fill="#7e57a4"/>
            <rect id="Rectángulo_379606" data-name="Rectángulo 379606" width="8.501" height="2.814" transform="translate(296.782 129.526)" fill="#ead86a"/>
            <rect id="Rectángulo_379607" data-name="Rectángulo 379607" width="1.128" height="3.11" transform="translate(287.211 129.526)" fill="#67aba6"/>
            <path id="Trazado_642737" data-name="Trazado 642737" d="M0,0,32.079-.17l-.25,49.123-32.079.17Z" transform="matrix(0.991, -0.136, 0.136, 0.991, 295.517, 91.475)" fill="#dcd3d8"/>
            <path id="Trazado_642669" data-name="Trazado 642669" d="M361.53,97.06l6.064,45.946-31.759,4.528-6.427-48.7,23.413-3.338.364,2.756Z" transform="translate(-34.361 -6.597)" fill="#fff"/>
            <path id="Trazado_642670" data-name="Trazado 642670" d="M308.149,135.405l-3.083-48.361C303.3,91,293.3,112.88,287.831,112.88c-3.331,0-14.11-10.294-21.98-17.81-2.57-2.454-4.789-4.574-6.354-5.96a3.128,3.128,0,0,1-.424-4.168l.244.195a2.8,2.8,0,0,0,.38,3.73c1.568,1.39,3.79,3.51,6.362,5.967,7.834,7.481,18.561,17.726,21.772,17.726,5.691,0,17.094-25.958,17.209-26.22l.253-.579,3.164,49.623Z" transform="translate(-26.961 -5.868)" fill="#7acbc5"/>
            <path id="Trazado_642671" data-name="Trazado 642671" d="M355.989,131.539a4.648,4.648,0,0,1-.052.664,12.735,12.735,0,0,0-2.409.223c-1.072.177-2.134.418-2.692.57a24.184,24.184,0,0,1-13.4.152c-1.492-.415-1.318-1.331-1.318-1.331s-.77-.479-.774-.937c0-.631.7-.866.7-.866s.2-.851,2.481-1.028,7.051.011,7.4-.75-1.086-.782-1.086-.782-2.387-.1-2.263-1.053c.056-.452,2.224-.361,2.224-.361a30.437,30.437,0,0,1,5.632.073c.867.108,1.6.212,2.03.274l.392.061s1.294.209,1.662.306c.011,0,.021,0,.031.007,1.4.415,1.485,3.422,1.44,4.778" transform="translate(-34.98 -8.701)" fill="#f7bfb2"/>
            <g id="Grupo_1075226" data-name="Grupo 1075226" transform="translate(317.483 117.685)" opacity="0.41">
              <g id="Grupo_1075225" data-name="Grupo 1075225">
                <g id="Grupo_1075224" data-name="Grupo 1075224" clip-path="url(#clip-path-10)">
                  <path id="Trazado_642672" data-name="Trazado 642672" d="M357.982,131.572a4.647,4.647,0,0,1-.052.664,12.737,12.737,0,0,0-2.409.223l-1.065-6.041.392.061s1.294.209,1.662.306Z" transform="translate(-354.457 -126.418)" fill="#fc9090"/>
                </g>
              </g>
            </g>
            <path id="Trazado_642673" data-name="Trazado 642673" d="M343.161,53.185,361.9,82.937l14.4,24.7-20.216,10.346a3.66,3.66,0,0,0-1.771,4.336l1.064,3.45a3.456,3.456,0,0,0,4.091,2.411c28.093-6.818,32.632-13.949,32.967-16.08.347-2.206-14.053-38.364-23.421-48.1s-25.85-10.819-25.85-10.819" transform="translate(-35.795 -3.674)" fill="#fff"/>
            <path id="Trazado_642674" data-name="Trazado 642674" d="M316.6,19.345s-4.776,1.821-6.982-2.576a5.624,5.624,0,0,1,1.046-7.035s-3.578-5.4.976-8.537,14.755.488,18.137,4.06c0,0,6.582-3.943,11.979,5.048s-1.057,16.19-1.672,20.147-2.542,5.628-2.542,5.628Z" transform="translate(-32.216 0)" fill="#3c2355"/>
            <path id="Trazado_642675" data-name="Trazado 642675" d="M340.89,51.8a18.243,18.243,0,0,1-6.291,3.412,9.638,9.638,0,0,1-8.421-1.576l-1.713-9.976-.605-2.364,1.1-1.427s.376-.379.99-.979c2.894-2.808,11.1-10.45,11.093-6.739a9.646,9.646,0,0,0,1.087,4.842,4.281,4.281,0,0,0,.975,1.244Z" transform="translate(-33.782 -2.152)" fill="#f7bfb2"/>
            <g id="Grupo_1075229" data-name="Grupo 1075229" transform="translate(290.077 28.998)" opacity="0.51">
              <g id="Grupo_1075228" data-name="Grupo 1075228">
                <g id="Grupo_1075227" data-name="Grupo 1075227" clip-path="url(#clip-path-7)">
                  <path id="Trazado_642676" data-name="Trazado 642676" d="M338.128,36.989c-3.773,4.614-11.185,6.24-13.664,6.667l-.605-2.364c.339-.718,1.644-1.49,2.089-2.406,2.894-2.808,11.1-10.45,11.093-6.739a9.636,9.636,0,0,0,1.087,4.842" transform="translate(-323.859 -31.15)" fill="#fc9090"/>
                </g>
              </g>
            </g>
            <path id="Trazado_642677" data-name="Trazado 642677" d="M315.052,15.741s.425,23.841,4.612,25.434,14.008-1.731,16.718-10.895c0,0,4.313-4.064,3.482-7.462-.595-2.432-3.543-.182-3.543-.182s-1.368-4.1-1.992-5.9-11.459,4.873-19.277-.994" transform="translate(-32.863 -1.087)" fill="#f7bfb2"/>
            <g id="Grupo_1075232" data-name="Grupo 1075232" transform="translate(303.671 22.1)" opacity="0.51">
              <g id="Grupo_1075231" data-name="Grupo 1075231">
                <g id="Grupo_1075230" data-name="Grupo 1075230" clip-path="url(#clip-path-8)">
                  <path id="Trazado_642678" data-name="Trazado 642678" d="M339.036,25.205l.494,2.536s3.2-3.01,1.887-3.816-2.381,1.28-2.381,1.28" transform="translate(-339.036 -23.74)" fill="#fc9090"/>
                </g>
              </g>
            </g>
            <path id="Trazado_642679" data-name="Trazado 642679" d="M329.856,25.562c-.037.755-.529,1.343-1.1,1.314a1.245,1.245,0,0,1-.971-1.422c.037-.755.529-1.343,1.1-1.314a1.245,1.245,0,0,1,.972,1.421" transform="translate(-34.191 -1.668)" fill="#3c2355"/>
            <path id="Trazado_642680" data-name="Trazado 642680" d="M328.883,25.765c-.022.465-.326.827-.678.809a.766.766,0,0,1-.6-.875c.022-.465.326-.827.678-.809a.767.767,0,0,1,.6.875" transform="translate(-34.173 -1.719)" fill="#f7bfb2"/>
            <path id="Trazado_642681" data-name="Trazado 642681" d="M320,25.073c-.036.755-.529,1.343-1.1,1.314a1.245,1.245,0,0,1-.971-1.422c.037-.755.529-1.343,1.1-1.314A1.244,1.244,0,0,1,320,25.073" transform="translate(-33.163 -1.634)" fill="#3c2355"/>
            <path id="Trazado_642682" data-name="Trazado 642682" d="M319.031,25.276c-.022.465-.326.827-.678.809a.766.766,0,0,1-.6-.875c.022-.465.326-.827.678-.809a.767.767,0,0,1,.6.875" transform="translate(-33.145 -1.686)" fill="#f7bfb2"/>
            <path id="Trazado_642683" data-name="Trazado 642683" d="M327.573,21.978s1.726-1.53,3.561.576" transform="translate(-34.169 -1.481)" fill="#3c2355"/>
            <path id="Trazado_642684" data-name="Trazado 642684" d="M320.106,21.509a1.883,1.883,0,0,0-2.76.362" transform="translate(-33.102 -1.454)" fill="#3c2355"/>
            <path id="Trazado_642685" data-name="Trazado 642685" d="M322.412,25.046s-.18.556-.489,1.375-.75,1.9-1.274,2.944c-.129.263-.274.516-.422.763a2.451,2.451,0,0,0-.384.7.629.629,0,0,0,.287.59,2.388,2.388,0,0,0,.588.317,6.745,6.745,0,0,0,.976.286c.241.051.381.074.381.074s-.142,0-.387-.035a5.221,5.221,0,0,1-1.007-.216,2.452,2.452,0,0,1-.635-.3.981.981,0,0,1-.283-.3.667.667,0,0,1-.085-.445,2.487,2.487,0,0,1,.4-.771c.143-.243.275-.5.41-.755.266-.513.511-1.039.734-1.536s.43-.962.608-1.36l.584-1.333" transform="translate(-33.345 -1.73)" fill="#3c2355"/>
            <path id="Trazado_642686" data-name="Trazado 642686" d="M320.088,36.037l5.81.3s-2.9,4.066-5.81-.3" transform="translate(-33.388 -2.49)" fill="#fff"/>
            <path id="Trazado_642687" data-name="Trazado 642687" d="M322.309,13.849a12.589,12.589,0,0,1-10.05-7.332l.286-.116a12.281,12.281,0,0,0,9.8,7.132Z" transform="translate(-32.572 -0.442)" fill="#fff"/>
            <path id="Trazado_642688" data-name="Trazado 642688" d="M324.521,12.2c-4.452,0-6.634-2.074-6.661-2.1l.211-.233c.033.033,3.377,3.192,10.3,1.533l.069.312a16.778,16.778,0,0,1-3.918.489" transform="translate(-33.156 -0.682)" fill="#fff"/>
            <path id="Trazado_642689" data-name="Trazado 642689" d="M335.2,175.332a.1.1,0,0,0,0-.021l-.58-6.545s-4.209,10.829-4.272,19.528-2.793,11.926-1.689,15.882Z" transform="translate(-34.255 -11.659)" fill="#67aba6"/>
            <path id="Trazado_642690" data-name="Trazado 642690" d="M367.286,293.619H363.3c-.52-5.233,1.561-9.012,1.735-15.143s2.242-20.6,2.242-20.6c.1,20.6.013,35.743.013,35.743" transform="translate(-37.887 -17.815)" fill="#67aba6"/>
            <path id="Trazado_642691" data-name="Trazado 642691" d="M327.923,60.865l6.361-.225-3.47-5.906Z" transform="translate(-34.206 -3.781)" fill="#daebeb"/>
            <path id="Trazado_642692" data-name="Trazado 642692" d="M324.738,55.31l.933-3.865,4.811,2.952,10.071-4.561,1.477,3.19-8.646,6.309-2.9-4.938-1.562,4.938Z" transform="translate(-33.874 -3.443)" fill="#67aba6"/>
            <path id="Trazado_642693" data-name="Trazado 642693" d="M329.7,78.605l-.306-.02,1.441-23.862.307.02Z" transform="translate(-34.359 -3.781)" fill="#7acbc5"/>
            <path id="Trazado_642694" data-name="Trazado 642694" d="M333.7,63.01a.695.695,0,1,1-.694-.721.708.708,0,0,1,.694.721" transform="translate(-34.664 -4.303)" fill="#7acbc5"/>
            <path id="Trazado_642695" data-name="Trazado 642695" d="M333.411,69.789a.695.695,0,1,1-.694-.721.708.708,0,0,1,.694.721" transform="translate(-34.633 -4.772)" fill="#7acbc5"/>
            <path id="Trazado_642696" data-name="Trazado 642696" d="M332.926,77.174a.695.695,0,1,1-.694-.721.708.708,0,0,1,.694.721" transform="translate(-34.583 -5.282)" fill="#7acbc5"/>
            <path id="Trazado_642697" data-name="Trazado 642697" d="M361.876,285.947c-1.2-48.126-10.7-138.249-10.8-139.153l.305-.035c.1.9,9.6,91.042,10.8,139.18Z" transform="translate(-36.621 -10.139)" fill="#fff"/>
            <path id="Trazado_642698" data-name="Trazado 642698" d="M297.131,284.967l-.305-.036C303,228.758,321.4,142.984,321.58,142.124l.3.07c-.185.859-18.576,86.617-24.749,142.774" transform="translate(-30.962 -9.819)" fill="#fff"/>
            <path id="Trazado_642699" data-name="Trazado 642699" d="M374.524,27.59c-.6,0-5.806-1.76-5.806-6.663S373.11,16.9,373.11,16.9s-3.425-6.914,7.34-9.428,23.223,3.646,27.94,20.617,17.814,16.72,20.157,34.445S413.955,84.8,413.955,84.8L394.6,56.378Z" transform="translate(-38.461 -0.479)" fill="#ead86a"/>
            <path id="Trazado_642700" data-name="Trazado 642700" d="M412.693,86.826l-.128.516-.49,1.976-3.609,14.547-2.428,9.788-1.433,5.792-.066.26H373.817s-5.885-20.556-4.844-29.572,3.644-26.271,3.644-26.271l10.843-2.442c6.947-2.763,10.319-2.207,15.3-1.158a36.153,36.153,0,0,1,8.821,2.936,19.031,19.031,0,0,1,4.444,3.014,12.9,12.9,0,0,1,3.22,4.534c3.168,7.634-2.55,16.081-2.55,16.081" transform="translate(-38.475 -4.104)" fill="#7e57a4"/>
            <path id="Trazado_642701" data-name="Trazado 642701" d="M417.073,89.139l-.489,1.976-3.609,14.548c-.746-.188-1.159-1.335-.711-3.575.961-4.811,0-16.672,0-16.672Z" transform="translate(-42.984 -5.901)" fill="#6e4e93"/>
            <path id="Trazado_642702" data-name="Trazado 642702" d="M419.062,292.717v17.968h15.78s-.771-4.97-4.165-7.215c-2.8-1.854-4.148-4.444-3.725-9.9Z" transform="translate(-43.712 -20.222)" fill="#3c2355"/>
            <path id="Trazado_642703" data-name="Trazado 642703" d="M379.351,301.17v10.1h-26.53a11.954,11.954,0,0,1,8.574-5.049,12.816,12.816,0,0,0,8.812-5.049Z" transform="translate(-36.803 -20.806)" fill="#3c2355"/>
            <path id="Trazado_642704" data-name="Trazado 642704" d="M386.4,220l-.1,1.28-1.138,15.19-4.41,58.812-9.147-.5-3.619-58.314-.84-13.535-.874-14.115Z" transform="translate(-38.206 -14.427)" fill="#f7bfb2"/>
            <path id="Trazado_642705" data-name="Trazado 642705" d="M426.337,296.036h-9.184l-12.631-58.811-3.768-17.549v0h20.358l.365,5.309.836,12.243Z" transform="translate(-41.803 -15.176)" fill="#f7bfb2"/>
            <g id="Grupo_1075235" data-name="Grupo 1075235" transform="translate(328.944 206.859)" opacity="0.41">
              <g id="Grupo_1075234" data-name="Grupo 1075234">
                <g id="Grupo_1075233" data-name="Grupo 1075233" clip-path="url(#clip-path-13)">
                  <path id="Trazado_642706" data-name="Trazado 642706" d="M386.405,222.21l-1.138,15.19H368.091l-.839-13.535c4.577.058,10.121.31,10.121.31Z" transform="translate(-367.252 -222.21)" fill="#fc9090"/>
                </g>
              </g>
            </g>
            <g id="Grupo_1075238" data-name="Grupo 1075238" transform="translate(358.951 201.406)" opacity="0.41">
              <g id="Grupo_1075237" data-name="Grupo 1075237">
                <g id="Grupo_1075236" data-name="Grupo 1075236" clip-path="url(#clip-path-14)">
                  <path id="Trazado_642707" data-name="Trazado 642707" d="M422.312,236.995h-17.79l-3.768-17.549.014,0,14.212-3.091,2.391,3.091,4.1,5.308Z" transform="translate(-400.754 -216.352)" fill="#fc9090"/>
                </g>
              </g>
            </g>
            <path id="Trazado_642708" data-name="Trazado 642708" d="M375.748,126.882s-11.1,1.5-11.8,101.393H421.2s.132-91.945-18.738-100.665c-5.89-2.722-10.706-2.373-14.546-2.59-8.458-.477-12.172,1.862-12.172,1.862" transform="translate(-37.964 -8.632)" fill="#af6464"/>
            <path id="Trazado_642709" data-name="Trazado 642709" d="M374.394,124.18l.114,5.5,31.473-.456-.863-5.039Z" transform="translate(-39.053 -8.579)" fill="#ead86a"/>
            <path id="Trazado_642710" data-name="Trazado 642710" d="M413.716,133.412,389.3,138.637a2.692,2.692,0,0,1-3.173-2.173l-8.507-42.946a2.794,2.794,0,0,1,2.09-3.3l24.417-5.224a2.693,2.693,0,0,1,3.174,2.172l8.506,42.947a2.791,2.791,0,0,1-2.09,3.3" transform="translate(-39.384 -5.868)" fill="#3c2355"/>
            <path id="Trazado_642711" data-name="Trazado 642711" d="M414.76,132.628l-24.417,5.224a2.69,2.69,0,0,1-3.173-2.172l-8.507-42.946a2.793,2.793,0,0,1,2.09-3.3l24.417-5.224a2.691,2.691,0,0,1,3.173,2.172l8.507,42.947a2.792,2.792,0,0,1-2.09,3.3" transform="translate(-39.492 -5.814)" fill="#dcd3d8"/>
            <path id="Trazado_642712" data-name="Trazado 642712" d="M400.764,115.022l-1.174.251a1.554,1.554,0,0,1-1.833-1.255l-.288-1.448a1.613,1.613,0,0,1,1.207-1.906l1.174-.251a1.555,1.555,0,0,1,1.833,1.255l.287,1.448a1.613,1.613,0,0,1-1.207,1.906" transform="translate(-41.457 -7.626)" fill="#fff"/>
            <path id="Trazado_642713" data-name="Trazado 642713" d="M402.954,100.133a25.381,25.381,0,0,1-10.562,8.569c-.219.1-.514.245-.854.418a25.451,25.451,0,0,0-3.075,1.839,6.383,6.383,0,0,0-.534.425,1.755,1.755,0,0,1-.191-.195c-.663-.743-2.929-3.589-1.988-4.955.191-.275,1.131-1.345,1.131-1.345s.531-.595,1.3-1.41l.006-.007c.122-.133.253-.27.389-.414a31.74,31.74,0,0,1,4.358-3.7s1.642-1.478,1.957-1.165c.666.667-1.138,2.29-1.138,2.29s-1.106.945-.378,1.316,4.341-2.867,6.232-4.209,2.554-.808,2.554-.808a.963.963,0,0,1,1.065.223c.274.357-.038,1.233-.038,1.233s.687.606-.233,1.9" transform="translate(-40.214 -6.679)" fill="#f7bfb2"/>
            <g id="Grupo_1075241" data-name="Grupo 1075241" transform="translate(345.311 96.794)" opacity="0.41">
              <g id="Grupo_1075240" data-name="Grupo 1075240">
                <g id="Grupo_1075239" data-name="Grupo 1075239" clip-path="url(#clip-path-15)">
                  <path id="Trazado_642714" data-name="Trazado 642714" d="M391.539,109.625a25.372,25.372,0,0,0-3.074,1.839l-.726.231c-.663-.743-2.929-3.589-1.988-4.955.191-.275,1.131-1.345,1.131-1.345s.531-.595,1.3-1.41l.007-.007Z" transform="translate(-385.525 -103.977)" fill="#fc9090"/>
                </g>
              </g>
            </g>
            <path id="Trazado_642715" data-name="Trazado 642715" d="M386.937,108.958s-25.454,16.487-30.486,16.779-4.511-5.7-4.511-5.7,4.164-29.572,7.114-41.473,11.8-14.371,11.8-14.371-1.87,12.921-2.783,19.539c-.093.685-.18,1.3-.25,1.828a79.2,79.2,0,0,0-.4,12.456l-2.668,11.126v0l-.32,1.334,19.29-9.016Z" transform="translate(-36.709 -4.435)" fill="#7e57a4"/>
            <path id="Trazado_642716" data-name="Trazado 642716" d="M384.139,45.5l-.082,6.208-.132,9.008c.266,4.275,3.448,4.794,5.53,4.765a12.157,12.157,0,0,0,10.874-6.8l-1.393-15.982a12.373,12.373,0,0,1-3.1-4.692Z" transform="translate(-40.047 -2.626)" fill="#f7bfb2"/>
            <g id="Grupo_1075244" data-name="Grupo 1075244" transform="translate(344.01 35.389)" opacity="0.22" style="mix-blend-mode: multiply;isolation: isolate">
              <g id="Grupo_1075243" data-name="Grupo 1075243">
                <g id="Grupo_1075242" data-name="Grupo 1075242" clip-path="url(#clip-path-16)">
                  <path id="Trazado_642717" data-name="Trazado 642717" d="M384.155,45.5l-.082,6.208c2.635-1.327,12.928-6.987,11.781-13.7Z" transform="translate(-384.073 -38.015)" fill="#fc9090"/>
                </g>
              </g>
            </g>
            <path id="Trazado_642718" data-name="Trazado 642718" d="M390.577,43.115s-9.471,5.466-13.256,3.173-2.282-21.168-1.463-24.528c0,0,7.975,1.853,13.548-.566,0,0,.1,6.595,2.689,9.434,0,0,1.065-4.081,3.439-2.877s2.765,6.83-.794,9.685a7.709,7.709,0,0,1-4.164,5.68" transform="translate(-39.102 -1.464)" fill="#f7bfb2"/>
            <g id="Grupo_1075247" data-name="Grupo 1075247" transform="translate(354.265 27.468)" opacity="0.22" style="mix-blend-mode: multiply;isolation: isolate">
              <g id="Grupo_1075246" data-name="Grupo 1075246">
                <g id="Grupo_1075245" data-name="Grupo 1075245" clip-path="url(#clip-path-17)">
                  <path id="Trazado_642719" data-name="Trazado 642719" d="M397.222,34.479l-1.7-2.181s.324-3.243,1.5-2.739.2,4.92.2,4.92" transform="translate(-395.522 -29.506)" fill="#fc9090"/>
                </g>
              </g>
            </g>
            <path id="Trazado_642720" data-name="Trazado 642720" d="M378.493,29.569a2.014,2.014,0,0,1,.005.362,4.143,4.143,0,0,1-.172.933,5.25,5.25,0,0,1-.213.593c-.085.208-.2.414-.308.631s-.247.427-.394.636-.3.413-.46.619-.331.392-.5.6a2.022,2.022,0,0,0-.375.694.964.964,0,0,0,.085.749,1.632,1.632,0,0,0,.439.481,3.945,3.945,0,0,0,.819.46c.207.089.328.131.328.131l-.312-.166a4.881,4.881,0,0,1-.769-.512,1.516,1.516,0,0,1-.382-.464.854.854,0,0,1-.053-.635,1.847,1.847,0,0,1,.355-.625l.5-.592c.156-.212.323-.416.459-.639s.271-.439.393-.656a5.92,5.92,0,0,0,.481-1.275,3.792,3.792,0,0,0,.11-.959,1.78,1.78,0,0,0-.039-.363" transform="translate(-39.225 -2.043)" fill="#3c2355"/>
            <path id="Trazado_642721" data-name="Trazado 642721" d="M383.3,30.437c-.112.656.164,1.256.616,1.339s.91-.381,1.022-1.036-.164-1.256-.616-1.34-.91.381-1.022,1.037" transform="translate(-39.98 -2.03)" fill="#3c2355"/>
            <path id="Trazado_642722" data-name="Trazado 642722" d="M382.833,31.039c-.078.455.114.872.428.93s.632-.264.709-.721-.114-.871-.428-.929-.631.264-.709.72" transform="translate(-39.932 -2.094)" fill="#f7bfb2"/>
            <path id="Trazado_642723" data-name="Trazado 642723" d="M375.526,29.659c-.042.556.234,1.031.617,1.063s.728-.393.771-.949-.235-1.032-.618-1.063-.728.393-.77.949" transform="translate(-39.171 -1.983)" fill="#3c2355"/>
            <path id="Trazado_642724" data-name="Trazado 642724" d="M375.183,30.2c-.03.386.162.717.429.738s.505-.273.535-.659-.162-.716-.428-.738-.506.274-.536.659" transform="translate(-39.135 -2.041)" fill="#f7bfb2"/>
            <path id="Trazado_642725" data-name="Trazado 642725" d="M386.226,28.864a3.733,3.733,0,0,0-3.34-1.382" transform="translate(-39.939 -1.894)" fill="#3c2355"/>
            <path id="Trazado_642726" data-name="Trazado 642726" d="M378.083,26.957a2.238,2.238,0,0,0-2.841.173" transform="translate(-39.142 -1.834)" fill="#3c2355"/>
            <path id="Trazado_642727" data-name="Trazado 642727" d="M377.419,40.687s.993,2.145,2.479,1.845a8.99,8.99,0,0,0,3.35-2.175Z" transform="translate(-39.369 -2.788)" fill="#fff"/>
            <path id="Trazado_642728" data-name="Trazado 642728" d="M381.283,20.422a13.508,13.508,0,0,1-6.976-1.589l.157-.275c4.753,2.938,13.224.793,13.309.772l.074.31a29.758,29.758,0,0,1-6.565.782" transform="translate(-39.044 -1.282)" fill="#fff"/>
            <path id="Trazado_642729" data-name="Trazado 642729" d="M379.907,18.1a7.529,7.529,0,0,1-4.218-1.292l.171-.265a7.344,7.344,0,0,0,4.4,1.226l.027.317c-.022,0-.159.014-.382.014" transform="translate(-39.188 -1.143)" fill="#fff"/>
            <path id="Trazado_642730" data-name="Trazado 642730" d="M411.417,127.217a7.376,7.376,0,0,0-1,.263,27.156,27.156,0,0,0-2.7,1.093c-.461.212-.857.411-1.124.555a24.344,24.344,0,0,1-13.057,3.127c-1.543-.073-1.561-1.006-1.561-1.006s-.854-.3-.947-.743a1.038,1.038,0,0,1,.5-1s.021-.876,2.214-1.555,6.888-1.557,7.071-2.379-1.224-.523-1.224-.523-2.349.437-2.426-.523c-.035-.454,2.1-.847,2.1-.847a30.622,30.622,0,0,1,5.51-1.187c1.378-.137,2.439-.209,2.439-.209s1.392-.09,1.718-.069c1.472.094,2.183,3.131,2.4,4.425a4.58,4.58,0,0,1,.076.581" transform="translate(-40.787 -8.443)" fill="#f7bfb2"/>
            <g id="Grupo_1075250" data-name="Grupo 1075250" transform="translate(363.996 113.765)" opacity="0.41">
              <g id="Grupo_1075249" data-name="Grupo 1075249">
                <g id="Grupo_1075248" data-name="Grupo 1075248" clip-path="url(#clip-path-18)">
                  <path id="Trazado_642731" data-name="Trazado 642731" d="M412.024,127.48l.92-.843c-.219-1.295-.931-4.332-2.4-4.426-.326-.021-1.718.069-1.718.069s-1.061.072-2.439.209l2.939,6.084Z" transform="translate(-406.386 -122.208)" fill="#fc9090"/>
                </g>
              </g>
            </g>
            <path id="Trazado_642732" data-name="Trazado 642732" d="M411.245,124.245l-2.651-4.519-1.494-2.544,18.2-15.409L416.065,89.6l-6.9-9.1,2.4-17.018a19.057,19.057,0,0,1,4.445,3.015c.961,1.345,1.113,1.071,2.283,2.727,7.79,11.043,20.02,29.38,20.361,32.914.52,5.41-27.412,22.11-27.412,22.11" transform="translate(-42.465 -4.385)" fill="#7e57a4"/>
            <path id="Trazado_642733" data-name="Trazado 642733" d="M369.286,86.993a79.263,79.263,0,0,0-.4,12.457l-2.668,11.125c-.891-3.5,1.25-5.2.375-11.1s2.356-16.15,2.942-14.306c-.094.685-.181,1.3-.25,1.828" transform="translate(-38.177 -5.868)" fill="#6e4e93"/>
            <rect id="Rectángulo_379618" data-name="Rectángulo 379618" width="397.667" height="1.444" transform="translate(0 287.703)" fill="#3c2355"/>
          </g>
        </g>
      </g>
    </g>
  </g>
</svg>
