<svg xmlns="http://www.w3.org/2000/svg" xmlns:xlink="http://www.w3.org/1999/xlink" width="124.417" height="124.418" viewBox="0 0 124.417 124.418">
  <defs>
    <clipPath id="clip-path">
      <rect id="Rectángulo_379644" data-name="Rectángulo 379644" width="115" height="115" transform="translate(389.246 2670.246)" fill="#fff" stroke="#707070" stroke-width="1"/>
    </clipPath>
    <linearGradient id="linear-gradient" x1="0.989" y1="1.001" x2="0.081" y2="0.049" gradientUnits="objectBoundingBox">
      <stop offset="0" stop-color="#8c50af"/>
      <stop offset="1" stop-color="#fbe3b1"/>
    </linearGradient>
    <clipPath id="clip-path-2">
      <rect id="Rectángulo_379648" data-name="Rectángulo 379648" width="87" height="87" transform="translate(408 2139)" fill="#fff" stroke="#707070" stroke-width="1"/>
    </clipPath>
    <clipPath id="clip-path-3">
      <rect id="Rectángulo_379653" data-name="Rectángulo 379653" width="84" height="79.87" fill="#543f5c"/>
    </clipPath>
  </defs>
  <g id="Grupo_1075367" data-name="Grupo 1075367" transform="translate(-391.496 -3250.58)">
    <g id="Enmascarar_grupo_1074789" data-name="Enmascarar grupo 1074789" transform="translate(5.754 585.335)" clip-path="url(#clip-path)">
      <rect id="Imagen_54" data-name="Imagen 54" width="128.611" height="124.518" transform="translate(382.686 2667.283)" fill="#fff"/>
    </g>
    <path id="Sustracción_224" data-name="Sustracción 224" d="M113.2,113.2H0V0H113.2V113.2ZM6.49,6.49V106.714H106.713V6.49Z" transform="matrix(-0.995, -0.105, 0.105, -0.995, 504.08, 3374.998)" fill="url(#linear-gradient)"/>
    <g id="Enmascarar_grupo_1074790" data-name="Enmascarar grupo 1074790" transform="translate(2 1134)" clip-path="url(#clip-path-2)">
      <g id="Grupo_1075291" data-name="Grupo 1075291" transform="translate(410 2142.95)">
        <g id="Grupo_1075290" data-name="Grupo 1075290" clip-path="url(#clip-path-3)">
          <path id="Trazado_642782" data-name="Trazado 642782" d="M77.594,65.113H60.112a6.444,6.444,0,0,0,0,12.887h1.655l-30.5,30.854-11.9-11.891a6.478,6.478,0,0,0-9.125.019L1.85,105.93A6.438,6.438,0,0,0,6.432,116.9h.033A6.454,6.454,0,0,0,11,115.023l3.887-4.321,11.844,11.845a6.488,6.488,0,0,0,9.111-.013L71.112,86.879V87.3A6.446,6.446,0,0,0,84,87.251V71.557a6.48,6.48,0,0,0-6.406-6.444M74.587,87.251V78.424L33.379,120.076a3,3,0,0,1-4.2.007l-14.43-14.431-6.239,6.942a2.96,2.96,0,0,1-2.033.829l-.084,0-.017,0a2.947,2.947,0,0,1-2.022-.845,3.017,3.017,0,0,1,.011-4.246l8.361-8.914a2.982,2.982,0,0,1,4.188.009l14.37,14.36L70.091,74.525H60.112a2.968,2.968,0,1,1,0-5.936H77.577a2.986,2.986,0,0,1,2.947,2.97V87.206a2.971,2.971,0,0,1-5.938.045" transform="translate(0 -44.538)" fill="#543f5c"/>
          <path id="Trazado_642783" data-name="Trazado 642783" d="M61.71,21.212V50.978a4.078,4.078,0,0,0,1.379,3.039,4.846,4.846,0,0,0,3.275,1.241h0a4.85,4.85,0,0,0,3.274-1.234,4.44,4.44,0,0,0,.532-.575,4.812,4.812,0,0,0,3.8,1.806h.069a4.5,4.5,0,0,0,4.653-4.276V21.212L84.4,13.627a2.064,2.064,0,0,0,.441-1.283V3.934a3.508,3.508,0,0,0-.3-1.435A4.414,4.414,0,0,0,76.6,2.473a3.475,3.475,0,0,0-.312,1.458v7.4L72.545,15.36a3.168,3.168,0,0,1-2.322.975h-.039a3.173,3.173,0,0,1-2.325-.976l-3.736-4.022v-7.4a3.431,3.431,0,0,0-.3-1.441,4.41,4.41,0,0,0-5.5-2.24,4.1,4.1,0,0,0-2.444,2.214,3.483,3.483,0,0,0-.313,1.459v8.412a2.1,2.1,0,0,0,.43,1.272ZM64.4,50.979V20.407l-6.148-8.169V3.924a1.147,1.147,0,0,1,.111-.488,1.5,1.5,0,0,1,.9-.81,1.754,1.754,0,0,1,.58-.1,1.615,1.615,0,0,1,1.5.933,1.1,1.1,0,0,1,.1.47v8.355l4.4,4.738a5.938,5.938,0,0,0,4.346,1.839h.04a5.929,5.929,0,0,0,4.344-1.837l4.409-4.739V3.924a1.148,1.148,0,0,1,.112-.492,1.583,1.583,0,0,1,1.481-.9,1.6,1.6,0,0,1,1.486.924,1.171,1.171,0,0,1,.1.479v8.3l-6.147,8.172V50.975a1.881,1.881,0,0,1-1.97,1.752h-.067a1.865,1.865,0,0,1-1.964-1.742V36.34a1.775,1.775,0,0,0-1.785-1.662,1.89,1.89,0,0,0-1.293.453,1.676,1.676,0,0,0-.589,1.244V50.983a1.644,1.644,0,0,1-.562,1.22,2.148,2.148,0,0,1-2.82,0,1.643,1.643,0,0,1-.56-1.222" transform="translate(-38.005)" fill="#543f5c"/>
          <path id="Trazado_642784" data-name="Trazado 642784" d="M91.233,19.19c2.715,0,4.925-2.51,4.925-5.595S93.949,8,91.233,8s-4.925,2.508-4.925,5.591,2.209,5.595,4.925,5.595M88.917,13.6c0-1.689,1.039-3.063,2.316-3.063s2.316,1.374,2.316,3.063-1.039,3.067-2.316,3.067-2.316-1.375-2.316-3.067" transform="translate(-59.036 -5.475)" fill="#543f5c"/>
        </g>
      </g>
    </g>
  </g>
</svg>
