<svg xmlns="http://www.w3.org/2000/svg" xmlns:xlink="http://www.w3.org/1999/xlink" width="124" height="124.001" viewBox="0 0 124 124.001">
  <defs>
    <clipPath id="clip-path">
      <rect id="Rectángulo_378056" data-name="Rectángulo 378056" width="114.583" height="114.583" transform="translate(0)" fill="#7edbb4" stroke="#707070" stroke-width="1"/>
    </clipPath>
    <clipPath id="clip-path-2">
      <rect id="Rectángulo_379490" data-name="Rectángulo 379490" width="79" height="79" transform="translate(1178 1172)" fill="#fff" stroke="#707070" stroke-width="1"/>
    </clipPath>
    <clipPath id="clip-path-3">
      <path id="Trazado_642339" data-name="Trazado 642339" d="M3.078,9.177a8.293,8.293,0,0,0,1.217,8.33,17.313,17.313,0,0,0-3.241,5.42,18.458,18.458,0,0,0-.2,11.662H7.632L8.78,31.157a1.353,1.353,0,0,1,.313-.508H9.77l-.009-.014c.4.009.8.009,1.2.014q6.571.1,13.164.2c1.907-.318,2.869-1.816,2.633-2.706a2.416,2.416,0,0,0-2.433-1.253c-7.785.7-10.332-.731-11.131-2.292a3.85,3.85,0,0,1-.227-.572c-.186-.554-.34-1.226-.722-2.156-.123-.3-.277-.658-.458-1.021A15.736,15.736,0,0,0,9.347,17.3c.168-.077,3.582-1.825,3.845-5.416.236-3.11-1.988-6.473-4.853-6.664a2.6,2.6,0,0,0-.263-.009c-2.415,0-4.244,2.3-5,3.963" transform="translate(0 -5.214)" fill="#543f5c"/>
    </clipPath>
    <clipPath id="clip-path-4">
      <path id="Trazado_642340" data-name="Trazado 642340" d="M28.683,5.223c-2.864.191-5.084,3.554-4.857,6.664.272,3.591,3.686,5.338,3.845,5.416A15.439,15.439,0,0,0,24.2,23.54v.009a6.889,6.889,0,0,1-.377,1.044,3.217,3.217,0,0,1-1.085,1.194c-1.457.981-4.344,1.616-10.041,1.1a2.4,2.4,0,0,0-2.429,1.253c-.245.89.726,2.388,2.628,2.706q5.584-.082,11.163-.168c.922-.009,1.848-.027,2.769-.032l.077.236,1.244,3.709h8.021a18.488,18.488,0,0,0-.213-11.662,17.146,17.146,0,0,0-3.232-5.42,8.281,8.281,0,0,0,1.212-8.33c-.744-1.666-2.578-3.963-4.993-3.963a2.6,2.6,0,0,0-.263.009" transform="translate(-10.234 -5.214)" fill="#543f5c"/>
    </clipPath>
    <clipPath id="clip-path-5">
      <rect id="Rectángulo_379493" data-name="Rectángulo 379493" width="73.245" height="74.043" fill="none"/>
    </clipPath>
    <clipPath id="clip-path-6">
      <path id="Trazado_642342" data-name="Trazado 642342" d="M17.711,6.265A3.9,3.9,0,0,0,14.07,8.8l-3.5,9.342c.381.931.536,1.6.722,2.156a3.85,3.85,0,0,0,.227.572c.8,1.562,3.346,2.992,11.131,2.292a2.416,2.416,0,0,1,2.433,1.253c.236.89-.726,2.388-2.633,2.706q-6.585-.1-13.164-.2H7.42a1.353,1.353,0,0,0-.313.508L5.958,30.869.679,46.739a3.89,3.89,0,0,0,3.7,5.13H64.332a3.9,3.9,0,0,0,3.7-5.139L62.7,30.869,61.458,27.16l-.077-.236c-.922,0-1.848.023-2.769.032q-5.584.089-11.163.168c-1.9-.318-2.873-1.816-2.628-2.706a2.4,2.4,0,0,1,2.429-1.253c5.7.518,8.584-.118,10.041-1.1a3.217,3.217,0,0,0,1.085-1.194,6.89,6.89,0,0,0,.377-1.044V19.82L54.644,8.8a3.919,3.919,0,0,0-3.65-2.538Z" transform="translate(-0.473 -6.265)" fill="none"/>
    </clipPath>
    <linearGradient id="linear-gradient" x1="-0.029" y1="1" x2="0.038" y2="1" gradientUnits="objectBoundingBox">
      <stop offset="0" stop-color="#ffd774"/>
      <stop offset="1" stop-color="#f5c951"/>
    </linearGradient>
    <clipPath id="clip-path-7">
      <path id="Trazado_642343" data-name="Trazado 642343" d="M6.415,20.1V3.04a.407.407,0,0,1,.4-.413H37.738a.412.412,0,0,1,.413.413V20.1a.409.409,0,0,1-.413.413H6.819a.4.4,0,0,1-.4-.413M6.819,0A3.046,3.046,0,0,0,3.787,3.04V20.1a3.043,3.043,0,0,0,3.032,3.041H37.738A3.05,3.05,0,0,0,40.779,20.1V3.04A3.053,3.053,0,0,0,37.738,0Z" transform="translate(-3.787 0.001)" fill="none"/>
    </clipPath>
    <linearGradient id="linear-gradient-2" x1="-0.465" y1="3.2" x2="-0.342" y2="3.2" gradientUnits="objectBoundingBox">
      <stop offset="0" stop-color="#5f727a"/>
      <stop offset="1" stop-color="#4c5f68"/>
    </linearGradient>
    <clipPath id="clip-path-8">
      <path id="Trazado_642344" data-name="Trazado 642344" d="M11.249,3.728a6.26,6.26,0,0,0-.636,4.045,5.846,5.846,0,0,0,.917,2.138,2.4,2.4,0,0,1,.263.463c-.018.073-.1.272-.531.554a1.086,1.086,0,0,1-.527.141,4.836,4.836,0,0,0-1.612.418A6,6,0,0,0,7.608,12.5a6.465,6.465,0,0,0-1.82,4.049H24.613a6.538,6.538,0,0,0-1.82-4.049,6.419,6.419,0,0,0-1.525-1v-.009a4.8,4.8,0,0,0-1.6-.418,1.1,1.1,0,0,1-.536-.141c-.436-.281-.513-.481-.531-.558a2.851,2.851,0,0,1,.263-.458,5.7,5.7,0,0,0,.917-2.138,6.229,6.229,0,0,0-.636-4.045c-1.017-1.829-2.2-2.61-3.945-2.61a4.382,4.382,0,0,0-3.949,2.61" transform="translate(-5.788 -1.118)" fill="#543f5c"/>
    </clipPath>
  </defs>
  <g id="Grupo_1075366" data-name="Grupo 1075366" transform="translate(-1159 -1148.999)">
    <g id="Enmascarar_grupo_154435" data-name="Enmascarar grupo 154435" transform="translate(1164 1154)" clip-path="url(#clip-path)">
      <rect id="Imagen_21" data-name="Imagen 21" width="128.145" height="124.067" transform="translate(-6.537 -2.952)" fill="#7edbb4"/>
    </g>
    <path id="Sustracción_167" data-name="Sustracción 167" d="M112.825,112.826H0V0H112.825V112.825ZM6.468,6.468v99.888h99.887V6.468Z" transform="matrix(-0.995, -0.105, 0.105, -0.995, 1271.207, 1273)" fill="#fff"/>
    <g id="Enmascarar_grupo_1074779" data-name="Enmascarar grupo 1074779" transform="translate(4)" clip-path="url(#clip-path-2)">
      <g id="Grupo_1075105" data-name="Grupo 1075105" transform="translate(1181 1174)">
        <g id="Grupo_1075094" data-name="Grupo 1075094" transform="translate(0 23.672)">
          <g id="Grupo_1075093" data-name="Grupo 1075093" clip-path="url(#clip-path-3)">
            <rect id="Rectángulo_379491" data-name="Rectángulo 379491" width="27.863" height="29.375" transform="translate(-0.871 0.002)" fill="#543f5c"/>
          </g>
        </g>
        <g id="Grupo_1075096" data-name="Grupo 1075096" transform="translate(46.457 23.672)">
          <g id="Grupo_1075095" data-name="Grupo 1075095" clip-path="url(#clip-path-4)">
            <rect id="Rectángulo_379492" data-name="Rectángulo 379492" width="27.872" height="29.375" transform="translate(-0.208 0.002)" fill="#543f5c"/>
          </g>
        </g>
        <g id="Grupo_1075098" data-name="Grupo 1075098" transform="translate(0.001 0.005)">
          <g id="Grupo_1075097" data-name="Grupo 1075097" transform="translate(0 0)" clip-path="url(#clip-path-5)">
            <path id="Trazado_642341" data-name="Trazado 642341" d="M2.159,10.832H3.348c-.4-.009-.794-.009-1.2-.018Z" transform="translate(7.61 38.274)" fill="#64737a"/>
          </g>
        </g>
        <g id="Grupo_1075100" data-name="Grupo 1075100" transform="translate(2.146 28.443)">
          <g id="Grupo_1075099" data-name="Grupo 1075099" clip-path="url(#clip-path-6)">
            <rect id="Rectángulo_379494" data-name="Rectángulo 379494" width="68.151" height="45.604" transform="translate(-0.198 0.002)" fill="url(#linear-gradient)"/>
          </g>
        </g>
        <g id="Grupo_1075102" data-name="Grupo 1075102" transform="translate(17.192 -0.001)">
          <g id="Grupo_1075101" data-name="Grupo 1075101" clip-path="url(#clip-path-7)">
            <rect id="Rectángulo_379495" data-name="Rectángulo 379495" width="36.992" height="23.138" transform="translate(0 0.002)" fill="url(#linear-gradient-2)"/>
          </g>
        </g>
        <g id="Grupo_1075104" data-name="Grupo 1075104" transform="translate(26.275 5.079)">
          <g id="Grupo_1075103" data-name="Grupo 1075103" clip-path="url(#clip-path-8)">
            <rect id="Rectángulo_379496" data-name="Rectángulo 379496" width="18.825" height="15.43" transform="translate(0 0.002)" fill="#543f5c"/>
          </g>
        </g>
      </g>
    </g>
  </g>
</svg>
