<svg xmlns="http://www.w3.org/2000/svg" xmlns:xlink="http://www.w3.org/1999/xlink" width="124.417" height="124.418" viewBox="0 0 124.417 124.418">
  <defs>
    <clipPath id="clip-path">
      <rect id="Rectángulo_379045" data-name="Rectángulo 379045" width="115" height="115" transform="translate(389.246 2670.246)" fill="#fff" stroke="#707070" stroke-width="1"/>
    </clipPath>
    <linearGradient id="linear-gradient" x1="0.989" y1="1.001" x2="0.081" y2="0.049" gradientUnits="objectBoundingBox">
      <stop offset="0" stop-color="#8c50af"/>
      <stop offset="1" stop-color="#fbe3b1"/>
    </linearGradient>
    <clipPath id="clip-path-2">
      <rect id="Rectángulo_379484" data-name="Rectángulo 379484" width="86" height="86" transform="translate(409.27 1416.362)" fill="#fff" stroke="#707070" stroke-width="1"/>
    </clipPath>
    <clipPath id="clip-path-3">
      <rect id="Rectángulo_379731" data-name="Rectángulo 379731" width="57.44" height="65.101" fill="#543f5c"/>
    </clipPath>
  </defs>
  <g id="Grupo_1075357" data-name="Grupo 1075357" transform="translate(-1659.328 9590.363)">
    <g id="Enmascarar_grupo_1074671" data-name="Enmascarar grupo 1074671" transform="translate(1275.082 -12255.608)" clip-path="url(#clip-path)">
      <rect id="Imagen_29" data-name="Imagen 29" width="128.611" height="124.518" transform="translate(382.686 2667.283)" fill="#fff"/>
    </g>
    <path id="Sustracción_178" data-name="Sustracción 178" d="M113.2,113.2H0V0H113.2V113.2ZM6.49,6.49V106.714H106.713V6.49Z" transform="matrix(-0.995, -0.105, 0.105, -0.995, 1771.912, -9465.945)" fill="url(#linear-gradient)"/>
    <g id="Enmascarar_grupo_1074730" data-name="Enmascarar grupo 1074730" transform="translate(1269.73 -10986.362)" clip-path="url(#clip-path-2)">
      <g id="Grupo_1075351" data-name="Grupo 1075351" transform="translate(422.83 1426.797)">
        <g id="Grupo_1075350" data-name="Grupo 1075350" clip-path="url(#clip-path-3)">
          <path id="Trazado_642858" data-name="Trazado 642858" d="M52.171,11.022a7.288,7.288,0,0,1,3.164,4.511,6.833,6.833,0,0,1-1.181,5.349,6.787,6.787,0,0,1,3.286,5.856,6.644,6.644,0,0,1-3.318,5.836c.112.192.2.351.293.5a6.408,6.408,0,0,1,1.036,3.489,6.5,6.5,0,0,1-1.326,3.952,6.967,6.967,0,0,1-5.765,2.91c-2.114.015-4.228,0-6.342,0H41.5c.075.211.119.371.188.519a41.236,41.236,0,0,1,2.783,8.464,31.521,31.521,0,0,1,.757,5.7,6.855,6.855,0,0,1-12.191,4.409c-.646-.8-1.224-1.663-1.869-2.468a38.611,38.611,0,0,0-6.633-6.182c-2.146-1.668-4.328-3.293-6.434-5.011a31.932,31.932,0,0,1-5-5.192.631.631,0,0,0-.584-.237c-3.419,0-6.839-.026-10.258.022A2.213,2.213,0,0,1,0,41.213q0-.954,0-1.908,0-14.54,0-29.079A2.293,2.293,0,0,1,.5,8.652a2.515,2.515,0,0,1,1.843-.726c.3-.028.6-.012.893-.012,3.66,0,7.321.006,10.981-.007a.669.669,0,0,0,.506-.25A12.078,12.078,0,0,1,19.619,2.9,23.715,23.715,0,0,1,27.794.339a38.841,38.841,0,0,1,6.021-.32c4.214,0,8.428-.05,12.641.017A6.8,6.8,0,0,1,52.68,3.719a6.535,6.535,0,0,1-.26,6.916c-.072.118-.15.232-.249.386m-19.8-6.932c-.656,0-1.275.009-1.894,0a18.767,18.767,0,0,0-7.648,1.54,8.539,8.539,0,0,0-5.093,4.814,2.11,2.11,0,0,1-2.2,1.454c-3.675-.014-7.349,0-11.024-.017-.45,0-.565.129-.527.548.034.378,0,.762,0,1.143q0,12.738-.015,25.475c0,.4.187.419.494.418,2.98-.008,5.959,0,8.938-.014a2.583,2.583,0,0,1,2.29,1.127,30.678,30.678,0,0,0,5.961,6.188c1.7,1.359,3.472,2.639,5.2,3.966a38.758,38.758,0,0,1,8.921,8.953,3.073,3.073,0,0,0,3.111,1.4,2.464,2.464,0,0,0,2-1.309,3.307,3.307,0,0,0,.343-2.215c-.209-1.351-.417-2.7-.641-4.051a27.874,27.874,0,0,0-2.286-7.547,6.579,6.579,0,0,0-3.153-3.493,5.775,5.775,0,0,1-3.22-4.291,16.634,16.634,0,0,1-.254-3.027,3.98,3.98,0,0,0-1.3-3.02,7.793,7.793,0,0,0-1.77-1.3c-1.7-.826-3.451-1.561-5.188-2.315-.765-.332-1.556-.607-2.322-.937a1.914,1.914,0,0,1-1.162-2.377,1.893,1.893,0,0,1,2.518-1.224c.843.287,1.66.648,2.49.972a31.278,31.278,0,0,1,6.579,3.128,2.088,2.088,0,0,0,.409.16,6.6,6.6,0,0,1,1.894-6.478,6.856,6.856,0,0,1-.027-9.861,6.776,6.776,0,0,1-1.435-7.8M44.544,29.623v.005c2.071,0,4.142.027,6.212-.01A2.923,2.923,0,0,0,53.5,27.053a3.077,3.077,0,0,0-1.838-3.135,5.619,5.619,0,0,0-2.182-.208c-3.617,0-7.233-.01-10.85,0a2.906,2.906,0,0,0-3.007,2.916,3.011,3.011,0,0,0,2.967,3.014c1.984-.059,3.971-.015,5.957-.015m-.95-15.781v0q-2.531,0-5.062,0a2.712,2.712,0,0,0-.507.039,2.96,2.96,0,0,0-2.378,3.275,2.9,2.9,0,0,0,2.86,2.611q5.041.03,10.083,0A2.93,2.93,0,0,0,51.524,16.7a3.1,3.1,0,0,0-3.039-2.87c-1.628.067-3.261.015-4.891.015m-.016,25.616c1.687,0,3.374,0,5.06,0a3.126,3.126,0,0,0,.881-.091,3.043,3.043,0,0,0,1.968-3.326,2.907,2.907,0,0,0-2.836-2.443q-5.081,0-10.163,0a2.9,2.9,0,0,0-2.869,2.944,3.045,3.045,0,0,0,2.856,2.94c1.7-.081,3.4-.02,5.1-.021M42.616,4.089c-1.5,0-3-.008-4.507.007a1.811,1.811,0,0,0-.774.169,2.894,2.894,0,0,0-1.707,2.452,2.879,2.879,0,0,0,2.678,3.142c2.877,0,5.754.005,8.631-.02a2.174,2.174,0,0,0,1.082-.293,2.856,2.856,0,0,0,1.388-3.453,2.725,2.725,0,0,0-2.624-2.005H42.616" transform="translate(0 0)" fill="#543f5c"/>
        </g>
      </g>
    </g>
  </g>
</svg>
