<svg xmlns="http://www.w3.org/2000/svg" xmlns:xlink="http://www.w3.org/1999/xlink" width="124.417" height="124.418" viewBox="0 0 124.417 124.418">
  <defs>
    <clipPath id="clip-path">
      <rect id="Rectángulo_379032" data-name="Rectángulo 379032" width="115" height="115" transform="translate(389.246 2670.246)" fill="#fff" stroke="#707070" stroke-width="1"/>
    </clipPath>
    <linearGradient id="linear-gradient" x1="0.989" y1="1.001" x2="0.081" y2="0.049" gradientUnits="objectBoundingBox">
      <stop offset="0" stop-color="#8c50af"/>
      <stop offset="1" stop-color="#fbe3b1"/>
    </linearGradient>
    <clipPath id="clip-path-2">
      <rect id="Rectángulo_379479" data-name="Rectángulo 379479" width="86" height="86" transform="translate(409 1416)" fill="#fff" stroke="#707070" stroke-width="1"/>
    </clipPath>
    <clipPath id="clip-path-3">
      <rect id="Rectángulo_379480" data-name="Rectángulo 379480" width="77.482" height="77.5" fill="#543f5c"/>
    </clipPath>
  </defs>
  <g id="Grupo_1075358" data-name="Grupo 1075358" transform="translate(-1093.828 -1397.999)">
    <g id="Enmascarar_grupo_1074668" data-name="Enmascarar grupo 1074668" transform="translate(709.582 -1267.246)" clip-path="url(#clip-path)">
      <rect id="Imagen_26" data-name="Imagen 26" width="128.611" height="124.518" transform="translate(382.686 2667.283)" fill="#fff"/>
    </g>
    <path id="Sustracción_175" data-name="Sustracción 175" d="M113.2,113.2H0V0H113.2V113.2ZM6.49,6.49V106.714H106.713V6.49Z" transform="matrix(-0.995, -0.105, 0.105, -0.995, 1206.412, 1522.417)" fill="url(#linear-gradient)"/>
    <g id="Enmascarar_grupo_1074728" data-name="Enmascarar grupo 1074728" transform="translate(703 2)" clip-path="url(#clip-path-2)">
      <g id="Grupo_1075082" data-name="Grupo 1075082" transform="translate(413 1420)">
        <g id="Grupo_1075081" data-name="Grupo 1075081" clip-path="url(#clip-path-3)">
          <path id="Trazado_642324" data-name="Trazado 642324" d="M14.945,5.2c.035-.687.018-1.352.11-2A3.726,3.726,0,0,1,18.705,0,3.789,3.789,0,0,1,22.48,3.656c.018.505,0,1.012,0,1.561a3.557,3.557,0,0,1,2.251-.074A3.875,3.875,0,0,1,27.484,8.8c.009.8.009,1.6-.005,2.4a.361.361,0,0,0,.289.421,5.826,5.826,0,0,1,2.2,1.232c.012-.153.029-.261.028-.369,0-1.25-.024-2.5-.013-3.751A3.842,3.842,0,0,1,33.826,4.99a9.646,9.646,0,0,1,1.16.177c0-.426,0-.861,0-1.3A3.8,3.8,0,0,1,38.507.007a3.663,3.663,0,0,1,3.829,2.836,11.215,11.215,0,0,1,.153,2c.007.111,0,.224,0,.37a3.614,3.614,0,0,1,1.953-.132A3.677,3.677,0,0,1,47.2,7.467c.114.3.238.331.509.213a2.671,2.671,0,0,1,2-.047c.446.153.441.167.611-.286a3.781,3.781,0,0,1,3.6-2.355,9.621,9.621,0,0,1,1.046.176,17.4,17.4,0,0,1,.106-2.035A3.742,3.742,0,0,1,58.707,0,3.8,3.8,0,0,1,62.5,3.783c.007.462,0,.924,0,1.423a3.787,3.787,0,0,1,5,3.618c.01,1.76,0,3.52,0,5.28v.344c.38-.163.727-.341,1.094-.462a3.455,3.455,0,0,1,2.249-.065A2.538,2.538,0,0,1,72.5,16.481c0,3.543.015,7.086-.009,10.629a11.825,11.825,0,0,1-.244,2.164,8.5,8.5,0,0,1-1.816,3.7c-.7.875-1.4,1.748-2.168,2.7a1.3,1.3,0,0,1,.214.115A3.915,3.915,0,0,1,70,39.014q-.01,17.75,0,35.5V75h7.482v2.5H0V75.018H7.477v-.48q0-17.82,0-35.639A3.779,3.779,0,0,1,8.93,35.848c.078-.064.151-.134.246-.219C8.677,35,8.2,34.4,7.712,33.8a11.436,11.436,0,0,1-2.219-3.574,9.422,9.422,0,0,1-.51-2.927q-.023-5.419,0-10.838a2.519,2.519,0,0,1,1.511-2.485,3.177,3.177,0,0,1,2.177-.046,12.963,12.963,0,0,1,1.308.5V14.1c0-1.749-.006-3.5,0-5.245a3.855,3.855,0,0,1,2.931-3.757,3.685,3.685,0,0,1,2.035.1m7.531,48.476a7.746,7.746,0,0,0,.474,3.038,9.6,9.6,0,0,0,2.082,3.327q5.973,6.883,11.934,13.777a6.843,6.843,0,0,0,.958.948,1.252,1.252,0,0,0,1.58.031,4.394,4.394,0,0,0,.789-.722Q46.6,66.791,52.9,59.5a8.72,8.72,0,0,0,1.739-8.486,8.494,8.494,0,0,0-13.816-3.829c-.618.558-1.2,1.159-1.778,1.756-.21.216-.353.266-.584.017-.463-.5-.958-.973-1.439-1.457a8.454,8.454,0,0,0-9.83-1.625,8.3,8.3,0,0,0-4.711,7.8M30,23.759c-.009-.144-.019-.224-.019-.3,0-1.829.007-3.659,0-5.488a4.45,4.45,0,0,0-.081-.895,4.136,4.136,0,0,0-4.1-3.324.756.756,0,0,0-.77,1.089,2.5,2.5,0,0,0,.136.318c.363.723.72,1.449,1.094,2.167a10.085,10.085,0,0,1,1.222,4.927c-.031,1.678.013,3.358-.013,5.037a6.3,6.3,0,0,0,1.446,4.131c.893,1.123,1.789,2.245,2.7,3.356a.63.63,0,0,0,.424.216q6.7.018,13.407,0a.551.551,0,0,0,.383-.17c1.021-1.273,2.047-2.542,3.032-3.843a5.292,5.292,0,0,0,1.117-3.192c.024-5.523.008-11.046.006-16.569a1.2,1.2,0,0,0-1.255-1.235,1.189,1.189,0,0,0-1.244,1.24q0,4.186,0,8.372v.373h-2.5v-.437q0-5.384,0-10.768a1.311,1.311,0,0,0-1.237-1.328,1.286,1.286,0,0,0-1.261,1.328q0,5.4,0,10.8v.4h-2.5v-.44q0-7.885,0-15.77A1.291,1.291,0,0,0,38.7,2.445a1.259,1.259,0,0,0-1.212,1.3q0,7.92,0,15.84v.391h-2.5v-.428q0-5.419,0-10.838a1.249,1.249,0,1,0-2.5,0q0,7.173,0,14.346a2.414,2.414,0,0,1-.015.484c-.017.083-.122.208-.189.21-.75.015-1.5.009-2.279.009M9.994,74.989H27.47c.006-.069.013-.115.013-.16,0-2.685,0-5.371-.007-8.056a.719.719,0,0,0-.181-.42c-1.563-1.815-3.153-3.607-4.7-5.436a11.32,11.32,0,0,1-1.247-12.64l.418-.756H9.994ZM67.471,75V47.522H55.686c.121.193.23.352.324.518a11.3,11.3,0,0,1-.989,12.7c-1.547,1.9-3.205,3.716-4.8,5.579a.913.913,0,0,0-.216.54c-.014,2.593-.01,5.187-.01,7.78V75Zm-19.159-39.4c.339.386.39.4.741.147a3.909,3.909,0,0,1,2.468-.764c1.146.026,2.292.006,3.438.006q5.21,0,10.42-.006a.645.645,0,0,0,.452-.163c1.012-1.25,2.026-2.5,3-3.781a5.357,5.357,0,0,0,1.159-3.21c.03-3.763.011-7.526.01-11.289v-.358c-.166.028-.3.046-.437.075A2.432,2.432,0,0,0,67.5,18.827c0,1.667-.005,3.335.005,5a.861.861,0,0,1-.28.675q-.836.809-1.651,1.639a6.32,6.32,0,0,0-1.854,4.777c.011.428,0,.857.016,1.285.005.2-.066.3-.28.294q-.973-.01-1.945,0c-.2,0-.267-.069-.26-.263.012-.37,0-.741.012-1.111a10.556,10.556,0,0,1,.655-3.8,9.182,9.182,0,0,1,2.413-3.351,1.936,1.936,0,0,0,.687-1.642C64.978,17.816,65,13.3,65,8.784a1.419,1.419,0,0,0-.919-1.3,1.249,1.249,0,0,0-1.578,1.2c0,3.381,0,6.762-.009,10.143a.318.318,0,0,0,.248.347,5.028,5.028,0,0,1,1.811,1.17l-1.721,1.688a3.515,3.515,0,0,0-2.643-.828q-3.664.018-7.328.032h-.364v.409c0,1.725-.021,3.451.005,5.175a9.38,9.38,0,0,1-2.221,6.339c-.665.8-1.3,1.622-1.966,2.447M12.885,20.366a5.463,5.463,0,0,1,1.854-1.19.317.317,0,0,0,.244-.372c-.006-1.714,0-3.427,0-5.141q0-2.449,0-4.9a1.31,1.31,0,0,0-1.267-1.337A1.476,1.476,0,0,0,12.46,8.755c.038,4.492.021,8.985.02,13.477a3.329,3.329,0,0,1-.03.658.552.552,0,0,0,.2.55c.466.467.934.934,1.378,1.421a8.029,8.029,0,0,1,2.008,4.052,26.607,26.607,0,0,1,.185,3.322c.011.226-.119.266-.309.264-.625-.006-1.25-.01-1.875,0-.226,0-.308-.066-.3-.3.018-.521.022-1.042.019-1.563a6.018,6.018,0,0,0-1.6-4.212c-.605-.653-1.242-1.279-1.882-1.9a.93.93,0,0,1-.3-.735c.01-1.714.006-3.427,0-5.141a1.927,1.927,0,0,0-.034-.413A2.523,2.523,0,0,0,7.479,16.2v.414c0,3.589.011,7.179-.005,10.768a6.2,6.2,0,0,0,1.4,3.97c.887,1.128,1.8,2.235,2.686,3.365a.684.684,0,0,0,.613.285c4.446-.006,8.892.015,13.337-.018a4.761,4.761,0,0,1,3.068.866.391.391,0,0,0,.334.025c.295-.134.21-.329.051-.527-.681-.849-1.366-1.694-2.037-2.55a8.93,8.93,0,0,1-1.94-5.63c-.006-1.853,0-3.705,0-5.558v-.4c-2.688,0-5.327-.006-7.965,0a3.171,3.171,0,0,0-2.382.852l-1.75-1.7M30,42.5c.294,0,.547,0,.8,0a11.3,11.3,0,0,1,4.892,1.107,11.418,11.418,0,0,1,2.839,1.971c.161.15.265.161.433,0,.33-.307.674-.6,1.03-.877a10.012,10.012,0,0,1,3.981-1.881,24.3,24.3,0,0,1,2.921-.322c.19-.019.384,0,.591,0,0-1.33.018-2.614-.007-3.9a1.164,1.164,0,0,0-1.189-1.115c-.278,0-.555.011-.833.011l-14.2,0a1.138,1.138,0,0,0-1.246,1.08C29.973,39.87,30,41.164,30,42.5m20-2.522h17.5c0-.481.028-.944-.007-1.4a1.17,1.17,0,0,0-1.216-1.086c-.347,0-.694.009-1.041.009H51.276A1.187,1.187,0,0,0,50,38.734c-.009.4,0,.808,0,1.244m-22.511.005c0-.445-.024-.851.005-1.254A1.246,1.246,0,0,0,26.2,37.483a8.524,8.524,0,0,1-.937.016l-13.988,0a1.12,1.12,0,0,0-1.226.848,13.959,13.959,0,0,0-.092,1.638Zm-.04,2.538H10v2.465c.069.006.114.013.159.013q6.837.018,13.674.031a.483.483,0,0,0,.287-.093,11.129,11.129,0,0,1,2.971-1.69.506.506,0,0,0,.348-.726m-7.463-23.78V18.39q0-7.26,0-14.52c0-.081,0-.163,0-.243a1.306,1.306,0,0,0-1.312-1.183A1.285,1.285,0,0,0,17.482,3.7q0,7.347,0,14.693v.348ZM67.489,42.528H50.032c-.141.406.035.6.379.732a11.33,11.33,0,0,1,2.918,1.65.663.663,0,0,0,.386.1q6.686,0,13.371-.006h.4ZM57.5,18.739h2.479c.007-.086.019-.165.019-.243q0-7.4,0-14.793a1.017,1.017,0,0,0-.064-.37,1.3,1.3,0,0,0-1.455-.857A1.257,1.257,0,0,0,57.5,3.806q0,7.292,0,14.584v.349m-2.5,0v-.3q0-4.823,0-9.647a1.326,1.326,0,0,0-1.25-1.352,1.286,1.286,0,0,0-1.248,1.339q0,4.807,0,9.613v.351Zm-20.2,56.256-4.781-5.5v5.5Zm12.671,0V69.513l-4.767,5.482ZM24.982,11.355c0-.945.017-1.871-.006-2.8A1.28,1.28,0,0,0,23.69,7.435a1.308,1.308,0,0,0-1.206,1.206q0,2.465,0,4.93c0,.092.014.184.021.276a3.619,3.619,0,0,1,2.477-2.491M22.5,15.168v3.57h1.727L22.5,15.168" transform="translate(0 0)" fill="#543f5c"/>
          <path id="Trazado_642325" data-name="Trazado 642325" d="M158.7,172.9l-.262-2.474a5.348,5.348,0,0,1,2.368.368,6.232,6.232,0,0,1,2.48,9.9c-1.865,2.168-3.742,4.323-5.608,6.49-.181.21-.308.214-.506.029-.44-.411-.9-.8-1.351-1.2-.154-.134-.164-.237-.021-.4,1.82-2.083,3.616-4.188,5.455-6.254a4.226,4.226,0,0,0,1.029-3.538A3.453,3.453,0,0,0,159,172.909c-.091,0-.182-.008-.3-.013" transform="translate(-112.302 -122.904)" fill="#543f5c"/>
          <path id="Trazado_642326" data-name="Trazado 642326" d="M142.041,239.2c-.589-.506-1.143-.973-1.682-1.458a.311.311,0,0,1,0-.3c.588-.7,1.194-1.378,1.786-2.072.128-.15.23-.162.373-.038.507.437,1.02.867,1.519,1.312a.259.259,0,0,1,.015.253c-.653.762-1.317,1.514-2.01,2.3" transform="translate(-101.207 -169.672)" fill="#543f5c"/>
        </g>
      </g>
    </g>
  </g>
</svg>
