<svg xmlns="http://www.w3.org/2000/svg" xmlns:xlink="http://www.w3.org/1999/xlink" width="139" height="139" viewBox="0 0 139 139">
  <defs>
    <clipPath id="clip-path">
      <rect id="Rectángulo_379472" data-name="Rectángulo 379472" width="102.644" height="92.67" fill="none"/>
    </clipPath>
  </defs>
  <g id="Grupo_1075364" data-name="Grupo 1075364" transform="translate(-1046 -553)">
    <g id="Grupo_1072806" data-name="Grupo 1072806" transform="translate(-388.668 -5329)">
      <g id="Grupo_1072229" data-name="Grupo 1072229" transform="translate(1434.668 5882)">
        <path id="Trazado_608385" data-name="Trazado 608385" d="M69.5,0A69.5,69.5,0,1,1,0,69.5,69.5,69.5,0,0,1,69.5,0Z" transform="translate(0)" fill="#fff"/>
      </g>
    </g>
    <g id="Grupo_1075075" data-name="Grupo 1075075" transform="translate(1064 576)">
      <g id="Grupo_1075074" data-name="Grupo 1075074" clip-path="url(#clip-path)">
        <path id="Trazado_642268" data-name="Trazado 642268" d="M183.765,2.695a12.71,12.71,0,0,1,3.92,1.127c.567.2,1.129.43,1.7.626a8.634,8.634,0,0,1,.986.562,50.12,50.12,0,0,1,4.568,2.87,5.321,5.321,0,0,1,.573.509c-.064.644.416,1.018.753,1.444a30.45,30.45,0,0,1,3.233,5.214,29.5,29.5,0,0,1,1.68,4.567,11.815,11.815,0,0,1,.568,2.625,7.246,7.246,0,0,1,.179,1.719,18.173,18.173,0,0,1-1.654,5.069,19.384,19.384,0,0,1-2.3,3.62,23.5,23.5,0,0,1-3.862,3.827,22.412,22.412,0,0,1-5.361,3.049,1.56,1.56,0,0,1-1.483-.1,27.172,27.172,0,0,0-4.179-2.048,30.179,30.179,0,0,0-4.261-1.2c-.655-.142-1.337-.084-1.988-.27-.266-.076-.535-.116-.668-.414a31.586,31.586,0,0,0-1.456-3.1c-.078-.133-.163-.292.1-.342a10.353,10.353,0,0,0,1.316,1.272,12.756,12.756,0,0,0,2.75,1.808,14.733,14.733,0,0,0,4.978,1.35,13.61,13.61,0,0,0,4.987-.394,13.206,13.206,0,0,0,4.094-1.787,12.9,12.9,0,0,0,3.821-3.823,17.26,17.26,0,0,0,1.531-3.221,1.639,1.639,0,0,0-.242-1.709c-.459-.623-2.025-.739-2.361.087-.161.395-.363.776-.492,1.181a8.731,8.731,0,0,1-2.07,3.415,10.753,10.753,0,0,1-5.593,3.03,11.487,11.487,0,0,1-5.423-.148,10.115,10.115,0,0,1-4.589-2.737,10.618,10.618,0,0,1-2.6-4.21,1.5,1.5,0,1,0-2.89.776c.176.533.323,1.079.493,1.616-.222.176-.293-.067-.389-.161-.719-.7-1.385-1.462-2.1-2.162a25.82,25.82,0,0,0-4.661-3.567,2.446,2.446,0,0,0-1.139-.547,8.966,8.966,0,0,1,.053-1.282A26.2,26.2,0,0,1,165,17.66a19.279,19.279,0,0,1,.871-2.42,23.6,23.6,0,0,1,2.644-4.473,23.4,23.4,0,0,1,4.017-3.905,19.139,19.139,0,0,1,4.341-2.5,15.989,15.989,0,0,1,4.138-1.255,23.564,23.564,0,0,1,2.757-.413m8.058,16.348h0c0-.81.015-1.621,0-2.431a1.618,1.618,0,0,0-1.539-1.668,1.515,1.515,0,0,0-1.557,1.665c-.03,1.727-.066,3.455.065,5.18a1.428,1.428,0,0,0,.985,1.265,1.343,1.343,0,0,0,1.45-.287,1.739,1.739,0,0,0,.6-1.339c.006-.795,0-1.59,0-2.385m-10.2-.024V16.491c0-.046,0-.092,0-.138a1.456,1.456,0,0,0-1.511-1.408,1.381,1.381,0,0,0-1.446,1.435c-.1,1.791-.037,3.58.007,5.37a1.252,1.252,0,0,0,.164.658,1.523,1.523,0,0,0,1.573.706,1.484,1.484,0,0,0,1.21-1.431c.025-.888.006-1.777.006-2.665" transform="translate(-103.621 -1.7)" fill="#ffe07c"/>
        <path id="Trazado_642269" data-name="Trazado 642269" d="M24.692,8.1c.622-.554,1.248-1.1,1.906-1.614.78-.61,1.562-1.211,2.381-1.765,1.09-.737,2.292-1.27,3.437-1.905a17.558,17.558,0,0,1,3.012-1.256c.872-.29,1.773-.492,2.657-.746A20.423,20.423,0,0,1,42.011.184,22.772,22.772,0,0,1,45.669.029a40.629,40.629,0,0,1,4.767.482,30.993,30.993,0,0,1,6.412,1.963A27.552,27.552,0,0,1,63.026,6.2a.847.847,0,0,1,.117.14c-.2.1-.2.291-.192.477a14.175,14.175,0,0,1-.424,3.394,21.926,21.926,0,0,1-3.191,7.5,19.18,19.18,0,0,1-5,5.171,21.449,21.449,0,0,1-6.378,3.16c-1.04.317-2.11.468-3.166.695a15.2,15.2,0,0,1-4.479.167,20.341,20.341,0,0,1-5.651-1.254A21.921,21.921,0,0,1,30.4,23.551c-.2-.133-.387-.312-.661-.272h.013c-.036-.08-.072-.048-.107,0-.466-.3-.607-.9-1.075-1.2a1.608,1.608,0,0,0-.244-.488c-.458-.776-.962-1.531-1.347-2.343a21.393,21.393,0,0,1-1.955-6.068c-.209-1.426-.217-2.854-.33-4.281-.021-.27.172-.537,0-.8M45.8,12.6h0c-4.09,0-8.181.009-12.271-.006a1.528,1.528,0,0,0-1.5,1.927,11.08,11.08,0,0,0,.411,1.063,15.076,15.076,0,0,0,6.335,7.027,13.9,13.9,0,0,0,8.827,1.757A14.365,14.365,0,0,0,54.4,21.709a15.108,15.108,0,0,0,5.223-7.147,1.1,1.1,0,0,0-.011-.929,1.661,1.661,0,0,0-1.63-1.035c-4.06.012-8.12.006-12.179.006" transform="translate(-15.578 0)" fill="#ffefaf"/>
        <path id="Trazado_642270" data-name="Trazado 642270" d="M5.928,90.589c-.368-.153-.415-.544-.566-.832a48.365,48.365,0,0,1-3.588-8.806,38.646,38.646,0,0,1-1.3-6.229,15.417,15.417,0,0,1-.218-3.186.445.445,0,0,0,.224-.278,11.045,11.045,0,0,1,2.155-2.87,21.128,21.128,0,0,1,3.605-3.094,16.405,16.405,0,0,1,3.108-1.733.719.719,0,0,0,.109.392,13.4,13.4,0,0,0,1.941,2.6,25.892,25.892,0,0,0,5.526,4.71,24.389,24.389,0,0,0,4.913,2.421c.926.313,1.861.59,2.8.841.249.066.544.128.394.513a18.837,18.837,0,0,0-.749,2.824,10.731,10.731,0,0,0-.22,3.165c-.188.021-.3-.1-.44-.2a12.29,12.29,0,0,1-1.209-1.3,1.32,1.32,0,0,0-1.884-.235c-.747.634-1.018,1.258-.458,2.1a6.241,6.241,0,0,0,1.679,1.851,4,4,0,0,0,2.107,1.02l.207.255a17.286,17.286,0,0,0,.073,2.171A10.758,10.758,0,0,1,24.43,88.1.842.842,0,0,1,24.2,88.1a20.933,20.933,0,0,0-4.82-.438c-.745-.056-1.5.073-2.242.057a21.594,21.594,0,0,0-4.581.54,22.73,22.73,0,0,0-6.63,2.333M10.152,84.8c.136-.007.244-.005.35-.02s.207-.058.313-.069a7.379,7.379,0,0,0,5.2-3.162,1.559,1.559,0,0,0-.186-2.152,1.423,1.423,0,0,0-2.214.326A4.742,4.742,0,0,1,9.989,81.68c-.964.018-2.134,1.194-1.365,2.307a1.8,1.8,0,0,0,1.529.814" transform="translate(-0.144 -40.106)" fill="#d2eefd"/>
        <path id="Trazado_642271" data-name="Trazado 642271" d="M118,186.707a9.256,9.256,0,0,1-1.885,1.507q-3.314,2.553-6.689,5.027c-1.794,1.308-3.636,2.551-5.461,3.819-.688.478-1.387.94-2.079,1.411a2.963,2.963,0,0,1-3.555.065c-2.247-1.518-4.465-3.082-6.666-4.666-1.252-.9-2.537-1.756-3.753-2.709-1.152-.9-2.335-1.767-3.5-2.654-2.278-1.734-4.5-3.537-6.725-5.336a1.874,1.874,0,0,1-.424-.416,3.911,3.911,0,0,0,.287-.764,13.058,13.058,0,0,1,1.35-3.215c.369-.032.516.3.75.475,2.338,1.757,4.725,3.445,7.116,5.129q2.937,2.069,5.879,4.129c1.136.8,2.266,1.6,3.419,2.373,1.09.729,2.151,1.5,3.288,2.161a1.356,1.356,0,0,0,.967.123,3.573,3.573,0,0,0,1.492-.857c1.125-.832,2.369-1.483,3.462-2.362.71-.572,1.484-1.065,2.232-1.589.279-.194.273-.326-.044-.481a9.389,9.389,0,0,1-1.022-.588,31.335,31.335,0,0,1-3.678-2.713,25.474,25.474,0,0,1-4.19-4.7,20.729,20.729,0,0,1-2.671-5.037,1.035,1.035,0,0,0-.994-.732,22.509,22.509,0,0,1-3.8-.735,36.785,36.785,0,0,1-5.293-2.04.307.307,0,0,1-.178-.337,17.992,17.992,0,0,1,2.715-1.616,7.3,7.3,0,0,0,1.422-.7,1.259,1.259,0,0,1,.491.089,20.719,20.719,0,0,0,5.5,1.229c1,.052,2,.162,3,.163.185.673.348,1.354.56,2.019a20.869,20.869,0,0,0,2.089,4.512,17.523,17.523,0,0,0,1.786,2.468,14.223,14.223,0,0,0,1.072,1.224,21.991,21.991,0,0,0,3.216,2.7,18.779,18.779,0,0,0,4.831,2.473A21.194,21.194,0,0,0,118,186.707" transform="translate(-48.752 -106.427)" fill="#ffd064"/>
        <path id="Trazado_642272" data-name="Trazado 642272" d="M164.059,31.855a2.439,2.439,0,0,1,1.138.547,25.794,25.794,0,0,1,4.661,3.567c.719.7,1.385,1.458,2.1,2.162.1.094.167.337.389.161a15.974,15.974,0,0,0,2.291,3.5c-.259.05-.174.209-.1.342a31.549,31.549,0,0,1,1.457,3.1c.133.3.4.338.668.414.65.187,1.333.128,1.988.271a30.178,30.178,0,0,1,4.261,1.2,27.172,27.172,0,0,1,4.179,2.048,1.56,1.56,0,0,0,1.483.1,22.412,22.412,0,0,0,5.361-3.049,23.5,23.5,0,0,0,3.862-3.827,19.4,19.4,0,0,0,2.3-3.62,18.183,18.183,0,0,0,1.654-5.069,7.225,7.225,0,0,0-.179-1.719,11.815,11.815,0,0,0-.568-2.625,29.576,29.576,0,0,0-1.68-4.567A30.472,30.472,0,0,0,196.1,19.57c-.338-.425-.817-.8-.753-1.444a31.712,31.712,0,0,1,2.664,2.509,30.785,30.785,0,0,1,3.3,4.191,32.02,32.02,0,0,1,2.981,5.926,22.486,22.486,0,0,1,1.007,3.408,15.857,15.857,0,0,1,.507,2.868c-.1.349-.089.717-.193,1.071-.307,1.035-.594,2.075-.975,3.089a19.742,19.742,0,0,1-2.813,5.014c-.441.58-.895,1.152-1.342,1.728a1.073,1.073,0,0,0-.19.128,23.778,23.778,0,0,1-4.548,3.576,22.217,22.217,0,0,1-6.548,2.579c-.526.13-1.073-.046-1.581.171A1.053,1.053,0,0,1,187,54.1a23.057,23.057,0,0,0-3.2-2.033,22.1,22.1,0,0,0-4.159-1.655,10.049,10.049,0,0,0-2.354-.514,35.716,35.716,0,0,0-4.384-.218,3.017,3.017,0,0,0-.063-.588,21.856,21.856,0,0,0-3.163-7.1,23.179,23.179,0,0,0-3.954-4.166,5.411,5.411,0,0,0-.982-.809c-.269-.2-.566-.376-.595-.762a22.182,22.182,0,0,1-.173-3.959.954.954,0,0,1,.085-.444" transform="translate(-103.455 -11.437)" fill="#ffd064"/>
        <path id="Trazado_642273" data-name="Trazado 642273" d="M142.386,20.476a.954.954,0,0,0-.085.444,22.182,22.182,0,0,0,.173,3.959c-.609.113-1-.287-1.462-.575a20.633,20.633,0,0,0-3.474-1.576,10.009,10.009,0,0,0-1.589-.494c-.639-.132-1.283-.244-1.925-.365-.194-.034-.388-.075-.584-.1a22.654,22.654,0,0,0-3.826-.093c.07-.493.466-.8.683-1.21a23.149,23.149,0,0,0,2.33-6.121,22.973,22.973,0,0,0,.48-4.492c.194-.035.238-.226.352-.342A31.374,31.374,0,0,1,140,4.208a31.585,31.585,0,0,1,4.731-2.277,24.847,24.847,0,0,1,3.83-1.137,18.86,18.86,0,0,1,3.562-.558c.752-.008,1.5-.137,2.256-.143A24.467,24.467,0,0,1,157.13.2a10.088,10.088,0,0,1,2.142.157c.787.258,1.634.21,2.408.515.1.04.207.063.245.182a23.574,23.574,0,0,0-2.757.413,15.972,15.972,0,0,0-4.137,1.255,19.142,19.142,0,0,0-4.341,2.5,23.425,23.425,0,0,0-4.017,3.905,23.638,23.638,0,0,0-2.644,4.473,19.333,19.333,0,0,0-.871,2.42,26.128,26.128,0,0,0-.719,3.177,8.964,8.964,0,0,0-.053,1.282" transform="translate(-81.782 -0.058)" fill="#efa4c4"/>
        <path id="Trazado_642274" data-name="Trazado 642274" d="M75.525,20.639a22.945,22.945,0,0,1-.48,4.492,23.129,23.129,0,0,1-2.33,6.121c-.217.409-.613.718-.683,1.211-.743.909-1.438,1.865-2.24,2.719A21.031,21.031,0,0,1,63.824,39.6a21.382,21.382,0,0,1-5.954,1.886,21.489,21.489,0,0,0-2.343.357c-.168-.154-.375-.1-.57-.1a16.758,16.758,0,0,1-2.3-.02,23.769,23.769,0,0,1-5.207-1.175,27.07,27.07,0,0,1-3.769-1.772,22.662,22.662,0,0,1-5.2-4.325.385.385,0,0,1-.128-.326c.274-.04.46.139.661.272a21.928,21.928,0,0,0,4.26,2.107,20.346,20.346,0,0,0,5.651,1.254,15.194,15.194,0,0,0,4.479-.167c1.057-.226,2.127-.378,3.167-.695a21.453,21.453,0,0,0,6.378-3.16,19.179,19.179,0,0,0,5-5.171,21.926,21.926,0,0,0,3.191-7.5,14.176,14.176,0,0,0,.424-3.394c-.008-.186-.012-.374.192-.477,1.319,1.078,2.546,2.256,3.76,3.448" transform="translate(-24.202 -10.847)" fill="#ffe07c"/>
        <path id="Trazado_642275" data-name="Trazado 642275" d="M9.2,37.3a16.379,16.379,0,0,0-3.108,1.733,21.123,21.123,0,0,0-3.6,3.094A11.038,11.038,0,0,0,.334,45a.445.445,0,0,1-.224.277,15.226,15.226,0,0,1-.035-3.333c.055-.776.145-1.549.2-2.324a31.8,31.8,0,0,1,.637-3.573c.161-.845.525-1.628.647-2.491.047-.333.4-.69.529-1.078a20.607,20.607,0,0,1,1.518-3.262,28.663,28.663,0,0,1,1.6-2.7c.595-.859,1.282-1.656,1.953-2.46a16.713,16.713,0,0,1,1.951-2.114c.172.267-.022.534,0,.8.113,1.426.121,2.854.33,4.28A21.377,21.377,0,0,0,11.4,33.094c.384.812.889,1.567,1.347,2.343a1.6,1.6,0,0,1,.244.488c-.187.06-.373.125-.562.179A17.965,17.965,0,0,0,9.2,37.3" transform="translate(0 -13.844)" fill="#efa4c4"/>
        <path id="Trazado_642276" data-name="Trazado 642276" d="M251.45,80.247c.448-.576.9-1.147,1.342-1.728a19.732,19.732,0,0,0,2.813-5.014c.381-1.014.668-2.054.975-3.089.1-.354.091-.721.194-1.071a34.169,34.169,0,0,1,.289,3.557c-.1,1.763-.134,3.528-.342,5.287a42.216,42.216,0,0,1-3.43,12.2,56.2,56.2,0,0,1-5.118,9.033c-.6.862-1.183,1.735-1.867,2.535a.824.824,0,0,1-.332-.713,10.941,10.941,0,0,0-.29-2.553,26.266,26.266,0,0,0-.938-3.167.735.735,0,0,0,.3-.33c.589-1.051,1.243-2.064,1.847-3.107a50.271,50.271,0,0,0,3.452-7.519c.473-1.254.742-2.57,1.159-3.841a.556.556,0,0,0-.059-.48" transform="translate(-154.428 -43.755)" fill="#e591b7"/>
        <path id="Trazado_642277" data-name="Trazado 642277" d="M27.674,151.506a24.988,24.988,0,0,1-2.193-2.456,50.418,50.418,0,0,1-3.2-4.116,24.73,24.73,0,0,1-2.349-3.633.487.487,0,0,0,.3-.194c.1.112.093.288.235.383a24.846,24.846,0,0,1,2.94,2.806c1.094,1.02,2.255,1.971,3.29,3.055a1.227,1.227,0,0,0,.764.378,9.829,9.829,0,0,0,2.885-.252,20.922,20.922,0,0,0,3.944-1.132,23.624,23.624,0,0,0,5.131-2.9.312.312,0,0,0,.085-.5,7.736,7.736,0,0,1-.66-1.2,4.684,4.684,0,0,1-.7-2.2,13.435,13.435,0,0,1,4.729,1.977,1.3,1.3,0,0,0,.692.328c.391.407.67.9,1.017,1.338.266.335.388.8.831.983.112.32.409.507.568.793a.709.709,0,0,1-.1.2,21.145,21.145,0,0,1-7.546,5.083,24.406,24.406,0,0,1-3.329,1.035c-.96.218-1.955.279-2.935.41-.485.018-.972.072-1.455.045-.985-.055-1.967-.153-2.949-.233" transform="translate(-12.576 -88.049)" fill="#b2e5fa"/>
        <path id="Trazado_642278" data-name="Trazado 642278" d="M162.355,195.5a21.194,21.194,0,0,1-5.678-1.155,18.779,18.779,0,0,1-4.831-2.473,21.991,21.991,0,0,1-3.216-2.7,14.268,14.268,0,0,1-1.072-1.224,3.867,3.867,0,0,1,1.141.554,30.238,30.238,0,0,0,4.469,2.051,22.385,22.385,0,0,0,3.54.873,4.24,4.24,0,0,0,3.269-.435c.35-.228.635-.523.96-.775.975-.757,1.957-1.509,2.889-2.316,1.58-1.367,3.206-2.68,4.72-4.125a5.183,5.183,0,0,1,1.57-1.168,3.645,3.645,0,0,1,.493.235,14.939,14.939,0,0,1,2.908,2.637c.1.113.16.267.339.279-.688.629-1.372,1.264-2.065,1.887-.775.7-1.551,1.391-2.343,2.067-1.169,1-2.36,1.971-3.526,2.973-1.083.931-2.205,1.811-3.334,2.684a1.79,1.79,0,0,1-.234.132" transform="translate(-93.104 -115.216)" fill="#e175a5"/>
        <path id="Trazado_642279" data-name="Trazado 642279" d="M225.89,125.653a26.2,26.2,0,0,1,.938,3.167,10.921,10.921,0,0,1,.29,2.553.824.824,0,0,0,.332.713,10.631,10.631,0,0,1-1.144,1.562c-.792,1.023-1.666,1.977-2.46,3a11.747,11.747,0,0,1-1.1,1.2c-.674.654-1.275,1.377-1.905,2.072-.751.829-1.584,1.583-2.382,2.369a14.556,14.556,0,0,0-1.6-1.674c-.633-.59-1.392-1.02-2-1.637,1-1.145,2.068-2.23,3.052-3.4a22.525,22.525,0,0,1,2.324-2.4.973.973,0,0,0,.274-.3,7.871,7.871,0,0,1,1.383-1.807,5.02,5.02,0,0,0,1.395-3.615,20.4,20.4,0,0,0-.586-3.6,21.929,21.929,0,0,0-1.114-3.087,15.732,15.732,0,0,0-1.617-2.957c-.139-.19-.421-.4-.243-.724.7.6,1.367,1.252,2.037,1.894a18.6,18.6,0,0,1,3.163,4.659c.359.647.642,1.336.961,2.006" transform="translate(-135.571 -73.883)" fill="#e175a5"/>
        <path id="Trazado_642280" data-name="Trazado 642280" d="M178.732,171.974c.606.617,1.365,1.047,2,1.637a14.525,14.525,0,0,1,1.6,1.675l-2.131,2.13c-.18-.013-.241-.166-.34-.279a14.927,14.927,0,0,0-2.908-2.637,3.585,3.585,0,0,0-.493-.235,1.533,1.533,0,0,0-.309-.264,18.469,18.469,0,0,0-3.652-1.3c-.5-.115-1.014-.008-1.5-.089a9.98,9.98,0,0,0-3.541.144,12.232,12.232,0,0,0-3.7,1.373,10.363,10.363,0,0,0-2.676,1.94,12.556,12.556,0,0,1-.978,1.083,1.463,1.463,0,0,1-2.315-.422,1.6,1.6,0,0,1,.414-1.917,14.948,14.948,0,0,1,5.91-4.292,16.614,16.614,0,0,1,3.036-.894,13.186,13.186,0,0,1,2.829-.227,18.255,18.255,0,0,1,2.715.172,17.236,17.236,0,0,1,2.519.664,19.962,19.962,0,0,1,3.532,1.744" transform="translate(-99.442 -106.878)" fill="#785252"/>
        <path id="Trazado_642281" data-name="Trazado 642281" d="M40.913,171.958c.983.08,1.965.178,2.949.233.483.027.97-.027,1.455-.045-.018.293.211.426.393.581.243.207.5.393.754.592q2.214,1.763,4.427,3.528c1.213.97,2.484,1.864,3.71,2.817.43.335.773.847,1.385.923q-.01.132-.021.264a13.043,13.043,0,0,0-1.35,3.215,3.934,3.934,0,0,1-.287.764,11.392,11.392,0,0,1-1.618-1.343c-2.025-1.769-4-3.588-5.963-5.432-1.909-1.8-3.654-3.746-5.477-5.621a4.555,4.555,0,0,1-.358-.475" transform="translate(-25.815 -108.5)" fill="#e591b7"/>
        <path id="Trazado_642282" data-name="Trazado 642282" d="M15.673,131.765a22.719,22.719,0,0,1,6.63-2.333,21.617,21.617,0,0,1,4.581-.541c.742.016,1.5-.113,2.242-.057a20.952,20.952,0,0,1,4.82.438.841.841,0,0,0,.229.007l.094.084a2,2,0,0,0,.04.358c.279.956.518,1.925.891,2.852a3.485,3.485,0,0,1-.593-.012,24.668,24.668,0,0,0-6.613-.631c-1.016.081-2.041.072-3.056.2a21.926,21.926,0,0,0-6.115,1.645,3.923,3.923,0,0,1-1.28.476,1.539,1.539,0,0,1-.59-.606.516.516,0,0,0-.459-.312,3.762,3.762,0,0,1-.821-1.565" transform="translate(-9.889 -81.282)" fill="#94d8e6"/>
        <path id="Trazado_642283" data-name="Trazado 642283" d="M17.9,141.041a.516.516,0,0,1,.459.312,1.538,1.538,0,0,0,.59.606c0,.031,0,.061.006.092a.484.484,0,0,1-.3.194,3.574,3.574,0,0,1-.75-1.2" transform="translate(-11.294 -88.993)" fill="#6fbbc6"/>
        <path id="Trazado_642284" data-name="Trazado 642284" d="M188.037,70.267a15.976,15.976,0,0,1-2.291-3.5c-.171-.537-.317-1.083-.493-1.616a1.5,1.5,0,1,1,2.89-.776,10.627,10.627,0,0,0,2.6,4.21,10.122,10.122,0,0,0,4.59,2.737,11.485,11.485,0,0,0,5.423.148,10.748,10.748,0,0,0,5.593-3.03,8.731,8.731,0,0,0,2.07-3.415c.128-.4.331-.785.492-1.181.335-.827,1.9-.71,2.36-.087a1.638,1.638,0,0,1,.242,1.709,17.276,17.276,0,0,1-1.531,3.221,12.9,12.9,0,0,1-3.821,3.823,13.2,13.2,0,0,1-4.094,1.786,13.6,13.6,0,0,1-4.987.395,14.732,14.732,0,0,1-4.978-1.35,12.724,12.724,0,0,1-2.75-1.808,10.327,10.327,0,0,1-1.316-1.272" transform="translate(-116.85 -39.916)" fill="#e9a761"/>
        <path id="Trazado_642285" data-name="Trazado 642285" d="M233.657,39.985c0,.8,0,1.591,0,2.385a1.738,1.738,0,0,1-.6,1.339A1.343,1.343,0,0,1,231.6,44a1.427,1.427,0,0,1-.985-1.265c-.13-1.725-.094-3.453-.065-5.18a1.515,1.515,0,0,1,1.558-1.665,1.619,1.619,0,0,1,1.539,1.668c.019.81,0,1.621,0,2.431h0" transform="translate(-145.455 -22.643)" fill="#9d6c6c"/>
        <path id="Trazado_642286" data-name="Trazado 642286" d="M206.208,39.963c0,.889.019,1.778-.006,2.665a1.484,1.484,0,0,1-1.21,1.431,1.523,1.523,0,0,1-1.573-.706,1.252,1.252,0,0,1-.164-.658c-.044-1.79-.107-3.58-.007-5.37a1.381,1.381,0,0,1,1.446-1.435,1.456,1.456,0,0,1,1.511,1.408c0,.046,0,.092,0,.138v2.527" transform="translate(-128.21 -22.645)" fill="#9d6c6c"/>
        <path id="Trazado_642287" data-name="Trazado 642287" d="M58.246,34.142c4.06,0,8.12.007,12.179-.006a1.661,1.661,0,0,1,1.63,1.035,1.1,1.1,0,0,1,.011.929,15.108,15.108,0,0,1-5.223,7.147,14.365,14.365,0,0,1-6.792,2.663,13.9,13.9,0,0,1-8.827-1.757,15.076,15.076,0,0,1-6.335-7.027,11.081,11.081,0,0,1-.411-1.063,1.528,1.528,0,0,1,1.5-1.927c4.09.016,8.181.006,12.271.006Z" transform="translate(-28.021 -21.539)" fill="#f4fbff"/>
        <path id="Trazado_642288" data-name="Trazado 642288" d="M40.109,85.834l-.094-.084a10.759,10.759,0,0,0-.292-1.416,17.286,17.286,0,0,1-.073-2.171c.541.084,1.083.161,1.622.252a1.745,1.745,0,0,0,2.122-1.344,1.63,1.63,0,0,0-1.547-1.717,7.461,7.461,0,0,1-2.194-.6c0-.028,0-.058,0-.086a10.744,10.744,0,0,1,.22-3.165,18.838,18.838,0,0,1,.749-2.824c.151-.385-.145-.447-.394-.513-.944-.251-1.879-.528-2.8-.841a24.388,24.388,0,0,1-4.913-2.421A25.9,25.9,0,0,1,26.982,64.2a13.405,13.405,0,0,1-1.941-2.6.721.721,0,0,1-.109-.393,18.021,18.021,0,0,1,3.225-1.2c.188-.055.375-.119.561-.179.468.3.609.9,1.075,1.2h.094a.384.384,0,0,0,.128.326,22.672,22.672,0,0,0,5.2,4.325,27.05,27.05,0,0,0,3.769,1.772,23.764,23.764,0,0,0,5.207,1.175,16.757,16.757,0,0,0,2.3.02c.2,0,.4-.052.569.1a4.284,4.284,0,0,1-.518.861,12.256,12.256,0,0,0-1.409,2.963,18.121,18.121,0,0,0-1.485,8.118c-.025.157-.087.318.062.451a9.978,9.978,0,0,0,.113,2.516c.273.923.346,1.891.688,2.794a1.175,1.175,0,0,1,.1.58,7.164,7.164,0,0,0-1.623-.563,7.856,7.856,0,0,0-2.873-.638" transform="translate(-15.73 -37.753)" fill="#b2e5fa"/>
        <path id="Trazado_642289" data-name="Trazado 642289" d="M38.216,63h-.107c.035-.048.07-.081.107,0" transform="translate(-24.046 -39.718)" fill="#ffe07c"/>
        <path id="Trazado_642290" data-name="Trazado 642290" d="M24.081,111.209a1.8,1.8,0,0,1-1.529-.814c-.769-1.113.4-2.289,1.365-2.307a4.742,4.742,0,0,0,3.626-1.955,1.423,1.423,0,0,1,2.214-.326,1.559,1.559,0,0,1,.186,2.152,7.379,7.379,0,0,1-5.2,3.162c-.106.011-.207.054-.313.069s-.214.013-.35.02" transform="translate(-14.073 -66.514)" fill="#94d8e6"/>
        <path id="Trazado_642291" data-name="Trazado 642291" d="M57.482,107.4c0,.029,0,.058,0,.086-.323.2-.239.545-.274.84-.093.772.16,1.537.064,2.31a4.006,4.006,0,0,1-2.107-1.02,6.236,6.236,0,0,1-1.68-1.851c-.559-.847-.288-1.47.458-2.1a1.319,1.319,0,0,1,1.884.235,12.255,12.255,0,0,0,1.21,1.3c.136.105.252.223.44.2" transform="translate(-33.562 -66.482)" fill="#94d8e6"/>
        <path id="Trazado_642292" data-name="Trazado 642292" d="M64.115,114.268c.1-.774-.157-1.538-.064-2.31.035-.294-.049-.636.274-.84a7.474,7.474,0,0,0,2.195.6,1.63,1.63,0,0,1,1.546,1.717,1.745,1.745,0,0,1-2.122,1.344c-.54-.091-1.082-.169-1.623-.252l-.207-.255" transform="translate(-40.401 -70.112)" fill="#6fbbc6"/>
        <path id="Trazado_642293" data-name="Trazado 642293" d="M164.023,130.448a19.9,19.9,0,0,0-3.532-1.744,17.132,17.132,0,0,0-2.52-.664,18.2,18.2,0,0,0-2.714-.173,13.183,13.183,0,0,0-2.829.227,16.632,16.632,0,0,0-3.037.894,14.952,14.952,0,0,0-5.91,4.292,1.6,1.6,0,0,0-.414,1.917,1.463,1.463,0,0,0,2.315.422,12.554,12.554,0,0,0,.978-1.083,10.353,10.353,0,0,1,2.676-1.939,12.225,12.225,0,0,1,3.7-1.373,9.977,9.977,0,0,1,3.54-.144c.49.082,1-.026,1.5.089a18.445,18.445,0,0,1,3.651,1.305,1.509,1.509,0,0,1,.309.264,5.18,5.18,0,0,0-1.57,1.168c-1.514,1.445-3.14,2.757-4.72,4.125-.933.807-1.914,1.559-2.889,2.316-.325.252-.61.547-.96.775a4.24,4.24,0,0,1-3.269.435,22.427,22.427,0,0,1-3.54-.873,30.254,30.254,0,0,1-4.469-2.051,3.876,3.876,0,0,0-1.141-.554,17.526,17.526,0,0,1-1.786-2.468,20.877,20.877,0,0,1-2.089-4.512c-.211-.665-.375-1.345-.56-2.019a.981.981,0,0,0,0-.271,14.69,14.69,0,0,1-.451-4.054c-.065-.971.206-1.929.11-2.9-.032-.328.32-.6.3-.876a5.9,5.9,0,0,1,.473-2.5,13.415,13.415,0,0,1,1.183-2.859,5.5,5.5,0,0,0,.511-1.378,11.205,11.205,0,0,0,1.348-1.782,15.8,15.8,0,0,1,1.646-2.1,18.715,18.715,0,0,1,2.017-1.924,24.586,24.586,0,0,1,4.172-2.718,3.851,3.851,0,0,0,.813-.283c.621-.319,1.3-.5,1.94-.77.731-.3,1.532-.336,2.245-.673,1.025-.263,2.1-.156,3.126-.386a35.792,35.792,0,0,1,4.384.218,10.028,10.028,0,0,1,2.354.515,22.076,22.076,0,0,1,4.159,1.655,23.053,23.053,0,0,1,3.2,2.032,1.053,1.053,0,0,0,.61.282c0,.088,0,.176,0,.264-.179.324.1.533.243.724a15.751,15.751,0,0,1,1.617,2.957,21.921,21.921,0,0,1,1.115,3.087,20.405,20.405,0,0,1,.586,3.6,5.019,5.019,0,0,1-1.395,3.615,7.859,7.859,0,0,0-1.383,1.807.966.966,0,0,1-.275.3,22.558,22.558,0,0,0-2.324,2.4c-.984,1.166-2.049,2.252-3.052,3.4m-15.272-9.691h.007c0,.6,0,1.194,0,1.791a1.493,1.493,0,0,0,.076.358,1.549,1.549,0,0,0,1.678,1.11,1.575,1.575,0,0,0,1.269-1.329c.039-.822.063-1.645.082-2.468.014-.611.013-.669.6-.594.742.1,1.464-.751,1.49-1.441a1.542,1.542,0,0,0-1.292-1.538,8.216,8.216,0,0,1-1.753-.3A7.181,7.181,0,0,1,148,114.117a1.492,1.492,0,0,0-2.165-.273,1.47,1.47,0,0,0-.243,2.12,7.779,7.779,0,0,0,2.765,2.6.673.673,0,0,1,.4.728c-.028.488-.007.979-.007,1.469m10.2.626h0c0,.383-.006.765,0,1.148a1.425,1.425,0,0,0,1.507,1.485,1.628,1.628,0,0,0,1.528-1.526q.017-1.631,0-3.261a.629.629,0,0,1,.365-.652,6.983,6.983,0,0,0,2.952-2.932,1.488,1.488,0,0,0-1.3-2.136,1.535,1.535,0,0,0-1.358.751,6.163,6.163,0,0,1-2.727,2.026,11.791,11.791,0,0,1-1.935.37,1.489,1.489,0,0,0-1.18,1.739,1.436,1.436,0,0,0,1.445,1.214c.7.01.7.01.7.716q0,.528,0,1.056" transform="translate(-84.733 -65.353)" fill="#e591b7"/>
        <path id="Trazado_642294" data-name="Trazado 642294" d="M81.7,182.744c.007-.088.014-.175.021-.263.421-.542.715-1.164,1.078-1.741a20.473,20.473,0,0,1,5.639-5.78.307.307,0,0,0,.177.337,36.831,36.831,0,0,0,5.294,2.04,22.541,22.541,0,0,0,3.8.735,1.034,1.034,0,0,1,.994.731,20.716,20.716,0,0,0,2.671,5.037,25.447,25.447,0,0,0,4.19,4.7,31.293,31.293,0,0,0,3.678,2.713,9.267,9.267,0,0,0,1.022.588c.317.155.323.286.044.481-.749.523-1.522,1.017-2.232,1.589-1.093.879-2.337,1.53-3.462,2.362a3.57,3.57,0,0,1-1.492.857,1.356,1.356,0,0,1-.967-.123c-1.138-.657-2.2-1.432-3.288-2.161-1.153-.771-2.282-1.577-3.419-2.373q-2.942-2.061-5.879-4.129c-2.391-1.684-4.778-3.372-7.116-5.129-.234-.176-.382-.506-.75-.475m7.647.919a4.381,4.381,0,0,0,1.04,2.64,15.812,15.812,0,0,0,3.225,2.905.708.708,0,0,0,.926-.01c.466-.346.947-.676,1.386-1.054a7.425,7.425,0,0,0,2.836-3.935,2.85,2.85,0,0,0-1.323-2.929,2.649,2.649,0,0,0-3.116.352.342.342,0,0,1-.542-.018,2.593,2.593,0,0,0-1.755-.63,2.67,2.67,0,0,0-2.675,2.678" transform="translate(-51.552 -110.394)" fill="#ffe07c"/>
        <path id="Trazado_642295" data-name="Trazado 642295" d="M70.232,161.88a20.477,20.477,0,0,0-5.638,5.78c-.364.578-.658,1.2-1.079,1.741-.612-.076-.955-.589-1.385-.923-1.226-.954-2.5-1.847-3.71-2.818q-2.21-1.767-4.427-3.528c-.25-.2-.511-.385-.754-.592-.181-.154-.411-.287-.393-.58.98-.131,1.975-.192,2.935-.41a24.332,24.332,0,0,0,3.329-1.035,21.147,21.147,0,0,0,7.547-5.083.716.716,0,0,0,.1-.2,8.6,8.6,0,0,1,1.174,1.069,17.954,17.954,0,0,0,6.024,3.929.682.682,0,0,1,.416.334,7.321,7.321,0,0,1-1.422.7,17.927,17.927,0,0,0-2.715,1.616" transform="translate(-33.344 -97.315)" fill="#efa4c4"/>
        <path id="Trazado_642296" data-name="Trazado 642296" d="M97.183,158.176a.682.682,0,0,0-.416-.334,17.956,17.956,0,0,1-6.024-3.929,8.616,8.616,0,0,0-1.174-1.069c-.159-.286-.455-.473-.567-.793a.5.5,0,0,1,.433.1,19.805,19.805,0,0,0,4.4,2.231,29.652,29.652,0,0,0,3.927,1.051c.651.124,1.305.116,1.954.192a19.684,19.684,0,0,0,3.879-.084,14.1,14.1,0,0,1,2.135-.213,14.688,14.688,0,0,0,.451,4.054,1,1,0,0,1,0,.272c-1,0-2-.111-3-.163a20.72,20.72,0,0,1-5.5-1.228,1.252,1.252,0,0,0-.491-.089" transform="translate(-56.158 -95.929)" fill="#e9a761"/>
        <path id="Trazado_642297" data-name="Trazado 642297" d="M97.288,96.692a14.107,14.107,0,0,0-2.135.213,19.627,19.627,0,0,1-3.879.084c-.648-.076-1.3-.068-1.954-.192a29.722,29.722,0,0,1-3.927-1.051A19.838,19.838,0,0,1,81,93.515a.5.5,0,0,0-.433-.1c-.444-.186-.566-.648-.832-.983-.348-.439-.627-.931-1.017-1.338a32.82,32.82,0,0,1-2.12-4.519,1.169,1.169,0,0,0-.1-.579c-.341-.9-.415-1.872-.687-2.794a9.978,9.978,0,0,1-.113-2.516c.107-.168.165-.329-.062-.451a18.115,18.115,0,0,1,1.485-8.118c.111.143.272.105.421.126a11.444,11.444,0,0,0,1.724.019,19.836,19.836,0,0,0,4.555-.648,25.1,25.1,0,0,0,6.535-2.575A25.454,25.454,0,0,0,94.4,66.219a19.652,19.652,0,0,0,2.733-2.759,43.4,43.4,0,0,0,2.749-3.873.876.876,0,0,0,.077-.487c.642.121,1.286.232,1.925.365a10.027,10.027,0,0,1,1.589.495,20.628,20.628,0,0,1,3.474,1.576c.462.287.853.688,1.462.575.029.386.325.564.595.762a5.379,5.379,0,0,1,.982.809,2.211,2.211,0,0,0,.566,1.12,17.084,17.084,0,0,1,1.622,3.05,15.306,15.306,0,0,1,1.295,4.224,17.958,17.958,0,0,1,.29,3.36c0,.217-.027.447.281.485-.713.337-1.514.371-2.245.673-.642.265-1.319.451-1.94.77a3.877,3.877,0,0,1-.812.283,9.147,9.147,0,0,1-.2-1.112,4.193,4.193,0,0,0-3.065-2.912,4.328,4.328,0,0,0-3.7.852c-.714.444-1.406.926-2.1,1.4-3.156,2.166-6.317,4.324-9.459,6.51a22.319,22.319,0,0,0-3.214,2.361,3.925,3.925,0,0,0-.583,4.98,4.2,4.2,0,0,0,5.905,1.291c1.946-1.33,3.886-2.67,5.84-3.989a4.729,4.729,0,0,1,1.388-.861,5.488,5.488,0,0,1-.511,1.378,13.42,13.42,0,0,0-1.183,2.859,5.9,5.9,0,0,0-.473,2.5c.024.274-.329.548-.3.876.1.975-.176,1.933-.11,2.9m-12.3-19.685c.174.024.381-.079.458.058.1.185-.132.276-.227.4-.284.36-.616.684-.875,1.06a1.484,1.484,0,0,0,.362,2.11,1.4,1.4,0,0,0,2.027-.318c.561-.667,1.122-1.334,1.675-2.009.708-.864,1.427-1.719,2.1-2.607a1.41,1.41,0,0,0,.065-1.644,1.361,1.361,0,0,0-1.443-.7c-.68.115-1.367.132-2.045.235a20.992,20.992,0,0,1-2.806.421,3.385,3.385,0,0,0-1.291.289,1.589,1.589,0,0,0-.941,1.585,1.537,1.537,0,0,0,1.5,1.24,11.354,11.354,0,0,0,1.437-.12M97.932,68.54a5.7,5.7,0,0,1,.564-1.371,1.437,1.437,0,0,0,0-1.941,1.408,1.408,0,0,0-1.808-.363,1.979,1.979,0,0,0-.739.8c-.9,1.617-1.792,3.24-2.72,4.842a1.287,1.287,0,0,0-.024,1.417,1.429,1.429,0,0,0,1.351.786,3,3,0,0,0,.853-.162c1.715-.561,3.431-1.118,5.141-1.694a1.477,1.477,0,0,0,.814-2.341,1.448,1.448,0,0,0-1.653-.535c-.6.172-1.185.373-1.778.562" transform="translate(-47.721 -37.29)" fill="#ecb77f"/>
        <path id="Trazado_642298" data-name="Trazado 642298" d="M228.049,105.607c0-.088,0-.176,0-.264.508-.217,1.055-.041,1.581-.171a22.221,22.221,0,0,0,6.548-2.579,23.785,23.785,0,0,0,4.547-3.576,1.123,1.123,0,0,1,.19-.128.556.556,0,0,1,.059.48c-.417,1.271-.686,2.587-1.159,3.841a50.269,50.269,0,0,1-3.452,7.519c-.6,1.043-1.258,2.056-1.847,3.107a.735.735,0,0,1-.3.33c-.318-.67-.6-1.36-.961-2.007a18.6,18.6,0,0,0-3.163-4.658c-.67-.641-1.333-1.29-2.037-1.894" transform="translate(-143.89 -62.395)" fill="#efa4c4"/>
        <path id="Trazado_642299" data-name="Trazado 642299" d="M172.791,83.756c-.308-.037-.286-.268-.281-.485a17.959,17.959,0,0,0-.29-3.36,15.305,15.305,0,0,0-1.295-4.224,17.084,17.084,0,0,0-1.622-3.05,2.211,2.211,0,0,1-.566-1.12,23.176,23.176,0,0,1,3.954,4.165,21.855,21.855,0,0,1,3.163,7.1,3.013,3.013,0,0,1,.063.588c-1.03.229-2.1.123-3.126.386" transform="translate(-106.468 -45.124)" fill="#e9a761"/>
        <path id="Trazado_642300" data-name="Trazado 642300" d="M102.509,58.705a.877.877,0,0,1-.077.487,43.272,43.272,0,0,1-2.749,3.874,19.629,19.629,0,0,1-2.733,2.759A25.457,25.457,0,0,1,92.9,68.641a25.1,25.1,0,0,1-6.534,2.575,19.86,19.86,0,0,1-4.555.648,11.444,11.444,0,0,1-1.724-.019c-.149-.021-.31.017-.421-.126a12.246,12.246,0,0,1,1.409-2.964,4.307,4.307,0,0,0,.518-.86,21.5,21.5,0,0,1,2.343-.358,21.387,21.387,0,0,0,5.953-1.886,21.031,21.031,0,0,0,5.969-4.422c.8-.854,1.5-1.809,2.24-2.719a22.655,22.655,0,0,1,3.826.093c.2.025.389.067.584.1" transform="translate(-50.267 -36.896)" fill="#e9a761"/>
        <path id="Trazado_642301" data-name="Trazado 642301" d="M20.746,139.579c0-.031,0-.061-.006-.092a3.924,3.924,0,0,0,1.281-.476,21.919,21.919,0,0,1,6.114-1.645c1.015-.127,2.04-.117,3.056-.2a24.679,24.679,0,0,1,6.612.631,3.448,3.448,0,0,0,.593.012l.263.206a4.687,4.687,0,0,0,.7,2.2,7.769,7.769,0,0,0,.66,1.2.312.312,0,0,1-.086.5,23.613,23.613,0,0,1-5.13,2.9,20.923,20.923,0,0,1-3.944,1.132,9.817,9.817,0,0,1-2.885.252,1.225,1.225,0,0,1-.764-.378c-1.035-1.084-2.2-2.036-3.29-3.055a24.841,24.841,0,0,0-2.939-2.806c-.142-.094-.132-.27-.235-.383" transform="translate(-13.086 -86.521)" fill="#d2eefd"/>
        <path id="Trazado_642302" data-name="Trazado 642302" d="M67.258,133.7l-.263-.206c-.373-.927-.611-1.9-.891-2.852a2.037,2.037,0,0,1-.039-.358,7.849,7.849,0,0,1,2.873.638,7.19,7.19,0,0,1,1.623.563,32.821,32.821,0,0,0,2.12,4.519,1.3,1.3,0,0,1-.692-.328,13.435,13.435,0,0,0-4.729-1.977" transform="translate(-41.684 -82.206)" fill="#6fbbc6"/>
        <path id="Trazado_642303" data-name="Trazado 642303" d="M75.585,116.363c.227.122.168.283.062.451-.149-.133-.087-.294-.062-.451" transform="translate(-47.67 -73.422)" fill="#efa4c4"/>
        <path id="Trazado_642304" data-name="Trazado 642304" d="M117.751,110.741a4.731,4.731,0,0,0-1.389.861c-1.954,1.319-3.894,2.658-5.84,3.989a4.2,4.2,0,0,1-5.905-1.291,3.924,3.924,0,0,1,.584-4.98,22.3,22.3,0,0,1,3.214-2.361c3.142-2.185,6.3-4.344,9.458-6.509.694-.476,1.386-.958,2.1-1.4a4.326,4.326,0,0,1,3.7-.852,4.192,4.192,0,0,1,3.065,2.912,9.22,9.22,0,0,0,.2,1.112,24.592,24.592,0,0,0-4.172,2.718,18.683,18.683,0,0,0-2.017,1.925,15.769,15.769,0,0,0-1.646,2.1,11.21,11.21,0,0,1-1.348,1.782" transform="translate(-65.61 -61.862)" fill="#f4fbff"/>
        <path id="Trazado_642305" data-name="Trazado 642305" d="M167.5,137.72c0-.49-.021-.981.007-1.469a.672.672,0,0,0-.4-.728,7.784,7.784,0,0,1-2.765-2.6,1.469,1.469,0,0,1,.243-2.121,1.492,1.492,0,0,1,2.164.274,7.186,7.186,0,0,0,2.911,2.225,8.257,8.257,0,0,0,1.753.3,1.541,1.541,0,0,1,1.292,1.538c-.026.69-.748,1.537-1.49,1.441-.584-.076-.583-.017-.6.594-.019.823-.044,1.646-.083,2.468a1.575,1.575,0,0,1-1.269,1.329,1.55,1.55,0,0,1-1.679-1.11,1.5,1.5,0,0,1-.076-.358c-.008-.6,0-1.194,0-1.791H167.5" transform="translate(-103.478 -82.316)" fill="#785252"/>
        <path id="Trazado_642306" data-name="Trazado 642306" d="M197.41,138.364q0-.528,0-1.056c0-.707,0-.707-.7-.716a1.436,1.436,0,0,1-1.445-1.214,1.489,1.489,0,0,1,1.18-1.739,11.792,11.792,0,0,0,1.935-.37,6.163,6.163,0,0,0,2.727-2.026,1.535,1.535,0,0,1,1.358-.751,1.488,1.488,0,0,1,1.3,2.136,6.983,6.983,0,0,1-2.952,2.932.629.629,0,0,0-.365.652q.022,1.63,0,3.261A1.628,1.628,0,0,1,198.92,141a1.425,1.425,0,0,1-1.507-1.485c-.007-.383,0-.765,0-1.148Z" transform="translate(-123.19 -82.334)" fill="#785252"/>
        <path id="Trazado_642307" data-name="Trazado 642307" d="M102.423,193.864a2.669,2.669,0,0,1,2.675-2.678,2.593,2.593,0,0,1,1.755.63.342.342,0,0,0,.542.018,2.649,2.649,0,0,1,3.116-.352,2.85,2.85,0,0,1,1.323,2.929A7.425,7.425,0,0,1,109,198.346c-.439.378-.92.708-1.386,1.054a.708.708,0,0,1-.926.01,15.813,15.813,0,0,1-3.225-2.905,4.381,4.381,0,0,1-1.04-2.64" transform="translate(-64.625 -120.596)" fill="#e175a5"/>
        <path id="Trazado_642308" data-name="Trazado 642308" d="M95.921,101.347a11.353,11.353,0,0,1-1.437.12,1.538,1.538,0,0,1-1.5-1.24,1.59,1.59,0,0,1,.941-1.585,3.384,3.384,0,0,1,1.291-.289,20.934,20.934,0,0,0,2.806-.422c.678-.1,1.365-.12,2.045-.235a1.361,1.361,0,0,1,1.443.7,1.41,1.41,0,0,1-.065,1.644c-.675.889-1.394,1.744-2.1,2.607-.552.674-1.114,1.341-1.675,2.009a1.4,1.4,0,0,1-2.027.318,1.483,1.483,0,0,1-.362-2.109c.259-.376.592-.7.875-1.06.1-.121.331-.212.227-.4-.077-.137-.285-.034-.458-.058" transform="translate(-58.656 -61.63)" fill="#785252"/>
        <path id="Trazado_642309" data-name="Trazado 642309" d="M127.632,78.085c.592-.189,1.181-.39,1.778-.562a1.448,1.448,0,0,1,1.653.535,1.477,1.477,0,0,1-.814,2.341c-1.71.576-3.426,1.133-5.141,1.694a3,3,0,0,1-.853.162,1.429,1.429,0,0,1-1.351-.786,1.287,1.287,0,0,1,.024-1.417c.928-1.6,1.819-3.226,2.72-4.842a1.979,1.979,0,0,1,.739-.8,1.408,1.408,0,0,1,1.808.363,1.437,1.437,0,0,1,0,1.941,5.7,5.7,0,0,0-.564,1.371" transform="translate(-77.422 -46.835)" fill="#785252"/>
      </g>
    </g>
  </g>
</svg>
