<svg xmlns="http://www.w3.org/2000/svg" xmlns:xlink="http://www.w3.org/1999/xlink" width="124.417" height="124.418" viewBox="0 0 124.417 124.418">
  <defs>
    <clipPath id="clip-path">
      <rect id="Rectángulo_379033" data-name="Rectángulo 379033" width="115" height="115" transform="translate(389.246 2670.246)" fill="#fff" stroke="#707070" stroke-width="1"/>
    </clipPath>
    <linearGradient id="linear-gradient" x1="0.989" y1="1.001" x2="0.081" y2="0.049" gradientUnits="objectBoundingBox">
      <stop offset="0" stop-color="#8c50af"/>
      <stop offset="1" stop-color="#fbe3b1"/>
    </linearGradient>
    <clipPath id="clip-path-2">
      <rect id="Rectángulo_379476" data-name="Rectángulo 379476" width="86" height="86" transform="translate(409 1416)" fill="#fff" stroke="#707070" stroke-width="1"/>
    </clipPath>
    <clipPath id="clip-path-3">
      <rect id="Rectángulo_379477" data-name="Rectángulo 379477" width="71.926" height="72" fill="#543f5c"/>
    </clipPath>
  </defs>
  <g id="Grupo_1075357" data-name="Grupo 1075357" transform="translate(-742.598 -1397.999)">
    <g id="Enmascarar_grupo_1074669" data-name="Enmascarar grupo 1074669" transform="translate(358.754 -1267.246)" clip-path="url(#clip-path)">
      <rect id="Imagen_27" data-name="Imagen 27" width="128.611" height="124.518" transform="translate(382.686 2667.283)" fill="#fff"/>
    </g>
    <path id="Sustracción_176" data-name="Sustracción 176" d="M113.2,113.2H0V0H113.2V113.2ZM6.49,6.49V106.714H106.713V6.49Z" transform="matrix(-0.995, -0.105, 0.105, -0.995, 855.182, 1522.417)" fill="url(#linear-gradient)"/>
    <g id="Enmascarar_grupo_1074727" data-name="Enmascarar grupo 1074727" transform="translate(353 2)" clip-path="url(#clip-path-2)">
      <g id="Grupo_1075080" data-name="Grupo 1075080" transform="translate(416 1423)">
        <g id="Grupo_1075079" data-name="Grupo 1075079" clip-path="url(#clip-path-3)">
          <path id="Trazado_642311" data-name="Trazado 642311" d="M63.456,63.9c.138.239.258.449.381.657a12.243,12.243,0,0,1,1.6,4.756A2.391,2.391,0,0,1,63.4,71.934a6.179,6.179,0,0,1-.866.064q-16.29,0-32.58,0a2.467,2.467,0,0,1-2.59-1.667,2.947,2.947,0,0,1-.1-1.263,12.136,12.136,0,0,1,1.865-5.03.907.907,0,0,0,.053-.138c-.268-.031-.519-.074-.772-.086a16.313,16.313,0,0,1-6.328-1.7,18.09,18.09,0,0,1-7.947-7.485,1.156,1.156,0,0,1,.943-1.782c1.924,0,2.988-1.164,3.765-2.717a14.981,14.981,0,0,0,1.32-5.014,33.532,33.532,0,0,0,.146-6.244c-.121-1.81-.367-3.611-.523-5.419a55.31,55.31,0,0,1-.2-8.018,37.265,37.265,0,0,1,.841-6.12,24.76,24.76,0,0,1,5.2-10.833,22.335,22.335,0,0,1,7.812-5.838A27.7,27.7,0,0,1,39.029.816,33.324,33.324,0,0,1,47.411.021,31.485,31.485,0,0,1,58.3,2.252,21.929,21.929,0,0,1,70.4,13.831a27.713,27.713,0,0,1,1.626,4.705,39.014,39.014,0,0,1,1.034,11.988c-.121,1.972-.328,3.939-.5,5.907a42.187,42.187,0,0,0-.22,7.178A18.523,18.523,0,0,0,73.37,49.1a12.063,12.063,0,0,0,1.025,2,3.466,3.466,0,0,0,2.986,1.74,1.722,1.722,0,0,1,.5.089,1.122,1.122,0,0,1,.655,1.653,17.932,17.932,0,0,1-9.912,8.331,17.153,17.153,0,0,1-4.935.954c-.061,0-.122.018-.238.036M51.108,51.189c0,.851-.012,1.7,0,2.548a3.087,3.087,0,0,0,2.2,2.974c.6.2,1.194.423,1.773.675a23.561,23.561,0,0,1,6.119,3.9,1.28,1.28,0,0,0,.652.285,12.65,12.65,0,0,0,3.879-.25,15.305,15.305,0,0,0,8.627-4.806c.454-.494.862-1.03,1.307-1.567-.1-.057-.137-.082-.175-.1a6.623,6.623,0,0,1-3.063-2.424,12.851,12.851,0,0,1-1.982-5.054,35.18,35.18,0,0,1-.526-6.382c-.027-2.662.386-5.289.575-7.934.059-.824.192-1.645.215-2.469.036-1.278-.037-2.561.02-3.837a25.953,25.953,0,0,0-.319-4.138,27.059,27.059,0,0,0-1.467-6.154,20.5,20.5,0,0,0-4.75-7.621,21.337,21.337,0,0,0-9.276-5.289,32.776,32.776,0,0,0-7.076-1.141,31.532,31.532,0,0,0-7.567.545A24.853,24.853,0,0,0,35.818,4.2a20.306,20.306,0,0,0-7.51,4.808,21.184,21.184,0,0,0-5.138,9.108,34.467,34.467,0,0,0-1.055,5.688,35.038,35.038,0,0,0-.171,3.825c-.005.7-.031,1.4.005,2.1.082,1.554.179,3.106.3,4.657.108,1.327.335,2.648.382,3.975.066,1.877.067,3.761,0,5.638A18.812,18.812,0,0,1,21.5,49.982a8.375,8.375,0,0,1-2.739,3.976,18.382,18.382,0,0,1-1.687,1c0-.012,0,.021.018.045a14.822,14.822,0,0,0,3,3.178,15.025,15.025,0,0,0,7.892,3.277c.948.1,1.907.1,2.861.1a1.045,1.045,0,0,0,.62-.269,23.366,23.366,0,0,1,7.979-4.614,2.9,2.9,0,0,0,2.048-2.426,10.515,10.515,0,0,0,.061-1.478c.009-.534,0-1.069,0-1.542-.713-.227-1.383-.419-2.038-.652a16.584,16.584,0,0,1-7.757-5.7,16.3,16.3,0,0,1-2.6-5c-.071-.223-.181-.266-.414-.285a10.645,10.645,0,0,1-1.935-.281,4.744,4.744,0,0,1,.71-9.185c.281-.056.567-.09.873-.137v-.368c0-1.505.05-3.013-.015-4.515a3.507,3.507,0,0,1,2.728-3.35c.78-.143,1.577-.182,2.362-.3a44.088,44.088,0,0,0,5.262-1.068,28.613,28.613,0,0,0,7.678-3.257,18.034,18.034,0,0,0,4.858-4.333,1.191,1.191,0,0,1,2.2.219c.123.25.252.5.394.739a18.482,18.482,0,0,0,5.769,5.94c.918.612,1.917,1.1,2.857,1.682a3.413,3.413,0,0,1,1.78,3.078c-.013,1.731,0,3.462,0,5.193v.35c.219.029.4.058.58.077A4.624,4.624,0,0,1,67.554,31.3a4.8,4.8,0,0,1,1.585,3.322,4.6,4.6,0,0,1-1.3,3.405,4.8,4.8,0,0,1-3.751,1.557.593.593,0,0,0-.67.5,16.369,16.369,0,0,1-4.389,6.882,16.9,16.9,0,0,1-7.925,4.223m1.024-35.751a2.051,2.051,0,0,0-.166.138,23.378,23.378,0,0,1-7.551,5.237,34.965,34.965,0,0,1-8.281,2.551,31.653,31.653,0,0,1-4.268.6,1.171,1.171,0,0,0-1.147,1.3c0,3.279-.015,6.558.01,9.836a13.521,13.521,0,0,0,.233,2.37,14.032,14.032,0,0,0,4.316,7.85,13.853,13.853,0,0,0,7.832,3.732A24.584,24.584,0,0,0,49.984,49a13.182,13.182,0,0,0,6.077-2.578,14.208,14.208,0,0,0,5.878-11.8c.016-3.343,0-6.687,0-10.03a2.22,2.22,0,0,0-.025-.385,1.371,1.371,0,0,0-.891-.981,22.334,22.334,0,0,1-8.557-7.313c-.11-.156-.218-.313-.337-.483M29.594,69.648h.751q16.224.009,32.448.022c.206,0,.287-.074.247-.26-.095-.45-.187-.9-.309-1.343a11.22,11.22,0,0,0-4.956-6.551.373.373,0,0,0-.328.019c-.317.2-.609.441-.924.647a17.117,17.117,0,0,1-7.837,2.508,22.094,22.094,0,0,1-6.23-.212,16.09,16.09,0,0,1-7.2-2.929.326.326,0,0,0-.45.006,11.541,11.541,0,0,0-5.1,7.24,8.439,8.439,0,0,0-.115.853m7.753-9.532c0,.04-.006.079-.009.119.46.245.91.51,1.381.73a16.854,16.854,0,0,0,6.56,1.418,19.035,19.035,0,0,0,6.558-.684c.906-.286,1.787-.654,2.669-1.012a6.768,6.768,0,0,0,.85-.492l.008-.118c-.981-.4-1.955-.812-2.946-1.185a5.36,5.36,0,0,1-3.55-4.161,15.912,15.912,0,0,1-.087-2.794c0-.126,0-.251,0-.36h-4.9c0,.721-.023,1.43.006,2.136a4.675,4.675,0,0,1-.436,2.156,5.392,5.392,0,0,1-3,2.943c-.648.256-1.306.489-1.95.754-.394.162-.771.365-1.155.551M28.338,32.4a2.347,2.347,0,0,0-2.171,1.3,2.471,2.471,0,0,0,.34,2.709,2.287,2.287,0,0,0,1.93.816c-.033-1.64-.066-3.231-.1-4.824m35.954-.02c0,.245,0,.489,0,.733-.026,1.242-.043,2.485-.091,3.726-.015.4-.006.447.4.379a2.473,2.473,0,0,0,2.052-2.634,2.442,2.442,0,0,0-2.364-2.2" transform="translate(-10.343 -0.001)" fill="#543f5c"/>
          <path id="Trazado_642312" data-name="Trazado 642312" d="M10.069,85.464A6.387,6.387,0,0,1,8.4,89.74a4.326,4.326,0,0,0-1.109,1.93,3.546,3.546,0,0,0,.719,3.172A10.372,10.372,0,0,1,9.534,96.95a5.863,5.863,0,0,1-.654,6.23,1.3,1.3,0,0,1-1.037.622,1.136,1.136,0,0,1-1.034-1.742.778.778,0,0,1,.089-.134,3.7,3.7,0,0,0,.786-3.174,4.065,4.065,0,0,0-.592-1.336,9.662,9.662,0,0,0-.848-1.052,5.879,5.879,0,0,1,.078-7.787,5.419,5.419,0,0,0,1.163-1.761,3.585,3.585,0,0,0-.518-3.388c-.236-.332-.523-.627-.782-.942a5.989,5.989,0,0,1-.675-6.776,6.471,6.471,0,0,1,.731-1.017A1.149,1.149,0,0,1,8.093,76.02a12.329,12.329,0,0,0-.772,1.4,3.379,3.379,0,0,0,.5,3.349c.38.532.842,1.006,1.219,1.54a6.175,6.175,0,0,1,1.028,3.151" transform="translate(-3.527 -55.089)" fill="#543f5c"/>
          <path id="Trazado_642313" data-name="Trazado 642313" d="M255.736,103.8a1.07,1.07,0,0,1-1.049-.582,1.125,1.125,0,0,1,.06-1.192c.129-.21.294-.4.424-.607a3.656,3.656,0,0,0-.182-4.143c-.412-.549-.887-1.059-1.244-1.641a5.958,5.958,0,0,1,.7-7.113,6.471,6.471,0,0,0,1.089-1.578,3.487,3.487,0,0,0-.687-3.889,7.6,7.6,0,0,1-1.549-2.466,5.842,5.842,0,0,1,1.163-5.872,1.091,1.091,0,0,1,1.264-.316,1.121,1.121,0,0,1,.761.958,1.107,1.107,0,0,1-.288.893,4.344,4.344,0,0,0-.831,1.794,3.209,3.209,0,0,0,.4,2.323,7.023,7.023,0,0,0,.9,1.214,5.918,5.918,0,0,1,1.5,3.884,5.829,5.829,0,0,1-1.427,3.973,6.162,6.162,0,0,0-1.284,1.875,3.516,3.516,0,0,0,.322,3.175,7.144,7.144,0,0,0,.707.917,5.979,5.979,0,0,1,.252,7.854,1.2,1.2,0,0,1-1,.537" transform="translate(-187.425 -55.09)" fill="#543f5c"/>
          <path id="Trazado_642314" data-name="Trazado 642314" d="M2.172,236.531a7.936,7.936,0,0,1,6.619,3.431,5.744,5.744,0,0,0,3.772,2.469c.43.077.877.058,1.316.1a1.2,1.2,0,0,1,1.076.95,1.124,1.124,0,0,1-.759,1.3,3.268,3.268,0,0,1-1.683.023,7.737,7.737,0,0,1-4.754-2.409c-.391-.409-.707-.891-1.063-1.335a5.479,5.479,0,0,0-5.155-2.089,1.255,1.255,0,0,1-1.5-.889,1.155,1.155,0,0,1,.85-1.407,3.176,3.176,0,0,1,.381-.064c.331-.031.663-.055.9-.075" transform="translate(0 -175.309)" fill="#543f5c"/>
          <path id="Trazado_642315" data-name="Trazado 642315" d="M220.289,243.572a1.113,1.113,0,0,1,1.047-1.049,16.212,16.212,0,0,0,1.723-.18,5.243,5.243,0,0,0,3.254-2.2,8.063,8.063,0,0,1,3.591-2.983,7.455,7.455,0,0,1,4.348-.5,1.144,1.144,0,0,1,.938,1.268,1.2,1.2,0,0,1-1.159,1.052c-.256.006-.513-.046-.77-.055a5.438,5.438,0,0,0-4.917,2.414,7.819,7.819,0,0,1-4.2,3.141,13.394,13.394,0,0,1-2.338.413,1.9,1.9,0,0,1-.9-.2,1.045,1.045,0,0,1-.623-1.123" transform="translate(-163.271 -175.306)" fill="#543f5c"/>
          <path id="Trazado_642316" data-name="Trazado 642316" d="M228.137,12.237c0,1.074-.236,1.474-.827,1.691a1.141,1.141,0,0,1-1.5-.864c-.067-.3-.07-.618-.109-.926a5.32,5.32,0,0,0-2.951-4.3,9.035,9.035,0,0,1-3.1-2.409A7.8,7.8,0,0,1,218,1.505a1.18,1.18,0,0,1,1.1-1.39,1.322,1.322,0,0,1,1.29,1.2,5.114,5.114,0,0,0,2.934,4.154,8.322,8.322,0,0,1,4.2,4.341,8.763,8.763,0,0,1,.613,2.427" transform="translate(-161.567 -0.082)" fill="#543f5c"/>
          <path id="Trazado_642317" data-name="Trazado 642317" d="M20.881,12.491a8.062,8.062,0,0,1,4.094-6.609c.344-.2.708-.361,1.047-.567a5.448,5.448,0,0,0,2.571-3.584,4.3,4.3,0,0,1,.28-1A1.087,1.087,0,0,1,30.211.184a1.127,1.127,0,0,1,.809,1.209A7.2,7.2,0,0,1,29.95,4.6a7.878,7.878,0,0,1-3.464,3.125,5.468,5.468,0,0,0-3.035,3.637,8.035,8.035,0,0,0-.18,1.336,1.333,1.333,0,0,1-.7,1.183,1.193,1.193,0,0,1-1.691-1.066c0-.107,0-.215,0-.322" transform="translate(-15.475 -0.093)" fill="#543f5c"/>
          <path id="Trazado_642318" data-name="Trazado 642318" d="M114.893,162.474a5.281,5.281,0,0,1,2.262.613,2.67,2.67,0,0,0,1.441.488,2.85,2.85,0,0,0,.771-.185c.456-.185.889-.43,1.346-.614a3.562,3.562,0,0,1,2.548-.1,5.317,5.317,0,0,1,2.12,1.3,1.338,1.338,0,0,1,.233,1.376,1.186,1.186,0,0,1-1.18.619,1.1,1.1,0,0,1-.419-.144,3.193,3.193,0,0,1-.432-.334,1.947,1.947,0,0,0-2.585-.277c-.311.166-.635.312-.959.451a3.63,3.63,0,0,1-3.144-.09c-.531-.257-1.065-.508-1.608-.738a.713.713,0,0,0-.452-.02,4.06,4.06,0,0,0-1.491.867,1.1,1.1,0,0,1-1.423.09,1.191,1.191,0,0,1-.248-1.679,4.9,4.9,0,0,1,3.22-1.622" transform="translate(-82.587 -120.421)" fill="#543f5c"/>
          <path id="Trazado_642319" data-name="Trazado 642319" d="M164.876,119.406a1.363,1.363,0,0,1-1.087,1.361,1.18,1.18,0,0,1-1.346-1.178,1.182,1.182,0,0,0-1.068-1.206,1.2,1.2,0,0,0-1.3.836,3.162,3.162,0,0,0-.133.562,1.118,1.118,0,0,1-1.175.99,1.06,1.06,0,0,1-1.1-1,3.015,3.015,0,0,1,.621-2.176,3.424,3.424,0,0,1,3.519-1.519,3.474,3.474,0,0,1,2.828,2.467c.1.279.16.573.239.86" transform="translate(-116.842 -85.994)" fill="#543f5c"/>
          <path id="Trazado_642320" data-name="Trazado 642320" d="M99.869,119.482a1.214,1.214,0,0,1-.635,1.155,1.152,1.152,0,0,1-1.34-.223,1.414,1.414,0,0,1-.3-.546c-.086-.24-.1-.506-.192-.744a1.168,1.168,0,0,0-1.271-.762,1.184,1.184,0,0,0-1.063,1.147,1.191,1.191,0,1,1-2.38.011,3.4,3.4,0,0,1,.889-2.254,3.513,3.513,0,0,1,3.905-1.071,3.755,3.755,0,0,1,2.387,3.286" transform="translate(-68.697 -85.968)" fill="#543f5c"/>
          <path id="Trazado_642321" data-name="Trazado 642321" d="M168.252,97.488c.139.042.386.11.629.19,1.037.343,2.075.686,3.109,1.038a1.354,1.354,0,0,1,.918,1.138,1.273,1.273,0,0,1-.913,1.125.916.916,0,0,1-.5.018c-1.237-.388-2.472-.783-3.7-1.2a1.254,1.254,0,0,1-.855-1.3,1.24,1.24,0,0,1,1.313-1.012" transform="translate(-123.721 -72.255)" fill="#543f5c"/>
          <path id="Trazado_642322" data-name="Trazado 642322" d="M94.09,98.686a1.24,1.24,0,0,1-.87,1.1c-1.225.425-2.459.826-3.7,1.215a1.141,1.141,0,0,1-1.268-.667,1.063,1.063,0,0,1,.324-1.376,1.7,1.7,0,0,1,.48-.252c1.115-.384,2.236-.747,3.349-1.136a1.214,1.214,0,0,1,1.682,1.117" transform="translate(-65.317 -72.25)" fill="#543f5c"/>
          <path id="Trazado_642323" data-name="Trazado 642323" d="M132.109,148.554c.419,0,.839-.013,1.258,0,.6.022,1.264.693,1.15,1.2a1.248,1.248,0,0,1-1.207,1.107c-.8.034-1.614.034-2.419,0a1.218,1.218,0,0,1-1.2-1.037c-.16-.523.513-1.257,1.126-1.275.43-.013.86,0,1.29,0Z" transform="translate(-96.106 -110.099)" fill="#543f5c"/>
        </g>
      </g>
    </g>
  </g>
</svg>
