<svg xmlns="http://www.w3.org/2000/svg" xmlns:xlink="http://www.w3.org/1999/xlink" width="124.417" height="124.418" viewBox="0 0 124.417 124.418">
  <defs>
    <clipPath id="clip-path">
      <rect id="Rectángulo_379044" data-name="Rectángulo 379044" width="115" height="115" transform="translate(389.246 2670.246)" fill="#fff" stroke="#707070" stroke-width="1"/>
    </clipPath>
    <linearGradient id="linear-gradient" x1="0.989" y1="1.001" x2="0.081" y2="0.049" gradientUnits="objectBoundingBox">
      <stop offset="0" stop-color="#8c50af"/>
      <stop offset="1" stop-color="#fbe3b1"/>
    </linearGradient>
    <clipPath id="clip-path-2">
      <rect id="Rectángulo_379486" data-name="Rectángulo 379486" width="86" height="86" transform="translate(409 1416)" fill="#fff" stroke="#707070" stroke-width="1"/>
    </clipPath>
    <clipPath id="clip-path-3">
      <rect id="Rectángulo_379732" data-name="Rectángulo 379732" width="77.719" height="77.555" fill="#543f5c"/>
    </clipPath>
  </defs>
  <g id="Grupo_1075358" data-name="Grupo 1075358" transform="translate(-2010.559 9590.363)">
    <g id="Enmascarar_grupo_1074670" data-name="Enmascarar grupo 1074670" transform="translate(1626.313 -12255.608)" clip-path="url(#clip-path)">
      <rect id="Imagen_28" data-name="Imagen 28" width="128.611" height="124.518" transform="translate(382.686 2667.283)" fill="#fff"/>
    </g>
    <path id="Sustracción_177" data-name="Sustracción 177" d="M113.2,113.2H0V0H113.2V113.2ZM6.49,6.49V106.714H106.713V6.49Z" transform="matrix(-0.995, -0.105, 0.105, -0.995, 2123.143, -9465.945)" fill="url(#linear-gradient)"/>
    <g id="Enmascarar_grupo_1074731" data-name="Enmascarar grupo 1074731" transform="translate(1619.73 -10986.362)" clip-path="url(#clip-path-2)">
      <g id="Grupo_1075353" data-name="Grupo 1075353" transform="translate(414.336 1419.029)">
        <g id="Grupo_1075352" data-name="Grupo 1075352" clip-path="url(#clip-path-3)">
          <path id="Trazado_642859" data-name="Trazado 642859" d="M19.314,57.921c.959-.961,1.849-1.855,2.74-2.747.647-.648,1.29-1.3,1.947-1.94a3.572,3.572,0,0,1,3.961-.722,3.521,3.521,0,0,1,1.006,5.8q-2.208,2.219-4.421,4.434c-.284.285-.561.576-.9.921H24.1q5.94,0,11.882,0a1.244,1.244,0,0,1,1.113.449,1.056,1.056,0,0,1,.115,1.116,1.144,1.144,0,0,1-.994.656,2.844,2.844,0,0,1-.348.006H23.442c.093.358.171.677.26.993a5.283,5.283,0,0,1,.2,2.3,3.5,3.5,0,0,1-.9,1.923c-1.422,1.463-2.871,2.9-4.33,4.325a2.408,2.408,0,0,1-.91.561c-1.576.5-3.147,1.044-4.754,1.425a4.771,4.771,0,0,1-4.565-1.291C6.06,73.823,3.732,71.459,1.4,69.1a5.27,5.27,0,0,1-.084-7.063c.752-.82,1.55-1.6,2.347-2.375a1.122,1.122,0,0,1,1.574.013,1.1,1.1,0,0,1,.006,1.513c-.539.575-1.111,1.119-1.676,1.669A4.226,4.226,0,0,0,2.362,64.65a2.882,2.882,0,0,0,.6,2.855c.63.738,1.361,1.391,2.048,2.081,1.514,1.519,3.034,3.033,4.541,4.559a3.463,3.463,0,0,0,2.578,1.179,5.408,5.408,0,0,0,1.356-.282c.99-.286,1.971-.6,2.957-.9a3.108,3.108,0,0,0,1.318-.81q1.609-1.613,3.224-3.22a2.074,2.074,0,0,0,.669-2.073c-.151-.613-.284-1.23-.446-1.937-.284.266-.485.45-.679.639-.514.5-1,1.032-1.542,1.507a1.092,1.092,0,1,1-1.483-1.6q1.877-1.862,3.748-3.73,2.908-2.9,5.812-5.8a6.6,6.6,0,0,0,.51-.568A1.143,1.143,0,0,0,27.7,55.16a1.281,1.281,0,0,0-1.349-.721,1.268,1.268,0,0,0-.571.22,8.341,8.341,0,0,0-.883.784c-1.438,1.447-2.865,2.906-4.3,4.353-1,1.007-1.49,1-2.5-.008-1.025-1.025-2.034-2.066-3.07-3.08a5.718,5.718,0,0,0-1.155-.937,3.051,3.051,0,0,0-3.563.406c-.443.39-.841.831-1.261,1.247a1.117,1.117,0,1,1-1.6-1.545A19.361,19.361,0,0,1,9.066,54.35,6.086,6.086,0,0,1,13.147,53.1c.01-.143.029-.287.029-.431-.005-1.783-.024-3.567-.019-5.35A10.46,10.46,0,0,1,22.231,36.8a10.356,10.356,0,0,1,1.389-.089c1.1-.012,2.2,0,3.37,0A13.777,13.777,0,0,1,25.908,30.8c-.269,0-.508,0-.747,0a5.393,5.393,0,0,1-5.274-4.264,5.246,5.246,0,0,1,2.717-5.627.375.375,0,0,0,.238-.4c-.008-1.656-.037-3.313,0-4.968a15.183,15.183,0,0,1,1.234-5.624,16.005,16.005,0,0,1,23.307-7.41,2.109,2.109,0,0,1,.493.433A.882.882,0,0,1,47.9,4.25a1.055,1.055,0,0,1-1.334.319c-.741-.381-1.451-.833-2.217-1.155a11.051,11.051,0,0,0-2.6-.849,15.668,15.668,0,0,0-4.465-.209A13.894,13.894,0,0,0,30.5,5.085a13.2,13.2,0,0,0-5.25,9,49.155,49.155,0,0,0-.161,5.029c-.007.266.021.534,0,.8s.071.34.345.375a5.687,5.687,0,0,0,2.958-.6c1.709-.716,3.437-1.389,5.159-2.075a1.12,1.12,0,0,1,1.28.777c.062.384.059.779.089,1.238a3.531,3.531,0,0,0,.721-.215c.718-.395,1.42-.817,2.124-1.238.178-.106.33-.256.506-.368a1.027,1.027,0,0,1,1.658.727,3.637,3.637,0,0,1,.047.725c0,.258.085.331.338.254a10.917,10.917,0,0,0,3.643-1.836,31.927,31.927,0,0,0,2.658-2.39c.771-.767,1.543-.723,2.077.232q1.255,2.242,2.482,4.5a.44.44,0,0,0,.459.281c.255-.015.513.014.765-.02.091-.012.237-.152.236-.232-.023-1.886.012-3.778-.121-5.657a12.227,12.227,0,0,0-2.057-5.793,8.923,8.923,0,0,1-.518-.821,1.078,1.078,0,0,1,1.095-1.64,1.055,1.055,0,0,1,.8.545,14.92,14.92,0,0,1,2.289,4.531,15.877,15.877,0,0,1,.783,5.222c-.05,1.33,0,2.663-.018,3.995a.506.506,0,0,0,.3.515,5.214,5.214,0,0,1-.722,9.508,5.684,5.684,0,0,1-2.081.348c-.171-.006-.343,0-.556,0a13.861,13.861,0,0,1-1.087,5.911c.811,0,1.565-.017,2.317,0a18.914,18.914,0,0,1,2.811.148,10.445,10.445,0,0,1,8.618,8.919,8.144,8.144,0,0,1,.081,1.142c.008,1.957,0,3.914,0,5.871v.283c.447.03.875.03,1.293.094a6.111,6.111,0,0,1,3.5,1.784c2.182,2.2,4.384,4.373,6.582,6.554A5.541,5.541,0,0,1,77.7,65.1a4.94,4.94,0,0,1-1.268,3.88c-1.4,1.511-2.885,2.951-4.341,4.414-.826.83-1.678,1.635-2.5,2.467a5.391,5.391,0,0,1-5.333,1.474c-1.262-.345-2.506-.753-3.757-1.136a4.446,4.446,0,0,1-1.854-1.126q-1.788-1.779-3.571-3.563a4.015,4.015,0,0,1-1.28-3.186,13.9,13.9,0,0,1,.354-1.834c.037-.18.08-.358.135-.6H41.757a1.177,1.177,0,0,1-1.3-.828,1.064,1.064,0,0,1,.711-1.319,2.808,2.808,0,0,1,.689-.074q5.819-.007,11.638,0h.608c-.11-.126-.174-.208-.247-.281q-2.477-2.468-4.957-4.933a4.165,4.165,0,0,1-1.179-2.008,3.572,3.572,0,0,1,6.071-3.156q2.182,2.172,4.359,4.349c.078.078.164.149.223.2L61.3,54.963a1.94,1.94,0,0,1,.35-.337c.59-.335.64-.842.627-1.464-.044-2.118-.038-4.238-.021-6.357A7.974,7.974,0,0,0,56.832,39.4a9.842,9.842,0,0,0-3.015-.446c-1.358-.022-2.718-.007-4.076.012a.615.615,0,0,0-.426.213,13.848,13.848,0,0,1-3.447,3.256.536.536,0,0,0-.163.4A7.54,7.54,0,0,1,45.182,46a6.721,6.721,0,0,1-5.424,4.256,6.829,6.829,0,0,1-7.3-4.5,8.278,8.278,0,0,1-.413-2.869.535.535,0,0,0-.269-.534,13.2,13.2,0,0,1-3.324-3.135.661.661,0,0,0-.438-.26c-1.683,0-3.369-.022-5.05.049a7.97,7.97,0,0,0-7.171,5.66,7.847,7.847,0,0,0-.325,2.222c0,2.316-.013,4.632-.011,6.948a.564.564,0,0,0,.131.368c1.155,1.14,2.32,2.268,3.481,3.4a3.417,3.417,0,0,1,.25.316m13.274-37.53c-1.364.541-2.7,1.078-4.036,1.594a.535.535,0,0,0-.406.647,7.078,7.078,0,0,1,.006.867c0,2.663,0,5.327,0,7.99a10.7,10.7,0,0,0,13.63,10.344,10.3,10.3,0,0,0,7.436-7.524,14.062,14.062,0,0,0,.346-4.1c-.013-2.547,0-5.094.036-7.641a3.035,3.035,0,0,0-.428-1.649c-.413-.7-.793-1.413-1.186-2.121-.195-.35-.388-.7-.58-1.048-.05.016-.076.017-.091.03-.078.069-.154.14-.231.211a14.631,14.631,0,0,1-7.6,3.955c-1.015.165-1.438-.055-1.72-1.023-.223.094-.447.178-.663.28a7.916,7.916,0,0,1-3.04.8,1.2,1.2,0,0,1-1.4-1.192c-.015-.135-.043-.269-.069-.421M56.654,66.164l-.131.008c-.126.536-.22,1.082-.386,1.606a2.264,2.264,0,0,0,.768,2.488c1,.964,1.976,1.958,2.955,2.946a3.329,3.329,0,0,0,1.443.929c1.246.358,2.485.744,3.735,1.091a2.567,2.567,0,0,0,.96.076,3.434,3.434,0,0,0,2.1-1.068c.494-.506,1-1,1.5-1.5,1.664-1.664,3.345-3.312,4.989-5a2.906,2.906,0,0,0,.647-3.446,4.8,4.8,0,0,0-.972-1.334c-2.177-2.2-4.385-4.37-6.573-6.56a3.18,3.18,0,0,0-4.629-.031c-1.2,1.228-2.418,2.435-3.641,3.638A1.229,1.229,0,0,1,57.348,60c-1.512-1.5-3.009-3.024-4.516-4.533a9.674,9.674,0,0,0-.843-.776,1.251,1.251,0,0,0-1.679.09,1.235,1.235,0,0,0-.2,1.69,5.336,5.336,0,0,0,.6.677q4.775,4.768,9.554,9.531a1.085,1.085,0,0,1-1.407,1.646,5.241,5.241,0,0,1-.591-.537c-.541-.539-1.075-1.084-1.612-1.627M34.277,43.648a4.574,4.574,0,0,0,5.044,4.429,4.515,4.515,0,0,0,4.111-4.419,12.721,12.721,0,0,1-9.156-.01m-8.4-15.16V22.563a3.142,3.142,0,0,0-3.415,1.421,2.855,2.855,0,0,0,.067,3.211,3.171,3.171,0,0,0,3.348,1.294m25.977-5.924v5.927a3.185,3.185,0,0,0,3.309-1.241,2.856,2.856,0,0,0,.119-3.239,3.128,3.128,0,0,0-3.428-1.447" transform="translate(0.001 0)" fill="#543f5c"/>
          <path id="Trazado_642860" data-name="Trazado 642860" d="M51.152,90.657a3.488,3.488,0,0,1-.635-.408,8.04,8.04,0,0,1-.8-.912,1.509,1.509,0,0,1-.287-1.617.953.953,0,0,0-.12-1.075,1.557,1.557,0,0,1,.025-1.991c.154-.214.077-.357-.026-.53a1.791,1.791,0,0,1,.109-2.218,7.355,7.355,0,0,0,.487-.754,1.165,1.165,0,0,1,1.326-.432,1.153,1.153,0,0,1,.682,1.145,2.465,2.465,0,0,1-.368.879.565.565,0,0,0-.072.662,3.168,3.168,0,0,1,.26.6,1.494,1.494,0,0,1-.205,1.229.527.527,0,0,0,0,.67,1.776,1.776,0,0,1,.275,1.857.61.61,0,0,0,.146.713,1.348,1.348,0,0,1,.424,1.5,1.168,1.168,0,0,1-1.215.676" transform="translate(-35.312 -58.175)" fill="#543f5c"/>
          <path id="Trazado_642861" data-name="Trazado 642861" d="M207.656,28.582a1.237,1.237,0,0,0,.36,1.186,1.609,1.609,0,0,1,.168,1.856.422.422,0,0,0,.057.546,1.679,1.679,0,0,1,.2,2.14c-.149.26-.268.537-.4.809a1.128,1.128,0,0,1-1.22.657.983.983,0,0,1-.84-1.1,6.868,6.868,0,0,1,.277-1.05.6.6,0,0,0-.006-.358,3.953,3.953,0,0,0-.321-.532,1.264,1.264,0,0,1-.021-1.439.447.447,0,0,0-.089-.657,1.705,1.705,0,0,1-.472-1.845.446.446,0,0,0-.183-.554,2.637,2.637,0,0,1-.552-.659,1.029,1.029,0,0,1,.247-1.4,1.012,1.012,0,0,1,1.415.041c.2.175.385.371.595.534a1.661,1.661,0,0,1,.781,1.826" transform="translate(-147.455 -18.689)" fill="#543f5c"/>
          <path id="Trazado_642862" data-name="Trazado 642862" d="M218.473,90.68a1.1,1.1,0,0,1-1.031-1.454,6.774,6.774,0,0,1,.555-.868.534.534,0,0,0,.083-.387,1.971,1.971,0,0,1,.273-2.118.614.614,0,0,0-.04-.535,1.7,1.7,0,0,1,.017-1.841.556.556,0,0,0-.064-.72,1.32,1.32,0,0,1-.11-1.662,1.107,1.107,0,0,1,1.779.1,5.575,5.575,0,0,0,.466.728,1.792,1.792,0,0,1,.1,2.248.386.386,0,0,0,0,.494,1.689,1.689,0,0,1-.062,2.148.6.6,0,0,0-.117.66,1.841,1.841,0,0,1-.548,2.276,4.746,4.746,0,0,0-.423.5,1.036,1.036,0,0,1-.872.423" transform="translate(-156.78 -58.2)" fill="#543f5c"/>
          <path id="Trazado_642863" data-name="Trazado 642863" d="M61.3,33.429a1.889,1.889,0,0,1,.435,1.295,1.064,1.064,0,0,1-1.935.606,12.5,12.5,0,0,1-.751-1.519,1.508,1.508,0,0,1,.43-1.649.358.358,0,0,0,.075-.455A1.807,1.807,0,0,1,59.9,29.48c.109-.106.11-.323.159-.49a.077.077,0,0,0,0-.034,2.1,2.1,0,0,1,.949-2.368,5.018,5.018,0,0,0,.461-.421,1.082,1.082,0,0,1,1.667,1.279,8.672,8.672,0,0,1-.651.84.555.555,0,0,0-.143.368,1.959,1.959,0,0,1-.589,2.114c-.061.053-.112.212-.079.264a1.825,1.825,0,0,1-.378,2.4" transform="translate(-42.511 -18.684)" fill="#543f5c"/>
          <path id="Trazado_642864" data-name="Trazado 642864" d="M128.244,124.664a5.686,5.686,0,0,1,3.868,1.563,1.124,1.124,0,1,1-1.581,1.577,3.535,3.535,0,0,0-4.476-.2,4.261,4.261,0,0,1-.693.511,1.054,1.054,0,0,1-1.366-.4,1.158,1.158,0,0,1,.1-1.32,6.863,6.863,0,0,1,1.025-.824,5.49,5.49,0,0,1,3.128-.9" transform="translate(-89.313 -89.913)" fill="#543f5c"/>
        </g>
      </g>
    </g>
  </g>
</svg>
