<svg xmlns="http://www.w3.org/2000/svg" xmlns:xlink="http://www.w3.org/1999/xlink" width="124.417" height="124.418" viewBox="0 0 124.417 124.418">
  <defs>
    <clipPath id="clip-path">
      <rect id="Rectángulo_379068" data-name="Rectángulo 379068" width="115" height="115" transform="translate(389.246 2670.246)" fill="#fff" stroke="#707070" stroke-width="1"/>
    </clipPath>
    <linearGradient id="linear-gradient" x1="0.989" y1="1.001" x2="0.081" y2="0.049" gradientUnits="objectBoundingBox">
      <stop offset="0" stop-color="#8c50af"/>
      <stop offset="1" stop-color="#fbe3b1"/>
    </linearGradient>
    <clipPath id="clip-path-2">
      <rect id="Rectángulo_379356" data-name="Rectángulo 379356" width="85" height="85" transform="translate(18794 -9459)" fill="#fff" stroke="#707070" stroke-width="1"/>
    </clipPath>
  </defs>
  <g id="Grupo_1075356" data-name="Grupo 1075356" transform="translate(-743.598 -1648.452)">
    <g id="Enmascarar_grupo_1074680" data-name="Enmascarar grupo 1074680" transform="translate(359.352 -1016.793)" clip-path="url(#clip-path)">
      <rect id="Imagen_34" data-name="Imagen 34" width="128.611" height="124.518" transform="translate(382.686 2667.283)" fill="#fff"/>
    </g>
    <path id="Sustracción_191" data-name="Sustracción 191" d="M113.2,113.2H0V0H113.2V113.2ZM6.49,6.49V106.714H106.713V6.49Z" transform="matrix(-0.995, -0.105, 0.105, -0.995, 856.182, 1772.87)" fill="url(#linear-gradient)"/>
    <g id="Enmascarar_grupo_1074715" data-name="Enmascarar grupo 1074715" transform="translate(-18034 11127.284)" clip-path="url(#clip-path-2)">
      <g id="Grupo_1074937" data-name="Grupo 1074937" transform="translate(-1373.318 329.594)">
        <path id="Trazado_612190" data-name="Trazado 612190" d="M1088.805,1457.174c-1.658,0-3.295,0-4.932.01a.346.346,0,0,0-.24.23,3.87,3.87,0,0,0-.023.676q0,13.169,0,26.338a7.786,7.786,0,0,1-.059,1.148,1.008,1.008,0,0,1-1.107.878.981.981,0,0,1-1-.952,7.068,7.068,0,0,1-.045-.777q0-12.627,0-25.254c0-.689.054-1.379.037-2.067a2.414,2.414,0,0,1,2.5-2.4c1.5-.014,3,0,4.507,0h.4c0-.865,0-1.7,0-2.53a2.462,2.462,0,0,1,2.539-2.621c.113,0,.226,0,.339,0q19.96,0,39.919-.007a1.967,1.967,0,0,1,1.531.643q4.573,4.816,9.161,9.617.678.711,1.361,1.418a1.627,1.627,0,0,1,.466,1.194q-.005,26.778,0,53.558a2.526,2.526,0,0,1-2.751,2.735h-1.857c0,.987,0,1.943,0,2.9a3.982,3.982,0,0,1-.031.642,3.367,3.367,0,0,1-3.442,2.965c-.113,0-.226,0-.339,0q-25.314,0-50.627,0a6.88,6.88,0,0,1-2.317-.407c-2.019-.712-4.053-1.383-6.081-2.069-2.316-.784-4.636-1.557-6.945-2.362a3.18,3.18,0,0,1-1.066-.627,1.273,1.273,0,0,1,0-1.943,2.851,2.851,0,0,1,.962-.6c2.245-.782,4.5-1.533,6.753-2.292,1.6-.539,3.2-1.077,4.809-1.6.2-.066.221-.179.221-.353q-.021-7.813-.033-15.626c0-2.384.027-4.768.044-7.152a.982.982,0,0,1,.632-.956.926.926,0,0,1,1.124.192,2.641,2.641,0,0,1,.4.934,1.75,1.75,0,0,1,.012.506q0,10.627.007,21.253c0,.077.009.155.016.243h5.173Zm2.219,55.481h.424q9.811,0,19.622-.007a4.726,4.726,0,0,1,.607.043,1.051,1.051,0,0,1,.876.826.931.931,0,0,1-.46,1.072,2.358,2.358,0,0,1-.991.269c-4.541.017-9.082.009-13.623.01q-5.964,0-11.928.007c-.463,0-.461,0-.464.45q-.015,3.728-.031,7.457c0,.177,0,.354,0,.543h37.655v-8.417c-.189-.012-.367-.033-.544-.033-1.762,0-3.524,0-5.287-.011a2.772,2.772,0,0,1-.861-.134,1.05,1.05,0,0,1,.253-2.045,4.686,4.686,0,0,1,.608-.036q9.437,0,18.875,0c.237,0,.474.015.71.034a3.213,3.213,0,0,1,3,2.773c.071.45.068.912.1,1.361.652,0,1.284.013,1.915,0,.49-.014.49-.031.49-.539q0-26.2,0-52.407v-.388h-.262c-2.722,0-5.445.019-8.167,0a2.385,2.385,0,0,1-2.548-2.557c-.021-2.813-.01-5.627-.012-8.44v-.434h-39.964Zm39.577,10.692c1.906,0,3.778.015,5.651-.008a1.1,1.1,0,0,0,1.108-1.139c.016-2,.022-4-.013-6a1.206,1.206,0,0,0-1.4-1.344c-1.66.028-3.32.01-4.98.013-.119,0-.237.011-.36.017Zm-5.671-.026h3.488c0-.2,0-.383,0-.563-.006-2.5-.018-4.992-.008-7.487,0-.306-.085-.4-.374-.4-.926.008-1.852.009-2.777,0-.255,0-.32.079-.32.332,0,2.586-.016,5.172-.026,7.758,0,.111.01.222.017.361m-42.071-7.964a.42.42,0,0,0-.113,0c-1.59.533-3.178,1.072-4.77,1.6-.214.071-.235.206-.235.386,0,1.162,0,2.325-.015,3.487a.3.3,0,0,0,.243.342q2.319.784,4.635,1.578c.078.026.161.039.254.062Zm57.6-54.093-7.229-7.564a4.268,4.268,0,0,0-.049.427c.009,2.269.024,4.538.029,6.807,0,.266.065.379.36.378,2.144-.011,4.289,0,6.434-.006.128,0,.255-.023.455-.042m-68.759,57.8,3.835,1.3v-2.575l-3.835,1.277" transform="translate(19104.08 -11233.436)" fill="#543f5c"/>
        <path id="Trazado_612191" data-name="Trazado 612191" d="M1202.716,1512.832c.375-.758.717-1.454,1.063-2.147,1.394-2.794,2.8-5.582,4.174-8.387a1.587,1.587,0,0,1,1.622-.993c3.885.026,7.77.009,11.654.013a2.47,2.47,0,0,1,.7.085,1.062,1.062,0,0,1,.7,1.177,1.029,1.029,0,0,1-.982.907c-.045,0-.091,0-.136,0q-5.742-.006-11.485,0a.437.437,0,0,0-.327.194q-2.994,5.972-5.967,11.955a1.09,1.09,0,0,1-1,.738,1.21,1.21,0,0,1-1.112-.806c-.758-1.562-1.5-3.133-2.252-4.7-.44-.914-.885-1.826-1.346-2.729a.444.444,0,0,0-.327-.2c-1-.011-2.01.02-3.013-.008a1.409,1.409,0,0,1-.8-.284.905.905,0,0,1-.392-1.008,1.2,1.2,0,0,1,1.122-.892c1.32-.037,2.642-.031,3.963,0a1.266,1.266,0,0,1,1.119.815q1.047,2.18,2.1,4.358c.3.616.592,1.232.918,1.913" transform="translate(19006.566 -11273.514)" fill="#543f5c"/>
        <path id="Trazado_612192" data-name="Trazado 612192" d="M1269.946,1526.919c.95.2,1.367.565,1.353,1.168-.013.584-.416.911-1.357,1.081,0,.623.015,1.253-.005,1.882a1.177,1.177,0,0,1-.68,1.092,1.062,1.062,0,0,1-1.121-.122.8.8,0,0,1-.369-.715c.014-.709,0-1.418,0-2.173h-.764c-1.129,0-2.258.007-3.387-.01a1.03,1.03,0,0,1-.971-1.572c1.338-2.378,2.716-4.734,4.112-7.077a1.7,1.7,0,0,1,1.438-.878,1.783,1.783,0,0,1,1.741,1.825c.012,1.694,0,3.388.006,5.082v.416m-2.2.023v-3.884l-.073-.024-2.234,3.908Z" transform="translate(18952.801 -11287.756)" fill="#543f5c"/>
        <path id="Trazado_612193" data-name="Trazado 612193" d="M1306.3,1602.784c.122-.3.258-.591.364-.895.467-1.341.921-2.687,1.39-4.027a1.1,1.1,0,0,1,1-.832,1,1,0,0,1,1.05.648,1.341,1.341,0,0,1,.023.838c-.432,1.317-.911,2.619-1.366,3.928q-1.226,3.53-2.441,7.063c-.272.793-.813,1.149-1.461.94a1.04,1.04,0,0,1-.691-1.346c.247-.761.5-1.52.791-2.266a1.611,1.611,0,0,0,.03-1.182q-1.207-3.34-2.4-6.685a5.092,5.092,0,0,1-.191-.718,1.014,1.014,0,0,1,.6-1.162,1.074,1.074,0,0,1,1.345.469,15.393,15.393,0,0,1,.581,1.477c.394,1.092.779,2.188,1.163,3.283.051.144.083.3.124.444l.093.022" transform="translate(18921.738 -11348.05)" fill="#543f5c"/>
        <path id="Trazado_612194" data-name="Trazado 612194" d="M1225.662,1603.442c-.592.785-1.14,1.53-1.709,2.257a5.392,5.392,0,0,1-.8.861.869.869,0,0,1-1.242-.147c-.429-.423-.516-.838-.207-1.26.726-.994,1.473-1.972,2.212-2.956.393-.523.4-.526.02-1.038-.626-.843-1.265-1.676-1.892-2.519a.921.921,0,0,1-.1-1.019,1.063,1.063,0,0,1,1.818-.218c.581.706,1.118,1.447,1.674,2.173.055.071.11.141.253.322.083-.138.143-.26.224-.366.533-.7,1.073-1.4,1.6-2.1a1.04,1.04,0,0,1,1.144-.383.957.957,0,0,1,.756.818,1.347,1.347,0,0,1-.373,1.118q-.837,1.109-1.682,2.211c-.347.456-.345.454,0,.9.735.958,1.473,1.916,2.2,2.879a1.086,1.086,0,1,1-1.6,1.465c-.343-.4-.644-.843-.966-1.265-.43-.564-.862-1.128-1.326-1.733" transform="translate(18984.711 -11348.027)" fill="#543f5c"/>
        <path id="Trazado_612195" data-name="Trazado 612195" d="M1346.374,1592.789a10.385,10.385,0,0,1-2.983,7.054,1.144,1.144,0,0,1-1.563.069,1,1,0,0,1-.017-1.529,8.137,8.137,0,0,0,.327-11.119,6.852,6.852,0,0,1-.453-.547.987.987,0,0,1,.09-1.328,1.035,1.035,0,0,1,1.357-.149,3.965,3.965,0,0,1,.616.576,10.309,10.309,0,0,1,2.626,6.974" transform="translate(18891.299 -11338.733)" fill="#543f5c"/>
        <path id="Trazado_612196" data-name="Trazado 612196" d="M1193.177,1592.707a11.343,11.343,0,0,1,2.44-6.58c.2-.233.388-.473.6-.687a1.069,1.069,0,0,1,1.594-.067,1.1,1.1,0,0,1-.036,1.575,8.137,8.137,0,0,0-.37,10.965c.145.173.3.34.445.511a1.13,1.13,0,0,1-.013,1.481,1.142,1.142,0,0,1-1.482,0,9.649,9.649,0,0,1-2.9-5.461c-.107-.622-.2-1.246-.283-1.741" transform="translate(19006.781 -11338.73)" fill="#543f5c"/>
        <path id="Trazado_612197" data-name="Trazado 612197" d="M1266.462,1605.371c0,.619,0,1.215,0,1.812a1.134,1.134,0,0,1-1.035,1.17,1.114,1.114,0,0,1-1.141-1.029,15.1,15.1,0,0,1-.042-1.657c0-.245-.082-.3-.313-.3-.552,0-1.107,0-1.656-.054a1.087,1.087,0,0,1-.973-.778.944.944,0,0,1,.31-1.1,1.381,1.381,0,0,1,.7-.279c.527-.048,1.06-.03,1.59-.041.1,0,.2-.009.339-.015,0-.212,0-.4,0-.589.013-.451,0-.905.052-1.353a1.042,1.042,0,0,1,1.11-.962,1.074,1.074,0,0,1,1.057,1.062c.02.5.03.994.023,1.49,0,.279.061.4.381.384a14.441,14.441,0,0,1,1.523.012,1.1,1.1,0,0,1,1.032.913,1.01,1.01,0,0,1-.657,1.133,2.958,2.958,0,0,1-.886.174c-.448.028-.9.007-1.414.007" transform="translate(18953.777 -11350.526)" fill="#543f5c"/>
        <path id="Trazado_612198" data-name="Trazado 612198" d="M1207.121,1695.482c-1.175,0-2.349,0-3.524,0a2.847,2.847,0,0,1-.736-.085,1.065,1.065,0,0,1,.064-2.057,1.886,1.886,0,0,1,.5-.072q3.625-.007,7.25,0a1.94,1.94,0,0,1,.369.042,1.123,1.123,0,0,1,.956,1.2,1.084,1.084,0,0,1-1.121.967c-1.253.012-2.507,0-3.76,0Z" transform="translate(18999.83 -11423.004)" fill="#543f5c"/>
        <path id="Trazado_612199" data-name="Trazado 612199" d="M1207.084,1673.936c-1.265,0-2.529.006-3.793,0a1.11,1.11,0,0,1-1.187-1.045,1.074,1.074,0,0,1,.762-1.043,2.128,2.128,0,0,1,.534-.077q3.76-.008,7.52,0a1.089,1.089,0,0,1,.627,1.983,1.416,1.416,0,0,1-.668.178c-1.264.017-2.529.008-3.793.008" transform="translate(18999.83 -11406.264)" fill="#543f5c"/>
      </g>
    </g>
  </g>
</svg>
