<svg xmlns="http://www.w3.org/2000/svg" xmlns:xlink="http://www.w3.org/1999/xlink" width="139" height="139" viewBox="0 0 139 139">
  <defs>
    <clipPath id="clip-path">
      <rect id="Rectángulo_379358" data-name="Rectángulo 379358" width="94" height="96" transform="translate(103.999 814.284)" fill="#fff" stroke="#707070" stroke-width="1"/>
    </clipPath>
    <clipPath id="clip-path-2">
      <path id="Trazado_641817" data-name="Trazado 641817" d="M35.78,38.532a8.257,8.257,0,1,1,8.257,8.257,8.256,8.256,0,0,1-8.257-8.257M42.661,0C24.771,0,0,15.137,0,37.156,0,48.165,9.634,49.541,19.267,49.541c2.216,0,6.881.11,9.633.11,8.16,0,13.761,2.105,13.761,9.523,0,9.633,4.128,12.385,9.633,12.385s33.027-6.881,33.027-35.779S60.551,0,42.661,0Z" transform="translate(-0.001)" fill="none"/>
    </clipPath>
    <linearGradient id="linear-gradient" y1="1.192" x2="0.016" y2="1.192" gradientUnits="objectBoundingBox">
      <stop offset="0" stop-color="#d1a788"/>
      <stop offset="1" stop-color="#f2d3b8"/>
    </linearGradient>
    <clipPath id="clip-path-3">
      <rect id="Rectángulo_379360" data-name="Rectángulo 379360" width="85.333" height="85.302" fill="none"/>
    </clipPath>
    <clipPath id="clip-path-4">
      <path id="Trazado_641819" data-name="Trazado 641819" d="M42,41.5a5.5,5.5,0,1,0,5.5-5.5A5.5,5.5,0,0,0,42,41.5" transform="translate(-42.001 -36)" fill="none"/>
    </clipPath>
    <linearGradient id="linear-gradient-2" x1="-5.25" y1="3.248" x2="-5.125" y2="3.248" gradientUnits="objectBoundingBox">
      <stop offset="0" stop-color="#474f72"/>
      <stop offset="1" stop-color="#878c9f"/>
    </linearGradient>
    <clipPath id="clip-path-5">
      <path id="Trazado_641820" data-name="Trazado 641820" d="M50,28.5a5.5,5.5,0,1,0,5.5-5.5A5.5,5.5,0,0,0,50,28.5" transform="translate(-50.001 -23)" fill="none"/>
    </clipPath>
    <linearGradient id="linear-gradient-3" x1="-6.25" y1="4.873" x2="-6.125" y2="4.873" gradientUnits="objectBoundingBox">
      <stop offset="0" stop-color="#b15de5"/>
      <stop offset="1" stop-color="#df86ef"/>
    </linearGradient>
    <clipPath id="clip-path-6">
      <path id="Trazado_641821" data-name="Trazado 641821" d="M45,15.5a5.5,5.5,0,1,0,5.5-5.5A5.5,5.5,0,0,0,45,15.5" transform="translate(-45.001 -10)" fill="none"/>
    </clipPath>
    <linearGradient id="linear-gradient-4" x1="-5.625" y1="6.498" x2="-5.5" y2="6.498" gradientUnits="objectBoundingBox">
      <stop offset="0" stop-color="#7aa8d7"/>
      <stop offset="1" stop-color="#c3d2e7"/>
    </linearGradient>
    <clipPath id="clip-path-7">
      <path id="Trazado_641822" data-name="Trazado 641822" d="M32,9.5a5.5,5.5,0,1,0,5.5-5.5A5.5,5.5,0,0,0,32,9.5" transform="translate(-32.001 -4)" fill="none"/>
    </clipPath>
    <linearGradient id="linear-gradient-5" x1="-4" y1="7.248" x2="-3.875" y2="7.248" gradientUnits="objectBoundingBox">
      <stop offset="0" stop-color="#8cdd79"/>
      <stop offset="1" stop-color="#d4e6b6"/>
    </linearGradient>
    <clipPath id="clip-path-8">
      <path id="Trazado_641823" data-name="Trazado 641823" d="M17,11.5a5.5,5.5,0,1,0,5.5-5.5A5.5,5.5,0,0,0,17,11.5" transform="translate(-17.001 -6)" fill="#ffe49a"/>
    </clipPath>
    <clipPath id="clip-path-9">
      <path id="Trazado_641824" data-name="Trazado 641824" d="M7,22.5a5.5,5.5,0,1,0,5.5-5.5A5.5,5.5,0,0,0,7,22.5" transform="translate(-7.001 -17)" fill="none"/>
    </clipPath>
    <linearGradient id="linear-gradient-6" x1="-0.875" y1="5.623" x2="-0.75" y2="5.623" gradientUnits="objectBoundingBox">
      <stop offset="0" stop-color="#da5466"/>
      <stop offset="1" stop-color="#f4929c"/>
    </linearGradient>
    <clipPath id="clip-path-10">
      <path id="Trazado_641825" data-name="Trazado 641825" d="M14.129,55a4.128,4.128,0,0,0,0,8.257c2,0-4.8.069,64.678-1.376a2.752,2.752,0,1,0,0-5.5C19.481,55.1,15.588,55,14.656,55c-.168,0-.239,0-.527,0" transform="translate(-10.001 -54.998)" fill="none"/>
    </clipPath>
    <linearGradient id="linear-gradient-7" x1="-0.181" y1="1.148" x2="-0.162" y2="1.148" gradientUnits="objectBoundingBox">
      <stop offset="0" stop-color="#9b756d"/>
      <stop offset="1" stop-color="#bc9388"/>
    </linearGradient>
    <clipPath id="clip-path-11">
      <path id="Trazado_641826" data-name="Trazado 641826" d="M9.083,54C5.739,54,4.129,58.128,0,58.128c0,5.5,11.147,10.17,14.532,3.771V57.11A6.126,6.126,0,0,0,9.2,54H9.083" transform="translate(-0.001 -54)" fill="none"/>
    </clipPath>
    <linearGradient id="linear-gradient-8" x1="0" y1="0.769" x2="0.095" y2="0.769" xlink:href="#linear-gradient"/>
    <clipPath id="clip-path-13">
      <path id="Trazado_641834" data-name="Trazado 641834" d="M11.215,56.208a4.126,4.126,0,0,0,0,5.838c1.61,1.61,1.706,1.266,18.055.922V55.289C12.752,55,15.766,55,14.128,55a4.117,4.117,0,0,0-2.913,1.208" transform="translate(-10.003 -55)" fill="none"/>
    </clipPath>
    <linearGradient id="linear-gradient-9" x1="-0.679" y1="1.107" x2="-0.609" y2="1.107" gradientUnits="objectBoundingBox">
      <stop offset="0" stop-color="#949aaf"/>
      <stop offset="1" stop-color="#c6ccda"/>
    </linearGradient>
  </defs>
  <g id="Grupo_1075353" data-name="Grupo 1075353" transform="translate(-421 -912.284)">
    <g id="Grupo_1074804" data-name="Grupo 1074804" transform="translate(-1013.668 -4969.716)">
      <g id="Grupo_1072229" data-name="Grupo 1072229" transform="translate(1434.668 5882)">
        <path id="Trazado_608385" data-name="Trazado 608385" d="M69.5,0A69.5,69.5,0,1,1,0,69.5,69.5,69.5,0,0,1,69.5,0Z" transform="translate(0)" fill="#fff"/>
      </g>
    </g>
    <g id="Enmascarar_grupo_1074717" data-name="Enmascarar grupo 1074717" transform="translate(341 120)" clip-path="url(#clip-path)">
      <g id="Grupo_1074965" data-name="Grupo 1074965" transform="translate(108.001 819.284)">
        <g id="Grupo_1074940" data-name="Grupo 1074940" transform="translate(0.001)">
          <g id="Grupo_1074939" data-name="Grupo 1074939" clip-path="url(#clip-path-2)">
            <rect id="Rectángulo_379359" data-name="Rectángulo 379359" width="85.32" height="71.559" transform="translate(0 0)" fill="url(#linear-gradient)"/>
          </g>
        </g>
        <g id="Grupo_1074942" data-name="Grupo 1074942">
          <g id="Grupo_1074941" data-name="Grupo 1074941" clip-path="url(#clip-path-3)">
            <path id="Trazado_641818" data-name="Trazado 641818" d="M85.322,26.587c0,28.9-27.523,35.779-33.027,35.779s-9.633-2.752-9.633-12.385C42.661,29.339-2.366,53.187.1,25.623c1,9.371,10.087,10.6,19.17,10.6,2.216,0,6.881.11,9.633.11,8.16,0,13.761,2.105,13.761,9.523,0,9.633,4.128,12.385,9.633,12.385s31.761-6.564,33.027-33.8Z" transform="translate(0 9.193)" fill="#cba07a"/>
          </g>
        </g>
        <g id="Grupo_1074944" data-name="Grupo 1074944" transform="translate(57.799 49.541)">
          <g id="Grupo_1074943" data-name="Grupo 1074943" clip-path="url(#clip-path-4)">
            <rect id="Rectángulo_379361" data-name="Rectángulo 379361" width="11.009" height="11.009" fill="url(#linear-gradient-2)"/>
          </g>
        </g>
        <g id="Grupo_1074946" data-name="Grupo 1074946" transform="translate(68.808 31.651)">
          <g id="Grupo_1074945" data-name="Grupo 1074945" clip-path="url(#clip-path-5)">
            <rect id="Rectángulo_379362" data-name="Rectángulo 379362" width="11.009" height="11.009" fill="url(#linear-gradient-3)"/>
          </g>
        </g>
        <g id="Grupo_1074948" data-name="Grupo 1074948" transform="translate(61.927 13.761)">
          <g id="Grupo_1074947" data-name="Grupo 1074947" clip-path="url(#clip-path-6)">
            <rect id="Rectángulo_379363" data-name="Rectángulo 379363" width="11.009" height="11.009" fill="url(#linear-gradient-4)"/>
          </g>
        </g>
        <g id="Grupo_1074950" data-name="Grupo 1074950" transform="translate(44.038 5.505)">
          <g id="Grupo_1074949" data-name="Grupo 1074949" clip-path="url(#clip-path-7)">
            <rect id="Rectángulo_379364" data-name="Rectángulo 379364" width="11.009" height="11.009" fill="url(#linear-gradient-5)"/>
          </g>
        </g>
        <g id="Grupo_1074952" data-name="Grupo 1074952" transform="translate(23.396 8.257)">
          <g id="Grupo_1074951" data-name="Grupo 1074951" clip-path="url(#clip-path-8)">
            <rect id="Rectángulo_379365" data-name="Rectángulo 379365" width="11.009" height="11.009" fill="#ffe49a"/>
          </g>
        </g>
        <g id="Grupo_1074954" data-name="Grupo 1074954" transform="translate(9.634 23.394)">
          <g id="Grupo_1074953" data-name="Grupo 1074953" clip-path="url(#clip-path-9)">
            <rect id="Rectángulo_379366" data-name="Rectángulo 379366" width="11.009" height="11.009" fill="url(#linear-gradient-6)"/>
          </g>
        </g>
        <g id="Grupo_1074956" data-name="Grupo 1074956" transform="translate(13.763 75.685)">
          <g id="Grupo_1074955" data-name="Grupo 1074955" clip-path="url(#clip-path-10)">
            <rect id="Rectángulo_379367" data-name="Rectángulo 379367" width="72.233" height="8.328" transform="translate(-0.674)" fill="url(#linear-gradient-7)"/>
          </g>
        </g>
        <g id="Grupo_1074958" data-name="Grupo 1074958" transform="translate(0.001 74.311)">
          <g id="Grupo_1074957" data-name="Grupo 1074957" clip-path="url(#clip-path-11)">
            <rect id="Rectángulo_379368" data-name="Rectángulo 379368" width="14.532" height="14.298" transform="translate(0)" fill="url(#linear-gradient-8)"/>
          </g>
        </g>
        <g id="Grupo_1074960" data-name="Grupo 1074960">
          <g id="Grupo_1074959" data-name="Grupo 1074959" clip-path="url(#clip-path-3)">
            <path id="Trazado_641827" data-name="Trazado 641827" d="M14.533,58.71v1.94C11.258,66.829.551,62.563,0,57.32c3.275,3.5,10.871,5.449,14.532,1.39" transform="translate(0 21.56)" fill="#cba07a"/>
            <path id="Trazado_641828" data-name="Trazado 641828" d="M17.832,23.885a5.5,5.5,0,0,0-10.651,0,5.5,5.5,0,1,1,10.651,0" transform="translate(2.633 6.39)" fill="#e8677d"/>
            <path id="Trazado_641829" data-name="Trazado 641829" d="M52.832,42.885a5.5,5.5,0,0,0-10.651,0,5.5,5.5,0,1,1,10.651,0" transform="translate(15.798 13.536)" fill="#575f7c"/>
            <path id="Trazado_641830" data-name="Trazado 641830" d="M60.832,29.885a5.5,5.5,0,0,0-10.651,0,5.5,5.5,0,1,1,10.651,0" transform="translate(18.807 8.646)" fill="#b86aef"/>
            <path id="Trazado_641831" data-name="Trazado 641831" d="M55.832,16.885a5.5,5.5,0,0,0-10.651,0,5.5,5.5,0,1,1,10.651,0" transform="translate(16.926 3.757)" fill="#86b8e0"/>
            <path id="Trazado_641832" data-name="Trazado 641832" d="M42.832,10.885a5.5,5.5,0,0,0-10.651,0,5.5,5.5,0,1,1,10.651,0" transform="translate(12.036 1.5)" fill="#a5ea92"/>
            <path id="Trazado_641833" data-name="Trazado 641833" d="M27.832,12.885a5.5,5.5,0,0,0-10.651,0,5.5,5.5,0,1,1,10.651,0" transform="translate(6.394 2.252)" fill="#ffd39f"/>
          </g>
        </g>
        <g id="Grupo_1074962" data-name="Grupo 1074962" transform="translate(13.766 75.687)">
          <g id="Grupo_1074961" data-name="Grupo 1074961" clip-path="url(#clip-path-13)">
            <rect id="Rectángulo_379370" data-name="Rectángulo 379370" width="19.666" height="8.656" transform="translate(-0.404)" fill="url(#linear-gradient-9)"/>
          </g>
        </g>
        <g id="Grupo_1074964" data-name="Grupo 1074964">
          <g id="Grupo_1074963" data-name="Grupo 1074963" clip-path="url(#clip-path-3)">
            <path id="Trazado_641835" data-name="Trazado 641835" d="M73.542,61.128,24,62.16V59.408l49.541-1.032A2.754,2.754,0,0,0,75.936,57a2.752,2.752,0,0,1-2.394,4.128" transform="translate(9.028 21.44)" fill="#8a6762"/>
            <path id="Trazado_641836" data-name="Trazado 641836" d="M29.264,59.463v2.752c-16.348.344-16.445.688-18.055-.922A4.128,4.128,0,0,1,10.246,57a4.129,4.129,0,0,0,3.881,2.752c1.638,0-1.376,0,15.137-.289" transform="translate(3.764 21.44)" fill="#8288a1"/>
          </g>
        </g>
      </g>
    </g>
  </g>
</svg>
