<svg xmlns="http://www.w3.org/2000/svg" xmlns:xlink="http://www.w3.org/1999/xlink" width="124.418" height="124.418" viewBox="0 0 124.418 124.418">
  <defs>
    <clipPath id="clip-path">
      <rect id="Rectángulo_379243" data-name="Rectángulo 379243" width="115" height="115" transform="translate(389.246 2670.246)" fill="#fff" stroke="#707070" stroke-width="1"/>
    </clipPath>
    <linearGradient id="linear-gradient" x1="0.989" y1="1.001" x2="0.081" y2="0.049" gradientUnits="objectBoundingBox">
      <stop offset="0" stop-color="#8c50af"/>
      <stop offset="1" stop-color="#fbe3b1"/>
    </linearGradient>
    <clipPath id="clip-path-2">
      <rect id="Rectángulo_379353" data-name="Rectángulo 379353" width="85" height="85" transform="translate(18798 -9459)" fill="#fff" stroke="#707070" stroke-width="1"/>
    </clipPath>
  </defs>
  <g id="Grupo_1075359" data-name="Grupo 1075359" transform="translate(-18777.598 9476.832)">
    <g id="Enmascarar_grupo_1074702" data-name="Enmascarar grupo 1074702" transform="translate(18393.754 -12142.077)" clip-path="url(#clip-path)">
      <rect id="Imagen_46" data-name="Imagen 46" width="128.611" height="124.518" transform="translate(382.686 2667.283)" fill="#fff"/>
    </g>
    <path id="Sustracción_218" data-name="Sustracción 218" d="M113.2,113.2H0V0H113.2V113.2ZM6.49,6.49V106.714H106.713V6.49Z" transform="matrix(-0.995, -0.105, 0.105, -0.995, 18890.182, -9352.414)" fill="url(#linear-gradient)"/>
    <g id="Enmascarar_grupo_1074712" data-name="Enmascarar grupo 1074712" clip-path="url(#clip-path-2)">
      <g id="Grupo_1074932" data-name="Grupo 1074932" transform="translate(1.697 3.342)">
        <path id="Trazado_641811" data-name="Trazado 641811" d="M637.544,206.117v-7.435c-.809.178-1.583.356-2.36.518-2.02.421-4.045.824-6.063,1.255-1.886.4-3.766.836-5.651,1.245q-3.5.761-7.014,1.5c-.26.054-.335.152-.334.406.021,8.329.052,16.658.041,24.986a13.474,13.474,0,0,1-2.226,7.737,13.091,13.091,0,0,1-23.42-3.27,12.085,12.085,0,0,1-.6-4.856,13.18,13.18,0,0,1,8.748-11.336,13.038,13.038,0,0,1,6.572-.565,8.168,8.168,0,0,1,.951.246c.247.07.334-.03.331-.271-.006-.6,0-1.193,0-1.79q-.008-11.909-.018-23.818c0-.645,0-1.291.006-1.936a1.546,1.546,0,0,1,1.365-1.666q4.46-.915,8.924-1.81c1.059-.213,2.124-.4,3.182-.611,2.153-.439,4.3-.9,6.455-1.335q4.138-.844,8.281-1.671,4.75-.95,9.5-1.892c.428-.085.849-.228,1.28-.27a1.573,1.573,0,0,1,1.67,1.353,5.07,5.07,0,0,1,.031.692q.011,18.393.024,36.786a13.016,13.016,0,0,1-3.93,9.663,12.808,12.808,0,0,1-7.829,3.69,13.112,13.112,0,0,1-13.33-7.745,12.348,12.348,0,0,1-.949-7.024,12.817,12.817,0,0,1,8.854-10.585,12.627,12.627,0,0,1,6.114-.519,13.938,13.938,0,0,1,1.394.334m6.481-23.154-2.3.464q-4.374.879-8.748,1.757c-2.38.481-4.756.978-7.137,1.455-2.024.405-4.054.783-6.078,1.187s-4.067.831-6.1,1.251c-1.248.257-2.494.523-3.743.778a.325.325,0,0,0-.3.4c.031.461.045.925.045,1.387q.006,13.187.005,26.375c0,.438-.027.876-.037,1.314a1.509,1.509,0,0,1-1.059,1.5,1.644,1.644,0,0,1-1.7-.448,4.789,4.789,0,0,0-1.3-.763,8.232,8.232,0,0,0-3.826-.28,9.776,9.776,0,0,0-8.465,7.778,9.428,9.428,0,0,0,.6,6,9.587,9.587,0,0,0,8.5,5.892,9.355,9.355,0,0,0,6.279-1.688,9.722,9.722,0,0,0,4.285-8.346q.014-11.707-.006-23.414c0-1.2-.005-2.41.022-3.615a1.588,1.588,0,0,1,1.216-1.472c.464-.136.948-.2,1.423-.3q4.471-.946,8.942-1.9c1.982-.424,3.961-.865,5.943-1.291,1.33-.286,2.664-.552,3.993-.84,1.364-.3,2.722-.615,4.087-.906a1.616,1.616,0,0,1,2.171,1.681c.007.158.008.317.008.475q0,5.169.006,10.338c0,.4.021.8,0,1.205a1.529,1.529,0,0,1-1.069,1.43,1.583,1.583,0,0,1-1.666-.433,3.71,3.71,0,0,0-1.293-.767,9.373,9.373,0,0,0-6.182.276,9.611,9.611,0,0,0-6.226,7.664,9,9,0,0,0,.4,4.814,9.6,9.6,0,0,0,8.364,6.59,9.4,9.4,0,0,0,7.4-2.216,9.686,9.686,0,0,0,3.548-7.8c-.024-5.187-.012-10.375-.008-15.562q.007-9.845.023-19.689c0-.094-.016-.187-.025-.286" transform="translate(18227.477 -9621.098)" fill="#543f5c"/>
        <path id="Trazado_641812" data-name="Trazado 641812" d="M559.573,113.271a16.849,16.849,0,0,0-3.517-7.959c-3.143-3.985-6.638-5.606-10.649-6.731-.008.149-.021.288-.021.426,0,2.07.024,4.139,0,6.208a1.6,1.6,0,0,1-1.312,1.615,1.632,1.632,0,0,1-1.846-1.446q-.021-4.511,0-9.023a1.583,1.583,0,0,1,1.966-1.436,15.335,15.335,0,0,1,1.6.48c1.669.592,3.385,1.087,4.987,1.828A20.828,20.828,0,0,1,560.9,107.2a22.745,22.745,0,0,1,1.86,5.849,18.073,18.073,0,0,1,.189,3.561,1.473,1.473,0,0,1-1.992,1.174,13.255,13.255,0,0,1-1.627-.893q-3.685-2.185-7.365-4.382c-.089-.053-.187-.092-.378-.184,0,.417,0,.753,0,1.09q0,11.634.011,23.269a12.622,12.622,0,0,1-8.61,11.9,12.223,12.223,0,0,1-5.5.573,12.481,12.481,0,0,1-8.086-4.379,12.48,12.48,0,0,1,1.377-17.606,12.673,12.673,0,0,1,6.114-2.9,9.57,9.57,0,0,1,4.366.056,9.239,9.239,0,0,0,.942.156c.008-.169.019-.3.019-.424q0-2.155,0-4.31a1.61,1.61,0,0,1,1.513-1.614,1.517,1.517,0,0,1,1.63,1.466c.048,1.4.044,2.8.051,4.2.006,1.144.01,2.289-.014,3.434a1.6,1.6,0,0,1-1.494,1.6,1.358,1.358,0,0,1-1.153-.445,3.884,3.884,0,0,0-2.636-1.09,9.689,9.689,0,0,0-3.475.226,9.441,9.441,0,1,0,10.9,13.208,8.773,8.773,0,0,0,.894-3.836q0-13.151.009-26.3a10.635,10.635,0,0,1,.044-1.167,1.567,1.567,0,0,1,1.769-1.439,1.181,1.181,0,0,1,.469.176q4.238,2.506,8.47,5.021c.092.054.187.1.28.154l.1-.062" transform="translate(18276.904 -9555.225)" fill="#543f5c"/>
      </g>
    </g>
  </g>
</svg>
