<svg xmlns="http://www.w3.org/2000/svg" xmlns:xlink="http://www.w3.org/1999/xlink" width="124.418" height="124.418" viewBox="0 0 124.418 124.418">
  <defs>
    <clipPath id="clip-path">
      <rect id="Rectángulo_379247" data-name="Rectángulo 379247" width="115" height="115" transform="translate(389.246 2670.246)" fill="#fff" stroke="#707070" stroke-width="1"/>
    </clipPath>
    <linearGradient id="linear-gradient" x1="0.989" y1="1.001" x2="0.081" y2="0.049" gradientUnits="objectBoundingBox">
      <stop offset="0" stop-color="#8c50af"/>
      <stop offset="1" stop-color="#fbe3b1"/>
    </linearGradient>
    <clipPath id="clip-path-2">
      <rect id="Rectángulo_379351" data-name="Rectángulo 379351" width="85" height="85" transform="translate(19851 -9457)" fill="#fff" stroke="#707070" stroke-width="1"/>
    </clipPath>
  </defs>
  <g id="Grupo_1075362" data-name="Grupo 1075362" transform="translate(-19831.348 9476.832)">
    <g id="Enmascarar_grupo_1074704" data-name="Enmascarar grupo 1074704" transform="translate(19446.754 -12142.246)" clip-path="url(#clip-path)">
      <rect id="Imagen_48" data-name="Imagen 48" width="128.611" height="124.518" transform="translate(382.686 2667.283)" fill="#fff"/>
    </g>
    <path id="Sustracción_220" data-name="Sustracción 220" d="M113.2,113.2H0V0H113.2V113.2ZM6.49,6.49V106.714H106.713V6.49Z" transform="matrix(-0.995, -0.105, 0.105, -0.995, 19943.932, -9352.414)" fill="url(#linear-gradient)"/>
    <g id="Enmascarar_grupo_1074709" data-name="Enmascarar grupo 1074709" clip-path="url(#clip-path-2)">
      <g id="Grupo_1074929" data-name="Grupo 1074929" transform="translate(200.928 -690.05)">
        <path id="Trazado_612200" data-name="Trazado 612200" d="M547.73,1658.286a8.609,8.609,0,0,1,.684,1.486,2.558,2.558,0,0,1-.936,2.735c-.849.682-1.751,1.3-2.641,1.929q-4.8,3.4-9.618,6.785a5.1,5.1,0,0,1-1.335.716,2.564,2.564,0,0,1-2.951-.927c-.753-.944-1.426-1.952-2.126-2.937q-5.072-7.128-10.138-14.259c-.151-.212-.3-.429-.427-.655a2.6,2.6,0,0,1,.458-3.339,9.853,9.853,0,0,1,1.175-.917q5.765-4.074,11.533-8.142a3.111,3.111,0,0,1,2.135-.6,2.824,2.824,0,0,1,2.081,1.275c.111.149.225.295.361.472.592-.41,1.156-.8,1.717-1.19q3.174-2.224,6.346-4.453a9.154,9.154,0,0,1,3.2-1.4,6.5,6.5,0,0,1,1.485-.112,14.148,14.148,0,0,1,2.789.252c1.368.272,2.76.425,4.142.633q2.757.414,5.514.834c1.345.207,2.687.425,4.031.638.77.123,1.556.187,2.309.378a5.212,5.212,0,0,1,2.92,8.265,1.359,1.359,0,0,0-.068.121,1.077,1.077,0,0,0,.25.09c.6.054,1.2.113,1.807.137a.517.517,0,0,0,.361-.215c1.455-2.078,2.9-4.165,4.346-6.246.846-1.216,1.652-2.464,2.566-3.627a4.548,4.548,0,0,1,4.8-1.758,4.7,4.7,0,0,1,3.726,3.729.647.647,0,0,0,.551.574,4.815,4.815,0,0,1,1.752,8.453c-.876.755-1.871,1.374-2.821,2.043q-3.227,2.273-6.462,4.535a14.3,14.3,0,0,1-5.638,2.4,25.136,25.136,0,0,1-4.325.2c-1.672.028-3.345-.015-5.017-.029a1.317,1.317,0,0,1-1.343-.95,1.073,1.073,0,0,1,1-1.336c1.4-.015,2.8,0,4.2.006,1.067,0,2.135-.017,3.2,0a10.719,10.719,0,0,0,6.492-2.049c2.944-2.058,5.879-4.129,8.826-6.182a3,3,0,0,0,1.426-2.03,2.419,2.419,0,0,0-1.09-2.527,2.515,2.515,0,0,0-2.885-.057c-.854.532-1.66,1.141-2.485,1.72q-3.579,2.514-7.154,5.036a4,4,0,0,1-3.025.712c-.971-.141-1.959-.162-2.939-.247q-3.683-.317-7.366-.643c-1.1-.1-2.2-.174-3.294-.287a1.175,1.175,0,0,1-.956-.809.934.934,0,0,1,.242-1.044,1.144,1.144,0,0,1,1-.431c.9.091,1.792.17,2.69.243q1.629.133,3.26.248a2.946,2.946,0,0,0,3.148-2.679,2.987,2.987,0,0,0-2.666-3.28c-1.5-.2-3-.451-4.5-.671-1.1-.161-2.2-.3-3.3-.466-2.726-.417-5.447-.87-8.178-1.254a15.105,15.105,0,0,0-2.626-.079,4.459,4.459,0,0,0-2.374.872c-2.676,1.861-5.336,3.745-8,5.622-.1.067-.181.148-.26.214l5.363,7.537c1.148,1.613,2.3,3.222,3.44,4.84.163.231.294.256.546.13a24.813,24.813,0,0,1,5.851-2.047,29.552,29.552,0,0,1,7.85-.514,1.292,1.292,0,0,1,1.114.445,1.088,1.088,0,0,1,.145,1.136,1.069,1.069,0,0,1-1,.67c-.687.027-1.375.016-2.062,0a22.777,22.777,0,0,0-8.548,1.347c-.781.295-1.547.631-2.273.929m-27.669-6.529c.157.264.264.475.4.666q2.675,3.771,5.356,7.536,3.3,4.635,6.6,9.267c.557.777.6.778,1.4.221,1.439-1,2.867-2.022,4.3-3.032.989-.7,1.977-1.392,2.974-2.076.239-.165.275-.311.1-.545-.258-.34-.49-.7-.737-1.046q-5.956-8.376-11.907-16.754c-.194-.274-.312-.246-.552-.074-1.57,1.125-3.152,2.236-4.729,3.352-.91.643-1.824,1.281-2.723,1.939a3.414,3.414,0,0,0-.484.547m10.108-7.354c.158.213.288.382.411.555q3.821,5.373,7.642,10.746c1.615,2.268,3.237,4.531,4.845,6.8.169.24.284.231.5.07.736-.539,1.488-1.056,2.235-1.58a.634.634,0,0,0,.232-.969,4.512,4.512,0,0,0-.25-.388q-4.57-6.432-9.142-12.863c-.954-1.342-1.905-2.686-2.87-4.021-.3-.418-.556-.479-.967-.2-.883.594-1.745,1.219-2.64,1.848m45.874.79.055.051a1.4,1.4,0,0,0,.139-.076c2.094-1.469,4.179-2.949,6.283-4.4q1.546-1.067,3.153-2.044c.26-.159.319-.3.256-.552a2.635,2.635,0,0,0-2.1-1.733,2.74,2.74,0,0,0-2.64,1.334q-2.176,3.137-4.362,6.269c-.265.381-.52.77-.78,1.155" transform="translate(19137.238 -10356.633)" fill="#543f5c"/>
        <path id="Trazado_612201" data-name="Trazado 612201" d="M645.463,1480.679c.25-.267.492-.542.751-.8,1.142-1.139,2.294-2.268,3.428-3.414a.78.78,0,0,0,.2-.5c.014-1.755.006-3.511.01-5.267a1.28,1.28,0,0,1,.9-1.367,1.094,1.094,0,0,1,1.381.932c.013,1.079.007,2.159.008,3.238,0,.125,0,.251,0,.469.143-.136.224-.21.3-.287q2.176-2.126,4.348-4.256a.944.944,0,0,1,1.137-.219,1.1,1.1,0,0,1,.735,1.11,1.268,1.268,0,0,1-.321.678c-.812.848-1.65,1.67-2.482,2.5-.647.644-1.3,1.283-1.947,1.926a1.026,1.026,0,0,0-.1.175c.269,0,.489,0,.708,0q1.334-.008,2.669-.016a1.168,1.168,0,0,1,1.235.766,1.015,1.015,0,0,1-.375,1.249,2.6,2.6,0,0,1-1.127.35c-1.719.037-3.44.021-5.16.011a.8.8,0,0,0-.627.248c-1.328,1.339-2.666,2.667-4,4-.03.03-.051.068-.123.162.244,0,.428,0,.612,0q2.082-.012,4.164-.024a4.019,4.019,0,0,1,.5.025,1.05,1.05,0,0,1,.936.839,1.033,1.033,0,0,1-.578,1.241,3.873,3.873,0,0,1-1.276.227c-2.076.014-4.151,0-6.227-.021a.96.96,0,0,0-.758.293q-2.472,2.484-4.961,4.952c-.108.108-.207.224-.383.416.684.062,1.287.154,1.891.163a39.85,39.85,0,0,0,4.933-.175,20.831,20.831,0,0,0,6.515-1.744c1.189-.548,2.3-1.26,3.444-1.908a1.281,1.281,0,0,1,1.261-.221,1.074,1.074,0,0,1,.334,1.81,7.65,7.65,0,0,1-1.063.77,23.338,23.338,0,0,1-5.657,2.614,27.153,27.153,0,0,1-9.547,1.145c-.875-.044-1.753-.1-2.619-.221a3.676,3.676,0,0,1-1.966-.925c-.07-.063-.276-.095-.32-.048-1.111,1.187-2.576,1.172-4.028,1.215a19.87,19.87,0,0,1-6.6-.816,16.428,16.428,0,0,1-11.5-12.971,29.226,29.226,0,0,1-.4-4.451,7.055,7.055,0,0,1,.547-3.089,3.088,3.088,0,0,1,2.35-1.766,17.033,17.033,0,0,1,5.9,0,17.686,17.686,0,0,1,7.668,3,15.857,15.857,0,0,1,5.113,6c.07.144.148.284.255.49a21.376,21.376,0,0,1,1.766-5.26,22.115,22.115,0,0,1,12.013-11.191,26.315,26.315,0,0,1,6.776-1.654,23.7,23.7,0,0,1,7.328.149,4.233,4.233,0,0,1,3.224,3.434,27.312,27.312,0,0,1,.258,5.246c-.015.753-.186,1.5-.275,2.253a23.566,23.566,0,0,1-5.052,12.209,1.191,1.191,0,0,1-1.19.466,1.025,1.025,0,0,1-.853-.8,1.137,1.137,0,0,1,.238-1.031c.621-.895,1.28-1.767,1.845-2.7a19.394,19.394,0,0,0,1.945-4.522,25.587,25.587,0,0,0,.955-8.786,17.748,17.748,0,0,0-.152-2.054,1.8,1.8,0,0,0-1.825-1.579,34.939,34.939,0,0,0-6.43.008,23.445,23.445,0,0,0-4.131.849,21.307,21.307,0,0,0-4.377,1.837,19.605,19.605,0,0,0-8.639,9.731,21.5,21.5,0,0,0-1.6,6.165,25.719,25.719,0,0,0-.09,5.185c.047.477.007.963.007,1.445l.1.037a3.04,3.04,0,0,0,.288-.225q2.6-2.583,5.188-5.178a.873.873,0,0,0,.21-.561c.013-2.218.005-4.436.009-6.654a2.718,2.718,0,0,1,.066-.6,1.031,1.031,0,0,1,1.1-.861.964.964,0,0,1,1.055.928,5.983,5.983,0,0,1,.058.85c.006,1.43,0,2.861,0,4.291l.1.061m-16.556,2.452.154-.112c0-.887-.006-1.774,0-2.661a1.137,1.137,0,1,1,2.272-.089,3.086,3.086,0,0,1,.006.32c0,1.411.018,2.823-.01,4.234a1.265,1.265,0,0,0,.438,1.024c.885.842,1.754,1.7,2.622,2.559a2.132,2.132,0,0,1,.251.386l.121-.095a2.035,2.035,0,0,0,.051-.271,18.288,18.288,0,0,0-.426-5.614,13.833,13.833,0,0,0-6.652-9,17.12,17.12,0,0,0-10.6-1.882.9.9,0,0,0-.9.855,16.6,16.6,0,0,0,.945,8.732A13.862,13.862,0,0,0,627.8,1490.2a21.506,21.506,0,0,0,5.243.287c.028,0,.056-.03.1-.054-.071-.081-.129-.155-.194-.22-.94-.939-1.891-1.866-2.813-2.822a1.038,1.038,0,0,0-.844-.328c-1.376.016-2.752.027-4.127,0a3.46,3.46,0,0,1-1.133-.24,1.055,1.055,0,0,1-.553-1.1,1.075,1.075,0,0,1,.933-.929c.65-.037,1.3-.034,1.954-.043.335-.005.67,0,1.069,0-.117-.134-.194-.234-.282-.323-.662-.663-1.318-1.332-2-1.978a.846.846,0,0,0-.524-.208c-1.162-.017-2.325,0-3.487-.012a2.354,2.354,0,0,1-.729-.12,1.084,1.084,0,0,1-.693-1.252,1.016,1.016,0,0,1,1.026-.9c.5-.016,1,0,1.494-.007.1,0,.2-.014.378-.028-.205-.217-.354-.382-.51-.538-.7-.7-1.4-1.385-2.092-2.084a1.076,1.076,0,0,1-.369-1.087,1.1,1.1,0,0,1,1.867-.56c.736.688,1.434,1.417,2.15,2.126.161.159.328.311.551.522,0-.371,0-.643,0-.913s-.009-.546,0-.818a1.149,1.149,0,0,1,1.448-1.091,1.165,1.165,0,0,1,.827,1.195c.006,1.174-.011,2.348.014,3.522a1.1,1.1,0,0,0,.258.656c.695.775,1.421,1.522,2.136,2.279" transform="translate(19062.73 -10222.001)" fill="#543f5c"/>
        <path id="Trazado_612202" data-name="Trazado 612202" d="M688.741,1455.081a7.753,7.753,0,0,1-1.875,4.976,1.831,1.831,0,0,1-2.277.551,7.488,7.488,0,0,1-4.423-4.841,7.183,7.183,0,0,1,1.661-6.8,1.778,1.778,0,0,1,2.333-.5,7.706,7.706,0,0,1,4.545,5.593,3.029,3.029,0,0,1,.034.53c.005.166,0,.332,0,.5m-2.242.029a11.3,11.3,0,0,0-.206-1.256,5.442,5.442,0,0,0-2.623-3.14c-.218-.136-.333,0-.439.144a5.033,5.033,0,0,0-1,3.784,5.153,5.153,0,0,0,2.8,3.686.393.393,0,0,0,.367-.1,5.652,5.652,0,0,0,1.1-3.118" transform="translate(19011.316 -10212.18)" fill="#543f5c"/>
      </g>
    </g>
  </g>
</svg>
