<svg xmlns="http://www.w3.org/2000/svg" xmlns:xlink="http://www.w3.org/1999/xlink" width="124.418" height="124.418" viewBox="0 0 124.418 124.418">
  <defs>
    <clipPath id="clip-path">
      <rect id="Rectángulo_379246" data-name="Rectángulo 379246" width="115" height="115" transform="translate(389.246 2670.246)" fill="#fff" stroke="#707070" stroke-width="1"/>
    </clipPath>
    <linearGradient id="linear-gradient" x1="0.989" y1="1.001" x2="0.081" y2="0.049" gradientUnits="objectBoundingBox">
      <stop offset="0" stop-color="#8c50af"/>
      <stop offset="1" stop-color="#fbe3b1"/>
    </linearGradient>
    <clipPath id="clip-path-2">
      <rect id="Rectángulo_379354" data-name="Rectángulo 379354" width="85" height="85" transform="translate(18798 -9459)" fill="#fff" stroke="#707070" stroke-width="1"/>
    </clipPath>
  </defs>
  <g id="Grupo_1075358" data-name="Grupo 1075358" transform="translate(-18425.496 9481.833)">
    <g id="Enmascarar_grupo_1074703" data-name="Enmascarar grupo 1074703" transform="translate(18039.754 -12147.246)" clip-path="url(#clip-path)">
      <rect id="Imagen_47" data-name="Imagen 47" width="128.611" height="124.518" transform="translate(382.686 2667.283)" fill="#fff"/>
    </g>
    <path id="Sustracción_219" data-name="Sustracción 219" d="M113.2,113.2H0V0H113.2V113.2ZM6.49,6.49V106.714H106.713V6.49Z" transform="matrix(-0.995, -0.105, 0.105, -0.995, 18538.08, -9357.415)" fill="url(#linear-gradient)"/>
    <g id="Enmascarar_grupo_1074713" data-name="Enmascarar grupo 1074713" transform="translate(-354 -3)" clip-path="url(#clip-path-2)">
      <g id="Grupo_1074933" data-name="Grupo 1074933" transform="translate(593.919 2.049)">
        <path id="Trazado_641815" data-name="Trazado 641815" d="M1166.314,152.558a4.478,4.478,0,0,0-3.538-3.694c-1.563-.342-3.158-.66-4.7-.968q-.992-.2-1.983-.4l-1.426-.29c-1.3-.264-2.635-.538-3.955-.8a3.872,3.872,0,0,1-1.873-.844c-.388-.337-.8-.655-1.2-.963l-.349-.271-1.212-.947c-1.195-.935-2.43-1.9-3.654-2.84a9.773,9.773,0,0,0-4.67-1.93c-.46-.063-.919-.136-1.379-.208-.533-.084-1.084-.171-1.63-.242l-.2-.027a17.3,17.3,0,0,0-2.145-.193,10.652,10.652,0,0,0-4.309,1c-2.771,1.165-5.7,2.362-8.953,3.661a6.6,6.6,0,0,0-3.167,2.339c-2.667,3.895-5.412,7.832-8.067,11.64l-1.156,1.658a4.949,4.949,0,0,0-.884,3.129,4.354,4.354,0,0,0,1.442,2.945,4.486,4.486,0,0,0,6.735-.762q2.3-3.3,4.59-6.6,2.058-2.964,4.119-5.926a.839.839,0,0,1,.312-.291c.737-.319,1.495-.626,2.228-.922l.3-.123c.316-.128.634-.252.975-.385l.2-.076a4.292,4.292,0,0,1-.054.458q-.358,1.852-.722,3.7-.211,1.077-.421,2.154c-.083.425-.162.851-.242,1.277-.162.87-.33,1.77-.526,2.646a6.182,6.182,0,0,0,.075,3.47,2.416,2.416,0,0,1,.126,1.313c-.093.444-.178.89-.263,1.336-.056.294-.112.589-.171.883q-.705,3.545-1.415,7.09l-.086.429c-.282,1.407-.574,2.862-.884,4.286a1.043,1.043,0,0,1-.321.5q-3.026,2.714-6.065,5.414l-2.25,2q-.658.586-1.32,1.167c-1.076.947-2.189,1.926-3.244,2.933a5.189,5.189,0,0,0-1.573,4.753,5.464,5.464,0,0,0,3.512,4.387,5.356,5.356,0,0,0,5.7-.923c.394-.315.771-.66,1.135-.994.18-.165.359-.329.541-.491l12.722-11.3a5.833,5.833,0,0,0,1.877-3.311c.229-1.164.473-2.346.709-3.489l.233-1.127a4.9,4.9,0,0,1,.652,1.51c.323,1.646.642,3.322.951,4.943l.168.88q.357,1.878.714,3.756.6,3.184,1.213,6.367a5.633,5.633,0,0,0,10.046,2.332,5.888,5.888,0,0,0,1.025-4.7c-.431-2.133-.869-4.344-1.337-6.759-.122-.63-.236-1.272-.346-1.894-.1-.548-.194-1.1-.3-1.642q-.2-1.073-.416-2.144c-.206-1.049-.419-2.135-.613-3.2a11.166,11.166,0,0,0-1.069-3.361c-.757-1.4-1.513-2.832-2.244-4.216-.83-1.572-1.689-3.2-2.553-4.786a3.985,3.985,0,0,1-.4-2.634c.184-1.13.407-2.275.624-3.382q.1-.493.192-.985.3-1.536.6-3.07.181-.919.361-1.838c.091-.466.18-.932.272-1.417l.07-.37,1.1.866q1.127.89,2.254,1.776a4.59,4.59,0,0,0,1.938.933q3.3.673,6.605,1.354l2.064.427c1.583.328,3.22.668,4.834.987.118.023.235.048.353.073a4.6,4.6,0,0,0,2,.122,4.556,4.556,0,0,0,3.726-5.167m-27.144-1.71q-.727,3.766-1.451,7.531l-.253,1.313c-.045.236-.087.474-.128.711-.089.507-.18,1.031-.311,1.53a4.774,4.774,0,0,0,.437,3.454c.885,1.742,1.817,3.5,2.719,5.192q.514.967,1.027,1.935l.286.545c.308.587.626,1.195.961,1.781a9.146,9.146,0,0,1,.908,2.991l.022.122c.38,2.064.784,4.16,1.174,6.186q.26,1.349.519,2.7l.524,2.749q.368,1.939.739,3.878a3.486,3.486,0,0,1-.573,2.739,3.213,3.213,0,0,1-2.225,1.3,3.349,3.349,0,0,1-3.82-2.906c-.131-.7-.256-1.392-.38-2.089-.141-.786-.286-1.6-.439-2.4-.225-1.18-.456-2.358-.686-3.536q-.3-1.543-.6-3.086c-.1-.546-.2-1.094-.3-1.642-.162-.9-.329-1.822-.521-2.729a6.79,6.79,0,0,0-.6-1.72c-1.215-2.326-2.464-4.685-3.671-6.965q-1.1-2.077-2.2-4.156a3.17,3.17,0,0,0-1.237-1.329,4.365,4.365,0,0,1-2.056-4.854c.3-1.5.592-3.028.871-4.506l.336-1.776c.386-2.036.786-4.142,1.165-6.216a1.14,1.14,0,0,0-.833-1.376.726.726,0,0,0-.231-.035,1.012,1.012,0,0,0-.368.072l-.632.256c-1.731.7-3.522,1.424-5.269,2.171a2.55,2.55,0,0,0-1.049.835c-1.708,2.439-3.432,4.926-5.1,7.332q-1.612,2.325-3.227,4.647a6.537,6.537,0,0,1-1.026,1.239,2.191,2.191,0,0,1-2.7.009,2.1,2.1,0,0,1-.64-2.636,14.187,14.187,0,0,1,.991-1.552l.225-.323q1.916-2.77,3.837-5.538,2.248-3.241,4.492-6.485a3.338,3.338,0,0,1,1.544-1.266c3.144-1.269,6.486-2.622,9.746-3.989a8.106,8.106,0,0,1,4.5-.578c.69.107,1.394.194,2.074.278.646.08,1.314.162,1.966.261a8.619,8.619,0,0,1,4.211,2.065c1.375,1.116,2.8,2.222,4.17,3.291q1.012.787,2.021,1.578a4.45,4.45,0,0,0,2.008.755c1.235.233,2.489.493,3.7.743l1.421.293,1.808.369q2.653.541,5.305,1.087a2.188,2.188,0,0,1,.369,4.2,2.746,2.746,0,0,1-.678.115c-.122.011-.25.023-.382.041l-.806-.155c-.642-.123-1.3-.25-1.966-.384q-2.118-.428-4.234-.868l-.522-.108-2.456-.509-2.586-.535-.324-.069c-.326-.071-.663-.144-1-.185a3.7,3.7,0,0,1-1.923-.883c-.969-.783-1.966-1.561-2.931-2.314l-.951-.743c-.2-.157-.407-.307-.613-.445a1.188,1.188,0,0,0-1.089-.179,1.152,1.152,0,0,0-.685.825c-.123.459-.208.933-.29,1.391-.033.183-.066.367-.1.549m-12.226,15.4.2.134c.313.211.609.41.879.626a1.607,1.607,0,0,1,.36.5c1.432,2.7,2.592,4.9,3.648,6.92a.724.724,0,0,1,.061.435c-.365,1.843-.746,3.715-1.115,5.525l-.339,1.665a3.319,3.319,0,0,1-1.054,1.893q-1.145,1.02-2.287,2.044-1.32,1.181-2.642,2.36-1.557,1.386-3.118,2.768c-2.038,1.806-4.145,3.674-6.2,5.527a3.509,3.509,0,0,1-2.7.873,3.3,3.3,0,0,1-2.333-1.29,3.35,3.35,0,0,1,.471-4.532c.978-.893,1.991-1.782,2.97-2.642q.752-.66,1.5-1.323,1.171-1.039,2.341-2.081c1.87-1.664,3.8-3.385,5.72-5.058a3.425,3.425,0,0,0,1.2-2.071c.374-2,.78-4.029,1.173-5.992q.259-1.295.516-2.59c.1-.493.192-.986.288-1.48q.169-.878.342-1.755a4.624,4.624,0,0,1,.125-.456" transform="translate(17110.299 -9578.066)" fill="#543f5c"/>
        <path id="Trazado_641816" data-name="Trazado 641816" d="M1238.645,64.8h.006a8.455,8.455,0,0,0,6.117-2.581,8.3,8.3,0,0,0,2.358-6.074,8.448,8.448,0,0,0-8.494-8.23h-.006a8.443,8.443,0,1,0,.019,16.885m6.108-8.393a5.574,5.574,0,0,1-1.671,4.211,6.162,6.162,0,0,1-10.605-4.366,6.177,6.177,0,0,1,6.2-6.016h.078a6.2,6.2,0,0,1,4.435,1.983,5.609,5.609,0,0,1,1.568,4.164v.024Z" transform="translate(17011.039 -9506.184)" fill="#543f5c"/>
      </g>
    </g>
  </g>
</svg>
