<svg xmlns="http://www.w3.org/2000/svg" xmlns:xlink="http://www.w3.org/1999/xlink" width="400" height="291.375" viewBox="0 0 400 291.375">
  <defs>
    <clipPath id="clip-path">
      <rect id="Rectángulo_379545" data-name="Rectángulo 379545" width="374.029" height="291.375" fill="none"/>
    </clipPath>
    <clipPath id="clip-path-2">
      <rect id="Rectángulo_379544" data-name="Rectángulo 379544" width="400" height="291.375" transform="translate(-13)" fill="none"/>
    </clipPath>
    <clipPath id="clip-path-3">
      <rect id="Rectángulo_379528" data-name="Rectángulo 379528" width="13.453" height="10.635" fill="none"/>
    </clipPath>
    <clipPath id="clip-path-4">
      <rect id="Rectángulo_379530" data-name="Rectángulo 379530" width="8.225" height="5.93" fill="none"/>
    </clipPath>
    <clipPath id="clip-path-5">
      <rect id="Rectángulo_379531" data-name="Rectángulo 379531" width="10.386" height="6.178" fill="none"/>
    </clipPath>
    <clipPath id="clip-path-6">
      <rect id="Rectángulo_379534" data-name="Rectángulo 379534" width="20.03" height="15.335" fill="none"/>
    </clipPath>
    <clipPath id="clip-path-7">
      <rect id="Rectángulo_379535" data-name="Rectángulo 379535" width="21.936" height="14.895" fill="none"/>
    </clipPath>
    <clipPath id="clip-path-8">
      <rect id="Rectángulo_379537" data-name="Rectángulo 379537" width="2.396" height="6.74" fill="none"/>
    </clipPath>
    <clipPath id="clip-path-9">
      <rect id="Rectángulo_379538" data-name="Rectángulo 379538" width="12.789" height="6.885" fill="none"/>
    </clipPath>
    <clipPath id="clip-path-10">
      <rect id="Rectángulo_379540" data-name="Rectángulo 379540" width="2.326" height="3.687" fill="none"/>
    </clipPath>
    <clipPath id="clip-path-11">
      <rect id="Rectángulo_379541" data-name="Rectángulo 379541" width="4.671" height="5.235" fill="none"/>
    </clipPath>
    <clipPath id="clip-path-12">
      <rect id="Rectángulo_379542" data-name="Rectángulo 379542" width="2.299" height="4.209" fill="none"/>
    </clipPath>
  </defs>
  <g id="Grupo_1072821" data-name="Grupo 1072821" transform="translate(0 -4)">
    <g id="Image_Place_Holder" data-name="Image Place Holder" transform="translate(0 24.534)">
      <rect id="Image_Place_Holder-2" data-name="Image Place Holder" width="400" height="270.769" rx="10" fill="#edd8f5"/>
    </g>
    <g id="Grupo_1075174" data-name="Grupo 1075174" transform="translate(13 4)">
      <g id="Grupo_1075173" data-name="Grupo 1075173" clip-path="url(#clip-path)">
        <g id="Grupo_1075172" data-name="Grupo 1075172">
          <g id="Grupo_1075171" data-name="Grupo 1075171" clip-path="url(#clip-path-2)">
            <path id="Trazado_642358" data-name="Trazado 642358" d="M37.56,273.159s12.354-1.144,18.751-8.53,13.279-9.457,11.886,0,33.16-11.543,34.092,7.833-64.729.7-64.729.7" transform="translate(-3.186 -21.906)" fill="#fff"/>
            <path id="Trazado_642359" data-name="Trazado 642359" d="M386.2,286.955a169.228,169.228,0,0,1-21.248,6.183c-13.412,3.114-10.593-7.6-5.557-10.618s-13.7.445-23.15.292-2.824-7.258-6.968-13.432S307.142,257.773,313,251.428s20.7,3.938,31.266,8.321-5.9-5.008,3.247-10.778,21.947,26.705,27.561,20.86S386.2,286.955,386.2,286.955" transform="translate(-26.448 -21.057)" fill="#fff"/>
            <rect id="Rectángulo_379514" data-name="Rectángulo 379514" width="354.606" height="41.143" transform="translate(11.185 249.259)" fill="#fff"/>
            <rect id="Rectángulo_379515" data-name="Rectángulo 379515" width="366.952" height="0.628" transform="translate(5.025 290.748)" fill="#dcd3d8"/>
            <path id="Trazado_642360" data-name="Trazado 642360" d="M339.753,302.374v12.9h22.913s.3-4.248-5.008-6.448-6.825-7.815-6.447-9.788-11.457,3.339-11.457,3.339" transform="translate(-28.816 -25.325)" fill="#3c2355"/>
            <rect id="Rectángulo_379516" data-name="Rectángulo 379516" width="1.884" height="33.238" transform="translate(117.718 3.035)" fill="#7e57a4"/>
            <rect id="Rectángulo_379517" data-name="Rectángulo 379517" width="1.884" height="33.238" transform="translate(249.304)" fill="#7e57a4"/>
            <rect id="Rectángulo_379518" data-name="Rectángulo 379518" width="163.869" height="118.472" transform="translate(104.125 31.334)" fill="#fff"/>
            <path id="Trazado_642361" data-name="Trazado 642361" d="M277.929,153h-164.5V33.9h164.5Zm-163.869-.629H277.3V34.523H114.06Z" transform="translate(-9.621 -2.875)" fill="#7e57a4"/>
            <rect id="Rectángulo_379519" data-name="Rectángulo 379519" width="6.98" height="39.29" transform="translate(225.052 83.504)" fill="#dcd3d8"/>
            <rect id="Rectángulo_379520" data-name="Rectángulo 379520" width="6.98" height="42.407" transform="translate(209.878 80.387)" fill="#dcd3d8"/>
            <rect id="Rectángulo_379521" data-name="Rectángulo 379521" width="6.98" height="49.482" transform="translate(194.703 73.312)" fill="#dcd3d8"/>
            <rect id="Rectángulo_379522" data-name="Rectángulo 379522" width="6.98" height="57.043" transform="translate(179.529 65.752)" fill="#dcd3d8"/>
            <rect id="Rectángulo_379523" data-name="Rectángulo 379523" width="6.98" height="47.939" transform="translate(164.355 74.855)" fill="#dcd3d8"/>
            <rect id="Rectángulo_379524" data-name="Rectángulo 379524" width="6.98" height="34.738" transform="translate(149.181 88.057)" fill="#dcd3d8"/>
            <rect id="Rectángulo_379525" data-name="Rectángulo 379525" width="6.98" height="31.185" transform="translate(134.006 91.609)" fill="#dcd3d8"/>
            <rect id="Rectángulo_379526" data-name="Rectángulo 379526" width="129.35" height="3.684" transform="translate(118.345 127.209)" fill="#daebeb"/>
            <path id="Trazado_642362" data-name="Trazado 642362" d="M135.615,129.242l-.537-.774,22.634-15.715.208.053,21.255,5.414,25.437-22.655,18.613,4.256,31.785-28.36.628.7L223.49,100.848l-18.614-4.256-25.448,22.666L157.9,113.773Z" transform="translate(-11.456 -6.061)" fill="#ead86a"/>
            <path id="Trazado_642363" data-name="Trazado 642363" d="M264.561,69.658l3.5,3.512,4.415-7.9Z" transform="translate(-22.438 -5.536)" fill="#ead86a"/>
            <path id="Trazado_642364" data-name="Trazado 642364" d="M349.3,288.312H334.731l-16.388-93.777-24.279,93.777H280.71c-1.842-10.525,11.742-114.268,15.383-141.652.237-1.782.431-3.239.577-4.325.2-1.478.307-2.276.307-2.276,4.734-16.843,41.4.911,41.4.911a5.984,5.984,0,0,1,.637,1.365,31.751,31.751,0,0,1,1.086,4.325c5.455,28,9.2,141.652,9.2,141.652" transform="translate(-23.793 -11.263)" fill="#7e57a4"/>
            <rect id="Rectángulo_379527" data-name="Rectángulo 379527" width="0.314" height="144.339" transform="translate(308.509 133.248) rotate(-4.887)" fill="#fff"/>
            <path id="Trazado_642365" data-name="Trazado 642365" d="M341.537,147.544h-44c.236-1.781.431-3.238.577-4.324h42.339a31.828,31.828,0,0,1,1.086,4.324" transform="translate(-25.235 -12.147)" fill="#ead86a"/>
            <path id="Trazado_642366" data-name="Trazado 642366" d="M318.161,172.512l2.63,25.392-11.377,43.941s.553-16.627,3.284-24.822-.911-15.275,5.463-44.511" transform="translate(-26.242 -14.631)" fill="#6e4e93"/>
            <path id="Trazado_642367" data-name="Trazado 642367" d="M102.408,26.534a7.571,7.571,0,0,0,2.41-6.307c-.3-4.148-9.105-9.509-16.591-5.159a8.718,8.718,0,0,0-10.015,1.619c-7.09,6.438-2.428,13.758-11.938,22.154S48.066,67.774,65.264,73.034,92.173,32.873,92.173,32.873Z" transform="translate(-4.702 -1.141)" fill="#ead86a"/>
            <path id="Trazado_642368" data-name="Trazado 642368" d="M320.03,38.588l4.4,5.775s4.8-8.936,6.929-11.516,2.5-14.871-4.324-14.719c0,0-2.732-11.153-12.9-10.622s-14.187,6.07-12.746,9.18c0,0-3.339,1.138-3.339,5.842s5.5,5.5,5.5,5.5Z" transform="translate(-25.279 -0.635)" fill="#3c2355"/>
            <path id="Trazado_642369" data-name="Trazado 642369" d="M327.211,57.333s-5.562,6.221-6.17,6.728-7.283.607-7.283.607l-3.793-4.6V48.128l9.3-7.993,1.772-2.476a26.774,26.774,0,0,0,1.43,4.506c.076.167.152.328.234.482a36.425,36.425,0,0,0,2.737,4.277Z" transform="translate(-26.289 -3.194)" fill="#f7bfb2"/>
            <g id="Grupo_1075143" data-name="Grupo 1075143" transform="translate(283.675 34.463)" opacity="0.51">
              <g id="Grupo_1075142" data-name="Grupo 1075142">
                <g id="Grupo_1075141" data-name="Grupo 1075141" clip-path="url(#clip-path-3)">
                  <path id="Trazado_642370" data-name="Trazado 642370" d="M323.417,43.906c-3.815,5.854-11.368,4.122-13.453,4.222l9.3-7.993,1.773-2.476a23.954,23.954,0,0,0,2.376,6.248" transform="translate(-309.964 -37.657)" fill="#fc9090"/>
                </g>
              </g>
            </g>
            <path id="Trazado_642371" data-name="Trazado 642371" d="M303.074,23.263s-1.113,22.053.4,23.116,13.084,1.6,17.991-6.441l-1.046-3.575s4.71-4.3,3.035-6.372c-1.72-2.125-3.035,1.011-3.894,0s-.962-7.031-1.923-7.537-9.913,4.248-14.567.809" transform="translate(-25.671 -1.901)" fill="#f7bfb2"/>
            <rect id="Rectángulo_379529" data-name="Rectángulo 379529" width="21.509" height="29.604" transform="translate(298.548 169.645) rotate(-68.805)" fill="#3c2355"/>
            <path id="Trazado_642372" data-name="Trazado 642372" d="M361.743,174.262l-7.351,18.959-23.963-9.293.888-2.288a2.287,2.287,0,0,0-1.3-2.96l5.636-14.537Z" transform="translate(-27.989 -13.922)" fill="#fff"/>
            <line id="Línea_903" data-name="Línea 903" x2="0.003" transform="translate(302.02 164.759)" fill="#fff"/>
            <path id="Trazado_642373" data-name="Trazado 642373" d="M358.346,159.247c0,.049,0,.094,0,.143a36.185,36.185,0,0,1-.34,4.121c-1.181,8.5-5.025,14.567-6.333,15.615-1.517,1.214-2.125.91-2.125.91s-1.214.987-1.744.835-.3-1.593-.3-1.593-.531-.531.379-3.263,3.111-8.27,2.428-9.028-1.4.9-1.4.9l-1.927-.747a44,44,0,0,1,3.141-6.37c.859-1.515,1.551-2.656,1.551-2.656s.148-.206.4-.528c1.474-1.848,6.467-7.456,6.273,1.667" transform="translate(-29.428 -13.076)" fill="#f7bfb2"/>
            <g id="Grupo_1075146" data-name="Grupo 1075146" transform="translate(320.691 144.504)" opacity="0.51">
              <g id="Grupo_1075145" data-name="Grupo 1075145">
                <g id="Grupo_1075144" data-name="Grupo 1075144" clip-path="url(#clip-path-4)">
                  <path id="Trazado_642374" data-name="Trazado 642374" d="M358.635,159.7a36.366,36.366,0,0,1-.34,4.122l-7.885-2.746c.859-1.516,1.551-2.655,1.551-2.655s.148-.208.4-.529Z" transform="translate(-350.41 -157.896)" fill="#fc9090"/>
                </g>
              </g>
            </g>
            <path id="Trazado_642375" data-name="Trazado 642375" d="M251.771,82.043l-8.043,4.249-.9-1.876-1.554-3.247L238.327,75a2.124,2.124,0,0,1,.57-2.558l3.448-2.829a.61.61,0,0,0,.194-.659l-1.875-5.742a1.063,1.063,0,0,1,.668-1.333h0a1.056,1.056,0,0,1,1.317.583l3.906,9.023a2.415,2.415,0,0,0,.777.983l1.32.984a2.425,2.425,0,0,1,.871,1.238l1.084,3.551,1.056,3.457Z" transform="translate(-20.196 -5.243)" fill="#f7bfb2"/>
            <g id="Grupo_1075149" data-name="Grupo 1075149" transform="translate(221.084 72.994)" opacity="0.51">
              <g id="Grupo_1075148" data-name="Grupo 1075148">
                <g id="Grupo_1075147" data-name="Grupo 1075147" clip-path="url(#clip-path-5)">
                  <path id="Trazado_642376" data-name="Trazado 642376" d="M251.957,83.215l-8.832,2.723-1.554-3.248,9.329-2.931Z" transform="translate(-241.572 -79.759)" fill="#fc9090"/>
                </g>
              </g>
            </g>
            <path id="Trazado_642377" data-name="Trazado 642377" d="M251.561,78.525l12.264,22.253a.909.909,0,0,0,1.589.079c3.7-5.975,18.176-29.17,20.686-30.623C288.982,68.564,304,61.887,304,61.887l6.07,2.125,11.38-4.856s23.976,5.463,27.163,12.291c2.763,5.921,9.749,34.438,11.555,41.907a6.97,6.97,0,0,1-.075,3.564l-10.418,36.318-7.891-2.276,4.647-35a6.982,6.982,0,0,0-.282-3.08l-5.883-18.068-5.159,39.909H293.838l-5.311-40.06s-12.026,18.22-17.037,23.719c-2.5,2.748-9.249,7.415-14.669-.707-5.443-8.157-14.728-35.15-14.728-35.15Z" transform="translate(-20.533 -5.017)" fill="#daebeb"/>
            <rect id="Rectángulo_379532" data-name="Rectángulo 379532" width="16.236" height="3.187" transform="translate(296.977 76.597)" fill="#fff"/>
            <rect id="Rectángulo_379533" data-name="Rectángulo 379533" width="0.314" height="69.043" transform="translate(289.233 59.753)" fill="#7acbc5"/>
            <path id="Trazado_642378" data-name="Trazado 642378" d="M264.974,315.623H293.35l-.608-12.9H282.425s.91,2.579-6.07,4.4-10.47,4.552-11.38,8.5" transform="translate(-22.473 -25.675)" fill="#3c2355"/>
            <path id="Trazado_642379" data-name="Trazado 642379" d="M291.788,97.139l-1.365-8.8s-1.214,7.891-4.7,13.429a49.783,49.783,0,0,0-5.178,11.541Z" transform="translate(-23.793 -7.492)" fill="#7acbc5"/>
            <path id="Trazado_642380" data-name="Trazado 642380" d="M346.373,87.837l2.723,9.412-2.274,17.592s-1.161-16.458-.448-27" transform="translate(-29.357 -7.45)" fill="#7acbc5"/>
            <path id="Trazado_642381" data-name="Trazado 642381" d="M163.37,84.424l-22.346,25.262a6.978,6.978,0,0,1-5.228,2.356h-.252a6.983,6.983,0,0,1-5.375-2.525l-1.035-1.247-.349-.422-2.2-2.656L112.469,88.169l-.085-.1-4.1-22.61s9.812,2.826,27,31.332a.912.912,0,0,0,1.351.24l22.631-18.219Z" transform="translate(-9.184 -5.552)" fill="#daebeb"/>
            <path id="Trazado_642382" data-name="Trazado 642382" d="M115.28,88.56s7.223,12.519,11.693,18.591L112.858,90.129c1.341-.882,2.422-1.569,2.422-1.569" transform="translate(-9.572 -7.511)" fill="#7acbc5"/>
            <path id="Trazado_642383" data-name="Trazado 642383" d="M111.8,98.988c-1.4,4.55-4.552,16.236-4.552,16.236s-30.5,5.16-30.2,2.428c.124-1.128-1.1-6.188-2.571-11.739v0c-2.1-7.9-4.713-16.785-4.713-16.785s-.567-.419-1.4-1.148c-3.1-2.735-9.845-9.83-4.218-15.7a26.234,26.234,0,0,1,16.546-7.739l15.32-.911,8.347,1.669c2.124,1.669,9.021,28.549,7.435,33.687" transform="translate(-5.257 -5.397)" fill="#daebeb"/>
            <path id="Trazado_642384" data-name="Trazado 642384" d="M82.429,64.543s4.741,9.608,9.2,10.214,4.763-2.363,4.763-2.363,2.327,2.768,3.945.643-2.3-9.405-2.3-9.405Z" transform="translate(-6.991 -5.397)" fill="#fff"/>
            <path id="Trazado_642385" data-name="Trazado 642385" d="M75.068,107.654c-2.1-7.9-4.713-16.785-4.713-16.785s-.567-.419-1.4-1.148l4.23-5.539s2.789,7.915,1.575,12.9a24.392,24.392,0,0,0,.3,10.568" transform="translate(-5.849 -7.14)" fill="#7acbc5"/>
            <path id="Trazado_642386" data-name="Trazado 642386" d="M73.275,302.283l.3,13.757H58.05s.759-4.7,4.1-6.828c2.758-1.754,3.854-1.764,3.438-6.929Z" transform="translate(-4.923 -25.638)" fill="#3c2355"/>
            <path id="Trazado_642387" data-name="Trazado 642387" d="M80.125,222.7,78.854,236.58l-5.406,58.953h-7.69l-4.624-57.5L60.1,225.124Z" transform="translate(-5.097 -18.888)" fill="#f7bfb2"/>
            <path id="Trazado_642388" data-name="Trazado 642388" d="M133.459,298.709h-9.711l-19.09-64.214-2.562-8.623,20.031-6.273,1.905,13.3Z" transform="translate(-8.659 -18.625)" fill="#f7bfb2"/>
            <g id="Grupo_1075152" data-name="Grupo 1075152" transform="translate(54.998 203.809)" opacity="0.51">
              <g id="Grupo_1075151" data-name="Grupo 1075151">
                <g id="Grupo_1075150" data-name="Grupo 1075150" clip-path="url(#clip-path-6)">
                  <path id="Trazado_642389" data-name="Trazado 642389" d="M60.095,225.124l20.03-2.428L78.853,236.58l-17.721,1.451Z" transform="translate(-60.095 -222.696)" fill="#fc9090"/>
                </g>
              </g>
            </g>
            <g id="Grupo_1075155" data-name="Grupo 1075155" transform="translate(93.438 200.974)" opacity="0.51">
              <g id="Grupo_1075154" data-name="Grupo 1075154">
                <g id="Grupo_1075153" data-name="Grupo 1075153" clip-path="url(#clip-path-7)">
                  <path id="Trazado_642390" data-name="Trazado 642390" d="M124.033,232.9l-19.375,1.591-2.562-8.622,20.03-6.274Z" transform="translate(-102.097 -219.599)" fill="#fc9090"/>
                </g>
              </g>
            </g>
            <path id="Trazado_642391" data-name="Trazado 642391" d="M125.753,306.04v10.319h28.174a12.723,12.723,0,0,0-9.105-5.16,13.659,13.659,0,0,1-9.357-5.159Z" transform="translate(-10.665 -25.956)" fill="#3c2355"/>
            <path id="Trazado_642392" data-name="Trazado 642392" d="M78.389,122.767s-21.649,10.109-22.053,99.739H122.5s-5.26-86.393-16.489-96.711-27.618-3.027-27.618-3.027" transform="translate(-4.778 -10.2)" fill="#af6464"/>
            <path id="Trazado_642393" data-name="Trazado 642393" d="M122.481,224.36H56.164V224.2c.211-46.67,6.285-71.4,11.343-83.92l.292.117c-5.043,12.486-11.1,37.126-11.32,83.646h66Z" transform="translate(-4.763 -11.898)" fill="#fff"/>
            <path id="Trazado_642394" data-name="Trazado 642394" d="M79.927,124.684l27.921,1.063.759-5.767-30.56-.289Z" transform="translate(-6.619 -10.151)" fill="#3c2355"/>
            <rect id="Rectángulo_379536" data-name="Rectángulo 379536" width="32.165" height="21.696" transform="translate(70.962 126.478) rotate(-84.801)" fill="#3c2355"/>
            <path id="Trazado_642395" data-name="Trazado 642395" d="M95.151,124.888l-9.833-.894.83-9.123,9.832.9Zm-9.491-1.179,9.207.837.773-8.5-9.207-.838Z" transform="translate(-7.236 -9.743)" fill="#fff"/>
            <path id="Trazado_642396" data-name="Trazado 642396" d="M102.847,116.712l-3.484,2.807,2.389.258a.735.735,0,0,1,.653.8l-.7,7.031a.734.734,0,0,1-.728.659,62.985,62.985,0,0,1-9.639-.592,3.388,3.388,0,0,1-1.93-.777c-1.047-1.517,0-5.235,0-5.235s.553-.3,1.357-.728c1.62-.865,4.269-2.255,5.487-2.762,1.432-.595,4.552-2.085,5.821-2.692a.731.731,0,0,1,.774,1.229" transform="translate(-7.544 -9.788)" fill="#f7bfb2"/>
            <g id="Grupo_1075158" data-name="Grupo 1075158" transform="translate(81.4 111.149)" opacity="0.51">
              <g id="Grupo_1075157" data-name="Grupo 1075157">
                <g id="Grupo_1075156" data-name="Grupo 1075156" clip-path="url(#clip-path-8)">
                  <path id="Trazado_642397" data-name="Trazado 642397" d="M91.339,128.189a3.389,3.389,0,0,1-1.93-.777c-1.047-1.517,0-5.235,0-5.235s.553-.3,1.356-.728Z" transform="translate(-88.944 -121.449)" fill="#fc9090"/>
                </g>
              </g>
            </g>
            <path id="Trazado_642398" data-name="Trazado 642398" d="M62.908,72.95a10.965,10.965,0,0,0-3.117,4.024c-4.772,8.757-10.367,28.633-12.3,38.381a7.564,7.564,0,0,0,.969,5.405l.088.146a7.587,7.587,0,0,0,6.478,3.637H86.58v-7.436l-22.869-3.086A1.518,1.518,0,0,1,62.488,112s5.188-14,6.793-18.716c2.351-6.9,4.354-21.961-2.316-21.779a8.644,8.644,0,0,0-4.057,1.445" transform="translate(-4.016 -6.064)" fill="#daebeb"/>
            <path id="Trazado_642399" data-name="Trazado 642399" d="M48.4,121.444l-.089-.145a7.708,7.708,0,0,1-.988-5.518c1.828-9.229,7.591-30.118,12.571-38.889l.273.156c-4.963,8.741-10.711,29.583-12.535,38.795a7.385,7.385,0,0,0,.948,5.293l.089.145Z" transform="translate(-4.001 -6.522)" fill="#7acbc5"/>
            <path id="Trazado_642400" data-name="Trazado 642400" d="M71.247,93.319l-.3-.1c2.06-6.049,3.445-16.425.686-20.169a3.245,3.245,0,0,0-2.849-1.4l-.009-.314a3.574,3.574,0,0,1,3.111,1.53c3.057,4.149,1.09,15.371-.642,20.456" transform="translate(-5.833 -6.05)" fill="#7acbc5"/>
            <path id="Trazado_642401" data-name="Trazado 642401" d="M99.115,50.562l-.164,1.769-.913,9.763-1.646,8.762L82.429,63s2.683-9.275,3.9-14.355c.231-.966.41-1.778.507-2.349.543-3.2,12.282,4.261,12.282,4.261" transform="translate(-6.991 -3.859)" fill="#f7bfb2"/>
            <g id="Grupo_1075161" data-name="Grupo 1075161" transform="translate(79.335 41.643)" opacity="0.51">
              <g id="Grupo_1075160" data-name="Grupo 1075160">
                <g id="Grupo_1075159" data-name="Grupo 1075159" clip-path="url(#clip-path-9)">
                  <path id="Trazado_642402" data-name="Trazado 642402" d="M99.476,50.562l-.164,1.769c-5.678.457-10.968-2.015-12.625-3.681.231-.966.41-1.778.507-2.349.543-3.2,12.282,4.261,12.282,4.261" transform="translate(-86.687 -45.502)" fill="#fc9090"/>
                </g>
              </g>
            </g>
            <path id="Trazado_642403" data-name="Trazado 642403" d="M86.86,44.8c1.766,2.757,8.239,6.118,11.666,5.955s8.158-17.54,6.2-23.005a15.728,15.728,0,0,1-8,.772c-4.079-.815-7.14.708-8.4,4.287-.874,2.493-.9-1.55-3.426-1.306s-3.018,5.3-.408,6.771a6.094,6.094,0,0,1,1.256,1.255s.383,4.138,1.11,5.271" transform="translate(-7.019 -2.353)" fill="#f7bfb2"/>
            <path id="Trazado_642404" data-name="Trazado 642404" d="M180.663,70.306l-2.855,7.141a2.755,2.755,0,0,1-.975,1.226l-8.163,4.382-1.305.7L164,79.147l.006,0,.021-.005c.1-.037.447-.167.965-.359,1.447-.54,4.221-1.581,6.543-2.5,1.709-.676,3.178-1.284,3.694-1.578,1.211-.689,3.29-3.724,4.082-4.926a.769.769,0,0,1,.883-.3l.1.033a.606.606,0,0,1,.371.8" transform="translate(-13.909 -5.889)" fill="#f7bfb2"/>
            <path id="Trazado_642405" data-name="Trazado 642405" d="M172.7,73.974a.755.755,0,0,1-.076.33L171.534,76.6l-.134.283a.769.769,0,0,1-.367.367l-6.005,1.894-1,.316-.021.006.761-.622,6.583-5.363a.768.768,0,0,1,1.354.5" transform="translate(-13.91 -6.209)" fill="#f7bfb2"/>
            <path id="Trazado_642406" data-name="Trazado 642406" d="M309.74,59.156l5.867,4.856-2.933,4.4-5.336-5.539Z" transform="translate(-26.066 -5.017)" fill="#fff"/>
            <path id="Trazado_642407" data-name="Trazado 642407" d="M327.755,57.218l-11.38,6.63,2.229,4.4,12.558-8.4Z" transform="translate(-26.833 -4.853)" fill="#fff"/>
            <path id="Trazado_642408" data-name="Trazado 642408" d="M45.545,300.123H22.353v-7.03H45.545Zm-22.564-.629H44.917V293.72H22.981Z" transform="translate(-1.896 -24.858)" fill="#dcd3d8"/>
            <path id="Trazado_642409" data-name="Trazado 642409" d="M112.618,309.229H89.426V302.2h23.192ZM90.054,308.6H111.99v-5.775H90.054Z" transform="translate(-7.585 -25.63)" fill="#dcd3d8"/>
            <path id="Trazado_642410" data-name="Trazado 642410" d="M57.873,293.127H34.681V286.1H57.873ZM35.309,292.5H57.245v-5.775H35.309Z" transform="translate(-2.941 -24.265)" fill="#dcd3d8"/>
            <path id="Trazado_642411" data-name="Trazado 642411" d="M219.7,309.229H196.507V302.2H219.7Zm-22.564-.628h21.936v-5.775H197.135Z" transform="translate(-16.666 -25.63)" fill="#dcd3d8"/>
            <path id="Trazado_642412" data-name="Trazado 642412" d="M244.354,309.229H221.161V302.2h23.193ZM221.79,308.6h21.936v-5.775H221.79Z" transform="translate(-18.757 -25.63)" fill="#dcd3d8"/>
            <path id="Trazado_642413" data-name="Trazado 642413" d="M232.911,301.923H209.719v-7.03h23.192Zm-22.564-.628h21.936v-5.775H210.347Z" transform="translate(-17.787 -25.011)" fill="#dcd3d8"/>
            <path id="Trazado_642414" data-name="Trazado 642414" d="M167.059,279.39H143.866v-7.03h23.193Zm-22.564-.629h21.936v-5.775H144.495Z" transform="translate(-12.202 -23.1)" fill="#dcd3d8"/>
            <path id="Trazado_642415" data-name="Trazado 642415" d="M330.188,309.229H307V302.2h23.192Zm-22.564-.628H329.56v-5.775H307.624Z" transform="translate(-26.037 -25.63)" fill="#dcd3d8"/>
            <path id="Trazado_642416" data-name="Trazado 642416" d="M384.216,296.624H361.023v-7.03h23.193ZM361.651,296h21.936v-5.775H361.651Z" transform="translate(-30.619 -24.561)" fill="#dcd3d8"/>
            <path id="Trazado_642417" data-name="Trazado 642417" d="M397.26,303.63H374.067V296.6H397.26ZM374.7,303h21.936v-5.775H374.7Z" transform="translate(-31.726 -25.156)" fill="#dcd3d8"/>
            <path id="Trazado_642418" data-name="Trazado 642418" d="M8.719,259.909s3.945-17.486,9.1-23.3,3.642-14.414-4.552-11.023,9.712-28.1-4.552-22.219,0,56.537,0,56.537" transform="translate(-0.202 -17.186)" fill="#fff"/>
            <rect id="Rectángulo_379539" data-name="Rectángulo 379539" width="371.977" height="1.394" transform="translate(0 289.929)" fill="#3c2355"/>
            <path id="Trazado_642419" data-name="Trazado 642419" d="M286.826,289.616l-.311-.042,18.9-141.652.311.042Z" transform="translate(-24.3 -12.546)" fill="#fff"/>
            <path id="Trazado_642420" data-name="Trazado 642420" d="M400.643,259.483s-3.945-17.486-9.1-23.3-3.642-14.414,4.552-11.022-9.712-28.1,4.552-22.218,0,56.537,0,56.537" transform="translate(-32.954 -17.15)" fill="#fff"/>
            <g id="Grupo_1075164" data-name="Grupo 1075164" transform="translate(294.153 28.85)" opacity="0.51">
              <g id="Grupo_1075163" data-name="Grupo 1075163">
                <g id="Grupo_1075162" data-name="Grupo 1075162" clip-path="url(#clip-path-10)">
                  <path id="Trazado_642421" data-name="Trazado 642421" d="M321.413,32.379l.506,2.833s2.174-2.175,1.77-3.287-2.276.455-2.276.455" transform="translate(-321.413 -31.524)" fill="#fc9090"/>
                </g>
              </g>
            </g>
            <g id="Grupo_1075167" data-name="Grupo 1075167" transform="translate(150.089 72.633)" opacity="0.51">
              <g id="Grupo_1075166" data-name="Grupo 1075166">
                <g id="Grupo_1075165" data-name="Grupo 1075165" clip-path="url(#clip-path-11)">
                  <path id="Trazado_642422" data-name="Trazado 642422" d="M168.669,83.9l-1.305.7L164,79.989l.006,0,.762-.622.224.258.037.042Z" transform="translate(-163.998 -79.364)" fill="#fc9090"/>
                </g>
              </g>
            </g>
            <g id="Grupo_1075170" data-name="Grupo 1075170" transform="translate(77.947 30.959)" opacity="0.51">
              <g id="Grupo_1075169" data-name="Grupo 1075169">
                <g id="Grupo_1075168" data-name="Grupo 1075168" clip-path="url(#clip-path-12)">
                  <path id="Trazado_642423" data-name="Trazado 642423" d="M86,38.037l1.467-2.074s-.86-2.833-1.923-1.972S86,38.037,86,38.037" transform="translate(-85.17 -33.828)" fill="#fc9090"/>
                </g>
              </g>
            </g>
            <path id="Trazado_642424" data-name="Trazado 642424" d="M131.034,112.2l-.349-.422c.3.286.4.416.349.422" transform="translate(-11.084 -9.48)" fill="#7acbc5"/>
            <path id="Trazado_642425" data-name="Trazado 642425" d="M102.662,116.286l-.307-.068c.035-.159,3.519-15.973,2.476-21.146-1.048-5.193-6.914-20.955-6.974-21.113l.295-.11c.059.158,5.935,15.944,6.987,21.162,1.057,5.238-2.332,20.623-2.477,21.275" transform="translate(-8.3 -6.263)" fill="#7acbc5"/>
            <path id="Trazado_642426" data-name="Trazado 642426" d="M98.047,79.3a.679.679,0,1,1-.679-.679.679.679,0,0,1,.679.679" transform="translate(-8.2 -6.668)" fill="#7acbc5"/>
            <path id="Trazado_642427" data-name="Trazado 642427" d="M100.535,85.763a.679.679,0,1,1-.679-.679.679.679,0,0,1,.679.679" transform="translate(-8.412 -7.216)" fill="#7acbc5"/>
            <path id="Trazado_642428" data-name="Trazado 642428" d="M102.556,92.077a.679.679,0,1,1-.679-.679.679.679,0,0,1,.679.679" transform="translate(-8.583 -7.752)" fill="#7acbc5"/>
            <path id="Trazado_642429" data-name="Trazado 642429" d="M113.734,157.863l-.314,0a97.872,97.872,0,0,0-5.282-31.5l.294-.11a98.147,98.147,0,0,1,5.3,31.616" transform="translate(-9.172 -10.707)" fill="#67aba6"/>
            <rect id="Rectángulo_379543" data-name="Rectángulo 379543" width="0.314" height="25.064" transform="translate(95.42 115.938) rotate(-2.989)" fill="#67aba6"/>
            <path id="Trazado_642430" data-name="Trazado 642430" d="M90.537,15.058c-2-3.061-6.215-2.369-6.257-2.363l-.054-.308c.046-.007,4.459-.732,6.574,2.5Z" transform="translate(-7.143 -1.044)" fill="#ead86a"/>
            <path id="Trazado_642431" data-name="Trazado 642431" d="M61.738,67.468c-4.251-7.841,6.536-21.5,7-22.073l.245.2c-.112.139-11.119,14.069-6.966,21.728Z" transform="translate(-5.152 -3.85)" fill="#fff"/>
            <path id="Trazado_642432" data-name="Trazado 642432" d="M65,68.417c-3.376-5.33.39-11.884.427-11.949l.272.158c-.038.064-3.707,6.456-.434,11.622Z" transform="translate(-5.393 -4.789)" fill="#fff"/>
            <path id="Trazado_642433" data-name="Trazado 642433" d="M308.11,22.386c-3.92,0-4.723-1.931-4.764-2.035l.292-.113-.146.057.146-.058c.012.03,1.279,2.984,8.417,1.321l.071.307a17.837,17.837,0,0,1-4.017.523" transform="translate(-25.728 -1.716)" fill="#fff"/>
            <path id="Trazado_642434" data-name="Trazado 642434" d="M309.479,20.528a12.707,12.707,0,0,1-2.174-.164l.061-.308a15.337,15.337,0,0,0,7.535-.8l.111.294a15.894,15.894,0,0,1-5.533.98" transform="translate(-26.063 -1.633)" fill="#fff"/>
            <path id="Trazado_642435" data-name="Trazado 642435" d="M95.738,44.825l5.235.933s-2.268,2.126-3.633,1.33a3.488,3.488,0,0,1-1.6-2.263" transform="translate(-8.12 -3.802)" fill="#fff"/>
            <path id="Trazado_642436" data-name="Trazado 642436" d="M101.92,35.608a8.868,8.868,0,0,0,.1,1.09,7.054,7.054,0,0,0,.241,1.087,3.626,3.626,0,0,0,.544,1.134c.124.177.283.3.435.488a.883.883,0,0,1,.167.652,1.177,1.177,0,0,1-.261.561,2,2,0,0,1-1.137.69,1.463,1.463,0,0,1-.223.027h-.079a1.31,1.31,0,0,0,.295-.058,2.1,2.1,0,0,0,.689-.362,1.81,1.81,0,0,0,.36-.368,1.177,1.177,0,0,0,.22-.509.741.741,0,0,0-.15-.544,6.035,6.035,0,0,1-.439-.485,3.783,3.783,0,0,1-.548-1.187,6.967,6.967,0,0,1-.212-2.216" transform="translate(-8.626 -3.02)" fill="#3c2355"/>
            <path id="Trazado_642437" data-name="Trazado 642437" d="M96.974,35.786c0,.649-.377,1.175-.843,1.175s-.842-.526-.842-1.175.377-1.175.842-1.175.843.526.843,1.175" transform="translate(-8.082 -2.935)" fill="#3c2355"/>
            <path id="Trazado_642438" data-name="Trazado 642438" d="M97.38,36.464c0,.451-.262.816-.585.816s-.586-.365-.586-.816.263-.816.586-.816.585.365.585.816" transform="translate(-8.16 -3.023)" fill="#f7bfb2"/>
            <path id="Trazado_642439" data-name="Trazado 642439" d="M94.167,33.728a3.835,3.835,0,0,1,3.565-.735" transform="translate(-7.987 -2.781)" fill="#3c2355"/>
            <path id="Trazado_642440" data-name="Trazado 642440" d="M105.481,36.334c0,.513-.3.928-.665.928s-.665-.415-.665-.928.3-.928.665-.928.665.416.665.928" transform="translate(-8.833 -3.003)" fill="#3c2355"/>
            <path id="Trazado_642441" data-name="Trazado 642441" d="M105.8,36.87c0,.356-.207.644-.462.644s-.462-.288-.462-.644.207-.644.462-.644.462.288.462.644" transform="translate(-8.895 -3.072)" fill="#f7bfb2"/>
            <path id="Trazado_642442" data-name="Trazado 642442" d="M106,34.13a2.969,2.969,0,0,0-2.759-.569" transform="translate(-8.756 -2.833)" fill="#3c2355"/>
            <path id="Trazado_642443" data-name="Trazado 642443" d="M95.738,44.825l5.235.933s-1.641,2.3-3.006,1.508a6.936,6.936,0,0,1-2.228-2.442" transform="translate(-8.12 -3.802)" fill="#fff"/>
            <path id="Trazado_642444" data-name="Trazado 642444" d="M101.92,35.608a8.868,8.868,0,0,0,.1,1.09,7.054,7.054,0,0,0,.241,1.087,3.626,3.626,0,0,0,.544,1.134c.124.177.283.3.435.488a.883.883,0,0,1,.167.652,1.177,1.177,0,0,1-.261.561,2,2,0,0,1-1.137.69,1.463,1.463,0,0,1-.223.027h-.079a1.31,1.31,0,0,0,.295-.058,2.1,2.1,0,0,0,.689-.362,1.81,1.81,0,0,0,.36-.368,1.177,1.177,0,0,0,.22-.509.741.741,0,0,0-.15-.544,6.035,6.035,0,0,1-.439-.485,3.783,3.783,0,0,1-.548-1.187,6.967,6.967,0,0,1-.212-2.216" transform="translate(-8.626 -3.02)" fill="#3c2355"/>
            <path id="Trazado_642445" data-name="Trazado 642445" d="M96.974,35.786c0,.649-.377,1.175-.843,1.175s-.842-.526-.842-1.175.377-1.175.842-1.175.843.526.843,1.175" transform="translate(-8.082 -2.935)" fill="#3c2355"/>
            <path id="Trazado_642446" data-name="Trazado 642446" d="M97.38,36.464c0,.451-.262.816-.585.816s-.586-.365-.586-.816.263-.816.586-.816.585.365.585.816" transform="translate(-8.16 -3.023)" fill="#f7bfb2"/>
            <path id="Trazado_642447" data-name="Trazado 642447" d="M94.167,33.728a3.835,3.835,0,0,1,3.565-.735" transform="translate(-7.987 -2.781)" fill="#3c2355"/>
            <path id="Trazado_642448" data-name="Trazado 642448" d="M105.481,36.334c0,.513-.3.928-.665.928s-.665-.415-.665-.928.3-.928.665-.928.665.416.665.928" transform="translate(-8.833 -3.003)" fill="#3c2355"/>
            <path id="Trazado_642449" data-name="Trazado 642449" d="M105.8,36.87c0,.356-.207.644-.462.644s-.462-.288-.462-.644.207-.644.462-.644.462.288.462.644" transform="translate(-8.895 -3.072)" fill="#f7bfb2"/>
            <path id="Trazado_642450" data-name="Trazado 642450" d="M106,34.13a2.969,2.969,0,0,0-2.759-.569" transform="translate(-8.756 -2.833)" fill="#3c2355"/>
            <path id="Trazado_642451" data-name="Trazado 642451" d="M315.562,31.5a1.039,1.039,0,1,1-1.01-1.283,1.171,1.171,0,0,1,1.01,1.283" transform="translate(-26.592 -2.563)" fill="#3c2355"/>
            <path id="Trazado_642452" data-name="Trazado 642452" d="M314.627,31.751a.64.64,0,1,1-.622-.79.721.721,0,0,1,.622.79" transform="translate(-26.579 -2.626)" fill="#f7bfb2"/>
            <path id="Trazado_642453" data-name="Trazado 642453" d="M306.161,31.5a1.039,1.039,0,1,1-1.01-1.283,1.171,1.171,0,0,1,1.01,1.283" transform="translate(-25.795 -2.563)" fill="#3c2355"/>
            <path id="Trazado_642454" data-name="Trazado 642454" d="M305.226,31.751a.64.64,0,1,1-.622-.79.721.721,0,0,1,.622.79" transform="translate(-25.782 -2.626)" fill="#f7bfb2"/>
            <path id="Trazado_642455" data-name="Trazado 642455" d="M313.173,28.211a2.414,2.414,0,0,1,3.491.368" transform="translate(-26.561 -2.344)" fill="#3c2355"/>
            <path id="Trazado_642456" data-name="Trazado 642456" d="M306.1,28.116a1.881,1.881,0,0,0-2.667.472" transform="translate(-25.735 -2.353)" fill="#3c2355"/>
            <path id="Trazado_642457" data-name="Trazado 642457" d="M308.485,31.375s-.149.529-.412,1.311a29.726,29.726,0,0,1-1.1,2.817c-.113.252-.242.5-.374.735a2.265,2.265,0,0,0-.34.674.578.578,0,0,0,.307.538,2.327,2.327,0,0,0,.586.268,6.809,6.809,0,0,0,.963.221c.237.036.374.051.374.051s-.137,0-.378-.014a5.353,5.353,0,0,1-.989-.155,2.472,2.472,0,0,1-.632-.253.933.933,0,0,1-.288-.264.6.6,0,0,1-.1-.412,2.315,2.315,0,0,1,.35-.74c.128-.234.244-.481.364-.727.234-.493.449-1,.642-1.473l.529-1.3.506-1.276" transform="translate(-25.96 -2.661)" fill="#3c2355"/>
            <path id="Trazado_642458" data-name="Trazado 642458" d="M306.09,41.964h6.233s-3.2,3.945-6.233,0" transform="translate(-25.96 -3.559)" fill="#fff"/>
            <path id="Trazado_642459" data-name="Trazado 642459" d="M281.349,276.087l-.313-.016c.6-11.371,12.921-111.393,13.045-112.4l.311.038c-.124,1.009-12.44,101.019-13.043,112.379" transform="translate(-23.836 -13.881)" fill="#fff"/>
          </g>
        </g>
      </g>
    </g>
  </g>
</svg>
