<svg xmlns="http://www.w3.org/2000/svg" xmlns:xlink="http://www.w3.org/1999/xlink" width="124.417" height="124.418" viewBox="0 0 124.417 124.418">
  <defs>
    <clipPath id="clip-path">
      <rect id="Rectángulo_379049" data-name="Rectángulo 379049" width="115" height="115" transform="translate(389.246 2670.246)" fill="#fff" stroke="#707070" stroke-width="1"/>
    </clipPath>
    <linearGradient id="linear-gradient" x1="0.989" y1="1.001" x2="0.081" y2="0.049" gradientUnits="objectBoundingBox">
      <stop offset="0" stop-color="#8c50af"/>
      <stop offset="1" stop-color="#fbe3b1"/>
    </linearGradient>
    <clipPath id="clip-path-2">
      <rect id="Rectángulo_379488" data-name="Rectángulo 379488" width="86" height="86" transform="translate(409.27 1416.362)" fill="#fff" stroke="#707070" stroke-width="1"/>
    </clipPath>
    <clipPath id="clip-path-3">
      <rect id="Rectángulo_379733" data-name="Rectángulo 379733" width="77.928" height="77.921" fill="#543f5c"/>
    </clipPath>
  </defs>
  <g id="Grupo_1075359" data-name="Grupo 1075359" transform="translate(-2361.789 9590.363)">
    <g id="Enmascarar_grupo_1074673" data-name="Enmascarar grupo 1074673" transform="translate(1977.543 -12255.608)" clip-path="url(#clip-path)">
      <rect id="Imagen_31" data-name="Imagen 31" width="128.611" height="124.518" transform="translate(382.686 2667.283)" fill="#fff"/>
    </g>
    <path id="Sustracción_180" data-name="Sustracción 180" d="M113.2,113.2H0V0H113.2V113.2ZM6.49,6.49V106.714H106.713V6.49Z" transform="matrix(-0.995, -0.105, 0.105, -0.995, 2474.373, -9465.945)" fill="url(#linear-gradient)"/>
    <g id="Enmascarar_grupo_1074732" data-name="Enmascarar grupo 1074732" transform="translate(1971.73 -10986.362)" clip-path="url(#clip-path-2)">
      <g id="Grupo_1075355" data-name="Grupo 1075355" transform="translate(413.27 1420.362)">
        <g id="Grupo_1075354" data-name="Grupo 1075354" clip-path="url(#clip-path-3)">
          <path id="Trazado_642865" data-name="Trazado 642865" d="M31.971,67.334c.278.373.54.7.77,1.042a.967.967,0,0,1,0,1.119,5.057,5.057,0,0,1-.639.822q-3.436,3.456-6.888,6.9a1.647,1.647,0,0,1-2.395.343L9.55,70.572Q5.245,68.306.941,66.036a1.423,1.423,0,0,1-.883-1.7,2.028,2.028,0,0,1,.5-.82c1.566-1.6,3.15-3.173,4.73-4.755q3.838-3.844,7.679-7.685a5.312,5.312,0,0,1,.463-.424,1.279,1.279,0,0,1,1.67-.032,7.893,7.893,0,0,1,.776.7c.132.13.214.129.334-.019a17.444,17.444,0,0,0,3.01-5.509,18.926,18.926,0,0,0,.744-6.028c0-2.4,0-4.8,0-7.2a17.594,17.594,0,0,1,1.459-6.983c1.09-2.542,2.115-5.111,3.173-7.666s2.115-5.086,3.171-7.629c.936-2.254,1.886-4.5,2.8-6.765a5.47,5.47,0,0,1,2.628-3,4.982,4.982,0,0,1,5.532.75c.205.177.3.153.484-.006A4.986,4.986,0,0,1,47,2.777c.771,1.6,1.392,3.271,2.082,4.909q.405.964.814,1.926a1.476,1.476,0,0,1-.637,1.838,1.409,1.409,0,0,1-1.9-.357,5.206,5.206,0,0,1-.507-.989q-1.162-2.783-2.305-5.573a2.105,2.105,0,0,0-1.382-1.416,2.019,2.019,0,0,0-2.611,2.443c.277,1.328.661,2.634.992,3.952.376,1.5.745,3,1.119,4.5.439,1.758.878,3.515,1.333,5.269a.66.66,0,0,0,.309.337,5.105,5.105,0,0,1,2.535,3.148c.146.526.288,1.053.438,1.578q1.239,4.339,2.482,8.678c.138.48.285.956.437,1.432a1.514,1.514,0,0,1-.727,1.777,1.479,1.479,0,0,1-2-.586,4.324,4.324,0,0,1-.316-.846q-1.113-3.887-2.214-7.777c-.341-1.2-.661-2.4-1.041-3.582a1.741,1.741,0,0,0-2.909-.786,1.443,1.443,0,0,0-.492,1.043c-.006.128,0,.256,0,.384q0,13.381,0,26.762a16.827,16.827,0,0,0,1.046,5.8,17.792,17.792,0,0,0,5.318,7.6c.3.256.634.476.93.737a.379.379,0,0,0,.616-.027c.885-.893,1.787-1.77,2.676-2.658q3.992-3.987,7.98-7.977c.238-.238.493-.458.7-.648-.647-.9-1.286-1.733-1.855-2.606a19.221,19.221,0,0,1-2.446-5.752,20.888,20.888,0,0,1-.518-5.263c0-2.562.025-5.124.012-7.686a14.553,14.553,0,0,0-1.4-6.072c-.447-.969-.837-1.967-1.208-2.969a1.383,1.383,0,0,1,.534-1.692,1.406,1.406,0,0,1,2.156.529c.446.931.8,1.905,1.219,2.852a18.6,18.6,0,0,1,1.52,4.949,16.63,16.63,0,0,1,.169,2.12c.019,2.737,0,5.473.015,8.21a20.169,20.169,0,0,0,.148,2.926,16.212,16.212,0,0,0,3.507,7.943c.272.332.269.335.559.029,1.1-1.164,1.761-1.149,2.886-.017q4.814,4.844,9.654,9.661,1.309,1.31,2.611,2.626a1.488,1.488,0,0,1-.386,2.6c-3.058,1.628-6.127,3.237-9.192,4.851q-6.342,3.339-12.687,6.675a1.616,1.616,0,0,1-2.312-.334q-3.49-3.476-6.969-6.962l-.073-.075c-.915-.955-.914-1.606,0-2.547.08-.083.159-.167.284-.3a21.7,21.7,0,0,1-7.035-8.925,22.928,22.928,0,0,1-2.913,4.914,22.258,22.258,0,0,1-4.08,3.978m5.454-29.65q0-6.6,0-13.207c0-.163,0-.326,0-.489a1.694,1.694,0,0,0-1.951-1.8,1.626,1.626,0,0,0-1.485,1.36c-.911,3.16-1.808,6.324-2.714,9.485-.227.793-.439,1.592-.706,2.372a1.446,1.446,0,0,1-1.988.871,1.485,1.485,0,0,1-.861-1.8q.31-1,.6-2c.891-3.1,1.809-6.2,2.653-9.321a5.378,5.378,0,0,1,2.7-3.552.55.55,0,0,0,.256-.3q.682-2.631,1.338-5.268c.378-1.511.743-3.024,1.124-4.534.3-1.193.627-2.38.928-3.573a2.463,2.463,0,0,0-.145-1.9,1.953,1.953,0,0,0-2.013-.97,1.83,1.83,0,0,0-1.635,1.181c-.7,1.635-1.364,3.284-2.046,4.927q-2.018,4.863-4.038,9.725c-1.069,2.576-2.107,5.166-3.214,7.726a14.617,14.617,0,0,0-1.253,5.753c-.018,2.644.009,5.287.009,7.931a20.173,20.173,0,0,1-.713,5.724,19.52,19.52,0,0,1-3.876,7.271c-.194.227-.214.343.006.561,1.721,1.7,3.429,3.421,5.142,5.134q2.853,2.852,5.71,5.7c.544.54.561.535,1.172.069a17.752,17.752,0,0,0,6.168-8.686,17.136,17.136,0,0,0,.837-5.494q0-6.446,0-12.892M48.653,68.913c1.846,1.853,3.646,3.657,5.442,5.466a.376.376,0,0,0,.518.08q9.3-4.9,18.6-9.8c.232-.122.458-.256.663-.371L63.581,54,48.653,68.913M4.03,64.294l1.534.806q8.843,4.654,17.682,9.315a.47.47,0,0,0,.661-.1c1.559-1.571,3.128-3.13,4.694-4.693.22-.219.436-.443.681-.693L14.345,54.007,4.03,64.294m35-52.445-.08-.03c-.064.191-.139.38-.189.574-.566,2.217-1.123,4.435-1.7,6.65-.059.226.044.28.2.364.517.284,1.024.587,1.546.862a.433.433,0,0,0,.349-.013c.49-.259.957-.566,1.456-.8.253-.12.31-.216.238-.491-.617-2.369-1.216-4.742-1.82-7.114" transform="translate(0 0)" fill="#543f5c"/>
          <path id="Trazado_642866" data-name="Trazado 642866" d="M180.708,55.138a1.546,1.546,0,0,1-1.532,1.5,1.478,1.478,0,0,1-1.456-1.5,1.494,1.494,0,0,1,2.988.008" transform="translate(-128.051 -38.656)" fill="#543f5c"/>
        </g>
      </g>
    </g>
  </g>
</svg>
