<svg xmlns="http://www.w3.org/2000/svg" xmlns:xlink="http://www.w3.org/1999/xlink" width="107" height="107" viewBox="0 0 107 107">
  <defs>
    <clipPath id="clip-path">
      <rect id="Rect치ngulo_379416" data-name="Rect치ngulo 379416" width="74" height="74" transform="translate(302 1112.284)" fill="#fff" stroke="#707070" stroke-width="1"/>
    </clipPath>
    <clipPath id="clip-path-2">
      <rect id="Rect치ngulo_379417" data-name="Rect치ngulo 379417" width="66.5" height="66.546" fill="#fff"/>
    </clipPath>
  </defs>
  <g id="Grupo_1075355" data-name="Grupo 1075355" transform="translate(-285 -1361.284)">
    <circle id="Elipse_5845" data-name="Elipse 5845" cx="53.5" cy="53.5" r="53.5" transform="translate(285 1361.284)" fill="#543f5c"/>
    <g id="Enmascarar_grupo_1074720" data-name="Enmascarar grupo 1074720" transform="translate(0 266)" clip-path="url(#clip-path)">
      <g id="Grupo_1075024" data-name="Grupo 1075024" transform="translate(306 1116.285)">
        <g id="Grupo_1075023" data-name="Grupo 1075023" clip-path="url(#clip-path-2)">
          <path id="Trazado_641978" data-name="Trazado 641978" d="M8.88,31.221a7.431,7.431,0,0,0-.009-.783.4.4,0,0,0-.2-.255A7.51,7.51,0,0,1,5.2,26.58a19.216,19.216,0,0,1-.689-2.2.356.356,0,0,0-.149-.213,3.324,3.324,0,0,1-2.148-2.848,11.481,11.481,0,0,1,.817-6.093,8.536,8.536,0,0,1,4.409-4.4.546.546,0,0,0,.389-.666A4.36,4.36,0,0,1,12.45,5.571,4.445,4.445,0,0,1,16.5,9.113a2.649,2.649,0,0,1,.064,1.379c-.016.051.091.179.167.214a9.233,9.233,0,0,1,2.709,1.811,8.959,8.959,0,0,1,2.715,6.169,18.43,18.43,0,0,1-.049,2.8,3.136,3.136,0,0,1-1.93,2.6.543.543,0,0,0-.377.517,6.623,6.623,0,0,1-1.044,2.759,7.625,7.625,0,0,1-2.975,2.766c-.229.118-.337.254-.292.5a.353.353,0,0,1,0,.06c0,.487.008.472.476.592a6.554,6.554,0,0,1,4.222,3.24c.111.2.195.231.413.153q1.677-.6,3.37-1.163c.442-.147.436-.128.436-.587a28.892,28.892,0,0,1,.041-3.66,6.577,6.577,0,0,1,4.39-5.567,5.157,5.157,0,0,1,.805-.209c.216-.047.29-.152.312-.386a.8.8,0,0,0-.5-.867,7.637,7.637,0,0,1-3.83-5.436.6.6,0,0,0-.361-.479A3.253,3.253,0,0,1,23.3,13.3c-.02-1.937-.05-3.876.005-5.812A7.776,7.776,0,0,1,29.722.148a7,7,0,0,1,1.184-.12c1.767,0,3.548-.1,5.3.072a7.455,7.455,0,0,1,6.485,4.936,7.273,7.273,0,0,1,.523,2.76c.011,1.828.028,3.656,0,5.484a3.281,3.281,0,0,1-1.978,3.048.566.566,0,0,0-.343.459,7.739,7.739,0,0,1-2.72,4.691,11.684,11.684,0,0,1-1.389.915.37.37,0,0,0-.225.366c.009.655.009.629.631.809a6.479,6.479,0,0,1,4.688,4.776,7.872,7.872,0,0,1,.237,1.823c.032.962,0,1.927-.02,2.89a.352.352,0,0,0,.285.407c1.1.36,2.2.728,3.294,1.114.489.172.483.2.753-.25a6.712,6.712,0,0,1,3.7-2.938,5.565,5.565,0,0,1,.638-.141.543.543,0,0,0,.172-.033c.162-.1.09-.931-.087-1.021a7.735,7.735,0,0,1-3.423-3.413,6.323,6.323,0,0,1-.745-2.369c-.008-.1-.147-.214-.253-.263A3.412,3.412,0,0,1,44.446,21.8a3.318,3.318,0,0,1-.1-.824A24.129,24.129,0,0,1,44.408,18a8.8,8.8,0,0,1,4.786-7c.2-.107.421-.175.619-.284a.278.278,0,0,0,.127-.217,4.522,4.522,0,0,1,2.544-4.517A4.421,4.421,0,0,1,58.391,8.3a4.249,4.249,0,0,1,.269,2.039.338.338,0,0,0,.249.412,8.628,8.628,0,0,1,4.627,4.619,11.315,11.315,0,0,1,.71,6.162,3.249,3.249,0,0,1-2.084,2.628.316.316,0,0,0-.163.2,7.737,7.737,0,0,1-4.122,5.793.372.372,0,0,0-.241.392c.015.207-.055.47.047.607s.371.106.563.162a6.6,6.6,0,0,1,4.346,3.737,6.865,6.865,0,0,1,.6,2.917c-.016,4.093,0,8.187-.013,12.281a2.7,2.7,0,0,0,.269,1.2,31.091,31.091,0,0,1,2.02,5.648A32.236,32.236,0,0,1,66.5,64.061a2.254,2.254,0,0,1-2.331,2.482c-.1,0-.2,0-.3,0q-30.611,0-61.222,0a4.182,4.182,0,0,1-.887-.083A2.157,2.157,0,0,1,0,64.22c.061-1.237.2-2.472.359-3.7A29.474,29.474,0,0,1,1.9,54.3c.376-1.043.845-2.052,1.256-3.083a1.992,1.992,0,0,0,.16-.712c.009-4.272-.012-8.545.014-12.817a6.431,6.431,0,0,1,2.1-4.768,6.315,6.315,0,0,1,3.026-1.633c.115-.026.234-.035.421-.062m47.165,13c-.108.1-.2.172-.282.254q-3.542,3.536-7.083,7.073c-1.419,1.418-2.832,2.841-4.255,4.254a.353.353,0,0,0-.025.57,14.213,14.213,0,0,1,3.166,7.7c.021.21.075.3.322.3,2.95-.01,5.9,0,8.849,0q3.68,0,7.359.013c.186,0,.272-.026.249-.244-.088-.849-.139-1.7-.24-2.549a30.2,30.2,0,0,0-1.2-5.573,31.247,31.247,0,0,0-3.242-7.063,31.708,31.708,0,0,0-3.621-4.731M2.173,64.361a1.962,1.962,0,0,0,.2.02c1.61,0,3.219-.009,4.828-.009q5.752,0,11.5.007c.214,0,.209-.131.231-.267.114-.694.185-1.4.351-2.082A14.157,14.157,0,0,1,21.846,56.7c.5-.647.5-.652-.078-1.229q-5.505-5.5-11.014-10.987c-.088-.087-.18-.17-.288-.272A31.127,31.127,0,0,0,2.173,64.361M32.143,34.4A30.991,30.991,0,0,0,18.773,37.9a30.36,30.36,0,0,0-6.706,4.735L23.9,54.5a.155.155,0,0,0,.038-.019c.071-.054.141-.11.211-.166a14.273,14.273,0,0,1,6.87-3.067c.314-.047.626-.1.939-.157.158-.027.225-.1.223-.281q-.027-3.456-.034-6.912c-.005-3.147,0-6.294,0-9.5m2.21-.014c0,.228,0,.413,0,.6q-.007,7.883-.021,15.766c0,.246.084.328.31.362a14.331,14.331,0,0,1,3.208.731c.22.087.282-.056.349-.207q1.068-2.39,2.136-4.779c.279-.624.556-1.25.848-1.868a.974.974,0,0,1,.661-.558,1.01,1.01,0,0,1,1.1.344A1.074,1.074,0,0,1,43.085,46c-.957,2.157-1.913,4.314-2.886,6.464-.108.239-.068.339.135.473.7.465,1.393.949,2.088,1.426l.2.137,11.84-11.862a31.141,31.141,0,0,0-20.11-8.251M33.4,21.021a4.729,4.729,0,0,0,1.87-.289,5.328,5.328,0,0,0,3.164-3.2,10.65,10.65,0,0,0,.4-1.942c.129-.808.39-1.076,1.209-1.155A1.058,1.058,0,0,0,41,13.5c.011-.616.007-1.232,0-1.847a.52.52,0,0,0-.533-.553.579.579,0,0,0-.585.491c-.02.107-.034.216-.049.323a.892.892,0,0,1-.707.759,1.023,1.023,0,0,1-1.075-.246,1.726,1.726,0,0,1-.377-1.042,1.791,1.791,0,0,0-1.395-1.594c-.716-.19-1.45-.32-2.159-.533a2.049,2.049,0,0,0-1.579-.04,13.467,13.467,0,0,1-2.3.571,1.832,1.832,0,0,0-1.4,1.529,4.689,4.689,0,0,1-.139.729,1.006,1.006,0,0,1-1.133.669.98.98,0,0,1-.885-.826c-.022-.117-.032-.237-.063-.351a.587.587,0,0,0-.649-.445c-.339.05-.468.2-.469.559,0,.586-.024,1.173.011,1.757a1.427,1.427,0,0,0,.258.666,1,1,0,0,0,.811.368A1.066,1.066,0,0,1,27.665,15.5a10.7,10.7,0,0,0,.252,1.614,5.387,5.387,0,0,0,5.48,3.91m-13.384-.737-.026,0c0-.159,0-.318,0-.477a4.373,4.373,0,0,0-.036-.475.484.484,0,0,0-.536-.479.514.514,0,0,0-.579.474,2.849,2.849,0,0,1-.135.546,1,1,0,0,1-1.088.6.99.99,0,0,1-.9-.774,4.078,4.078,0,0,0-.126-.457,4.191,4.191,0,0,0-2.436-2.466c-.186-.078-.264-.043-.391.1a13.335,13.335,0,0,1-1.477,1.581,10.421,10.421,0,0,1-5.139,2.022,1.258,1.258,0,0,1-1.61-1.2.516.516,0,0,0-.259-.351.559.559,0,0,0-.856.532c.016.556,0,1.112.011,1.668a1.029,1.029,0,0,0,1,1.05,1.237,1.237,0,0,1,1.245,1.37A5.1,5.1,0,0,0,8.55,27.509a5.452,5.452,0,0,0,4.139,1.311,5.463,5.463,0,0,0,4.9-4.227c.1-.474.122-.964.2-1.443a1.132,1.132,0,0,1,1.116-.964.976.976,0,0,0,.99-.782,9.512,9.512,0,0,0,.114-1.12m42.08.051h-.021c0-.318.015-.636,0-.953a.5.5,0,0,0-.567-.511.489.489,0,0,0-.533.505,1.113,1.113,0,0,1-1.416,1.117c-.6-.09-1.195-.195-1.779-.343a8.475,8.475,0,0,1-4.865-3.009c-.326-.426-.333-.431-.831-.2a3.76,3.76,0,0,0-2.263,2.79.871.871,0,0,1-.215.382,1.064,1.064,0,0,1-1.166.318,1.106,1.106,0,0,1-.75-1.014c-.068-.431-.221-.578-.61-.568-.335.008-.518.2-.528.62-.013.546-.017,1.093.011,1.638a1.023,1.023,0,0,0,.955,1.068c.861.1,1.19.428,1.246,1.294A5.668,5.668,0,0,0,50.1,26.929a5.607,5.607,0,0,0,6.042,1.629,5.41,5.41,0,0,0,3.713-5.18,1.2,1.2,0,0,1,1.172-1.191,1.05,1.05,0,0,0,1.069-1.107c0-.248,0-.5,0-.745M37.212,53.873A12.227,12.227,0,0,0,21.1,64.372c.1.008.159.017.216.017,1.152,0,2.3-.014,3.455-.015.793,0,.783,0,.985-.759a7.588,7.588,0,0,1,5.519-5.656,7.767,7.767,0,0,1,3.89-.029c.163.035.279.046.35-.15.118-.325.257-.643.4-.96.426-.968.856-1.934,1.3-2.947M41.048,8.914a15.411,15.411,0,0,0-.161-2.35,5.522,5.522,0,0,0-5.481-4.386c-1.379-.052-2.762-.034-4.142,0a5.949,5.949,0,0,0-3.324.972A5.761,5.761,0,0,0,25.525,8.9c0,.015.025.027.045.047a3.07,3.07,0,0,1,1.844.306c.05-.059.1-.11.139-.162a3.916,3.916,0,0,1,2.412-1.466A10.882,10.882,0,0,0,32.811,6.8a1.253,1.253,0,0,1,.983.022c.661.234,1.33.45,2,.652.586.176,1.2.275,1.766.5A3.735,3.735,0,0,1,39.115,9.26a3.356,3.356,0,0,1,1.932-.347M18.339,35.7c-.046-.1-.08-.19-.128-.273a4.4,4.4,0,0,0-2.773-2.045c-.062-.017-.179.072-.233.141a11.169,11.169,0,0,1-.876,1.117,2.911,2.911,0,0,1-2.276.86,3.307,3.307,0,0,1-2.865-1.988.209.209,0,0,0-.3-.137,4.518,4.518,0,0,0-3.395,4.431c0,2.959.006,5.918.011,8.877a1.618,1.618,0,0,0,.02.182l.063.036a33.4,33.4,0,0,1,12.75-11.2m39.14-2.352a12.133,12.133,0,0,1-.9,1.194,3.005,3.005,0,0,1-2.3.961A3.324,3.324,0,0,1,51.5,33.849c-.317-.521-.323-.533-.9-.321a4.242,4.242,0,0,0-2.44,2.156c.085.051.149.1.218.131a31.938,31.938,0,0,1,7.48,5.194,33.232,33.232,0,0,1,4.842,5.6,3.819,3.819,0,0,0,.3.333c0-2.408,0-4.721,0-7.034,0-.873.019-1.749-.042-2.619a4.427,4.427,0,0,0-3.486-3.936m-30.9-.49a32.715,32.715,0,0,1,13.309-.009c.016-.123.025-.161.025-.2-.009-.9,0-1.808-.036-2.71a5.042,5.042,0,0,0-.172-1.348,4.361,4.361,0,0,0-3.059-2.951c-.221-.067-.316-.056-.428.17A3.168,3.168,0,0,1,33.3,27.693a3.124,3.124,0,0,1-2.875-1.6c-.332-.538-.33-.547-.932-.325a4.024,4.024,0,0,0-2.758,3.106,27.767,27.767,0,0,0-.158,3.982m-6.922-16.14c-.226-.457-.394-.857-.611-1.228a6.5,6.5,0,0,0-3.923-3.041,8.829,8.829,0,0,0-2.77-.278,13.958,13.958,0,0,0-2.78.2,6.721,6.721,0,0,0-3.54,2.121A6.373,6.373,0,0,0,4.777,16.7c.136,0,.243,0,.35,0a2.518,2.518,0,0,1,2.145,1.24.432.432,0,0,0,.454.23,5.83,5.83,0,0,0,2.086-.658,6.86,6.86,0,0,0,2.357-2.057,2.062,2.062,0,0,1,2.591-.737,6.95,6.95,0,0,1,3.188,2.369,2.419,2.419,0,0,1,1.712-.37m42.05-.033a.981.981,0,0,0-.032-.16,6.561,6.561,0,0,0-3.563-3.765,7.38,7.38,0,0,0-3.365-.588,16.1,16.1,0,0,0-2.931.174A6.56,6.56,0,0,0,47.5,15.437c-.234.384-.41.8-.629,1.242a5.708,5.708,0,0,1,.859.066c.256.059.491.2.744.285.061.02.183-.048.233-.111a6.929,6.929,0,0,1,2.745-2.084,2.226,2.226,0,0,1,3.049.8c.1.134.206.267.317.394a6.393,6.393,0,0,0,3.938,2.143.385.385,0,0,0,.451-.183,2.514,2.514,0,0,1,2.264-1.29c.076,0,.152-.01.242-.017M45.394,64.372a12.014,12.014,0,0,0-3.261-7.329,10.79,10.79,0,0,0-2.956-2.258L37.4,58.795c.638.609,1.272,1.14,1.816,1.749a7.5,7.5,0,0,1,1.658,3.542c.052.246.157.308.4.3,1.112-.018,2.223-.015,3.335-.018h.786m-6.669-.007a5.577,5.577,0,0,0-8.437-3.628,5.363,5.363,0,0,0-2.5,3.628ZM14.418,10a.253.253,0,0,0,.008-.065,2.231,2.231,0,0,0-2.139-2.154A2.206,2.206,0,0,0,9.953,9.795c-.025.213.02.308.267.286.483-.044.97-.071,1.455-.077.9-.011,1.8,0,2.743,0m42.147.083a2.485,2.485,0,0,0-.4-1.377,2.285,2.285,0,0,0-2.1-.916,2.228,2.228,0,0,0-1.977,2.034c0,.2.042.253.247.249,1.18-.025,2.36-.036,3.54-.044.214,0,.428.032.689.053M53.214,31.027a13.5,13.5,0,0,0,.01,1.356,1.063,1.063,0,0,0,1,.9,1.007,1.007,0,0,0,1.144-.778,12.265,12.265,0,0,0,.124-1.483ZM34.364,23.264h-2.24c0,.379-.005.78,0,1.181a1.191,1.191,0,0,0,1.038,1.122,1.156,1.156,0,0,0,1.188-.911,11.135,11.135,0,0,0,.012-1.391M13.3,31.031H11.074a12.4,12.4,0,0,0,.008,1.285,1.066,1.066,0,0,0,1.148.968,1.112,1.112,0,0,0,1.062-1.074c.018-.384,0-.769,0-1.178" transform="translate(0 0)" fill="#fff"/>
        </g>
      </g>
    </g>
  </g>
</svg>
