<svg xmlns="http://www.w3.org/2000/svg" xmlns:xlink="http://www.w3.org/1999/xlink" width="124.417" height="124.418" viewBox="0 0 124.417 124.418">
  <defs>
    <clipPath id="clip-path">
      <rect id="Rectángulo_379066" data-name="Rectángulo 379066" width="115" height="115" transform="translate(389.246 2670.246)" fill="#fff" stroke="#707070" stroke-width="1"/>
    </clipPath>
    <linearGradient id="linear-gradient" x1="0.989" y1="1.001" x2="0.081" y2="0.049" gradientUnits="objectBoundingBox">
      <stop offset="0" stop-color="#8c50af"/>
      <stop offset="1" stop-color="#fbe3b1"/>
    </linearGradient>
    <clipPath id="clip-path-2">
      <rect id="Rectángulo_379357" data-name="Rectángulo 379357" width="85" height="85" transform="translate(18798 -9459)" fill="#fff" stroke="#707070" stroke-width="1"/>
    </clipPath>
  </defs>
  <g id="Grupo_1075355" data-name="Grupo 1075355" transform="translate(-391.496 -1643.451)">
    <g id="Enmascarar_grupo_1074678" data-name="Enmascarar grupo 1074678" transform="translate(5.754 -1021.962)" clip-path="url(#clip-path)">
      <rect id="Imagen_32" data-name="Imagen 32" width="128.611" height="124.518" transform="translate(382.686 2667.283)" fill="#fff"/>
    </g>
    <path id="Sustracción_189" data-name="Sustracción 189" d="M113.2,113.2H0V0H113.2V113.2ZM6.49,6.49V106.714H106.713V6.49Z" transform="matrix(-0.995, -0.105, 0.105, -0.995, 504.08, 1767.869)" fill="url(#linear-gradient)"/>
    <g id="Enmascarar_grupo_1074716" data-name="Enmascarar grupo 1074716" transform="translate(-18388 11122.284)" clip-path="url(#clip-path-2)">
      <g id="Grupo_1074938" data-name="Grupo 1074938" transform="translate(-1461.413 417.018)">
        <path id="Trazado_612186" data-name="Trazado 612186" d="M1492.353,1120.881a34.851,34.851,0,0,1-14.078-8.4,24.97,24.97,0,0,1-6.737-11.713,21.639,21.639,0,0,1-.531-6.166,22.892,22.892,0,0,1,5.8-14.065,31.392,31.392,0,0,1,10.358-7.965,45.429,45.429,0,0,1,5.015-2.111,38.049,38.049,0,0,1,6.877-1.656,40.667,40.667,0,0,1,7.324-.572,47.281,47.281,0,0,1,6.291.605,38.565,38.565,0,0,1,16.736,6.831,28.243,28.243,0,0,1,7.631,8.222,1.055,1.055,0,0,0,.53.4,21.385,21.385,0,0,1,7.873,4.823,19.085,19.085,0,0,1,3.728,5.082,16.521,16.521,0,0,1,1.834,6.053,17.314,17.314,0,0,1-.279,5.458,18.69,18.69,0,0,1-8.678,12.241c-.031.02-.058.047-.118.1.326.732.652,1.471.983,2.207.9,2,1.806,4,2.7,6.008a1.189,1.189,0,0,1-.306,1.541,1.432,1.432,0,0,1-1.468.2q-5.775-2.622-11.548-5.25c-.8-.363-1.577-.777-2.4-1.073a6.036,6.036,0,0,0-1.567-.233,23,23,0,0,1-6.243-1.3,1.65,1.65,0,0,0-.994-.01c-1.329.417-2.644.881-3.96,1.34a8.074,8.074,0,0,0-1.337.531q-9.938,5.618-19.861,11.262-3.347,1.9-6.691,3.809c-.516.293-1.021.57-1.634.2a1.344,1.344,0,0,1-.59-1.639q1.634-4.469,3.255-8.942,1.019-2.808,2.029-5.621c.021-.057.034-.117.054-.187m-1.647,12.295.09.048c.192-.119.381-.245.578-.357,1.3-.74,2.613-1.471,3.913-2.216,2.833-1.623,5.657-3.264,8.5-4.878,2.872-1.633,5.758-3.24,8.636-4.862a18.751,18.751,0,0,1,4.818-2.224,26.873,26.873,0,0,0,5.78-2.232,28.473,28.473,0,0,0,11.278-9.612,19.85,19.85,0,0,0,3.406-9.115,20.24,20.24,0,0,0-1.11-8.964,22.894,22.894,0,0,0-6.711-9.435,29.848,29.848,0,0,0-8.394-5.265,44.964,44.964,0,0,0-5.241-1.834c-1.571-.432-3.207-.632-4.82-.907a41.126,41.126,0,0,0-9.555-.233,34.349,34.349,0,0,0-7.914,1.527,32.861,32.861,0,0,0-12.961,7.251,21.672,21.672,0,0,0-7.24,13.348,19.3,19.3,0,0,0,1.431,10.215,23.893,23.893,0,0,0,6.439,8.595,32.668,32.668,0,0,0,11.089,6.245c.635.218,1.29.386,1.912.637a1.194,1.194,0,0,1,.757,1.483,3.951,3.951,0,0,1-.174.583q-1.92,5.177-3.843,10.352c-.228.615-.442,1.235-.662,1.852m51.1-9.041c-.059-.143-.078-.19-.1-.236-.863-1.977-1.722-3.957-2.593-5.93a1.177,1.177,0,0,1,.252-1.368,2.5,2.5,0,0,1,.659-.445,15.622,15.622,0,0,0,5.726-5.264,14.87,14.87,0,0,0,2.288-12.033,16.2,16.2,0,0,0-8.495-10.847c-.161-.086-.331-.157-.566-.268.049.187.069.3.106.4a19.177,19.177,0,0,1,1.174,4.914,21.426,21.426,0,0,1-.179,6.333,25.46,25.46,0,0,1-1.8,5.6,28.117,28.117,0,0,1-9.952,11.315c-1.008.679-2.057,1.3-3.147,1.984a7.277,7.277,0,0,0,1.072.288c1.162.129,2.329.212,3.492.331a2.523,2.523,0,0,1,.769.2q5.4,2.435,10.792,4.885a3.749,3.749,0,0,0,.5.139" transform="translate(18790.434 -10936.238)" fill="#543f5c"/>
        <path id="Trazado_612187" data-name="Trazado 612187" d="M1535.209,1183.751a5.953,5.953,0,1,1,.12-11.905,5.953,5.953,0,1,1-.12,11.905m.07-9.254c-2.088.008-3.316,1.342-3.31,3.593a3.215,3.215,0,0,0,3.425,3.042,3.318,3.318,0,0,0-.115-6.635" transform="translate(18744.156 -11018.492)" fill="#543f5c"/>
        <path id="Trazado_612188" data-name="Trazado 612188" d="M1625.449,1177.774c.232,2.963-2.545,5.959-5.9,5.956a5.958,5.958,0,1,1,5.9-5.956m-6-3.3a2.971,2.971,0,0,0-2.361.97,3.452,3.452,0,0,0-.846,2.885c.039,1.512,1.582,2.759,3.479,2.757a3.309,3.309,0,1,0-.272-6.613" transform="translate(18677.285 -11018.466)" fill="#543f5c"/>
        <path id="Trazado_612189" data-name="Trazado 612189" d="M1709.723,1177.8a5.9,5.9,0,0,1-5.98,5.955,5.954,5.954,0,1,1,.1-11.908,5.932,5.932,0,0,1,5.877,5.953m-9.263-.026a3.274,3.274,0,0,0,3.469,3.361,3.336,3.336,0,0,0,3.2-3.066,3.248,3.248,0,0,0-3.1-3.569,3.212,3.212,0,0,0-3.563,3.274" transform="translate(18610.385 -11018.492)" fill="#543f5c"/>
      </g>
    </g>
  </g>
</svg>
