<svg xmlns="http://www.w3.org/2000/svg" xmlns:xlink="http://www.w3.org/1999/xlink" width="124" height="124.001" viewBox="0 0 124 124.001">
  <defs>
    <clipPath id="clip-path">
      <rect id="Rectángulo_378056" data-name="Rectángulo 378056" width="114.583" height="114.583" transform="translate(0)" fill="#7edbb4" stroke="#707070" stroke-width="1"/>
    </clipPath>
    <clipPath id="clip-path-2">
      <path id="Trazado_642345" data-name="Trazado 642345" d="M7.393,10.591a.5.5,0,0,1,.033-.09v-.009l-.014-.071a.847.847,0,0,1-.019.17m2.723.094v0a.885.885,0,0,1,.028.217v-.486a1.225,1.225,0,0,1-.028.264" transform="translate(-7.393 -10.421)" fill="none"/>
    </clipPath>
    <linearGradient id="linear-gradient" x1="-12.683" y1="47.604" x2="-10.966" y2="47.604" gradientUnits="objectBoundingBox">
      <stop offset="0" stop-color="#39baf4"/>
      <stop offset="1" stop-color="#00a7f2"/>
    </linearGradient>
    <clipPath id="clip-path-3">
      <path id="Trazado_642346" data-name="Trazado 642346" d="M8.288,46.528a1.221,1.221,0,0,1-.363-.873V28.672A55.5,55.5,0,0,1,10.987,12.26a1.367,1.367,0,0,0,.09-.491V2.728H24.921v8.744c0,3.072,4.124,10.207,4.917,11.552.562,1.085,1.378,8.956,1.378,10.933v7.111a2.933,2.933,0,0,1-1.619-.812,2.877,2.877,0,0,1-.472-.628,2.8,2.8,0,0,1-.382-1.43V30.6a1.366,1.366,0,0,0-2.732,0V49.171a1.241,1.241,0,0,1-1.236,1.236,1.2,1.2,0,0,1-.873-.378,1.089,1.089,0,0,1-.33-.628.993.993,0,0,0-.028-.113V36.308a1.366,1.366,0,0,0-2.732,0V53.781a1.241,1.241,0,0,1-2.119.868,1.276,1.276,0,0,1-.363-.868V49.657a.885.885,0,0,0-.028-.217v0a1.225,1.225,0,0,0,.028-.264V34.052a1.366,1.366,0,1,0-2.732,0V49.171l.014.071v.009a.5.5,0,0,0-.033.09l0,.061a1.222,1.222,0,0,1-2.086.628,1.2,1.2,0,0,1-.344-.708.866.866,0,0,1-.014-.151V32.292a1.364,1.364,0,0,0-2.727,0V45.655a1.053,1.053,0,0,1-.085.429,1.224,1.224,0,0,1-1.151.807,1.239,1.239,0,0,1-.878-.363M9.713,0A1.361,1.361,0,0,0,8.344,1.36V11.515A58.137,58.137,0,0,0,5.192,28.672V45.655a3.979,3.979,0,0,0,3.973,3.969,4.119,4.119,0,0,0,1.246-.2,2.909,2.909,0,0,0,.052.444A3.988,3.988,0,0,0,15.6,52.946v.835a3.983,3.983,0,0,0,1.156,2.789l.109.109a3.925,3.925,0,0,0,2.166,1.029,3.6,3.6,0,0,0,.547.038,3,3,0,0,0,.5-.038,3.961,3.961,0,0,0,2.09-.93l.028-.028a2.686,2.686,0,0,0,.264-.255,1.555,1.555,0,0,0,.217-.255,1.077,1.077,0,0,0,.184-.245,2.152,2.152,0,0,0,.189-.316c.052-.09.1-.184.146-.274a.983.983,0,0,0,.071-.184,2.426,2.426,0,0,0,.094-.26,1.776,1.776,0,0,0,.08-.311,2.152,2.152,0,0,0,.076-.429,4.322,4.322,0,0,0,.024-.439v-.845a4.029,4.029,0,0,0,1.232.2,3.976,3.976,0,0,0,3.969-3.964V43.032a5.645,5.645,0,0,0,2.893.8,1.337,1.337,0,0,0,.4-.038,1.06,1.06,0,0,0,.255-.052.572.572,0,0,0,.165-.057.8.8,0,0,0,.17-.071c.085-.038.156-.085.231-.127a1.2,1.2,0,0,0,.179-.123,1.739,1.739,0,0,0,.241-.2,2.083,2.083,0,0,0,.3-.382,2.188,2.188,0,0,0,.373-1.246v-7.7c-.033-1.557-.694-10.183-1.727-12.141-1.9-3.223-4.573-8.522-4.573-10.226V1.36A1.357,1.357,0,0,0,26.285,0Z" transform="translate(-5.192 -0.001)" fill="#543f5c"/>
    </clipPath>
    <clipPath id="clip-path-4">
      <path id="Trazado_642347" data-name="Trazado 642347" d="M8.923.579V9.62a1.367,1.367,0,0,1-.09.491A55.5,55.5,0,0,0,5.771,26.523V43.506a1.221,1.221,0,0,0,.363.873,1.24,1.24,0,0,0,.878.363,1.224,1.224,0,0,0,1.151-.807,1.053,1.053,0,0,0,.085-.429V30.142a1.364,1.364,0,1,1,2.727,0V47.021a.866.866,0,0,0,.014.151,1.251,1.251,0,0,0,1.227,1.085,1.212,1.212,0,0,0,1.2-1.005l0-.061a.847.847,0,0,0,.019-.17V31.9a1.366,1.366,0,1,1,2.732,0V51.632a1.276,1.276,0,0,0,.363.868,1.241,1.241,0,0,0,2.119-.868V34.158a1.366,1.366,0,0,1,2.732,0V47.139a.993.993,0,0,1,.028.113,1.089,1.089,0,0,0,.33.628,1.2,1.2,0,0,0,.873.378,1.241,1.241,0,0,0,1.236-1.236V28.448a1.366,1.366,0,0,1,2.732,0v7.6a2.8,2.8,0,0,0,.382,1.43,2.877,2.877,0,0,0,.472.628,2.933,2.933,0,0,0,1.619.812V31.808c0-1.977-.816-9.848-1.378-10.933-.793-1.345-4.917-8.48-4.917-11.552V.579Z" transform="translate(-5.771 -0.579)" fill="#b285c3"/>
    </clipPath>
    <clipPath id="clip-path-5">
      <path id="Trazado_642349" data-name="Trazado 642349" d="M10.97,9.512l.052-.014-.052.014m.17-.071-.118.057.028-.009a.231.231,0,0,0,.09-.047m.411-.25a1.2,1.2,0,0,1-.179.123c-.076.042-.146.09-.231.127a1.26,1.26,0,0,0,.33-.184.33.33,0,0,0,.08-.066" transform="translate(-10.97 -9.191)" fill="none"/>
    </clipPath>
    <linearGradient id="linear-gradient-2" x1="-89.188" y1="90.257" x2="-81.057" y2="90.257" xlink:href="#linear-gradient"/>
    <clipPath id="clip-path-6">
      <path id="Trazado_642350" data-name="Trazado 642350" d="M22.428,8.373c-1.25.713-8.584,5.766-9.768,7.635-1.7,3.025-5,8.159-6.564,9.06l-.085.057L.6,28.8A1.359,1.359,0,0,0,.183,30.6L8.465,44.948a1.363,1.363,0,0,0,.873.646,1.15,1.15,0,0,0,.311.038,1.408,1.408,0,0,0,.764-.231l5.412-3.638a58.114,58.114,0,0,0,16.388-5.842l2.374-1.364c.042-.033.085-.057.127-.085l4.105-3.02-.057-.047-.429-.373A3.924,3.924,0,0,1,36.169,30L36.06,29.9A3.983,3.983,0,0,1,34.9,27.106v-.835a3.98,3.98,0,0,1-5.134-3.077,2.909,2.909,0,0,1-.052-.444,4.119,4.119,0,0,1-1.246.2A3.979,3.979,0,0,1,24.5,18.98V16.333l-1.019.59a1.291,1.291,0,0,1-.68.184,1.359,1.359,0,0,1-.684-2.539l2.213-1.284.17-.1V7.174Z" transform="translate(0 -7.174)" fill="#ccb67b"/>
    </clipPath>
    <clipPath id="clip-path-7">
      <path id="Trazado_642351" data-name="Trazado 642351" d="M23.045,14.873a2.188,2.188,0,0,1-.373,1.246,2.082,2.082,0,0,1-.3.382,1.739,1.739,0,0,1-.241.2.33.33,0,0,1-.08.066,1.26,1.26,0,0,1-.33.184.231.231,0,0,1-.09.047l-.08.024a.572.572,0,0,1-.165.057,1.06,1.06,0,0,1-.255.052,1.337,1.337,0,0,1-.4.038,5.645,5.645,0,0,1-2.893-.8V22.5a3.976,3.976,0,0,1-3.969,3.964,4.028,4.028,0,0,1-1.232-.2v.845a4.322,4.322,0,0,1-.024.439,2.152,2.152,0,0,1-.076.429,1.776,1.776,0,0,1-.08.311,2.427,2.427,0,0,1-.094.26.983.983,0,0,1-.071.184c-.047.09-.094.184-.146.274a2.152,2.152,0,0,1-.189.316,1.077,1.077,0,0,1-.184.245,1.555,1.555,0,0,1-.217.255,2.685,2.685,0,0,1-.264.255l-.028.028a3.961,3.961,0,0,1-2.09.93,3,3,0,0,1-.5.038,3.6,3.6,0,0,1-.547-.038l.429.373.057.047a21.031,21.031,0,0,0,5.106,3.284c2.005.93,6.838,3.1,8.508,3.166,3.454-.019,9.49.255,11.118,1.137l5.37,3.633a1.342,1.342,0,0,0,.764.236,1.49,1.49,0,0,0,.311-.033,1.372,1.372,0,0,0,.868-.651l8.286-14.355a1.375,1.375,0,0,0-.42-1.817l-5.5-3.685A57.743,57.743,0,0,0,29.708,11.023L23.045,7.172Z" transform="translate(-8.124 -7.172)" fill="#ffe49a"/>
    </clipPath>
  </defs>
  <g id="Grupo_1072818" data-name="Grupo 1072818" transform="translate(-265 -5281.582)">
    <g id="Enmascarar_grupo_154435" data-name="Enmascarar grupo 154435" transform="translate(270 5286.583)" clip-path="url(#clip-path)">
      <rect id="Imagen_21" data-name="Imagen 21" width="128.145" height="124.067" transform="translate(-6.537 -2.952)" fill="#7edbb4"/>
    </g>
    <path id="Sustracción_167" data-name="Sustracción 167" d="M112.825,112.826H0V0H112.825V112.825ZM6.468,6.468v99.888h99.887V6.468Z" transform="matrix(-0.995, -0.105, 0.105, -0.995, 377.207, 5405.583)" fill="#fff"/>
    <g id="Grupo_1075120" data-name="Grupo 1075120" transform="translate(288 5307.582)">
      <g id="Grupo_1075107" data-name="Grupo 1075107" transform="translate(34.885 49.171)">
        <g id="Grupo_1075106" data-name="Grupo 1075106" clip-path="url(#clip-path-2)">
          <rect id="Rectángulo_379497" data-name="Rectángulo 379497" width="2.751" height="0.486" transform="translate(0 -0.001)" fill="url(#linear-gradient)"/>
        </g>
      </g>
      <g id="Grupo_1075109" data-name="Grupo 1075109" transform="translate(24.499 0.001)">
        <g id="Grupo_1075108" data-name="Grupo 1075108" clip-path="url(#clip-path-3)">
          <rect id="Rectángulo_379498" data-name="Rectángulo 379498" width="28.756" height="57.744" transform="translate(0 -0.001)" fill="#543f5c"/>
        </g>
      </g>
      <g id="Grupo_1075111" data-name="Grupo 1075111" transform="translate(27.231 2.728)">
        <g id="Grupo_1075110" data-name="Grupo 1075110" clip-path="url(#clip-path-4)">
          <rect id="Rectángulo_379499" data-name="Rectángulo 379499" width="23.292" height="52.284" transform="translate(0 -0.001)" fill="#b285c3"/>
        </g>
      </g>
      <g id="Grupo_1075115" data-name="Grupo 1075115" transform="translate(51.765 43.367)">
        <g id="Grupo_1075114" data-name="Grupo 1075114" clip-path="url(#clip-path-5)">
          <rect id="Rectángulo_379501" data-name="Rectángulo 379501" width="0.58" height="0.321" transform="translate(0 -0.001)" fill="url(#linear-gradient-2)"/>
        </g>
      </g>
      <g id="Grupo_1075117" data-name="Grupo 1075117" transform="translate(0 33.849)">
        <g id="Grupo_1075116" data-name="Grupo 1075116" clip-path="url(#clip-path-6)">
          <rect id="Rectángulo_379502" data-name="Rectángulo 379502" width="52.799" height="52.591" transform="translate(-16.548 9.143) rotate(-29.183)" fill="#ccb67b"/>
        </g>
      </g>
      <g id="Grupo_1075119" data-name="Grupo 1075119" transform="translate(38.335 33.84)">
        <g id="Grupo_1075118" data-name="Grupo 1075118" clip-path="url(#clip-path-7)">
          <rect id="Rectángulo_379503" data-name="Rectángulo 379503" width="52.922" height="54.239" transform="matrix(0.575, -0.818, 0.818, 0.575, -16.819, 23.917)" fill="#ffe49a"/>
        </g>
      </g>
    </g>
  </g>
</svg>
