<svg id="Grupo_1072739" data-name="Grupo 1072739" xmlns="http://www.w3.org/2000/svg" xmlns:xlink="http://www.w3.org/1999/xlink" width="295" height="280.667" viewBox="0 0 295 280.667">
  <defs>
    <clipPath id="clip-path">
      <rect id="Rectángulo_378994" data-name="Rectángulo 378994" width="279.383" height="280.666" fill="none"/>
    </clipPath>
    <clipPath id="clip-path-5">
      <rect id="Rectángulo_378988" data-name="Rectángulo 378988" width="184.639" height="253.937" fill="#fce5e5"/>
    </clipPath>
    <clipPath id="clip-path-6">
      <rect id="Rectángulo_378989" data-name="Rectángulo 378989" width="142.239" height="94.149" fill="none"/>
    </clipPath>
    <clipPath id="clip-path-8">
      <rect id="Rectángulo_378991" data-name="Rectángulo 378991" width="22.284" height="6.982" fill="none"/>
    </clipPath>
  </defs>
  <rect id="Rectángulo_347494" data-name="Rectángulo 347494" width="295" height="273.851" transform="translate(0 6.815)" fill="#fff"/>
  <g id="Grupo_1072760" data-name="Grupo 1072760" transform="translate(13.332 0)">
    <g id="Grupo_1072759" data-name="Grupo 1072759" clip-path="url(#clip-path)">
      <g id="Grupo_1072741" data-name="Grupo 1072741">
        <g id="Grupo_1072740" data-name="Grupo 1072740" clip-path="url(#clip-path)">
          <path id="Trazado_641239" data-name="Trazado 641239" d="M305.757,401.238c10.54-6.01,14.046-18.79,14.8-30.52.126-1.958.537-3.994-.208-5.8s-2.76-3.19-4.557-2.541c-1.491.538-2.276,2.161-3.209,3.475a11.3,11.3,0,0,1-4.924,3.916,4.227,4.227,0,0,1-3.973-.035c-1.564-1.1-1.532-3.441-1.331-5.381q.563-5.423,1.126-10.845a18.5,18.5,0,0,0-.012-5.823,6.037,6.037,0,0,0-3.321-4.447,3.585,3.585,0,0,0-4.68,2,18.271,18.271,0,0,0-.29,2.411,2.046,2.046,0,0,1-1.362,1.8c-.783.151-1.493-.477-2.007-1.1a26.07,26.07,0,0,1-3.87-7.455,36.274,36.274,0,0,0-3.542-7.647,10.371,10.371,0,0,0-6.6-4.7,6.185,6.185,0,0,0-6.751,3.647c-.959,2.666.338,5.6,1.829,7.989a43.332,43.332,0,0,0,8.025,9.494,3.582,3.582,0,0,1,1.324,1.772c.288,1.336-1.042,2.5-2.34,2.8a21.747,21.747,0,0,1-4.5.06c-1.5.028-3.181.532-3.883,1.906-.975,1.905.452,4.149,1.924,5.673a36.687,36.687,0,0,0,10.175,7.432,12.323,12.323,0,0,1,3.818,2.389,3.656,3.656,0,0,1,.729,4.229,3.573,3.573,0,0,1-4.057,1.133,25.375,25.375,0,0,1-4.026-2.05c-2.523-1.272-5.925-1.43-7.83.705a6.256,6.256,0,0,0-1.173,5.366,14.334,14.334,0,0,0,2.423,5.089,37.034,37.034,0,0,0,14.566,12.782c5.871,2.76,11.448,3.911,17.71,2.273" transform="translate(-209.169 -121.327)" fill="#ebebeb"/>
          <path id="Trazado_641240" data-name="Trazado 641240" d="M328.035,394.395a177.209,177.209,0,0,0-4.956-19.41q-.787-2.543-1.556-5.02c-.514-1.647-1.024-3.279-1.621-4.845a88.147,88.147,0,0,0-3.93-8.8c-1.383-2.736-2.794-5.282-4.129-7.652s-2.633-4.552-3.893-6.491a69.074,69.074,0,0,0-6.611-8.691c-.856-.961-1.544-1.683-2.017-2.166l-.542-.547a1.461,1.461,0,0,0-.193-.177,1.352,1.352,0,0,0,.167.2l.516.571c.456.5,1.128,1.237,1.968,2.21a73.188,73.188,0,0,1,6.5,8.738c1.244,1.942,2.52,4.128,3.848,6.5s2.723,4.922,4.1,7.656a88.978,88.978,0,0,1,3.9,8.771c.591,1.558,1.094,3.176,1.609,4.828s1.029,3.323,1.554,5.017a181.7,181.7,0,0,1,4.974,19.364" transform="translate(-233.696 -122.112)" fill="#e0e0e0"/>
          <path id="Trazado_641241" data-name="Trazado 641241" d="M304.01,372.959a4.01,4.01,0,0,0,.267-.809c.152-.526.348-1.295.577-2.248.459-1.905,1-4.558,1.593-7.486s1.17-5.567,1.655-7.459c.24-.947.442-1.712.589-2.238a3.971,3.971,0,0,0,.189-.832,3.855,3.855,0,0,0-.319.789c-.187.515-.426,1.271-.7,2.213-.549,1.882-1.171,4.522-1.761,7.453-.574,2.89-1.094,5.5-1.491,7.5-.185.9-.342,1.66-.467,2.27a3.933,3.933,0,0,0-.134.843" transform="translate(-217.903 -129.975)" fill="#e0e0e0"/>
          <path id="Trazado_641242" data-name="Trazado 641242" d="M311.869,373.97a5.205,5.205,0,0,0,.967.218c.623.12,1.526.29,2.636.536,2.222.474,5.269,1.237,8.594,2.23s6.3,2.033,8.423,2.844c1.067.4,1.922.744,2.514.979a5.2,5.2,0,0,0,.933.336,5.232,5.232,0,0,0-.88-.466c-.577-.275-1.42-.658-2.478-1.089-2.11-.875-5.079-1.951-8.413-2.953a85.625,85.625,0,0,0-8.645-2.132c-1.119-.214-2.032-.347-2.664-.424a5.123,5.123,0,0,0-.987-.079" transform="translate(-249.828 -138.128)" fill="#e0e0e0"/>
          <path id="Trazado_641243" data-name="Trazado 641243" d="M274.058,413.048a1.291,1.291,0,0,0,.2-.288l.508-.86c.438-.749,1.043-1.85,1.773-3.22,1.462-2.739,3.365-6.587,5.408-10.862s3.91-8.138,5.314-10.9l1.672-3.272.451-.893a.176.176,0,1,0-.063-.036l-.507.86c-.438.749-1.042,1.85-1.773,3.22-1.462,2.739-3.365,6.588-5.408,10.865s-3.909,8.136-5.313,10.9c-.687,1.343-1.252,2.449-1.672,3.271-.18.357-.328.651-.45.893a1.315,1.315,0,0,0-.136.324" transform="translate(-179.977 -141.254)" fill="#e0e0e0"/>
          <path id="Trazado_641244" data-name="Trazado 641244" d="M299,408.812a1.31,1.31,0,0,0,.31.168l.915.418,3.377,1.5c2.851,1.271,6.769,3.071,11.1,5.066s8.267,3.762,11.145,4.972c1.439.606,2.608,1.084,3.422,1.4l.94.356a.177.177,0,1,0,.027-.068l-.915-.418-3.376-1.5c-2.851-1.269-6.771-3.071-11.1-5.067s-8.265-3.76-11.143-4.971c-1.439-.605-2.608-1.083-3.423-1.4l-.94-.355a1.29,1.29,0,0,0-.337-.1" transform="translate(-236.463 -151)" fill="#e0e0e0"/>
          <path id="Trazado_641245" data-name="Trazado 641245" d="M35.923,136.727l.013,0,11.442-2.112V134.6l.3-7.128a28.46,28.46,0,0,0,6.355-4.162l6.513,2.673.007-.011,6.623-9.727-.009-.01-4.735-5.256a29.434,29.434,0,0,0,1.6-7.518l6.464-2.8,0-.013L68.42,89.006h-.013l-7-.31a29.08,29.08,0,0,0-4.09-6.467L59.938,75.6l-.011-.008-9.558-6.74-.01.008-5.166,4.82a28.093,28.093,0,0,0-7.387-1.626l-2.749-6.578-.013,0L23.6,67.593v.013l-.3,7.127A28.41,28.41,0,0,0,16.942,78.9l-6.512-2.672-.007.011L3.8,85.962l.009.009,4.736,5.256a29.4,29.4,0,0,0-1.6,7.518l-6.463,2.8,0,.013L2.559,113.2h.013l7,.31a29.073,29.073,0,0,0,4.089,6.467L11.042,126.6l.011.008,9.558,6.74.009-.009,5.166-4.819a28.06,28.06,0,0,0,7.387,1.625Zm11.424-2.142-11.4,2.1L33.2,130.117h-.01a28.063,28.063,0,0,1-7.4-1.627l-.009,0-.007.007-5.163,4.817-9.527-6.718,2.623-6.622-.006-.008a29.029,29.029,0,0,1-4.1-6.476l0-.009h-.01l-7-.31-2.068-11.6,6.458-2.795v-.01a29.383,29.383,0,0,1,1.6-7.529l0-.009-.007-.007L3.84,85.959l6.6-9.7,6.507,2.67.007-.007A28.4,28.4,0,0,1,23.32,74.76l.009,0v-.01l.3-7.124,11.4-2.105,2.747,6.572h.01a28.042,28.042,0,0,1,7.4,1.628l.009,0,.007-.006L50.372,68.9,59.9,75.614l-2.623,6.621.006.008a29.07,29.07,0,0,1,4.1,6.476l0,.009h.01l7,.31,2.069,11.6L64,103.437v.01a29.355,29.355,0,0,1-1.6,7.529l0,.009.006.008,4.734,5.253-6.6,9.695-6.507-2.669-.007.006a28.388,28.388,0,0,1-6.364,4.168l-.009,0v.01ZM35.03,113.5a12.415,12.415,0,0,0,10.281-5.468,12.791,12.791,0,0,0,2.022-9.5,12.638,12.638,0,0,0-5.171-8.171l-.009.014.009-.014A12.225,12.225,0,0,0,32.829,88.3,12.378,12.378,0,0,0,24.8,93.565a12.787,12.787,0,0,0-2.022,9.5,12.638,12.638,0,0,0,5.17,8.171A12.242,12.242,0,0,0,35.03,113.5m.052-25.368a12.215,12.215,0,0,1,7.063,2.258,12.6,12.6,0,0,1,5.157,8.15,12.753,12.753,0,0,1-2.017,9.473,12.345,12.345,0,0,1-8.008,5.248,12.188,12.188,0,0,1-9.309-2.052,12.6,12.6,0,0,1-5.157-8.149,12.759,12.759,0,0,1,2.016-9.473,12.383,12.383,0,0,1,10.255-5.454" transform="translate(208.586 -24.185)" fill="#e0e0e0"/>
          <path id="Trazado_641246" data-name="Trazado 641246" d="M57.058,103.514a9.387,9.387,0,0,0-2.674-1.57,12.209,12.209,0,0,0-8.349-.3A12.514,12.514,0,0,0,41,104.7a13.034,13.034,0,0,0-3.4,5.913,13.225,13.225,0,0,0,.255,7.559,13.033,13.033,0,0,0,4.8,6.48,12.666,12.666,0,0,0,7.649,2.3,11.793,11.793,0,0,0,3.775-.7,11.935,11.935,0,0,0,3.27-1.712,12.952,12.952,0,0,0,5.3-11.185,12.735,12.735,0,0,0-3.207-7.849,9.435,9.435,0,0,0-2.383-2c-.055.071.9.667,2.174,2.182a12.765,12.765,0,0,1,2.912,7.686,12.566,12.566,0,0,1-1.083,5.6A12.4,12.4,0,0,1,56.972,124a12.029,12.029,0,0,1-6.684,2.246,12.035,12.035,0,0,1-7.223-2.184,12.385,12.385,0,0,1-4.544-6.115,12.6,12.6,0,0,1-.28-7.156,12.512,12.512,0,0,1,3.177-5.657,12.222,12.222,0,0,1,12.869-2.923c1.843.684,2.726,1.382,2.771,1.3" transform="translate(193.681 -37.325)" fill="#ebebeb"/>
          <path id="Trazado_641247" data-name="Trazado 641247" d="M45.068,73.6a2.7,2.7,0,0,0,.34-.281l1-.894,3.913-3.566-.142.009,9.509,6.789-.065-.22L56.97,82.055l-.048.119.082.1a28.981,28.981,0,0,1,4.045,6.443l.059.13.143.007,7.014.331-.239-.213c.645,3.664,1.328,7.552,2.046,11.635l.167-.313-6.466,2.783-.165.071-.014.182a29.248,29.248,0,0,1-1.6,7.45l-.064.178.126.141,4.735,5.27-.027-.4-6.627,9.708.4-.121-6.507-2.678-.191-.078-.156.135a28.244,28.244,0,0,1-6.294,4.115l-.19.09-.009.213c-.1,2.236-.2,4.675-.309,7.139l.288-.336-11.431,2.1.39.214L33.383,129.9l-.084-.2-.216-.017a27.787,27.787,0,0,1-7.3-1.606l-.006,0-.206-.073-.157.147-5.173,4.827.444-.031-9.549-6.731.127.43,2.621-6.625.079-.2-.138-.164a28.662,28.662,0,0,1-4.051-6.4l-.09-.193-.209-.009-7.015-.3.32.284Q1.71,107.072.693,101.4l-.195.368L6.957,98.96l.178-.078.015-.2a29.172,29.172,0,0,1,1.572-7.452l.063-.18-.126-.14L3.909,85.66l.025.376c2.32-3.422,4.511-6.654,6.6-9.729l-.327.1,6.515,2.654.145.059.117-.1a28.294,28.294,0,0,1,6.3-4.152l.13-.062,0-.144c.1-2.594.195-4.931.282-7.138l-.174.2,11.42-2.161-.175-.1,2.789,6.557.029.066.069.005a28.991,28.991,0,0,1,5.608.981l1.353.4a2.774,2.774,0,0,0,.45.129,3.629,3.629,0,0,0-.431-.186c-.293-.11-.735-.274-1.339-.46a27.125,27.125,0,0,0-5.622-1.1l.1.071-2.706-6.593-.049-.119-.127.023L23.45,67.3l-.165.03-.009.173c-.1,2.207-.208,4.543-.328,7.136l.134-.206a28.65,28.65,0,0,0-6.435,4.187l.262-.043-6.5-2.687-.2-.083-.125.184-6.635,9.7-.135.2.161.179L8.2,91.34l-.063-.319a29.738,29.738,0,0,0-1.629,7.614l.194-.274L.242,101.149l-.242.1.047.264q1,5.673,2.061,11.632l.048.272.272.012,7.014.316-.3-.2a29.388,29.388,0,0,0,4.144,6.562l-.058-.365L10.6,126.368l-.105.266.232.165,9.546,6.735.234.165.21-.2,5.174-4.826-.363.074.007,0a28.427,28.427,0,0,0,7.488,1.646l-.3-.219,2.749,6.574.111.266.279-.052L47.3,134.853l.275-.051.012-.284c.1-2.463.206-4.9.3-7.138l-.2.3a28.876,28.876,0,0,0,6.441-4.225l-.347.057,6.512,2.664.247.1.151-.222,6.6-9.724.145-.213-.172-.19-4.75-5.256.063.318a29.76,29.76,0,0,0,1.605-7.615l-.178.252,6.456-2.809.206-.09-.04-.224-2.1-11.626-.037-.2-.2-.008-7.015-.29.2.137A29.311,29.311,0,0,0,57.324,82l.035.218c.935-2.39,1.81-4.624,2.6-6.634l.054-.138-.119-.083-9.585-6.677-.076-.053-.066.062-3.8,3.626-.974.947a3.514,3.514,0,0,0-.326.339" transform="translate(208.716 -24.089)" fill="#ebebeb"/>
          <path id="Trazado_641248" data-name="Trazado 641248" d="M104.336,7.155A14.953,14.953,0,0,0,100.952,5l-.206-3.761L94.707.2,93.3,3.686a14.752,14.752,0,0,0-3.892.908L86.65,2.084,81.66,5.7l1.426,3.474a15.321,15.321,0,0,0-2.119,3.445l-3.7.209L76.253,18.97,79.677,20.4a15.486,15.486,0,0,0,.892,3.96L78.1,27.169l3.55,5.078L85.067,30.8a14.987,14.987,0,0,0,3.384,2.156l.206,3.761L94.7,37.748,96.1,34.264A14.778,14.778,0,0,0,100,33.356l2.758,2.511,4.99-3.613-1.426-3.474a15.3,15.3,0,0,0,2.119-3.444l3.7-.21,1.018-6.145-3.424-1.432a15.511,15.511,0,0,0-.892-3.96l2.467-2.806L107.75,5.7Zm-4.442,7.714a6.762,6.762,0,0,1-1.544,9.323,6.5,6.5,0,0,1-9.162-1.572A6.761,6.761,0,0,1,90.732,13.3a6.5,6.5,0,0,1,9.162,1.572" transform="translate(118.976 -0.075)" fill="#e0e0e0"/>
          <path id="Trazado_641249" data-name="Trazado 641249" d="M107.611,21.737a5.045,5.045,0,0,0-1.05-1.266A6.54,6.54,0,0,0,99.439,19.4a6.755,6.755,0,0,0-2.725,2.314,6.942,6.942,0,0,0-1.2,3.795A6.967,6.967,0,0,0,96.751,29.6a6.769,6.769,0,0,0,3.389,2.533,6.623,6.623,0,0,0,3.919.088,6.8,6.8,0,0,0,4.383-9.058,5.064,5.064,0,0,0-.83-1.424c-.04.025.328.494.694,1.478a6.775,6.775,0,0,1,.092,4.342,6.55,6.55,0,0,1-1.523,2.581,6.429,6.429,0,0,1-2.91,1.741,6.314,6.314,0,0,1-3.71-.1,6.429,6.429,0,0,1-3.2-2.4,6.62,6.62,0,0,1-1.177-3.86,6.623,6.623,0,0,1,1.12-3.6,6.492,6.492,0,0,1,2.57-2.226,6.33,6.33,0,0,1,2.895-.617,6.49,6.49,0,0,1,4,1.512c.794.675,1.109,1.182,1.145,1.152" transform="translate(111.259 -6.943)" fill="#e0e0e0"/>
          <path id="Trazado_641250" data-name="Trazado 641250" d="M104.294,7.08A1.457,1.457,0,0,0,104.512,7l.652-.261,2.568-1.056-.072-.021,3.521,5.1.006-.122-2.477,2.8-.045.05.024.064a15.468,15.468,0,0,1,.873,3.931l.007.076.069.029,3.42,1.442-.082-.149c-.325,1.934-.669,3.987-1.032,6.142l.138-.125-3.7.2-.094.005-.039.088a15.226,15.226,0,0,1-2.1,3.4l-.063.076.038.093,1.42,3.476.058-.2-4.994,3.607.219.012-2.756-2.512-.081-.074-.1.039A14.7,14.7,0,0,1,96.045,34l-.11.01-.042.1L94.484,37.6l.2-.114L88.647,36.45l.156.177c-.064-1.188-.134-2.47-.205-3.761l-.006-.116-.1-.048a14.825,14.825,0,0,1-3.339-2.127l0,0-.089-.074-.1.045L81.539,32l.226.065-3.551-5.077-.013.236,2.465-2.808.074-.085-.039-.107a15.309,15.309,0,0,1-.884-3.911l-.011-.112-.1-.043L76.28,18.726l.108.2q.519-3.147,1.012-6.146l-.161.146,3.7-.214.1-.006.042-.095A15.18,15.18,0,0,1,83.169,9.2l.063-.078-.038-.093c-.491-1.19-.967-2.344-1.431-3.471l-.054.191,4.983-3.623-.18-.01,2.764,2.5.061.056.076-.03a14.739,14.739,0,0,1,3.856-.911l.075-.007.028-.071L94.768.17l-.121.069,6.044,1.008-.07-.079c.092,1.5.167,2.733.23,3.76l0,.037.033.015a15.486,15.486,0,0,1,2.608,1.508l.6.446a1.57,1.57,0,0,0,.2.146,1.937,1.937,0,0,0-.181-.171c-.126-.108-.316-.27-.583-.472a14.48,14.48,0,0,0-2.595-1.569l.035.053c-.05-1.027-.11-2.26-.182-3.762l0-.069-.068-.011L94.683.016,94.6,0l-.034.084L93.144,3.563l.1-.077a14.9,14.9,0,0,0-3.928.9l.138.026L86.7,1.9l-.086-.078-.094.068-5,3.6-.1.074.048.118,1.42,3.476.025-.17a15.511,15.511,0,0,0-2.147,3.479l.144-.1-3.7.206-.138.008-.023.139q-.5,3-1.024,6.144l-.024.144.133.055L79.566,20.5l-.112-.154a15.683,15.683,0,0,0,.9,4.008l.035-.191-2.468,2.806-.1.113.086.124,3.549,5.079.087.124.139-.059L85.1,30.9l-.193-.029,0,0a15.171,15.171,0,0,0,3.424,2.181l-.11-.164c.071,1.292.142,2.574.207,3.761l.009.152.147.025,6.039,1.033.146.025.056-.139,1.4-3.486-.152.114a15.021,15.021,0,0,0,3.938-.922l-.182-.035,2.761,2.507.1.1.113-.083,4.986-3.619.11-.079-.052-.125-1.431-3.472-.025.169a15.51,15.51,0,0,0,2.136-3.484l-.133.093,3.7-.217.118-.008.019-.119c.353-2.157.688-4.211,1-6.147l.018-.108-.1-.041-3.428-1.422.076.1a15.618,15.618,0,0,0-.912-3.987l-.021.114,2.455-2.817.051-.059-.045-.062-3.579-5.057-.029-.04-.044.02-2.52,1.106-.649.292a1.919,1.919,0,0,0-.221.109" transform="translate(119.019)" fill="#e0e0e0"/>
          <path id="Trazado_641251" data-name="Trazado 641251" d="M419.033,92.118a14.952,14.952,0,0,0-3.384-2.156l-.206-3.762L409.4,85.165,408,88.649a14.776,14.776,0,0,0-3.892.907l-2.758-2.51-4.991,3.614,1.426,3.474a15.321,15.321,0,0,0-2.119,3.445l-3.7.209-1.018,6.146,3.424,1.432a15.487,15.487,0,0,0,.892,3.96l-2.467,2.807,3.55,5.078,3.414-1.451a14.973,14.973,0,0,0,3.384,2.156l.206,3.761,6.039,1.035,1.407-3.484a14.778,14.778,0,0,0,3.891-.908l2.758,2.511,4.99-3.613-1.426-3.474a15.294,15.294,0,0,0,2.119-3.444l3.7-.21,1.018-6.145-3.424-1.432a15.509,15.509,0,0,0-.892-3.96L426,95.745l-3.55-5.078Zm-4.442,7.714a6.762,6.762,0,0,1-1.544,9.323,6.5,6.5,0,0,1-9.162-1.572,6.761,6.761,0,0,1,1.545-9.323,6.5,6.5,0,0,1,9.162,1.572" transform="translate(-390.749 -31.457)" fill="#e0e0e0"/>
          <path id="Trazado_641252" data-name="Trazado 641252" d="M422.308,106.7a5.044,5.044,0,0,0-1.05-1.266,6.54,6.54,0,0,0-7.122-1.069,6.755,6.755,0,0,0-2.725,2.314,6.941,6.941,0,0,0-1.2,3.795,6.962,6.962,0,0,0,1.239,4.088,6.769,6.769,0,0,0,3.389,2.533,6.637,6.637,0,0,0,3.919.088,6.8,6.8,0,0,0,4.383-9.058,5.063,5.063,0,0,0-.83-1.424c-.04.025.328.494.694,1.478a6.775,6.775,0,0,1,.092,4.342,6.555,6.555,0,0,1-1.523,2.581,6.429,6.429,0,0,1-2.91,1.741,6.314,6.314,0,0,1-3.71-.1,6.433,6.433,0,0,1-3.2-2.4,6.62,6.62,0,0,1-1.177-3.86,6.622,6.622,0,0,1,1.12-3.6,6.483,6.483,0,0,1,2.57-2.226,6.33,6.33,0,0,1,2.895-.617,6.488,6.488,0,0,1,4,1.512c.794.675,1.109,1.182,1.145,1.152" transform="translate(-398.467 -38.325)" fill="#e0e0e0"/>
          <path id="Trazado_641253" data-name="Trazado 641253" d="M418.992,92.044a1.488,1.488,0,0,0,.218-.078l.652-.261,2.568-1.056-.072-.021,3.521,5.1.006-.121-2.478,2.8-.045.05.024.064a15.468,15.468,0,0,1,.873,3.931l.007.076.069.029,3.42,1.442-.082-.149c-.325,1.934-.67,3.987-1.032,6.142l.138-.125-3.7.2-.094.005-.039.088a15.227,15.227,0,0,1-2.1,3.4l-.063.076.038.093,1.42,3.476.058-.2-4.994,3.607.219.012-2.756-2.512-.081-.074-.1.039a14.7,14.7,0,0,1-3.845.894l-.11.01-.042.1c-.441,1.091-.923,2.281-1.409,3.484l.2-.114-6.039-1.038.156.177c-.064-1.187-.134-2.47-.205-3.76l-.006-.116-.1-.048a14.825,14.825,0,0,1-3.339-2.126l0,0-.089-.074-.1.044-3.414,1.452.226.065-3.551-5.077-.013.237,2.465-2.808.074-.085-.04-.106a15.328,15.328,0,0,1-.883-3.911l-.011-.112-.1-.043-3.425-1.429.108.2q.519-3.147,1.012-6.146l-.161.146,3.7-.214.1-.006.042-.095a15.18,15.18,0,0,1,2.09-3.409l.063-.078L397.892,94c-.491-1.19-.967-2.344-1.431-3.471l-.054.191,4.983-3.623-.18-.01,2.764,2.5.061.056.076-.03a14.74,14.74,0,0,1,3.855-.911l.076-.008.028-.07,1.395-3.489-.121.069,6.044,1.008-.07-.079c.092,1.5.167,2.733.23,3.76l0,.037.033.015a15.486,15.486,0,0,1,2.608,1.508l.6.446a1.572,1.572,0,0,0,.2.146,1.928,1.928,0,0,0-.181-.171c-.126-.108-.317-.27-.583-.472a14.481,14.481,0,0,0-2.595-1.569l.035.053c-.05-1.027-.11-2.26-.182-3.762l0-.069-.068-.011-6.034-1.063-.087-.015-.034.084-1.419,3.479.1-.077a14.905,14.905,0,0,0-3.928.9l.138.026L401.4,86.863l-.086-.078-.094.068-5,3.6-.1.074.048.118,1.42,3.476.025-.17a15.51,15.51,0,0,0-2.147,3.479l.144-.1-3.7.206-.138.008-.024.139-1.024,6.144-.024.144.133.055,3.423,1.434-.112-.154a15.685,15.685,0,0,0,.9,4.008l.035-.191-2.468,2.806-.1.113.086.124,3.549,5.079.087.125.139-.059,3.414-1.45-.193-.029,0,0a15.193,15.193,0,0,0,3.424,2.181l-.11-.164c.071,1.292.142,2.574.207,3.761l.009.152.147.025,6.039,1.033.146.025.056-.139,1.4-3.486-.152.114a15.02,15.02,0,0,0,3.938-.922l-.182-.035,2.761,2.507.1.1.113-.083,4.986-3.619.11-.079-.052-.125-1.431-3.472-.025.169a15.509,15.509,0,0,0,2.136-3.484l-.133.093,3.7-.217.118-.008.019-.119c.353-2.157.688-4.211,1-6.147l.018-.108-.1-.041-3.428-1.422.076.1a15.62,15.62,0,0,0-.912-3.987l-.021.114,2.455-2.817.051-.059-.044-.062-3.579-5.057-.029-.04-.044.02-2.52,1.106-.649.292a1.925,1.925,0,0,0-.221.109" transform="translate(-390.709 -31.383)" fill="#e0e0e0"/>
          <path id="Trazado_641254" data-name="Trazado 641254" d="M39.816,17.609a8.957,8.957,0,0,0-2.025-1.29l-.124-2.251-3.615-.621-.842,2.086a8.843,8.843,0,0,0-2.33.543l-1.651-1.5-2.987,2.162.853,2.08a9.145,9.145,0,0,0-1.268,2.062L23.615,21l-.609,3.678,2.049.857a9.269,9.269,0,0,0,.534,2.371l-1.477,1.68,2.125,3.04,2.044-.868a8.953,8.953,0,0,0,2.026,1.29l.124,2.251,3.615.62.842-2.086a8.839,8.839,0,0,0,2.33-.544l1.651,1.5,2.987-2.162L41,30.554a9.156,9.156,0,0,0,1.269-2.062l2.212-.126.609-3.678-2.049-.857a9.288,9.288,0,0,0-.534-2.371l1.476-1.68-2.125-3.04Zm-2.659,4.618a4.047,4.047,0,0,1-.925,5.581,3.89,3.89,0,0,1-5.484-.941,4.047,4.047,0,0,1,.925-5.581,3.889,3.889,0,0,1,5.484.941" transform="translate(220.033 -4.967)" fill="#f5f5f5"/>
          <path id="Trazado_641255" data-name="Trazado 641255" d="M41.778,26.338a3.022,3.022,0,0,0-.628-.757,3.914,3.914,0,0,0-4.263-.64,4.041,4.041,0,0,0-1.631,1.385,4.154,4.154,0,0,0-.72,2.272,4.169,4.169,0,0,0,.742,2.447,4.054,4.054,0,0,0,2.029,1.517,3.973,3.973,0,0,0,2.345.052,4.068,4.068,0,0,0,2.624-5.422,3.025,3.025,0,0,0-.5-.853c-.024.015.2.3.416.885a4.056,4.056,0,0,1,.055,2.6,3.915,3.915,0,0,1-.911,1.544,3.851,3.851,0,0,1-1.742,1.042,3.779,3.779,0,0,1-2.221-.062,3.851,3.851,0,0,1-1.914-1.436,3.962,3.962,0,0,1-.7-2.31,3.952,3.952,0,0,1,.671-2.155,3.879,3.879,0,0,1,1.538-1.333,3.775,3.775,0,0,1,1.733-.37,3.876,3.876,0,0,1,2.4.9c.475.4.664.708.685.689" transform="translate(215.412 -9.078)" fill="#f5f5f5"/>
          <path id="Trazado_641256" data-name="Trazado 641256" d="M39.792,17.565a.9.9,0,0,0,.131-.046l.39-.156,1.538-.633-.043-.013,2.108,3.052,0-.073-1.484,1.674-.027.03.014.038a9.263,9.263,0,0,1,.522,2.353l0,.045.042.018,2.048.863-.049-.09-.618,3.677.083-.075-2.212.121-.056,0-.024.052A9.142,9.142,0,0,1,40.9,30.446l-.038.045.022.056.851,2.08.034-.123-2.99,2.159.131.008-1.65-1.5-.048-.044-.061.023a8.781,8.781,0,0,1-2.3.535l-.066.006-.025.062-.843,2.086.12-.068-3.614-.622.093.106c-.039-.711-.081-1.478-.123-2.251l0-.069-.062-.028a8.863,8.863,0,0,1-2-1.273h0l-.053-.044-.063.026-2.043.869.135.039-2.126-3.039-.007.141,1.476-1.681.045-.051-.024-.064a9.171,9.171,0,0,1-.529-2.341l-.006-.067-.061-.025-2.05-.855.065.119q.31-1.884.605-3.679l-.1.088,2.212-.128.061,0,.025-.057a9.1,9.1,0,0,1,1.251-2.041l.038-.046-.022-.055L26.3,16.655l-.032.114L29.255,14.6l-.108-.006,1.655,1.5.037.033.046-.018a8.837,8.837,0,0,1,2.308-.545l.045,0,.017-.042.835-2.089-.073.042,3.618.6-.042-.048c.055.9.1,1.636.138,2.251V16.3l.02.009a9.3,9.3,0,0,1,1.562.9l.359.267a.907.907,0,0,0,.12.087,1.328,1.328,0,0,0-.108-.1c-.075-.064-.189-.161-.349-.283a8.641,8.641,0,0,0-1.553-.939l.021.031c-.03-.614-.066-1.352-.109-2.252l0-.041-.04-.007-3.612-.636-.052-.009-.021.05-.848,2.083.061-.047a8.918,8.918,0,0,0-2.351.542l.082.016-1.647-1.507-.051-.047-.056.041-2.991,2.156-.061.044.029.071.85,2.08.015-.1a9.288,9.288,0,0,0-1.285,2.083l.086-.061-2.212.123-.083,0-.014.083q-.3,1.794-.613,3.678l-.014.086.079.033,2.049.859-.067-.093a9.361,9.361,0,0,0,.539,2.4l.021-.114-1.477,1.679-.059.067.052.074,2.124,3.04.053.075.082-.036,2.044-.868-.115-.018h0a9.107,9.107,0,0,0,2.049,1.305l-.066-.1c.043.773.085,1.541.124,2.251l0,.091.088.015L34,35.989l.087.015.033-.083c.291-.72.578-1.433.841-2.086l-.09.068a9,9,0,0,0,2.357-.552l-.109-.021,1.653,1.5.063.057.068-.049,2.984-2.166.066-.048-.031-.075-.856-2.078-.015.1a9.276,9.276,0,0,0,1.278-2.086l-.079.055,2.212-.13.071,0,.012-.071c.211-1.292.412-2.521.6-3.68l.011-.064-.059-.025-2.052-.851.045.063a9.336,9.336,0,0,0-.545-2.387l-.013.068L44,19.775l.03-.035-.027-.038-2.142-3.027-.017-.024-.026.011-1.509.662-.389.175a1.058,1.058,0,0,0-.133.065" transform="translate(220.058 -4.923)" fill="#f5f5f5"/>
          <path id="Trazado_641257" data-name="Trazado 641257" d="M423.872,157.109a8.947,8.947,0,0,0-2.026-1.29l-.123-2.251-3.615-.621-.842,2.086a8.869,8.869,0,0,0-2.33.544l-1.651-1.5-2.987,2.162.853,2.08a9.145,9.145,0,0,0-1.268,2.062l-2.212.126-.609,3.678,2.049.857a9.268,9.268,0,0,0,.534,2.371l-1.477,1.68,2.125,3.04,2.044-.868a8.952,8.952,0,0,0,2.026,1.29l.123,2.251,3.616.621.842-2.086a8.833,8.833,0,0,0,2.33-.544l1.651,1.5,2.987-2.162-.853-2.08a9.158,9.158,0,0,0,1.269-2.062l2.212-.126.609-3.678-2.049-.857a9.289,9.289,0,0,0-.534-2.371l1.476-1.68-2.125-3.04Zm-2.659,4.617a4.047,4.047,0,0,1-.925,5.581,3.889,3.889,0,0,1-5.484-.942,4.047,4.047,0,0,1,.925-5.58,3.89,3.89,0,0,1,5.484.941" transform="translate(-402.036 -56.493)" fill="#ebebeb"/>
          <path id="Trazado_641258" data-name="Trazado 641258" d="M425.833,165.838a3.021,3.021,0,0,0-.628-.757,3.914,3.914,0,0,0-4.263-.64,4.041,4.041,0,0,0-1.631,1.385,4.153,4.153,0,0,0-.72,2.272,4.169,4.169,0,0,0,.742,2.447,4.051,4.051,0,0,0,2.029,1.517,3.973,3.973,0,0,0,2.345.052,4.068,4.068,0,0,0,2.624-5.422,3.026,3.026,0,0,0-.5-.853c-.024.015.2.3.416.885a4.056,4.056,0,0,1,.055,2.6,3.915,3.915,0,0,1-.911,1.544,3.851,3.851,0,0,1-1.742,1.042,3.779,3.779,0,0,1-2.22-.062,3.851,3.851,0,0,1-1.914-1.436,3.963,3.963,0,0,1-.7-2.31,3.951,3.951,0,0,1,.671-2.155,3.875,3.875,0,0,1,1.538-1.333,3.784,3.784,0,0,1,1.733-.37,3.88,3.88,0,0,1,2.4.906c.475.4.664.708.685.689" transform="translate(-406.656 -60.605)" fill="#f5f5f5"/>
          <path id="Trazado_641259" data-name="Trazado 641259" d="M423.847,157.065a.866.866,0,0,0,.131-.047l.39-.156,1.537-.633-.043-.013,2.108,3.052,0-.073-1.484,1.674-.027.03.014.038a9.257,9.257,0,0,1,.522,2.353l0,.045.042.018,2.048.863-.049-.089-.618,3.677.082-.075-2.212.121-.056,0-.024.052a9.141,9.141,0,0,1-1.258,2.038l-.038.045.022.056.851,2.081.034-.123-2.99,2.159.131.008-1.65-1.5-.048-.044-.061.023a8.78,8.78,0,0,1-2.3.535l-.066.006-.025.062c-.264.653-.553,1.365-.843,2.086l.12-.068-3.614-.622.093.106c-.039-.711-.081-1.478-.123-2.251l0-.069-.062-.028a8.886,8.886,0,0,1-2-1.273h0l-.053-.044-.063.026-2.043.868.134.04-2.126-3.039-.007.141,1.476-1.681.045-.051-.024-.064a9.178,9.178,0,0,1-.529-2.341l-.006-.067-.061-.025-2.05-.855.065.119q.31-1.884.605-3.679l-.1.088,2.212-.128.061,0,.025-.057a9.1,9.1,0,0,1,1.251-2.041l.038-.046-.022-.056-.857-2.078-.032.114,2.983-2.169-.108-.006,1.655,1.5.037.033.045-.018a8.843,8.843,0,0,1,2.308-.546l.045,0,.017-.042.835-2.089-.073.042,3.618.6-.042-.048c.055.9.1,1.637.138,2.251v.022l.02.009a9.3,9.3,0,0,1,1.562.9l.359.267a.9.9,0,0,0,.12.087,1.107,1.107,0,0,0-.108-.1c-.075-.064-.189-.161-.349-.283a8.671,8.671,0,0,0-1.553-.94l.021.032c-.03-.614-.066-1.353-.109-2.252l0-.041-.04-.007-3.612-.636-.052-.009-.021.05-.848,2.083.061-.047a8.918,8.918,0,0,0-2.351.542l.082.016-1.647-1.507-.051-.047-.057.04-2.991,2.157-.061.044.029.07.85,2.081.015-.1a9.3,9.3,0,0,0-1.285,2.082l.086-.06-2.212.123-.083,0-.014.083q-.3,1.794-.613,3.678l-.014.086.079.033,2.049.859-.067-.093a9.363,9.363,0,0,0,.539,2.4l.021-.114-1.477,1.679-.059.067.051.074,2.124,3.04.053.075.082-.036,2.044-.868-.115-.018h0a9.107,9.107,0,0,0,2.049,1.305l-.066-.1c.043.773.085,1.541.124,2.251l0,.091.088.014,3.616.619.087.015.033-.083c.291-.72.578-1.433.841-2.086l-.09.068a9,9,0,0,0,2.357-.552l-.109-.021,1.653,1.5.063.057.068-.049,2.984-2.166.066-.048-.031-.075-.856-2.078-.015.1a9.3,9.3,0,0,0,1.279-2.085l-.08.055,2.212-.13.071,0,.012-.071c.211-1.291.411-2.521.6-3.68l.01-.064-.059-.025-2.052-.851.045.063a9.334,9.334,0,0,0-.545-2.387l-.013.068,1.47-1.686.03-.035-.027-.038-2.142-3.027-.017-.024-.026.011-1.509.662-.389.175a1.06,1.06,0,0,0-.133.065" transform="translate(-402.011 -56.449)" fill="#f5f5f5"/>
        </g>
      </g>
      <g id="Grupo_1072743" data-name="Grupo 1072743">
        <g id="Grupo_1072742" data-name="Grupo 1072742" clip-path="url(#clip-path)">
          <path id="Trazado_641260" data-name="Trazado 641260" d="M73.231,389a6.2,6.2,0,0,0-3.377,3.49,11.216,11.216,0,0,0-.689,4.943c.187,3.243,1.811,6.6,3.611,9.279,2.794-2.22,3.629-6.318,3.925-8.424.467-3.329-.676-9.632-3.47-9.287" transform="translate(159.734 -143.679)" fill="#ccb67b"/>
          <path id="Trazado_641261" data-name="Trazado 641261" d="M89.958,421.114a5.4,5.4,0,0,0-1.42-5.159A6.9,6.9,0,0,0,83.5,414.04a2.906,2.906,0,0,0-2.306.9,2.315,2.315,0,0,0-.159,2.307,4.6,4.6,0,0,0,1.59,1.777c2.232,1.6,4.681,2.74,7.337,2.086" transform="translate(139.168 -152.931)" fill="#ccb67b"/>
          <path id="Trazado_641262" data-name="Trazado 641262" d="M84.257,433.094a3.842,3.842,0,0,0-.059-.667c-.059-.47-.135-1.078-.227-1.808a18.985,18.985,0,0,0-1.508-5.818,11.415,11.415,0,0,0-3.8-4.584,7.611,7.611,0,0,0-1.605-.832,4.554,4.554,0,0,0-.466-.148c-.109-.03-.165-.042-.169-.033a10.508,10.508,0,0,1,5.83,5.7,20.449,20.449,0,0,1,1.554,5.74c.122.759.221,1.374.3,1.8a3.7,3.7,0,0,0,.149.653" transform="translate(147.759 -154.838)" fill="#263238"/>
          <path id="Trazado_641263" data-name="Trazado 641263" d="M75.6,396.748a1.369,1.369,0,0,0-.048.287c-.024.214-.055.489-.093.828-.077.72-.175,1.762-.284,3.051-.221,2.578-.477,6.144-.672,10.088s-.29,7.519-.325,10.107c-.017,1.293-.023,2.34-.017,3.064,0,.342.008.618.011.833a1.348,1.348,0,0,0,.02.291,1.445,1.445,0,0,0,.027-.29c.009-.215.019-.491.033-.832.022-.752.053-1.791.09-3.062.076-2.586.2-6.156.392-10.1s.425-7.506.6-10.086c.087-1.268.159-2.3.211-3.056.02-.341.037-.617.05-.832a1.339,1.339,0,0,0,0-.291" transform="translate(157.819 -146.545)" fill="#263238"/>
          <path id="Trazado_641264" data-name="Trazado 641264" d="M57.014,423.437a12.432,12.432,0,0,1,7.178-8.76c.915-.385,2.093-.6,2.79.111s.469,1.92.059,2.839a10.459,10.459,0,0,1-9.978,6.079" transform="translate(176.62 -153.035)" fill="#ccb67b"/>
          <path id="Trazado_641265" data-name="Trazado 641265" d="M71.424,419.695a3.087,3.087,0,0,0-.579.22,5.831,5.831,0,0,0-.658.311c-.248.139-.545.272-.842.474a10.871,10.871,0,0,0-.97.662,12.039,12.039,0,0,0-1.041.861,13.812,13.812,0,0,0-2.015,2.358,13.674,13.674,0,0,0-1.394,2.786,12,12,0,0,0-.385,1.309,10.219,10.219,0,0,0-.222,1.167,9.464,9.464,0,0,0-.1.974,5.866,5.866,0,0,0-.018.738,3.224,3.224,0,0,0,.035.628c.052,0,.009-.9.241-2.315a10.929,10.929,0,0,1,.247-1.145,12.635,12.635,0,0,1,.4-1.281,13.222,13.222,0,0,1,3.354-5.06,12.888,12.888,0,0,1,1.011-.865c.321-.267.648-.477.941-.677,1.191-.772,2.014-1.1,1.992-1.146" transform="translate(168.793 -155.02)" fill="#263238"/>
        </g>
      </g>
      <g id="Grupo_1072751" data-name="Grupo 1072751">
        <g id="Grupo_1072750" data-name="Grupo 1072750" clip-path="url(#clip-path)">
          <path id="Trazado_641266" data-name="Trazado 641266" d="M191.389,131.733s10.126-90.384-81.007-92.415-81.489,91.4-77.632,104.094,22.2,49.447,24.124,66.2-.59,67.139-1.833,83.607h93.79l-.356-49.779s34.235,5.586,40.5-10.156,5.786-46.207,5.786-46.207,18.805,0,20.252-3.047-23.627-52.3-23.627-52.3" transform="translate(45.444 -14.511)" fill="#e8505b"/>
          <path id="Trazado_641267" data-name="Trazado 641267" d="M191.389,131.733s10.126-90.384-81.007-92.415-81.489,91.4-77.632,104.094,22.2,49.447,24.124,66.2-.59,67.139-1.833,83.607h93.79l-.356-49.779s34.235,5.586,40.5-10.156,5.786-46.207,5.786-46.207,18.805,0,20.252-3.047-23.627-52.3-23.627-52.3" transform="translate(45.444 -14.511)" fill="#e8505b"/>
          <g id="Grupo_1072746" data-name="Grupo 1072746" transform="translate(75.882 24.775)" opacity="0.7">
            <g id="Grupo_1072745" data-name="Grupo 1072745">
              <g id="Grupo_1072744" data-name="Grupo 1072744" clip-path="url(#clip-path-5)">
                <path id="Trazado_641268" data-name="Trazado 641268" d="M191.389,131.733s10.126-90.384-81.007-92.415-81.489,91.4-77.632,104.094,22.2,49.447,24.124,66.2-.59,67.139-1.833,83.607h93.79l-.356-49.779s34.235,5.586,40.5-10.156,5.786-46.207,5.786-46.207,18.805,0,20.252-3.047-23.627-52.3-23.627-52.3" transform="translate(-30.438 -39.285)" fill="#fce5e5"/>
              </g>
            </g>
          </g>
          <path id="Trazado_641269" data-name="Trazado 641269" d="M185.7,89.669c5.216-1.327,12.108-4.107,17.715,1,2.866,2.611,4.474,8.384,4.665,12.348a18.746,18.746,0,0,1,14.1,8.165,14.088,14.088,0,0,1,2.649,8.223,8.712,8.712,0,0,1-4.037,7.308,13.8,13.8,0,0,1,.721,13.958,12.642,12.642,0,0,1-11.82,6.585,15.578,15.578,0,0,1-4.954,13.824,14.116,14.116,0,0,1-13.924,2.617c-4.517,6.8-14.861,8.29-20.973,3.014a5.742,5.742,0,0,0-2.5-1.607,4.732,4.732,0,0,0-2.507.491c-4.077,1.594-8.431,2.979-12.729,2.254s-8.468-4.167-8.767-8.7a31.959,31.959,0,0,1-15.3,4.01c-6.109.025-13.228-2.818-14.528-9.046A11.774,11.774,0,0,1,100.67,155.3a12.831,12.831,0,0,1-6.344-11.713c-5.181,1.025-9.59-4.361-10.976-9.668-1.345-5.155-.969-10.945,1.766-15.462s8.03-7.448,13.07-6.5a13.9,13.9,0,0,1-.919-13.7,12.79,12.79,0,0,1,11.3-7.047,12,12,0,0,1,7.826-7.978,11.384,11.384,0,0,1,10.693,2.424,20.039,20.039,0,0,1,14.8-9.8,19.636,19.636,0,0,1,16.453,6.322c4.142-3.712,11.625-5.738,16.822-3.988A15.879,15.879,0,0,1,185.7,89.669" transform="translate(3.361 -27.977)" fill="#e8505b"/>
          <g id="Grupo_1072749" data-name="Grupo 1072749" transform="translate(85.957 47.766)" opacity="0.3">
            <g id="Grupo_1072748" data-name="Grupo 1072748">
              <g id="Grupo_1072747" data-name="Grupo 1072747" clip-path="url(#clip-path-6)">
                <path id="Trazado_641270" data-name="Trazado 641270" d="M185.7,89.669c5.216-1.327,12.108-4.107,17.715,1,2.866,2.611,4.474,8.384,4.665,12.348a18.746,18.746,0,0,1,14.1,8.165,14.088,14.088,0,0,1,2.649,8.223,8.712,8.712,0,0,1-4.037,7.308,13.8,13.8,0,0,1,.721,13.958,12.642,12.642,0,0,1-11.82,6.585,15.578,15.578,0,0,1-4.954,13.824,14.116,14.116,0,0,1-13.924,2.617c-4.517,6.8-14.861,8.29-20.973,3.014a5.742,5.742,0,0,0-2.5-1.607,4.732,4.732,0,0,0-2.507.491c-4.077,1.594-8.431,2.979-12.729,2.254s-8.468-4.167-8.767-8.7a31.959,31.959,0,0,1-15.3,4.01c-6.109.025-13.228-2.818-14.528-9.046A11.774,11.774,0,0,1,100.67,155.3a12.831,12.831,0,0,1-6.344-11.713c-5.181,1.025-9.59-4.361-10.976-9.668-1.345-5.155-.969-10.945,1.766-15.462s8.03-7.448,13.07-6.5a13.9,13.9,0,0,1-.919-13.7,12.79,12.79,0,0,1,11.3-7.047,12,12,0,0,1,7.826-7.978,11.384,11.384,0,0,1,10.693,2.424,20.039,20.039,0,0,1,14.8-9.8,19.636,19.636,0,0,1,16.453,6.322c4.142-3.712,11.625-5.738,16.822-3.988A15.879,15.879,0,0,1,185.7,89.669" transform="translate(-82.596 -75.743)" fill="#fff"/>
              </g>
            </g>
          </g>
          <path id="Trazado_641271" data-name="Trazado 641271" d="M106.887,116.1a6.166,6.166,0,0,1,1.587.106,6.455,6.455,0,0,1,3.612,2.425,12.634,12.634,0,0,1,2.17,6.4,17.412,17.412,0,0,1,.037,4.139,6.975,6.975,0,0,1-1.747,4.02l-.22.227.309.052a12.175,12.175,0,0,1,9.21,7.938,13.111,13.111,0,0,1-1.213,10.967l-.108.174.2.048a5.849,5.849,0,0,1,2.632,1.517,8.539,8.539,0,0,1,1.634,2.275,13.193,13.193,0,0,1,1.191,4.442c.139,1.281.158,2.3.184,2.988.012.325.021.586.029.789a1.263,1.263,0,0,0,.024.271,1.216,1.216,0,0,0,.022-.271c0-.2.009-.464.015-.79,0-.692.009-1.71-.105-3a13.113,13.113,0,0,0-1.148-4.532,8.749,8.749,0,0,0-1.66-2.361,6.109,6.109,0,0,0-2.748-1.609l.087.222A13.364,13.364,0,0,0,122.16,141.3a12.455,12.455,0,0,0-9.474-8.151l.089.278a7.269,7.269,0,0,0,1.818-4.211,17.571,17.571,0,0,0-.063-4.212,12.718,12.718,0,0,0-2.286-6.5,6.451,6.451,0,0,0-3.75-2.405,3.622,3.622,0,0,0-1.609,0" transform="translate(86.693 -42.853)" fill="#e8505b"/>
          <path id="Trazado_641272" data-name="Trazado 641272" d="M133.574,171.626a5.446,5.446,0,0,0,.928.435,25.79,25.79,0,0,0,2.628.949,12.449,12.449,0,0,0,4.109.585,7.66,7.66,0,0,0,2.422-.511,8.545,8.545,0,0,0,2.285-1.369,9.634,9.634,0,0,0,3.209-4,7.76,7.76,0,0,0,.32-4.206,7.115,7.115,0,0,0-1.076-2.627,4.622,4.622,0,0,0-.478-.6c-.118-.129-.185-.192-.193-.185-.029.025.224.294.561.861a7.554,7.554,0,0,1,.952,2.6,7.674,7.674,0,0,1-.375,4.046,9.512,9.512,0,0,1-3.128,3.843,7.643,7.643,0,0,1-4.516,1.835,12.729,12.729,0,0,1-4.029-.5c-1.129-.3-2.024-.626-2.645-.839a6.264,6.264,0,0,0-.974-.31" transform="translate(46.975 -59.132)" fill="#e8505b"/>
          <path id="Trazado_641273" data-name="Trazado 641273" d="M134.23,159.92a.956.956,0,0,0,.018.18c.02.132.047.306.081.526.076.462.186,1.147.36,2.031a28.746,28.746,0,0,0,.789,3.209,14.538,14.538,0,0,0,1.9,4,13.8,13.8,0,0,0,3.9,3.748,17.346,17.346,0,0,0,5.747,2.523,13.573,13.573,0,0,0,3.434.342,15.589,15.589,0,0,0,3.586-.595,24.253,24.253,0,0,0,6.975-3.373l-.247-.109a26.308,26.308,0,0,0,2.253,8.063,11.214,11.214,0,0,0,1.226,1.831,9.235,9.235,0,0,0,1.639,1.512,11.073,11.073,0,0,0,4.145,1.7,15.614,15.614,0,0,0,14.011-4.251l-.275-.095A7.852,7.852,0,0,0,185.486,185a9.38,9.38,0,0,0,3.159,2.49,11.041,11.041,0,0,0,7.322.586,17.842,17.842,0,0,0,6.013-2.738,11.438,11.438,0,0,0,3.776-4.264,7.687,7.687,0,0,0,.726-2.389,7.443,7.443,0,0,0-.073-2.215,6.832,6.832,0,0,0-1.464-3.153,4.5,4.5,0,0,0-1.74-1.277,3.5,3.5,0,0,0-.713-.214c-.006.018.246.073.69.267a4.577,4.577,0,0,1,1.679,1.3,6.772,6.772,0,0,1,1.39,3.11,7.129,7.129,0,0,1-.679,4.482,11.258,11.258,0,0,1-3.732,4.153A17.662,17.662,0,0,1,195.9,187.8a10.779,10.779,0,0,1-7.129-.591,9.081,9.081,0,0,1-3.047-2.414,7.533,7.533,0,0,1-1.643-3.687l-.048-.322-.227.228a15.309,15.309,0,0,1-13.716,4.149,10.765,10.765,0,0,1-4.021-1.642,8.917,8.917,0,0,1-1.577-1.452,10.916,10.916,0,0,1-1.187-1.77,26.116,26.116,0,0,1-2.23-7.954l-.042-.249-.2.14a24.065,24.065,0,0,1-6.878,3.35,15.371,15.371,0,0,1-3.516.6,13.3,13.3,0,0,1-3.365-.321,17.165,17.165,0,0,1-5.676-2.456,13.655,13.655,0,0,1-3.862-3.661,14.553,14.553,0,0,1-1.912-3.931,30.239,30.239,0,0,1-.831-3.182c-.191-.878-.318-1.56-.411-2.018-.045-.218-.08-.39-.107-.521a.912.912,0,0,0-.045-.175" transform="translate(-10.334 -59.069)" fill="#e8505b"/>
          <path id="Trazado_641274" data-name="Trazado 641274" d="M259,128.347a1.935,1.935,0,0,0-.423.035c-.138.019-.309.037-.51.071l-.684.169a10.5,10.5,0,0,0-3.928,2.153,15.674,15.674,0,0,0-4.015,5.353,20.652,20.652,0,0,0-1.32,3.767,9.111,9.111,0,0,0-.279,2.118,20,20,0,0,0,.188,2.179,11.711,11.711,0,0,0,1.331,4.085A10.105,10.105,0,0,0,252,151.254a16.855,16.855,0,0,0,5.948,2.967,15.987,15.987,0,0,0,4.447.448c.527-.017.936-.047,1.212-.076a1.9,1.9,0,0,0,.42-.061,1.985,1.985,0,0,0-.423-.008c-.277.007-.685.015-1.21.011a15.788,15.788,0,0,1-10.2-3.533,9.855,9.855,0,0,1-2.545-2.893,11.481,11.481,0,0,1-1.283-3.968c-.619-2.885.376-5.6,1.358-7.876a15.723,15.723,0,0,1,3.888-5.3,10.833,10.833,0,0,1,3.813-2.21l.667-.2.5-.1a1.974,1.974,0,0,0,.411-.1" transform="translate(-138.236 -47.405)" fill="#e8505b"/>
          <path id="Trazado_641275" data-name="Trazado 641275" d="M272.754,144.094a3.173,3.173,0,0,0-.376.763,7.569,7.569,0,0,0-.465,2.283,8.651,8.651,0,0,0,.517,3.421,7.888,7.888,0,0,0,2.405,3.457,8.671,8.671,0,0,0,1.86,1.141,7.6,7.6,0,0,0,1.93.619,6.188,6.188,0,0,0,3.391-.279,5.608,5.608,0,0,0,1.926-1.268,4.355,4.355,0,0,0,.414-.473c.089-.113.131-.176.122-.184a6.06,6.06,0,0,0-.625.558,5.994,5.994,0,0,1-1.919,1.138,6.114,6.114,0,0,1-3.251.2,7.513,7.513,0,0,1-1.85-.614,8.61,8.61,0,0,1-1.788-1.1,7.739,7.739,0,0,1-2.324-3.3,8.746,8.746,0,0,1-.57-3.3,10.588,10.588,0,0,1,.6-3.055" transform="translate(-173.604 -53.223)" fill="#e8505b"/>
          <path id="Trazado_641276" data-name="Trazado 641276" d="M151.206,100.665a8.635,8.635,0,0,1,1.192-.2,5.884,5.884,0,0,1,1.465.1,7.041,7.041,0,0,1,1.89.7,9.116,9.116,0,0,1,3.787,4.049,27.149,27.149,0,0,1,2.139,7.305l.051.269.144-.233a15.316,15.316,0,0,1,5.447-5.2,14.149,14.149,0,0,1,8.329-1.85,14.947,14.947,0,0,1,8.676,3.856,12.624,12.624,0,0,1,3.082,4.122,7.463,7.463,0,0,1,.533,5.212l-.3.977.58-.834a13.287,13.287,0,0,1,9.755-5.528,14.21,14.21,0,0,1,1.495-.047,13.3,13.3,0,0,1,1.5.152,11.484,11.484,0,0,1,2.913.849,12.9,12.9,0,0,1,2.638,1.6,14.694,14.694,0,0,1,2.2,2.233,15.146,15.146,0,0,1,2.591,5.091,14.193,14.193,0,0,1,.411,5.572l-.036.272.254-.086a13.816,13.816,0,0,1,6.378-.744,8.98,8.98,0,0,1,5.445,2.821,7.759,7.759,0,0,1,1.917,5.606,8.543,8.543,0,0,1-2.153,5.3,9.243,9.243,0,0,1-4.635,2.843,15.282,15.282,0,0,1-5.19.3,13.258,13.258,0,0,1-4.7-1.283,7.608,7.608,0,0,1-3.283-3.052l-.08-.146-.11.124a8.253,8.253,0,0,1-4.062,2.482,7.808,7.808,0,0,1-4.231-.055,6.764,6.764,0,0,1-3.112-1.986,8.183,8.183,0,0,1-1.573-2.733,7.885,7.885,0,0,1-.265-4.343,10.993,10.993,0,0,1,.495-1.452s-.064.115-.174.35a5.943,5.943,0,0,0-.385,1.086,7.851,7.851,0,0,0,.208,4.4,8.29,8.29,0,0,0,1.577,2.8,6.918,6.918,0,0,0,3.175,2.059,7.984,7.984,0,0,0,4.336.083,8.461,8.461,0,0,0,4.186-2.531l-.19-.021a7.841,7.841,0,0,0,3.374,3.166,13.468,13.468,0,0,0,4.788,1.327,15.512,15.512,0,0,0,5.287-.3,9.528,9.528,0,0,0,4.786-2.92A8.855,8.855,0,0,0,226,136.744,8.089,8.089,0,0,0,224,130.9a9.3,9.3,0,0,0-5.636-2.932,14.126,14.126,0,0,0-6.53.753l.218.185a14.519,14.519,0,0,0-.418-5.715,15.492,15.492,0,0,0-2.651-5.212,15.083,15.083,0,0,0-2.258-2.288,13.2,13.2,0,0,0-2.711-1.644,11.815,11.815,0,0,0-3-.872,13.587,13.587,0,0,0-1.538-.155,14.429,14.429,0,0,0-1.533.049,13.6,13.6,0,0,0-9.99,5.678l.284.143a7.781,7.781,0,0,0-.555-5.442,12.93,12.93,0,0,0-3.164-4.219,15.22,15.22,0,0,0-8.854-3.909,14.387,14.387,0,0,0-8.474,1.911,15.514,15.514,0,0,0-5.506,5.3l.195.037a27.128,27.128,0,0,0-2.2-7.342,9.2,9.2,0,0,0-3.882-4.074,7.051,7.051,0,0,0-1.926-.685,5.791,5.791,0,0,0-1.486-.071,4.416,4.416,0,0,0-.894.168c-.2.059-.294.1-.294.1" transform="translate(-40.332 -37.078)" fill="#e8505b"/>
          <path id="Trazado_641277" data-name="Trazado 641277" d="M221.787,143.543a5.781,5.781,0,0,0,.1,1.042,19,19,0,0,0,.587,2.8,7.926,7.926,0,0,0,2.133,3.649,8.723,8.723,0,0,0,4.743,1.915,9.44,9.44,0,0,0,5.058-.715,7.731,7.731,0,0,0,3.205-2.716,6.991,6.991,0,0,0,1.1-2.639,4.956,4.956,0,0,0,.084-.775.811.811,0,0,0-.011-.272c-.033,0-.049.371-.2,1.019a7.373,7.373,0,0,1-1.164,2.526,7.646,7.646,0,0,1-3.136,2.567,9.3,9.3,0,0,1-4.893.663,8.559,8.559,0,0,1-4.577-1.812,7.858,7.858,0,0,1-2.111-3.485,23.885,23.885,0,0,1-.685-2.744,6.716,6.716,0,0,0-.23-1.019" transform="translate(-96.858 -53.02)" fill="#e8505b"/>
          <path id="Trazado_641278" data-name="Trazado 641278" d="M199.484,90.5a5.505,5.505,0,0,0,.737.337c.483.208,1.185.516,2.049.947a12.593,12.593,0,0,1,2.9,1.819,3.942,3.942,0,0,1,1.109,1.7,2.761,2.761,0,0,1-.126,2.149l.266.173a8.772,8.772,0,0,1,4.831-3.054,19.932,19.932,0,0,1,6.413-.808,9.892,9.892,0,0,1,4.918,1.753,10.866,10.866,0,0,1,2.574,2.5c.5.692.724,1.117.754,1.1a1.38,1.38,0,0,0-.141-.319,7.784,7.784,0,0,0-.506-.86,10.276,10.276,0,0,0-2.544-2.618,9.964,9.964,0,0,0-5.03-1.87,14.874,14.874,0,0,0-3.184.113,23.436,23.436,0,0,0-3.347.681,9,9,0,0,0-4.993,3.2l.266.173a3.064,3.064,0,0,0,.13-2.4,4.2,4.2,0,0,0-1.209-1.8,12.191,12.191,0,0,0-3-1.8c-.882-.409-1.6-.689-2.095-.867a4.081,4.081,0,0,0-.775-.239" transform="translate(-70.154 -33.428)" fill="#e8505b"/>
          <path id="Trazado_641279" data-name="Trazado 641279" d="M172.71,113.73a5.3,5.3,0,0,0,.822-1.322,8.2,8.2,0,0,0-.225-7.134,6.867,6.867,0,0,0-2.354-2.557,7.512,7.512,0,0,0-3.663-1.174,7.054,7.054,0,0,0-4.049.992l.224.242a8.4,8.4,0,0,0,1.324-3.692,13.069,13.069,0,0,0-2.374-9.046,11.155,11.155,0,0,0-6.2-4.358,10.535,10.535,0,0,0-5.11-.129,8.694,8.694,0,0,0-1.337.413,2.608,2.608,0,0,0-.443.2c.013.037.627-.248,1.807-.487a10.749,10.749,0,0,1,5.021.233,11.009,11.009,0,0,1,6.006,4.31,12.836,12.836,0,0,1,2.291,8.816,8.1,8.1,0,0,1-1.264,3.543l-.432.637.655-.4a6.766,6.766,0,0,1,3.86-.958,7.253,7.253,0,0,1,3.523,1.1,6.629,6.629,0,0,1,2.282,2.432,7.973,7.973,0,0,1,.893,2.79,8.191,8.191,0,0,1-.548,4.166c-.392.919-.746,1.35-.713,1.371" transform="translate(12.598 -31.506)" fill="#e8505b"/>
          <path id="Trazado_641280" data-name="Trazado 641280" d="M90.8,143.4c0-.011-.067-.008-.191.012a2.014,2.014,0,0,0-.526.163,3.261,3.261,0,0,0-1.472,1.394,4.009,4.009,0,0,0-.405,3,5.383,5.383,0,0,0,2.149,3,7.6,7.6,0,0,0,3.449,1.225,11.408,11.408,0,0,0,2.977.011,4.6,4.6,0,0,0,1.894-.686,1.759,1.759,0,0,0,.55-.5,5.116,5.116,0,0,1-2.476.944,12.09,12.09,0,0,1-2.9-.085,7.525,7.525,0,0,1-3.3-1.193,5.159,5.159,0,0,1-2.04-2.8,3.827,3.827,0,0,1,.313-2.8,3.32,3.32,0,0,1,1.323-1.392c.405-.219.667-.262.659-.3" transform="translate(125.578 -52.963)" fill="#e8505b"/>
          <path id="Trazado_641281" data-name="Trazado 641281" d="M134.568,210.573a2.038,2.038,0,0,0,.5-.348,7.457,7.457,0,0,0,1.109-1.236,10.892,10.892,0,0,0,1.927-5.122,10.558,10.558,0,0,0-.088-3.046,9.921,9.921,0,0,0-.747-2.367,4.5,4.5,0,0,0-1.248-1.886,4.426,4.426,0,0,0,.319.512,9.831,9.831,0,0,1,.71,1.469,10.742,10.742,0,0,1,.66,2.325,10.924,10.924,0,0,1,.059,2.952,11.533,11.533,0,0,1-1.787,5.022,15.428,15.428,0,0,1-1.412,1.724" transform="translate(57.816 -72.605)" fill="#e8505b"/>
          <path id="Trazado_641282" data-name="Trazado 641282" d="M172.934,206.007a3.315,3.315,0,0,0-.41,1.288,7.708,7.708,0,0,0,.174,3.267,7.5,7.5,0,0,0,1.507,2.891,3.172,3.172,0,0,0,1.01.882c.038-.045-.341-.385-.824-1.035a8.577,8.577,0,0,1-1.368-2.829,8.83,8.83,0,0,1-.262-3.143c.082-.811.228-1.3.173-1.321" transform="translate(-2.692 -76.092)" fill="#e8505b"/>
          <path id="Trazado_641283" data-name="Trazado 641283" d="M209.465,193.839a2.249,2.249,0,0,0-.263.608,11.539,11.539,0,0,0-.451,1.751,13.674,13.674,0,0,0,.26,5.942,13.293,13.293,0,0,0,2.79,5.229,10.87,10.87,0,0,0,1.282,1.254,2.179,2.179,0,0,0,.537.377c.04-.048-.7-.627-1.638-1.789a14.209,14.209,0,0,1-2.646-5.162,14.626,14.626,0,0,1-.35-5.813c.211-1.491.536-2.378.478-2.4" transform="translate(-63.478 -71.597)" fill="#e8505b"/>
          <path id="Trazado_641284" data-name="Trazado 641284" d="M262.012,179.492c-.02-.011-.124.147-.295.444a11.912,11.912,0,0,0-.635,1.306,17.733,17.733,0,0,0-1.178,9.445,12.253,12.253,0,0,0,.293,1.426,1.618,1.618,0,0,0,.176.505c.055-.013-.105-.754-.232-1.963a20.578,20.578,0,0,1,1.162-9.323c.421-1.138.759-1.814.709-1.841" transform="translate(-143.587 -66.298)" fill="#e8505b"/>
        </g>
      </g>
      <g id="Grupo_1072756" data-name="Grupo 1072756">
        <g id="Grupo_1072755" data-name="Grupo 1072755" clip-path="url(#clip-path)">
          <path id="Trazado_641285" data-name="Trazado 641285" d="M386.42,339.924l-3.025,11.558s10.529,7.011,10.174,9.2l-22.233-5.164,3.987-18.205Z" transform="translate(-344.324 -124.592)" fill="#b285c3"/>
          <path id="Trazado_641286" data-name="Trazado 641286" d="M397.874,355.687a.94.94,0,0,0-.865.909.9.9,0,0,0,.878.879.992.992,0,0,0,.91-.967c-.052-.462-.571-.935-1.013-.812" transform="translate(-365.459 -131.374)" fill="#e0e0e0"/>
          <g id="Grupo_1072754" data-name="Grupo 1072754" transform="translate(27.012 229.109)" opacity="0.6">
            <g id="Grupo_1072753" data-name="Grupo 1072753">
              <g id="Grupo_1072752" data-name="Grupo 1072752" clip-path="url(#clip-path-8)">
                <path id="Trazado_641287" data-name="Trazado 641287" d="M371.266,365.118l.472-1.819,21.14,5.631s.892.668.621,1.351Z" transform="translate(-371.266 -363.299)" fill="#fff"/>
              </g>
            </g>
          </g>
          <path id="Trazado_641288" data-name="Trazado 641288" d="M389.446,359.6c-.029.11-.583.033-1.2.265-.62.215-1,.629-1.093.563-.1-.045.214-.668.962-.934s1.373.011,1.326.107" transform="translate(-349.989 -132.741)" fill="#263238"/>
          <path id="Trazado_641289" data-name="Trazado 641289" d="M385.56,362.093c0,.113-.511.192-.985.573s-.69.851-.8.821c-.106-.006-.037-.671.561-1.134s1.243-.366,1.221-.26" transform="translate(-343.992 -133.711)" fill="#263238"/>
          <path id="Trazado_641290" data-name="Trazado 641290" d="M380.615,366.128c-.1,0-.131-.586.283-1.127s.976-.663,1-.56c.041.1-.361.353-.695.8s-.48.9-.59.885" transform="translate(-338.359 -134.599)" fill="#263238"/>
          <path id="Trazado_641291" data-name="Trazado 641291" d="M388.821,355.02c-.068.09-.532-.178-1.155-.278s-1.145-.015-1.181-.122.513-.395,1.246-.267,1.164.593,1.091.667" transform="translate(-348.962 -130.874)" fill="#263238"/>
          <path id="Trazado_641292" data-name="Trazado 641292" d="M327.87,123.989l11.059,39.557-8.686,1.724-5.736-19.94Z" transform="translate(-260.654 -45.797)" fill="#f5f5f5"/>
          <path id="Trazado_641293" data-name="Trazado 641293" d="M327.675,123.989c-.194,1.182-1.426,8.679-3.5,21.319l-.006.032.009.032c1.657,5.787,3.611,12.611,5.711,19.947l.043.15.151-.03,3.731-.74,4.954-.984.179-.036-.05-.178c-3.128-11.192-5.973-21.124-8-28.2-1.947-6.827-2.993-10.5-3.225-11.311l3.161,11.531c1.95,7.131,4.634,16.977,7.737,28.073l.129-.214-4.954.983-3.731.741.194.12c-2.119-7.331-4.09-14.15-5.76-19.932l0,.064,3.221-21.365" transform="translate(-260.46 -45.797)" fill="#e0e0e0"/>
          <path id="Trazado_641294" data-name="Trazado 641294" d="M378.248,228.73s.8,3.316,5.482,3.96c14.122,1.94,22.506,12.825,22.506,12.825l-3.651-12.128-13.6-9.642-8.7,2.777Z" transform="translate(-361.266 -82.643)" fill="#e0e0e0"/>
          <path id="Trazado_641295" data-name="Trazado 641295" d="M348.618,231.423c2.355-9.585,4.039-14.728,4.039-14.728s-.269-40.827,0-44.219c.649-8.2,5.188-17.6,5.777-18.8l22.38,5.341-1.434,11.365-5.638,49.91L354.371,277.4l-13.3-2.11s5.2-34.285,7.551-43.87" transform="translate(-312.803 -56.764)" fill="#665b3d"/>
          <path id="Trazado_641296" data-name="Trazado 641296" d="M346.474,82.434l-.821.189-8.3,1.908s-1.766,21.566-2.061,24.262,3.385,8.088,3.385,8.088-3.385,2.1-4.3,4.792,0,7.29,0,7.29l5.045,4.577a17.313,17.313,0,0,0,7.223,3.927l10.519,2.772s1.218-23.532,4.439-32.958c2.146-6.279-3.739-19.812-3.739-19.812l-7.252-5.035" transform="translate(-289.657 -30.448)" fill="#b285c3"/>
          <path id="Trazado_641297" data-name="Trazado 641297" d="M334.176,117.462a78.988,78.988,0,0,0,10.389.524,78.709,78.709,0,0,0-10.389-.524" transform="translate(-272.282 -43.367)" fill="#fff"/>
          <path id="Trazado_641298" data-name="Trazado 641298" d="M338.581,136.388a62.012,62.012,0,0,0,9.188.876,62.027,62.027,0,0,0-9.188-.876" transform="translate(-278.216 -50.365)" fill="#fff"/>
          <path id="Trazado_641299" data-name="Trazado 641299" d="M341.082,157.593a4.728,4.728,0,0,0,1.307.631,15.8,15.8,0,0,0,6.883.943,4.684,4.684,0,0,0,1.425-.258,24.2,24.2,0,0,1-9.615-1.316" transform="translate(-282.694 -58.206)" fill="#fff"/>
          <path id="Trazado_641300" data-name="Trazado 641300" d="M339.763,55.878a6.048,6.048,0,0,0,2.822-3.639c.521-1.5.762-3.086,1.34-4.561.432-1.1-.043-2.852.926-3.505,1.213-.817,1.2-2.986.732-4.069-.51-1.179-1.893-2.055-1.987-2.429-.247-.981.592-2.043.281-3a2.391,2.391,0,0,0-2.541-1.962,7.349,7.349,0,0,0-3.749-2.835c-1.961-.516-4.853-.9-6.6.147s-3.028,1.744-3.592,3.724" transform="translate(-269.394 -10.843)" fill="#263238"/>
          <path id="Trazado_641301" data-name="Trazado 641301" d="M336.5,39.134a2.015,2.015,0,0,0-1.777,2.06l1.188,27.37c.05,3.233,4.693,5.049,8.094,4.969,3.435-.081,3.546-1.8,3.588-4.871.072-5.138.066-7.067.068-7.037,0,0,4.339-.743,5.226-6.508a62.674,62.674,0,0,0,.043-11.4c-.222-3.457-2.481-7.692-5.866-7.32Z" transform="translate(-281.228 -13.433)" fill="#d38d6e"/>
          <path id="Trazado_641302" data-name="Trazado 641302" d="M338.341,53.856a.734.734,0,0,1-.7.747.7.7,0,0,1-.75-.665.735.735,0,0,1,.7-.748.7.7,0,0,1,.751.665" transform="translate(-267.741 -19.646)" fill="#263238"/>
          <path id="Trazado_641303" data-name="Trazado 641303" d="M339.569,51.44c-.09.1-.641-.317-1.422-.313s-1.354.4-1.438.306c-.042-.043.05-.218.3-.4a1.972,1.972,0,0,1,1.151-.364,1.894,1.894,0,0,1,1.132.37c.24.187.322.361.278.4" transform="translate(-268.861 -18.714)" fill="#263238"/>
          <path id="Trazado_641304" data-name="Trazado 641304" d="M350.532,53.856a.734.734,0,0,1-.7.747.7.7,0,0,1-.75-.665.734.734,0,0,1,.7-.748.7.7,0,0,1,.75.665" transform="translate(-287.488 -19.646)" fill="#263238"/>
          <path id="Trazado_641305" data-name="Trazado 641305" d="M351.963,51.7c-.09.1-.642-.317-1.423-.313s-1.353.4-1.438.306c-.042-.043.048-.217.3-.4a1.972,1.972,0,0,1,1.151-.364,1.9,1.9,0,0,1,1.133.37c.24.187.322.361.278.4" transform="translate(-288.936 -18.811)" fill="#263238"/>
          <path id="Trazado_641306" data-name="Trazado 641306" d="M341.684,57.617a5.072,5.072,0,0,1,1.269-.236c.2-.021.389-.062.422-.2a1.054,1.054,0,0,0-.134-.6l-.594-1.545a26.92,26.92,0,0,1-1.334-4.042,26.873,26.873,0,0,1,1.651,3.923q.3.814.568,1.554a1.193,1.193,0,0,1,.105.8.5.5,0,0,1-.327.3,1.324,1.324,0,0,1-.339.049,5,5,0,0,1-1.287,0" transform="translate(-275.808 -18.834)" fill="#263238"/>
          <path id="Trazado_641307" data-name="Trazado 641307" d="M351.2,75.22a14.2,14.2,0,0,1-7.588-2.041s1.922,4.063,7.588,3.511Z" transform="translate(-284.762 -27.03)" fill="#b26746"/>
          <path id="Trazado_641308" data-name="Trazado 641308" d="M347.244,64.222a1.4,1.4,0,0,0-1.264-.529,1.278,1.278,0,0,0-.886.486.84.84,0,0,0-.06.948.935.935,0,0,0,1.025.262,2.957,2.957,0,0,0,1-.609.878.878,0,0,0,.222-.236.27.27,0,0,0,0-.3" transform="translate(-281.695 -23.523)" fill="#b26746"/>
          <path id="Trazado_641309" data-name="Trazado 641309" d="M344.322,62.377c.127-.008.131.855.858,1.466s1.63.514,1.637.635c.012.054-.2.168-.583.179a2.09,2.09,0,0,1-1.367-.481,1.884,1.884,0,0,1-.665-1.23c-.033-.361.061-.575.119-.57" transform="translate(-280.745 -23.04)" fill="#263238"/>
          <path id="Trazado_641310" data-name="Trazado 641310" d="M352.187,47.613c-.077.216-.857.115-1.774.23-.919.1-1.658.371-1.78.177-.055-.093.074-.3.372-.506a3.058,3.058,0,0,1,2.708-.31c.337.137.506.306.473.409" transform="translate(-288.861 -17.367)" fill="#263238"/>
          <path id="Trazado_641311" data-name="Trazado 641311" d="M339.094,47.974c-.137.182-.676,0-1.323-.012-.647-.03-1.2.124-1.322-.065-.056-.091.03-.272.27-.444a1.889,1.889,0,0,1,2.131.062c.229.185.3.371.244.458" transform="translate(-268.23 -17.417)" fill="#263238"/>
          <path id="Trazado_641312" data-name="Trazado 641312" d="M328.993,34.738a4.03,4.03,0,0,0,1.388,3.039,3.883,3.883,0,0,0,3.183.855c.865-.161,1.813-.606,2.563-.137.788.493.82,1.7,1.518,2.318,1,.882,2.586.055,3.853.437.979.3,1.59,1.247,2.24,2.048s1.624,1.562,2.6,1.266a11.877,11.877,0,0,0-.388-2.657,3.929,3.929,0,0,0-1.483-2.165c-.4-.269-.875-.433-1.251-.741-.812-.667-1-1.829-1.5-2.76a4.244,4.244,0,0,0-3.235-2.184c-1.114-.116-2.261.224-3.347-.054-.8-.206-1.5-.736-2.317-.894-1.583-.306-3.055.85-4.2,2" transform="translate(-270.61 -12.211)" fill="#263238"/>
          <path id="Trazado_641313" data-name="Trazado 641313" d="M355.021,47.493a.646.646,0,0,0,.24,1.22c1.9.438,2.154-3.343,1.728-4.425a11.2,11.2,0,0,0,1.91-2.042,8.251,8.251,0,0,0,.875-3.914c.685.041,3.607-.94,3.3-1.031-.71-.207-2.162-.675-2.543-1.3a4.325,4.325,0,0,0-3.774-2.207,3.6,3.6,0,0,0-3.225,2.88,5.144,5.144,0,0,0-4.426,2.9,6.168,6.168,0,0,0,.16,5.65,3.006,3.006,0,0,1,.579,1.392,3.314,3.314,0,0,1-.787,1.679,5.546,5.546,0,0,0-.136,5.007c.695,1.575,1.183,2.128,2.17,2.444,1.932.617-.309,4.665,2.905,4.665" transform="translate(-299.619 -12.48)" fill="#263238"/>
          <path id="Trazado_641314" data-name="Trazado 641314" d="M364.407,57.072a1.651,1.651,0,0,0-2.417-1.43,2.322,2.322,0,0,0-.959,2.317,2.567,2.567,0,0,0,3.539,2.512c0-.062-.091-1.963-.162-3.4" transform="translate(-308.926 -20.475)" fill="#d38d6e"/>
          <path id="Trazado_641315" data-name="Trazado 641315" d="M364.365,59.812c-.015-.011-.058.045-.156.1a.584.584,0,0,1-.444.028,1.5,1.5,0,0,1-.735-1.314,2.039,2.039,0,0,1,.131-.873.692.692,0,0,1,.428-.482.3.3,0,0,1,.358.151c.05.1.03.165.049.17s.071-.061.038-.2a.389.389,0,0,0-.143-.212.441.441,0,0,0-.332-.074.842.842,0,0,0-.6.564,2.091,2.091,0,0,0-.167.976,1.571,1.571,0,0,0,.928,1.462.629.629,0,0,0,.54-.115c.1-.09.116-.168.1-.174" transform="translate(-309.817 -21.088)" fill="#b26746"/>
          <path id="Trazado_641316" data-name="Trazado 641316" d="M354.656,48.877c.019-.013-.109-.194-.268-.554a3.869,3.869,0,0,1-.308-1.617,3.458,3.458,0,0,1,.883-2.209,3.5,3.5,0,0,1,1.129-.84,3.981,3.981,0,0,1,1.473-.331c1.052-.05,2.081.115,3.029,0a4.683,4.683,0,0,0,3.45-2.209,1.911,1.911,0,0,0,.261-.568,6.019,6.019,0,0,1-1.5,1.682,4.588,4.588,0,0,1-2.234.855c-.909.1-1.924-.074-3.017-.025a4.165,4.165,0,0,0-1.564.36,3.682,3.682,0,0,0-1.2.913A3.592,3.592,0,0,0,353.9,46.7a3.669,3.669,0,0,0,.4,1.664,1.649,1.649,0,0,0,.358.51" transform="translate(-304.244 -14.978)" fill="#455a64"/>
          <path id="Trazado_641317" data-name="Trazado 641317" d="M354.149,40.974a2.947,2.947,0,0,1,1.4-.416,4.508,4.508,0,0,1,1.567.27c.576.192,1.19.482,1.88.7a4.211,4.211,0,0,0,2.031.179,4.109,4.109,0,0,0,1.552-.613,3.7,3.7,0,0,0,.839-.752,1.021,1.021,0,0,0,.223-.349,7.257,7.257,0,0,1-1.157.943,4.016,4.016,0,0,1-3.412.342c-.666-.213-1.286-.5-1.883-.683a4.35,4.35,0,0,0-1.648-.224,2.393,2.393,0,0,0-1.077.328c-.227.145-.32.264-.312.273" transform="translate(-303.734 -14.772)" fill="#455a64"/>
          <path id="Trazado_641318" data-name="Trazado 641318" d="M345.728,35.732a2.551,2.551,0,0,1-.389.554,2.213,2.213,0,0,1-1.663.571,3.989,3.989,0,0,1-2.351-1.229,11.728,11.728,0,0,0-2.649-2.18,3.107,3.107,0,0,0-1.78-.279,3.916,3.916,0,0,0-1.562.609,5.724,5.724,0,0,0-1.861,2.112,12.936,12.936,0,0,0-.772,1.737,3.442,3.442,0,0,0-.211.663,3.724,3.724,0,0,0,.3-.624,17.031,17.031,0,0,1,.837-1.684,5.707,5.707,0,0,1,1.83-2,3.734,3.734,0,0,1,1.469-.559,2.887,2.887,0,0,1,1.637.263,12.12,12.12,0,0,1,2.6,2.123,4.088,4.088,0,0,0,2.5,1.233,2.261,2.261,0,0,0,1.742-.685,1.448,1.448,0,0,0,.275-.446c.037-.115.051-.176.042-.179" transform="translate(-272.402 -12.24)" fill="#455a64"/>
          <path id="Trazado_641319" data-name="Trazado 641319" d="M353.253,31.751a2.079,2.079,0,0,0-.685.634,5.089,5.089,0,0,0-.918,4.338,2.126,2.126,0,0,0,.367.865,8.507,8.507,0,0,0-.19-.9,5.832,5.832,0,0,1,.037-2.183,5.763,5.763,0,0,1,.85-2,8.472,8.472,0,0,0,.539-.745" transform="translate(-291.71 -11.727)" fill="#455a64"/>
          <path id="Trazado_641320" data-name="Trazado 641320" d="M250.6,24.1s4.67,2.052,4.285,5.742a36.72,36.72,0,0,1-1.522,7.045s7.333-5.674,14.5-3.385l.048,1.689a17.69,17.69,0,0,0-9.556,1.843C253.954,39.486,248.184,48.4,248.184,48.4L233.7,41.789l3.425-5.685s-.479-5.388-.561-6.893c-.126-2.3,2.653-11.185,14.041-5.113m-12.188,3.735a7.248,7.248,0,0,0,.94,3.284l1.523-3.612,11.5,4.039s2.074-3.493-2.134-5.777a15.783,15.783,0,0,0-6.935-1.557,4.835,4.835,0,0,0-4.249,2.015,3.572,3.572,0,0,0-.643,1.609" transform="translate(-133.363 -8.13)" fill="#b285c3"/>
          <path id="Trazado_641321" data-name="Trazado 641321" d="M273.554,21.375l6.273-.287,5.145,2.271s-.235.818-.725.761a20.2,20.2,0,0,1-2.889-.833L283,24.746l.07,1.076s-1.621,2.009-1.9,1.793a2.914,2.914,0,0,1-.564-.932l-1.128,1.65h-1.762l-.806-1.108-.855.705s-2.2,2.029-3.459,1.56c-.73-.271-2.069,3.074-2.069,3.074l-4.763-3.074,3.187-4.013Z" transform="translate(-170.289 -7.789)" fill="#d38d6e"/>
          <path id="Trazado_641322" data-name="Trazado 641322" d="M271.764,24.664a3.609,3.609,0,0,0,1.089.155l1.177.072a2.123,2.123,0,0,1,.64.107,4.862,4.862,0,0,1,.614.37c.424.286.816.578,1.163.856.365.283.642.515.538.815-.175.626-.459.967-.412,1,.023.025.381-.248.643-.933a.708.708,0,0,0-.1-.648,2.905,2.905,0,0,0-.476-.477,12.333,12.333,0,0,0-1.174-.9,4.493,4.493,0,0,0-.684-.4,2.28,2.28,0,0,0-.734-.108h-1.194a3.488,3.488,0,0,0-1.1.089" transform="translate(-166.294 -9.077)" fill="#b26746"/>
          <path id="Trazado_641323" data-name="Trazado 641323" d="M275.8,30.721c.047-.028-.118-.337-.385-.812-.066-.119-.137-.25-.2-.39a.8.8,0,0,1-.064-.192c0-.018,0,.008,0,0a.355.355,0,0,1,.019-.041.383.383,0,0,1,.053-.076.756.756,0,0,1,.9-.025l.26.134.2.1.047-.234c.043-.215.086-.424.128-.634.052-.19.146-.339.242-.359l.428-.092-.394-.182c-.393-.182-.724-.325-.959-.416a1.544,1.544,0,0,0-.288-.092c-.082-.009-.121.029-.113.042a2.138,2.138,0,0,1,.327.2c.213.136.526.317.9.526l.034-.274a.734.734,0,0,0-.486.544l-.159.7.246-.131c-.087-.048-.179-.1-.277-.144a1.429,1.429,0,0,0-.66-.159.858.858,0,0,0-.614.286.69.69,0,0,0-.126.231.354.354,0,0,0-.006.133.963.963,0,0,0,.108.279,4.005,4.005,0,0,0,.249.393c.327.453.553.7.587.682" transform="translate(-168.378 -10.125)" fill="#b26746"/>
          <path id="Trazado_641324" data-name="Trazado 641324" d="M269.145,22.454a18.759,18.759,0,0,0,3.443.171l-.115-.047c.11.1.224.2.341.3.84.687,1.627,1.263,2.2,1.676a4.366,4.366,0,0,0,.967.618,21.8,21.8,0,0,0-2.954-2.561c-.115-.095-.227-.19-.324-.279l-.051-.047h-.064a18.759,18.759,0,0,0-3.443.171" transform="translate(-163.401 -8.231)" fill="#b26746"/>
          <path id="Trazado_641325" data-name="Trazado 641325" d="M211.054,42.953a12.983,12.983,0,0,1,11.373,7.285,5.163,5.163,0,0,1,.606,3.191,2.322,2.322,0,0,1-2.263,1.959,2.874,2.874,0,0,1-1.836-1.205c-1.44-1.792-2-4.126-2.85-6.273s-2.227-4.334-4.413-4.974" transform="translate(-74.516 -15.859)" fill="#f5f5f5"/>
          <path id="Trazado_641326" data-name="Trazado 641326" d="M225.071,55.673a16.186,16.186,0,0,1,.757-2.041,15.513,15.513,0,0,0,.948-3.643l.3.283a8.754,8.754,0,0,1,1.528,6.211,3.845,3.845,0,0,1-.468,1.495,1.8,1.8,0,0,1-1.228.882,1.752,1.752,0,0,1-1.72-1.051,3.216,3.216,0,0,1-.117-2.135" transform="translate(-88.706 -18.464)" fill="#f5f5f5"/>
          <path id="Trazado_641327" data-name="Trazado 641327" d="M216.529,67.076a8.258,8.258,0,0,1,2.067,1.741,2.874,2.874,0,0,1,.574,2.568,1.7,1.7,0,0,1-2.128,1.135c-.937-.4-1.141-1.671-.973-2.691a7.451,7.451,0,0,0,.3-3.055" transform="translate(-73.769 -24.664)" fill="#f5f5f5"/>
          <path id="Trazado_641328" data-name="Trazado 641328" d="M313.118,109.177l.045-.08-.045.08,4.528-11.514-1.435-5.535,2.19-25.785,5.805-3.557.278-2.295,1.591.271,2.636,2.468v0L350.664,53.3,365,33.193l6.8,4.158-13.165,25.4L333.778,77.183l.053.175c-.226.131-10.972,90.881-15.571,91.158s-12.481-11.617-21.722-11.894c-6.015-.18-8.114.929-8.847,1.725,3.2-6.2,24.924-48.283,25.427-49.171" transform="translate(-270.709 -12.26)" fill="#f5f5f5"/>
          <path id="Trazado_641329" data-name="Trazado 641329" d="M313.271,109.054s-.162.288-.464.858l-1.331,2.536-5.087,9.767-18.653,35.951-.384.739.581-.6a5.3,5.3,0,0,1,2.586-1.237,17.6,17.6,0,0,1,2.981-.4,18.284,18.284,0,0,1,6.166.453,20.937,20.937,0,0,1,5.795,2.85c1.837,1.231,3.592,2.658,5.369,4.118.89.728,1.787,1.467,2.722,2.174a15.648,15.648,0,0,0,3.016,1.88,4.176,4.176,0,0,0,1.782.4.712.712,0,0,0,.494-.2,2.124,2.124,0,0,0,.309-.376,5.889,5.889,0,0,0,.439-.822,26.5,26.5,0,0,0,1.172-3.5c1.28-4.781,2.205-9.782,3.132-14.9,1.814-10.252,3.418-21.045,5-32.231s3.094-22.772,4.621-34.632q.152-1.158.3-2.313l.154-1.152.08-.574.042-.286.022-.141.012-.067.006-.028s.006-.025,0,0a.127.127,0,0,1-.068.073l.077-.2-.053-.175-.077.2L358.87,62.772l.042-.025.022-.044,13.159-25.4.07-.135-.128-.078-6.8-4.155-.122-.074-.083.117L350.7,53.091l.058-.047-21.945,9.951.173.139v0l.013-.069-.051-.047-2.638-2.465-.027-.025-.036-.006-1.591-.268-.124-.021-.015.126c-.1.832-.188,1.567-.276,2.295l.056-.088-5.8,3.562.007,0-.061.091c-.866,10.382-1.591,19.063-2.152,25.788v.013l0,.013,1.446,5.532,0-.038c-1.45,3.721-2.556,6.559-3.31,8.493s-1.14,2.953-1.164,3.043l0,.014.006-.013.045-.08h0l-.045.081.046-.079h0l-.046.08h0c.043-.082.453-1.1,1.22-3.02l3.363-8.472.007-.019-.006-.02c-.4-1.553-.837-3.258-1.424-5.538l0,.025c.581-6.723,1.331-15.4,2.228-25.782l-.061.091h0l.008-.005,5.809-3.55.049-.03.007-.058c.089-.727.178-1.461.281-2.294l-.139.105,1.592.272-.062-.031,2.633,2.47-.038-.117v0l-.045.237.217-.1,21.96-9.917.035-.016.022-.032,14.348-20.1-.206.043,6.8,4.16-.058-.213L358.641,62.547l.064-.068L333.848,76.911l-.118.068.04.132.053.175.077-.2a.23.23,0,0,0-.081.107l-.009.037-.009.043-.013.075-.024.146-.043.289-.08.576-.155,1.153q-.151,1.155-.3,2.314c-1.528,11.86-3.042,23.444-4.615,34.629s-3.176,21.976-4.98,32.222c-.922,5.116-1.844,10.117-3.113,14.877a26.294,26.294,0,0,1-1.153,3.46,5.645,5.645,0,0,1-.414.779c-.16.234-.345.471-.57.449a3.893,3.893,0,0,1-1.659-.372,15.383,15.383,0,0,1-2.958-1.841c-.929-.7-1.824-1.437-2.716-2.164-1.779-1.457-3.542-2.889-5.4-4.128a21.2,21.2,0,0,0-5.874-2.876,12.692,12.692,0,0,0-3.146-.5c-1.046-.027-2.082-.018-3.107.044a17.86,17.86,0,0,0-3.023.416,5.5,5.5,0,0,0-2.707,1.315l.2.143,18.555-36,5.03-9.8,1.3-2.553c.292-.576.433-.876.433-.876" transform="translate(-270.862 -12.138)" fill="#e0e0e0"/>
          <path id="Trazado_641330" data-name="Trazado 641330" d="M348.231,106.3a2.275,2.275,0,0,0,1.437-.191,28.791,28.791,0,0,0,3.205-1.37c1.222-.6,2.31-1.165,3.1-1.566a7.152,7.152,0,0,0,1.266-.694,5.261,5.261,0,0,0-1.365.473c-.822.346-1.932.882-3.15,1.478s-2.326,1.11-3.143,1.452a8.175,8.175,0,0,1-1.353.419" transform="translate(-293.671 -37.851)" fill="#263238"/>
          <path id="Trazado_641331" data-name="Trazado 641331" d="M357.29,89.8a16.57,16.57,0,0,1,.356-2,7.288,7.288,0,0,1,2.74-3.872,32.39,32.39,0,0,1,4.249-2.376,8.533,8.533,0,0,0,1.751-1.042,20,20,0,0,0-1.854.823,24.95,24.95,0,0,0-4.343,2.316,7.128,7.128,0,0,0-2.773,4.087,6.183,6.183,0,0,0-.183,1.512,1.536,1.536,0,0,0,.058.556" transform="translate(-308.392 -29.735)" fill="#263238"/>
          <path id="Trazado_641332" data-name="Trazado 641332" d="M374.074,140.742a16.117,16.117,0,0,0-1.16-5.575,16.143,16.143,0,0,0,.5,2.806,16.1,16.1,0,0,0,.663,2.769" transform="translate(-325.819 -49.926)" fill="#263238"/>
          <path id="Trazado_641333" data-name="Trazado 641333" d="M365.8,163.7a3.341,3.341,0,0,0,.895,1.051,7.383,7.383,0,0,0,2.925,1.555,7.3,7.3,0,0,0,3.3.122,3.273,3.273,0,0,0,1.288-.462c-.02-.056-.511.114-1.327.222a8.2,8.2,0,0,1-6.036-1.626c-.657-.5-1-.9-1.045-.861" transform="translate(-321.522 -60.462)" fill="#263238"/>
          <path id="Trazado_641334" data-name="Trazado 641334" d="M376,213.976a4.28,4.28,0,0,0,.865.141,10.183,10.183,0,0,0,1.023.088c.4.018.856.056,1.36.041a25.016,25.016,0,0,0,3.536-.253,25.957,25.957,0,0,0,8.256-2.647,25.3,25.3,0,0,0,3.04-1.855c.422-.282.774-.58,1.092-.827s.581-.475.788-.669a4.341,4.341,0,0,0,.629-.62c-.042-.051-.974.792-2.643,1.915a28.463,28.463,0,0,1-3.045,1.773,27.74,27.74,0,0,1-8.163,2.617,28.164,28.164,0,0,1-3.493.322c-2,.054-3.239-.093-3.245-.026" transform="translate(-350.222 -76.596)" fill="#263238"/>
          <path id="Trazado_641335" data-name="Trazado 641335" d="M384.247,230.428c.009.008.087-.05.229-.169a5.667,5.667,0,0,1,.639-.487,7.931,7.931,0,0,1,2.7-1.1,15.419,15.419,0,0,1,4.334-.285,19.36,19.36,0,0,1,5.223,1.041,25.391,25.391,0,0,1,8.218,5.166l2.236,1.976a6.7,6.7,0,0,0,.842.7,6.726,6.726,0,0,0-.753-.8c-.5-.5-1.232-1.213-2.168-2.062a37.8,37.8,0,0,0-3.444-2.8,19.181,19.181,0,0,0-4.82-2.5,18.971,18.971,0,0,0-5.315-1.031,14.936,14.936,0,0,0-4.406.365,7.5,7.5,0,0,0-2.724,1.23,4.174,4.174,0,0,0-.61.546c-.128.137-.191.212-.183.22" transform="translate(-367.418 -84.231)" fill="#263238"/>
          <path id="Trazado_641336" data-name="Trazado 641336" d="M365.911,177.556c-.01.006.019.071.083.19a3.673,3.673,0,0,0,.322.5,5.4,5.4,0,0,0,1.644,1.408,5.592,5.592,0,0,0,3.114.7,6.025,6.025,0,0,0,3.547-1.637,9.2,9.2,0,0,0,2.237-3.252,16.088,16.088,0,0,0,.914-3.094c.176-.9.276-1.634.338-2.142a3.533,3.533,0,0,0,.059-.793,3.63,3.63,0,0,0-.188.772c-.1.5-.237,1.225-.441,2.111a17.428,17.428,0,0,1-.966,3.019,9.176,9.176,0,0,1-2.177,3.123,5.833,5.833,0,0,1-3.348,1.577,5.494,5.494,0,0,1-2.976-.6,6.745,6.745,0,0,1-2.161-1.878" transform="translate(-325.562 -62.581)" fill="#263238"/>
          <path id="Trazado_641337" data-name="Trazado 641337" d="M305.509,198.771l11.756,153.5-7.636-.137L296.407,198.673Z" transform="translate(-221.575 -73.383)" fill="#563b3b"/>
          <path id="Trazado_641338" data-name="Trazado 641338" d="M363.9,198.632l8.952.124L328.307,352.079h-8.786Z" transform="translate(-291.491 -73.368)" fill="#563b3b"/>
          <path id="Trazado_641339" data-name="Trazado 641339" d="M340.539,310.816H315.87l-2.062,5.977h28.411Z" transform="translate(-257.313 -114.804)" fill="#563b3b"/>
          <path id="Trazado_641340" data-name="Trazado 641340" d="M313.9,190.933l7.276.819,4.442,2.836s.087.922-1.176.771l-2.5-1.074,1.98,2.208a1.053,1.053,0,0,1-1.567.266,6.227,6.227,0,0,1-1.764-1.551l-4.376-.311s3.309,3.235,2.7,4.077-1,.665-1.481.354-.74-1.374-1.829-1.728-2.885-1.389-4.833-2.328c-1.675-.807-3.375-6.583-3.375-6.583l5.59-1.11Z" transform="translate(-236.734 -69.285)" fill="#d38d6e"/>
          <path id="Trazado_641341" data-name="Trazado 641341" d="M310.13,195.883a26,26,0,0,0,4.139.807l.061.009-.1-.05a26.068,26.068,0,0,0,3.02,2.9,26.212,26.212,0,0,0-2.778-3.142l-.04-.042-.056-.008-.061-.009a25.951,25.951,0,0,0-4.189-.467" transform="translate(-230.071 -72.344)" fill="#b26746"/>
        </g>
      </g>
      <g id="Grupo_1072758" data-name="Grupo 1072758">
        <g id="Grupo_1072757" data-name="Grupo 1072757" clip-path="url(#clip-path)">
          <path id="Trazado_641342" data-name="Trazado 641342" d="M4.529,441.854c0,.1,58.583.172,130.832.172,72.275,0,130.845-.076,130.845-.172s-58.571-.172-130.845-.172c-72.249,0-130.832.077-130.832.172" transform="translate(10.37 -163.142)" fill="#263238"/>
        </g>
      </g>
    </g>
  </g>
</svg>
