<svg xmlns="http://www.w3.org/2000/svg" xmlns:xlink="http://www.w3.org/1999/xlink" width="124.417" height="124.418" viewBox="0 0 124.417 124.418">
  <defs>
    <clipPath id="clip-path">
      <rect id="Rectángulo_379031" data-name="Rectángulo 379031" width="115" height="115" transform="translate(389.246 2670.246)" fill="#fff" stroke="#707070" stroke-width="1"/>
    </clipPath>
    <linearGradient id="linear-gradient" x1="0.989" y1="1.001" x2="0.081" y2="0.049" gradientUnits="objectBoundingBox">
      <stop offset="0" stop-color="#8c50af"/>
      <stop offset="1" stop-color="#fbe3b1"/>
    </linearGradient>
    <clipPath id="clip-path-2">
      <rect id="Rectángulo_379473" data-name="Rectángulo 379473" width="86" height="86" transform="translate(409 1416)" fill="#fff" stroke="#707070" stroke-width="1"/>
    </clipPath>
    <clipPath id="clip-path-3">
      <rect id="Rectángulo_379474" data-name="Rectángulo 379474" width="83" height="69.208" fill="#543f5c"/>
    </clipPath>
  </defs>
  <g id="Grupo_1075356" data-name="Grupo 1075356" transform="translate(-390.496 -1397.999)">
    <g id="Enmascarar_grupo_1074667" data-name="Enmascarar grupo 1074667" transform="translate(4.754 -1267.246)" clip-path="url(#clip-path)">
      <rect id="Imagen_25" data-name="Imagen 25" width="128.611" height="124.518" transform="translate(382.686 2667.283)" fill="#fff"/>
    </g>
    <path id="Sustracción_174" data-name="Sustracción 174" d="M113.2,113.2H0V0H113.2V113.2ZM6.49,6.49V106.714H106.713V6.49Z" transform="matrix(-0.995, -0.105, 0.105, -0.995, 503.08, 1522.417)" fill="url(#linear-gradient)"/>
    <g id="Enmascarar_grupo_1074726" data-name="Enmascarar grupo 1074726" transform="translate(0 2)" clip-path="url(#clip-path-2)">
      <g id="Grupo_1075078" data-name="Grupo 1075078" transform="translate(411 1424)">
        <g id="Grupo_1075077" data-name="Grupo 1075077" clip-path="url(#clip-path-3)">
          <path id="Trazado_642310" data-name="Trazado 642310" d="M74,23.115a3.7,3.7,0,0,1-.62,6.173c-.351.2-.7.4-1.068.619a2.452,2.452,0,0,0,.174.225,3.682,3.682,0,0,1-.866,5.874c-3.147,1.8-6.278,3.627-9.416,5.443-.1.055-.19.114-.337.2.2.118.374.226.553.315.586.294,1.176.579,1.762.872a11.266,11.266,0,0,1,2.95,2.041c.178.177.321.217.534.03,1.727-1.524,3.452-3.051,5.2-4.553a21.366,21.366,0,0,0,7-11,20.617,20.617,0,0,0,.722-6.133A21.542,21.542,0,0,0,66.639,3.764a17.577,17.577,0,0,0-4.221-1.1,19.558,19.558,0,0,0-5.221-.12c-.915.139-1.846.2-2.749.392a20.353,20.353,0,0,0-5.9,2.246,21.111,21.111,0,0,0-4.539,3.451A5.14,5.14,0,0,1,42.69,9.642a2.717,2.717,0,0,1-3.165-.5c-.89-.767-1.715-1.616-2.642-2.335a20.686,20.686,0,0,0-7.16-3.569,22.126,22.126,0,0,0-6.6-.779A20.857,20.857,0,0,0,18.746,3c-.873.211-1.715.553-2.572.83a1.155,1.155,0,0,1-1.438-.518,1.2,1.2,0,0,1,.708-1.74A23.544,23.544,0,0,1,25.905.1a24.056,24.056,0,0,1,14.83,6.936c.07.069.14.14.212.208.481.449.645.459,1.113-.013a23.853,23.853,0,0,1,8.152-5.453A23.06,23.06,0,0,1,59.746.032,23.636,23.636,0,0,1,77.234,8.417a23.043,23.043,0,0,1,4.751,8.695,22.47,22.47,0,0,1,.979,7.805A23.478,23.478,0,0,1,76,40.63c-1.321,1.319-2.779,2.5-4.18,3.739-.909.8-1.823,1.6-2.748,2.389a.44.44,0,0,0-.123.636,9.349,9.349,0,0,1,1.076,4.425,9.456,9.456,0,0,1-3.1,7.107,9.563,9.563,0,0,1-7.437,2.657,9.4,9.4,0,0,1-4.805-1.7.544.544,0,0,0-.811.057c-3,2.632-6.016,5.236-9.023,7.857a5.089,5.089,0,0,1-2.929,1.394,4.181,4.181,0,0,1-3.1-.877c-1.374-1.116-2.7-2.289-4.042-3.447q-2.909-2.515-5.8-5.048a.341.341,0,0,0-.507-.03A9.464,9.464,0,0,1,22.5,61.6a9.616,9.616,0,0,1-8.719-5.931,9.3,9.3,0,0,1-.324-6.878,7.114,7.114,0,0,1,.566-1.327.5.5,0,0,0-.132-.728c-1.643-1.414-3.261-2.856-4.918-4.253a24.737,24.737,0,0,1-7.126-9.5A24.819,24.819,0,0,1,.07,25.47a21.954,21.954,0,0,1,.593-7.035A23.663,23.663,0,0,1,9.231,5.116a7.43,7.43,0,0,1,.962-.69,1.114,1.114,0,0,1,1.229.1,1.088,1.088,0,0,1,.487,1.093,1.544,1.544,0,0,1-.672.939c-.951.829-1.945,1.616-2.829,2.512a20.275,20.275,0,0,0-5.49,10.258A20.072,20.072,0,0,0,2.4,24.665,21.239,21.239,0,0,0,8,38.272c1.773,1.916,3.843,3.5,5.773,5.243.524.473,1.064.928,1.589,1.4.167.149.3.184.473.006a11.948,11.948,0,0,1,3.5-2.34c.586-.288,1.167-.586,1.829-.919-.641-.374-1.208-.708-1.779-1.037q-3.953-2.284-7.909-4.564a3.724,3.724,0,0,1-2.013-2.7,3.535,3.535,0,0,1,1.071-3.249c.044-.043.082-.092.163-.182-.231-.14-.444-.278-.664-.4a4.991,4.991,0,0,1-1.77-1.437A3.661,3.661,0,0,1,9,23.112a1.1,1.1,0,0,0-.093-.147A3.655,3.655,0,0,1,8.292,18.9a3.694,3.694,0,0,1,3.929-2c.275.037.363-.023.422-.288a3.586,3.586,0,0,1,4.3-2.689,5.17,5.17,0,0,1,1.332.536q5.657,3.231,11.3,6.493a1.577,1.577,0,0,0,.168.076c0-.544.024-1.083-.005-1.619a4.365,4.365,0,0,1,.934-2.831,5.048,5.048,0,0,1,2.906-2A3.345,3.345,0,0,1,37.55,16.7c.354,1.052.61,2.138.9,3.211.632,2.337,1.272,4.671,1.88,7.015.3,1.146.518,2.312.8,3.463a3.279,3.279,0,0,0,.356.693,3.237,3.237,0,0,0,.381-.7c.742-2.907,1.455-5.822,2.2-8.729.391-1.531.817-3.054,1.246-4.575a3.412,3.412,0,0,1,3.719-2.578,4.78,4.78,0,0,1,3.163,1.912,4.435,4.435,0,0,1,1.06,3.085c-.035.512-.006,1.028-.006,1.577.884-.51,1.759-1.015,2.634-1.519.665-.383,1.326-.773,2-1.141a1.164,1.164,0,1,1,1.235,1.971c-.865.551-1.768,1.043-2.656,1.558q-2.2,1.275-4.4,2.546a1.4,1.4,0,0,1-1.33.233.97.97,0,0,1-.687-1.066c.116-.741.351-1.462.491-2.2a14.951,14.951,0,0,0,.318-2.225A2.563,2.563,0,0,0,48.7,16.868a1.035,1.035,0,0,0-1.1.749c-.855,3.212-1.72,6.421-2.555,9.638-.285,1.1-.486,2.221-.738,3.329a4.677,4.677,0,0,1-2.556,3.32q-6.6,3.316-13.185,6.652c-3.091,1.562-6.192,3.1-9.264,4.7a6.836,6.836,0,0,0-3.774,5.051,7.337,7.337,0,0,0,7,8.884,8.343,8.343,0,0,0,5.231-1.765q8.693-6.072,17.415-12.1l2.226-1.548a4.731,4.731,0,0,1,3.858-.858,7.181,7.181,0,0,0,4.892-.764c1.84-.964,3.622-2.039,5.424-3.075q4.184-2.4,8.36-4.822c.225-.13.453-.256.668-.4a1.307,1.307,0,0,0,.4-1.739,1.24,1.24,0,0,0-1.7-.466c-1.4.792-2.786,1.607-4.179,2.41a5.306,5.306,0,0,1-.561.286,1.131,1.131,0,0,1-1.456-.439,1.086,1.086,0,0,1,.2-1.474,5.017,5.017,0,0,1,.834-.548q3.893-2.24,7.791-4.471c.528-.3,1.034-.616,1.061-1.315a1.147,1.147,0,0,0-.435-1.084,1.107,1.107,0,0,0-1.3-.179c-1.616.937-3.244,1.852-4.866,2.78-1.267.725-2.529,1.46-3.8,2.181a3.572,3.572,0,0,1-.745.325,1.135,1.135,0,0,1-1.128-.482c-.333-.468-.376-.779-.066-1.186a2.573,2.573,0,0,1,.729-.661q4.911-2.853,9.837-5.679a11.474,11.474,0,0,0,.978-.6,1.262,1.262,0,0,0-.051-2.056,1.519,1.519,0,0,0-1.558.04c-1.451.827-2.9,1.665-4.343,2.5-2.047,1.182-4.091,2.368-6.141,3.543a1.554,1.554,0,0,1-1.216.327,1.173,1.173,0,0,1-.893-.94.972.972,0,0,1,.419-1.074c.53-.362,1.089-.684,1.645-1.005,2.388-1.382,4.785-2.749,7.164-4.146a2.46,2.46,0,0,0,.763-.765,1.038,1.038,0,0,0-.209-1.327,1.117,1.117,0,0,0-1.281-.358c-.6.255-1.161.6-1.74.907a7.629,7.629,0,0,1-.792.4,1.146,1.146,0,0,1-1.149-1.946,9.7,9.7,0,0,1,3.525-1.753,3.6,3.6,0,0,1,4,2.667c.078.359.211.411.544.371a3.577,3.577,0,0,1,3.938,2.257,3.449,3.449,0,0,1-.588,3.659c-.056.066-.117.127-.173.193a.638.638,0,0,0-.051.1M43.571,49.309c.092.072.138.112.188.146.763.528,1.53,1.05,2.289,1.584a1.138,1.138,0,0,1,.532,1.181,1.18,1.18,0,0,1-1.932.709c-.916-.634-1.845-1.25-2.74-1.912a.6.6,0,0,0-.84.011c-2.586,1.81-5.184,3.6-7.777,5.4-.85.59-1.7,1.184-2.58,1.8.607.523,1.188,1.022,1.767,1.524q3.7,3.214,7.41,6.426a2.3,2.3,0,0,0,3.175.047q4.5-3.885,8.979-7.791c.07-.061.129-.135.209-.22-.055-.042-.083-.066-.114-.087-.752-.522-1.509-1.039-2.256-1.568a2.71,2.71,0,0,1-.73-.617,1.347,1.347,0,0,1-.229-.878,1.165,1.165,0,0,1,1.926-.7c1.572,1.077,3.145,2.155,4.695,3.265a7.513,7.513,0,0,0,7.338,1.088,7.213,7.213,0,0,0,4.578-8.468,7.026,7.026,0,0,0-3.913-5.079Q61.6,44.16,59.638,43.2a.655.655,0,0,0-.5.021c-.4.194-.777.435-1.164.655a10.874,10.874,0,0,1-7.242,1.445,2.8,2.8,0,0,0-2.253.561c-1.031.77-2.108,1.478-3.164,2.213-.568.4-1.135.793-1.739,1.216M39.419,32.422a6.013,6.013,0,0,1-.382-.836c-.25-.9-.468-1.814-.7-2.721q-.707-2.726-1.42-5.451-.755-2.887-1.516-5.772a.985.985,0,0,0-1.182-.764,2.569,2.569,0,0,0-2.028,1.949,4.245,4.245,0,0,0,.121,2.09c.236.844.474,1.69.66,2.545a1.034,1.034,0,0,1-.665,1.224,1.4,1.4,0,0,1-1.424-.239q-6.735-3.887-13.469-7.776a4.683,4.683,0,0,0-.941-.433,1.157,1.157,0,0,0-1.271.4,1.023,1.023,0,0,0-.184,1.3,2.655,2.655,0,0,0,.8.785c2.593,1.521,5.2,3.013,7.806,4.518a8.391,8.391,0,0,1,1,.64,1.01,1.01,0,0,1,.4,1.087,1.179,1.179,0,0,1-.89.9,1.494,1.494,0,0,1-1.185-.3c-1.547-.883-3.089-1.777-4.633-2.666q-3.008-1.732-6.017-3.46a1.648,1.648,0,0,0-1.547.087,1.33,1.33,0,0,0-.349,1.456c.122.417.466.6.794.786q4,2.313,8.009,4.614c.858.494,1.726.972,2.561,1.5a2.483,2.483,0,0,1,.694.749,1.073,1.073,0,0,1-.457,1.309,1.248,1.248,0,0,1-1.426-.045q-1.958-1.136-3.926-2.256c-1.633-.933-3.271-1.855-4.9-2.794a1.094,1.094,0,0,0-1.327.205,1.16,1.16,0,0,0-.389,1.167,1.4,1.4,0,0,0,.8,1.047q3.893,2.239,7.786,4.479a7.027,7.027,0,0,1,1.114.727,1.088,1.088,0,0,1,.184,1.478,1.155,1.155,0,0,1-1.474.394c-.389-.187-.765-.406-1.14-.62q-1.821-1.04-3.636-2.088a1.093,1.093,0,0,0-1.094-.071,1.309,1.309,0,0,0-.18,2.277c.183.126.374.242.567.353q5.24,3.024,10.487,6.036a.657.657,0,0,0,.534.012q6.579-3.312,13.144-6.649,1.154-.585,2.3-1.17" transform="translate(0 0)" fill="#543f5c"/>
        </g>
      </g>
    </g>
  </g>
</svg>
