<svg xmlns="http://www.w3.org/2000/svg" xmlns:xlink="http://www.w3.org/1999/xlink" width="139" height="139" viewBox="0 0 139 139">
  <defs>
    <clipPath id="clip-path">
      <rect id="Rectángulo_379471" data-name="Rectángulo 379471" width="98.667" height="102.65" fill="none"/>
    </clipPath>
  </defs>
  <g id="Grupo_1075363" data-name="Grupo 1075363" transform="translate(-421 -553.328)">
    <g id="Grupo_1072805" data-name="Grupo 1072805" transform="translate(-1013.668 -5328.672)">
      <g id="Grupo_1072229" data-name="Grupo 1072229" transform="translate(1434.668 5882)">
        <path id="Trazado_608385" data-name="Trazado 608385" d="M69.5,0A69.5,69.5,0,1,1,0,69.5,69.5,69.5,0,0,1,69.5,0Z" transform="translate(0)" fill="#fff"/>
      </g>
    </g>
    <g id="Grupo_1075073" data-name="Grupo 1075073" transform="translate(441.167 572)">
      <g id="Grupo_1075072" data-name="Grupo 1075072" clip-path="url(#clip-path)">
        <path id="Trazado_642106" data-name="Trazado 642106" d="M101.754,213.24a1.209,1.209,0,0,0-.462.173c-.221.028-.459.017-.575.268-.182.018-.377-.048-.539.089-.265.047-.563,0-.748.27a2.373,2.373,0,0,0-1,.2,1.1,1.1,0,0,0-.654.172.865.865,0,0,0-.645.186,4.442,4.442,0,0,0-1.11.19c-.126.012-.265-.03-.368.083-1.379.218-2.758.437-4.146.6a3.21,3.21,0,0,0-1.207.142l-.369.007-.368.006-.74.083a12.968,12.968,0,0,0-1.513.092,56.936,56.936,0,0,1-6.835-.35c-1.777-.216-3.541-.5-5.289-.858-1.241-.257-2.46-.637-3.674-1.008a22.428,22.428,0,0,1-2.638-.919v-4.364q0-3.744,0-7.488a1.506,1.506,0,0,0-.949-1.341,1.208,1.208,0,0,0-1.469.294,1.7,1.7,0,0,0-.541,1.355q.008,4.823,0,9.647a1.056,1.056,0,0,1-.1.624,30.007,30.007,0,0,1-3.469-1.672,7.632,7.632,0,0,0-1.781-.918h0c-.089-.266-.343-.286-.555-.369l-.1-.169c0-1.556-.024-3.112.009-4.668a30.672,30.672,0,0,0-.394-4.228c-.053-.453.076-.987-.135-1.34-.417-.694-.206-1.532-.652-2.2-.131-.2.091-.5-.044-.753a4,4,0,0,1-.353-1.916c0-1.031.1-2.059.144-3.086a10.97,10.97,0,0,1,2.377-6.044,10.653,10.653,0,0,1,3.614-3.143,8.329,8.329,0,0,1,1.94-.815c.406-.1.936-.187,1.164-.678.215-.006.43-.016.645-.016l11.716,0c0,.612-.018,1.226.019,1.836a6.413,6.413,0,0,0,1.593,4.128,5.844,5.844,0,0,0,5.674,1.9,6.32,6.32,0,0,0,4.838-5.344c.1-.841.043-1.68.094-2.519,3.585,0,7.17-.014,10.754.009,1.656.011,3.311-.041,4.969.057a12.475,12.475,0,0,1,4.151.984,6.165,6.165,0,0,1,1.194.566,19.3,19.3,0,0,1,2.522,2.02,10.95,10.95,0,0,1,3.473,8.24.069.069,0,0,0,0,.073l.03.545c-.006.013-.019.028-.016.038a.5.5,0,0,0,.032.076l0,.264c-.008.01-.023.019-.023.028a.408.408,0,0,0,.013.069c-.012.183-.033.365-.035.548a36.34,36.34,0,0,1-.212,4.6.455.455,0,0,0-.094.339c-.283.5-.1,1.075-.245,1.6l-.029.226a.244.244,0,0,0-.075.232.059.059,0,0,0-.014.069,3.969,3.969,0,0,0-.161,1.772c-.246.27.092.551-.016.823l-.06.091-.007.281q-.013.435-.026.869v.141l-.1.092a7.619,7.619,0,0,0-1.375,1.017,4.983,4.983,0,0,0-.743.634l-.828.564-.188.172a4.542,4.542,0,0,0-1.024.737l-.268.18a2.6,2.6,0,0,0-.644.382l-.648.454c-.157,0-.245.127-.368.19-.2.168-.485.222-.65.445a.722.722,0,0,0-.469.278.551.551,0,0,0-.358.192,1.488,1.488,0,0,0-.463.273.316.316,0,0,0-.279.177.731.731,0,0,0-.474.275,9.168,9.168,0,0,0-1.924.931l-.924.375-.272.09c-.137-1.48-.093-2.965-.1-4.448,0-.827,0-1.655,0-2.482q0-1.793,0-3.585a1.586,1.586,0,0,0-.868-1.369,1.2,1.2,0,0,0-1.38.123,1.6,1.6,0,0,0-.709,1.454q.006,5.792,0,11.584c-.145.174-.4.118-.555.278l-.277.092a1.582,1.582,0,0,0-.646.2" transform="translate(-36.715 -113.158)" fill="#c4d2dd"/>
        <path id="Trazado_642107" data-name="Trazado 642107" d="M9.92,110.7l-.205-.117a3.074,3.074,0,0,0-.663-1.009l-.125-.171c0-.073.01-.154-.082-.19v0l-.105-.161.333-.4c-.1-.121-.332-.06-.32-.28.028-.533-.286-.543-.675-.435-.052-.022-.129-.029-.152-.068A19.455,19.455,0,0,1,6.806,106c.191-.029.331-.1.327-.342a.449.449,0,0,0-.351.311.559.559,0,0,1-.171-.3c.03-.222.419-.457.049-.651-.208-.11-.156-.195-.138-.344.031-.252.042-.494-.33-.516-.3-.017-.209-.187-.1-.342a.213.213,0,0,0-.026-.323c-.14-.11-.261-.037-.356.076a1.751,1.751,0,0,0-.143.23c-.318-.385-.327-.934-.7-1.293a.187.187,0,0,0-.086-.184l-.108-.346a.492.492,0,0,1,.3-.2c.211-.072.226-.282.1-.352-.364-.209-.212-.794-.7-.895-.032-.007-.071-.105-.066-.157.053-.5-.287-.528-.645-.535a.056.056,0,0,1-.02-.069.863.863,0,0,0,.12-.189c.073-.237.331-.461.208-.7-.141-.276-.463-.106-.7-.138l-.131-.2L3.1,98.276c.113-.016.283.02.266-.157-.022-.228-.2-.221-.379-.187H3c-.017-.04-.032-.079-.049-.119l-.11-.369c.032-.164.331-.173.247-.393-.077-.2-.274-.151-.437-.157l0,0L2.6,96.808a.165.165,0,0,1,.012-.212l-.065-.065.008,0-.071-.1a.083.083,0,0,1-.021-.084c.058-.233.351-.557-.214-.55a1.187,1.187,0,0,1-.166-.533c.32-.408.206-.764-.273-.854-.053-.013-.083-.039-.065-.1.417-.313.327-.806.428-1.228.051-.214-.117-.245-.282-.24-.2.006-.4.018-.521-.183l-.033-.13c.192-.481.732-.948.056-1.464a.207.207,0,0,1-.059-.122c-.086-.505-.245-1-.323-1.5-.091-.581-.148-1.174-.2-1.764-.022-.246-.11-.372-.364-.358q-.039-.277-.078-.555c.009-.009.026-.021.024-.027a.376.376,0,0,0-.03-.059l-.127-.559.03.011a1.524,1.524,0,0,0,.191-1.192c-.236-.253-.17-.413.053-.6a.308.308,0,0,0,.108-.291A6.627,6.627,0,0,1,.67,82.673c.065-1.2-.02-2.412-.05-3.619A.513.513,0,0,0,.084,78.5v-.184a.511.511,0,0,0,.495-.492.583.583,0,0,0-.347-.62c.015-.12.029-.24.044-.36.129-.016.231-.072.24-.212.01-.164-.1-.23-.247-.248L.345,76.2c.138-.051-.046-.128.015-.185.01-.008.03-.018.029-.024a.34.34,0,0,0-.024-.064c.007-.065.015-.13.023-.195l.038-.119.022-.241c.6-.211.612-1.069.258-1.577a.678.678,0,0,1-.035-.067A1.4,1.4,0,0,0,.7,73.07l.089-.1c.067-.007.156.006.156-.09,0-.029-.079-.058-.121-.086a2.11,2.11,0,0,1,.151-.828l.144-.459c.452.089.63-.122.67-.554a.835.835,0,0,0-.071-.437.547.547,0,0,1,.148-.658c.419-.442.338-.869-.209-1.111-.025-.058,0-.085.056-.1a.442.442,0,0,0,.321-.121c.629-.478.387-1.065.239-1.645a.5.5,0,0,1,.112-.343c.495-.045.544-.135.319-.569a.926.926,0,0,1-.05-.169.345.345,0,0,1,.093-.275c.578.025.31-.252.175-.482l.013-.337a.348.348,0,0,1,.077-.013c.223.023.442,0,.532-.235.083-.219-.1-.317-.258-.411.009-.029.019-.058.027-.087l.06-.116-.008,0c.259.047.542.053.533-.291a.586.586,0,0,1,.233-.487.638.638,0,0,0,.172-.363c.032-.324-.22-.735.322-.881.064-.017.023-.138,0-.21s-.022-.173.058-.2c.662-.217.247-.528.076-.817l0-.026.022-.014a.19.19,0,0,0,.089-.194l0,0c.562-.147.578-.18.273-.575a.343.343,0,0,1,.115-.248c.175-.019.431.078.5-.136.172-.561.873-.834.809-1.517-.006-.058.066-.143.125-.183a1.014,1.014,0,0,0,.338-.564c.1-.279.167-.641.45-.8a1.08,1.08,0,0,0,.564-.777.765.765,0,0,1,.354-.567.593.593,0,0,0,.4-.55c.005-.148.134-.267.239-.382.191-.211.48-.414.524-.656a.919.919,0,0,1,.446-.688.768.768,0,0,0,.322-.38c.306-.859,1.3-1.264,1.477-2.208.516-.15.21-.41.087-.646,0-.024,0-.047-.005-.071a1.677,1.677,0,0,0,.383-.476l.061-.067.24-.181c.272.368.518.336.786-.022a6.819,6.819,0,0,1,.7-.784c.519-.507,1.074-.981,1.579-1.5.292-.3.455-.721.885-.9.123-.051.084-.185-.027-.254s-.246-.063-.245-.229a.39.39,0,0,1,.233-.2c.677.244.742.206.872-.532a1.321,1.321,0,0,0,.009-.18l.008,0,.271-.007a2.972,2.972,0,0,1,.274.737c-.172.1-.333.293-.22.426.233.274.408.625.774.77l.093.183c-.438.817-.374.923.553.922h.092a1.726,1.726,0,0,1,.376.535c0,.12,0,.24-.009.36-.023.293.039.5.4.5a2.194,2.194,0,0,1,.44.077l.085.087c-.024.27.1.4.371.373h0c-.011.8.07.88.831.834.09-.005.182,0,.272,0h0c.023.234.026.5.377.263l.731.389a.843.843,0,0,1-.027.131c-.049.126-.126.274.005.368s.239-.049.34-.131c.046-.037.1-.068.146-.1a4.245,4.245,0,0,1,.921.377c.01.228-.014.4-.305.47s-.064.181.033.261c-.221.233-.433.476-.665.7A35.951,35.951,0,0,0,18.169,59c-.1.027-.307-.058-.181.185a.9.9,0,0,1-.277.46c-.139.041-.351.035-.183.277l-.469.918c-.347-.023-.381.2-.365.461h0c-.253.058-.393.182-.276.46a5.143,5.143,0,0,1-.655,1.3c-.514.952-.849,1.985-1.378,2.927-.576.252-.661.464-.369.921a25.28,25.28,0,0,1-1.333,3.645.342.342,0,0,0-.035.216,1.683,1.683,0,0,1-.095.891c-.33.937-.357,1.941-.665,2.882-.467.113-.209.343-.09.551.028.872-.321,1.7-.28,2.576-.066.014-.155.015-.133.111.007.032.087.049.133.073a13.78,13.78,0,0,0-.165,2.181c-.1,1.54.042,3.083.08,4.624-.232.031-.245.231-.24.382.006.177.185.168.325.172.029.9.282,1.768.341,2.666.033.509.265,1.007.294,1.516a11.678,11.678,0,0,0,.534,2.329,41.226,41.226,0,0,0,1.6,4.8c-.244.029-.314.151-.183.363.109.177.225.352.464.372l1.478,3.036c-.094.048-.194.109-.149.229.056.15.2.141.335.138a.623.623,0,0,1,.278.459c-.268.473.1.6.414.75l-.231.449c-.092.014-.232-.034-.24.108-.007.116.107.155.214.168q-.042.231-.085.462c-.01.008-.029.017-.028.023a.346.346,0,0,0,.019.062.894.894,0,0,1-.162.463c-.355.125-.422.3-.1.553a15.045,15.045,0,0,0-.088,2.051q.007,2.672.022,5.343l.06.144c0,.033,0,.066,0,.1-.261.211-.226.363.092.457a.947.947,0,0,1,.108.551c-.042.111-.156.241.076.277q.036.23.072.46c-.133.023-.236.09-.224.235s.142.126.245.133c.029.123.059.245.087.368-.059.011-.129.022-.121.1s.079.077.138.086c.125.134.084.3.1.46,0,.1-.014.2.079.271.027.155.054.309.08.464-.409.229-.4.841.011,1.288q.009.136.017.272c-.13.3-.307.234-.478.048-.1-.11-.156-.27-.268-.365-.852-.724-1.514-1.647-2.4-2.325-.227-.175-.294-.473-.539-.554a1.221,1.221,0,0,0-.867-.112l-.153-.149c.176-.08.221-.21.112-.367a2.582,2.582,0,0,0-.548-.712c-.367-.247-.422-.445.01-.759-.333-.025-.754.219-.649-.337,0-.013-.072-.055-.113-.058-.485-.042-.641-.362-.67-.786-.014-.212-.1-.274-.3-.165a3.048,3.048,0,0,1-.29.124M.937,75.578c.025.011.055.035.073.028s.024-.045.034-.07c-.025-.011-.055-.035-.072-.028s-.024.045-.034.07" transform="translate(-0.053 -27.816)" fill="#0054ca"/>
        <path id="Trazado_642108" data-name="Trazado 642108" d="M213.48,113.978l.029-.226c.529-.045.59-.151.642-.667.041-.409-.294-.611-.4-.931a.456.456,0,0,1,.094-.339c.513-.04.69-.307.68-.822-.006-.317-.18-.581-.136-.922.06-.463.079-.938.113-1.408a6.951,6.951,0,0,1,.281-2.823c.121-.195.227-.4.366-.581a40.977,40.977,0,0,0,3.689-5.735c.814-1.529,1.46-3.13,2.135-4.72.119-.02.231-.043.089-.186a3.412,3.412,0,0,1,.281-.918c.2-.039.24-.127.09-.277.293-1.034.653-2.055.861-3.105.218-1.1.391-2.214.588-3.314a46.327,46.327,0,0,0,.473-4.674,26.576,26.576,0,0,0-.092-4.391,10.23,10.23,0,0,0-.1-1.366,25.173,25.173,0,0,0-.713-3.753c.066-.014.158-.011.14-.109-.006-.032-.087-.05-.133-.075a3.169,3.169,0,0,0-.059-.681c-.227-.757-.413-1.527-.65-2.281a25.764,25.764,0,0,0-1.355-3.781,3.16,3.16,0,0,1-.527-1.346.167.167,0,0,0-.177-.189c-.135-.3-.174-.637-.331-.942-.721-1.408-1.552-2.751-2.378-4.1-.545-.889-1.157-1.725-1.767-2.567a41.735,41.735,0,0,0-4.728-5.178,12.142,12.142,0,0,1-1.424-1.285.88.88,0,0,1,.449-.939,5.233,5.233,0,0,0,1.234-1.2c.238-.334.854-.7.262-1.247l.169-.206a.457.457,0,0,1,.132.03c.152.086.292.246.479.062a.407.407,0,0,0,.056-.57.661.661,0,0,1-.1-.428.473.473,0,0,1,.152-.3l.045,0a.6.6,0,0,0,.7-.429c.084-.37-.384.048-.44-.222l.208-.539.074-.187a.7.7,0,0,1,.287-.563.694.694,0,0,0,.082.024l0,0c.012.052.037.087.1.079l.1.1c-.113.088-.146.212-.049.309.136.137.277-.049.421-.033l.183.095.084.085.006.006.086.082.42.393,1.141,1.1,0,0a3.493,3.493,0,0,0,.651.648l.907.918.47.494.316.33c0,.019-.007.038-.011.058-.03.6-.03.6.45.49.028.006.056.013.083.022l1.179,1.514c-.149.092-.41.178-.265.385.194.275.416.641.871.37l.071.093a1.522,1.522,0,0,0-.071.262c-.021.22-.1.449.109.638.224.2.388-.025.578-.063l.913,1.266c-.2.088-.484.232-.264.43.2.179.435.458.793.395l-.01.021.006-.022c-.025.1-.052.2-.075.305s-.175.21-.052.321c.1.093.228.016.341-.023a1.745,1.745,0,0,1,.176-.041l.122.114.57.918c.005.045.01.09.015.135a1.414,1.414,0,0,0,.1.937c.175.35.538.672.459,1.153-.034.209.173.257.356.253s.318.071.255.269c-.183.572.158.455.478.376v0a.2.2,0,0,0,.093.179L225,59c-.178.3.143.973.584,1.216a.043.043,0,0,1,.024.058.812.812,0,0,0,.04.921,3.063,3.063,0,0,0,.283.4c.217.227.427.459.27.839-.122.3.332.876.668.911a30.056,30.056,0,0,1,1.314,3.946c-.095.137-.317.223-.23.435.069.169.252.117.4.126l.112.185.015.089.169.908.063.194.231.651.057.14c.008.044.015.089.023.133.007.188-.063.388.092.552l-.027.092c-.113.014-.234.051-.224.18.014.172.149.253.314.28l.088.193a.61.61,0,0,0,.106.382L229.4,72l-.036-.008c-.009.01-.027.024-.025.031a.384.384,0,0,0,.036.064c.078.113-.072.279.087.374q.043.411.085.823c-.059.011-.127.022-.122.1s.074.079.133.087l.03.092c-.007.062-.015.123-.023.185-.274.664-.242.806.206.918a.32.32,0,0,1,.056.276c-.059.01-.129.02-.125.1s.075.079.133.088c.011.06.022.12.033.18-.206.205.117.365.049.559-.009.009-.028.021-.026.027a.364.364,0,0,0,.031.061l.052.277c-.007.092-.014.184-.022.276a.15.15,0,0,0-.013.086,1.616,1.616,0,0,0-.094.571c.039.227-.131.538.251.63q.023.184.046.368-.018.184-.036.368c-.052.028-.149.056-.149.085,0,.654-.4,1.243-.319,1.909a1.659,1.659,0,0,1,.076.532c-.167.682.231,1.3.183,1.971a.245.245,0,0,0,.235.286q0,.368.008.736l-.037.186c-.01.009-.029.019-.028.026a.378.378,0,0,0,.023.068l.036-.008-.119.74c-.354.141-.055.37-.075.556q-.011.505-.023,1.01l-.069.1q-.009.134-.018.268c-.178-.014-.394-.212-.511.076-.083.2.034.354.215.444a.725.725,0,0,0,.224.033c.034.566-.255,1.091-.215,1.658l-.064.094c-.005.09-.011.18-.016.27-.119.021-.3-.058-.329.124s.132.231.285.253l-.012.175c-.122.1-.1.245-.143.373l-.053.118-.036.157-.066.092a.2.2,0,0,1-.017.088c-.121.02-.31-.056-.328.129a.426.426,0,0,0,.259.426q0,.275,0,.549l-.218.368c-.214.024-.463.035-.493.3-.018.163.125.269.314.25a1.979,1.979,0,0,1-.191,1.1c-.076,0-.153,0-.228,0-.1.009-.24-.039-.26.109-.013.1.094.147.179.182.069.03.142.051.213.076A3.6,3.6,0,0,1,228,95.451c-.112,0-.224.027-.245.154-.017.1.082.106.155.122-.008.108-.016.216-.024.324-.232.058-.1.293-.2.413l-.054.114-.092.433a.045.045,0,0,0-.019.061l-.064.121-.022.093a3.24,3.24,0,0,0-.283.826l-.187.279c-.556.076-.36.425-.268.735l-.133.285-.048.086h0c-.384-.03-.189.219-.182.377-.011.17,0,.35-.179.453-.2-.013-.358.038-.381.277a.466.466,0,0,1-.183.345c-.375.288-.384.459-.059.862l-.215.536-.049.075c-.357.529-.5,1.172-.916,1.672-.159.043-.326-.175-.459-.028-.159.176.046.319.106.475a.981.981,0,0,1,.03.219l-.2.347a.827.827,0,0,0-.638,1.106l-.534.925-.039-.014c-.293,0-.382.33-.647.387-.221.047-.317.178-.383.426a2.279,2.279,0,0,1-.522,1.031,1.146,1.146,0,0,0-.345.97l-.1.141c-.289-.087-.634-.174-.728.2a3.241,3.241,0,0,1-1.09,1.516,1.056,1.056,0,0,0-.413,1.127l-.457.567-.26.176a1.726,1.726,0,0,0-1.223,1.279c0,.029-.01.058-.016.087a1.83,1.83,0,0,0-.452.453,3.613,3.613,0,0,0-.654.652l-.451.372a.8.8,0,0,0-.678.3,1.1,1.1,0,0,1-1.049.438q0-.141.006-.281l.06-.091c.108-.272-.229-.553.016-.823.328-.076.4-.329.449-.616a1.715,1.715,0,0,0-.289-1.157.059.059,0,0,1,.014-.069.226.226,0,0,0,.075-.233" transform="translate(-131.552 -27.476)" fill="#0054ca"/>
        <path id="Trazado_642109" data-name="Trazado 642109" d="M120.883,1.641l1.082.577a1.889,1.889,0,0,0,.582.361,1.146,1.146,0,0,0,.433.287,1.052,1.052,0,0,0,.4.267,19.421,19.421,0,0,1,2.971,2.844l1.087,1.39c.394.723.831,1.425,1.173,2.171a18.624,18.624,0,0,1,1.519,6.65,28.771,28.771,0,0,1-.288,2.941c-.244.856-.5,1.71-.725,2.57-.054.206-.267.4-.1.641-.378.261-.412.722-.625,1.08a10.514,10.514,0,0,1-1.235,1.964c-.344-.067-.535.229-.784.323-.851.32-1.682.708-2.556.962a17.633,17.633,0,0,1-3.651.861,13.641,13.641,0,0,1-3.756-.082,21.315,21.315,0,0,1-4.081-1.2,16.073,16.073,0,0,1-5.586-3.862.5.5,0,0,1-.167-.407c.578.243,1.147.511,1.736.724a13.2,13.2,0,0,0,5.458.86,18.8,18.8,0,0,0,2.255-.06,16.354,16.354,0,0,0,5.478-1.911,16.258,16.258,0,0,0,3.273-2.512,1.373,1.373,0,0,0,.3-1.6,1.515,1.515,0,0,0-1.422-.921.77.77,0,0,0-.563.139,15.215,15.215,0,0,1-1.908,1.48,15.961,15.961,0,0,1-3.318,1.84,11.039,11.039,0,0,1-3.33.581,12.154,12.154,0,0,1-5.9-1.07,14.635,14.635,0,0,1-3.832-2.477,1.439,1.439,0,0,0-1.553-.407,4.023,4.023,0,0,0-.142-.712,12.556,12.556,0,0,1-.681-3.839,15.148,15.148,0,0,1,.889-6.052,8.839,8.839,0,0,1,.85-1.963,1.019,1.019,0,0,0,.1-1.034A16.332,16.332,0,0,1,108.784.808c.725-.228,1.479-.368,2.22-.547a2.241,2.241,0,0,0,.923-.092l.739-.1c.191.014.386.082.564-.047L114.421,0a3.3,3.3,0,0,0,1.016.1l.373.065.043.014L115.9.168l.187.011.462.078.822.147.287.072.037,0,.145.065,1.019.271.165.045V.841l.11.069,1.639.661.115.07m-2.158,6.924a3.87,3.87,0,0,0-2.7.927,1.736,1.736,0,0,0-.854,1.093A1.387,1.387,0,0,0,115.688,12a1.3,1.3,0,0,0,1.646.117,4.625,4.625,0,0,1,.547-.337,1.437,1.437,0,0,1,1.308-.152,6.037,6.037,0,0,1,.884.467,1.27,1.27,0,0,0,1.309.118,1.5,1.5,0,0,0,.2-2.634,3.938,3.938,0,0,0-2.856-1.016m-9.389-.011a4.942,4.942,0,0,0-3.525,1.184,1.465,1.465,0,0,0-.283,1.947c.485.6,1.142.972,1.878.44a2.069,2.069,0,0,1,2.867.031c.536.45,1.221.241,1.818-.4a1.3,1.3,0,0,0,.062-1.644,3.954,3.954,0,0,0-2.815-1.559" transform="translate(-64.437)" fill="#ff5657"/>
        <path id="Trazado_642110" data-name="Trazado 642110" d="M172.636,19.623a18.631,18.631,0,0,0-1.518-6.65c-.342-.746-.78-1.449-1.173-2.171a1.307,1.307,0,0,0,.179-.357,7.066,7.066,0,0,1,.712-2.182,1.185,1.185,0,0,0,.219-.731c.285-.313.712-.419,1.023-.693a.429.429,0,0,0,.3-.176,1.14,1.14,0,0,0,.538-.26c.1-.023.2-.017.273-.107a15.069,15.069,0,0,1,3.053-.779c.272-.035.548-.049.821-.072l.83.006,1.387.173.369.09a14.228,14.228,0,0,1,3.042,1.053.759.759,0,0,0,.375.237l1.671,1.212a.4.4,0,0,0,.259.212,18.1,18.1,0,0,1,1.872,2.366,1.692,1.692,0,0,0,.34.572l.727,1.673.136.514.073.276a9.6,9.6,0,0,0,.329,1.758q.022.363.044.725c0,.123,0,.245,0,.368a17.361,17.361,0,0,1-.27,1.84l-.086.368q-.012.182-.023.365l.012.26a.7.7,0,0,0-.287.563l-.074.188-.209.539-.3.648a.47.47,0,0,0-.152.3l-.566.906-.169.206-.106.069c-.241.031-.493-.051-.726.065a11.578,11.578,0,0,1-3.175,1,10.821,10.821,0,0,1-3.87-.1,14.416,14.416,0,0,1-3.153-1.119c-.194-.085-.451-.165-.424-.47a12.43,12.43,0,0,1,1.553-.126c2.138-.376,4.295-.619,6.446-.89a1.753,1.753,0,0,0,1.593-1.356,1.6,1.6,0,0,0-1.863-1.631,16.877,16.877,0,0,1-1.854.306c-1.6.133-3.178.437-4.773.617-1.138.128-2.268.329-3.413.4m9.779-6.271c0-.157.008-.28,0-.4-.072-.913-.536-1.4-1.348-1.423a1.347,1.347,0,0,0-1.343.7,1.988,1.988,0,0,0,.016,2.09,1.43,1.43,0,0,0,2.106.408,1.448,1.448,0,0,0,.571-1.375m-6.551-.122c0-.1.008-.251,0-.4a1.376,1.376,0,0,0-1.155-1.3,1.359,1.359,0,0,0-1.642,1.038,3.073,3.073,0,0,0-.043,1.228,1.43,1.43,0,0,0,1.62,1.216,1.529,1.529,0,0,0,1.221-1.782" transform="translate(-106.946 -3.435)" fill="#ffbc86"/>
        <path id="Trazado_642111" data-name="Trazado 642111" d="M43.641,196.9q-.011-2.672-.022-5.343a14.987,14.987,0,0,1,.088-2.051,1.439,1.439,0,0,0,.1-.552.9.9,0,0,0,.162-.464.087.087,0,0,0,.008-.085c.029-.154.057-.308.086-.462.009-.092.018-.184.027-.276l.231-.448q.062-.189.126-.377a12.463,12.463,0,0,1,7.754-6.92,18.867,18.867,0,0,1,6.113-.516c-.228.491-.759.58-1.164.678a8.315,8.315,0,0,0-1.94.815,10.654,10.654,0,0,0-3.614,3.143,10.971,10.971,0,0,0-2.378,6.044c-.047,1.027-.142,2.054-.144,3.085a4,4,0,0,0,.353,1.916c.135.257-.087.557.044.753.447.669.235,1.507.652,2.2.212.352.082.886.135,1.34a30.728,30.728,0,0,1,.395,4.228c-.033,1.555-.009,3.112-.01,4.668l-.634-.3a1.507,1.507,0,0,0-.194-.192,52.967,52.967,0,0,1-4.345-3.2,6.141,6.141,0,0,1-1.02-.805,1.718,1.718,0,0,0,.006-1.212c-.006-.091-.011-.182-.017-.272A6.886,6.886,0,0,0,44.432,201l-.08-.464c.011-.1.021-.2-.079-.271-.012-.157.03-.326-.1-.46l-.017-.185-.087-.368c-.007-.123-.014-.245-.02-.368l-.072-.46c.013-.1.028-.206-.076-.277a.947.947,0,0,0-.108-.551c.053-.169-.087-.3-.092-.457,0-.033,0-.066,0-.1l-.06-.144" transform="translate(-27.449 -113.16)" fill="#b5c3cf"/>
        <path id="Trazado_642112" data-name="Trazado 642112" d="M95.8,8.238a1.02,1.02,0,0,1-.1,1.034,8.835,8.835,0,0,0-.85,1.962,15.149,15.149,0,0,0-.889,6.052,12.551,12.551,0,0,0,.681,3.839,4.028,4.028,0,0,1,.142.713,1.1,1.1,0,0,1-.139.115,1.408,1.408,0,0,0-.55,2,6.664,6.664,0,0,0,1.87,1.739c.695.52,1.427.99,2.143,1.482a.5.5,0,0,0,.167.407,16.068,16.068,0,0,0,5.586,3.862,21.315,21.315,0,0,0,4.081,1.2,13.627,13.627,0,0,0,3.756.082,17.656,17.656,0,0,0,3.651-.86c.874-.254,1.7-.642,2.556-.962.249-.093.44-.389.784-.323a8.128,8.128,0,0,1-.718,1.119,16.087,16.087,0,0,1-1.383,1.445c-.107,0-.215.013-.323.013H94.481c-.169,0-.338-.013-.507-.02-.083-.325-.4-.446-.6-.67a17.755,17.755,0,0,1-3.185-4.943L89.6,25.8q-.186-.833-.371-1.667c-.055-.32-.113-.639-.165-.959a23.11,23.11,0,0,1-.11-2.676c.1-.5.217-.994.288-1.5a16.146,16.146,0,0,1,1.388-4.517,18.64,18.64,0,0,1,1.97-3.2c.132-.162.346-.253.413-.472a14.462,14.462,0,0,1,2.4-2.269.473.473,0,0,0,.269-.216l.128-.085" transform="translate(-55.979 -5.197)" fill="#fe4343"/>
        <path id="Trazado_642113" data-name="Trazado 642113" d="M71.423,9.529a18.626,18.626,0,0,0-1.97,3.2,16.146,16.146,0,0,0-1.388,4.517c-.07.5-.19,1-.287,1.5a2.458,2.458,0,0,1-.467-.184,7.687,7.687,0,0,0-4.643-1.147,8.841,8.841,0,0,0-3.959,1.171,14.381,14.381,0,0,1-1.44.965.241.241,0,0,0-.018-.089,10.662,10.662,0,0,1-1.88-5.049,11.944,11.944,0,0,1,.1-3.331,11.834,11.834,0,0,1,1.066-3.009c.087-.176.14-.342-.031-.5.187-.27.552-.279.761-.515A23.1,23.1,0,0,1,59.5,6.032a.087.087,0,0,0,.075-.02l.47-.142.268-.051,1.672-.324.175-.021a20.779,20.779,0,0,1,2.4.1.1.1,0,0,0,.085.012.531.531,0,0,0,.377.07l1.746.482.273.114a1.773,1.773,0,0,1,.646.265l.29.142.548.3a22.686,22.686,0,0,1,2.022,1.49l.172.161a1.264,1.264,0,0,0,.393.365l0,0c.1.191.314.314.315.558m-6.677,3.62a1.591,1.591,0,0,0,1.168,1.7,1.461,1.461,0,0,0,1.6-.621,2.235,2.235,0,0,0,.193-1.679,1.472,1.472,0,0,0-1.684-1.109,1.563,1.563,0,0,0-1.274,1.706m-3.605-.018c0-.143,0-.311,0-.479a1.468,1.468,0,0,0-1.864-1.165,1.89,1.89,0,0,0-.523,3.036,1.386,1.386,0,0,0,1.736.179,1.48,1.48,0,0,0,.651-1.571" transform="translate(-34.802 -3.447)" fill="#49b5fb"/>
        <path id="Trazado_642114" data-name="Trazado 642114" d="M50.714,11.179c.171.157.118.322.03.5a11.855,11.855,0,0,0-1.065,3.008,11.93,11.93,0,0,0-.1,3.331,10.658,10.658,0,0,0,1.88,5.049.251.251,0,0,1,.018.089.493.493,0,0,1-.183.307,1.423,1.423,0,0,0-.127,1.988,1.612,1.612,0,0,0,2.021.2c.152-.095.285-.244.493-.216a1.275,1.275,0,0,1,.513.292,11.168,11.168,0,0,0,6.7,2.014c.581-.005,1.156-.134,1.741-.091l.589,1.728a13.121,13.121,0,0,1-3.18,1.341,12.771,12.771,0,0,1-4.327.273c-.694-.056-1.32-.4-2.019-.4l-.285-.167a4.243,4.243,0,0,0-.922-.377l-.464-.266-.732-.389a.784.784,0,0,0-.376-.263h0a8.254,8.254,0,0,0-1.1-.834h0a1.06,1.06,0,0,0-.371-.373l-.085-.087a4.3,4.3,0,0,0-.834-.933,1.731,1.731,0,0,0-.376-.535l-.644-.921-.093-.183-.555-1.2a2.971,2.971,0,0,0-.274-.737c-.012-.09,0-.189-.077-.26a3.855,3.855,0,0,0-.3-1.583l-.011-.271a.42.42,0,0,0-.1-.368,3.688,3.688,0,0,0,0-.922.094.094,0,0,0,0-.088q0-.231.009-.462l.079-.552.044-.265.047-.195a1.77,1.77,0,0,0,.128-.77,1.017,1.017,0,0,0,.146-.518.827.827,0,0,0,.126-.413l.068-.137a.093.093,0,0,0,.015-.085,1.412,1.412,0,0,0,.216-.542l-.011.008.061-.118a20.234,20.234,0,0,1,1.058-1.917l1.065-1.306L49.8,11.9a.564.564,0,0,0,.268-.251l.643-.469" transform="translate(-29.007 -7.052)" fill="#01a3fb"/>
        <path id="Trazado_642115" data-name="Trazado 642115" d="M179.432,246.8q0-5.792,0-11.584a1.6,1.6,0,0,1,.709-1.454,1.2,1.2,0,0,1,1.38-.123,1.585,1.585,0,0,1,.868,1.369c0,1.2,0,2.39,0,3.585,0,.828,0,1.655,0,2.482,0,1.483-.04,2.967.1,4.448l-.561.352a1.591,1.591,0,0,0-.648.276c-.637.151-1.194.53-1.844.649" transform="translate(-112.915 -147.279)" fill="#b5c3cf"/>
        <path id="Trazado_642116" data-name="Trazado 642116" d="M20.649,58.735c.123.236.429.5-.087.646-.179.944-1.171,1.349-1.477,2.208a.766.766,0,0,1-.322.38.92.92,0,0,0-.447.688c-.043.243-.333.446-.524.656-.1.116-.234.235-.239.383a.593.593,0,0,1-.4.55.764.764,0,0,0-.354.567,1.08,1.08,0,0,1-.564.777c-.282.155-.346.517-.45.8a1.01,1.01,0,0,1-.338.564c-.059.04-.13.126-.125.183.064.682-.638.956-.809,1.517-.065.214-.321.117-.5.136l.27-.643a.188.188,0,0,0,.086-.185l1.852-3.217.065-.091a6.373,6.373,0,0,0,.679-1.09l.075-.108.056-.075.25-.374-.007,0,.082-.109h0a1.318,1.318,0,0,0,.315-.446l.7-1.045.056-.067.255-.36.464-.552.328-.386.075-.09a1.041,1.041,0,0,0,.293-.375l.069-.078a.052.052,0,0,0,.037-.061l.1-.121.445-.562.082-.019" transform="translate(-8.822 -37.052)" fill="#0155ca"/>
        <path id="Trazado_642117" data-name="Trazado 642117" d="M0,141.425V138.39l.031-1.1a.514.514,0,0,1,.537.557c.03,1.207.115,2.417.05,3.619a6.606,6.606,0,0,0-.051,1.386.307.307,0,0,1-.108.29c-.223.184-.289.343-.053.6a1.525,1.525,0,0,1-.191,1.191q-.022-.327-.043-.654a.128.128,0,0,0-.041-.153q-.022-.382-.044-.765a.084.084,0,0,0,0-.086A16.81,16.81,0,0,1,0,141.425" transform="translate(0 -86.605)" fill="#0155ca"/>
        <path id="Trazado_642118" data-name="Trazado 642118" d="M37.407,46.587c0,.166.147.168.245.229s.151.2.026.254c-.43.178-.592.6-.884.9-.506.521-1.059.994-1.579,1.5a6.822,6.822,0,0,0-.7.784c-.268.358-.513.39-.785.022.36-.461.849-.8,1.182-1.288l.095-.1.465-.507.031-.008.008-.031,1.892-1.757" transform="translate(-21.229 -29.389)" fill="#0155ca"/>
        <path id="Trazado_642119" data-name="Trazado 642119" d="M169.209,11.1a1.186,1.186,0,0,1-.219.731,7.056,7.056,0,0,0-.712,2.182,1.309,1.309,0,0,1-.179.357l-1.087-1.39c.173,0,.205-.143.272-.252l1.488-1.391.436-.236" transform="translate(-105.101 -7.002)" fill="#f5a86b"/>
        <path id="Trazado_642120" data-name="Trazado 642120" d="M265.064,143.065a.245.245,0,0,1-.235-.286c.048-.667-.35-1.288-.183-1.971a1.657,1.657,0,0,0-.076-.532c-.082-.666.317-1.255.319-1.909,0-.028.1-.056.149-.085a31.089,31.089,0,0,1,.085,4.242,4.889,4.889,0,0,1-.06.541" transform="translate(-166.487 -87.234)" fill="#0155ca"/>
        <path id="Trazado_642121" data-name="Trazado 642121" d="M1.959,166.411a4.982,4.982,0,0,1-.268-1.068,3.3,3.3,0,0,0-.2-1.012,13.242,13.242,0,0,0-.243-1.524q-.057-.389-.113-.777-.036-.413-.07-.826c.254-.014.341.111.364.358.053.59.11,1.183.2,1.764.078.5.237.993.323,1.5a.206.206,0,0,0,.059.123c.675.516.136.983-.056,1.464" transform="translate(-0.673 -101.693)" fill="#0155ca"/>
        <path id="Trazado_642122" data-name="Trazado 642122" d="M29.059,227.277l-.73-.81a5.018,5.018,0,0,0-.715-.9l-.939-1.19-.058-.161a3.011,3.011,0,0,0,.29-.124c.2-.109.281-.047.3.165.029.424.185.744.67.786.041,0,.115.045.113.058-.106.556.316.312.648.337-.433.314-.377.512-.01.759a2.583,2.583,0,0,1,.548.712c.109.157.064.286-.112.367" transform="translate(-16.75 -141.334)" fill="#0155ca"/>
        <path id="Trazado_642123" data-name="Trazado 642123" d="M3.368,110.875c.547.241.628.669.209,1.111a.547.547,0,0,0-.148.658.841.841,0,0,1,.071.437c-.041.432-.218.643-.67.554l-.027-.092.248-1.288a5.66,5.66,0,0,0,.267-1.085l.05-.295" transform="translate(-1.764 -69.944)" fill="#0155ca"/>
        <path id="Trazado_642124" data-name="Trazado 642124" d="M248.828,79.61c-.321.079-.661.2-.478-.376.063-.2-.066-.274-.255-.27s-.39-.044-.356-.253c.079-.482-.284-.8-.459-1.153a1.414,1.414,0,0,1-.1-.937,31.7,31.7,0,0,1,1.646,2.989" transform="translate(-155.529 -48.335)" fill="#0155ca"/>
        <path id="Trazado_642125" data-name="Trazado 642125" d="M10.327,88.811c.171.29.586.6-.076.818-.079.026-.084.119-.057.2s.065.193,0,.21c-.542.147-.291.557-.322.881a.638.638,0,0,1-.172.363.587.587,0,0,0-.232.487c.009.344-.274.337-.534.291a23.112,23.112,0,0,1,1.392-3.249" transform="translate(-5.623 -56.025)" fill="#0155ca"/>
        <path id="Trazado_642126" data-name="Trazado 642126" d="M234.162,226.474a1.055,1.055,0,0,1,.413-1.127,3.243,3.243,0,0,0,1.09-1.516c.094-.377.439-.291.728-.2l-.422.653-.054.076-.085.1a.785.785,0,0,0-.292.348l-.207.234-.487.591-.217.3-.467.551" transform="translate(-147.325 -141.025)" fill="#0155ca"/>
        <path id="Trazado_642127" data-name="Trazado 642127" d="M9.755,195.09c.358.007.7.031.645.535-.005.052.033.15.066.157.483.1.33.686.695.894.122.069.106.28-.1.352a.49.49,0,0,0-.3.2,5.838,5.838,0,0,1-.623-1.215c.067-.018.172-.027.108-.126-.041-.063-.1,0-.132.051l-.252-.423c-.033-.141-.159-.259-.1-.422" transform="translate(-6.129 -123.07)" fill="#0155ca"/>
        <path id="Trazado_642128" data-name="Trazado 642128" d="M240.543,218.567a1.146,1.146,0,0,1,.346-.97,2.278,2.278,0,0,0,.522-1.031c.066-.248.162-.379.383-.426.265-.056.354-.388.647-.387-.216.5-.582.9-.84,1.377a3.993,3.993,0,0,0-.558.826.831.831,0,0,0-.257.358l-.243.253" transform="translate(-151.372 -136.105)" fill="#0155ca"/>
        <path id="Trazado_642129" data-name="Trazado 642129" d="M254.779,91.927c-.335-.036-.79-.616-.667-.911.157-.38-.053-.612-.27-.839a3.032,3.032,0,0,1-.283-.4.811.811,0,0,1-.041-.921l.156.221,1.1,2.848" transform="translate(-159.461 -56.055)" fill="#0155ca"/>
        <path id="Trazado_642130" data-name="Trazado 642130" d="M220.069,241.916a1.1,1.1,0,0,0,1.049-.438.8.8,0,0,1,.678-.3l-.284.343a5.15,5.15,0,0,0-.851.777l-.248.191c-.144-.044-.191.031-.2.158l-.174.137q.013-.435.026-.869" transform="translate(-138.473 -152.144)" fill="#0155ca"/>
        <path id="Trazado_642131" data-name="Trazado 642131" d="M4.964,105.859a.513.513,0,0,1,.076-.036c.148.58.39,1.167-.239,1.645a.444.444,0,0,1-.32.122c.017-.086.034-.172.05-.258q.111-.375.221-.751.082-.267.163-.534.023-.095.048-.189" transform="translate(-2.82 -66.757)" fill="#0155ca"/>
        <path id="Trazado_642132" data-name="Trazado 642132" d="M253.129,198.822c-.326-.4-.316-.573.059-.862a.467.467,0,0,0,.183-.345c.023-.239.176-.29.38-.277a4.64,4.64,0,0,1-.484,1.333l-.076.136v0a.219.219,0,0,1-.062.011" transform="translate(-159.147 -124.488)" fill="#0155ca"/>
        <path id="Trazado_642133" data-name="Trazado 642133" d="M1.064,126.118a10.212,10.212,0,0,0,.087-1.1l0,0c.044-.016.086-.035.067-.1l.034-.332c.025-.017.049-.034.072-.052.353.508.34,1.366-.258,1.577" transform="translate(-0.669 -78.565)" fill="#0155ca"/>
        <path id="Trazado_642134" data-name="Trazado 642134" d="M8.9,192.808l-.185-.552c0-.059,0-.118-.005-.178.242.032.564-.138.705.138.123.24-.135.465-.208.7a.85.85,0,0,1-.12.189l-.187-.3" transform="translate(-5.482 -121.156)" fill="#0155ca"/>
        <path id="Trazado_642135" data-name="Trazado 642135" d="M237,62.468c-.456.271-.678-.095-.872-.37-.146-.207.115-.294.265-.385a3.686,3.686,0,0,1,.607.756" transform="translate(-148.568 -38.93)" fill="#0155ca"/>
        <path id="Trazado_642136" data-name="Trazado 642136" d="M239.186,64.848c-.19.038-.354.266-.578.063-.207-.188-.13-.417-.109-.637a1.53,1.53,0,0,1,.071-.262l.616.837" transform="translate(-150.067 -40.381)" fill="#0155ca"/>
        <path id="Trazado_642137" data-name="Trazado 642137" d="M44.865,44.275l.286-.15a1.384,1.384,0,0,1-.009.18c-.13.738-.195.776-.872.532l.595-.562" transform="translate(-27.859 -27.836)" fill="#0155ca"/>
        <path id="Trazado_642138" data-name="Trazado 642138" d="M.231,133.775a.582.582,0,0,1,.347.62.51.51,0,0,1-.495.492q.03-.185.059-.37a.086.086,0,0,0,0-.089c.08-.211-.075-.453.085-.653" transform="translate(-0.052 -84.39)" fill="#0155ca"/>
        <path id="Trazado_642139" data-name="Trazado 642139" d="M242.814,70.531c-.358.064-.593-.215-.793-.395-.22-.2.069-.342.264-.43a3.682,3.682,0,0,1,.529.825" transform="translate(-152.254 -43.973)" fill="#0155ca"/>
        <path id="Trazado_642140" data-name="Trazado 642140" d="M247.328,211.22l-.187.175a.827.827,0,0,1,.638-1.106l-.451.931" transform="translate(-155.501 -132.658)" fill="#0155ca"/>
        <path id="Trazado_642141" data-name="Trazado 642141" d="M264.117,161.621a.726.726,0,0,1-.224-.033c-.181-.09-.3-.241-.215-.444.117-.288.334-.09.511-.076.021.191.083.386-.073.553" transform="translate(-165.915 -101.558)" fill="#0155ca"/>
        <path id="Trazado_642142" data-name="Trazado 642142" d="M252.587,86.621c-.44-.244-.762-.914-.583-1.217l.569,1.041c0,.058.01.117.015.176" transform="translate(-158.554 -53.876)" fill="#0155ca"/>
        <path id="Trazado_642143" data-name="Trazado 642143" d="M8.25,98.149c.156.095.341.192.258.411-.089.236-.309.258-.532.235-.032-.244.206-.4.207-.635a.589.589,0,0,1,.067-.011" transform="translate(-5.017 -61.916)" fill="#0155ca"/>
        <path id="Trazado_642144" data-name="Trazado 642144" d="M5.02,181.254l-.135-.279-.038-.12-.1-.456c.479.09.593.447.273.854" transform="translate(-2.987 -113.803)" fill="#0155ca"/>
        <path id="Trazado_642145" data-name="Trazado 642145" d="M249.463,207.409c-.011.062-.023.124-.034.185-.113.151-.128.36-.29.481a.982.982,0,0,0-.03-.219c-.059-.156-.265-.3-.106-.475.133-.147.3.071.46.028" transform="translate(-156.66 -130.792)" fill="#0155ca"/>
        <path id="Trazado_642146" data-name="Trazado 642146" d="M261.329,176.456c-.188.019-.332-.087-.314-.25.03-.267.279-.278.493-.3l-.18.552" transform="translate(-164.256 -110.967)" fill="#0155ca"/>
        <path id="Trazado_642147" data-name="Trazado 642147" d="M265.335,133.776c-.08.164.089.3.052.46-.382-.092-.212-.4-.251-.63a1.619,1.619,0,0,1,.093-.571c.2.224.036.5.106.742" transform="translate(-166.845 -83.923)" fill="#0155ca"/>
        <path id="Trazado_642148" data-name="Trazado 642148" d="M7.075,187.67l-.169-.041-.09-.138c.195-.092.03-.25.07-.371.163.005.36-.048.437.157.083.22-.215.229-.248.393" transform="translate(-4.289 -118.041)" fill="#0155ca"/>
        <path id="Trazado_642149" data-name="Trazado 642149" d="M244.376,72.5a1.744,1.744,0,0,0-.176.041c-.113.038-.239.115-.341.023-.122-.111.028-.214.052-.321s.05-.2.075-.306a1.784,1.784,0,0,1,.39.563" transform="translate(-153.43 -45.38)" fill="#0155ca"/>
        <path id="Trazado_642150" data-name="Trazado 642150" d="M6.292,103.635l.119-.449.087-.271a.174.174,0,0,0,.062-.017.871.871,0,0,0,.05.169c.225.433.175.524-.319.568" transform="translate(-3.96 -64.912)" fill="#0155ca"/>
        <path id="Trazado_642151" data-name="Trazado 642151" d="M256.482,192.835c-.092-.311-.288-.659.268-.735a2.381,2.381,0,0,1-.268.735" transform="translate(-161.335 -121.184)" fill="#0155ca"/>
        <path id="Trazado_642152" data-name="Trazado 642152" d="M262.59,172.194c-.05.087.023.223-.108.279a.426.426,0,0,1-.259-.426c.019-.185.206-.109.328-.129l.039.276" transform="translate(-165.015 -108.452)" fill="#0155ca"/>
        <path id="Trazado_642153" data-name="Trazado 642153" d="M13.246,86.631c.305.395.29.428-.273.575a1.254,1.254,0,0,1,.273-.575" transform="translate(-8.164 -54.65)" fill="#0155ca"/>
        <path id="Trazado_642154" data-name="Trazado 642154" d="M260.415,108.421c-.143-.01-.326.043-.4-.126-.087-.212.136-.3.23-.435.147.16.043.394.165.561" transform="translate(-163.618 -68.042)" fill="#0155ca"/>
        <path id="Trazado_642155" data-name="Trazado 642155" d="M260.424,180.755c-.071-.025-.144-.046-.213-.076-.085-.036-.192-.085-.179-.182.019-.148.161-.1.259-.109.076-.007.152,0,.228,0l-.1.368" transform="translate(-163.637 -113.794)" fill="#0155ca"/>
        <path id="Trazado_642156" data-name="Trazado 642156" d="M232.729,56.716c-.48.114-.48.114-.451-.49l.081.015.28.29.084.1,0,0c0,.03.006.059.009.089" transform="translate(-146.166 -35.47)" fill="#0155ca"/>
        <path id="Trazado_642157" data-name="Trazado 642157" d="M220.018,44.362c-.144-.016-.285.17-.421.033-.1-.1-.065-.221.049-.309a.672.672,0,0,1,.372.277" transform="translate(-138.156 -27.811)" fill="#0155ca"/>
        <path id="Trazado_642158" data-name="Trazado 642158" d="M263.578,168.364l-.077.193c-.152-.022-.317-.061-.285-.253s.209-.1.329-.124q.016.092.032.184" transform="translate(-165.639 -106.094)" fill="#0155ca"/>
        <path id="Trazado_642159" data-name="Trazado 642159" d="M7.409,100.848c.136.23.4.508-.174.482-.007-.03-.013-.059-.019-.089l.193-.393" transform="translate(-4.541 -63.619)" fill="#0155ca"/>
        <path id="Trazado_642160" data-name="Trazado 642160" d="M262.813,117.813c-.165-.027-.3-.109-.313-.28-.011-.128.111-.165.224-.18l.041.1a.211.211,0,0,0,.058.212c0,.051-.006.1-.01.152" transform="translate(-165.191 -74.031)" fill="#0155ca"/>
        <path id="Trazado_642161" data-name="Trazado 642161" d="M.581,131.555c.148.018.257.084.247.248-.009.14-.111.2-.24.212,0-.153,0-.307-.007-.46" transform="translate(-0.366 -82.99)" fill="#0155ca"/>
        <path id="Trazado_642162" data-name="Trazado 642162" d="M265.232,156.528c.02-.186-.278-.415.075-.556l.033.092-.008.368-.1.1" transform="translate(-166.848 -98.393)" fill="#0155ca"/>
        <path id="Trazado_642163" data-name="Trazado 642163" d="M255.594,195.465c-.007-.158-.2-.407.182-.377a.44.44,0,0,1-.182.377" transform="translate(-160.81 -123.067)" fill="#0155ca"/>
        <path id="Trazado_642164" data-name="Trazado 642164" d="M259.676,184.412c-.072-.016-.172-.018-.155-.122.021-.128.133-.15.245-.154-.033.091.043.218-.09.276" transform="translate(-163.316 -116.16)" fill="#0155ca"/>
        <path id="Trazado_642165" data-name="Trazado 642165" d="M264.141,124.264c-.058-.009-.128-.015-.133-.087s.063-.086.122-.1Z" transform="translate(-166.14 -78.275)" fill="#0155ca"/>
        <path id="Trazado_642166" data-name="Trazado 642166" d="M261.984,112.774l-.063-.194.063.194" transform="translate(-164.827 -71.02)" fill="#0155ca"/>
        <path id="Trazado_642167" data-name="Trazado 642167" d="M251.779,84.9a.193.193,0,0,1-.093-.179.187.187,0,0,1,.093.179" transform="translate(-158.386 -53.448)" fill="#0155ca"/>
        <path id="Trazado_642168" data-name="Trazado 642168" d="M12.831,88.177a.189.189,0,0,1-.089.194.2.2,0,0,1,.089-.194" transform="translate(-8.018 -55.625)" fill="#0155ca"/>
        <path id="Trazado_642169" data-name="Trazado 642169" d="M265.3,131.152a.365.365,0,0,1-.031-.061c0-.006.017-.018.026-.027a.087.087,0,0,1,.005.087" transform="translate(-166.933 -82.681)" fill="#0155ca"/>
        <path id="Trazado_642170" data-name="Trazado 642170" d="M265.152,160.313l.069-.1c.019.062-.024.08-.069.1" transform="translate(-166.86 -101.07)" fill="#0155ca"/>
        <path id="Trazado_642171" data-name="Trazado 642171" d="M264.154,167.289l.064-.094c.021.06-.022.076-.064.094" transform="translate(-166.232 -105.473)" fill="#0155ca"/>
        <path id="Trazado_642172" data-name="Trazado 642172" d="M8.855,97.6l-.06.116.06-.116" transform="translate(-5.535 -61.57)" fill="#0155ca"/>
        <path id="Trazado_642173" data-name="Trazado 642173" d="M263.429,170.805l.053-.118-.053.118" transform="translate(-165.776 -107.676)" fill="#0155ca"/>
        <path id="Trazado_642174" data-name="Trazado 642174" d="M263.155,171.523l.066-.092-.066.092" transform="translate(-165.603 -108.145)" fill="#0155ca"/>
        <path id="Trazado_642175" data-name="Trazado 642175" d="M256.179,194.949l.048-.086-.048.086" transform="translate(-161.213 -122.927)" fill="#0155ca"/>
        <path id="Trazado_642176" data-name="Trazado 642176" d="M154.738,65.981a16.143,16.143,0,0,0,1.383-1.445,8.147,8.147,0,0,0,.718-1.119,10.534,10.534,0,0,0,1.235-1.964c.213-.358.246-.819.625-1.08.027.034.046.082.081.1.6.307,1.233.529,1.832.822a6.746,6.746,0,0,0,2.431.707,11.764,11.764,0,0,0,4.687-.357,15.661,15.661,0,0,0,2.905-1.351.577.577,0,0,1,.449.165c.183.128.29.368.55.385a12.179,12.179,0,0,0,1.424,1.285,41.764,41.764,0,0,1,4.728,5.178c.61.841,1.223,1.678,1.768,2.567.826,1.347,1.657,2.69,2.378,4.1.156.306.2.638.331.942a.17.17,0,0,0,.177.189,3.16,3.16,0,0,0,.527,1.346,25.763,25.763,0,0,1,1.355,3.781c.237.754.423,1.524.65,2.281a3.146,3.146,0,0,1,.059.681c0,.061,0,.123-.006.184a25.185,25.185,0,0,1,.713,3.752,10.245,10.245,0,0,1,.1,1.366,26.579,26.579,0,0,1,.092,4.391,46.328,46.328,0,0,1-.473,4.674c-.2,1.1-.37,2.215-.588,3.314-.208,1.05-.568,2.071-.861,3.105-.105.068-.088.175-.09.276a3.408,3.408,0,0,0-.281.918.2.2,0,0,0-.089.186c-.675,1.59-1.321,3.192-2.135,4.72a40.984,40.984,0,0,1-3.688,5.735c-.139.181-.245.387-.366.581-.208.126-.358.352-.631.366a.213.213,0,0,0-.06-.012q-.015-.273-.03-.545c.008-.007.024-.017.023-.021a.324.324,0,0,0-.025-.052,10.956,10.956,0,0,0-3.473-8.24,19.287,19.287,0,0,0-2.522-2.02,6.136,6.136,0,0,0-1.194-.566,12.452,12.452,0,0,0-4.151-.984c-1.659-.1-3.314-.047-4.969-.058-3.585-.023-7.169-.008-10.754-.009q0-2.386,0-4.773a16.081,16.081,0,0,1,2.025-.8,24.365,24.365,0,0,0,4.335-2.324,21.155,21.155,0,0,0,5.559-5.46,24.474,24.474,0,0,0,2.3-4.086,1.827,1.827,0,0,1,.354-.677,1.755,1.755,0,0,1,.276.01,5.055,5.055,0,0,0,4.538-1.281,5.6,5.6,0,0,0,1.284-1.794,3.68,3.68,0,0,0,.338-1.2c.085-.834-.023-1.686.041-2.524a4.754,4.754,0,0,0-.947-3.025,5.79,5.79,0,0,0-2-1.662,2.683,2.683,0,0,0-1.955-.412,1.051,1.051,0,0,1-.109-.815l-.01-.442q0-.143,0-.287a.069.069,0,0,0,0-.086c0-.094,0-.189,0-.283a.067.067,0,0,0,0-.084c0-.095,0-.189,0-.284a.069.069,0,0,0,0-.085q0-.142,0-.284a.067.067,0,0,0,0-.085c0-.095,0-.189,0-.283a.068.068,0,0,0,0-.085v-.283a.069.069,0,0,0,0-.086V70.5a.067.067,0,0,0,0-.085q0-.143,0-.286c0-.056,0-.112,0-.168a10.088,10.088,0,0,0-.061-1.113,4.144,4.144,0,0,0-.243-1.516,2.606,2.606,0,0,0-2.448-1.32c-2.093-.03-4.186,0-6.279,0l-1.456.018-.207-.015a.031.031,0,0,0-.052-.007l-.11-.02" transform="translate(-94.125 -38.033)" fill="#0065ed"/>
        <path id="Trazado_642177" data-name="Trazado 642177" d="M43.807,61.692c.7,0,1.325.348,2.019.4a12.783,12.783,0,0,0,4.328-.273,13.11,13.11,0,0,0,3.18-1.341,17.766,17.766,0,0,0,3.185,4.943c.2.224.517.345.6.67a2.679,2.679,0,0,1-1.3.037c-1.019-.041-2.042,0-3.063,0a38.75,38.75,0,0,0-4.264.069A2.28,2.28,0,0,0,46.4,68.05a5.3,5.3,0,0,0-.066,1.762.035.035,0,0,0,0,.059q-.006.245-.012.49a.043.043,0,0,0,0,.065q0,.151,0,.3a.045.045,0,0,0,0,.066c0,.1,0,.2,0,.3a.041.041,0,0,0,0,.063l0,.676a.035.035,0,0,0,0,.058l0,.859a3.729,3.729,0,0,0-.008.972l.058.339a.027.027,0,0,0-.023.037l-.063.1c-.071.016-.161,0-.186.1-.128.021-.247-.029-.386-.011A4.962,4.962,0,0,0,43.8,75a4.688,4.688,0,0,0-2.405,3.353,21.922,21.922,0,0,0-.061,3.715,1.861,1.861,0,0,0,.08.706,5.745,5.745,0,0,0,2.113,2.7,4.05,4.05,0,0,0,2.586.862,3.444,3.444,0,0,0,1.566-.189.252.252,0,0,1,.238.181,15.889,15.889,0,0,0,1.438,2.929,22.6,22.6,0,0,0,6.016,6.722,23.456,23.456,0,0,0,4.691,2.709,4.839,4.839,0,0,0,1.613.608.7.7,0,0,1,.7.762c-.016,1.439-.013,2.877-.017,4.316l-11.716,0c-.215,0-.43.01-.645.016a18.863,18.863,0,0,0-6.112.516,12.462,12.462,0,0,0-7.754,6.92c-.268,0-.357-.254-.54-.374a.623.623,0,0,0-.278-.459.537.537,0,0,0-.186-.367L33.642,107.6a2.415,2.415,0,0,0-.281-.735,41.158,41.158,0,0,1-1.6-4.8,11.679,11.679,0,0,1-.534-2.329c-.029-.509-.26-1.007-.294-1.516-.059-.9-.313-1.767-.341-2.666-.023-.185.071-.388-.085-.553-.038-1.541-.182-3.084-.08-4.624a13.824,13.824,0,0,1,.165-2.181c0-.061,0-.123,0-.184-.042-.873.307-1.7.28-2.576.164-.162.067-.366.09-.551.309-.94.335-1.945.666-2.882a1.683,1.683,0,0,0,.095-.891.34.34,0,0,1,.035-.216,25.232,25.232,0,0,0,1.332-3.645,2.644,2.644,0,0,0,.37-.921c.528-.943.863-1.975,1.378-2.927a5.141,5.141,0,0,0,.655-1.3.585.585,0,0,0,.277-.46h0c.186-.1.244-.306.365-.461l.469-.918a.294.294,0,0,0,.183-.277.906.906,0,0,0,.277-.46l.181-.185a35.962,35.962,0,0,1,5.346-6.382c.233-.221.444-.464.665-.7a.776.776,0,0,0,.558-.564" transform="translate(-19.123 -38.154)" fill="#0065ed"/>
        <path id="Trazado_642178" data-name="Trazado 642178" d="M73.236,80.713q0-.152,0-.3c.009-.006.025-.015.024-.017a.362.362,0,0,0-.025-.049c0-.1,0-.2,0-.3.009-.005.025-.014.024-.016a.42.42,0,0,0-.024-.048q.006-.245.012-.49l.029-.028-.026-.031a5.307,5.307,0,0,1,.066-1.763,2.28,2.28,0,0,1,2.09-1.848,38.845,38.845,0,0,1,4.264-.069c-.022.135-.042.269-.066.4a14.2,14.2,0,0,0-.31,2.524c.016,2.836,0,5.671.007,8.507a19.4,19.4,0,0,0,.512,5.62A37.035,37.035,0,0,0,81.2,96.813a18.717,18.717,0,0,0,1.73,3.178,18.038,18.038,0,0,0,2.013,2.649,27.42,27.42,0,0,0,3.411,3.066,23.823,23.823,0,0,0,3.485,2.09,20.653,20.653,0,0,0,4.64,1.572,6.234,6.234,0,0,0,3.089.081,7.1,7.1,0,0,1,1.911-.229q0,2.386,0,4.773c-.051.839.011,1.678-.094,2.519a6.32,6.32,0,0,1-4.838,5.344,5.843,5.843,0,0,1-5.674-1.9,6.413,6.413,0,0,1-1.593-4.128c-.037-.61-.014-1.224-.019-1.836,0-1.439,0-2.877.017-4.316a.7.7,0,0,0-.7-.762,4.832,4.832,0,0,1-1.613-.608A23.456,23.456,0,0,1,82.28,105.6a22.6,22.6,0,0,1-6.016-6.722,15.887,15.887,0,0,1-1.438-2.929.252.252,0,0,0-.238-.181,6.241,6.241,0,0,1-.124-.855,27.822,27.822,0,0,1-.76-2.817,18.725,18.725,0,0,1-.414-3.806c.035-1.086-.01-2.174.016-3.26.01-.412-.261-.792-.1-1.21l.063-.1.024-.009V83.68l-.059-.339a1.978,1.978,0,0,0,.009-.973l0-.858a.176.176,0,0,0,.023-.014c-.007-.015-.016-.03-.025-.044q0-.338,0-.676c.009-.005.025-.014.024-.016a.415.415,0,0,0-.025-.047" transform="translate(-46.034 -47.77)" fill="#f5a86b"/>
        <path id="Trazado_642179" data-name="Trazado 642179" d="M81.562,246.782a18.549,18.549,0,0,1-3.056-1.273,1.059,1.059,0,0,0,.1-.624q0-4.823,0-9.647a1.7,1.7,0,0,1,.541-1.355,1.208,1.208,0,0,1,1.469-.294,1.506,1.506,0,0,1,.949,1.341q0,3.744,0,7.488,0,2.182,0,4.364" transform="translate(-49.404 -147.267)" fill="#b5c3cf"/>
        <path id="Trazado_642180" data-name="Trazado 642180" d="M222.309,212.645c.274-.014.423-.241.632-.366a6.945,6.945,0,0,0-.281,2.823c-.035.47-.054.945-.114,1.408-.044.34.13.6.136.921.011.515-.166.782-.679.822a36.347,36.347,0,0,0,.212-4.6c0-.183.023-.365.035-.548l.01-.1,0-.264.045-.1" transform="translate(-139.706 -133.914)" fill="#0155ca"/>
        <path id="Trazado_642181" data-name="Trazado 642181" d="M221.333,229.381c.1.321.438.522.4.931-.052.515-.113.622-.642.667.144-.523-.038-1.1.245-1.6" transform="translate(-139.13 -144.702)" fill="#0155ca"/>
        <path id="Trazado_642182" data-name="Trazado 642182" d="M220.461,235.138a1.715,1.715,0,0,1,.288,1.157c-.048.286-.121.539-.449.615a3.963,3.963,0,0,1,.161-1.772" transform="translate(-138.621 -148.334)" fill="#0155ca"/>
        <path id="Trazado_642183" data-name="Trazado 642183" d="M220.879,234.322a.226.226,0,0,1-.075.233.245.245,0,0,1,.075-.233" transform="translate(-138.951 -147.819)" fill="#0155ca"/>
        <path id="Trazado_642184" data-name="Trazado 642184" d="M222.658,214.262l-.01.1a.445.445,0,0,1-.013-.069c0-.009.015-.019.023-.028" transform="translate(-140.104 -135.165)" fill="#49b5fb"/>
        <path id="Trazado_642185" data-name="Trazado 642185" d="M220.19,242.168l-.06.091.06-.091" transform="translate(-138.528 -152.769)" fill="#0155ca"/>
        <path id="Trazado_642186" data-name="Trazado 642186" d="M222.7,213.25l-.045.1a.5.5,0,0,1-.032-.076c0-.011.01-.025.016-.038a.239.239,0,0,1,.06.012" transform="translate(-140.095 -134.519)" fill="#49b5fb"/>
        <path id="Trazado_642187" data-name="Trazado 642187" d="M222.561,211.562a.323.323,0,0,1,.025.052s-.014.014-.022.021a.069.069,0,0,1,0-.073" transform="translate(-140.051 -133.461)" fill="#49b5fb"/>
        <path id="Trazado_642188" data-name="Trazado 642188" d="M34.265,233.888l-.647-.757a1.221,1.221,0,0,1,.867.112c.244.081.311.38.539.554.883.677,1.544,1.6,2.4,2.325.112.1.166.255.268.365.171.185.348.25.478-.048a1.72,1.72,0,0,1-.006,1.212c-.192,0-.283-.15-.406-.262a47.784,47.784,0,0,1-3.49-3.5" transform="translate(-21.156 -147.038)" fill="#0155ca"/>
        <path id="Trazado_642189" data-name="Trazado 642189" d="M15.919,207.065a8.214,8.214,0,0,1-1.045-1.87,1.8,1.8,0,0,1,.143-.23c.1-.113.215-.186.356-.076a.213.213,0,0,1,.026.323c-.109.155-.2.325.1.342.371.022.361.264.33.516-.018.149-.07.234.138.343.37.195-.019.43-.048.652" transform="translate(-9.36 -129.218)" fill="#0155ca"/>
        <path id="Trazado_642190" data-name="Trazado 642190" d="M3.934,177.312l-.376-1.651c.124.2.323.189.522.183.166,0,.333.026.282.24-.1.422-.011.915-.428,1.229" transform="translate(-2.239 -110.814)" fill="#0155ca"/>
        <path id="Trazado_642191" data-name="Trazado 642191" d="M22.312,218.063a2.842,2.842,0,0,1-.663-1.114c.39-.108.7-.1.676.435-.011.22.222.159.32.28l-.333.4" transform="translate(-13.624 -136.825)" fill="#0155ca"/>
        <path id="Trazado_642192" data-name="Trazado 642192" d="M56.111,57.541a8.2,8.2,0,0,1,1.1.834c-.09,0-.181,0-.272,0-.761.045-.843-.035-.831-.834" transform="translate(-35.31 -36.299)" fill="#0155ca"/>
        <path id="Trazado_642193" data-name="Trazado 642193" d="M49.439,49.825l.644.921h-.092c-.926,0-.99-.1-.552-.922" transform="translate(-30.947 -31.432)" fill="#0155ca"/>
        <path id="Trazado_642194" data-name="Trazado 642194" d="M52.612,53.769a4.309,4.309,0,0,1,.834.933,2.21,2.21,0,0,0-.44-.077c-.364.008-.426-.2-.4-.5.009-.12.006-.24.009-.36" transform="translate(-33.101 -33.92)" fill="#0155ca"/>
        <path id="Trazado_642195" data-name="Trazado 642195" d="M47.7,46.09l.555,1.2c-.367-.145-.541-.5-.774-.77-.113-.133.048-.329.219-.426" transform="translate(-29.856 -29.075)" fill="#0155ca"/>
        <path id="Trazado_642196" data-name="Trazado 642196" d="M45.3,237.945a6.886,6.886,0,0,1,.011,1.288c-.414-.447-.42-1.059-.011-1.288" transform="translate(-28.316 -150.105)" fill="#0155ca"/>
        <path id="Trazado_642197" data-name="Trazado 642197" d="M37.759,103.4a2.645,2.645,0,0,1-.37.921c-.291-.457-.206-.669.37-.921" transform="translate(-23.427 -65.229)" fill="#0155ca"/>
        <path id="Trazado_642198" data-name="Trazado 642198" d="M44.247,198.57c.183.12.271.375.54.374q-.063.188-.125.377c-.318-.152-.682-.278-.414-.751" transform="translate(-27.786 -125.266)" fill="#0155ca"/>
        <path id="Trazado_642199" data-name="Trazado 642199" d="M65.353,63.474a.776.776,0,0,1-.558.564c-.1-.08-.31-.192-.033-.261s.315-.242.305-.47l.285.167" transform="translate(-40.669 -39.936)" fill="#0155ca"/>
        <path id="Trazado_642200" data-name="Trazado 642200" d="M37.989,186.121a2.4,2.4,0,0,1,.281.735c-.238-.02-.355-.195-.464-.372-.13-.212-.06-.333.184-.363" transform="translate(-23.751 -117.412)" fill="#0155ca"/>
        <path id="Trazado_642201" data-name="Trazado 642201" d="M61.92,61.566l.464.266c-.049.034-.1.064-.146.1-.1.082-.2.233-.34.131s-.054-.242-.005-.368a.764.764,0,0,0,.027-.131" transform="translate(-38.906 -38.838)" fill="#0155ca"/>
        <path id="Trazado_642202" data-name="Trazado 642202" d="M30.291,153.975c.156.165.062.368.085.553-.139,0-.318.005-.325-.172-.005-.15.008-.351.24-.382" transform="translate(-18.911 -97.133)" fill="#0155ca"/>
        <path id="Trazado_642203" data-name="Trazado 642203" d="M43.612,205.3a1.445,1.445,0,0,1-.1.552c-.319-.25-.252-.427.1-.552" transform="translate(-27.251 -129.514)" fill="#0155ca"/>
        <path id="Trazado_642204" data-name="Trazado 642204" d="M8.035,190.246c-.111-.091-.081-.228-.114-.344.176-.034.358-.041.38.187.017.176-.153.142-.266.157" transform="translate(-4.985 -119.786)" fill="#0155ca"/>
        <path id="Trazado_642205" data-name="Trazado 642205" d="M6.147,184.709a1.213,1.213,0,0,1-.214-.551c.565-.006.272.317.214.551" transform="translate(-3.734 -116.174)" fill="#0155ca"/>
        <path id="Trazado_642206" data-name="Trazado 642206" d="M31.469,126.572c-.023.185.073.389-.09.551-.119-.208-.377-.438.09-.551" transform="translate(-19.634 -79.846)" fill="#0155ca"/>
        <path id="Trazado_642207" data-name="Trazado 642207" d="M42.881,196.333a.539.539,0,0,1,.186.367c-.132,0-.278.011-.335-.139-.045-.12.054-.18.148-.229" transform="translate(-26.885 -123.854)" fill="#0155ca"/>
        <path id="Trazado_642208" data-name="Trazado 642208" d="M44.352,90.694a.585.585,0,0,1-.277.46c-.116-.278.024-.4.277-.46" transform="translate(-27.71 -57.213)" fill="#0155ca"/>
        <path id="Trazado_642209" data-name="Trazado 642209" d="M45.25,89.444c-.12.154-.179.358-.365.461-.017-.262.018-.484.365-.461" transform="translate(-28.244 -56.424)" fill="#0155ca"/>
        <path id="Trazado_642210" data-name="Trazado 642210" d="M44.41,232.214c.007.123.014.245.02.368-.1-.007-.234.014-.245-.133s.091-.212.225-.235" transform="translate(-27.805 -146.49)" fill="#0155ca"/>
        <path id="Trazado_642211" data-name="Trazado 642211" d="M59.091,59.8a.785.785,0,0,1,.377.263c-.351.234-.354-.03-.377-.263" transform="translate(-37.186 -37.724)" fill="#0155ca"/>
        <path id="Trazado_642212" data-name="Trazado 642212" d="M43.556,227.488c.006.158.146.288.092.457-.319-.094-.354-.246-.092-.457" transform="translate(-27.3 -143.508)" fill="#0155ca"/>
        <path id="Trazado_642213" data-name="Trazado 642213" d="M18.177,211.2l-.023-.031a.448.448,0,0,1,.351-.311c0,.241-.137.313-.328.342" transform="translate(-11.424 -133.017)" fill="#0155ca"/>
        <path id="Trazado_642214" data-name="Trazado 642214" d="M55.11,56.533a1.06,1.06,0,0,1,.371.373c-.275.025-.4-.1-.371-.373" transform="translate(-34.679 -35.663)" fill="#0155ca"/>
        <path id="Trazado_642215" data-name="Trazado 642215" d="M44.49,201.817q-.013.138-.026.276c-.107-.013-.221-.052-.214-.168.009-.142.148-.094.24-.108" transform="translate(-27.846 -127.314)" fill="#0155ca"/>
        <path id="Trazado_642216" data-name="Trazado 642216" d="M47.219,86.21a.294.294,0,0,1-.183.277c-.167-.242.044-.236.183-.277" transform="translate(-29.561 -54.385)" fill="#0155ca"/>
        <path id="Trazado_642217" data-name="Trazado 642217" d="M48.5,84.464l-.181.185c-.126-.243.085-.158.181-.185" transform="translate(-30.38 -53.283)" fill="#0155ca"/>
        <path id="Trazado_642218" data-name="Trazado 642218" d="M44.282,230.219c.1.071.089.174.076.277-.232-.035-.119-.166-.076-.277" transform="translate(-27.826 -145.231)" fill="#0155ca"/>
        <path id="Trazado_642219" data-name="Trazado 642219" d="M46.666,43.658c.071-.085.2-.128.195-.267.08.071.065.169.077.26l-.272.007" transform="translate(-29.367 -27.373)" fill="#0155ca"/>
        <path id="Trazado_642220" data-name="Trazado 642220" d="M30.7,135.043c0,.061,0,.123,0,.184-.046-.024-.126-.04-.133-.073-.021-.1.067-.1.133-.111" transform="translate(-19.231 -85.19)" fill="#0155ca"/>
        <path id="Trazado_642221" data-name="Trazado 642221" d="M2.383,129.256c.011-.025.017-.063.034-.07s.048.018.073.029c-.011.024-.016.063-.034.07s-.048-.018-.073-.029" transform="translate(-1.5 -81.495)" fill="#0155ca"/>
        <path id="Trazado_642222" data-name="Trazado 642222" d="M44.877,234.208c.006.062.011.123.016.185-.059-.009-.131-.013-.138-.086s.062-.088.122-.1" transform="translate(-28.164 -147.747)" fill="#0155ca"/>
        <path id="Trazado_642223" data-name="Trazado 642223" d="M1.984,122.014l.036-.177c.043.029.121.058.121.087,0,.1-.089.083-.157.09" transform="translate(-1.249 -76.859)" fill="#0155ca"/>
        <path id="Trazado_642224" data-name="Trazado 642224" d="M45.387,235.955c.1.069.089.17.079.271-.093-.071-.076-.174-.079-.271" transform="translate(-28.562 -148.849)" fill="#0155ca"/>
        <path id="Trazado_642225" data-name="Trazado 642225" d="M7.86,189.732l-.048-.118.048.118" transform="translate(-4.916 -119.616)" fill="#0155ca"/>
        <path id="Trazado_642226" data-name="Trazado 642226" d="M43.68,226.83l.06.144-.06-.144" transform="translate(-27.488 -143.093)" fill="#0155ca"/>
        <path id="Trazado_642227" data-name="Trazado 642227" d="M.814,130.4a.091.091,0,0,1,.005-.088.34.34,0,0,1,.024.064c0,.006-.019.016-.029.024" transform="translate(-0.507 -82.208)" fill="#0155ca"/>
        <path id="Trazado_642228" data-name="Trazado 642228" d="M.846,129.585c-.011-.026-.022-.051-.034-.077l.072-.042-.038.119" transform="translate(-0.511 -81.672)" fill="#0155ca"/>
        <path id="Trazado_642229" data-name="Trazado 642229" d="M.831,159.552a.085.085,0,0,1-.006-.086.345.345,0,0,1,.03.059c0,.006-.016.018-.024.027" transform="translate(-0.514 -100.597)" fill="#0155ca"/>
        <path id="Trazado_642230" data-name="Trazado 642230" d="M44.549,203.817a.088.088,0,0,1-.008.086.328.328,0,0,1-.02-.062c0-.007.018-.016.028-.023" transform="translate(-28.017 -128.576)" fill="#0155ca"/>
        <path id="Trazado_642231" data-name="Trazado 642231" d="M6.635,185.977c-.072,0-.073-.048-.071-.1l.071.1" transform="translate(-4.13 -117.258)" fill="#0155ca"/>
        <path id="Trazado_642232" data-name="Trazado 642232" d="M6.8,186.2l-.065-.065.065.065" transform="translate(-4.238 -117.422)" fill="#0155ca"/>
        <path id="Trazado_642233" data-name="Trazado 642233" d="M6.927,186.979l-.048-.092.048.092" transform="translate(-4.329 -117.895)" fill="#0155ca"/>
        <path id="Trazado_642234" data-name="Trazado 642234" d="M207.389,56.006c-.26-.017-.367-.257-.55-.385a.576.576,0,0,0-.448-.165c.145-.111.286-.228.436-.331a9.246,9.246,0,0,0,2.4-2.438l.106-.069c.592.548-.024.913-.262,1.247a5.243,5.243,0,0,1-1.235,1.2.88.88,0,0,0-.449.939" transform="translate(-129.882 -33.193)" fill="#0155ca"/>
        <path id="Trazado_642235" data-name="Trazado 642235" d="M214.788,50.51l.566-.907a.66.66,0,0,0,.1.428.407.407,0,0,1-.056.57c-.187.184-.326.024-.479-.062a.475.475,0,0,0-.132-.03" transform="translate(-135.166 -31.291)" fill="#0155ca"/>
        <path id="Trazado_642236" data-name="Trazado 642236" d="M230.24,233.483a8.96,8.96,0,0,1-1.223,1.279,1.726,1.726,0,0,1,1.223-1.279" transform="translate(-144.12 -147.29)" fill="#0155ca"/>
        <path id="Trazado_642237" data-name="Trazado 642237" d="M216.725,47.7l.3-.648c.057.271.524-.148.44.222a.6.6,0,0,1-.7.429l-.045,0" transform="translate(-136.385 -29.68)" fill="#0155ca"/>
        <path id="Trazado_642238" data-name="Trazado 642238" d="M264.092,125.329a2.185,2.185,0,0,1,.206.918c-.448-.112-.48-.254-.206-.918" transform="translate(-166.082 -79.062)" fill="#0155ca"/>
        <path id="Trazado_642239" data-name="Trazado 642239" d="M242.225,178.92c0-.1-.016-.209.09-.277.149.15.105.238-.09.277" transform="translate(-152.432 -112.695)" fill="#0155ca"/>
        <path id="Trazado_642240" data-name="Trazado 642240" d="M241.228,182.066a.2.2,0,0,1,.089-.186c.142.143.03.166-.089.186" transform="translate(-151.805 -114.737)" fill="#0155ca"/>
        <path id="Trazado_642241" data-name="Trazado 642241" d="M237.93,100.1a.17.17,0,0,1-.177-.189.167.167,0,0,1,.177.189" transform="translate(-149.618 -63.029)" fill="#0155ca"/>
        <path id="Trazado_642242" data-name="Trazado 642242" d="M264.883,128.565c0,.061.006.123.009.184-.059-.009-.129-.014-.133-.088s.066-.085.125-.1" transform="translate(-166.612 -81.104)" fill="#0155ca"/>
        <path id="Trazado_642243" data-name="Trazado 642243" d="M245.2,122.521c0-.061,0-.123.006-.184.047.024.128.043.133.075.018.1-.073.1-.14.109" transform="translate(-154.306 -77.175)" fill="#0155ca"/>
        <path id="Trazado_642244" data-name="Trazado 642244" d="M218.1,45.267l.074-.188-.074.188" transform="translate(-137.248 -28.438)" fill="#0155ca"/>
        <path id="Trazado_642245" data-name="Trazado 642245" d="M265.793,153.736c0,.031,0,.062-.005.094a.386.386,0,0,1-.023-.068c0-.007.018-.017.028-.026" transform="translate(-167.246 -96.983)" fill="#0155ca"/>
        <path id="Trazado_642246" data-name="Trazado 642246" d="M263.8,120.581c0,.032.007.063.011.095a.37.37,0,0,1-.036-.064c0-.007.016-.02.025-.031" transform="translate(-165.994 -76.067)" fill="#0155ca"/>
        <path id="Trazado_642247" data-name="Trazado 642247" d="M259.245,186.88l-.055.114.055-.114" transform="translate(-163.108 -117.891)" fill="#0155ca"/>
        <path id="Trazado_642248" data-name="Trazado 642248" d="M106.477,50.262c-.716-.492-1.449-.961-2.143-1.482a6.663,6.663,0,0,1-1.87-1.739,1.407,1.407,0,0,1,.55-2,1.136,1.136,0,0,0,.139-.116,1.439,1.439,0,0,1,1.553.407,14.633,14.633,0,0,0,3.832,2.477,12.146,12.146,0,0,0,5.9,1.07,11.041,11.041,0,0,0,3.33-.581,15.977,15.977,0,0,0,3.318-1.84,15.184,15.184,0,0,0,1.908-1.48.772.772,0,0,1,.563-.139,1.515,1.515,0,0,1,1.422.921,1.373,1.373,0,0,1-.3,1.6,15.625,15.625,0,0,1-8.751,4.423,18.73,18.73,0,0,1-2.255.061,13.208,13.208,0,0,1-5.458-.861c-.589-.212-1.157-.481-1.735-.724" transform="translate(-64.344 -28.287)" fill="#e32929"/>
        <path id="Trazado_642249" data-name="Trazado 642249" d="M188.864,51.729a9.254,9.254,0,0,1-2.4,2.438c-.15.1-.291.22-.436.331a15.648,15.648,0,0,1-2.905,1.351,11.763,11.763,0,0,1-4.687.357A6.746,6.746,0,0,1,176,55.5c-.6-.294-1.235-.515-1.832-.822-.035-.018-.054-.066-.081-.1-.163-.243.05-.435.1-.641.227-.861.481-1.714.725-2.57a7.334,7.334,0,0,0,2.6-.266c-.027.306.229.386.423.471a14.36,14.36,0,0,0,3.153,1.118,10.8,10.8,0,0,0,3.87.1,11.578,11.578,0,0,0,3.175-1c.233-.116.485-.034.727-.065" transform="translate(-109.517 -32.235)" fill="#f5a86b"/>
        <path id="Trazado_642250" data-name="Trazado 642250" d="M179.026,44.215a7.334,7.334,0,0,1-2.6.266,28.66,28.66,0,0,0,.288-2.942c1.145-.076,2.275-.277,3.413-.4,1.595-.179,3.172-.484,4.773-.617a16.79,16.79,0,0,0,1.854-.306,1.6,1.6,0,0,1,1.862,1.631,1.752,1.752,0,0,1-1.593,1.356c-2.152.271-4.309.514-6.447.89a12.486,12.486,0,0,0-1.553.125" transform="translate(-111.026 -25.351)" fill="#d88a55"/>
        <path id="Trazado_642251" data-name="Trazado 642251" d="M140.368,23.168a3.935,3.935,0,0,1,2.856,1.016,1.5,1.5,0,0,1-.2,2.634,1.27,1.27,0,0,1-1.309-.118,6,6,0,0,0-.884-.467,1.438,1.438,0,0,0-1.308.151,4.6,4.6,0,0,0-.547.338,1.3,1.3,0,0,1-1.646-.117,1.387,1.387,0,0,1-.522-1.418,1.735,1.735,0,0,1,.854-1.093,3.868,3.868,0,0,1,2.7-.927" transform="translate(-86.08 -14.603)" fill="#e32929"/>
        <path id="Trazado_642252" data-name="Trazado 642252" d="M114.218,23.171a3.954,3.954,0,0,1,2.815,1.559,1.3,1.3,0,0,1-.062,1.644c-.6.64-1.282.849-1.818.4a2.069,2.069,0,0,0-2.867-.031c-.735.532-1.393.163-1.878-.44a1.465,1.465,0,0,1,.283-1.947,4.942,4.942,0,0,1,3.525-1.184" transform="translate(-69.319 -14.617)" fill="#e32929"/>
        <path id="Trazado_642253" data-name="Trazado 642253" d="M198.523,23.747a1.448,1.448,0,0,1-.571,1.375,1.43,1.43,0,0,1-2.106-.408,1.989,1.989,0,0,1-.016-2.089,1.347,1.347,0,0,1,1.343-.7c.812.024,1.277.511,1.348,1.423.01.121,0,.244,0,.4" transform="translate(-123.054 -13.829)" fill="#d88a55"/>
        <path id="Trazado_642254" data-name="Trazado 642254" d="M181.019,23.609a1.529,1.529,0,0,1-1.221,1.782,1.43,1.43,0,0,1-1.62-1.216,3.073,3.073,0,0,1,.043-1.228,1.359,1.359,0,0,1,1.642-1.038,1.376,1.376,0,0,1,1.155,1.3c.01.152,0,.306,0,.4" transform="translate(-112.101 -13.814)" fill="#d88a55"/>
        <path id="Trazado_642255" data-name="Trazado 642255" d="M111.912,109.2a7.085,7.085,0,0,0-1.911.229,6.233,6.233,0,0,1-3.089-.081,20.672,20.672,0,0,1-4.64-1.572,23.823,23.823,0,0,1-3.485-2.09,27.476,27.476,0,0,1-3.411-3.066,18.037,18.037,0,0,1-2.013-2.649,18.691,18.691,0,0,1-1.73-3.178,37.035,37.035,0,0,1-1.391-4.009,19.4,19.4,0,0,1-.512-5.62c0-2.836.009-5.671-.007-8.507a14.193,14.193,0,0,1,.31-2.524c.023-.134.044-.269.066-.4,1.021,0,2.044-.042,3.063,0a2.679,2.679,0,0,0,1.3-.037c.169.007.338.02.507.02h21.789c.107,0,.215-.008.323-.013l.11.02c.01.049.028.051.052.008l.207.014a3.3,3.3,0,0,0,1.457-.018c2.093,0,4.186-.029,6.279,0a2.605,2.605,0,0,1,2.448,1.32,4.136,4.136,0,0,1,.243,1.515,9.913,9.913,0,0,1,.061,1.113c-.066.058-.066.114,0,.169,0,.1,0,.19,0,.285-.01.008-.029.019-.028.024a.413.413,0,0,0,.029.061v.283c-.01.008-.03.019-.028.024a.4.4,0,0,0,.029.062v.283c-.01.008-.03.019-.028.024a.369.369,0,0,0,.028.062v.283c-.01.008-.03.019-.028.024a.4.4,0,0,0,.029.061q0,.142,0,.283c-.01.008-.029.019-.028.024a.415.415,0,0,0,.029.061c0,.095,0,.189,0,.284-.01.008-.03.019-.028.024a.4.4,0,0,0,.029.061c0,.095,0,.189,0,.283-.009.008-.028.02-.026.025a.36.36,0,0,0,.03.061q0,.144,0,.287a.377.377,0,0,0,.01.442,1.052,1.052,0,0,0,.11.815,1.2,1.2,0,0,0-.1.625c-.045,1.559.024,3.118-.069,4.68a17.056,17.056,0,0,1-1.288,6,1.082,1.082,0,0,0-.119.579,1.833,1.833,0,0,0-.354.676,24.438,24.438,0,0,1-2.3,4.087,21.149,21.149,0,0,1-5.559,5.46,24.385,24.385,0,0,1-4.335,2.324,15.976,15.976,0,0,0-2.025.8m-6.146-9.764a4.09,4.09,0,0,0,.415,0c.136-.014.269-.066.4-.079a8.4,8.4,0,0,0,5.216-2.442,1.4,1.4,0,0,0-.226-2.3c-.264-.165-.556-.494-.9-.322a7.842,7.842,0,0,0-1.485.9,5.515,5.515,0,0,1-2.609,1.19,5.615,5.615,0,0,1-4.337-1.249,6.6,6.6,0,0,0-.953-.635,1.191,1.191,0,0,0-1.374.2,1.33,1.33,0,0,0-.6,1.379,2.751,2.751,0,0,0,1.088,1.366,8.991,8.991,0,0,0,5.363,2M97.638,83.789a2.015,2.015,0,0,0,.8-.082,5.137,5.137,0,0,0,2.985-1.488,1.46,1.46,0,1,0-1.99-2.139,2.749,2.749,0,0,1-3.745-.032,1.491,1.491,0,0,0-2.068.117,1.586,1.586,0,0,0,.17,2.189,5.783,5.783,0,0,0,3.851,1.434m12.13-2.551a.928.928,0,0,0,.224.718,5.239,5.239,0,0,0,4.152,1.838,5.777,5.777,0,0,0,3.588-1.358,1.623,1.623,0,0,0,.229-2.294,1.5,1.5,0,0,0-2.145-.021,2.735,2.735,0,0,1-3.625-.038,1.405,1.405,0,0,0-1.617-.216,1.3,1.3,0,0,0-.807,1.371M105.7,90.429a4.68,4.68,0,0,0,2.779-1,1.554,1.554,0,0,0,.272-2.233,1.524,1.524,0,0,0-1.994-.162,1.293,1.293,0,0,1-1.763.037,1.978,1.978,0,0,0-.621-.289,1.59,1.59,0,0,0-1.628.581,1.314,1.314,0,0,0-.063,1.511,3.935,3.935,0,0,0,3.018,1.558" transform="translate(-56.462 -47.747)" fill="#ffbc86"/>
        <path id="Trazado_642256" data-name="Trazado 642256" d="M61.694,42.238c-.208-.028-.341.121-.493.216a1.612,1.612,0,0,1-2.021-.2,1.423,1.423,0,0,1,.127-1.988.493.493,0,0,0,.184-.307,14.361,14.361,0,0,0,1.44-.965,8.849,8.849,0,0,1,3.959-1.171,7.689,7.689,0,0,1,4.643,1.147,2.472,2.472,0,0,0,.467.184,22.954,22.954,0,0,0,.11,2.676c.052.32.109.64.164.959a1.929,1.929,0,0,1-1.228-.436,5.74,5.74,0,0,0-4.311-1.5,6.2,6.2,0,0,0-2.881,1.116.334.334,0,0,0-.161.267" transform="translate(-37.024 -23.853)" fill="#0065ed"/>
        <path id="Trazado_642257" data-name="Trazado 642257" d="M66.55,47.405a.334.334,0,0,1,.161-.267,6.2,6.2,0,0,1,2.881-1.116,5.74,5.74,0,0,1,4.311,1.5,1.929,1.929,0,0,0,1.228.436L75.5,49.62c-.585-.043-1.16.086-1.741.091a11.166,11.166,0,0,1-6.7-2.014,1.282,1.282,0,0,0-.513-.292" transform="translate(-41.88 -29.02)" fill="#49b5fb"/>
        <path id="Trazado_642258" data-name="Trazado 642258" d="M80.776,23.306A1.563,1.563,0,0,1,82.05,21.6a1.471,1.471,0,0,1,1.684,1.109,2.235,2.235,0,0,1-.193,1.679,1.46,1.46,0,0,1-1.6.621,1.591,1.591,0,0,1-1.168-1.7" transform="translate(-50.832 -13.604)" fill="#0065ed"/>
        <path id="Trazado_642259" data-name="Trazado 642259" d="M66.076,23.306a1.48,1.48,0,0,1-.651,1.571,1.386,1.386,0,0,1-1.736-.179,1.89,1.89,0,0,1,.523-3.036,1.468,1.468,0,0,1,1.864,1.165c0,.168,0,.336,0,.479" transform="translate(-39.738 -13.622)" fill="#0065ed"/>
        <path id="Trazado_642260" data-name="Trazado 642260" d="M10.751,197.32a.068.068,0,0,1-.024-.075c.033-.052.091-.114.132-.051.064.1-.04.109-.108.126" transform="translate(-6.748 -124.381)" fill="#0054ca"/>
        <path id="Trazado_642261" data-name="Trazado 642261" d="M188.894,109.909a1.082,1.082,0,0,1,.119-.579,17.063,17.063,0,0,0,1.288-6c.093-1.562.024-3.121.069-4.68a1.209,1.209,0,0,1,.1-.626,2.683,2.683,0,0,1,1.955.412,5.792,5.792,0,0,1,2,1.663,4.753,4.753,0,0,1,.947,3.025c-.063.838.045,1.69-.04,2.524a3.689,3.689,0,0,1-.338,1.2,5.609,5.609,0,0,1-1.284,1.794,5.055,5.055,0,0,1-4.539,1.281,1.756,1.756,0,0,0-.276-.01" transform="translate(-118.867 -61.81)" fill="#f5a86b"/>
        <path id="Trazado_642262" data-name="Trazado 642262" d="M64.6,109.924a4.05,4.05,0,0,1-2.586-.861,5.746,5.746,0,0,1-2.113-2.7,1.854,1.854,0,0,1-.08-.707,21.883,21.883,0,0,1,.061-3.715,4.688,4.688,0,0,1,2.4-3.353,4.96,4.96,0,0,1,1.92-.711c.139-.018.258.032.387.01a.381.381,0,0,1-.229.406,1.312,1.312,0,0,0-.457.373,6.707,6.707,0,0,0-1.162,3.7c.03,1.1-.013,2.206.011,3.309A6.078,6.078,0,0,0,64,109.143c.192.268.655.335.6.78" transform="translate(-37.615 -61.74)" fill="#f5a86b"/>
        <path id="Trazado_642263" data-name="Trazado 642263" d="M69.648,109.779c.054-.445-.408-.513-.6-.78a6.078,6.078,0,0,1-1.243-3.476c-.024-1.1.019-2.206-.011-3.309a6.707,6.707,0,0,1,1.162-3.7,1.312,1.312,0,0,1,.457-.373.381.381,0,0,0,.229-.406c.025-.1.115-.083.186-.1-.157.418.114.8.1,1.21-.026,1.086.02,2.175-.016,3.26a18.7,18.7,0,0,0,.414,3.806,27.765,27.765,0,0,0,.76,2.817,6.234,6.234,0,0,0,.124.855,3.44,3.44,0,0,1-1.566.189" transform="translate(-42.661 -61.596)" fill="#ffbc86"/>
        <path id="Trazado_642264" data-name="Trazado 642264" d="M121.991,131.134a9,9,0,0,1-5.363-2,2.751,2.751,0,0,1-1.088-1.367,1.329,1.329,0,0,1,.6-1.378,1.19,1.19,0,0,1,1.374-.2,6.614,6.614,0,0,1,.954.635,5.614,5.614,0,0,0,4.337,1.249,5.516,5.516,0,0,0,2.609-1.19,7.867,7.867,0,0,1,1.484-.9c.344-.172.636.157.9.322a1.4,1.4,0,0,1,.226,2.3,8.4,8.4,0,0,1-5.216,2.442c-.136.014-.269.066-.405.08a4.09,4.09,0,0,1-.415,0" transform="translate(-72.686 -79.447)" fill="#f5a86b"/>
        <path id="Trazado_642265" data-name="Trazado 642265" d="M103.641,90.607a5.783,5.783,0,0,1-3.851-1.434,1.587,1.587,0,0,1-.17-2.189,1.492,1.492,0,0,1,2.068-.117,2.748,2.748,0,0,0,3.745.032,1.461,1.461,0,0,1,1.99,2.139,5.138,5.138,0,0,1-2.986,1.488,2.013,2.013,0,0,1-.8.082" transform="translate(-62.465 -54.566)" fill="#ea9b58"/>
        <path id="Trazado_642266" data-name="Trazado 642266" d="M143.791,88.061a1.3,1.3,0,0,1,.807-1.371,1.405,1.405,0,0,1,1.617.216,2.735,2.735,0,0,0,3.625.038,1.5,1.5,0,0,1,2.145.021,1.623,1.623,0,0,1-.229,2.294,5.777,5.777,0,0,1-3.588,1.358,5.239,5.239,0,0,1-4.152-1.838.928.928,0,0,1-.224-.718" transform="translate(-90.485 -54.571)" fill="#ea9b58"/>
        <path id="Trazado_642267" data-name="Trazado 642267" d="M127.336,109.306a3.935,3.935,0,0,1-3.018-1.558,1.314,1.314,0,0,1,.063-1.511,1.59,1.59,0,0,1,1.628-.581,1.978,1.978,0,0,1,.621.289,1.293,1.293,0,0,0,1.763-.037,1.524,1.524,0,0,1,1.994.162,1.554,1.554,0,0,1-.272,2.233,4.68,4.68,0,0,1-2.779,1" transform="translate(-78.101 -66.623)" fill="#f5a86b"/>
      </g>
    </g>
  </g>
</svg>
