<svg xmlns="http://www.w3.org/2000/svg" xmlns:xlink="http://www.w3.org/1999/xlink" width="124.418" height="124.418" viewBox="0 0 124.418 124.418">
  <defs>
    <clipPath id="clip-path">
      <rect id="Rectángulo_379250" data-name="Rectángulo 379250" width="115" height="115" transform="translate(389.246 2670.246)" fill="#fff" stroke="#707070" stroke-width="1"/>
    </clipPath>
    <linearGradient id="linear-gradient" x1="0.989" y1="1.001" x2="0.081" y2="0.049" gradientUnits="objectBoundingBox">
      <stop offset="0" stop-color="#8c50af"/>
      <stop offset="1" stop-color="#fbe3b1"/>
    </linearGradient>
    <clipPath id="clip-path-2">
      <rect id="Rectángulo_379350" data-name="Rectángulo 379350" width="85" height="85" transform="translate(19502 -9457)" fill="#fff" stroke="#707070" stroke-width="1"/>
    </clipPath>
  </defs>
  <g id="Grupo_1075361" data-name="Grupo 1075361" transform="translate(-19480.117 9476.832)">
    <g id="Enmascarar_grupo_1074705" data-name="Enmascarar grupo 1074705" transform="translate(19095.754 -12142.246)" clip-path="url(#clip-path)">
      <rect id="Imagen_49" data-name="Imagen 49" width="128.611" height="124.518" transform="translate(382.686 2667.283)" fill="#fff"/>
    </g>
    <path id="Sustracción_221" data-name="Sustracción 221" d="M113.2,113.2H0V0H113.2V113.2ZM6.49,6.49V106.714H106.713V6.49Z" transform="matrix(-0.995, -0.105, 0.105, -0.995, 19592.701, -9352.414)" fill="url(#linear-gradient)"/>
    <g id="Enmascarar_grupo_1074710" data-name="Enmascarar grupo 1074710" transform="translate(-2)" clip-path="url(#clip-path-2)">
      <g id="Grupo_1074930" data-name="Grupo 1074930" transform="translate(-52.098 -598.833)">
        <path id="Trazado_612203" data-name="Trazado 612203" d="M133.3,1122.462c.544,0,1.036-.039,1.521.006a12.009,12.009,0,0,1,10.819,8.037,10.738,10.738,0,0,1,.322,6.958,12.032,12.032,0,0,1-7.862,8.427,4.838,4.838,0,0,1-1.066.252,1.135,1.135,0,0,1-1.3-.95,1.178,1.178,0,0,1,.782-1.344,21.059,21.059,0,0,0,1.981-.745,9.291,9.291,0,0,0,5.04-5.989,9.621,9.621,0,1,0-12.21,6.495c.216.069.429.149.639.236a1.142,1.142,0,0,1,.679,1.487,1.117,1.117,0,0,1-1.346.764,11.95,11.95,0,0,1-7.777-6.2c-.039-.077-.088-.149-.16-.27a29.88,29.88,0,0,1-38.991,0,12,12,0,0,1-8.68,6.666,11.606,11.606,0,0,1-7.924-1.226,12.084,12.084,0,0,1-6.094-13.162,12.27,12.27,0,0,1,12.776-9.425c-.037-.441-.049-.876-.113-1.3a27.786,27.786,0,0,1-.011-8.038,28.974,28.974,0,0,1,3.8-10.935,29.591,29.591,0,0,1,15.91-13.084,28.317,28.317,0,0,1,11.736-1.627,29.548,29.548,0,0,1,20.453,10.032,29.055,29.055,0,0,1,6.662,12.719,28.759,28.759,0,0,1,.754,8.908c-.059.83-.191,1.654-.282,2.482-.029.263-.036.528-.056.834m-21.782,20.862c.161-.042.32-.077.476-.124a27.8,27.8,0,0,0,9.618-5.237,1.791,1.791,0,0,0,.746-1.9,10.628,10.628,0,0,1,.518-5.446,12.082,12.082,0,0,1,7.487-7.485.56.56,0,0,0,.3-.357,20.037,20.037,0,0,0,.439-2.649,32.271,32.271,0,0,0-.25-7.743,28.494,28.494,0,0,0-1.478-5.2,27.044,27.044,0,0,0-6.349-9.552,27.6,27.6,0,0,0-7.712-5.295,27.166,27.166,0,0,0-5.476-1.843,29.842,29.842,0,0,0-3.711-.491,26.135,26.135,0,0,0-8.87.673,27.442,27.442,0,0,0-5.673,2.078,27.338,27.338,0,0,0-13.837,16.172,23.075,23.075,0,0,0-1.194,7.1c.005,1-.065,2,.017,2.994.1,1.266.322,2.523.512,3.781a.51.51,0,0,0,.294.329,12.652,12.652,0,0,1,3.214,1.672,2.325,2.325,0,0,1,.471.435,1.19,1.19,0,0,1-.63,1.878,1.39,1.39,0,0,1-1.259-.35,9.652,9.652,0,0,0-15.121,5.824,8.959,8.959,0,0,0,.539,5.592,9.571,9.571,0,0,0,11.055,5.625,9.2,9.2,0,0,0,5.707-3.849,9.372,9.372,0,0,0,1.662-6.568,11.71,11.71,0,0,0-.747-2.846,1.186,1.186,0,0,1,1.341-1.59,1.289,1.289,0,0,1,.974.91,10.692,10.692,0,0,1,.91,4.112c.017.955-.111,1.911-.16,2.868a.632.632,0,0,0,.1.446c.682.609,1.386,1.193,2.152,1.843.024-.219.035-.314.046-.41.174-1.517.252-3.052.543-4.546a6.6,6.6,0,0,1,5.32-5.591.443.443,0,0,0,.269-.22c.491-1.12.966-2.248,1.449-3.372.169-.393.5-.785.486-1.169s-.4-.741-.549-1.138a1.936,1.936,0,0,0-.93-.991,13.839,13.839,0,0,1-3.581-3.129,14.47,14.47,0,0,1-3.165-7.225,13.67,13.67,0,0,1-.158-4.479,24.4,24.4,0,0,1,.921-4.361,8.821,8.821,0,0,1,6.355-5.943,9.267,9.267,0,0,1,4.975-.033.714.714,0,0,0,.512-.119,7.714,7.714,0,0,1,6.331-1.149,11,11,0,0,1,4.21,2.178c1.033.831,2.008,1.734,3.014,2.6.374.321.416.31.728-.05.116-.134.231-.269.359-.391a1.937,1.937,0,0,1,2.017-.513,4.206,4.206,0,0,1,2,1.5,8.688,8.688,0,0,1,1.58,3.484,7.7,7.7,0,0,1-.363,4.6,1.272,1.272,0,0,1-1.237.939,1.2,1.2,0,0,1-1.043-1.708,7.122,7.122,0,0,0,.3-3.027,4.95,4.95,0,0,0-1.673-3.346c-.115.108-.213.2-.314.295a2.617,2.617,0,0,1-3.862.08c-.395-.336-.778-.685-1.169-1.025a17.7,17.7,0,0,0-3.51-2.629,5.913,5.913,0,0,0-3.792-.732,6.479,6.479,0,0,0-2.695,1.232,1.373,1.373,0,0,1-1.244.283,10.452,10.452,0,0,0-3.156-.307,6.251,6.251,0,0,0-5.761,3.915,16.079,16.079,0,0,0-1.082,6.223,12.535,12.535,0,0,0,1.974,7.081,11.139,11.139,0,0,0,2.758,2.954c0-.794,0-1.533,0-2.272a1.749,1.749,0,0,0-.449-1.171,12.11,12.11,0,0,1-1.109-1.486,6.693,6.693,0,0,1-.868-5.756,3.516,3.516,0,0,1,3.687-2.482,4.484,4.484,0,0,1,3.242,2.018,8.927,8.927,0,0,1,1.272,3.69c.028.175.087.346.145.568a6.468,6.468,0,0,0,1.912-1.962,1.178,1.178,0,0,1,1.679-.515,18.741,18.741,0,0,0,6.034,1.5,15.242,15.242,0,0,0,4.322-.388,1.261,1.261,0,0,1,1.473.868,1.139,1.139,0,0,1-.828,1.436c-.444.131-.9.239-1.368.364a1.342,1.342,0,0,0-.018.161,42.4,42.4,0,0,1-.282,6.276,19.524,19.524,0,0,1-1.264,4.853,5.818,5.818,0,0,1-3.2,3.318,7.772,7.772,0,0,1-2.844.326c-.285,0-.571,0-.907,0,0,1.049.015,2.058-.008,3.066a1.394,1.394,0,0,0,.334.929c.537.7,1.074,1.406,1.564,2.141a44.575,44.575,0,0,1,4.541,8.943m-.343-27.5-.126-.013c0-.669-.009-1.339.005-2.008,0-.231-.093-.267-.291-.277a21.217,21.217,0,0,1-6.653-1.312.348.348,0,0,0-.474.117,6.308,6.308,0,0,1-2.452,1.919c-1.81.711-3.225-.167-3.344-1.913a11.861,11.861,0,0,0-.344-2.079,2.474,2.474,0,0,0-2.112-2.082.831.831,0,0,0-.872.462,3.014,3.014,0,0,0-.305,2.125,6.154,6.154,0,0,0,1.615,3.118,3.534,3.534,0,0,1,1.024,2.3c.063,1.451.117,2.9.2,4.353a2.188,2.188,0,0,0,.216.982,10.747,10.747,0,0,0,1.37,1.932,7.77,7.77,0,0,0,4.71,2.13c1.2.166,2.42.1,3.63.181a2.56,2.56,0,0,0,2.506-1.438,7.92,7.92,0,0,0,1.06-2.937c.264-1.846.431-3.706.638-5.56m-6.766,19.094a.593.593,0,0,0-.114.044.937.937,0,0,0-.112.1,2.721,2.721,0,0,1-2.534.868,7.122,7.122,0,0,1-2.689-1.067,22.709,22.709,0,0,1-4.371-3.493.945.945,0,0,0-1.063-.282,4.089,4.089,0,0,0-2.978,3.57c-.293,1.89-.348,3.818-.486,5.73a.572.572,0,0,0,.214.453,26.662,26.662,0,0,0,6.021,2.527,1.262,1.262,0,0,0,.245.018c0-.072,0-.109,0-.146-.024-.845-.1-1.693-.058-2.535a1.184,1.184,0,0,1,1.316-1.17,1.256,1.256,0,0,1,1.126,1.259c.037.9.09,1.793.076,2.689-.006.4.113.589.5.615,1.649.109,3.3.275,4.946.305a30,30,0,0,0,3.436-.241,9.207,9.207,0,0,0,1.258-.3,41.652,41.652,0,0,0-4.731-8.944m-6.876-9.106a.332.332,0,0,0-.04.062c-.494,1.1-.995,2.205-1.469,3.318a.468.468,0,0,0,.14.4c.833.735,1.663,1.477,2.532,2.168a9.533,9.533,0,0,0,3.033,1.75c.5.157.622.094.745-.406a2.254,2.254,0,0,0,.091-.483c.033-1.5.062-3,.074-4.505,0-.085-.133-.217-.23-.249-.919-.3-1.869-.519-2.76-.884a19.743,19.743,0,0,1-2.116-1.171" transform="translate(19492.701 -9931.649)" fill="#543f5c"/>
        <path id="Trazado_612204" data-name="Trazado 612204" d="M402.045,1324.659a1.22,1.22,0,0,1-.923-.545,1.469,1.469,0,0,0-1.239-.575,1.738,1.738,0,0,0-1.391.7,1.143,1.143,0,0,1-1.652.124,1.158,1.158,0,0,1-.206-1.6,3.912,3.912,0,0,1,6.455-.032,1.1,1.1,0,0,1,.133,1.241,1.331,1.331,0,0,1-1.176.684" transform="translate(19227.111 -10116.876)" fill="#543f5c"/>
        <path id="Trazado_612205" data-name="Trazado 612205" d="M275.935,1054.078c.469.054,1.111.1,1.744.206a1.362,1.362,0,0,1,1.151,1.3,1.29,1.29,0,0,1-1.114,1.155,13.186,13.186,0,0,1-1.539-.16c-.224-.028-.446-.077-.669-.116a1.193,1.193,0,0,1-1.066-1.318c.056-.637.622-1.1,1.494-1.072" transform="translate(19323.805 -9905.224)" fill="#543f5c"/>
        <path id="Trazado_612206" data-name="Trazado 612206" d="M434.524,1231.7c-.028.5-.045,1.008-.088,1.51a1.265,1.265,0,0,1-1.257,1.212,1.3,1.3,0,0,1-1.219-1.335,16.091,16.091,0,0,1,.158-1.918,1.224,1.224,0,0,1,1.052-1.092,1.077,1.077,0,0,1,1.146.571,4.389,4.389,0,0,1,.28,1.034l-.073.017" transform="translate(19198.922 -10044.742)" fill="#543f5c"/>
        <path id="Trazado_612207" data-name="Trazado 612207" d="M239.982,1053.984a1.308,1.308,0,0,1,1.4.777,1.106,1.106,0,0,1-.719,1.557,18.615,18.615,0,0,1-2.281.332,1.245,1.245,0,0,1-1.263-1.034,1.2,1.2,0,0,1,.921-1.338c.636-.148,1.294-.2,1.943-.293" transform="translate(19353.402 -9905.148)" fill="#543f5c"/>
        <path id="Trazado_612208" data-name="Trazado 612208" d="M88.6,1232.376c0-.327-.023-.657,0-.982a1.2,1.2,0,0,1,1.048-1.117,1.132,1.132,0,0,1,1.236.845,10.955,10.955,0,0,1,.232,1.982,1.9,1.9,0,0,1-.233.959,1.133,1.133,0,0,1-1.315.5,1.157,1.157,0,0,1-.881-1.058c-.021-.188-.032-.377-.044-.566s-.018-.378-.026-.567Z" transform="translate(19471.143 -10044.909)" fill="#543f5c"/>
        <path id="Trazado_612209" data-name="Trazado 612209" d="M432.592,1196.111a1.332,1.332,0,0,1-1.1,1.236,1.127,1.127,0,0,1-1.32-.911c-.154-.7-.265-1.411-.351-2.123a1.108,1.108,0,0,1,.749-1.22,1.128,1.128,0,0,1,1.479.64c.249.771.368,1.583.543,2.378" transform="translate(19200.623 -10015.387)" fill="#543f5c"/>
        <path id="Trazado_612210" data-name="Trazado 612210" d="M92.755,1194.707c-.1.52-.219,1.3-.4,2.074a1.165,1.165,0,0,1-1.218.766,1.114,1.114,0,0,1-1.062-1.089,5.945,5.945,0,0,1,.435-2.584,1.165,1.165,0,0,1,1.327-.625,1.314,1.314,0,0,1,.915,1.457" transform="translate(19469.963 -10015.533)" fill="#543f5c"/>
        <path id="Trazado_612211" data-name="Trazado 612211" d="M402.785,1129.232a3.233,3.233,0,0,1-.848-.554,15.615,15.615,0,0,1-1.223-1.815,1.09,1.09,0,0,1,.337-1.469,1.051,1.051,0,0,1,1.5.095,12.5,12.5,0,0,1,1.417,2.044,1.154,1.154,0,0,1-1.127,1.608l-.058.092" transform="translate(19223.816 -9961.55)" fill="#543f5c"/>
        <path id="Trazado_612212" data-name="Trazado 612212" d="M421.927,1160.552a1.209,1.209,0,0,1-.837,1.3,1.041,1.041,0,0,1-1.3-.486,16.292,16.292,0,0,1-.934-2.422c-.21-.751.648-1.39,1.494-1.16a1,1,0,0,1,.573.328,7.361,7.361,0,0,1,1.006,2.445" transform="translate(19209.338 -9987.401)" fill="#543f5c"/>
        <path id="Trazado_612213" data-name="Trazado 612213" d="M379.423,1099.986a1.315,1.315,0,0,1-.758,1.17.934.934,0,0,1-1.1-.1,22.469,22.469,0,0,1-1.683-1.582,1.07,1.07,0,0,1,.013-1.569,1.115,1.115,0,0,1,1.57-.135,19.87,19.87,0,0,1,1.694,1.623,1.746,1.746,0,0,1,.265.589" transform="translate(19243.646 -9939.658)" fill="#543f5c"/>
        <path id="Trazado_612214" data-name="Trazado 612214" d="M205.17,1062.557a1,1,0,0,1-.66,1.049,20.725,20.725,0,0,1-2.11.715,1.125,1.125,0,0,1-1.406-.831,1.083,1.083,0,0,1,.622-1.372,13.728,13.728,0,0,1,2.263-.71,1.052,1.052,0,0,1,1.29,1.15" transform="translate(19382.08 -9911.015)" fill="#543f5c"/>
        <path id="Trazado_612215" data-name="Trazado 612215" d="M139.816,1101.408a1.263,1.263,0,0,1-1.2-.738.983.983,0,0,1,.143-1.169,20.179,20.179,0,0,1,1.668-1.6,1.153,1.153,0,0,1,1.582.12,1.1,1.1,0,0,1,.025,1.574,21.568,21.568,0,0,1-1.65,1.562,1.754,1.754,0,0,1-.565.248" transform="translate(19431.586 -9939.764)" fill="#543f5c"/>
        <path id="Trazado_612216" data-name="Trazado 612216" d="M315.413,1063.013a1.221,1.221,0,0,1-1.714,1.167q-.844-.274-1.675-.587a1.186,1.186,0,0,1-.781-1.54,1.119,1.119,0,0,1,1.458-.724c.667.179,1.321.412,1.973.644a1.137,1.137,0,0,1,.74,1.041" transform="translate(19294.678 -9910.93)" fill="#543f5c"/>
        <path id="Trazado_612217" data-name="Trazado 612217" d="M100.155,1162c-.8-.011-1.413-.62-1.234-1.3a14.169,14.169,0,0,1,.93-2.417,1.161,1.161,0,0,1,1.419-.387,1.077,1.077,0,0,1,.682,1.253,20.642,20.642,0,0,1-.932,2.345.95.95,0,0,1-.864.5" transform="translate(19462.977 -9987.461)" fill="#543f5c"/>
        <path id="Trazado_612218" data-name="Trazado 612218" d="M115.2,1128.079a2.486,2.486,0,0,1,.194-.6c.372-.585.757-1.165,1.171-1.721a1.1,1.1,0,0,1,1.161-.477,1.164,1.164,0,0,1,.962,1,1.186,1.186,0,0,1-.13.717,20.536,20.536,0,0,1-1.162,1.771,1.2,1.2,0,0,1-1.424.413,1.248,1.248,0,0,1-.772-1.1" transform="translate(19450.049 -9961.649)" fill="#543f5c"/>
        <path id="Trazado_612219" data-name="Trazado 612219" d="M346.562,1075.8a.9.9,0,0,1,.341.067c.682.406,1.377.8,2.021,1.259a1.172,1.172,0,0,1,.243,1.542,1.138,1.138,0,0,1-1.432.429,17.549,17.549,0,0,1-2.056-1.265.944.944,0,0,1-.311-1.218,1.269,1.269,0,0,1,1.194-.814" transform="translate(19267.654 -9922.442)" fill="#543f5c"/>
        <path id="Trazado_612220" data-name="Trazado 612220" d="M171.864,1077.048a2.959,2.959,0,0,1-.556.8,17.459,17.459,0,0,1-1.954,1.209,1.165,1.165,0,0,1-1.271-1.922,15.05,15.05,0,0,1,2.114-1.311c.642-.321,1.564.4,1.573,1.166l.093.063" transform="translate(19408.432 -9922.399)" fill="#543f5c"/>
        <path id="Trazado_612221" data-name="Trazado 612221" d="M384.273,1307.407a1.765,1.765,0,0,1-1.567-1.448,1.277,1.277,0,0,1,1.251-1.18,1.667,1.667,0,0,1,1.58,1.408,1.336,1.336,0,0,1-1.263,1.22" transform="translate(19237.969 -10103.979)" fill="#543f5c"/>
        <path id="Trazado_612222" data-name="Trazado 612222" d="M431.379,1307.49a1.458,1.458,0,0,1-1.218-.875,1.113,1.113,0,0,1,.33-1.2,1.722,1.722,0,0,1,1.362-.532,1.159,1.159,0,0,1,.768,1.885,2.023,2.023,0,0,1-1.243.725" transform="translate(19200.395 -10104.054)" fill="#543f5c"/>
        <path id="Trazado_612223" data-name="Trazado 612223" d="M105.808,1323.55a3.678,3.678,0,0,1-2.532-1.544,1.159,1.159,0,0,1,.081-1.694,1.124,1.124,0,0,1,1.709.123,1.633,1.633,0,0,0,1.923.572,2.746,2.746,0,0,0,.792-.619,1.205,1.205,0,0,1,1.968.316,1.1,1.1,0,0,1-.144,1.241,4.225,4.225,0,0,1-3.8,1.6" transform="translate(19459.76 -10116.027)" fill="#543f5c"/>
        <path id="Trazado_612224" data-name="Trazado 612224" d="M139.585,1304.53c.008.86-.263,1.274-1.012,1.479a1.2,1.2,0,0,1-.751-.117,1.555,1.555,0,0,1-.269-2.427,1.253,1.253,0,0,1,2.032,1.065" transform="translate(19432.693 -10102.713)" fill="#543f5c"/>
        <path id="Trazado_612225" data-name="Trazado 612225" d="M90.522,1304.858c-.007-.913.408-1.406,1.185-1.4a1.291,1.291,0,0,1,1.263,1.372,1.42,1.42,0,0,1-1.261,1.453,1.306,1.306,0,0,1-1.187-1.42" transform="translate(19469.611 -10102.929)" fill="#543f5c"/>
      </g>
    </g>
  </g>
</svg>
