<svg xmlns="http://www.w3.org/2000/svg" xmlns:xlink="http://www.w3.org/1999/xlink" width="124.417" height="124.418" viewBox="0 0 124.417 124.418">
  <defs>
    <clipPath id="clip-path">
      <rect id="Rectángulo_379639" data-name="Rectángulo 379639" width="115" height="115" transform="translate(389.246 2670.246)" fill="#fff" stroke="#707070" stroke-width="1"/>
    </clipPath>
    <linearGradient id="linear-gradient" x1="0.989" y1="1.001" x2="0.081" y2="0.049" gradientUnits="objectBoundingBox">
      <stop offset="0" stop-color="#8c50af"/>
      <stop offset="1" stop-color="#fbe3b1"/>
    </linearGradient>
    <clipPath id="clip-path-2">
      <rect id="Rectángulo_379650" data-name="Rectángulo 379650" width="87" height="87" transform="translate(408 2139)" fill="#fff" stroke="#707070" stroke-width="1"/>
    </clipPath>
    <clipPath id="clip-path-3">
      <rect id="Rectángulo_379649" data-name="Rectángulo 379649" width="82" height="82.031" transform="translate(0.5 0.5)" fill="#543f5c" stroke="#543f5c" stroke-width="0.5"/>
    </clipPath>
    <clipPath id="clip-path-4">
      <rect id="Rectángulo_379654" data-name="Rectángulo 379654" width="79.035" height="77.367" fill="#543f5c"/>
    </clipPath>
  </defs>
  <g id="Grupo_1075368" data-name="Grupo 1075368" transform="translate(-743.598 -3255.581)">
    <g id="Enmascarar_grupo_1074788" data-name="Enmascarar grupo 1074788" transform="translate(359.754 590.754)" clip-path="url(#clip-path)">
      <rect id="Imagen_53" data-name="Imagen 53" width="128.611" height="124.518" transform="translate(382.686 2667.283)" fill="#fff"/>
    </g>
    <path id="Sustracción_223" data-name="Sustracción 223" d="M113.2,113.2H0V0H113.2V113.2ZM6.49,6.49V106.714H106.713V6.49Z" transform="matrix(-0.995, -0.105, 0.105, -0.995, 856.182, 3379.999)" fill="url(#linear-gradient)"/>
    <g id="Enmascarar_grupo_1074791" data-name="Enmascarar grupo 1074791" transform="translate(355 1136)" clip-path="url(#clip-path-2)">
      <g id="Grupo_1075287" data-name="Grupo 1075287" transform="translate(411 2141)">
        <g id="Grupo_1075286" data-name="Grupo 1075286" clip-path="url(#clip-path-3)">
          <g id="Grupo_1075293" data-name="Grupo 1075293" transform="translate(1 2)">
            <g id="Grupo_1075292" data-name="Grupo 1075292" clip-path="url(#clip-path-4)">
              <path id="Trazado_642785" data-name="Trazado 642785" d="M241.96,77.845l-2.69,6.613a1.293,1.293,0,0,1-.855.765,1.2,1.2,0,0,1-.393.061,1.224,1.224,0,0,1-.485-.1l-6.712-2.648a1.318,1.318,0,0,1-.75-1.705l0,0a1.34,1.34,0,0,1,1.736-.728l3.783,1.49a23.237,23.237,0,0,0-12.347-11.779,1.3,1.3,0,0,1-.733-1.688l.012-.031a1.342,1.342,0,0,1,1.746-.71,25.877,25.877,0,0,1,13.74,13.094l1.455-3.606a1.342,1.342,0,0,1,1.736-.737,1.316,1.316,0,0,1,.752,1.7l0,.008" transform="translate(-173.948 -52.618)" fill="#543f5c"/>
              <path id="Trazado_642786" data-name="Trazado 642786" d="M85.475,230.686a1.33,1.33,0,0,1-1.238.808,1.273,1.273,0,0,1-.506-.1,25.819,25.819,0,0,1-13.74-13.094l-1.455,3.6a1.345,1.345,0,0,1-1.246.832,1.369,1.369,0,0,1-.485-.1,1.309,1.309,0,0,1-.756-1.69l.008-.02,2.68-6.613a1.363,1.363,0,0,1,.97-.8,1.31,1.31,0,0,1,.774.07l6.712,2.649a1.306,1.306,0,0,1,.747,1.689l-.008.021a1.331,1.331,0,0,1-1.237.824,1.265,1.265,0,0,1-.5-.1L72.4,217.189A23.181,23.181,0,0,0,84.75,228.968a1.309,1.309,0,0,1,.727,1.7l-.006.015" transform="translate(-51.586 -166.964)" fill="#543f5c"/>
              <path id="Trazado_642787" data-name="Trazado 642787" d="M35.114,39.743A1.526,1.526,0,0,1,33.978,37.2a15.107,15.107,0,0,0-.5-1.684,13.868,13.868,0,0,0-3.643-5.525q-.106.134-.217.265a12.209,12.209,0,0,1-.956,1.007,10.083,10.083,0,0,1-2.257,1.579l-.067.032-.135.061c-.11.049-.214.1-.317.146a1.564,1.564,0,0,1-.162.07l-.163.06c-.18.067-.366.136-.573.194-.085.029-.172.054-.259.075a5.721,5.721,0,0,1-.633.151,6.466,6.466,0,0,1-.708.111l-.234.031a1.549,1.549,0,0,1-.2.013h0a9.549,9.549,0,0,1-1.274,0l-.048,0-.323-.034a7.01,7.01,0,0,1-.805-.126l-.038-.007a4.318,4.318,0,0,1-.579-.141c-.051-.017-.1-.032-.154-.047-.124-.036-.275-.081-.437-.143a7.565,7.565,0,0,1-1.023-.441c-.1-.048-.2-.1-.311-.163a1.936,1.936,0,0,1-.264-.154,5.509,5.509,0,0,1-.6-.382l-.089-.065c-.136-.1-.289-.21-.43-.32l-.147-.118-.021-.018a6.037,6.037,0,0,1-.45-.414,9.29,9.29,0,0,1-.9-.949q-.116-.136-.228-.275a13.9,13.9,0,0,0-3.658,5.508,13.411,13.411,0,0,0-.51,1.674,1.526,1.526,0,0,1-2.007,2.275,12.055,12.055,0,0,1-1.1-.877A22.328,22.328,0,0,1,5.6,36.65a21.956,21.956,0,0,1-5.547-13.2C.017,23.013,0,22.554,0,22.044s.017-.974.053-1.4A21.85,21.85,0,0,1,5.593,7.456,22.27,22.27,0,0,1,20.934.049C21.36.016,21.821,0,22.344,0s.985.016,1.415.049A22.483,22.483,0,0,1,37.1,5.511a22.757,22.757,0,0,1,1.971,1.936,21.791,21.791,0,0,1,5.561,13.179c.036.442.052.889.052,1.4,0,.455-.013.866-.041,1.253,0,.043,0,.086,0,.13a21.89,21.89,0,0,1-5.562,13.21,22.661,22.661,0,0,1-1.965,1.926,12.4,12.4,0,0,1-1.112.906,1.521,1.521,0,0,1-.893.289M10.636,37.308v0ZM29.5,26.21a1.525,1.525,0,0,1,.9.3,16.9,16.9,0,0,1,5.948,7.975q.079.218.152.439.161-.169.316-.342A18.825,18.825,0,0,0,41.59,23.37a1.6,1.6,0,0,1,0-.174c.029-.35.043-.731.043-1.167s-.014-.807-.043-1.169c0-.009,0-.019,0-.028A18.73,18.73,0,0,0,36.81,9.492,19.716,19.716,0,0,0,35.1,7.813,19.416,19.416,0,0,0,23.564,3.094l-.026,0c-.355-.027-.745-.041-1.193-.041s-.838.013-1.187.041l-.028,0A19.238,19.238,0,0,0,7.863,9.5,18.789,18.789,0,0,0,3.1,20.846c0,.01,0,.021,0,.031-.029.35-.043.731-.043,1.167s.014.808.043,1.168c0,.01,0,.019,0,.029A18.885,18.885,0,0,0,7.863,34.6q.139.153.283.3.082-.241.172-.479a16.932,16.932,0,0,1,5.96-7.932,1.525,1.525,0,0,1,2.244.511,7.106,7.106,0,0,0,.871,1.27l.025.03a6.2,6.2,0,0,0,.633.668q.037.033.071.069a3.091,3.091,0,0,0,.233.217l.119.1c.1.075.219.163.328.243l.1.074a2.448,2.448,0,0,0,.324.2,1.562,1.562,0,0,1,.168.1l.011.006c.074.042.148.082.214.114l.047.024a4.506,4.506,0,0,0,.643.277l.068.025c.049.019.13.043.216.068s.161.048.24.073a1.545,1.545,0,0,0,.183.041l.085.016.031.006a4.011,4.011,0,0,0,.478.075l.313.033c.142.01.3.02.42.02s.295-.011.441-.022l.065,0,.165-.022.054-.006a3.4,3.4,0,0,0,.406-.064l.067-.013a2.65,2.65,0,0,0,.336-.081q.063-.02.127-.034c.043-.016.089-.03.133-.042.093-.025.212-.069.362-.124l.1-.037c.115-.056.231-.108.355-.163l.09-.04a7.03,7.03,0,0,0,1.534-1.077,9.155,9.155,0,0,0,.707-.746,7.558,7.558,0,0,0,.869-1.273,1.526,1.526,0,0,1,1.341-.8m-7.146,1.962c-.093,0-.186,0-.279-.006a2.97,2.97,0,0,1-.473-.032l-.022,0-.053-.011a4.05,4.05,0,0,1-.589-.093,4.477,4.477,0,0,1-.486-.116,4.943,4.943,0,0,1-.516-.163,6.406,6.406,0,0,1-.846-.353l-.067-.036c-.057-.033-.107-.062-.169-.092a1.518,1.518,0,0,1-.161-.09l-.036-.02a4.9,4.9,0,0,1-.515-.333c-.158-.108-.312-.223-.459-.345a5.742,5.742,0,0,1-.456-.381,11.462,11.462,0,0,1-.8-.845l-.015-.019a9.833,9.833,0,0,1-1.086-1.606,11.591,11.591,0,0,1-1.362-5.5c0-5.545,3.763-10.064,8.388-10.064s8.375,4.518,8.375,10.072a11.594,11.594,0,0,1-1.333,5.48l-.008.015a9.818,9.818,0,0,1-1.087,1.606,9.491,9.491,0,0,1-.816.86,8.056,8.056,0,0,1-1.856,1.3c-.191.095-.357.163-.5.224l-.026.011c-.146.06-.372.149-.627.23q-.053.017-.106.03t-.117.034c-.141.035-.3.075-.488.108a4.116,4.116,0,0,1-.575.092l-.107.019a3.005,3.005,0,0,1-.434.028c-.093,0-.188.006-.283.006m-.3-3.059.122,0c.122,0,.247,0,.367,0l.116,0,.077-.014a1.548,1.548,0,0,1,.21-.023,1.056,1.056,0,0,0,.135-.025c.044-.011.089-.02.134-.027.071-.011.153-.031.24-.052.043-.014.087-.026.13-.037.108-.036.231-.082.343-.128l.027-.011c.112-.046.218-.09.3-.133a4.99,4.99,0,0,0,1.142-.8,6.45,6.45,0,0,0,.553-.583,6.787,6.787,0,0,0,.743-1.1,8.546,8.546,0,0,0,.978-4.037c0-3.885-2.388-7.034-5.324-7.034s-5.336,3.149-5.336,7.021a8.534,8.534,0,0,0,1,4.053,6.766,6.766,0,0,0,.736,1.09c.179.208.37.409.569.6a2.7,2.7,0,0,0,.216.177c.027.02.053.041.079.062a3.124,3.124,0,0,0,.268.2l.067.048a1.777,1.777,0,0,0,.156.105,1.95,1.95,0,0,1,.2.114c.067.035.129.07.192.105a3.422,3.422,0,0,0,.431.176l.071.025a1.865,1.865,0,0,0,.228.071l.089.025a1.413,1.413,0,0,0,.185.044q.061.01.121.025a.976.976,0,0,0,.154.026c.046,0,.093.007.135.012l.141.023M28.036,22.9h0Z" fill="#543f5c"/>
              <path id="Trazado_642788" data-name="Trazado 642788" d="M192.655,212.365a1.526,1.526,0,0,1-1.136-2.546,15.349,15.349,0,0,0-.5-1.686,13.854,13.854,0,0,0-3.643-5.525q-.106.134-.217.265a12.075,12.075,0,0,1-.957,1.008,10.07,10.07,0,0,1-2.254,1.579l-.069.033-.13.058c-.112.05-.216.1-.32.148a1.64,1.64,0,0,1-.171.073l-.191.069c-.17.063-.346.128-.543.183-.082.027-.166.051-.25.072a5.919,5.919,0,0,1-.634.151,6.435,6.435,0,0,1-.706.111l-.229.031a1.508,1.508,0,0,1-.208.014h-.007a10.222,10.222,0,0,1-1.253,0l-.069-.006-.323-.036a7.223,7.223,0,0,1-.817-.129l-.04-.007a3.945,3.945,0,0,1-.574-.142c-.051-.017-.1-.033-.158-.049-.118-.035-.262-.078-.416-.137a7.424,7.424,0,0,1-1.026-.442c-.095-.047-.2-.1-.3-.16a1.958,1.958,0,0,1-.265-.154,5.351,5.351,0,0,1-.573-.366c-.146-.1-.354-.245-.56-.408l-.146-.118a5.686,5.686,0,0,1-.432-.392l-.018-.018a9.3,9.3,0,0,1-.911-.966q-.116-.135-.227-.274a13.894,13.894,0,0,0-3.664,5.509,13.425,13.425,0,0,0-.51,1.673,1.526,1.526,0,0,1-2.008,2.275,12.1,12.1,0,0,1-1.093-.875,22.292,22.292,0,0,1-1.975-1.907,21.962,21.962,0,0,1-5.55-13.205c-.036-.443-.053-.889-.053-1.4s.017-.972.053-1.4a21.859,21.859,0,0,1,5.541-13.177,22.288,22.288,0,0,1,15.34-7.412c.44-.034.9-.051,1.411-.051s.971.017,1.411.051a22.271,22.271,0,0,1,15.329,7.415,21.79,21.79,0,0,1,5.546,13q.012.068.017.138c.036.441.054.9.054,1.418s-.017.971-.053,1.4a21.887,21.887,0,0,1-5.561,13.2,22.509,22.509,0,0,1-1.955,1.929,12.365,12.365,0,0,1-1.113.908,1.519,1.519,0,0,1-.893.289m-24.482-2.436v0m18.867-11.1a1.526,1.526,0,0,1,.9.295,16.9,16.9,0,0,1,5.949,7.975q.077.214.149.431.156-.166.307-.335a18.824,18.824,0,0,0,4.787-11.364l0-.029c.029-.353.043-.735.043-1.168,0-.365-.01-.685-.03-.993a1.6,1.6,0,0,1-.022-.179,18.73,18.73,0,0,0-4.782-11.34,19.244,19.244,0,0,0-13.258-6.411l-.027,0c-.365-.029-.753-.042-1.188-.042s-.823.014-1.187.042l-.027,0a19.257,19.257,0,0,0-13.266,6.406,18.8,18.8,0,0,0-4.766,11.345c0,.01,0,.02,0,.03-.029.352-.043.733-.043,1.167s.014.806.043,1.169q0,.014,0,.027a18.891,18.891,0,0,0,4.767,11.364q.142.155.289.308.083-.244.173-.484a16.928,16.928,0,0,1,5.966-7.931,1.526,1.526,0,0,1,2.242.511,7.09,7.09,0,0,0,.871,1.269l.027.033a6.229,6.229,0,0,0,.634.671l.036.034.038.037c.081.079.157.153.214.2l.138.112c.1.076.239.179.385.278l.056.039a2.337,2.337,0,0,0,.312.2,1.541,1.541,0,0,1,.17.1c.078.043.156.086.225.12l.049.025a4.4,4.4,0,0,0,.637.274l.073.027c.044.017.124.041.2.064s.179.054.266.083c.027.009.091.021.143.03l.13.025a4.3,4.3,0,0,0,.493.078l.306.034c.143.009.3.017.423.017s.3-.009.456-.02l.04,0,.163-.022.064-.007a3.4,3.4,0,0,0,.405-.064l.063-.012a2.739,2.739,0,0,0,.345-.083c.036-.011.073-.021.109-.029l.033-.01c.038-.013.075-.025.114-.035.084-.022.192-.063.33-.113l.139-.051c.115-.056.232-.108.355-.163l.084-.038a7.006,7.006,0,0,0,1.531-1.078,9.032,9.032,0,0,0,.707-.746,7.562,7.562,0,0,0,.87-1.274,1.526,1.526,0,0,1,1.341-.8m-7.161,1.815c-.1,0-.192,0-.287-.007a3.118,3.118,0,0,1-.44-.029l-.112-.02a4.222,4.222,0,0,1-.573-.089,4.45,4.45,0,0,1-.491-.117,4.869,4.869,0,0,1-.515-.16,6.415,6.415,0,0,1-.849-.354l-.066-.036c-.059-.033-.109-.063-.17-.092a1.569,1.569,0,0,1-.161-.09l-.033-.018a4.922,4.922,0,0,1-.51-.327c-.173-.116-.318-.232-.447-.335l-.011-.009a5.913,5.913,0,0,1-.466-.389c-.314-.294-.588-.6-.793-.832l-.03-.035a10.032,10.032,0,0,1-1.082-1.6,11.615,11.615,0,0,1-1.351-5.518c0-5.541,3.763-10.06,8.388-10.06s8.373,4.518,8.373,10.072a11.6,11.6,0,0,1-1.341,5.49c-.019.037-.04.072-.062.107a9.937,9.937,0,0,1-1.033,1.508,9.6,9.6,0,0,1-.816.861,8.023,8.023,0,0,1-1.856,1.3l-.02.01c-.182.089-.352.159-.5.221s-.381.153-.635.233q-.052.016-.105.029l-.02.005-.064.019c-.172.047-.348.086-.525.117a4.275,4.275,0,0,1-.572.09l-.107.019a3.148,3.148,0,0,1-.425.028c-.1,0-.194.007-.292.007m2.038-.3-.024.009.024-.009m-2.349-2.762.138,0c.117,0,.235,0,.35,0l.123,0,.079-.014a1.478,1.478,0,0,1,.21-.023,1.187,1.187,0,0,0,.147-.026c.037-.009.075-.017.113-.023.079-.013.158-.029.234-.049.054-.017.1-.03.147-.041.107-.036.229-.081.341-.127s.22-.09.328-.142a4.985,4.985,0,0,0,1.143-.8,6.617,6.617,0,0,0,.556-.586,6.87,6.87,0,0,0,.747-1.1c.011-.021.023-.041.035-.061a8.551,8.551,0,0,0,.945-3.972c0-3.884-2.387-7.033-5.322-7.033s-5.336,3.149-5.336,7.021a8.55,8.55,0,0,0,.988,4.063,6.942,6.942,0,0,0,.73,1.08c.23.26.4.445.566.6a2.855,2.855,0,0,0,.231.191l.041.032.031.025c.094.075.183.146.252.192q.039.025.077.054a1.834,1.834,0,0,0,.165.11,2.045,2.045,0,0,1,.191.107c.07.036.135.073.2.11a3.331,3.331,0,0,0,.43.176l.065.023a1.868,1.868,0,0,0,.228.071q.048.012.1.027a1.3,1.3,0,0,0,.181.043q.056.009.112.023a1.124,1.124,0,0,0,.167.027,1.624,1.624,0,0,1,.193.021Z" transform="translate(-123.195 -134.999)" fill="#543f5c"/>
            </g>
          </g>
        </g>
      </g>
    </g>
  </g>
</svg>
