<svg xmlns="http://www.w3.org/2000/svg" xmlns:xlink="http://www.w3.org/1999/xlink" width="1030" height="495" viewBox="0 0 1030 495">
  <defs>
    <linearGradient id="linear-gradient" x1="0.5" x2="0.5" y2="1" gradientUnits="objectBoundingBox">
      <stop offset="0" stop-color="#fff4d6"/>
      <stop offset="1" stop-color="#fce5e5"/>
    </linearGradient>
    <clipPath id="clip-path">
      <rect id="Rectángulo_379061" data-name="Rectángulo 379061" width="396.375" height="358.39" fill="none"/>
    </clipPath>
  </defs>
  <g id="Grupo_1075367" data-name="Grupo 1075367" transform="translate(-285 -2572.5)">
    <path id="Trazado_641477" data-name="Trazado 641477" d="M0,0H1030V495H0Z" transform="translate(285 2572.5)" fill="url(#linear-gradient)"/>
    <g id="Grupo_1072834" data-name="Grupo 1072834" transform="translate(590.392 2606.755)">
      <g id="Grupo_1072833" data-name="Grupo 1072833" clip-path="url(#clip-path)">
        <path id="Trazado_641397" data-name="Trazado 641397" d="M369.123,336.853c12.744-15.491,19.7-40.532,17.047-60.416a74.381,74.381,0,0,0-22.853-44.076c-11.2-10.452-27.619-14.1-36.274-27.429-9.154-14.094-5.182-32.351,1.537-46.682,6.378-13.6,15.564-25.749,21.828-39.4s9.365-29.937,3-43.544c-9.321-19.918-35.287-26.431-56.982-22.825s-41.44,14.608-62.7,20.254c-17.729,4.709-42.834,5.859-57.261-7.867-14.007-13.326-26.621-28.986-46.119-35.243a49.577,49.577,0,0,0-64.7,45.569c-.563,16.981,7.494,32.871,12.343,49.156s5.662,36.141-6.52,47.985c-8.928,8.68-22.286,10.545-33.431,16.1C13.445,200.686,1.777,230.679,3.456,258.1S19.4,312.643,32.39,336.853Z" transform="translate(-0.39 -3.231)" fill="#fffeff"/>
        <path id="Trazado_641398" data-name="Trazado 641398" d="M101.516,85.661a33.892,33.892,0,0,0-13.094-.637l-3.973-9.6L72.81,79.574,75.8,89.52A33.891,33.891,0,0,0,66,98.373L56.407,94.4l-5.3,11.162,9.143,4.918a33.9,33.9,0,0,0-.664,13.191l-9.6,3.972,4.146,11.64,9.946-2.988a33.9,33.9,0,0,0,8.772,9.743l-3.975,9.61.081.038,11.163,5.3.08.038,4.933-9.154a33.913,33.913,0,0,0,13.095.637l3.972,9.6,11.64-4.146-2.987-9.946a33.9,33.9,0,0,0,9.8-8.853l9.591,3.974,5.3-11.162-9.143-4.919a33.88,33.88,0,0,0,.664-13.19l9.6-3.972-4.146-11.64-9.946,2.987a33.9,33.9,0,0,0-8.772-9.742l3.974-9.61-.08-.038-11.163-5.3-.081-.038Zm12.924,43.126a23.371,23.371,0,1,1-11.091-31.135,23.372,23.372,0,0,1,11.091,31.135" transform="translate(-5.912 -8.92)" fill="#ffe49a"/>
        <path id="Trazado_641399" data-name="Trazado 641399" d="M177.154,28.466a30.78,30.78,0,0,0-10.913-4.774l-.272-9.432-11.225-.242-.677,9.412a30.794,30.794,0,0,0-11.183,4.351l-6.86-6.475-8.107,7.766,6.174,7.131a30.806,30.806,0,0,0-4.828,10.986l-9.431.272-.242,11.225,9.412.677a30.794,30.794,0,0,0,4.3,11.108l-6.481,6.877.056.058,7.766,8.108.056.059,7.148-6.18a30.78,30.78,0,0,0,10.913,4.774l.272,9.432,11.225.241.677-9.411a30.81,30.81,0,0,0,11.183-4.351l6.86,6.475,8.108-7.766-6.174-7.132A30.809,30.809,0,0,0,189.74,60.67l9.432-.272.241-11.225L190,48.5a30.805,30.805,0,0,0-4.3-11.108l6.482-6.877-.056-.058-7.766-8.108-.056-.059Zm-2.964,40.8a21.235,21.235,0,1,1,.645-30.024,21.235,21.235,0,0,1-.645,30.024" transform="translate(-14.143 -1.658)" fill="#ffe49a"/>
        <path id="Trazado_641400" data-name="Trazado 641400" d="M422.268,212.084l-7.139-42.173a16.923,16.923,0,0,0-13.951-13.875l-4.835-.792-12.053,1.812-7.05,1.8a15.566,15.566,0,0,0-10.41,8.858l-10.8,24.77-22.363,9.066,5.342,7.139,19.767-5.335a14.218,14.218,0,0,0,9.387-8.182l5.9-13.94,6.318,30.849Z" transform="translate(-39.459 -18.359)" fill="#fdbd28"/>
        <path id="Trazado_641401" data-name="Trazado 641401" d="M378.969,183.3l-2.173-10.61-1.667,19.676Z" transform="translate(-44.363 -20.422)" fill="#f77400"/>
        <path id="Trazado_641402" data-name="Trazado 641402" d="M416.215,172.688l-5.641,28.936a19.482,19.482,0,0,1-5.776,10.464l-2.188,2.058h-15.96Z" transform="translate(-45.725 -20.422)" fill="#f77400"/>
        <path id="Trazado_641403" data-name="Trazado 641403" d="M391.079,157.3l2.792,7.378,2.815-4.486Z" transform="translate(-46.249 -18.602)" fill="#f77400"/>
        <path id="Trazado_641404" data-name="Trazado 641404" d="M403.884,155.245l-6.446,4.7,4.816,4.486Z" transform="translate(-47.001 -18.359)" fill="#f77400"/>
        <path id="Trazado_641405" data-name="Trazado 641405" d="M397.187,160.578l-1.864,2.971.826,2.617h2.378l1.659-2.794Z" transform="translate(-46.751 -18.99)" fill="#e5f1ff"/>
        <path id="Trazado_641406" data-name="Trazado 641406" d="M387.233,210.716c-1.528-1.056-3.374-2.011-4.9-3.068-1.56-4.229-.514-9.008,1.388-13.093s4.614-7.746,6.613-11.785a38.343,38.343,0,0,0,4.192-15.855H396.9a26.093,26.093,0,0,1-.82,15.514c-1.373,3.613-3.546,6.893-4.8,10.551s-1.415,8.041.988,11.069Z" transform="translate(-45.125 -19.74)" fill="#fff"/>
        <path id="Trazado_641407" data-name="Trazado 641407" d="M389.265,241.247a4.741,4.741,0,0,0,3.394,2.945,14.826,14.826,0,0,1,4.254,1.35c1.256.811,2.038,2.652,1.1,3.821-1.033,1.294-3.49,1.032-4.09,2.576-.511,1.316.867,2.62.963,4.029a3.489,3.489,0,0,1-1.334,2.682c-.767.693-1.681,1.21-2.437,1.915a8.827,8.827,0,0,0-2.395,7.042,16.155,16.155,0,0,0,.508,3l12.75-18.867,2.162-8.84Z" transform="translate(-45.968 -28.53)" fill="#392525"/>
        <path id="Trazado_641408" data-name="Trazado 641408" d="M430.032,326.574a138.883,138.883,0,0,0-11.874-37.216l-2.395-4.959,7.749-27.935a78.4,78.4,0,0,0,2.242-30.722L425,219.707H383.112l-22.328,46.674a41.214,41.214,0,0,0-4.025,18.682l.6,59.874H377.2l3.456-27.368a99.832,99.832,0,0,0-.518-25.913L378.195,278.8l7.259-10.743a16.239,16.239,0,0,1-.507-3,8.826,8.826,0,0,1,2.395-7.042c.756-.705,1.67-1.222,2.437-1.916a3.487,3.487,0,0,0,1.334-2.681c-.1-1.409-1.473-2.712-.963-4.029.714-1.838,4.063-1.116,4.5-3.511a2.644,2.644,0,0,0-.793-2.3c-1.344-1.35-3.245-1.457-4.979-1.935a4.741,4.741,0,0,1-3.394-2.945l14.88,1.653-2.162,8.84L393.546,274a41.216,41.216,0,0,0,1.764,21.664l17.816,49.268h20.349Z" transform="translate(-42.189 -25.983)" fill="#563b3b"/>
        <path id="Trazado_641409" data-name="Trazado 641409" d="M347.1,369.67h0a9.041,9.041,0,0,0,6.393-2.648l5.288-5.288H372.9l1.818,11.6H339.839a9.038,9.038,0,0,1,7.264-3.667" transform="translate(-40.19 -42.779)" fill="#2b2b38"/>
        <path id="Trazado_641410" data-name="Trazado 641410" d="M339.634,374.892h34.883l.481,3.065H338.109l.321-.858a9.042,9.042,0,0,1,1.2-2.207" transform="translate(-39.985 -44.335)" fill="#727997"/>
        <path id="Trazado_641411" data-name="Trazado 641411" d="M410.154,369.67h0a9.041,9.041,0,0,0,6.393-2.648l5.288-5.288h14.121l1.818,11.6H402.89a9.037,9.037,0,0,1,7.264-3.667" transform="translate(-47.646 -42.779)" fill="#2b2b38"/>
        <path id="Trazado_641412" data-name="Trazado 641412" d="M402.686,374.892H437.57l.481,3.065H401.161l.321-.858a9.042,9.042,0,0,1,1.2-2.207" transform="translate(-47.441 -44.335)" fill="#727997"/>
        <path id="Trazado_641413" data-name="Trazado 641413" d="M401.039,148.844c-.706-2.1-1.406-4.19-2.169-6.276-3.686,1.622-7.769,4.607-11.1,6.873a13.187,13.187,0,0,1,2.916,6.117c.3.144.581.3.874.451a17.966,17.966,0,0,0,9.477-7.164" transform="translate(-45.858 -16.86)" fill="#ff896f"/>
        <path id="Trazado_641414" data-name="Trazado 641414" d="M392.07,156.85c1.585.807,3.12,1.659,4.732,2.441,2.212-1.558,4.235-3.145,6.446-4.7-.594-1.629-1.15-3.265-1.7-4.9a17.969,17.969,0,0,1-9.477,7.164" transform="translate(-46.366 -17.702)" fill="#fec5a7"/>
        <path id="Trazado_641415" data-name="Trazado 641415" d="M399.574,133.06a16.688,16.688,0,1,1-16.688-16.688,16.687,16.687,0,0,1,16.688,16.688" transform="translate(-43.307 -13.762)" fill="#fec5a7"/>
        <path id="Trazado_641416" data-name="Trazado 641416" d="M398.7,136.374a19.878,19.878,0,0,1-11.7-6.829,30.3,30.3,0,0,1-17.35,6.1,6.341,6.341,0,0,1-6.54-5.715,21.922,21.922,0,0,1,.239-6.669,16.677,16.677,0,0,1,26.851-9.412,9.216,9.216,0,0,1,8.72,3.674,14.469,14.469,0,0,1,2.3,9.278,23.372,23.372,0,0,1-2.512,9.569" transform="translate(-42.924 -13.024)" fill="#ff3040"/>
        <path id="Trazado_641417" data-name="Trazado 641417" d="M404.678,136.184a4.063,4.063,0,1,1-4.063-4.063,4.063,4.063,0,0,1,4.063,4.063" transform="translate(-46.896 -15.625)" fill="#fec5a7"/>
        <path id="Trazado_641418" data-name="Trazado 641418" d="M342.492,211.229a6.427,6.427,0,1,1-6.426-6.426,6.426,6.426,0,0,1,6.426,6.426" transform="translate(-38.983 -24.22)" fill="#fec5a7"/>
        <path id="Trazado_641419" data-name="Trazado 641419" d="M330.906,16.174a44.146,44.146,0,0,0-16.787-3.1L310.663,0,294.921,3.324l2.125,13.354A44.142,44.142,0,0,0,282.86,26.4l-11.684-6.8L262.4,33.081l10.941,7.937a44.135,44.135,0,0,0-3.151,16.9L257.113,61.38l3.325,15.742L273.791,75a44.149,44.149,0,0,0,9.624,14.1l-6.8,11.71.1.063,13.482,8.78.1.063,7.959-10.954a44.154,44.154,0,0,0,16.786,3.1l3.456,13.073,15.742-3.325L332.11,98.251A44.137,44.137,0,0,0,346.3,88.533l11.684,6.8,8.78-13.483-10.941-7.937a44.131,44.131,0,0,0,3.151-16.9l13.073-3.456-3.325-15.742-13.353,2.125a44.17,44.17,0,0,0-9.624-14.1l6.8-11.709-.1-.063-13.482-8.78-.1-.063Zm9.172,57.9a30.43,30.43,0,1,1-8.893-42.107,30.431,30.431,0,0,1,8.893,42.107" transform="translate(-30.406)" fill="#d29de5"/>
        <path id="Trazado_641420" data-name="Trazado 641420" d="M300.82,43.926a25.39,25.39,0,0,0,9.619,41.787l16.034-48.168a25.38,25.38,0,0,0-25.652,6.381" transform="translate(-34.709 -4.303)" fill="#edd8f5"/>
        <path id="Trazado_641421" data-name="Trazado 641421" d="M328.746,37.7,312.712,85.869A25.387,25.387,0,1,0,328.746,37.7" transform="translate(-36.981 -4.459)" fill="#543f5c"/>
        <path id="Trazado_641422" data-name="Trazado 641422" d="M328.336,79.844a19.329,19.329,0,1,1,5.088-3.7,19.291,19.291,0,0,1-5.088,3.7h0" transform="translate(-35.526 -5.119)" fill="#b285c3"/>
        <path id="Trazado_641423" data-name="Trazado 641423" d="M325.551,150.172a26.8,26.8,0,0,0-10.213,1.775l-4.726-6.715-8.263,5.215,4.027,7.155a26.814,26.814,0,0,0-6.028,8.527l-8.087-1.405-2.156,9.53,7.9,2.211a26.81,26.81,0,0,0,1.771,10.292l-6.714,4.726,5.214,8.263,7.156-4.028a26.785,26.785,0,0,0,8.455,6l-1.4,8.1.069.015,9.53,2.156.069.016,2.221-7.917a26.815,26.815,0,0,0,10.213-1.776l4.726,6.715,8.263-5.215-4.028-7.155a26.8,26.8,0,0,0,6.028-8.527l8.088,1.405,2.155-9.529-7.9-2.212a26.8,26.8,0,0,0-1.771-10.291l6.714-4.726-5.214-8.263-7.156,4.027a26.8,26.8,0,0,0-8.455-6l1.4-8.1-.069-.016-9.53-2.156-.069-.015Zm17.437,31.035a18.479,18.479,0,1,1-13.947-22.1,18.48,18.48,0,0,1,13.947,22.1" transform="translate(-34.308 -16.823)" fill="#ffe49a"/>
        <path id="Trazado_641424" data-name="Trazado 641424" d="M313.523,173.392a15.42,15.42,0,0,0,14.293,21.767l-1.032-30.812a15.41,15.41,0,0,0-13.261,9.045" transform="translate(-36.915 -19.436)" fill="#fff4d6"/>
        <path id="Trazado_641425" data-name="Trazado 641425" d="M328.747,164.343l1.032,30.812a15.417,15.417,0,1,0-1.032-30.812" transform="translate(-38.878 -19.433)" fill="#ccb67b"/>
        <path id="Trazado_641426" data-name="Trazado 641426" d="M336.627,188.241a11.746,11.746,0,1,1,2.115-3.18,11.716,11.716,0,0,1-2.115,3.18h0" transform="translate(-37.411 -19.929)" fill="#ffd25a"/>
        <path id="Trazado_641427" data-name="Trazado 641427" d="M225.124,246.2a61.336,61.336,0,0,0-15.675-17.8l7.449-17.249-20.053-9.886L187.7,217.673a61.357,61.357,0,0,0-23.845-1.565l-6.928-17.459-21.17,7.19,5.138,18.068a61.326,61.326,0,0,0-17.961,15.762l-17.249-7.45L95.8,252.272l16.414,9.145a61.324,61.324,0,0,0-1.592,23.667l-17.485,6.953.052.153,7.189,21.17.052.153,18.1-5.133a61.336,61.336,0,0,0,15.675,17.8l-7.449,17.249,20.053,9.886,9.145-16.414a61.324,61.324,0,0,0,23.845,1.565l6.928,17.46,21.17-7.19-5.138-18.068a61.346,61.346,0,0,0,17.96-15.762l17.249,7.45,9.886-20.053-16.414-9.145a61.341,61.341,0,0,0,1.592-23.667l17.485-6.953-.052-.153-7.19-21.17-.052-.153Zm-39.7,71.13a42.286,42.286,0,1,1,26.442-53.638,42.286,42.286,0,0,1-26.442,53.638" transform="translate(-11.014 -23.492)" fill="#d29de5"/>
        <path id="Trazado_641428" data-name="Trazado 641428" d="M166.3,249.7a35.283,35.283,0,0,0-14.038,57.908l49.883-49.883A35.266,35.266,0,0,0,166.3,249.7" transform="translate(-16.836 -29.307)" fill="#edd8f5"/>
        <path id="Trazado_641429" data-name="Trazado 641429" d="M203.479,259.054,153.6,308.937a35.278,35.278,0,1,0,49.883-49.883" transform="translate(-18.164 -30.636)" fill="#543f5c"/>
        <path id="Trazado_641430" data-name="Trazado 641430" d="M178.782,311.06a26.857,26.857,0,1,1,8.623-1.433,26.807,26.807,0,0,1-8.623,1.433Z" transform="translate(-17.971 -30.442)" fill="#b285c3"/>
        <path id="Trazado_641431" data-name="Trazado 641431" d="M379.1,290.363a54.008,54.008,0,0,0-5.066-20.262l12.8-10.482-11.69-15.837-13.788,9.143a53.989,53.989,0,0,0-18.019-10.86l1.637-16.457-19.464-2.933-3.284,16.209a54,54,0,0,0-20.418,5.071l-10.482-12.8-15.837,11.69,9.142,13.787A54.009,54.009,0,0,0,273.822,274.5l-16.487-1.628-.021.14-2.932,19.465-.021.14,16.234,3.3a54.024,54.024,0,0,0,5.066,20.261l-12.8,10.482,11.69,15.837,13.788-9.143A54.014,54.014,0,0,0,306.36,344.22l-1.637,16.457,19.464,2.932L327.47,347.4a54,54,0,0,0,20.418-5.071l10.482,12.8,15.838-11.691-9.144-13.787a54,54,0,0,0,10.811-17.869l16.486,1.629.021-.141,2.933-19.464.021-.141Zm-59.8,39.594a37.231,37.231,0,1,1,42.361-31.27,37.232,37.232,0,0,1-42.361,31.27" transform="translate(-30.081 -26.334)" fill="#d29de5"/>
        <path id="Trazado_641432" data-name="Trazado 641432" d="M323.225,268.145a31.064,31.064,0,0,0-17.536,49.444l48.2-39.17a31.05,31.05,0,0,0-30.666-10.274" transform="translate(-35.368 -31.618)" fill="#edd8f5"/>
        <path id="Trazado_641433" data-name="Trazado 641433" d="M354.779,279.9l-48.2,39.17a31.06,31.06,0,1,0,48.2-39.17" transform="translate(-36.256 -33.101)" fill="#543f5c"/>
        <path id="Trazado_641434" data-name="Trazado 641434" d="M328.706,322.915a23.648,23.648,0,1,1,7.682-.474,23.6,23.6,0,0,1-7.682.474h0" transform="translate(-36.368 -32.618)" fill="#b285c3"/>
        <path id="Trazado_641435" data-name="Trazado 641435" d="M240.559,91.305A52.806,52.806,0,0,0,224.266,79l3.3-15.832L208.95,58.3l-4.876,15.42a52.8,52.8,0,0,0-20.377,2.8L174.84,62.992l-16.609,9.719,7.453,14.348a52.788,52.788,0,0,0-12.421,16.393l-15.833-3.3-4.872,18.617,15.421,4.876a52.8,52.8,0,0,0,2.747,20.232l-13.543,8.883.071.12,9.719,16.608.071.121,14.377-7.456a52.809,52.809,0,0,0,16.294,12.3l-3.3,15.832,18.616,4.872,4.877-15.42a52.8,52.8,0,0,0,20.376-2.8l8.858,13.526,16.608-9.719L236.3,166.4A52.788,52.788,0,0,0,248.717,150l15.833,3.3,4.872-18.617L254,129.812a52.8,52.8,0,0,0-2.746-20.232L264.8,100.7l-.07-.12L255.007,83.97l-.071-.121Zm-21.186,66.837a36.4,36.4,0,1,1,13.03-49.8,36.4,36.4,0,0,1-13.03,49.8" transform="translate(-15.676 -6.894)" fill="#d29de5"/>
        <path id="Trazado_641436" data-name="Trazado 641436" d="M196.33,103.081a30.369,30.369,0,0,0-12.082,49.844l42.935-42.935a30.355,30.355,0,0,0-30.853-6.908" transform="translate(-20.781 -11.999)" fill="#edd8f5"/>
        <path id="Trazado_641437" data-name="Trazado 641437" d="M228.326,111.132l-42.935,42.935a30.365,30.365,0,1,0,42.935-42.935" transform="translate(-21.924 -13.143)" fill="#543f5c"/>
        <path id="Trazado_641438" data-name="Trazado 641438" d="M207.071,155.9a23.12,23.12,0,1,1,7.422-1.234,23.074,23.074,0,0,1-7.422,1.234Z" transform="translate(-21.758 -12.976)" fill="#b285c3"/>
        <path id="Trazado_641439" data-name="Trazado 641439" d="M46,349.327,30,332l-5.645,4.86,15.993,17.326Z" transform="translate(-2.881 -39.263)" fill="#362f1e"/>
        <path id="Trazado_641440" data-name="Trazado 641440" d="M34.921,372.292a12.976,12.976,0,0,1-10.909-5.95L14.83,352.087l-2.563,1.751,9.965,15.473a12.977,12.977,0,0,0,10.909,5.95H47.388a15.242,15.242,0,0,0-1.148-2.969Z" transform="translate(-1.451 -41.638)" fill="#727997"/>
        <path id="Trazado_641441" data-name="Trazado 641441" d="M35.264,371.171h11.32a15.236,15.236,0,0,0-6.423-6.521,7.472,7.472,0,0,1-3.923-7.45l.512-4.483L27.414,342.6l-12.24,8.362,9.182,14.255a12.976,12.976,0,0,0,10.909,5.95" transform="translate(-1.794 -40.516)" fill="#2b2b38"/>
        <path id="Trazado_641442" data-name="Trazado 641442" d="M64.284,296.486a82.064,82.064,0,0,0-27.456,22.551l-5,6.377L45.939,340.7l33.867-31.925A13.826,13.826,0,0,0,83.8,301.8l3.637-15.912L66.75,267.693Z" transform="translate(-3.764 -31.657)" fill="#665b3d"/>
        <path id="Trazado_641443" data-name="Trazado 641443" d="M72.966,247.4l-1.532,17.892,20.688,18.192,4.834-21.149Z" transform="translate(-8.448 -29.258)" fill="#362f1e"/>
        <path id="Trazado_641444" data-name="Trazado 641444" d="M119.645,208.5c7.514-18.859,6.666-27.718,5.438-30.238-1.708-3.5-10.919-6.48-10.919-6.48-6.687,1.539-12.783,5.936-17.548,10.873s-8.422,10.834-11.656,16.886a162.027,162.027,0,0,0-8.222,17.943l29.861,17.8c1.4-2.5,2.7-4.9,3.911-7.207l-1.09-38.755Z" transform="translate(-9.075 -20.315)" fill="#fce5e5"/>
        <path id="Trazado_641445" data-name="Trazado 641445" d="M113.8,191.673l1.09,38.755a208.736,208.736,0,0,0,9.137-19.576Z" transform="translate(-13.458 -22.667)" fill="#d1b0b0"/>
        <path id="Trazado_641446" data-name="Trazado 641446" d="M124.336,164.245a23.844,23.844,0,0,1-3.288,6.444,20.471,20.471,0,0,0,8.008,5.9,27.6,27.6,0,0,1,6.031-9.037,33.03,33.03,0,0,1-10.751-3.309" transform="translate(-14.315 -19.424)" fill="#ff896f"/>
        <path id="Trazado_641447" data-name="Trazado 641447" d="M119.183,171.482l2.058-2.234,10,5.645-2,5.409Z" transform="translate(-14.095 -20.015)" fill="#d1b0b0"/>
        <path id="Trazado_641448" data-name="Trazado 641448" d="M150.393,149.977a16.071,16.071,0,1,1-16.071-16.071,16.071,16.071,0,0,1,16.071,16.071" transform="translate(-13.984 -15.836)" fill="#fec5a7"/>
        <path id="Trazado_641449" data-name="Trazado 641449" d="M125.37,158.7a5.413,5.413,0,0,1-3.281-3.56,4.77,4.77,0,0,1,1.256-4.619,4.267,4.267,0,0,1,4.663-.767,3.865,3.865,0,0,1,2.065,4.175,18.367,18.367,0,0,0,7.951-7.944c2.258.562,4.425,1.611,6.749,1.749a13.286,13.286,0,0,0,6.793-1.208,8.118,8.118,0,0,0,4.327-5.2,7.491,7.491,0,0,0-3.516-7.846,9.078,9.078,0,0,0-8.793-.019c-2.432-2.991-6.785-4.678-10.64-4.675a17.478,17.478,0,0,0-12.2,5.135A18.664,18.664,0,0,0,115.44,146.1a19.363,19.363,0,0,0,5.121,13.956c1.382-.454,3.427-.9,4.809-1.354" transform="translate(-13.65 -15.231)" fill="#18004c"/>
        <path id="Trazado_641450" data-name="Trazado 641450" d="M105.829,241.414l28.058,36.765a15.525,15.525,0,0,1,3.089,11.121L131.7,337.058H110.076l.356-9.179a139.546,139.546,0,0,1,6.372-36.6l-40.036-35.36a19.327,19.327,0,0,1-5.095-21.8l4.294-10.5Z" transform="translate(-8.306 -26.445)" fill="#665b3d"/>
        <path id="Trazado_641451" data-name="Trazado 641451" d="M113.52,359.525h24.072l.8-7.251H114.315Z" transform="translate(-13.425 -41.66)" fill="#362f1e"/>
        <path id="Trazado_641452" data-name="Trazado 641452" d="M147.04,369.023h0a9.716,9.716,0,0,1-6.868-2.844l-5.681-5.681H119.322l-1.953,12.465h37.475a9.708,9.708,0,0,0-7.8-3.94" transform="translate(-13.88 -42.633)" fill="#2b2b38"/>
        <path id="Trazado_641453" data-name="Trazado 641453" d="M154.774,374.634H117.3l-.516,3.292h39.629l-.345-.921a9.65,9.65,0,0,0-1.294-2.371" transform="translate(-13.811 -44.304)" fill="#727997"/>
        <path id="Trazado_641454" data-name="Trazado 641454" d="M129.949,179.974c2.562,8.1-10.79,34.975-8.924,52.781l7.02,5.8,3.389-6.743c-3-18.972,4.545-49.358-.846-53.567Z" transform="translate(-14.291 -21.08)" fill="#ff3040"/>
        <path id="Trazado_641455" data-name="Trazado 641455" d="M174.291,238.286a6.376,6.376,0,0,0-4.232,1.606l-4.555-1.958-3.175,5.762,5.87,2.982a6.408,6.408,0,1,0,6.093-8.392" transform="translate(-19.197 -28.138)" fill="#fec5a7"/>
        <path id="Trazado_641456" data-name="Trazado 641456" d="M166.186,236.888l-5.327-2.814-4.188,9.159,5.988,2.592Z" transform="translate(-18.528 -27.682)" fill="#d1b0b0"/>
        <path id="Trazado_641457" data-name="Trazado 641457" d="M131.934,215.359l-4.6-27.316a6.892,6.892,0,1,0-13.55,2.521c1.654,8.124,3.438,17.448,5.089,25.558a14.67,14.67,0,0,0,8.552,10.531l24.157,10.457,4.188-9.16Z" transform="translate(-13.439 -21.558)" fill="#fce5e5"/>
        <path id="Trazado_641458" data-name="Trazado 641458" d="M252.012,172.864l-2.592-2.8a5.938,5.938,0,1,0-5.627,3.239l3.2,4.346Z" transform="translate(-28.168 -19.092)" fill="#ff896f"/>
        <path id="Trazado_641459" data-name="Trazado 641459" d="M199.217,173.055a5.938,5.938,0,1,0-5.627,3.239l2.352,3.193,4.625-4.971Z" transform="translate(-22.231 -19.446)" fill="#fec5a7"/>
        <path id="Trazado_641460" data-name="Trazado 641460" d="M254.115,191.356l-7.727,4.5a17.371,17.371,0,0,1-1.033,2.9,4.444,4.444,0,0,0,1.372,5.4c-.048-8.252,6.849-6.738,7.388-12.8" transform="translate(-28.968 -22.63)" fill="#ae4438"/>
        <path id="Trazado_641461" data-name="Trazado 641461" d="M285.614,228.249l-6.33-15.514A34.128,34.128,0,0,1,276.9,196.72l1.467-15.97a8.053,8.053,0,0,0-8.019-8.79H250.74a12.433,12.433,0,0,0-8.231,3.115l-18.835,16.641-16.426-12.8-6.609,7.105L215.025,199.2a11.352,11.352,0,0,0,13.184,1.553l12.94-7.191,7.727-4.5c-.539,6.065-7.436,4.552-7.388,12.8.118.088.227.185.356.264l.022.013a3.978,3.978,0,0,1,1.973,3.653l-1.458,22.453Z" transform="translate(-23.728 -20.336)" fill="#ff7060"/>
        <path id="Trazado_641462" data-name="Trazado 641462" d="M201.739,175.516l-.287.309-4.626,4.971-1.36,1.462,4.56,4.18,6.61-7.105Z" transform="translate(-23.116 -20.757)" fill="#ae4438"/>
        <path id="Trazado_641463" data-name="Trazado 641463" d="M274.61,168.78h-13.2l-.769,2.8h14.738Z" transform="translate(-30.823 -19.96)" fill="#3054f2"/>
        <path id="Trazado_641464" data-name="Trazado 641464" d="M242.878,373.854a2.357,2.357,0,0,1-.235-1.816,4.719,4.719,0,0,1-1.686.324h-2.69a4.747,4.747,0,0,0-4.44,3.071l-.78,2.072h10.329a14,14,0,0,0,5.694-1.211l2.131-.95.179,2.16h5.149l-.69-6.449c-4.336-.05-8.613,3.248-12.96,2.8" transform="translate(-27.56 -43.881)" fill="#ff7060"/>
        <path id="Trazado_641465" data-name="Trazado 641465" d="M280.093,373.854a2.368,2.368,0,0,1-.209-1.907,4.736,4.736,0,0,1-1.919.414h-2.69a4.746,4.746,0,0,0-4.44,3.071l-.781,2.072H280.59a14,14,0,0,0,5.694-1.211l2.131-.95.178,2.16h4.942l-.689-6.448c-4.267.053-8.476,3.24-12.754,2.8" transform="translate(-31.937 -43.881)" fill="#ff7060"/>
        <path id="Trazado_641466" data-name="Trazado 641466" d="M236.2,308.486l9.732,49.942a4.747,4.747,0,0,1-1.986,4.829,4.691,4.691,0,0,1-.986.5,2.353,2.353,0,0,0,.235,1.816c4.347.45,8.623-2.849,12.96-2.8l-.364-3.411.093-20.225a95.154,95.154,0,0,0-5.8-33.156l.119-.293a71.324,71.324,0,0,1-14.3-4.65,24.655,24.655,0,0,0,.3,7.446" transform="translate(-27.88 -35.601)" fill="#fec5a7"/>
        <path id="Trazado_641467" data-name="Trazado 641467" d="M289.787,235.8H246.554l-10.369,55.746c-.109.591-.191,1.184-.257,1.779a71.266,71.266,0,0,0,14.3,4.649l17.957-44.183-.227,42.371.649,3.332a70.844,70.844,0,0,0,14.231-2.086Z" transform="translate(-27.901 -27.886)" fill="#ff896f"/>
        <path id="Trazado_641468" data-name="Trazado 641468" d="M292.922,339.687a95.175,95.175,0,0,0-5.8-33.156l.1-.86a70.831,70.831,0,0,1-14.231,2.086l9.98,51.218a4.679,4.679,0,0,1-2.739,5.238,2.368,2.368,0,0,0,.209,1.907c4.278.443,8.488-2.745,12.754-2.8l-.365-3.411Z" transform="translate(-32.284 -36.149)" fill="#fec5a7"/>
        <path id="Trazado_641469" data-name="Trazado 641469" d="M290.458,288.792c-16.9,4.958-44.7,6.878-60.047-4.581L245.9,235.8h43.233l1.808,3.135A30.935,30.935,0,0,1,293.605,264c-2.729,8.339-4.261,17.876-3.147,24.794" transform="translate(-27.249 -27.886)" fill="#543f5c"/>
        <path id="Trazado_641470" data-name="Trazado 641470" d="M280.931,147.309a16.071,16.071,0,1,1-16.071-16.071,16.071,16.071,0,0,1,16.071,16.071" transform="translate(-29.422 -15.52)" fill="#fec5a7"/>
        <path id="Trazado_641471" data-name="Trazado 641471" d="M273.707,171.208H262.792l-.705-5.608H273Z" transform="translate(-30.994 -19.584)" fill="#fec5a7"/>
        <path id="Trazado_641472" data-name="Trazado 641472" d="M259.29,177.354c.1,3.926.2,7.893,1.9,11.5a14.717,14.717,0,0,0,14.051,8.007c4.581-.4,9.829-5.681,11.839-9.561,3.326-6.415,1.247-11.62-.993-17.9A47.881,47.881,0,0,1,284,157.744c-.706-7.446-.756-13.969-4.642-20.478-3.358-5.624-9.814-9.52-16.468-8.9-6.744.629-12.859,6.346-13.3,13.1-.49,7.537,3.86,12.992,6.106,19.9,1.4,4.3,3.15,7.753,3.453,12.407.077,1.182.108,2.379.138,3.579" transform="translate(-29.512 -15.173)" fill="#18004c"/>
        <path id="Trazado_641473" data-name="Trazado 641473" d="M367.873,226.459l-2.861-5.405-4.025,2.338a5.87,5.87,0,1,0,3.195,5.5Z" transform="translate(-41.681 -26.142)" fill="#fec5a7"/>
        <path id="Trazado_641474" data-name="Trazado 641474" d="M363.571,220.68,369,228.65l5.425-3.216-5.535-8.253Z" transform="translate(-42.996 -25.684)" fill="#f77400"/>
        <path id="Trazado_641475" data-name="Trazado 641475" d="M411.263,160.391h0a6.4,6.4,0,0,0-8.127,3.819l-11.794,31.906L369.6,210.423l5.534,8.252,22.931-13.592a14.93,14.93,0,0,0,6.381-7.643l10.693-28.782a6.4,6.4,0,0,0-3.876-8.267" transform="translate(-43.709 -18.925)" fill="#fdbd28"/>
        <path id="Trazado_641476" data-name="Trazado 641476" d="M286.925,385.8a2.477,2.477,0,0,1,2.477-2.477H393.9a2.477,2.477,0,0,0,0-4.954H2.477a2.477,2.477,0,0,0,0,4.954H37.1a2.477,2.477,0,1,1,0,4.954H29.425a2.477,2.477,0,1,0,0,4.954h96.55a2.477,2.477,0,1,1,0,4.954H91.163a2.477,2.477,0,0,0,0,4.954H305.212a2.477,2.477,0,0,0,0-4.954H247.251a2.477,2.477,0,1,1,0-4.954h119.7a2.477,2.477,0,0,0,0-4.954H289.4a2.477,2.477,0,0,1-2.477-2.477" transform="translate(0 -44.746)" fill="#edd8f5"/>
      </g>
    </g>
    <rect id="Rectángulo_347091" data-name="Rectángulo 347091" width="237.205" height="34.69" rx="9" transform="translate(898.383 3018.621) rotate(180)" fill="#d29de5"/>
    <rect id="Rectángulo_347093" data-name="Rectángulo 347093" width="51.566" height="3.75" transform="translate(805.563 2983.931) rotate(180)" fill="#665b3d"/>
    <path id="Trazado_642855" data-name="Trazado 642855" d="M3.329,11.518V16h-2.1V3.914H5.852A4.675,4.675,0,0,1,9.069,4.969,3.549,3.549,0,0,1,10.26,7.761a3.431,3.431,0,0,1-1.166,2.767,4.9,4.9,0,0,1-3.266.989Zm0-1.693H5.852A2.485,2.485,0,0,0,7.562,9.3a1.937,1.937,0,0,0,.589-1.523,2.09,2.09,0,0,0-.6-1.565,2.3,2.3,0,0,0-1.644-.6H3.329Zm12.418,6.342a4.173,4.173,0,0,1-3.109-1.208,4.381,4.381,0,0,1-1.191-3.217v-.249a5.389,5.389,0,0,1,.519-2.4,3.949,3.949,0,0,1,1.457-1.648,3.851,3.851,0,0,1,2.092-.589,3.525,3.525,0,0,1,2.835,1.17,4.949,4.949,0,0,1,1,3.312v.813H13.48a2.7,2.7,0,0,0,.743,1.76,2.23,2.23,0,0,0,1.639.647,2.731,2.731,0,0,0,2.258-1.121l1.087,1.038a3.631,3.631,0,0,1-1.44,1.249A4.509,4.509,0,0,1,15.747,16.166Zm-.241-7.695a1.7,1.7,0,0,0-1.341.581,3.012,3.012,0,0,0-.652,1.619h3.843v-.149a2.452,2.452,0,0,0-.54-1.531A1.686,1.686,0,0,0,15.506,8.471Zm10.11.39a4.991,4.991,0,0,0-.822-.066,1.85,1.85,0,0,0-1.868,1.063V16H20.91V7.019h1.926l.05,1a2.273,2.273,0,0,1,2.025-1.17,1.888,1.888,0,0,1,.714.116Zm4.806,5.694a1.824,1.824,0,0,0,1.253-.44,1.5,1.5,0,0,0,.531-1.087h1.9a2.963,2.963,0,0,1-.523,1.565,3.43,3.43,0,0,1-1.328,1.15,3.958,3.958,0,0,1-1.81.423,3.829,3.829,0,0,1-2.988-1.22,4.84,4.84,0,0,1-1.1-3.37v-.208a4.759,4.759,0,0,1,1.1-3.283,3.8,3.8,0,0,1,2.988-1.233,3.69,3.69,0,0,1,2.611.934,3.345,3.345,0,0,1,1.058,2.453h-1.9a1.847,1.847,0,0,0-.527-1.27,1.7,1.7,0,0,0-1.258-.5,1.775,1.775,0,0,0-1.511.71,3.621,3.621,0,0,0-.54,2.154v.324a3.682,3.682,0,0,0,.527,2.179A1.773,1.773,0,0,0,30.422,14.556Zm9.164,1.61a4.173,4.173,0,0,1-3.109-1.208,4.381,4.381,0,0,1-1.191-3.217v-.249a5.389,5.389,0,0,1,.519-2.4,3.949,3.949,0,0,1,1.457-1.648,3.851,3.851,0,0,1,2.092-.589,3.525,3.525,0,0,1,2.835,1.17,4.949,4.949,0,0,1,1,3.312v.813H37.32a2.7,2.7,0,0,0,.743,1.76,2.23,2.23,0,0,0,1.639.647,2.731,2.731,0,0,0,2.258-1.121l1.087,1.038a3.631,3.631,0,0,1-1.44,1.249A4.509,4.509,0,0,1,39.586,16.166Zm-.241-7.695a1.7,1.7,0,0,0-1.341.581,3.012,3.012,0,0,0-.652,1.619H41.2v-.149a2.452,2.452,0,0,0-.54-1.531A1.686,1.686,0,0,0,39.346,8.471ZM52.619,11.6a5.348,5.348,0,0,1-.946,3.324,3.287,3.287,0,0,1-4.906.27v4.258H44.75V7.019h1.859l.083.913a2.963,2.963,0,0,1,2.416-1.079,3.062,3.062,0,0,1,2.577,1.224,5.49,5.49,0,0,1,.934,3.4Zm-2.009-.174a3.746,3.746,0,0,0-.535-2.133A1.741,1.741,0,0,0,48.543,8.5a1.856,1.856,0,0,0-1.776,1.021V13.51a1.873,1.873,0,0,0,1.793,1.046,1.739,1.739,0,0,0,1.507-.776A4.124,4.124,0,0,0,50.61,11.426Zm7.4,3.129a1.824,1.824,0,0,0,1.253-.44,1.5,1.5,0,0,0,.531-1.087h1.9a2.963,2.963,0,0,1-.523,1.565,3.43,3.43,0,0,1-1.328,1.15,3.958,3.958,0,0,1-1.81.423,3.829,3.829,0,0,1-2.988-1.22,4.84,4.84,0,0,1-1.1-3.37v-.208a4.759,4.759,0,0,1,1.1-3.283,3.8,3.8,0,0,1,2.988-1.233,3.69,3.69,0,0,1,2.611.934A3.345,3.345,0,0,1,61.7,10.239H59.8a1.847,1.847,0,0,0-.527-1.27,1.7,1.7,0,0,0-1.258-.5,1.775,1.775,0,0,0-1.511.71,3.621,3.621,0,0,0-.54,2.154v.324a3.682,3.682,0,0,0,.527,2.179A1.773,1.773,0,0,0,58.014,14.556ZM65.369,16H63.352V7.019h2.017ZM63.227,4.686a1.071,1.071,0,0,1,.295-.772,1.113,1.113,0,0,1,.843-.307,1.127,1.127,0,0,1,.847.307,1.062,1.062,0,0,1,.3.772,1.038,1.038,0,0,1-.3.76,1.136,1.136,0,0,1-.847.3,1.122,1.122,0,0,1-.843-.3A1.046,1.046,0,0,1,63.227,4.686Zm3.959,6.74a5.3,5.3,0,0,1,.523-2.378,3.819,3.819,0,0,1,1.469-1.627,4.14,4.14,0,0,1,2.175-.569A3.923,3.923,0,0,1,74.3,8.023a4.6,4.6,0,0,1,1.224,3.1l.008.473a5.343,5.343,0,0,1-.51,2.374,3.773,3.773,0,0,1-1.461,1.619,4.17,4.17,0,0,1-2.2.573A3.9,3.9,0,0,1,68.328,14.9a4.848,4.848,0,0,1-1.141-3.374ZM69.2,11.6a3.619,3.619,0,0,0,.573,2.171,1.862,1.862,0,0,0,1.594.784,1.842,1.842,0,0,0,1.59-.8,4,4,0,0,0,.569-2.333,3.572,3.572,0,0,0-.585-2.158,1.973,1.973,0,0,0-3.158-.012A3.922,3.922,0,0,0,69.2,11.6ZM71.91,3.25h2.3l-2.3,2.515-1.619,0Zm7.205,3.769.058,1.038a3.229,3.229,0,0,1,2.615-1.2q2.806,0,2.855,3.212V16H82.626V10.181a1.85,1.85,0,0,0-.369-1.266A1.554,1.554,0,0,0,81.049,8.5a1.944,1.944,0,0,0-1.818,1.1V16H77.214V7.019Zm11.438,4.424a5.34,5.34,0,0,1,.963-3.333A3.085,3.085,0,0,1,94.1,6.853a2.931,2.931,0,0,1,2.308,1V3.25h2.017V16H96.6l-.1-.93a2.973,2.973,0,0,1-2.416,1.1,3.068,3.068,0,0,1-2.552-1.27A5.535,5.535,0,0,1,90.553,11.443Zm2.017.174a3.739,3.739,0,0,0,.527,2.137,1.71,1.71,0,0,0,1.5.768,1.9,1.9,0,0,0,1.81-1.1V9.583A1.876,1.876,0,0,0,94.612,8.5a1.723,1.723,0,0,0-1.511.776A4.163,4.163,0,0,0,92.57,11.617Zm11.912,4.549a4.173,4.173,0,0,1-3.109-1.208,4.381,4.381,0,0,1-1.191-3.217v-.249a5.389,5.389,0,0,1,.519-2.4,3.949,3.949,0,0,1,1.457-1.648,3.851,3.851,0,0,1,2.092-.589,3.525,3.525,0,0,1,2.835,1.17,4.949,4.949,0,0,1,1,3.312v.813h-5.869a2.7,2.7,0,0,0,.743,1.76,2.23,2.23,0,0,0,1.639.647,2.731,2.731,0,0,0,2.258-1.121l1.087,1.038a3.631,3.631,0,0,1-1.44,1.249A4.509,4.509,0,0,1,104.482,16.166Zm-.241-7.695a1.7,1.7,0,0,0-1.341.581,3.012,3.012,0,0,0-.652,1.619h3.843v-.149a2.452,2.452,0,0,0-.54-1.531A1.686,1.686,0,0,0,104.241,8.471Zm11.746-1.453V16.8a2.955,2.955,0,0,1-.685,2.1,2.625,2.625,0,0,1-2,.726,4.031,4.031,0,0,1-1.071-.141V17.893a3.108,3.108,0,0,0,.714.075q1,0,1.029-1.1V7.019ZM113.8,4.686a1.071,1.071,0,0,1,.295-.772,1.113,1.113,0,0,1,.843-.307,1.127,1.127,0,0,1,.847.307,1.062,1.062,0,0,1,.3.772,1.038,1.038,0,0,1-.3.76,1.136,1.136,0,0,1-.847.3,1.122,1.122,0,0,1-.843-.3A1.046,1.046,0,0,1,113.8,4.686Zm9.787,10.434a3.128,3.128,0,0,1-2.523,1.046,2.788,2.788,0,0,1-2.212-.855,3.637,3.637,0,0,1-.751-2.474V7.019h2.017v5.794q0,1.71,1.419,1.71a1.993,1.993,0,0,0,1.984-1.054V7.019h2.017V16h-1.9Zm9.04-1.561a.914.914,0,0,0-.444-.822,4.723,4.723,0,0,0-1.473-.5,7.574,7.574,0,0,1-1.718-.548,2.293,2.293,0,0,1-1.511-2.117,2.391,2.391,0,0,1,.979-1.942,3.872,3.872,0,0,1,2.49-.78,4.029,4.029,0,0,1,2.6.8,2.529,2.529,0,0,1,.992,2.067h-2.017a1.243,1.243,0,0,0-.432-.967,1.654,1.654,0,0,0-1.146-.386,1.787,1.787,0,0,0-1.083.307.968.968,0,0,0-.419.822.818.818,0,0,0,.39.722,5.365,5.365,0,0,0,1.577.519,7.466,7.466,0,0,1,1.864.623,2.639,2.639,0,0,1,1,.867,2.212,2.212,0,0,1,.328,1.229,2.34,2.34,0,0,1-1,1.963,4.283,4.283,0,0,1-2.631.751,4.644,4.644,0,0,1-1.967-.4,3.238,3.238,0,0,1-1.345-1.1,2.594,2.594,0,0,1-.481-1.5h1.959a1.421,1.421,0,0,0,.54,1.1,2.1,2.1,0,0,0,1.32.386,2.04,2.04,0,0,0,1.212-.3A.938.938,0,0,0,132.622,13.56Zm6.267-8.724V7.019h1.585V8.513h-1.585v5.014a1.1,1.1,0,0,0,.2.743.943.943,0,0,0,.726.228,3.107,3.107,0,0,0,.706-.083v1.561a4.968,4.968,0,0,1-1.328.191q-2.324,0-2.324-2.565V8.513h-1.478V7.019h1.478V4.835ZM144.16,16h-2.017V7.019h2.017ZM142.018,4.686a1.07,1.07,0,0,1,.295-.772,1.113,1.113,0,0,1,.843-.307,1.127,1.127,0,0,1,.847.307,1.062,1.062,0,0,1,.3.772,1.038,1.038,0,0,1-.3.76,1.136,1.136,0,0,1-.847.3,1.122,1.122,0,0,1-.843-.3A1.046,1.046,0,0,1,142.018,4.686Zm8.027,9.87a1.824,1.824,0,0,0,1.253-.44,1.5,1.5,0,0,0,.531-1.087h1.9a2.963,2.963,0,0,1-.523,1.565,3.43,3.43,0,0,1-1.328,1.15,3.958,3.958,0,0,1-1.81.423,3.829,3.829,0,0,1-2.988-1.22,4.84,4.84,0,0,1-1.1-3.37v-.208a4.759,4.759,0,0,1,1.1-3.283,3.8,3.8,0,0,1,2.988-1.233,3.69,3.69,0,0,1,2.611.934,3.345,3.345,0,0,1,1.058,2.453h-1.9a1.847,1.847,0,0,0-.527-1.27,1.7,1.7,0,0,0-1.258-.5,1.775,1.775,0,0,0-1.511.71,3.621,3.621,0,0,0-.54,2.154v.324a3.682,3.682,0,0,0,.527,2.179A1.773,1.773,0,0,0,150.045,14.556ZM157.4,16h-2.017V7.019H157.4ZM155.258,4.686a1.07,1.07,0,0,1,.295-.772,1.113,1.113,0,0,1,.843-.307,1.127,1.127,0,0,1,.847.307,1.062,1.062,0,0,1,.3.772,1.038,1.038,0,0,1-.3.76,1.136,1.136,0,0,1-.847.3,1.122,1.122,0,0,1-.843-.3A1.046,1.046,0,0,1,155.258,4.686ZM164.961,16a3.113,3.113,0,0,1-.232-.838,3.393,3.393,0,0,1-4.565.232,2.47,2.47,0,0,1-.855-1.909,2.55,2.55,0,0,1,1.067-2.2,5.169,5.169,0,0,1,3.051-.768h1.237V9.924a1.573,1.573,0,0,0-.39-1.116,1.547,1.547,0,0,0-1.187-.419,1.777,1.777,0,0,0-1.129.344,1.066,1.066,0,0,0-.44.876H159.5a2.239,2.239,0,0,1,.49-1.382,3.263,3.263,0,0,1,1.332-1.009,4.68,4.68,0,0,1,1.88-.365,3.769,3.769,0,0,1,2.515.793,2.827,2.827,0,0,1,.963,2.229v4.051a4.591,4.591,0,0,0,.34,1.934V16Zm-2.216-1.453a2.294,2.294,0,0,0,1.125-.291,1.941,1.941,0,0,0,.793-.78V11.783h-1.087a2.973,2.973,0,0,0-1.685.39,1.264,1.264,0,0,0-.564,1.1,1.179,1.179,0,0,0,.386.926A1.5,1.5,0,0,0,162.745,14.547Z" transform="translate(701.024 2991.9)" fill="#12263f"/>
    <rect id="Rectángulo_347091-2" data-name="Rectángulo 347091" width="237.205" height="34.69" rx="9" transform="translate(398.189 2649.883)" fill="#d29de5"/>
    <rect id="Rectángulo_347093-2" data-name="Rectángulo 347093" width="51.566" height="3.75" transform="translate(491.009 2684.573)" fill="#665b3d"/>
    <path id="Trazado_642852" data-name="Trazado 642852" d="M3.329,14.323H8.815V16H1.229V3.914h2.1ZM12.376,16H10.359V7.019h2.017ZM10.235,4.686a1.071,1.071,0,0,1,.295-.772,1.113,1.113,0,0,1,.843-.307,1.127,1.127,0,0,1,.847.307,1.062,1.062,0,0,1,.3.772,1.038,1.038,0,0,1-.3.76,1.136,1.136,0,0,1-.847.3,1.122,1.122,0,0,1-.843-.3A1.046,1.046,0,0,1,10.235,4.686Zm3.959,6.757a5.34,5.34,0,0,1,.963-3.333,3.085,3.085,0,0,1,2.582-1.258,2.931,2.931,0,0,1,2.308,1V3.25h2.017V16H20.237l-.1-.93a2.973,2.973,0,0,1-2.416,1.1A3.068,3.068,0,0,1,15.17,14.9,5.535,5.535,0,0,1,14.194,11.443Zm2.017.174a3.739,3.739,0,0,0,.527,2.137,1.71,1.71,0,0,0,1.5.768,1.9,1.9,0,0,0,1.81-1.1V9.583A1.876,1.876,0,0,0,18.253,8.5a1.723,1.723,0,0,0-1.511.776A4.163,4.163,0,0,0,16.211,11.617Zm11.912,4.549a4.173,4.173,0,0,1-3.109-1.208,4.381,4.381,0,0,1-1.191-3.217v-.249a5.389,5.389,0,0,1,.519-2.4A3.949,3.949,0,0,1,25.8,7.442a3.851,3.851,0,0,1,2.092-.589,3.525,3.525,0,0,1,2.835,1.17,4.949,4.949,0,0,1,1,3.312v.813H25.857a2.7,2.7,0,0,0,.743,1.76,2.23,2.23,0,0,0,1.639.647A2.731,2.731,0,0,0,30.5,13.435l1.087,1.038a3.631,3.631,0,0,1-1.44,1.249A4.509,4.509,0,0,1,28.123,16.166Zm-.241-7.695a1.7,1.7,0,0,0-1.341.581,3.012,3.012,0,0,0-.652,1.619h3.843v-.149a2.452,2.452,0,0,0-.54-1.531A1.686,1.686,0,0,0,27.882,8.471Zm10.11.39a4.991,4.991,0,0,0-.822-.066A1.85,1.85,0,0,0,35.3,9.857V16H33.286V7.019h1.926l.05,1a2.273,2.273,0,0,1,2.025-1.17A1.888,1.888,0,0,1,38,6.969ZM44.384,16a3.113,3.113,0,0,1-.232-.838,3.393,3.393,0,0,1-4.565.232,2.47,2.47,0,0,1-.855-1.909,2.55,2.55,0,0,1,1.067-2.2,5.169,5.169,0,0,1,3.051-.768h1.237V9.924a1.573,1.573,0,0,0-.39-1.116,1.547,1.547,0,0,0-1.187-.419,1.777,1.777,0,0,0-1.129.344,1.066,1.066,0,0,0-.44.876H38.922a2.239,2.239,0,0,1,.49-1.382,3.263,3.263,0,0,1,1.332-1.009,4.68,4.68,0,0,1,1.88-.365,3.769,3.769,0,0,1,2.515.793A2.827,2.827,0,0,1,46.1,9.874v4.051a4.591,4.591,0,0,0,.34,1.934V16Zm-2.216-1.453a2.294,2.294,0,0,0,1.125-.291,1.941,1.941,0,0,0,.793-.78V11.783H43a2.973,2.973,0,0,0-1.685.39,1.264,1.264,0,0,0-.564,1.1,1.179,1.179,0,0,0,.386.926A1.5,1.5,0,0,0,42.168,14.547Zm8.2-.158H55.15V16H47.862V14.68l4.557-6.035H47.945V7.019h7.031V8.3Zm5.91-2.947A5.253,5.253,0,0,1,57.263,8.1a3.157,3.157,0,0,1,2.611-1.249,2.958,2.958,0,0,1,2.416,1.071l.091-.9H64.2v8.708a3.619,3.619,0,0,1-1.1,2.789,4.189,4.189,0,0,1-2.968,1.021,4.783,4.783,0,0,1-1.93-.411,3.429,3.429,0,0,1-1.432-1.075l.955-1.212a2.883,2.883,0,0,0,2.291,1.1A2.228,2.228,0,0,0,61.6,17.4a2.084,2.084,0,0,0,.581-1.6v-.606a2.97,2.97,0,0,1-2.324.971,3.15,3.15,0,0,1-2.577-1.253A5.423,5.423,0,0,1,56.279,11.443Zm2.009.174a3.616,3.616,0,0,0,.552,2.129,1.775,1.775,0,0,0,1.531.776,1.941,1.941,0,0,0,1.81-1.046V9.525A1.913,1.913,0,0,0,60.388,8.5a1.782,1.782,0,0,0-1.548.789A4.049,4.049,0,0,0,58.288,11.617Zm7.6-.191a5.3,5.3,0,0,1,.523-2.378,3.819,3.819,0,0,1,1.469-1.627,4.14,4.14,0,0,1,2.175-.569,3.923,3.923,0,0,1,2.951,1.17,4.6,4.6,0,0,1,1.224,3.1l.008.473a5.343,5.343,0,0,1-.51,2.374,3.773,3.773,0,0,1-1.461,1.619,4.17,4.17,0,0,1-2.2.573A3.9,3.9,0,0,1,67.033,14.9a4.848,4.848,0,0,1-1.141-3.374Zm2.017.174a3.619,3.619,0,0,0,.573,2.171,1.862,1.862,0,0,0,1.594.784,1.842,1.842,0,0,0,1.59-.8,4,4,0,0,0,.569-2.333,3.572,3.572,0,0,0-.585-2.158,1.973,1.973,0,0,0-3.158-.012A3.922,3.922,0,0,0,67.909,11.6Z" transform="translate(472.257 2658.321)" fill="#12263f"/>
    <rect id="Rectángulo_347091-3" data-name="Rectángulo 347091" width="237.205" height="34.69" rx="9" transform="translate(947.605 2622.732)" fill="#d29de5"/>
    <rect id="Rectángulo_347093-3" data-name="Rectángulo 347093" width="51.566" height="3.75" transform="translate(1040.425 2657.423)" fill="#665b3d"/>
    <path id="Trazado_642853" data-name="Trazado 642853" d="M10.874,10.272a7.415,7.415,0,0,1-.614,3.117A4.644,4.644,0,0,1,8.5,15.448a4.829,4.829,0,0,1-2.627.718,4.84,4.84,0,0,1-2.619-.718A4.716,4.716,0,0,1,1.482,13.4a7.183,7.183,0,0,1-.635-3.063V9.658a7.351,7.351,0,0,1,.627-3.121A4.71,4.71,0,0,1,3.241,4.466,4.814,4.814,0,0,1,5.86,3.748a4.856,4.856,0,0,1,2.619.71A4.65,4.65,0,0,1,10.243,6.5a7.336,7.336,0,0,1,.631,3.1Zm-2.1-.631a5.283,5.283,0,0,0-.76-3.08A2.485,2.485,0,0,0,5.86,5.491,2.477,2.477,0,0,0,3.731,6.558a5.181,5.181,0,0,0-.784,3.017v.7a5.243,5.243,0,0,0,.776,3.08,2.5,2.5,0,0,0,2.154,1.087,2.47,2.47,0,0,0,2.146-1.062,5.356,5.356,0,0,0,.751-3.1ZM20.636,11.6a5.348,5.348,0,0,1-.946,3.324,3.031,3.031,0,0,1-2.54,1.241,3.051,3.051,0,0,1-2.366-.971v4.258H12.767V7.019h1.859l.083.913a2.963,2.963,0,0,1,2.416-1.079A3.062,3.062,0,0,1,19.7,8.077a5.49,5.49,0,0,1,.934,3.4Zm-2.009-.174a3.746,3.746,0,0,0-.535-2.133A1.741,1.741,0,0,0,16.56,8.5a1.856,1.856,0,0,0-1.776,1.021V13.51a1.873,1.873,0,0,0,1.793,1.046,1.739,1.739,0,0,0,1.507-.776A4.124,4.124,0,0,0,18.627,11.426Zm3.337,0a5.3,5.3,0,0,1,.523-2.378,3.819,3.819,0,0,1,1.469-1.627,4.14,4.14,0,0,1,2.175-.569,3.923,3.923,0,0,1,2.951,1.17,4.6,4.6,0,0,1,1.224,3.1l.008.473a5.343,5.343,0,0,1-.51,2.374,3.773,3.773,0,0,1-1.461,1.619,4.17,4.17,0,0,1-2.2.573A3.9,3.9,0,0,1,23.105,14.9a4.848,4.848,0,0,1-1.141-3.374Zm2.017.174a3.619,3.619,0,0,0,.573,2.171,1.862,1.862,0,0,0,1.594.784,1.842,1.842,0,0,0,1.59-.8,4,4,0,0,0,.569-2.333,3.572,3.572,0,0,0-.585-2.158,1.973,1.973,0,0,0-3.158-.012A3.922,3.922,0,0,0,23.981,11.6ZM36.723,8.861a4.991,4.991,0,0,0-.822-.066,1.85,1.85,0,0,0-1.868,1.063V16H32.016V7.019h1.926l.05,1a2.273,2.273,0,0,1,2.025-1.17,1.888,1.888,0,0,1,.714.116Zm4.217-4.026V7.019h1.585V8.513H40.939v5.014a1.1,1.1,0,0,0,.2.743.943.943,0,0,0,.726.228,3.107,3.107,0,0,0,.706-.083v1.561a4.968,4.968,0,0,1-1.328.191q-2.324,0-2.324-2.565V8.513H37.445V7.019h1.478V4.835ZM49.506,15.12a3.128,3.128,0,0,1-2.523,1.046,2.788,2.788,0,0,1-2.212-.855,3.637,3.637,0,0,1-.751-2.474V7.019h2.017v5.794q0,1.71,1.419,1.71a1.993,1.993,0,0,0,1.984-1.054V7.019h2.017V16h-1.9Zm5.877-8.1.058,1.038a3.229,3.229,0,0,1,2.615-1.2q2.806,0,2.855,3.212V16H58.894V10.181a1.85,1.85,0,0,0-.369-1.266A1.554,1.554,0,0,0,57.317,8.5a1.944,1.944,0,0,0-1.818,1.1V16H53.482V7.019ZM65.111,16H63.094V7.019h2.017ZM62.97,4.686a1.071,1.071,0,0,1,.295-.772,1.113,1.113,0,0,1,.843-.307,1.127,1.127,0,0,1,.847.307,1.062,1.062,0,0,1,.3.772,1.038,1.038,0,0,1-.3.76,1.136,1.136,0,0,1-.847.3,1.122,1.122,0,0,1-.843-.3A1.046,1.046,0,0,1,62.97,4.686Zm3.959,6.757a5.34,5.34,0,0,1,.963-3.333,3.085,3.085,0,0,1,2.582-1.258,2.931,2.931,0,0,1,2.308,1V3.25H74.8V16H72.972l-.1-.93a2.973,2.973,0,0,1-2.416,1.1A3.068,3.068,0,0,1,67.9,14.9,5.535,5.535,0,0,1,66.929,11.443Zm2.017.174a3.739,3.739,0,0,0,.527,2.137,1.71,1.71,0,0,0,1.5.768,1.9,1.9,0,0,0,1.81-1.1V9.583A1.876,1.876,0,0,0,70.988,8.5a1.723,1.723,0,0,0-1.511.776A4.163,4.163,0,0,0,68.946,11.617ZM82.269,16a3.113,3.113,0,0,1-.232-.838,3.393,3.393,0,0,1-4.565.232,2.47,2.47,0,0,1-.855-1.909,2.55,2.55,0,0,1,1.067-2.2,5.169,5.169,0,0,1,3.051-.768H81.97V9.924a1.573,1.573,0,0,0-.39-1.116,1.547,1.547,0,0,0-1.187-.419,1.777,1.777,0,0,0-1.129.344,1.066,1.066,0,0,0-.44.876H76.807a2.239,2.239,0,0,1,.49-1.382,3.263,3.263,0,0,1,1.332-1.009,4.68,4.68,0,0,1,1.88-.365,3.769,3.769,0,0,1,2.515.793,2.827,2.827,0,0,1,.963,2.229v4.051a4.591,4.591,0,0,0,.34,1.934V16Zm-2.216-1.453a2.294,2.294,0,0,0,1.125-.291,1.941,1.941,0,0,0,.793-.78V11.783H80.883a2.973,2.973,0,0,0-1.685.39,1.264,1.264,0,0,0-.564,1.1,1.179,1.179,0,0,0,.386.926A1.5,1.5,0,0,0,80.053,14.547Zm5.669-3.1a5.34,5.34,0,0,1,.963-3.333,3.085,3.085,0,0,1,2.582-1.258,2.931,2.931,0,0,1,2.308,1V3.25h2.017V16H91.765l-.1-.93a2.973,2.973,0,0,1-2.416,1.1A3.068,3.068,0,0,1,86.7,14.9,5.535,5.535,0,0,1,85.722,11.443Zm2.017.174a3.739,3.739,0,0,0,.527,2.137,1.71,1.71,0,0,0,1.5.768,1.9,1.9,0,0,0,1.81-1.1V9.583A1.876,1.876,0,0,0,89.781,8.5a1.723,1.723,0,0,0-1.511.776A4.163,4.163,0,0,0,87.739,11.617Zm11.912,4.549a4.173,4.173,0,0,1-3.109-1.208,4.381,4.381,0,0,1-1.191-3.217v-.249a5.389,5.389,0,0,1,.519-2.4,3.949,3.949,0,0,1,1.457-1.648,3.851,3.851,0,0,1,2.092-.589,3.525,3.525,0,0,1,2.835,1.17,4.949,4.949,0,0,1,1,3.312v.813H97.385a2.7,2.7,0,0,0,.743,1.76,2.23,2.23,0,0,0,1.639.647,2.731,2.731,0,0,0,2.258-1.121l1.087,1.038a3.631,3.631,0,0,1-1.44,1.249A4.509,4.509,0,0,1,99.651,16.166ZM99.41,8.471a1.7,1.7,0,0,0-1.341.581,3.012,3.012,0,0,0-.652,1.619h3.843v-.149a2.452,2.452,0,0,0-.54-1.531A1.686,1.686,0,0,0,99.41,8.471Zm10.442,5.088a.914.914,0,0,0-.444-.822,4.723,4.723,0,0,0-1.473-.5,7.574,7.574,0,0,1-1.718-.548,2.293,2.293,0,0,1-1.511-2.117,2.391,2.391,0,0,1,.979-1.942,3.872,3.872,0,0,1,2.49-.78,4.029,4.029,0,0,1,2.6.8,2.529,2.529,0,0,1,.992,2.067h-2.017a1.243,1.243,0,0,0-.432-.967,1.654,1.654,0,0,0-1.146-.386,1.787,1.787,0,0,0-1.083.307.968.968,0,0,0-.419.822.818.818,0,0,0,.39.722,5.365,5.365,0,0,0,1.577.519,7.466,7.466,0,0,1,1.864.623,2.639,2.639,0,0,1,1,.867,2.212,2.212,0,0,1,.328,1.229,2.34,2.34,0,0,1-1,1.963,4.283,4.283,0,0,1-2.631.751,4.644,4.644,0,0,1-1.967-.4,3.238,3.238,0,0,1-1.345-1.1,2.594,2.594,0,0,1-.481-1.5h1.959a1.421,1.421,0,0,0,.54,1.1,2.1,2.1,0,0,0,1.32.386,2.04,2.04,0,0,0,1.212-.3A.938.938,0,0,0,109.853,13.56Zm7.6-2.117a5.34,5.34,0,0,1,.963-3.333,3.085,3.085,0,0,1,2.582-1.258,2.931,2.931,0,0,1,2.308,1V3.25h2.017V16h-1.826l-.1-.93a2.973,2.973,0,0,1-2.416,1.1,3.068,3.068,0,0,1-2.552-1.27A5.535,5.535,0,0,1,117.448,11.443Zm2.017.174a3.739,3.739,0,0,0,.527,2.137,1.71,1.71,0,0,0,1.5.768,1.9,1.9,0,0,0,1.81-1.1V9.583A1.876,1.876,0,0,0,121.507,8.5,1.723,1.723,0,0,0,120,9.281,4.163,4.163,0,0,0,119.465,11.617Zm11.912,4.549a4.173,4.173,0,0,1-3.109-1.208,4.381,4.381,0,0,1-1.191-3.217v-.249a5.389,5.389,0,0,1,.519-2.4,3.949,3.949,0,0,1,1.457-1.648,3.851,3.851,0,0,1,2.092-.589,3.525,3.525,0,0,1,2.835,1.17,4.949,4.949,0,0,1,1,3.312v.813H129.11a2.7,2.7,0,0,0,.743,1.76,2.23,2.23,0,0,0,1.639.647,2.731,2.731,0,0,0,2.258-1.121l1.087,1.038a3.631,3.631,0,0,1-1.44,1.249A4.509,4.509,0,0,1,131.376,16.166Zm-.241-7.695a1.7,1.7,0,0,0-1.341.581,3.012,3.012,0,0,0-.652,1.619h3.843v-.149a2.452,2.452,0,0,0-.54-1.531A1.686,1.686,0,0,0,131.136,8.471Zm9.264,2.972a5.34,5.34,0,0,1,.963-3.333,3.085,3.085,0,0,1,2.582-1.258,2.931,2.931,0,0,1,2.308,1V3.25h2.017V16h-1.826l-.1-.93a2.973,2.973,0,0,1-2.416,1.1,3.068,3.068,0,0,1-2.552-1.27A5.535,5.535,0,0,1,140.4,11.443Zm2.017.174a3.739,3.739,0,0,0,.527,2.137,1.71,1.71,0,0,0,1.5.768,1.9,1.9,0,0,0,1.81-1.1V9.583A1.876,1.876,0,0,0,144.458,8.5a1.723,1.723,0,0,0-1.511.776A4.163,4.163,0,0,0,142.417,11.617Zm11.912,4.549a4.173,4.173,0,0,1-3.109-1.208,4.381,4.381,0,0,1-1.191-3.217v-.249a5.389,5.389,0,0,1,.519-2.4A3.949,3.949,0,0,1,152,7.442a3.851,3.851,0,0,1,2.092-.589,3.525,3.525,0,0,1,2.835,1.17,4.949,4.949,0,0,1,1,3.312v.813h-5.869a2.7,2.7,0,0,0,.743,1.76,2.23,2.23,0,0,0,1.639.647,2.731,2.731,0,0,0,2.258-1.121l1.087,1.038a3.631,3.631,0,0,1-1.44,1.249A4.509,4.509,0,0,1,154.328,16.166Zm-.241-7.695a1.7,1.7,0,0,0-1.341.581,3.012,3.012,0,0,0-.652,1.619h3.843v-.149a2.452,2.452,0,0,0-.54-1.531A1.686,1.686,0,0,0,154.087,8.471ZM164.53,13.56a.914.914,0,0,0-.444-.822,4.723,4.723,0,0,0-1.473-.5,7.574,7.574,0,0,1-1.718-.548,2.293,2.293,0,0,1-1.511-2.117,2.391,2.391,0,0,1,.979-1.942,3.872,3.872,0,0,1,2.49-.78,4.029,4.029,0,0,1,2.6.8,2.529,2.529,0,0,1,.992,2.067H164.43A1.243,1.243,0,0,0,164,8.749a1.654,1.654,0,0,0-1.146-.386,1.787,1.787,0,0,0-1.083.307.968.968,0,0,0-.419.822.818.818,0,0,0,.39.722,5.365,5.365,0,0,0,1.577.519,7.466,7.466,0,0,1,1.864.623,2.639,2.639,0,0,1,1,.867,2.212,2.212,0,0,1,.328,1.229,2.34,2.34,0,0,1-1,1.963,4.283,4.283,0,0,1-2.631.751,4.644,4.644,0,0,1-1.967-.4,3.238,3.238,0,0,1-1.345-1.1,2.594,2.594,0,0,1-.481-1.5h1.959a1.421,1.421,0,0,0,.54,1.1,2.1,2.1,0,0,0,1.32.386,2.04,2.04,0,0,0,1.212-.3A.938.938,0,0,0,164.53,13.56ZM173.636,16a3.113,3.113,0,0,1-.232-.838,3.393,3.393,0,0,1-4.565.232,2.47,2.47,0,0,1-.855-1.909,2.55,2.55,0,0,1,1.067-2.2,5.169,5.169,0,0,1,3.051-.768h1.237V9.924a1.573,1.573,0,0,0-.39-1.116,1.547,1.547,0,0,0-1.187-.419,1.777,1.777,0,0,0-1.129.344,1.066,1.066,0,0,0-.44.876h-2.017a2.239,2.239,0,0,1,.49-1.382A3.263,3.263,0,0,1,170,7.218a4.68,4.68,0,0,1,1.88-.365,3.769,3.769,0,0,1,2.515.793,2.827,2.827,0,0,1,.963,2.229v4.051a4.591,4.591,0,0,0,.34,1.934V16Zm-2.216-1.453a2.294,2.294,0,0,0,1.125-.291,1.941,1.941,0,0,0,.793-.78V11.783H172.25a2.973,2.973,0,0,0-1.685.39,1.264,1.264,0,0,0-.564,1.1,1.179,1.179,0,0,0,.386.926A1.5,1.5,0,0,0,171.419,14.547Zm10.75-5.686a4.991,4.991,0,0,0-.822-.066,1.85,1.85,0,0,0-1.868,1.063V16h-2.017V7.019h1.926l.05,1a2.273,2.273,0,0,1,2.025-1.17,1.888,1.888,0,0,1,.714.116Zm5.977,0a4.991,4.991,0,0,0-.822-.066,1.85,1.85,0,0,0-1.868,1.063V16h-2.017V7.019h1.926l.05,1a2.273,2.273,0,0,1,2.025-1.17,1.888,1.888,0,0,1,.714.116Zm.6,2.565a5.3,5.3,0,0,1,.523-2.378,3.819,3.819,0,0,1,1.469-1.627,4.14,4.14,0,0,1,2.175-.569,3.923,3.923,0,0,1,2.951,1.17,4.6,4.6,0,0,1,1.224,3.1l.008.473a5.343,5.343,0,0,1-.51,2.374,3.773,3.773,0,0,1-1.461,1.619,4.17,4.17,0,0,1-2.2.573,3.9,3.9,0,0,1-3.042-1.266,4.848,4.848,0,0,1-1.141-3.374Zm2.017.174a3.619,3.619,0,0,0,.573,2.171,1.862,1.862,0,0,0,1.594.784,1.842,1.842,0,0,0,1.59-.8,4,4,0,0,0,.569-2.333,3.572,3.572,0,0,0-.585-2.158,1.973,1.973,0,0,0-3.158-.012A3.922,3.922,0,0,0,190.76,11.6ZM200.945,16h-2.017V3.25h2.017Zm4.341,0H203.27V3.25h2.017Zm1.818-4.574a5.3,5.3,0,0,1,.523-2.378A3.819,3.819,0,0,1,209.1,7.421a4.14,4.14,0,0,1,2.175-.569,3.923,3.923,0,0,1,2.951,1.17,4.6,4.6,0,0,1,1.224,3.1l.008.473a5.343,5.343,0,0,1-.51,2.374,3.773,3.773,0,0,1-1.461,1.619,4.17,4.17,0,0,1-2.2.573,3.9,3.9,0,0,1-3.042-1.266,4.848,4.848,0,0,1-1.141-3.374Zm2.017.174a3.619,3.619,0,0,0,.573,2.171,1.862,1.862,0,0,0,1.594.784,1.842,1.842,0,0,0,1.59-.8,4,4,0,0,0,.569-2.333,3.572,3.572,0,0,0-.585-2.158,1.973,1.973,0,0,0-3.158-.012A3.922,3.922,0,0,0,209.122,11.6Z" transform="translate(957.811 2630.077)" fill="#12263f"/>
    <rect id="Rectángulo_347091-4" data-name="Rectángulo 347091" width="237.205" height="34.69" rx="9" transform="translate(371 2863.669)" fill="#d29de5"/>
    <rect id="Rectángulo_347093-4" data-name="Rectángulo 347093" width="51.566" height="3.75" transform="translate(463.819 2898.359)" fill="#665b3d"/>
    <path id="Trazado_642856" data-name="Trazado 642856" d="M27.65,12.065a4.364,4.364,0,0,1-1.428,3.017,4.867,4.867,0,0,1-3.312,1.083,4.713,4.713,0,0,1-2.544-.685,4.5,4.5,0,0,1-1.7-1.947,7.024,7.024,0,0,1-.623-2.93V9.476a7.075,7.075,0,0,1,.606-3.013,4.567,4.567,0,0,1,1.739-2.009,4.851,4.851,0,0,1,2.619-.706A4.672,4.672,0,0,1,26.23,4.831,4.527,4.527,0,0,1,27.65,7.9H25.558a2.985,2.985,0,0,0-.76-1.88,2.51,2.51,0,0,0-1.789-.577,2.452,2.452,0,0,0-2.1,1,5,5,0,0,0-.751,2.937v1.072a5.308,5.308,0,0,0,.7,2.991,2.328,2.328,0,0,0,2.054,1.03,2.715,2.715,0,0,0,1.859-.556,2.9,2.9,0,0,0,.789-1.851Zm7.122,3.055a3.128,3.128,0,0,1-2.523,1.046,2.788,2.788,0,0,1-2.212-.855,3.637,3.637,0,0,1-.751-2.474V7.019H31.3v5.794q0,1.71,1.419,1.71a1.993,1.993,0,0,0,1.984-1.054V7.019h2.017V16h-1.9Zm6.151.88H38.906V3.25h2.017ZM45.646,4.835V7.019h1.585V8.513H45.646v5.014a1.1,1.1,0,0,0,.2.743.943.943,0,0,0,.726.228,3.107,3.107,0,0,0,.706-.083v1.561a4.968,4.968,0,0,1-1.328.191q-2.324,0-2.324-2.565V8.513H42.151V7.019h1.478V4.835ZM54.212,15.12a3.128,3.128,0,0,1-2.523,1.046,2.788,2.788,0,0,1-2.212-.855,3.637,3.637,0,0,1-.751-2.474V7.019h2.017v5.794q0,1.71,1.419,1.71a1.993,1.993,0,0,0,1.984-1.054V7.019h2.017V16h-1.9ZM62.92,8.861a4.991,4.991,0,0,0-.822-.066A1.85,1.85,0,0,0,60.23,9.857V16H58.213V7.019h1.926l.05,1a2.273,2.273,0,0,1,2.025-1.17,1.888,1.888,0,0,1,.714.116ZM69.311,16a3.113,3.113,0,0,1-.232-.838,3.393,3.393,0,0,1-4.565.232,2.47,2.47,0,0,1-.855-1.909,2.55,2.55,0,0,1,1.067-2.2,5.169,5.169,0,0,1,3.051-.768h1.237V9.924a1.573,1.573,0,0,0-.39-1.116,1.547,1.547,0,0,0-1.187-.419,1.777,1.777,0,0,0-1.129.344,1.066,1.066,0,0,0-.44.876H63.849a2.239,2.239,0,0,1,.49-1.382,3.263,3.263,0,0,1,1.332-1.009,4.68,4.68,0,0,1,1.88-.365,3.769,3.769,0,0,1,2.515.793,2.827,2.827,0,0,1,.963,2.229v4.051a4.591,4.591,0,0,0,.34,1.934V16ZM67.1,14.547a2.294,2.294,0,0,0,1.125-.291,1.941,1.941,0,0,0,.793-.78V11.783H67.925a2.973,2.973,0,0,0-1.685.39,1.264,1.264,0,0,0-.564,1.1,1.179,1.179,0,0,0,.386.926A1.5,1.5,0,0,0,67.1,14.547ZM77,11.426a5.3,5.3,0,0,1,.523-2.378A3.819,3.819,0,0,1,78.99,7.421a4.14,4.14,0,0,1,2.175-.569,3.923,3.923,0,0,1,2.951,1.17,4.6,4.6,0,0,1,1.224,3.1l.008.473a5.343,5.343,0,0,1-.51,2.374,3.773,3.773,0,0,1-1.461,1.619,4.17,4.17,0,0,1-2.2.573A3.9,3.9,0,0,1,78.139,14.9,4.848,4.848,0,0,1,77,11.526Zm2.017.174a3.619,3.619,0,0,0,.573,2.171,1.862,1.862,0,0,0,1.594.784,1.842,1.842,0,0,0,1.59-.8,4,4,0,0,0,.569-2.333,3.572,3.572,0,0,0-.585-2.158A1.973,1.973,0,0,0,79.6,9.256,3.922,3.922,0,0,0,79.015,11.6ZM91.757,8.861a4.991,4.991,0,0,0-.822-.066,1.85,1.85,0,0,0-1.868,1.063V16H87.05V7.019h1.926l.05,1a2.273,2.273,0,0,1,2.025-1.17,1.888,1.888,0,0,1,.714.116Zm.764,2.582A5.253,5.253,0,0,1,93.5,8.1a3.157,3.157,0,0,1,2.611-1.249A2.958,2.958,0,0,1,98.53,7.923l.091-.9h1.818v8.708a3.619,3.619,0,0,1-1.1,2.789,4.189,4.189,0,0,1-2.968,1.021,4.783,4.783,0,0,1-1.93-.411A3.429,3.429,0,0,1,93.01,18.05l.955-1.212a2.883,2.883,0,0,0,2.291,1.1,2.228,2.228,0,0,0,1.585-.544,2.084,2.084,0,0,0,.581-1.6v-.606a2.97,2.97,0,0,1-2.324.971,3.15,3.15,0,0,1-2.577-1.253A5.423,5.423,0,0,1,92.52,11.443Zm2.009.174a3.616,3.616,0,0,0,.552,2.129,1.775,1.775,0,0,0,1.531.776,1.941,1.941,0,0,0,1.81-1.046V9.525A1.913,1.913,0,0,0,96.629,8.5a1.782,1.782,0,0,0-1.548.789A4.049,4.049,0,0,0,94.529,11.617ZM107.877,16a3.113,3.113,0,0,1-.232-.838,3.393,3.393,0,0,1-4.565.232,2.47,2.47,0,0,1-.855-1.909,2.55,2.55,0,0,1,1.067-2.2,5.169,5.169,0,0,1,3.051-.768h1.237V9.924a1.573,1.573,0,0,0-.39-1.116A1.547,1.547,0,0,0,106,8.388a1.777,1.777,0,0,0-1.129.344,1.066,1.066,0,0,0-.44.876h-2.017a2.239,2.239,0,0,1,.49-1.382,3.263,3.263,0,0,1,1.332-1.009,4.68,4.68,0,0,1,1.88-.365,3.769,3.769,0,0,1,2.515.793,2.827,2.827,0,0,1,.963,2.229v4.051a4.591,4.591,0,0,0,.34,1.934V16Zm-2.216-1.453a2.294,2.294,0,0,0,1.125-.291,1.941,1.941,0,0,0,.793-.78V11.783h-1.087a2.973,2.973,0,0,0-1.685.39,1.264,1.264,0,0,0-.564,1.1,1.179,1.179,0,0,0,.386.926A1.5,1.5,0,0,0,105.66,14.547Zm7.919-7.529.058,1.038a3.229,3.229,0,0,1,2.615-1.2q2.806,0,2.855,3.212V16h-2.017V10.181a1.85,1.85,0,0,0-.369-1.266,1.554,1.554,0,0,0-1.208-.411,1.944,1.944,0,0,0-1.818,1.1V16h-2.017V7.019ZM123.308,16h-2.017V7.019h2.017ZM121.166,4.686a1.071,1.071,0,0,1,.295-.772,1.113,1.113,0,0,1,.843-.307,1.127,1.127,0,0,1,.847.307,1.062,1.062,0,0,1,.3.772,1.038,1.038,0,0,1-.3.76,1.136,1.136,0,0,1-.847.3,1.122,1.122,0,0,1-.843-.3A1.046,1.046,0,0,1,121.166,4.686Zm6.491,9.7h4.781V16h-7.288V14.68l4.557-6.035h-4.474V7.019h7.031V8.3ZM139.42,16a3.113,3.113,0,0,1-.232-.838,3.393,3.393,0,0,1-4.565.232,2.47,2.47,0,0,1-.855-1.909,2.55,2.55,0,0,1,1.067-2.2,5.169,5.169,0,0,1,3.051-.768h1.237V9.924a1.573,1.573,0,0,0-.39-1.116,1.547,1.547,0,0,0-1.187-.419,1.777,1.777,0,0,0-1.129.344,1.066,1.066,0,0,0-.44.876h-2.017a2.239,2.239,0,0,1,.49-1.382,3.263,3.263,0,0,1,1.332-1.009,4.68,4.68,0,0,1,1.88-.365,3.769,3.769,0,0,1,2.515.793,2.827,2.827,0,0,1,.963,2.229v4.051a4.591,4.591,0,0,0,.34,1.934V16ZM137.2,14.547a2.294,2.294,0,0,0,1.125-.291,1.941,1.941,0,0,0,.793-.78V11.783h-1.087a2.973,2.973,0,0,0-1.685.39,1.264,1.264,0,0,0-.564,1.1,1.179,1.179,0,0,0,.386.926A1.5,1.5,0,0,0,137.2,14.547Zm9.737.008a1.824,1.824,0,0,0,1.253-.44,1.5,1.5,0,0,0,.531-1.087h1.9a2.963,2.963,0,0,1-.523,1.565,3.43,3.43,0,0,1-1.328,1.15,3.958,3.958,0,0,1-1.81.423,3.829,3.829,0,0,1-2.988-1.22,4.84,4.84,0,0,1-1.1-3.37v-.208a4.759,4.759,0,0,1,1.1-3.283,3.8,3.8,0,0,1,2.988-1.233,3.69,3.69,0,0,1,2.611.934,3.345,3.345,0,0,1,1.058,2.453h-1.9a1.847,1.847,0,0,0-.527-1.27,1.7,1.7,0,0,0-1.258-.5,1.775,1.775,0,0,0-1.511.71,3.621,3.621,0,0,0-.54,2.154v.324a3.682,3.682,0,0,0,.527,2.179A1.773,1.773,0,0,0,146.94,14.556ZM154.295,16h-2.017V7.019h2.017ZM152.153,4.686a1.07,1.07,0,0,1,.295-.772,1.113,1.113,0,0,1,.843-.307,1.127,1.127,0,0,1,.847.307,1.062,1.062,0,0,1,.3.772,1.038,1.038,0,0,1-.3.76,1.136,1.136,0,0,1-.847.3,1.122,1.122,0,0,1-.843-.3A1.046,1.046,0,0,1,152.153,4.686Zm3.959,6.74a5.3,5.3,0,0,1,.523-2.378A3.819,3.819,0,0,1,158.1,7.421a4.14,4.14,0,0,1,2.175-.569,3.923,3.923,0,0,1,2.951,1.17,4.6,4.6,0,0,1,1.224,3.1l.008.473a5.343,5.343,0,0,1-.51,2.374,3.773,3.773,0,0,1-1.461,1.619,4.17,4.17,0,0,1-2.2.573,3.9,3.9,0,0,1-3.042-1.266,4.848,4.848,0,0,1-1.141-3.374Zm2.017.174a3.619,3.619,0,0,0,.573,2.171,1.862,1.862,0,0,0,1.594.784,1.842,1.842,0,0,0,1.59-.8,4,4,0,0,0,.569-2.333,3.572,3.572,0,0,0-.585-2.158,1.973,1.973,0,0,0-3.158-.012A3.922,3.922,0,0,0,158.13,11.6Zm9.911-4.582.058,1.038a3.229,3.229,0,0,1,2.615-1.2q2.806,0,2.855,3.212V16h-2.017V10.181a1.85,1.85,0,0,0-.369-1.266,1.554,1.554,0,0,0-1.208-.411,1.944,1.944,0,0,0-1.818,1.1V16H166.14V7.019ZM180.99,16a3.113,3.113,0,0,1-.232-.838,3.393,3.393,0,0,1-4.565.232,2.47,2.47,0,0,1-.855-1.909,2.55,2.55,0,0,1,1.067-2.2,5.169,5.169,0,0,1,3.051-.768h1.237V9.924a1.573,1.573,0,0,0-.39-1.116,1.547,1.547,0,0,0-1.187-.419,1.777,1.777,0,0,0-1.129.344,1.066,1.066,0,0,0-.44.876h-2.017a2.239,2.239,0,0,1,.49-1.382,3.263,3.263,0,0,1,1.332-1.009,4.68,4.68,0,0,1,1.88-.365,3.769,3.769,0,0,1,2.515.793,2.827,2.827,0,0,1,.963,2.229v4.051a4.591,4.591,0,0,0,.34,1.934V16Zm-2.216-1.453a2.294,2.294,0,0,0,1.125-.291,1.941,1.941,0,0,0,.793-.78V11.783H179.6a2.973,2.973,0,0,0-1.685.39,1.264,1.264,0,0,0-.564,1.1,1.179,1.179,0,0,0,.386.926A1.5,1.5,0,0,0,178.774,14.547ZM186.967,16H184.95V3.25h2.017Z" transform="translate(390.689 2872.107)" fill="#12263f"/>
    <rect id="Rectángulo_347091-5" data-name="Rectángulo 347091" width="237.205" height="34.69" rx="9" transform="translate(974.795 2836.518)" fill="#d29de5"/>
    <rect id="Rectángulo_347093-5" data-name="Rectángulo 347093" width="51.566" height="3.75" transform="translate(1067.614 2871.208)" fill="#665b3d"/>
    <path id="Trazado_642854" data-name="Trazado 642854" d="M35.345,11.352H33V16H30.9V3.914h4.25a4.944,4.944,0,0,1,3.229.939A3.321,3.321,0,0,1,39.521,7.57,3.4,3.4,0,0,1,38.936,9.6,3.724,3.724,0,0,1,37.3,10.859l2.714,5.033V16h-2.25ZM33,9.658h2.158a2.4,2.4,0,0,0,1.66-.535,1.867,1.867,0,0,0,.6-1.465,1.988,1.988,0,0,0-.552-1.5,2.345,2.345,0,0,0-1.648-.548H33Zm12.269,6.508a4.173,4.173,0,0,1-3.109-1.208,4.381,4.381,0,0,1-1.191-3.217v-.249a5.389,5.389,0,0,1,.519-2.4,3.949,3.949,0,0,1,1.457-1.648,3.851,3.851,0,0,1,2.092-.589,3.525,3.525,0,0,1,2.835,1.17,4.949,4.949,0,0,1,1,3.312v.813H43.007a2.7,2.7,0,0,0,.743,1.76,2.23,2.23,0,0,0,1.639.647,2.731,2.731,0,0,0,2.258-1.121l1.087,1.038a3.631,3.631,0,0,1-1.44,1.249A4.509,4.509,0,0,1,45.273,16.166Zm-.241-7.695a1.7,1.7,0,0,0-1.341.581,3.012,3.012,0,0,0-.652,1.619h3.843v-.149a2.452,2.452,0,0,0-.54-1.531A1.686,1.686,0,0,0,45.032,8.471Zm9.1,6.084a1.824,1.824,0,0,0,1.253-.44,1.5,1.5,0,0,0,.531-1.087h1.9a2.963,2.963,0,0,1-.523,1.565,3.43,3.43,0,0,1-1.328,1.15,3.958,3.958,0,0,1-1.81.423,3.829,3.829,0,0,1-2.988-1.22,4.84,4.84,0,0,1-1.1-3.37v-.208a4.759,4.759,0,0,1,1.1-3.283,3.8,3.8,0,0,1,2.988-1.233,3.69,3.69,0,0,1,2.611.934,3.345,3.345,0,0,1,1.058,2.453h-1.9a1.847,1.847,0,0,0-.527-1.27,1.7,1.7,0,0,0-1.258-.5,1.775,1.775,0,0,0-1.511.71,3.621,3.621,0,0,0-.54,2.154v.324a3.682,3.682,0,0,0,.527,2.179A1.773,1.773,0,0,0,54.13,14.556Zm4.831-3.129a5.3,5.3,0,0,1,.523-2.378,3.819,3.819,0,0,1,1.469-1.627,4.14,4.14,0,0,1,2.175-.569,3.923,3.923,0,0,1,2.951,1.17,4.6,4.6,0,0,1,1.224,3.1l.008.473a5.343,5.343,0,0,1-.51,2.374,3.773,3.773,0,0,1-1.461,1.619,4.17,4.17,0,0,1-2.2.573A3.9,3.9,0,0,1,60.1,14.9a4.848,4.848,0,0,1-1.141-3.374Zm2.017.174a3.619,3.619,0,0,0,.573,2.171,1.862,1.862,0,0,0,1.594.784,1.842,1.842,0,0,0,1.59-.8,4,4,0,0,0,.569-2.333,3.572,3.572,0,0,0-.585-2.158,1.973,1.973,0,0,0-3.158-.012A3.922,3.922,0,0,0,60.978,11.6Zm9.911-4.582.058,1.038a3.229,3.229,0,0,1,2.615-1.2q2.806,0,2.855,3.212V16H74.4V10.181a1.85,1.85,0,0,0-.369-1.266A1.554,1.554,0,0,0,72.823,8.5a1.944,1.944,0,0,0-1.818,1.1V16H68.988V7.019Zm7.205,4.408a5.3,5.3,0,0,1,.523-2.378,3.819,3.819,0,0,1,1.469-1.627,4.14,4.14,0,0,1,2.175-.569,3.923,3.923,0,0,1,2.951,1.17,4.6,4.6,0,0,1,1.224,3.1l.008.473a5.343,5.343,0,0,1-.51,2.374,3.773,3.773,0,0,1-1.461,1.619,4.17,4.17,0,0,1-2.2.573A3.9,3.9,0,0,1,79.236,14.9a4.848,4.848,0,0,1-1.141-3.374Zm2.017.174a3.619,3.619,0,0,0,.573,2.171,1.862,1.862,0,0,0,1.594.784,1.842,1.842,0,0,0,1.59-.8,4,4,0,0,0,.569-2.333,3.572,3.572,0,0,0-.585-2.158,1.973,1.973,0,0,0-3.158-.012A3.922,3.922,0,0,0,80.112,11.6Zm11.729,2.955a1.824,1.824,0,0,0,1.253-.44,1.5,1.5,0,0,0,.531-1.087h1.9A2.963,2.963,0,0,1,95,14.593a3.43,3.43,0,0,1-1.328,1.15,3.958,3.958,0,0,1-1.81.423,3.829,3.829,0,0,1-2.988-1.22,4.84,4.84,0,0,1-1.1-3.37v-.208a4.759,4.759,0,0,1,1.1-3.283,3.8,3.8,0,0,1,2.988-1.233,3.69,3.69,0,0,1,2.611.934,3.345,3.345,0,0,1,1.058,2.453h-1.9a1.847,1.847,0,0,0-.527-1.27,1.7,1.7,0,0,0-1.258-.5,1.775,1.775,0,0,0-1.511.71,3.621,3.621,0,0,0-.54,2.154v.324a3.681,3.681,0,0,0,.527,2.179A1.773,1.773,0,0,0,91.841,14.556ZM99.2,16H97.178V7.019H99.2ZM97.053,4.686a1.071,1.071,0,0,1,.295-.772,1.113,1.113,0,0,1,.843-.307,1.127,1.127,0,0,1,.847.307,1.062,1.062,0,0,1,.3.772,1.038,1.038,0,0,1-.3.76,1.136,1.136,0,0,1-.847.3,1.122,1.122,0,0,1-.843-.3A1.046,1.046,0,0,1,97.053,4.686Zm6.234,2.333.058.938a3.232,3.232,0,0,1,2.59-1.1A2.483,2.483,0,0,1,108.4,8.23a3.186,3.186,0,0,1,2.756-1.378,2.8,2.8,0,0,1,2.212.822,3.618,3.618,0,0,1,.743,2.424V16h-2.017V10.156a1.786,1.786,0,0,0-.374-1.253,1.635,1.635,0,0,0-1.237-.4,1.679,1.679,0,0,0-1.125.369,1.948,1.948,0,0,0-.61.967L108.758,16H106.74V10.09A1.439,1.439,0,0,0,105.122,8.5a1.776,1.776,0,0,0-1.718.988V16h-2.017V7.019ZM118.328,16h-2.017V7.019h2.017ZM116.187,4.686a1.071,1.071,0,0,1,.295-.772,1.113,1.113,0,0,1,.843-.307,1.127,1.127,0,0,1,.847.307,1.062,1.062,0,0,1,.3.772,1.038,1.038,0,0,1-.3.76,1.136,1.136,0,0,1-.847.3,1.122,1.122,0,0,1-.843-.3A1.046,1.046,0,0,1,116.187,4.686Zm8.292,11.48a4.173,4.173,0,0,1-3.109-1.208,4.381,4.381,0,0,1-1.191-3.217v-.249a5.389,5.389,0,0,1,.519-2.4,3.949,3.949,0,0,1,1.457-1.648,3.851,3.851,0,0,1,2.092-.589,3.525,3.525,0,0,1,2.835,1.17,4.949,4.949,0,0,1,1,3.312v.813h-5.869a2.7,2.7,0,0,0,.743,1.76,2.23,2.23,0,0,0,1.639.647,2.731,2.731,0,0,0,2.258-1.121l1.087,1.038a3.631,3.631,0,0,1-1.44,1.249A4.509,4.509,0,0,1,124.479,16.166Zm-.241-7.695a1.7,1.7,0,0,0-1.341.581,3.012,3.012,0,0,0-.652,1.619h3.843v-.149a2.452,2.452,0,0,0-.54-1.531A1.686,1.686,0,0,0,124.238,8.471Zm7.28-1.453.058,1.038a3.229,3.229,0,0,1,2.615-1.2q2.806,0,2.855,3.212V16h-2.017V10.181a1.85,1.85,0,0,0-.369-1.266,1.554,1.554,0,0,0-1.208-.411,1.944,1.944,0,0,0-1.818,1.1V16h-2.017V7.019Zm10.11-2.183V7.019h1.585V8.513h-1.585v5.014a1.1,1.1,0,0,0,.2.743.943.943,0,0,0,.726.228,3.107,3.107,0,0,0,.706-.083v1.561a4.968,4.968,0,0,1-1.328.191q-2.324,0-2.324-2.565V8.513h-1.478V7.019h1.478V4.835Zm2.5,6.591a5.3,5.3,0,0,1,.523-2.378,3.819,3.819,0,0,1,1.469-1.627,4.14,4.14,0,0,1,2.175-.569,3.923,3.923,0,0,1,2.951,1.17,4.6,4.6,0,0,1,1.224,3.1l.008.473a5.343,5.343,0,0,1-.51,2.374,3.773,3.773,0,0,1-1.461,1.619,4.17,4.17,0,0,1-2.2.573,3.9,3.9,0,0,1-3.042-1.266,4.848,4.848,0,0,1-1.141-3.374Zm2.017.174a3.619,3.619,0,0,0,.573,2.171,1.862,1.862,0,0,0,1.594.784,1.842,1.842,0,0,0,1.59-.8,4,4,0,0,0,.569-2.333,3.572,3.572,0,0,0-.585-2.158,1.973,1.973,0,0,0-3.158-.012A3.922,3.922,0,0,0,146.144,11.6Z" transform="translate(1010.422 2844.956)" fill="#12263f"/>
    <g id="Grupo_1072841" data-name="Grupo 1072841" transform="translate(516.792 2685.94)">
      <circle id="Elipse_5888" data-name="Elipse 5888" cx="5" cy="5" r="5" transform="translate(155.208 23.06)" fill="#665b3d"/>
      <rect id="Rectángulo_379062" data-name="Rectángulo 379062" width="161" height="2" transform="translate(0.208 27.06)" fill="#665b3d"/>
      <rect id="Rectángulo_379063" data-name="Rectángulo 379063" width="29.533" height="2.813" transform="translate(0 29.533) rotate(-90)" fill="#665b3d"/>
    </g>
    <g id="Grupo_1072845" data-name="Grupo 1072845" transform="translate(900.727 2658.789)">
      <ellipse id="Elipse_5888-2" data-name="Elipse 5888" cx="5.157" cy="5.157" rx="5.157" ry="5.157" transform="translate(0 22.97)" fill="#665b3d"/>
      <rect id="Rectángulo_379062-2" data-name="Rectángulo 379062" width="160.324" height="2.813" transform="translate(4.688 26.721)" fill="#665b3d"/>
      <rect id="Rectángulo_379063-2" data-name="Rectángulo 379063" width="29.533" height="2.813" transform="translate(162.668 29.533) rotate(-90)" fill="#665b3d"/>
    </g>
    <g id="Grupo_1072843" data-name="Grupo 1072843" transform="translate(489.603 2899.726)">
      <circle id="Elipse_5888-3" data-name="Elipse 5888" cx="5.157" cy="5.157" r="5.157" transform="translate(155.168 22.97)" fill="#665b3d"/>
      <rect id="Rectángulo_379062-3" data-name="Rectángulo 379062" width="160.324" height="2.813" transform="translate(0.469 26.721)" fill="#665b3d"/>
      <rect id="Rectángulo_379063-3" data-name="Rectángulo 379063" width="29.533" height="2.813" transform="translate(0 29.533) rotate(-90)" fill="#665b3d"/>
    </g>
    <g id="Grupo_1072847" data-name="Grupo 1072847" transform="translate(927.917 2872.575)">
      <ellipse id="Elipse_5888-4" data-name="Elipse 5888" cx="5.157" cy="5.157" rx="5.157" ry="5.157" transform="translate(0 22.97)" fill="#665b3d"/>
      <rect id="Rectángulo_379062-4" data-name="Rectángulo 379062" width="160.324" height="2.813" transform="translate(4.688 26.721)" fill="#665b3d"/>
      <rect id="Rectángulo_379063-4" data-name="Rectángulo 379063" width="29.533" height="2.813" transform="translate(162.668 29.533) rotate(-90)" fill="#665b3d"/>
    </g>
    <rect id="Rectángulo_379064" data-name="Rectángulo 379064" width="160.324" height="2.813" transform="translate(490.071 2926.447)" fill="#665b3d"/>
    <circle id="Elipse_5889" data-name="Elipse 5889" cx="5.157" cy="5.157" r="5.157" transform="translate(773.217 2734.518) rotate(-90)" fill="#665b3d"/>
    <rect id="Rectángulo_379065" data-name="Rectángulo 379065" width="251.288" height="2.813" transform="translate(776.968 2980.181) rotate(-90)" fill="#665b3d"/>
  </g>
</svg>
