<svg xmlns="http://www.w3.org/2000/svg" xmlns:xlink="http://www.w3.org/1999/xlink" width="124.418" height="124.418" viewBox="0 0 124.418 124.418">
  <defs>
    <clipPath id="clip-path">
      <rect id="Rectángulo_379242" data-name="Rectángulo 379242" width="115" height="115" transform="translate(389.246 2670.246)" fill="#fff" stroke="#707070" stroke-width="1"/>
    </clipPath>
    <linearGradient id="linear-gradient" x1="0.989" y1="1.001" x2="0.081" y2="0.049" gradientUnits="objectBoundingBox">
      <stop offset="0" stop-color="#8c50af"/>
      <stop offset="1" stop-color="#fbe3b1"/>
    </linearGradient>
    <clipPath id="clip-path-2">
      <rect id="Rectángulo_379352" data-name="Rectángulo 379352" width="85" height="85" transform="translate(19154 -9457)" fill="#fff" stroke="#707070" stroke-width="1"/>
    </clipPath>
  </defs>
  <g id="Grupo_1075360" data-name="Grupo 1075360" transform="translate(-19128.828 9476.832)">
    <g id="Enmascarar_grupo_1074701" data-name="Enmascarar grupo 1074701" transform="translate(18744.754 -12142.246)" clip-path="url(#clip-path)">
      <rect id="Imagen_45" data-name="Imagen 45" width="128.611" height="124.518" transform="translate(382.686 2667.283)" fill="#fff"/>
    </g>
    <path id="Sustracción_217" data-name="Sustracción 217" d="M113.2,113.2H0V0H113.2V113.2ZM6.49,6.49V106.714H106.713V6.49Z" transform="matrix(-0.995, -0.105, 0.105, -0.995, 19241.412, -9352.414)" fill="url(#linear-gradient)"/>
    <g id="Enmascarar_grupo_1074711" data-name="Enmascarar grupo 1074711" transform="translate(-5)" clip-path="url(#clip-path-2)">
      <g id="Grupo_1074931" data-name="Grupo 1074931" transform="translate(-36.501 -425.184)">
        <path id="Trazado_641807" data-name="Trazado 641807" d="M1531.2,535.751a4.864,4.864,0,0,0,1.844-1.7,3.636,3.636,0,0,0,.516-3.217,3.344,3.344,0,0,0-3.48-2.327,6.764,6.764,0,0,0-2.9.863,11.375,11.375,0,0,1-3.847,1.341,51.98,51.98,0,0,1-10.634-.046.53.53,0,0,1-.152-.029h0a.341.341,0,0,1-.041-.131,8.333,8.333,0,0,0-2.558-4.692c-.372-.341-.774-.646-1.163-.94l-.178-.135a6.778,6.778,0,0,0,2.36-4.3,7.054,7.054,0,0,0-1.451-5.383,6.913,6.913,0,0,0-4.739-2.553,6.962,6.962,0,0,0-7.742,7.08,6.924,6.924,0,0,0,2.427,5.168l-.09.064a10.346,10.346,0,0,0-.961.743,7.929,7.929,0,0,0-2.93,5.917c-.034,2.231-.032,4.5-.03,6.691v.485c0,3.969.015,8.128.032,12.361a5.764,5.764,0,0,0,1.49,3.83c.642.741,1.316,1.472,1.969,2.179l.5.547a3.853,3.853,0,0,1,.881,1.62,9.482,9.482,0,0,1,.217,2.737c0,.233-.008.465-.008.7,0,1.986-.046,4.007-.091,5.962-.082,3.509-.166,7.138.026,10.716a25.183,25.183,0,0,0,.531,4.142,6.369,6.369,0,0,0,.678,1.633,2.025,2.025,0,0,0,1.857,1.077h0a5.947,5.947,0,0,0,5.775-4.214,10.784,10.784,0,0,0,.383-2.393c.019-.235.039-.471.063-.707q.3-2.9.618-5.8.192-1.774.381-3.547c.127-1.192.256-2.459.418-4.109q.082-.834.157-1.669c.06-.645.119-1.29.184-1.934.182-1.818.361-3.6.558-5.4a60.171,60.171,0,0,0,.449-6.933c-.011-1.885.019-3.8.048-5.66.018-1.178.037-2.355.045-3.532a.8.8,0,0,1,.005-.094.86.86,0,0,1,.1,0,16.31,16.31,0,0,0,1.635.077,39.193,39.193,0,0,0,6.545-.706,36.856,36.856,0,0,0,10.294-3.78m-21.532,2.54c-.1,1.034-.124,2.065-.134,2.848-.014,1.1-.011,2.217-.008,3.3q0,.529,0,1.058h-.115v.332q0,.961.006,1.921c.007,1.526.015,3.1-.022,4.653a18.8,18.8,0,0,1-.2,2.018c-.048.358-.1.729-.136,1.1q-.365,3.519-.715,7.039-.15,1.489-.3,2.978-.2,2.035-.406,4.07-.139,1.37-.286,2.739-.17,1.607-.334,3.214c-.062.613-.115,1.227-.17,1.841-.092,1.044-.187,2.123-.318,3.177a2.692,2.692,0,0,1-1.368,2.138,4.11,4.11,0,0,1-1.073.322l-.072.015a.245.245,0,0,1-.025-.023l-.036-.175a13.671,13.671,0,0,1-.4-3c.01-.73-.025-1.467-.059-2.179-.03-.628-.062-1.278-.06-1.914,0-1.318.03-2.659.057-3.956.018-.873.036-1.747.047-2.62.017-1.38.022-2.782.026-4.139l.005-1.392c0-.266,0-.532-.006-.8-.007-.51-.014-1.037.015-1.547a7.863,7.863,0,0,0-.479-3.24,8.431,8.431,0,0,0-1.175-2.131,30.747,30.747,0,0,0-2.27-2.547,3.923,3.923,0,0,1-1.171-2.9c.036-5.5.04-11.414.011-18.613a5.563,5.563,0,0,1,5.38-5.41h.058a5.592,5.592,0,0,1,5.288,3.537,7.121,7.121,0,0,1,.348,1.725c.125,1.18.5,1.582,1.678,1.79a45.035,45.035,0,0,0,9.237.432l.426-.012a14.259,14.259,0,0,0,4.216-.546c.756-.255,1.5-.566,2.219-.867.43-.179.873-.365,1.312-.535a10.289,10.289,0,0,1,1.469-.465.427.427,0,0,1,.5.143.508.508,0,0,1-.021.609l-.034.039a3.77,3.77,0,0,1-.98.888,33.757,33.757,0,0,1-8.476,3.22,30.4,30.4,0,0,1-9.251.631c-.074-.007-.148-.018-.223-.028a3.185,3.185,0,0,0-.433-.042h-.017a1.511,1.511,0,0,0-1.531,1.314M1508,519.467a3.818,3.818,0,0,1-1.067,2.788,3.944,3.944,0,0,1-2.849,1.181h-.017a4.012,4.012,0,0,1-2.925-6.776,4.005,4.005,0,0,1,2.853-1.2h.043a3.994,3.994,0,0,1,2.922,1.229,3.717,3.717,0,0,1,1.041,2.754v.027Z" transform="translate(17697.053 -9538.264)" fill="#543f5c"/>
        <path id="Trazado_641808" data-name="Trazado 641808" d="M1724.41,549.338q0-8.841-.02-17.682a8.016,8.016,0,0,0-3.016-6.231,10.648,10.648,0,0,0-.917-.7l-.068-.048a7.057,7.057,0,0,0,2.439-4.851,6.949,6.949,0,0,0-1.93-5.285,6.985,6.985,0,0,0-12.046,5.246,6.889,6.889,0,0,0,2.409,4.907,8.59,8.59,0,0,0-3.919,5.878v.007l-.082.01a55.157,55.157,0,0,1-8.675.2l-.057,0a11.429,11.429,0,0,1-3.967-.666c-.5-.21-1-.44-1.485-.662-.374-.171-.748-.343-1.125-.508a5.368,5.368,0,0,0-2.662-.5,3.435,3.435,0,0,0-2.462,1.286,3.354,3.354,0,0,0-.623,2.64,4.507,4.507,0,0,0,2.476,3.3,35.127,35.127,0,0,0,13.2,4.224l.446.043a24.765,24.765,0,0,0,4.931.15c0,.054,0,.107,0,.161.023,1.34.025,2.7.027,4.024a104.244,104.244,0,0,0,.388,10.675c.1.977.192,1.972.279,2.935.083.922.168,1.875.266,2.812.1.917.206,1.848.311,2.747.114.964.232,1.961.332,2.942.108,1.068.2,2.156.3,3.209.088,1,.178,2.029.28,3.043.2,2.012.438,4.18.722,6.626a22.223,22.223,0,0,0,.4,2.478,5.748,5.748,0,0,0,5.114,4.291c.143.01.28.015.411.015a2.3,2.3,0,0,0,2.493-1.818,12.669,12.669,0,0,0,.707-3.37c.13-3.9.154-7.722.16-11.271,0-1.644-.027-3.315-.056-4.93-.023-1.316-.048-2.677-.054-4.015a4.488,4.488,0,0,1,1.31-3.393c.5-.5.977-1.026,1.437-1.539q.246-.275.495-.549a6.129,6.129,0,0,0,1.771-3.562,19.673,19.673,0,0,0,.066-2.022Zm-8.126,18.352.008.882c.007.787.038,1.585.067,2.357.035.913.071,1.858.068,2.783-.008,2.262-.064,4.584-.165,6.9a11.925,11.925,0,0,1-.292,1.888c-.034.16-.067.32-.1.48a.251.251,0,0,1-.034.017c-1.889-.187-2.458-1.739-2.6-3.011-.06-.531-.114-1.064-.167-1.6l-.1-.98c-.027-.255-.053-.51-.077-.765q-.107-1.137-.212-2.274-.208-2.241-.422-4.48c-.223-2.291-.457-4.624-.717-7.131-.031-.3-.076-.6-.12-.886-.047-.312-.1-.634-.125-.948-.063-.683-.114-1.38-.164-2.054-.092-1.243-.187-2.528-.354-3.787a64.407,64.407,0,0,1-.37-8.491c0-1.626,0-3.306-.07-4.961-.022-.508-.032-1.028-.042-1.53-.009-.479-.019-.975-.038-1.464a1.8,1.8,0,0,0-.546-1.351,1.656,1.656,0,0,0-1.117-.36,3.052,3.052,0,0,0-.33.019,30.154,30.154,0,0,1-7.612-.256,32.353,32.353,0,0,1-10.179-3.462,4.82,4.82,0,0,1-1.123-.9.959.959,0,0,1-.177-.5c-.027-.186-.018-.312.322-.366a2.835,2.835,0,0,1,1.688.442,16.81,16.81,0,0,0,5.309,1.8,25.069,25.069,0,0,0,3.284.173c2.461-.006,4.616-.046,6.59-.122a15.89,15.89,0,0,0,2.272-.309l.359-.066c.817-.148,1.235-.711,1.279-1.719a5.537,5.537,0,0,1,7.574-4.9,5.212,5.212,0,0,1,3.487,4.379,2.316,2.316,0,0,1,.015.36v.094q0,4.123,0,8.247v1.375q0,1.366,0,2.732c0,2.2,0,4.481.01,6.722a3.216,3.216,0,0,1-.838,2.276l-.563.622c-.747.824-1.518,1.675-2.243,2.545a6.5,6.5,0,0,0-1.407,4.085c-.072,2.5-.048,5.032-.025,7.485m-4.4-48.272a3.779,3.779,0,0,1,1.027-2.8,3.968,3.968,0,0,1,2.925-1.23h0a3.989,3.989,0,0,1,2.856,1.176,4.013,4.013,0,0,1-2.865,6.806h-.009a3.987,3.987,0,0,1-2.941-1.245,3.6,3.6,0,0,1-1-2.668v-.04Z" transform="translate(17548.537 -9538.197)" fill="#543f5c"/>
        <path id="Trazado_641809" data-name="Trazado 641809" d="M1603.387,538.051a1.488,1.488,0,0,0,2.037-.432,4.44,4.44,0,0,0,.277-.419l.021-.034a15.763,15.763,0,0,1,25.247-2.274c.033.036.065.074.1.113l-.373-.024c-.833-.053-1.62-.1-2.416-.131a1.44,1.44,0,0,0-1.565,1.376,1.551,1.551,0,0,0,1.413,1.658c2.267.18,4.115.312,5.815.415.053,0,.1,0,.155,0a1.592,1.592,0,0,0,1.1-.376,1.76,1.76,0,0,0,.532-1.274c.009-.169.017-.339.024-.508.009-.209.019-.418.031-.627q.039-.655.08-1.309c.071-1.157.144-2.354.2-3.532a1.228,1.228,0,0,0-.3-.794,1.41,1.41,0,0,0-1.54-.529,1.576,1.576,0,0,0-1.17,1.354c-.045.306-.058.613-.072.91-.007.153-.014.306-.025.459s-.025.318-.039.477c-.145-.162-.3-.325-.453-.48a18.792,18.792,0,0,0-11.1-5.378,17.949,17.949,0,0,0-5.9.228,18.288,18.288,0,0,0-10.114,5.775,26.615,26.615,0,0,0-2.08,2.8l-.312.459a1.479,1.479,0,0,0-.25,1.125,1.517,1.517,0,0,0,.676.968" transform="translate(17613.537 -9549.237)" fill="#543f5c"/>
        <path id="Trazado_641810" data-name="Trazado 641810" d="M1633.668,642.489a1.528,1.528,0,0,0-2.182.6c-.054.084-.105.169-.157.255s-.1.166-.153.247a15.666,15.666,0,0,1-15.579,7.162,15.318,15.318,0,0,1-9.173-4.743c-.163-.168-.317-.345-.485-.541l.8.056c.606.043,1.232.087,1.85.12a1.548,1.548,0,0,0,1.741-1.347,1.42,1.42,0,0,0-1.407-1.618c-1.174-.143-2.335-.235-3.415-.313-1.03-.075-1.867-.11-2.636-.111h0a1.4,1.4,0,0,0-1.491,1.375c-.051.494-.085.983-.114,1.442l-.061.95c-.079,1.22-.161,2.48-.223,3.722a1.28,1.28,0,0,0,1.121,1.372,1.543,1.543,0,0,0,1.909-1.468c.038-.54.061-1.08.086-1.652,0-.023,0-.046,0-.069.128.127.249.247.368.369a18.732,18.732,0,0,0,11.209,5.539,17.07,17.07,0,0,0,6.611-.424,18.721,18.721,0,0,0,9.168-5.359,27.137,27.137,0,0,0,2.275-2.973l.29-.416a1.628,1.628,0,0,0,.3-1.255,1.422,1.422,0,0,0-.655-.922" transform="translate(17614.865 -9639.332)" fill="#543f5c"/>
      </g>
    </g>
  </g>
</svg>
