<svg xmlns="http://www.w3.org/2000/svg" xmlns:xlink="http://www.w3.org/1999/xlink" width="124.417" height="124.418" viewBox="0 0 124.417 124.418">
  <defs>
    <clipPath id="clip-path">
      <rect id="Rectángulo_379046" data-name="Rectángulo 379046" width="115" height="115" transform="translate(389.246 2670.246)" fill="#fff" stroke="#707070" stroke-width="1"/>
    </clipPath>
    <linearGradient id="linear-gradient" x1="0.989" y1="1.001" x2="0.081" y2="0.049" gradientUnits="objectBoundingBox">
      <stop offset="0" stop-color="#8c50af"/>
      <stop offset="1" stop-color="#fbe3b1"/>
    </linearGradient>
    <clipPath id="clip-path-2">
      <rect id="Rectángulo_379482" data-name="Rectángulo 379482" width="86" height="86" transform="translate(409.27 1416.362)" fill="#543f5c"/>
    </clipPath>
    <clipPath id="clip-path-3">
      <rect id="Rectángulo_379730" data-name="Rectángulo 379730" width="81.208" height="82.116" fill="#543f5c"/>
    </clipPath>
  </defs>
  <g id="Grupo_1075356" data-name="Grupo 1075356" transform="translate(-1307.227 9590.363)">
    <g id="Enmascarar_grupo_1074672" data-name="Enmascarar grupo 1074672" transform="translate(921.484 -12255.608)" clip-path="url(#clip-path)">
      <rect id="Imagen_30" data-name="Imagen 30" width="128.611" height="124.518" transform="translate(382.686 2667.283)" fill="#fff"/>
    </g>
    <path id="Sustracción_179" data-name="Sustracción 179" d="M113.2,113.2H0V0H113.2V113.2ZM6.49,6.49V106.714H106.713V6.49Z" transform="matrix(-0.995, -0.105, 0.105, -0.995, 1419.811, -9465.945)" fill="url(#linear-gradient)"/>
    <g id="Enmascarar_grupo_1074729" data-name="Enmascarar grupo 1074729" transform="translate(916.73 -10986.362)" clip-path="url(#clip-path-2)">
      <g id="Grupo_1075349" data-name="Grupo 1075349" transform="translate(412.312 1418.612)">
        <g id="Grupo_1075348" data-name="Grupo 1075348" clip-path="url(#clip-path-3)">
          <path id="Trazado_642852" data-name="Trazado 642852" d="M7.628,12.786a23.346,23.346,0,0,1,.323-2.653A12.518,12.518,0,0,1,15.772.9,11.632,11.632,0,0,1,22.726.289a12.463,12.463,0,0,1,8.7,6.546.546.546,0,0,0,.452.3,2.126,2.126,0,0,0,2-.669A23.72,23.72,0,0,1,44.574.747a23.254,23.254,0,0,1,7.218-.7,29.368,29.368,0,0,1,4.031.615A24.125,24.125,0,0,1,67.872,7.285a24.389,24.389,0,0,1,5.909,9.364,25.824,25.824,0,0,1,1.466,8.658c0,9.388.013,18.776-.023,28.163a2.378,2.378,0,0,0,.888,2.044,14.366,14.366,0,0,1,4.658,8.364,24.147,24.147,0,0,1,.408,4.219c.053,4.04.018,8.082.019,12.123a1.969,1.969,0,0,1-.56,1.453,1.7,1.7,0,0,1-1.3.438Q71.067,82.1,62.793,82.1H22.184c-.285,0-.571-.008-.855.012a1.543,1.543,0,0,1-1.634-1.4,8.035,8.035,0,0,1-.081-1.039c-.006-3.867-.041-7.734.009-11.6A18.013,18.013,0,0,1,21.7,59.285a15.017,15.017,0,0,1,3.653-4.374.675.675,0,0,0,.208-.466c.008-6.341-.008-12.683.021-19.024a1.179,1.179,0,0,0-.772-1.259,19.231,19.231,0,0,1-2.29-1.445c-.234-.16-.357-.168-.546.046A12.827,12.827,0,0,1,12.9,37.007a11.3,11.3,0,0,1-3.621-.518,12.255,12.255,0,0,1-4.624-2.454A12.455,12.455,0,0,1,.407,27.116a17.688,17.688,0,0,1-.4-2.649A9.332,9.332,0,0,1,.2,22.734,12.371,12.371,0,0,1,3.312,15.9a13.067,13.067,0,0,1,3.929-2.96,3.821,3.821,0,0,1,.386-.153M78.31,71.633c0-1.463-.021-2.879.006-4.295a13.293,13.293,0,0,0-.621-4.367A11.672,11.672,0,0,0,72.489,56.2a7.42,7.42,0,0,0-3.431-1.228c-2.574-.1-5.153-.082-7.73-.1a.7.7,0,0,0-.45.2q-3.07,3.09-6.123,6.2c-1.053,1.071-2.1,2.151-3.146,3.226a1.476,1.476,0,0,1-2.374.012q-1.944-1.98-3.889-3.958c-1.763-1.8-3.517-3.61-5.287-5.4a.917.917,0,0,0-.567-.281c-2.156-.016-4.313-.018-6.47.01a8.53,8.53,0,0,0-1.917.2,10.716,10.716,0,0,0-6.951,5.468,13.246,13.246,0,0,0-1.644,6.35c-.027,1.4-.006,2.81-.006,4.215v.519h7.111c.009-.081.021-.141.021-.2.005-.6-.024-1.2.021-1.789a1.375,1.375,0,1,1,2.748.134q0,4.532,0,9.064v.471c.223,0,.394,0,.564,0,.768-.007,1.537-.02,2.305-.02q16.343,0,32.686.009c.334,0,.438-.078.437-.43-.011-3.034.019-6.068-.01-9.1a1.488,1.488,0,0,1,1.407-1.441,1.4,1.4,0,0,1,1.365,1.354,13.9,13.9,0,0,1,.005,1.565c-.021.343.094.416.414.415,2.119-.013,4.239-.007,6.359-.007.109,0,.217-.009.373-.016M31.263,32.815a11.413,11.413,0,0,0,1.928-.016,10.963,10.963,0,0,0,5.895-2.952,11.089,11.089,0,0,0,3.406-10.584A11.144,11.144,0,0,0,34.225,10.3a9,9,0,0,0-3.158-.389,1.659,1.659,0,0,1-1.773-1.126c-.038-.092-.081-.181-.124-.271a9.4,9.4,0,0,0-7.7-5.593,9.43,9.43,0,0,0-8.681,3.41,9.1,9.1,0,0,0-2.13,4.6,18.537,18.537,0,0,0-.112,2.563,1.44,1.44,0,0,1-.976,1.468c-.457.19-.926.357-1.367.577a9.827,9.827,0,1,0,11.313,15.8A16.573,16.573,0,0,0,20.9,29.691a1.24,1.24,0,0,1,1.982-.258c.145.116.281.244.42.368a10.492,10.492,0,0,0,7.963,3.013M36.281,8c5.559,2.4,8.564,6.629,9.285,12.677.665-.421,1.315-.817,1.949-1.239,1.423-.948,2.791-1.988,4.264-2.846a11.577,11.577,0,0,1,7.772-1.728,15.058,15.058,0,0,1,4.775,1.42,5.68,5.68,0,0,1,3.39,5.581c-.1,3.652,0,7.309-.036,10.964a21.4,21.4,0,0,1-.26,3.449,15.161,15.161,0,0,1-6.9,10.626.5.5,0,0,0-.158.416c.078.451.2.9.313,1.34.268,1.018.544,2.034.816,3.052a.387.387,0,0,0,.448.326c1.784-.02,3.569-.021,5.353-.024a12.694,12.694,0,0,1,4.33.752c.249.089.506.155.77.235V51.613q0-13.035-.01-26.069a24.1,24.1,0,0,0-.44-5.294,21.1,21.1,0,0,0-2.332-6.132c-3.939-6.681-9.729-10.5-17.477-11.2A21.243,21.243,0,0,0,40.182,5.346,23.029,23.029,0,0,0,36.281,8M64.832,27.944c0-2.325-.009-4.65.007-6.975a1.638,1.638,0,0,0-.493-1.239,3.23,3.23,0,0,0-.8-.657,19.978,19.978,0,0,0-2.515-1.079,9.011,9.011,0,0,0-7,.506,26.36,26.36,0,0,0-4.148,2.61A14.406,14.406,0,0,1,45.52,23.6a.48.48,0,0,0-.247.31c-.142.563-.213,1.147-.387,1.7A14.269,14.269,0,0,1,38.1,33.95c-.6.343-1.251.6-1.864.917a.489.489,0,0,0-.234.38,16.447,16.447,0,0,0,.369,1.783,12.361,12.361,0,0,0,5.155,7.36A9.286,9.286,0,0,0,46.81,46q3.681-.032,7.363,0a8.651,8.651,0,0,0,3.632-.784,11.4,11.4,0,0,0,5.606-5.434,12.319,12.319,0,0,0,1.428-5.834c-.03-2-.007-4-.006-6.005m-7.149,20.3a17.879,17.879,0,0,1-5.047.649c-1.66-.016-3.322.024-4.981-.015a23.224,23.224,0,0,1-2.7-.252c-.614-.087-1.213-.275-1.834-.421-.318,1.234-.638,2.483-.961,3.731-.3,1.142-.279,1.124.552,1.97q3.771,3.836,7.514,7.7c.151.155.238.16.387.006q4.027-4.133,8.066-8.253a.683.683,0,0,0,.187-.731c-.3-1.2-.592-2.409-.9-3.61a7.582,7.582,0,0,0-.288-.772m-24.4-12.6a14.7,14.7,0,0,1-4.848-.15V53a7.012,7.012,0,0,0,.725-.2,11.947,11.947,0,0,1,4.47-.783q2.621,0,5.243.023a.413.413,0,0,0,.482-.344c.159-.623.334-1.243.495-1.865.217-.84.416-1.686.646-2.522.069-.251-.024-.361-.217-.476a14.115,14.115,0,0,1-4.792-4.9,16.631,16.631,0,0,1-2.2-6.294m37.892,38.8c0,1.574,0,3.1,0,4.626,0,.242.133.244.314.242q2.268-.018,4.536-.023c.657,0,1.313.015,1.97.023.2,0,.354-.017.35-.3-.018-1.293-.015-2.586-.023-3.878,0-.231-.02-.461-.03-.691Zm-41.6,4.846a1.046,1.046,0,0,0,.037-.177c0-1.478,0-2.956,0-4.434,0-.2-.069-.248-.261-.247q-3.269.008-6.538,0c-.222,0-.307.057-.306.292q.012,2.124,0,4.248c0,.239.071.328.318.327,2.24-.007,4.479,0,6.749,0" transform="translate(0 0)" fill="#543f5c"/>
          <path id="Trazado_642853" data-name="Trazado 642853" d="M9.116,202.038a1.317,1.317,0,0,1-1.252-.9c-.541-1.087-1.1-2.17-1.564-3.291a3.2,3.2,0,0,0-1.884-1.9c-1.023-.4-2-.919-2.99-1.4a2.879,2.879,0,0,1-.8-.522,1.308,1.308,0,0,1,.372-2.148c.571-.322,1.174-.585,1.765-.869.826-.4,1.652-.791,2.482-1.177a1.224,1.224,0,0,0,.638-.632c.577-1.25,1.177-2.488,1.771-3.73.091-.19.18-.382.286-.563a1.347,1.347,0,0,1,2.448.023c.382.708.7,1.45,1.047,2.178.3.627.6,1.252.889,1.884a1.832,1.832,0,0,0,.946.943q1.971.912,3.918,1.874a1.36,1.36,0,0,1,.783,1.754,1.38,1.38,0,0,1-.8.837c-1.268.618-2.536,1.238-3.82,1.822a2.018,2.018,0,0,0-1.056,1.036q-.892,1.924-1.813,3.833a1.391,1.391,0,0,1-1.367.948m.029-4.6a3.244,3.244,0,0,0,.189-.3c.3-.64.595-1.282.893-1.922a2.019,2.019,0,0,1,1.025-1.031c.474-.214.94-.443,1.407-.672.238-.117.469-.248.771-.409-.233-.139-.384-.242-.546-.323-.553-.278-1.1-.56-1.667-.817A1.944,1.944,0,0,1,10.2,190.93c-.283-.647-.579-1.289-.874-1.931a2.291,2.291,0,0,0-.188-.276c-.391.824-.726,1.61-1.134,2.356a2.134,2.134,0,0,1-.754.773c-.594.352-1.239.618-1.858.929-.161.08-.3.193-.513.327.2.119.329.21.471.278.581.278,1.16.559,1.749.817a1.72,1.72,0,0,1,.911.881c.36.771.738,1.534,1.136,2.358" transform="translate(-0.147 -129.182)" fill="#543f5c"/>
          <path id="Trazado_642854" data-name="Trazado 642854" d="M29.826,138.143a7.024,7.024,0,0,1,7.018-6.941,6.981,6.981,0,0,1-.075,13.961,7.021,7.021,0,0,1-6.943-7.02m11.108.071a3.993,3.993,0,0,0-4.164-4.2,4.145,4.145,0,0,0-4.143,4.1,4.2,4.2,0,0,0,4.273,4.254,4.046,4.046,0,0,0,4.034-4.155" transform="translate(-20.925 -92.048)" fill="#543f5c"/>
          <path id="Trazado_642855" data-name="Trazado 642855" d="M122.612,220.931c-1.041,0-2.081.008-3.122,0a1.315,1.315,0,0,1-1.136-.6,1.343,1.343,0,0,1,.574-2.027,2.641,2.641,0,0,1,.967-.212q2.732-.03,5.464,0a2.322,2.322,0,0,1,.859.192,1.353,1.353,0,0,1,.846,1.463,1.3,1.3,0,0,1-1.294,1.163c-1.052.035-2.105.009-3.158.009v.013" transform="translate(-82.858 -152.997)" fill="#543f5c"/>
          <path id="Trazado_642856" data-name="Trazado 642856" d="M53.491,23.747c.568-.027.937.387,1.2.953.681,1.447,1.4,2.88,2.037,4.344a2.14,2.14,0,0,0,1.129,1.148q2.184,1.025,4.348,2.1a1.806,1.806,0,0,1,.681.545,1.307,1.307,0,0,1-.553,2.016c-1.449.726-2.906,1.438-4.378,2.118A2.308,2.308,0,0,0,56.7,38.215c-.62,1.433-1.333,2.826-2,4.24a1.455,1.455,0,0,1-1.325.973,1.419,1.419,0,0,1-1.369-.913c-.772-1.582-1.52-3.176-2.3-4.756a1.179,1.179,0,0,0-.483-.513c-1.418-.707-2.85-1.384-4.276-2.073-.234-.113-.463-.235-.692-.358a1.3,1.3,0,0,1-.724-1.213,1.28,1.28,0,0,1,.748-1.233c1.246-.606,2.471-1.267,3.75-1.793a3.657,3.657,0,0,0,2.229-2.224c.462-1.238,1.11-2.408,1.684-3.6a1.5,1.5,0,0,1,1.547-1m5.049,9.871a1.918,1.918,0,0,0-.244-.189c-.8-.386-1.6-.781-2.411-1.146a2.4,2.4,0,0,1-1.254-1.251c-.4-.875-.846-1.728-1.308-2.662-.1.161-.163.257-.212.361-.4.84-.764,1.7-1.2,2.515a2.111,2.111,0,0,1-.77.812c-.871.493-1.784.911-2.679,1.361-.113.057-.221.125-.356.2.972.46,1.886.9,2.8,1.325a2.065,2.065,0,0,1,1.035,1.068c.375.823.77,1.637,1.163,2.452a2.58,2.58,0,0,0,.244.338c.347-.713.71-1.339.965-2.007A3.667,3.667,0,0,1,56.671,34.5a18.611,18.611,0,0,0,1.869-.886" transform="translate(-30.542 -16.659)" fill="#543f5c"/>
          <path id="Trazado_642857" data-name="Trazado 642857" d="M159.071,116.428a7.338,7.338,0,0,1-14.368,1.526,7.06,7.06,0,0,1-.275-2.088,1.31,1.31,0,0,1,1.222-1.385,7.283,7.283,0,0,1,.927-.054q5.259-.005,10.519,0a5.69,5.69,0,0,1,.777.053,1.256,1.256,0,0,1,1.2,1.316c.01.211,0,.422,0,.633m-11.645.9c.241,1.606,2.324,3.1,4.3,3.113a4.478,4.478,0,0,0,4.372-3.113Z" transform="translate(-101.327 -80.277)" fill="#543f5c"/>
        </g>
      </g>
    </g>
  </g>
</svg>
