<svg xmlns="http://www.w3.org/2000/svg" xmlns:xlink="http://www.w3.org/1999/xlink" width="124.417" height="124.418" viewBox="0 0 124.417 124.418">
  <defs>
    <clipPath id="clip-path">
      <rect id="Rectángulo_379105" data-name="Rectángulo 379105" width="115" height="115" transform="translate(389.246 2670.246)" fill="#fff" stroke="#707070" stroke-width="1"/>
    </clipPath>
    <linearGradient id="linear-gradient" x1="0.989" y1="1.001" x2="0.081" y2="0.049" gradientUnits="objectBoundingBox">
      <stop offset="0" stop-color="#8c50af"/>
      <stop offset="1" stop-color="#fbe3b1"/>
    </linearGradient>
    <clipPath id="clip-path-2">
      <rect id="Rectángulo_379462" data-name="Rectángulo 379462" width="87" height="87" transform="translate(408 2129)" fill="#fff" stroke="#707070" stroke-width="1"/>
    </clipPath>
    <clipPath id="clip-path-3">
      <rect id="Rectángulo_379657" data-name="Rectángulo 379657" width="79" height="72.841" fill="none"/>
    </clipPath>
  </defs>
  <g id="Grupo_1075371" data-name="Grupo 1075371" transform="translate(-6251.829 8409.067)">
    <g id="Enmascarar_grupo_1074688" data-name="Enmascarar grupo 1074688" transform="translate(5867.754 -11073.895)" clip-path="url(#clip-path)">
      <rect id="Imagen_42" data-name="Imagen 42" width="128.611" height="124.518" transform="translate(382.686 2667.283)" fill="#fff"/>
    </g>
    <path id="Sustracción_199" data-name="Sustracción 199" d="M113.2,113.2H0V0H113.2V113.2ZM6.49,6.49V106.714H106.713V6.49Z" transform="matrix(-0.995, -0.105, 0.105, -0.995, 6364.412, -8284.649)" fill="url(#linear-gradient)"/>
    <g id="Enmascarar_grupo_1074725" data-name="Enmascarar grupo 1074725" transform="translate(5863 -10518.648)" clip-path="url(#clip-path-2)">
      <g id="Grupo_1075298" data-name="Grupo 1075298" transform="translate(412 2135.688)">
        <g id="Grupo_1075297" data-name="Grupo 1075297" clip-path="url(#clip-path-3)">
          <path id="Trazado_642801" data-name="Trazado 642801" d="M81.994,72.842a34.281,34.281,0,0,1-12.4-2.312l-4.661-1.79a1.965,1.965,0,0,1-1.26-1.834V29.765a1.965,1.965,0,0,1,1.724-1.95,8.032,8.032,0,0,0,4.979-2.593l.039-.042,5.891-6.166a10.72,10.72,0,0,0,3-7.475V6.22A6.235,6.235,0,0,1,85.53,0h.012A6.217,6.217,0,0,1,87.6.356C93.952,2.6,97.9,8.623,97.9,16.069v1.008a11.194,11.194,0,0,1-1.472,5.56L94.9,25.764h18.622a8.375,8.375,0,0,1,8.37,7.983,9.077,9.077,0,0,1-.385,3.156,8.353,8.353,0,0,1,4.475,7.035c0,.009,0,.019,0,.028a8.253,8.253,0,0,1-2.265,5.931c-.023.025-.046.051-.07.076a8.246,8.246,0,0,1-1.554,1.257,8.273,8.273,0,0,1-3.272,10.182A8.27,8.27,0,0,1,111.2,72.842H81.994ZM67.6,65.557l3.4,1.307a30.376,30.376,0,0,0,10.987,2.049h29.2a4.346,4.346,0,0,0,4.329-4.344,4.278,4.278,0,0,0-1.023-2.785,1.965,1.965,0,0,1,1.012-3.18,4.364,4.364,0,0,0,1.734-.89,4.345,4.345,0,0,0,.521-6.123,1.965,1.965,0,0,1,1.021-3.171,4.307,4.307,0,0,0,1.981-1.121c.021-.024.043-.047.065-.07a4.3,4.3,0,0,0,1.224-3.123,4.435,4.435,0,0,0-3.585-4.144,1.965,1.965,0,0,1-1.288-2.97,5.182,5.182,0,0,0,.785-3.04,4.463,4.463,0,0,0-4.466-4.257H91.765A1.965,1.965,0,0,1,90,26.87l2.921-6.012q.031-.065.068-.127a7.258,7.258,0,0,0,.979-3.651V16.069c0-5.733-2.94-10.334-7.672-12.008a2.3,2.3,0,0,0-.76-.13h0a2.3,2.3,0,0,0-2.3,2.293v5.312a14.625,14.625,0,0,1-4.088,10.2l-5.87,6.143a11.959,11.959,0,0,1-5.672,3.5Z" transform="translate(-46.993 -0.001)" fill="#40304a"/>
          <path id="Trazado_642802" data-name="Trazado 642802" d="M9.955,139.807H5.362A5.378,5.378,0,0,1,0,134.451V96.111a5.374,5.374,0,0,1,5.359-5.369H9.953A5.377,5.377,0,0,1,15.316,96.1c0,.029,0,.059,0,.088v38.258a5.379,5.379,0,0,1-5.359,5.361m0-45.136H5.362A1.439,1.439,0,0,0,3.93,96.11v38.336a1.439,1.439,0,0,0,1.435,1.431H9.952a1.44,1.44,0,0,0,1.433-1.435V96.111c0-.019,0-.037,0-.056A1.441,1.441,0,0,0,9.95,94.672" transform="translate(0 -66.97)" fill="#40304a"/>
        </g>
      </g>
    </g>
  </g>
</svg>
