<svg xmlns="http://www.w3.org/2000/svg" xmlns:xlink="http://www.w3.org/1999/xlink" width="124.417" height="124.418" viewBox="0 0 124.417 124.418">
  <defs>
    <clipPath id="clip-path">
      <rect id="Rectángulo_379067" data-name="Rectángulo 379067" width="115" height="115" transform="translate(389.246 2670.246)" fill="#fff" stroke="#707070" stroke-width="1"/>
    </clipPath>
    <linearGradient id="linear-gradient" x1="0.989" y1="1.001" x2="0.081" y2="0.049" gradientUnits="objectBoundingBox">
      <stop offset="0" stop-color="#8c50af"/>
      <stop offset="1" stop-color="#fbe3b1"/>
    </linearGradient>
    <clipPath id="clip-path-2">
      <rect id="Rectángulo_379355" data-name="Rectángulo 379355" width="85" height="85" transform="translate(18798 -9459)" fill="#fff" stroke="#707070" stroke-width="1"/>
    </clipPath>
  </defs>
  <g id="Grupo_1075357" data-name="Grupo 1075357" transform="translate(-1094.828 -1648.452)">
    <g id="Enmascarar_grupo_1074679" data-name="Enmascarar grupo 1074679" transform="translate(710.754 -1016.962)" clip-path="url(#clip-path)">
      <rect id="Imagen_33" data-name="Imagen 33" width="128.611" height="124.518" transform="translate(382.686 2667.283)" fill="#fff"/>
    </g>
    <path id="Sustracción_190" data-name="Sustracción 190" d="M113.2,113.2H0V0H113.2V113.2ZM6.49,6.49V106.714H106.713V6.49Z" transform="matrix(-0.995, -0.105, 0.105, -0.995, 1207.412, 1772.87)" fill="url(#linear-gradient)"/>
    <g id="Enmascarar_grupo_1074714" data-name="Enmascarar grupo 1074714" transform="translate(-17683 11127.284)" clip-path="url(#clip-path-2)">
      <g id="Grupo_1074934" data-name="Grupo 1074934" transform="translate(-1145.487 543)">
        <path id="Trazado_612226" data-name="Trazado 612226" d="M93.936,593.355a9.959,9.959,0,0,1-5.044-1.909,9.847,9.847,0,0,1-3.518-5.487,17.135,17.135,0,0,1-.563-4.627c0-.136,0-.273,0-.447-.2-.01-.367-.023-.538-.026-1.069-.022-2.145.023-3.207-.079a2.664,2.664,0,0,1-2.4-2.393,2.528,2.528,0,0,1,.339-1.559c.564-1.052,1.146-2.094,1.721-3.14a.346.346,0,0,0,.042-.245c-.211.078-.426.147-.632.236q-7.194,3.12-14.387,6.245l-20.99,9.119a1.309,1.309,0,0,1-1.4-.008,1.1,1.1,0,0,1,.246-1.949c.821-.38,1.659-.722,2.489-1.082q7.593-3.293,15.186-6.587,8.335-3.618,16.669-7.241,2.057-.893,4.12-1.775a1.776,1.776,0,0,0,.916-.85c.43-.825.855-1.655,1.34-2.447a3.9,3.9,0,0,0,.578-2.033c.011-.663.029-.662-.576-.925l-15.876-6.89-20.267-8.8q-2.248-.976-4.5-1.944a1.13,1.13,0,0,1-.5-1.84,1.021,1.021,0,0,1,1.206-.285c.73.269,1.438.6,2.152.906Q57.39,550,68.23,554.714q8.266,3.588,16.537,7.162c.169.073.346.127.473.173.317-1.055.571-2.092.939-3.086a17.973,17.973,0,0,1,8.553-9.863,19.162,19.162,0,0,1,6.786-2.175,29.326,29.326,0,0,1,6.331-.14,21.832,21.832,0,0,1,6.391,1.529,16,16,0,0,1,8.842,8.679,22.437,22.437,0,0,1,1.727,7.755,30.521,30.521,0,0,1-1.059,9.893,23.835,23.835,0,0,1-3.147,6.9c-1.1,1.656-2.281,3.254-3.436,4.871a12.082,12.082,0,0,0-1.982,3.494,10.507,10.507,0,0,0-.465,2.7c-.058,2.515-.012,5.033-.007,7.55,0,1.107-.281,1.416-1.405,1.424-2.809.019-5.617.021-8.426.024q-4.459,0-8.918,0c-.251,0-.5-.01-.755-.028a1.19,1.19,0,0,1-1.232-1.278c-.026-1.006-.024-2.013-.026-3.02,0-1.2,0-2.391,0-3.586,0-.109-.011-.219-.017-.33m-1.862-28.3c0-.3,0-.545,0-.793a4.676,4.676,0,0,1,3.316-4.394.528.528,0,0,0,.307-.311,4.7,4.7,0,0,1,5.408-3.264.486.486,0,0,0,.553-.177,5.082,5.082,0,0,1,6.94-.737.859.859,0,0,0,.9.163,4.56,4.56,0,0,1,2.7-.047,5.955,5.955,0,0,1,3.55,9.241.848.848,0,0,0-.106.619,3.794,3.794,0,0,1-1.164,3.879,9.147,9.147,0,0,1-1.641,1.124,1.1,1.1,0,0,0-.59,1.447,5.48,5.48,0,0,0,.449.992,1.161,1.161,0,0,1-1,1.8c-1.259.017-2.519.012-3.778,0a1.185,1.185,0,0,1-1.2-1.078c-.032-.236-.021-.478-.042-.715a2.963,2.963,0,0,0-1.327-2.3.781.781,0,0,0-.483-.072,12.336,12.336,0,0,1-1.75.207,6.151,6.151,0,0,1-3.794-1.486,1.346,1.346,0,0,0-1.428-.321,4.346,4.346,0,0,1-3.988-.81.541.541,0,0,0-.66-.06c-.946.439-1.9.851-2.861,1.267q-2.8,1.219-5.6,2.429a1.531,1.531,0,0,0-.821.78c-.262.543-.572,1.062-.86,1.592-.667,1.225-1.351,2.441-1.992,3.68-.327.63-.186.817.513.818q2.059,0,4.119,0a1.257,1.257,0,0,1,1.442,1.423c0,.793-.048,1.589.012,2.377a16.509,16.509,0,0,0,.392,3.054,7.159,7.159,0,0,0,5.6,5.549,17.952,17.952,0,0,0,1.988.2,1.143,1.143,0,0,1,1.084,1.106c.018.2.022.4.022.6q0,3,0,6c0,.486,0,.486.507.494.138,0,.277.009.415.009l14.66,0h.67c0-.428,0-.814,0-1.2,0-1.837.025-3.675-.019-5.511a9.261,9.261,0,0,1,.853-4.2,25.418,25.418,0,0,1,2.683-4.273,42.2,42.2,0,0,0,3.987-6.169,24.889,24.889,0,0,0,1.94-5.608,26.64,26.64,0,0,0,.53-5.132,22.506,22.506,0,0,0-.976-8.039c-1.852-5.39-5.674-8.543-11.178-9.745a25.468,25.468,0,0,0-6.534-.455,18.3,18.3,0,0,0-6.354,1.323c-5.6,2.338-8.8,6.605-10,12.471a.393.393,0,0,0,.171.332c1.447.64,2.9,1.262,4.439,1.925m17.84,7.2c0-.25.011-.414,0-.576a3.223,3.223,0,0,1,1.709-3.2c.333-.2.682-.38,1-.6a1.749,1.749,0,0,0,.758-2.09c-.053-.181-.107-.362-.174-.537a1.223,1.223,0,0,1,.31-1.377,3.559,3.559,0,0,0,.927-3.514,3.324,3.324,0,0,0-2.674-2.619,3.981,3.981,0,0,0-2.516.219,1.106,1.106,0,0,1-1.482-.325,3.983,3.983,0,0,0-.463-.441,2.94,2.94,0,0,0-4.371.954,1.171,1.171,0,0,1-1.7.56,2.425,2.425,0,0,0-3.477,2.02,1.2,1.2,0,0,1-1.108,1.183c-.124.023-.248.045-.371.07a2.4,2.4,0,1,0,1.326,4.594,2.248,2.248,0,0,1,2.358.254c.226.18.472.337.692.525a4.644,4.644,0,0,0,4.073.8,1.8,1.8,0,0,1,1.333.174,9.481,9.481,0,0,1,1.167.823,5.8,5.8,0,0,1,1.622,2.8c.038.116.151.274.25.29a5.2,5.2,0,0,0,.807.014m-22.6-6.813a13.968,13.968,0,0,1-.429,1.648,12.979,12.979,0,0,1-.77,1.436l.071.078,4.013-1.749,0-.16-2.882-1.253" transform="translate(19902.607 -10528.222)" fill="#543f5c"/>
        <path id="Trazado_612227" data-name="Trazado 612227" d="M67.607,655.659c-1.237,0-2.474,0-3.712,0-.932,0-1.354-.381-1.36-1.308q-.025-3.793,0-7.586c.006-.881.335-1.194,1.208-1.274.034,0,.068-.008.1-.008,2.565.01,5.13.01,7.694.039a1.1,1.1,0,0,1,1.192,1.261q.007,3.793,0,7.586a1.2,1.2,0,0,1-1.279,1.286c-1.283.012-2.565,0-3.848,0Zm2.929-8.07H64.59v5.944h5.946Z" transform="translate(19887.068 -10608.25)" fill="#543f5c"/>
        <path id="Trazado_612228" data-name="Trazado 612228" d="M118.467,621.944a5.114,5.114,0,1,1,5.108,5.1,5.062,5.062,0,0,1-5.108-5.1m5.148,2.966c1.468.292,3.089-1.345,3.042-2.975a3.018,3.018,0,0,0-3.023-3.013,2.965,2.965,0,0,0-3.105,3.025,2.9,2.9,0,0,0,3.086,2.964" transform="translate(19842.82 -10585.6)" fill="#543f5c"/>
        <path id="Trazado_612229" data-name="Trazado 612229" d="M67.764,598.563c-1.249,0-2.5-.02-3.747.006-1.227.025-1.5-.914-1.065-1.761,1.269-2.493,2.521-4.994,3.781-7.491a3.5,3.5,0,0,1,.2-.356.968.968,0,0,1,1.706-.01c.349.567.624,1.18.925,1.776q1.472,2.911,2.937,5.825c.1.2.2.408.28.618a.953.953,0,0,1-.73,1.338,2.936,2.936,0,0,1-.574.052c-1.238,0-2.475,0-3.713,0m2.416-2.082-2.386-4.747L65.4,596.481Z" transform="translate(19886.881 -10563.137)" fill="#543f5c"/>
      </g>
    </g>
  </g>
</svg>
