<svg xmlns="http://www.w3.org/2000/svg" xmlns:xlink="http://www.w3.org/1999/xlink" width="107" height="107" viewBox="0 0 107 107">
  <defs>
    <clipPath id="clip-path">
      <rect id="Rect치ngulo_378782" data-name="Rect치ngulo 378782" width="75" height="75" transform="translate(304.667 4462.016)" fill="#fff" stroke="#707070" stroke-width="1"/>
    </clipPath>
    <clipPath id="clip-path-2">
      <rect id="Rect치ngulo_378784" data-name="Rect치ngulo 378784" width="67.146" height="68.989" fill="#f8f5f7"/>
    </clipPath>
  </defs>
  <g id="Grupo_1075354" data-name="Grupo 1075354" transform="translate(-285 -1233.284)">
    <g id="Grupo_156312" data-name="Grupo 156312" transform="translate(-3.668 -3214.716)">
      <circle id="Elipse_5845" data-name="Elipse 5845" cx="53.5" cy="53.5" r="53.5" transform="translate(288.668 4448)" fill="#543f5c"/>
    </g>
    <g id="Enmascarar_grupo_154415" data-name="Enmascarar grupo 154415" transform="translate(-3.667 -3212.731)" clip-path="url(#clip-path)">
      <g id="Grupo_1074397" data-name="Grupo 1074397" transform="translate(308.667 4465.016)">
        <g id="Grupo_1074396" data-name="Grupo 1074396" clip-path="url(#clip-path-2)">
          <path id="Trazado_612966" data-name="Trazado 612966" d="M62.779,26.8v.336q0,8.4-.006,16.8c0,.27.071.405.337.481a5.285,5.285,0,0,1,2.56,1.54,5.06,5.06,0,0,1,1.426,4.161,5.219,5.219,0,0,1-3.827,4.583,5.126,5.126,0,0,1-5.42-1.448.454.454,0,0,0-.666-.09q-6.248,3.412-12.509,6.8c-1.855,1.006-3.712,2.009-5.562,3.023a.363.363,0,0,0-.149.284,5.387,5.387,0,0,1-10.7,1.164,5.748,5.748,0,0,1-.052-1.106A.334.334,0,0,0,28,62.944Q21.9,59.638,15.814,56.323q-2.985-1.623-5.967-3.25c-.172-.094-.274-.1-.415.06a5.093,5.093,0,0,1-2.843,1.7,5.242,5.242,0,0,1-4.44-.967A5.11,5.11,0,0,1,.068,48.843a5.16,5.16,0,0,1,3.586-4.3c.721-.258.724-.25.724-1V26.812A5.416,5.416,0,0,1,1.2,24.85a5.339,5.339,0,0,1,2.765-8.441,5.283,5.283,0,0,1,5.266,1.37.242.242,0,0,0,.361.041q5.073-3.192,10.152-6.374,4.136-2.594,8.274-5.181a.375.375,0,0,0,.2-.426A5.386,5.386,0,0,1,38.695,3.687a4.249,4.249,0,0,1,.245,2.219.427.427,0,0,0,.191.325q2.57,1.631,5.152,3.242,4.463,2.8,8.926,5.6,2.2,1.38,4.391,2.766c.141.089.227.063.345-.05a5.371,5.371,0,0,1,9.1,2.772,5.368,5.368,0,0,1-3.872,6.16c-.118.031-.239.047-.391.077m-6.109-7.064c-.2-.134-.391-.26-.582-.38q-7.172-4.5-14.346-8.993c-1.117-.7-2.238-1.393-3.358-2.088-.138-.086-.237-.148-.367.06a5.321,5.321,0,0,1-8.858.045c-.131-.19-.232-.221-.42-.091-.219.153-.457.279-.683.421Q19.391,14.14,10.725,19.569a.309.309,0,0,0-.158.443,4.478,4.478,0,0,1,.143,2.681,5.4,5.4,0,0,1-3.966,4.055c-.171.048-.229.109-.229.292q.012,8.475.007,16.95a.378.378,0,0,0,.3.419,7.976,7.976,0,0,1,1.327.574,5.281,5.281,0,0,1,2.538,5.783c-.061.266-.015.376.211.5q2.732,1.473,5.454,2.963,6.048,3.293,12.1,6.584c.141.077.295.13.447.2.045-.07.074-.111.1-.154a5.321,5.321,0,0,1,8.836-.475c.491.641.486.64,1.2.254q5.479-2.982,10.96-5.961,3.134-1.7,6.27-3.4a.342.342,0,0,0,.215-.453,5.184,5.184,0,0,1,1.034-4.534,5.356,5.356,0,0,1,2.782-1.855.429.429,0,0,0,.359-.5c-.02-1.061-.015-2.124-.014-3.186q0-6.774.014-13.547c0-.243-.016-.38-.321-.473a5.282,5.282,0,0,1-3.869-4.128,4.463,4.463,0,0,1,.211-2.858m-48,29.881a3.215,3.215,0,0,0-3.156-3.276,3.255,3.255,0,0,0-3.359,3.228,3.3,3.3,0,0,0,3.238,3.3,3.226,3.226,0,0,0,3.278-3.254m49.819-.055a3.2,3.2,0,0,0,3.231,3.3A3.237,3.237,0,0,0,65,49.638a3.283,3.283,0,0,0-3.172-3.3,3.219,3.219,0,0,0-3.338,3.221m3.26-24.846a3.117,3.117,0,0,0,3.254-3.164A3.273,3.273,0,0,0,58.46,21.5a3.165,3.165,0,0,0,3.291,3.216m-56.321,0c1.917.242,3.306-1.718,3.27-3.2A3.292,3.292,0,0,0,5.46,18.287a3.222,3.222,0,0,0-3.3,3.291,3.083,3.083,0,0,0,3.274,3.136M33.65,66.777a2.624,2.624,0,0,0,2.36-.966A3.263,3.263,0,1,0,30.348,64a3.125,3.125,0,0,0,3.3,2.779M33.586,2.195a3.079,3.079,0,0,0-3.245,2.947,3.241,3.241,0,0,0,3.271,3.477A3.182,3.182,0,0,0,36.8,5.351a3.027,3.027,0,0,0-3.217-3.156" transform="translate(0.001 0)" fill="#f8f5f7"/>
          <path id="Trazado_612967" data-name="Trazado 612967" d="M73.038,63.217a6.766,6.766,0,0,1,11.393,1.271,1.842,1.842,0,0,0,1.394,1.191,7.636,7.636,0,0,1,4.985,4.08,7.226,7.226,0,0,1,.726,4.586.943.943,0,0,0,.293.945A6.112,6.112,0,0,1,93.595,79.7a8.013,8.013,0,0,1-.37,2.954A6.19,6.19,0,0,1,91.8,84.908a.774.774,0,0,0-.271.835,6.572,6.572,0,0,1-.137,3.121,7.817,7.817,0,0,1-5,5.443,6.2,6.2,0,0,1-1.127.3.665.665,0,0,0-.587.486,6.205,6.205,0,0,1-4.523,4.169,6.468,6.468,0,0,1-5.579-.9,18.9,18.9,0,0,1-1.561-1.384c-.014.016-.076.08-.133.148a6.8,6.8,0,0,1-10.565-.337,10.46,10.46,0,0,1-.907-1.778.545.545,0,0,0-.428-.374,7.759,7.759,0,0,1-5.8-4.489,6.877,6.877,0,0,1-.547-4.724.345.345,0,0,0-.081-.283,6.124,6.124,0,0,1-2.038-4.575,7.927,7.927,0,0,1,.3-2.9,6.582,6.582,0,0,1,1.711-2.646.356.356,0,0,0,.118-.277,6.184,6.184,0,0,1,0-3.119,7.756,7.756,0,0,1,5.012-5.751,9.39,9.39,0,0,1,1.362-.379.422.422,0,0,0,.356-.32,6.257,6.257,0,0,1,3.273-3.807,6.727,6.727,0,0,1,8.26,1.692l.127.156M56.615,73.738c.588-.078,1.1-.188,1.616-.2a.908.908,0,0,1,.968.78,1,1,0,0,1-.972,1.308,3.909,3.909,0,0,0-3.587,3.851c0,.454.019.907.012,1.361a3.855,3.855,0,0,0,2.965,3.586c.313.063.634.092.938.179a.991.991,0,0,1,.7,1.1,1.028,1.028,0,0,1-.924.931A3.17,3.17,0,0,1,57.6,86.6c-.317-.054-.626-.151-.98-.241a5.766,5.766,0,0,0,1.542,4.509,5.171,5.171,0,0,0,2.727,1.555,9.952,9.952,0,0,1,.293-2.886,7.37,7.37,0,0,1,1.429-2.643,1.02,1.02,0,0,1,1.484,0,1,1,0,0,1,.1,1.326,9.748,9.748,0,0,0-.9,1.68,6.964,6.964,0,0,0,.142,4.7A4.137,4.137,0,0,0,67.3,97.282c.389-.035.784.011,1.175-.008a3.346,3.346,0,0,0,3.256-2.463,10.038,10.038,0,0,0,.3-2.228c.035-2.092.006-4.186,0-6.279,0-.3,0-.6,0-.948-.207.177-.38.32-.549.468a9.225,9.225,0,0,1-2.5,1.574,1.138,1.138,0,0,1-1.2-.064,1,1,0,0,1-.416-.975,1.1,1.1,0,0,1,.768-.89A5.776,5.776,0,0,0,71,83.175a5.408,5.408,0,0,0-.735-7.1,7.216,7.216,0,0,0-2.193-1.416,1.046,1.046,0,0,1-.341-1.8,1.1,1.1,0,0,1,1.222-.111,9.056,9.056,0,0,1,2.8,1.835,3.428,3.428,0,0,0,.272.21c0-1.543.012-3.026,0-4.509-.014-1.338,0-2.681-.1-4.014a3.48,3.48,0,0,0-3.8-3.389c-.3,0-.6.007-.9,0a3.684,3.684,0,0,0-3.036,1.459c-1.372,1.677-1.364,3.641-.995,5.639a5.941,5.941,0,0,0,.959,1.924,1.029,1.029,0,0,1-.272,1.448.974.974,0,0,1-1.377-.212,6.815,6.815,0,0,1-1.511-3.366c-.1-.656-.088-1.328-.13-2.041A5.432,5.432,0,0,0,57.584,70a5.876,5.876,0,0,0-.968,3.739m32.874.015a5.827,5.827,0,0,0-1.153-4.018,5.313,5.313,0,0,0-3.148-2.009c0,.445,0,.824,0,1.2a7.037,7.037,0,0,1-1.418,4.012,1.162,1.162,0,0,1-.873.575.993.993,0,0,1-.934-.5,1.009,1.009,0,0,1-.011-1.136,9.584,9.584,0,0,0,.789-1.428,7.286,7.286,0,0,0,.04-4.583,4.22,4.22,0,0,0-4.043-3c-.38.027-.764-.017-1.144.008a3.41,3.41,0,0,0-3.253,2.523,9.972,9.972,0,0,0-.265,2.635c.009,2.233,0,4.465,0,6.765.121-.1.206-.166.283-.238A8.437,8.437,0,0,1,77.317,72.7a1.024,1.024,0,0,1,1.388.662,1.091,1.091,0,0,1-.691,1.314,8.257,8.257,0,0,0-1.408.757,5.667,5.667,0,0,0-2.479,5.107,5.375,5.375,0,0,0,2.641,4.284,14.271,14.271,0,0,0,1.334.708,1.1,1.1,0,0,1,.638,1.16,1.017,1.017,0,0,1-.947.834,2.006,2.006,0,0,1-.773-.171,9.2,9.2,0,0,1-2.644-1.744c-.086-.079-.181-.149-.3-.249,0,.354,0,.649,0,.944,0,2.113,0,4.227.017,6.34a10.686,10.686,0,0,0,.15,1.627,3.24,3.24,0,0,0,2.31,2.785,5.278,5.278,0,0,0,1.3.211,6.094,6.094,0,0,0,1.755-.035,4.167,4.167,0,0,0,3.2-3.039,6.974,6.974,0,0,0-.05-4.464,10.963,10.963,0,0,0-.836-1.507,1.047,1.047,0,0,1,.3-1.468,1.03,1.03,0,0,1,1.359.228,7.009,7.009,0,0,1,1.535,3.392c.1.666.094,1.348.137,2.061a5.477,5.477,0,0,0,3.457-2.558,5.807,5.807,0,0,0,.767-3.522c-.309.087-.552.176-.8.219a4.348,4.348,0,0,1-.769.057.967.967,0,0,1-.916-.524,1.028,1.028,0,0,1,.861-1.574,3.88,3.88,0,0,0,3.608-3.725c0-.567.029-1.137-.024-1.7a3.8,3.8,0,0,0-1.826-2.93,4.279,4.279,0,0,0-1.812-.564,1.048,1.048,0,0,1,.166-2.086c.487.024.968.138,1.53.224" transform="translate(-39.473 -45.588)" fill="#f8f5f7"/>
          <path id="Trazado_612968" data-name="Trazado 612968" d="M87.468,122.733c-.083-.093-.152-.18-.232-.256a6.22,6.22,0,0,1-1.859-3.577,1.266,1.266,0,0,1,.121-1.015,1.1,1.1,0,0,1,1.288-.489.973.973,0,0,1,.68.968,3.858,3.858,0,0,0,1.091,2.457,4.235,4.235,0,0,0,1.4.876,1.118,1.118,0,0,1,.729.739.946.946,0,0,1-.38,1.084,1.979,1.979,0,0,1-.4.224,3.673,3.673,0,0,0-2.444,3.3.982.982,0,0,1-1.208.991,1.111,1.111,0,0,1-.9-.951,4.842,4.842,0,0,1,.451-2.063,5.573,5.573,0,0,1,1.668-2.29" transform="translate(-64.145 -88.214)" fill="#f8f5f7"/>
          <path id="Trazado_612969" data-name="Trazado 612969" d="M166.73,122.7c.225.238.454.458.657.7a5.84,5.84,0,0,1,1.442,3.624,1.091,1.091,0,0,1-.806,1c-.657.1-1.079-.121-1.236-.679-.089-.315-.1-.649-.179-.969a3.523,3.523,0,0,0-2.154-2.563c-.409-.174-.824-.344-.957-.839a.981.981,0,0,1,.422-1.127,1.843,1.843,0,0,1,.327-.172,3.67,3.67,0,0,0,2.475-3.31,1.48,1.48,0,0,1,.1-.418,1.017,1.017,0,0,1,1.644-.32,1.317,1.317,0,0,1,.336,1.334,6.151,6.151,0,0,1-1.99,3.638.752.752,0,0,0-.079.1" transform="translate(-122.879 -88.211)" fill="#f8f5f7"/>
        </g>
      </g>
    </g>
  </g>
</svg>
