<svg xmlns="http://www.w3.org/2000/svg" xmlns:xlink="http://www.w3.org/1999/xlink" width="1030" height="495" viewBox="0 0 1030 495">
  <defs>
    <linearGradient id="linear-gradient" x1="0.5" x2="0.5" y2="1" gradientUnits="objectBoundingBox">
      <stop offset="0" stop-color="#fff4d6"/>
      <stop offset="1" stop-color="#fce5e5"/>
    </linearGradient>
    <clipPath id="clip-path">
      <rect id="Rectángulo_379197" data-name="Rectángulo 379197" width="534.304" height="437.584" fill="none"/>
    </clipPath>
    <clipPath id="clip-path-3">
      <rect id="Rectángulo_379118" data-name="Rectángulo 379118" width="289.627" height="114.309" fill="none"/>
    </clipPath>
    <clipPath id="clip-path-4">
      <rect id="Rectángulo_379130" data-name="Rectángulo 379130" width="98.824" height="128.47" fill="none"/>
    </clipPath>
    <clipPath id="clip-path-5">
      <rect id="Rectángulo_379123" data-name="Rectángulo 379123" width="16.832" height="14.245" fill="none"/>
    </clipPath>
    <clipPath id="clip-path-6">
      <rect id="Rectángulo_379135" data-name="Rectángulo 379135" width="16.832" height="14.245" fill="#fce5e5"/>
    </clipPath>
    <clipPath id="clip-path-7">
      <rect id="Rectángulo_379151" data-name="Rectángulo 379151" width="72.238" height="100.285" fill="none"/>
    </clipPath>
    <clipPath id="clip-path-8">
      <rect id="Rectángulo_379161" data-name="Rectángulo 379161" width="62.584" height="87.366" fill="none"/>
    </clipPath>
    <clipPath id="clip-path-9">
      <rect id="Rectángulo_379171" data-name="Rectángulo 379171" width="57.247" height="79.473" fill="none"/>
    </clipPath>
    <clipPath id="clip-path-10">
      <rect id="Rectángulo_379181" data-name="Rectángulo 379181" width="49.597" height="69.236" fill="none"/>
    </clipPath>
    <clipPath id="clip-path-11">
      <rect id="Rectángulo_379182" data-name="Rectángulo 379182" width="39.844" height="41.423" fill="none"/>
    </clipPath>
    <clipPath id="clip-path-13">
      <rect id="Rectángulo_379185" data-name="Rectángulo 379185" width="66.79" height="95.54" fill="none"/>
    </clipPath>
    <clipPath id="clip-path-14">
      <rect id="Rectángulo_379184" data-name="Rectángulo 379184" width="46.113" height="41.337" fill="none"/>
    </clipPath>
    <clipPath id="clip-path-16">
      <rect id="Rectángulo_379189" data-name="Rectángulo 379189" width="6.104" height="9.082" fill="none"/>
    </clipPath>
  </defs>
  <g id="Grupo_1075353" data-name="Grupo 1075353" transform="translate(-286.291 -481.784)">
    <path id="Trazado_641477" data-name="Trazado 641477" d="M0,0H1030V495H0Z" transform="translate(286.291 481.784)" fill="url(#linear-gradient)"/>
    <g id="Grupo_1074779" data-name="Grupo 1074779" transform="translate(360.696 507.018)">
      <g id="Enmascarar_grupo_1074778" data-name="Enmascarar grupo 1074778" clip-path="url(#clip-path)">
        <g id="Grupo_1074777" data-name="Grupo 1074777">
          <g id="Grupo_1074776" data-name="Grupo 1074776" clip-path="url(#clip-path)">
            <path id="Trazado_641498" data-name="Trazado 641498" d="M524.532,325.128q-1.088-1.79-2.267-3.508c-18.4-26.807-72.2-43.785-67.957-82.344,2.864-26.035,28.835-41.863,44.806-59.842,21.334-24.015,19.174-54.761-8.4-73.9A65.653,65.653,0,0,0,478,98.649c-24.448-9.938-50.7-5.045-75.429.407-23.627,5.211-48.943,10.539-73.036,5.217-26.481-5.85-40.811-27.43-58.941-45.507C225.936,14.244,152.129,46.22,127.026,96.158c-14.3,28.457-.836,68.414-27.8,90.781C79.363,203.412,52.277,202.6,29.458,212.331,14.584,218.675,2.035,231.089.357,247.62c-1.946,19.156,4.254,38.529,14.075,54.805,12.721,21.082,31.6,36.98,48.435,54.577C70.906,365.4,78.23,374.99,81.2,386.23c3.158,11.946.291,27.324-10.494,34.311,33.673-5.06,116.143-8.635,212.549-8.635,102.45,0,189.165,4.038,218.3,9.6,0,0,1.562-9.6,6.567-16.393,8.63-11.7,21.1-20.94,24.761-35.618,3.785-15.183-.354-31.2-8.355-44.371" transform="translate(0 1.089)" fill="#fff"/>
            <path id="Trazado_641499" data-name="Trazado 641499" d="M469.816,329.946q-.863-1.614-1.8-3.164c-14.6-24.181-57.286-39.5-53.92-74.277,2.273-23.484,22.879-37.761,35.551-53.979,16.927-21.663,15.213-49.4-6.664-66.662a50.472,50.472,0,0,0-10.091-6.209c-19.4-8.963-40.231-4.55-59.849.368-18.747,4.7-38.835,9.507-57.95,4.705-21.011-5.276-32.382-24.743-46.767-41.048-35.432-40.161-93.993-11.318-113.911,33.728-11.351,25.669-.664,61.711-22.06,81.886C116.6,220.155,95.105,219.422,77,228.2c-11.8,5.721-21.758,16.919-23.09,31.831-1.543,17.279,3.376,34.754,11.169,49.436,10.093,19.016,25.069,33.357,38.43,49.229,6.378,7.577,12.19,16.225,14.548,26.364,2.507,10.774.232,24.646-8.325,30.949,26.718-4.564,92.153-7.789,168.646-7.789,81.29,0,150.094,3.643,173.211,8.663,0,0,1.239-8.663,5.211-14.786,6.848-10.557,16.744-18.888,19.647-32.129,3-13.695-.282-28.143-6.63-40.023" transform="translate(1.554 2.045)" fill="#fce5e5"/>
            <path id="Trazado_641500" data-name="Trazado 641500" d="M369.727,318.289a33.922,33.922,0,0,0-7.217-7.325,159.893,159.893,0,0,0-55.216-26.515q-3.748-1.29-7.586-2.355v-4.583c29.042-13.827,49.259-44.548,49.259-80.252v-1.424a9.666,9.666,0,0,0,5.641-.978c4.046-2.061,4.93-6.3,5.419-10.371,1.512-12.581,12.7-27.484,3.561-39.7a8.338,8.338,0,0,0-5.529-3.425,8.009,8.009,0,0,0-3.79.354c2.784-15.044,5.119-30.157,5.119-45.429-.069-1.29-.18-2.579-.315-3.864,2.866-3.543,5.921-7.713,5.856-12.467-.061-4.458-2.695-7.837-6.6-9.73A97.579,97.579,0,0,0,344.955,65.4a17.8,17.8,0,0,0,2.738-10.992c-.779-14.538-15.644-19.321-27.725-21.989A154.723,154.723,0,0,0,303,29.659a6.742,6.742,0,0,0-.863-4.254c-3.3-5.9-12.246-4.074-17.668-3.354-18.438,2.446-35.6,8.831-52.293,16.843-.8.308-1.61.6-2.407.918a8.431,8.431,0,0,0-.974-6.818c-1.845-2.98-5.253-2.73-8.209-1.932a77.23,77.23,0,0,0-14.844,6.05c-10.068,5.172-18.148,12.312-25.275,21.044-5.279,6.467-10.591,13.46-11.866,21.654-1.379,5.724-1.249,11.653-1.074,17.706.419,14.568,3.406,29.363,6.8,43.82a7.636,7.636,0,0,0-1.966.024,8.343,8.343,0,0,0-5.529,3.425c-9.137,12.218,2.05,27.121,3.561,39.7.489,4.068,1.373,8.31,5.42,10.371a9.66,9.66,0,0,0,5.648.975v1.426c0,35.7,20.216,66.425,49.259,80.252v4.582q-3.842,1.062-7.593,2.356A159.9,159.9,0,0,0,167.9,310.964a33.968,33.968,0,0,0-7.217,7.325c-19.637,27.221-33.82,62.039-40.293,101.038H410.02c-6.473-39-20.656-73.818-40.294-101.038" transform="translate(3.489 0.615)" fill="#d29de5"/>
            <g id="Grupo_1074730" data-name="Grupo 1074730" transform="translate(123.882 305.632)" opacity="0.2">
              <g id="Grupo_1074729" data-name="Grupo 1074729">
                <g id="Grupo_1074728" data-name="Grupo 1074728" clip-path="url(#clip-path-3)">
                  <path id="Trazado_641501" data-name="Trazado 641501" d="M369.727,310.3a33.922,33.922,0,0,0-7.217-7.325c-.553-.413-1.115-.814-1.674-1.22a66.41,66.41,0,0,1,3.314,17.595c.711,17.131-7.016,34-19.271,45.763-17.341,16.646-44.947,20.343-68.069,21.295-39.227,1.616-106.7-9.4-110.489-59.388-.847-11.192,3.617-21.271,10.129-29.989q-4.382,2.843-8.547,5.945a33.968,33.968,0,0,0-7.217,7.325c-19.637,27.221-33.82,62.039-40.293,101.038H410.02c-6.473-39-20.656-73.818-40.294-101.038" transform="translate(-120.393 -297.025)" fill="#8f8fd8"/>
                </g>
              </g>
            </g>
            <path id="Trazado_641502" data-name="Trazado 641502" d="M321.565,134.824c3.433-7.24,1.947-16.24-4.622-21.331a20.853,20.853,0,0,0-7.4-3.669c3.581-7.007,4.668-14.6-1.9-20.516a18.6,18.6,0,0,0-13.923-4.5c1.328-14.988-23.119-20.6-32.346-9.976C252.147,64.2,227.7,69.815,229.029,84.8a18.593,18.593,0,0,0-13.923,4.506c-6.565,5.914-5.484,13.5-1.9,20.514a20.714,20.714,0,0,0-7.4,3.671c-6.554,5.1-8.064,14.086-4.622,21.331,2.582,5.434,6.936,8.416,12.2,10.659-7.342,2.274-11.927,9.916-11.837,17.474.12,10.084,8.393,16.421,18.1,15.706a27.48,27.48,0,0,0-2.188,4.732c-1.382,4.155-2.162,8.64-.135,12.711a13.445,13.445,0,0,0,19.183,5.332,11.941,11.941,0,0,0,5.25,4.625c6.9,3.068,15.842,1.308,19.617-4.729,3.775,6.036,12.722,7.8,19.616,4.729a11.935,11.935,0,0,0,5.25-4.625,13.445,13.445,0,0,0,19.183-5.332c2.021-4.073,1.241-8.554-.135-12.711a27.184,27.184,0,0,0-2.193-4.733c9.71.716,17.989-5.621,18.109-15.705.09-7.558-4.495-15.2-11.833-17.473,5.261-2.239,9.614-5.223,12.192-10.66" transform="translate(5.778 2.009)" fill="#8f8fd8"/>
            <path id="Trazado_641503" data-name="Trazado 641503" d="M248.066,132.3c-11.03,3.353-24.7-.988-25.972-13.393-.192-1.881-3.281-1.9-3.087,0,1.468,14.355,16.7,20.26,29.879,16.252a1.487,1.487,0,0,0-.82-2.858" transform="translate(6.346 3.404)" fill="#ccf"/>
            <path id="Trazado_641504" data-name="Trazado 641504" d="M244.673,95.059c4.415-4.933,4.805-11.813,3.357-17.887-.444-1.859-3.42-1.072-2.977.788,1.2,5.014,1.036,10.853-2.562,15a11.652,11.652,0,0,1-12.655,3.457c-1.87-.654-2.675,2.209-.821,2.86a14.745,14.745,0,0,0,15.659-4.221" transform="translate(6.606 2.206)" fill="#ccf"/>
            <path id="Trazado_641505" data-name="Trazado 641505" d="M321.565,134.824c3.433-7.241,1.947-16.24-4.622-21.331a20.836,20.836,0,0,0-7.4-3.669c3.581-7.008,4.668-14.6-1.9-20.516A18.593,18.593,0,0,0,293.719,84.8c1.328-14.987-23.119-20.6-32.346-9.975C252.147,64.2,227.7,69.815,229.029,84.8a18.585,18.585,0,0,0-13.923,4.506c-6.565,5.914-5.484,13.5-1.9,20.514a20.7,20.7,0,0,0-7.4,3.671c-6.555,5.1-8.064,14.086-4.622,21.331,2.582,5.434,6.935,8.416,12.2,10.659-7.342,2.274-11.927,9.916-11.837,17.474.12,10.083,8.393,16.42,18.1,15.706a27.48,27.48,0,0,0-2.188,4.732c-1.382,4.154-2.162,8.639-.135,12.71a13.446,13.446,0,0,0,19.183,5.333,11.941,11.941,0,0,0,5.25,4.625c6.9,3.068,15.842,1.308,19.617-4.729,3.775,6.036,12.723,7.8,19.616,4.729a11.937,11.937,0,0,0,5.25-4.626,13.444,13.444,0,0,0,19.183-5.332c2.021-4.072,1.241-8.554-.135-12.71a27.146,27.146,0,0,0-2.193-4.733c9.71.716,17.989-5.622,18.109-15.705.09-7.558-4.494-15.2-11.833-17.474,5.261-2.239,9.614-5.222,12.192-10.659m-80.354,67.432c-3.55-2.779-4.7-8.343-3.957-12.556.33-1.867-2.643-2.668-2.977-.788a18.976,18.976,0,0,0,.884,9.847c-4.2,2.648-9.374,2.508-13.056-1.139-4.725-4.682-2.837-11.886-.1-17.088,1.888-3.591,4.427-6.683,4.232-10.907-.174-3.793-2.279-6.99-4.781-9.79-1.3-1.451-3.471.654-2.182,2.1,3.713,4.156,4.921,8.541,2.19,13.523-9.615,1.932-17.484-4.441-16.782-14.006.527-7.168,5.9-13.992,13.9-13.669a1.6,1.6,0,0,0,.637-.1c11.421,4.051,24.545,8.5,27.707,21.071.466,1.853,3.443,1.068,2.976-.788-1.764-7.012-6.792-12.335-13.048-16.117-7.951-4.806-17.611-5.985-25.618-10.5a16.781,16.781,0,0,1-8.271-18.479c2.867-11.766,18.131-12.615,27.369-8.261,1.777.838,3.343-1.718,1.558-2.559a28.869,28.869,0,0,0-15.551-2.832c-3.255-5.985-4.835-12.636.951-17.817,3.648-3.266,8.365-4.131,13.007-3.554a1.568,1.568,0,0,0,.367.046,26.21,26.21,0,0,1,6.775,1.944c1.795.784,3.366-1.77,1.558-2.56a31.043,31.043,0,0,0-6.831-2.1c-2.046-13.16,21.1-17.291,27.665-7.373v33.082a1.673,1.673,0,0,0,0,.555v13.832a16.172,16.172,0,0,0-19.776-4.418c-1.782.844-.219,3.4,1.558,2.559A12.87,12.87,0,0,1,259.83,132.4V151.12c-5.689.217-11.6-.915-14.406-6.251-.9-1.7-3.56-.2-2.665,1.5,3.287,6.248,10.318,7.962,17.071,7.72v16.443c-4.1,6.9-11.978,11.131-20.3,9.267-1.933-.432-2.758,2.425-.821,2.858a21.789,21.789,0,0,0,21.123-6.979v21.491c-1.862,7.393-12.6,9.8-18.619,5.089m70.3-60.9c-7.783,4.384-17.167,5.618-24.978,10.126-6.543,3.776-11.865,9.233-13.689,16.486-.466,1.853,2.511,2.644,2.977.788,3.158-12.553,16.279-17.026,27.7-21.072a1.6,1.6,0,0,0,.641.1c8-.323,13.374,6.5,13.9,13.669.7,9.565-7.167,15.939-16.782,14.006-2.723-5.019-1.582-9.3,2.19-13.523,1.287-1.441-.886-3.547-2.182-2.1-2.322,2.6-4.343,5.553-4.735,9.047-.512,4.558,2.2,7.788,4.186,11.65,2.564,4.975,4.532,11.6.526,16.344-3.587,4.249-9.117,4.757-13.682,1.881a18.968,18.968,0,0,0,.883-9.845c-.332-1.877-3.307-1.081-2.976.788.747,4.222-.406,9.774-3.957,12.556-6.011,4.706-16.761,2.285-18.62-5.089V175.675a21.8,21.8,0,0,0,21.124,6.979c1.933-.432,1.114-3.292-.821-2.858-8.331,1.866-16.2-2.362-20.3-9.267V132.4a12.872,12.872,0,0,1,18.219-8.984c1.775.842,3.341-1.714,1.558-2.559a16.174,16.174,0,0,0-19.777,4.418V112.5c5.74-1.023,10.232-7.444,8.839-12.916-.471-1.852-3.449-1.067-2.976.788.917,3.6-2.132,8.063-5.863,9.1V77.81c6.569-9.924,29.709-5.778,27.666,7.373a31.043,31.043,0,0,0-6.831,2.1c-1.806.789-.239,3.345,1.558,2.56a26.268,26.268,0,0,1,6.752-1.944,1.569,1.569,0,0,0,.405-.051c4.637-.575,9.343.292,12.992,3.559,5.791,5.185,4.216,11.815.951,17.817a28.819,28.819,0,0,0-15.552,2.832c-1.783.84-.22,3.4,1.558,2.559,9.138-4.307,23.679-3.594,27.2,7.582,2.3,7.288-1.375,15.368-8.1,19.159" transform="translate(5.778 2.009)" fill="#e3e3fc"/>
            <path id="Trazado_641506" data-name="Trazado 641506" d="M298.036,118.9c-1.27,12.419-14.951,16.743-25.972,13.394a1.487,1.487,0,0,0-.821,2.859c13.182,4.007,28.412-1.9,29.88-16.253.194-1.9-2.895-1.883-3.087,0" transform="translate(7.829 3.404)" fill="#ccf"/>
            <path id="Trazado_641507" data-name="Trazado 641507" d="M290.83,99.278c1.851-.648,1.052-3.514-.821-2.858a11.657,11.657,0,0,1-12.655-3.458c-3.6-4.158-3.76-9.983-2.562-15,.442-1.857-2.532-2.65-2.977-.788-1.449,6.073-1.06,12.957,3.356,17.887a14.743,14.743,0,0,0,15.659,4.221" transform="translate(7.855 2.205)" fill="#ccf"/>
            <g id="Grupo_1074736" data-name="Grupo 1074736" transform="translate(216.004 230.21)" opacity="0.1" style="mix-blend-mode: multiply;isolation: isolate">
              <g id="Grupo_1074735" data-name="Grupo 1074735">
                <g id="Grupo_1074734" data-name="Grupo 1074734" clip-path="url(#clip-path-4)">
                  <rect id="Rectángulo_379119" data-name="Rectángulo 379119" width="118.721" height="24.781" transform="translate(4.762 101.876) rotate(-53.577)"/>
                  <path id="Trazado_641508" data-name="Trazado 641508" d="M214.683,322.734l19.941,14.713-21.812,11.685a2.059,2.059,0,0,1-2.861-2.111Z" transform="translate(-209.921 -220.858)"/>
                  <rect id="Rectángulo_379120" data-name="Rectángulo 379120" width="118.721" height="3.347" transform="translate(19.053 112.421) rotate(-53.577)"/>
                  <rect id="Rectángulo_379121" data-name="Rectángulo 379121" width="118.721" height="3.347" transform="translate(13.386 108.239) rotate(-53.577)"/>
                  <rect id="Rectángulo_379122" data-name="Rectángulo 379122" width="118.721" height="3.347" transform="translate(7.719 104.058) rotate(-53.577)"/>
                  <path id="Trazado_641509" data-name="Trazado 641509" d="M285.159,227.592l-11.536,15.633,19.941,14.713L305.1,242.305c3.453-4.68,1.788-11.767-3.718-15.83s-12.77-3.563-16.223,1.116" transform="translate(-208.075 -223.727)"/>
                  <g id="Grupo_1074733" data-name="Grupo 1074733" transform="translate(81.729 0.008)" opacity="0.4">
                    <g id="Grupo_1074732" data-name="Grupo 1074732">
                      <g id="Grupo_1074731" data-name="Grupo 1074731" clip-path="url(#clip-path-5)">
                        <path id="Trazado_641510" data-name="Trazado 641510" d="M306.18,234.347a13.925,13.925,0,0,0-14.372-10.566c-.031.02-.065.031-.1.05-2.4,1.557-2.787,5.324-1.985,7.864,1.765,5.584,9.075,7.806,14.006,5.193a5.659,5.659,0,0,0,2.446-2.543" transform="translate(-289.348 -223.735)"/>
                      </g>
                    </g>
                  </g>
                  <rect id="Rectángulo_379124" data-name="Rectángulo 379124" width="16.344" height="24.782" transform="matrix(0.594, -0.805, 0.805, 0.594, 65.548, 19.497)"/>
                  <rect id="Rectángulo_379125" data-name="Rectángulo 379125" width="1.248" height="24.782" transform="translate(66.372 18.381) rotate(-53.556)"/>
                  <rect id="Rectángulo_379126" data-name="Rectángulo 379126" width="1.248" height="24.782" transform="translate(68.232 15.859) rotate(-53.556)"/>
                  <rect id="Rectángulo_379127" data-name="Rectángulo 379127" width="1.248" height="24.782" transform="translate(70.093 13.338) rotate(-53.556)"/>
                  <rect id="Rectángulo_379128" data-name="Rectángulo 379128" width="1.248" height="24.782" transform="translate(71.954 10.816) rotate(-53.556)"/>
                  <rect id="Rectángulo_379129" data-name="Rectángulo 379129" width="1.248" height="24.782" transform="translate(73.814 8.295) rotate(-53.556)"/>
                  <path id="Trazado_641511" data-name="Trazado 641511" d="M211.525,338.483l-1.574,8.082a2.06,2.06,0,0,0,2.861,2.112l7.257-3.889Z" transform="translate(-209.921 -220.402)"/>
                </g>
              </g>
            </g>
            <rect id="Rectángulo_379131" data-name="Rectángulo 379131" width="118.721" height="24.781" transform="translate(220.766 324.883) rotate(-53.577)" fill="#ffdb78"/>
            <path id="Trazado_641512" data-name="Trazado 641512" d="M214.683,315.734l19.941,14.713-21.812,11.685a2.059,2.059,0,0,1-2.861-2.111Z" transform="translate(6.083 9.149)" fill="#fff5f3"/>
            <rect id="Rectángulo_379132" data-name="Rectángulo 379132" width="118.721" height="3.347" transform="translate(235.057 335.428) rotate(-53.577)" fill="#ffb39c"/>
            <rect id="Rectángulo_379133" data-name="Rectángulo 379133" width="118.721" height="3.347" transform="translate(229.39 331.246) rotate(-53.577)" fill="#ffb39c"/>
            <rect id="Rectángulo_379134" data-name="Rectángulo 379134" width="118.721" height="3.347" transform="translate(223.723 327.065) rotate(-53.577)" fill="#ffb39c"/>
            <path id="Trazado_641513" data-name="Trazado 641513" d="M285.159,220.592l-11.536,15.633,19.941,14.713L305.1,235.305c3.453-4.68,1.788-11.767-3.718-15.83s-12.77-3.563-16.223,1.116" transform="translate(7.929 6.28)" fill="#e79e9e"/>
            <g id="Grupo_1074739" data-name="Grupo 1074739" transform="translate(297.733 223.015)" opacity="0.4">
              <g id="Grupo_1074738" data-name="Grupo 1074738">
                <g id="Grupo_1074737" data-name="Grupo 1074737" clip-path="url(#clip-path-6)">
                  <path id="Trazado_641514" data-name="Trazado 641514" d="M306.18,227.347a13.925,13.925,0,0,0-14.372-10.566c-.031.02-.065.031-.1.05-2.4,1.557-2.787,5.324-1.985,7.864,1.765,5.584,9.075,7.806,14.006,5.193a5.659,5.659,0,0,0,2.446-2.543" transform="translate(-289.348 -216.735)" fill="#fce5e5"/>
                </g>
              </g>
            </g>
            <rect id="Rectángulo_379136" data-name="Rectángulo 379136" width="16.344" height="24.782" transform="matrix(0.594, -0.805, 0.805, 0.594, 281.552, 242.504)" fill="#2a2a47"/>
            <rect id="Rectángulo_379137" data-name="Rectángulo 379137" width="1.248" height="24.782" transform="translate(282.376 241.388) rotate(-53.556)" fill="#1a1a2e"/>
            <rect id="Rectángulo_379138" data-name="Rectángulo 379138" width="1.248" height="24.782" transform="translate(284.236 238.867) rotate(-53.556)" fill="#1a1a2e"/>
            <rect id="Rectángulo_379139" data-name="Rectángulo 379139" width="1.248" height="24.782" transform="translate(286.097 236.345) rotate(-53.556)" fill="#1a1a2e"/>
            <rect id="Rectángulo_379140" data-name="Rectángulo 379140" width="1.248" height="24.782" transform="translate(287.958 233.823) rotate(-53.556)" fill="#1a1a2e"/>
            <rect id="Rectángulo_379141" data-name="Rectángulo 379141" width="1.248" height="24.782" transform="translate(289.819 231.302) rotate(-53.556)" fill="#1a1a2e"/>
            <path id="Trazado_641515" data-name="Trazado 641515" d="M211.525,331.483l-1.574,8.082a2.06,2.06,0,0,0,2.861,2.111l7.257-3.889Z" transform="translate(6.083 9.606)" fill="#1a1a2e"/>
            <g id="Grupo_1074742" data-name="Grupo 1074742" transform="translate(118.431 196.586)" opacity="0.1" style="mix-blend-mode: multiply;isolation: isolate">
              <g id="Grupo_1074741" data-name="Grupo 1074741">
                <g id="Grupo_1074740" data-name="Grupo 1074740" clip-path="url(#clip-path-7)">
                  <path id="Trazado_641516" data-name="Trazado 641516" d="M166.522,191.05H115.1V291.335h72.238V211.862Z" transform="translate(-115.096 -191.05)"/>
                  <rect id="Rectángulo_379142" data-name="Rectángulo 379142" width="50.262" height="3.81" transform="translate(4.827 7.395)"/>
                  <rect id="Rectángulo_379143" data-name="Rectángulo 379143" width="62.584" height="3.81" transform="translate(4.827 17.839)"/>
                  <rect id="Rectángulo_379144" data-name="Rectángulo 379144" width="62.584" height="3.81" transform="translate(4.827 28.285)"/>
                  <rect id="Rectángulo_379145" data-name="Rectángulo 379145" width="62.584" height="3.81" transform="translate(4.827 38.729)"/>
                  <rect id="Rectángulo_379146" data-name="Rectángulo 379146" width="62.584" height="3.81" transform="translate(4.827 49.173)"/>
                  <rect id="Rectángulo_379147" data-name="Rectángulo 379147" width="62.584" height="3.81" transform="translate(4.827 59.618)"/>
                  <rect id="Rectángulo_379148" data-name="Rectángulo 379148" width="62.584" height="3.81" transform="translate(4.827 70.062)"/>
                  <rect id="Rectángulo_379149" data-name="Rectángulo 379149" width="62.584" height="3.81" transform="translate(4.827 80.507)"/>
                  <rect id="Rectángulo_379150" data-name="Rectángulo 379150" width="62.584" height="3.81" transform="translate(4.827 90.951)"/>
                  <path id="Trazado_641517" data-name="Trazado 641517" d="M165.074,211.862h20.812L165.074,191.05Z" transform="translate(-113.648 -191.05)"/>
                  <path id="Trazado_641518" data-name="Trazado 641518" d="M150.861,264a23.552,23.552,0,1,1,23.552-23.551A23.578,23.578,0,0,1,150.861,264m0-44.019a20.467,20.467,0,1,0,20.467,20.467,20.49,20.49,0,0,0-20.467-20.467" transform="translate(-114.742 -190.301)"/>
                  <path id="Trazado_641519" data-name="Trazado 641519" d="M139.778,240.112a11.46,11.46,0,0,1,11.755-11.755,11.278,11.278,0,0,1,9.688,5.231l-4.457,2.584a5.843,5.843,0,0,0-5.231-2.777c-4,0-6.589,2.68-6.589,6.717s2.584,6.717,6.589,6.717a5.809,5.809,0,0,0,5.231-2.777l4.457,2.583a11.194,11.194,0,0,1-9.688,5.232,11.46,11.46,0,0,1-11.755-11.755" transform="translate(-114.381 -189.969)"/>
                </g>
              </g>
            </g>
            <path id="Trazado_641520" data-name="Trazado 641520" d="M166.522,184.05H115.1V284.335h72.238V204.862Z" transform="translate(3.335 5.333)" fill="#9ec2e8"/>
            <g id="Grupo_1074745" data-name="Grupo 1074745" transform="translate(123.258 196.779)" opacity="0.3">
              <g id="Grupo_1074744" data-name="Grupo 1074744">
                <g id="Grupo_1074743" data-name="Grupo 1074743" clip-path="url(#clip-path-8)">
                  <rect id="Rectángulo_379152" data-name="Rectángulo 379152" width="50.262" height="3.81" fill="#b0e6f4"/>
                  <rect id="Rectángulo_379153" data-name="Rectángulo 379153" width="62.584" height="3.81" transform="translate(0 10.444)" fill="#b0e6f4"/>
                  <rect id="Rectángulo_379154" data-name="Rectángulo 379154" width="62.584" height="3.81" transform="translate(0 20.889)" fill="#b0e6f4"/>
                  <rect id="Rectángulo_379155" data-name="Rectángulo 379155" width="62.584" height="3.81" transform="translate(0 31.333)" fill="#b0e6f4"/>
                  <rect id="Rectángulo_379156" data-name="Rectángulo 379156" width="62.584" height="3.81" transform="translate(0 41.778)" fill="#b0e6f4"/>
                  <rect id="Rectángulo_379157" data-name="Rectángulo 379157" width="62.584" height="3.81" transform="translate(0 52.223)" fill="#b0e6f4"/>
                  <rect id="Rectángulo_379158" data-name="Rectángulo 379158" width="62.584" height="3.81" transform="translate(0 62.667)" fill="#b0e6f4"/>
                  <rect id="Rectángulo_379159" data-name="Rectángulo 379159" width="62.584" height="3.81" transform="translate(0 73.112)" fill="#b0e6f4"/>
                  <rect id="Rectángulo_379160" data-name="Rectángulo 379160" width="62.584" height="3.81" transform="translate(0 83.556)" fill="#b0e6f4"/>
                </g>
              </g>
            </g>
            <path id="Trazado_641521" data-name="Trazado 641521" d="M165.074,204.862h20.812L165.074,184.05Z" transform="translate(4.783 5.333)" fill="#b0e6f4"/>
            <path id="Trazado_641522" data-name="Trazado 641522" d="M150.861,257a23.552,23.552,0,1,1,23.552-23.551A23.578,23.578,0,0,1,150.861,257m0-44.019a20.467,20.467,0,1,0,20.467,20.467,20.49,20.49,0,0,0-20.467-20.467" transform="translate(3.689 6.082)" fill="#fff"/>
            <path id="Trazado_641523" data-name="Trazado 641523" d="M139.778,233.112a11.46,11.46,0,0,1,11.755-11.755,11.278,11.278,0,0,1,9.688,5.231l-4.457,2.584a5.843,5.843,0,0,0-5.231-2.777c-4,0-6.589,2.68-6.589,6.717s2.584,6.717,6.589,6.717a5.809,5.809,0,0,0,5.231-2.777l4.457,2.583a11.194,11.194,0,0,1-9.688,5.232,11.46,11.46,0,0,1-11.755-11.755" transform="translate(4.05 6.414)" fill="#fff"/>
            <g id="Grupo_1074748" data-name="Grupo 1074748" transform="translate(324.781 261.674)" opacity="0.1" style="mix-blend-mode: multiply;isolation: isolate">
              <g id="Grupo_1074747" data-name="Grupo 1074747">
                <g id="Grupo_1074746" data-name="Grupo 1074746" clip-path="url(#clip-path-9)">
                  <path id="Trazado_641524" data-name="Trazado 641524" d="M356.389,254.3H315.636v79.473h57.246V270.8Z" transform="translate(-315.635 -254.305)"/>
                  <rect id="Rectángulo_379162" data-name="Rectángulo 379162" width="39.832" height="3.02" transform="translate(3.826 5.86)"/>
                  <rect id="Rectángulo_379163" data-name="Rectángulo 379163" width="49.597" height="3.02" transform="translate(3.826 14.137)"/>
                  <rect id="Rectángulo_379164" data-name="Rectángulo 379164" width="49.597" height="3.02" transform="translate(3.826 22.414)"/>
                  <rect id="Rectángulo_379165" data-name="Rectángulo 379165" width="49.597" height="3.02" transform="translate(3.826 30.691)"/>
                  <rect id="Rectángulo_379166" data-name="Rectángulo 379166" width="49.597" height="3.02" transform="translate(3.826 38.968)"/>
                  <rect id="Rectángulo_379167" data-name="Rectángulo 379167" width="49.597" height="3.02" transform="translate(3.826 47.244)"/>
                  <rect id="Rectángulo_379168" data-name="Rectángulo 379168" width="49.597" height="3.02" transform="translate(3.826 55.522)"/>
                  <rect id="Rectángulo_379169" data-name="Rectángulo 379169" width="49.597" height="3.02" transform="translate(3.826 63.799)"/>
                  <rect id="Rectángulo_379170" data-name="Rectángulo 379170" width="49.597" height="3.02" transform="translate(3.826 72.076)"/>
                  <path id="Trazado_641525" data-name="Trazado 641525" d="M355.242,270.8h16.492L355.242,254.3Z" transform="translate(-314.487 -254.305)"/>
                  <path id="Trazado_641526" data-name="Trazado 641526" d="M343.979,312.112a18.665,18.665,0,1,1,18.665-18.665,18.686,18.686,0,0,1-18.665,18.665m0-34.884a16.219,16.219,0,1,0,16.22,16.22,16.238,16.238,0,0,0-16.22-16.22" transform="translate(-315.355 -253.712)"/>
                  <path id="Trazado_641527" data-name="Trazado 641527" d="M335.2,293.184a9.081,9.081,0,0,1,9.315-9.315,8.935,8.935,0,0,1,7.677,4.146l-3.531,2.048a4.631,4.631,0,0,0-4.146-2.2,5.324,5.324,0,0,0,0,10.646,4.6,4.6,0,0,0,4.146-2.2l3.531,2.048a8.871,8.871,0,0,1-7.677,4.146,9.081,9.081,0,0,1-9.315-9.315" transform="translate(-315.068 -253.448)"/>
                </g>
              </g>
            </g>
            <path id="Trazado_641528" data-name="Trazado 641528" d="M356.389,247.3H315.636v79.473h57.246V263.8Z" transform="translate(9.146 7.166)" fill="#9ec2e8"/>
            <g id="Grupo_1074751" data-name="Grupo 1074751" transform="translate(328.607 260.331)" opacity="0.3">
              <g id="Grupo_1074750" data-name="Grupo 1074750">
                <g id="Grupo_1074749" data-name="Grupo 1074749" clip-path="url(#clip-path-10)">
                  <rect id="Rectángulo_379172" data-name="Rectángulo 379172" width="39.832" height="3.02" fill="#b0e6f4"/>
                  <rect id="Rectángulo_379173" data-name="Rectángulo 379173" width="49.597" height="3.02" transform="translate(0 8.277)" fill="#b0e6f4"/>
                  <rect id="Rectángulo_379174" data-name="Rectángulo 379174" width="49.597" height="3.02" transform="translate(0 16.554)" fill="#b0e6f4"/>
                  <rect id="Rectángulo_379175" data-name="Rectángulo 379175" width="49.597" height="3.02" transform="translate(0 24.831)" fill="#b0e6f4"/>
                  <rect id="Rectángulo_379176" data-name="Rectángulo 379176" width="49.597" height="3.02" transform="translate(0 33.108)" fill="#b0e6f4"/>
                  <rect id="Rectángulo_379177" data-name="Rectángulo 379177" width="49.597" height="3.02" transform="translate(0 41.384)" fill="#b0e6f4"/>
                  <rect id="Rectángulo_379178" data-name="Rectángulo 379178" width="49.597" height="3.02" transform="translate(0 49.662)" fill="#b0e6f4"/>
                  <rect id="Rectángulo_379179" data-name="Rectángulo 379179" width="49.597" height="3.02" transform="translate(0 57.939)" fill="#b0e6f4"/>
                  <rect id="Rectángulo_379180" data-name="Rectángulo 379180" width="49.597" height="3.02" transform="translate(0 66.216)" fill="#b0e6f4"/>
                </g>
              </g>
            </g>
            <path id="Trazado_641529" data-name="Trazado 641529" d="M355.242,263.8h16.492L355.242,247.3Z" transform="translate(10.294 7.166)" fill="#b0e6f4"/>
            <path id="Trazado_641530" data-name="Trazado 641530" d="M343.979,305.112a18.665,18.665,0,1,1,18.665-18.665,18.686,18.686,0,0,1-18.665,18.665m0-34.884a16.219,16.219,0,1,0,16.22,16.22,16.238,16.238,0,0,0-16.22-16.22" transform="translate(9.427 7.76)" fill="#fff"/>
            <path id="Trazado_641531" data-name="Trazado 641531" d="M335.2,286.184a9.081,9.081,0,0,1,9.315-9.315,8.935,8.935,0,0,1,7.677,4.146l-3.531,2.048a4.631,4.631,0,0,0-4.146-2.2,5.324,5.324,0,0,0,0,10.646,4.6,4.6,0,0,0,4.146-2.2l3.531,2.048a8.871,8.871,0,0,1-7.677,4.146,9.081,9.081,0,0,1-9.315-9.315" transform="translate(9.713 8.023)" fill="#fff"/>
            <g id="Grupo_1074754" data-name="Grupo 1074754" transform="translate(330.788 185.365)" opacity="0.1" style="mix-blend-mode: multiply;isolation: isolate">
              <g id="Grupo_1074753" data-name="Grupo 1074753">
                <g id="Grupo_1074752" data-name="Grupo 1074752" clip-path="url(#clip-path-11)">
                  <path id="Trazado_641532" data-name="Trazado 641532" d="M357.809,180.145H324.979a3.669,3.669,0,0,0-3.507,3.812v33.79c0,3.4,3.777,5.1,5.987,2.7l4.5-4.891a3.37,3.37,0,0,1,2.48-1.116h23.372a3.669,3.669,0,0,0,3.507-3.812V183.957a3.669,3.669,0,0,0-3.507-3.812" transform="translate(-321.472 -180.145)"/>
                  <path id="Trazado_641533" data-name="Trazado 641533" d="M353.581,186.014H329.4a1.816,1.816,0,0,0,0,3.631h24.18a1.816,1.816,0,1,0,0-3.631" transform="translate(-321.295 -179.975)"/>
                  <path id="Trazado_641534" data-name="Trazado 641534" d="M353.581,194.69H329.4a1.816,1.816,0,0,0,0,3.631h24.18a1.816,1.816,0,1,0,0-3.631" transform="translate(-321.295 -179.724)"/>
                  <path id="Trazado_641535" data-name="Trazado 641535" d="M353.581,203.367H329.4a1.816,1.816,0,0,0,0,3.631h24.18a1.816,1.816,0,1,0,0-3.631" transform="translate(-321.295 -179.472)"/>
                </g>
              </g>
            </g>
            <path id="Trazado_641536" data-name="Trazado 641536" d="M357.809,173.145H324.979a3.669,3.669,0,0,0-3.507,3.812v33.79c0,3.4,3.777,5.1,5.987,2.7l4.5-4.891a3.37,3.37,0,0,1,2.48-1.116h23.372a3.669,3.669,0,0,0,3.507-3.812V176.957a3.669,3.669,0,0,0-3.507-3.812" transform="translate(9.316 5.017)" fill="#1a1a2e"/>
            <path id="Trazado_641537" data-name="Trazado 641537" d="M353.581,179.014H329.4a1.816,1.816,0,0,0,0,3.631h24.18a1.816,1.816,0,1,0,0-3.631" transform="translate(9.493 5.187)" fill="#8f8fd8"/>
            <path id="Trazado_641538" data-name="Trazado 641538" d="M353.581,187.69H329.4a1.816,1.816,0,0,0,0,3.631h24.18a1.816,1.816,0,1,0,0-3.631" transform="translate(9.493 5.439)" fill="#8f8fd8"/>
            <path id="Trazado_641539" data-name="Trazado 641539" d="M353.581,196.367H329.4a1.816,1.816,0,0,0,0,3.631h24.18a1.816,1.816,0,1,0,0-3.631" transform="translate(9.493 5.69)" fill="#8f8fd8"/>
            <g id="Grupo_1074757" data-name="Grupo 1074757" transform="translate(145.349 71.364)" opacity="0.1" style="mix-blend-mode: multiply;isolation: isolate">
              <g id="Grupo_1074756" data-name="Grupo 1074756">
                <g id="Grupo_1074755" data-name="Grupo 1074755" clip-path="url(#clip-path-11)">
                  <path id="Trazado_641540" data-name="Trazado 641540" d="M144.763,69.354h32.831a3.669,3.669,0,0,1,3.507,3.812v33.79c0,3.4-3.777,5.1-5.987,2.7l-4.5-4.891a3.369,3.369,0,0,0-2.48-1.116H144.763a3.669,3.669,0,0,1-3.507-3.812V73.166a3.669,3.669,0,0,1,3.507-3.812" transform="translate(-141.256 -69.354)"/>
                  <path id="Trazado_641541" data-name="Trazado 641541" d="M148.652,75.223h24.18a1.816,1.816,0,1,1,0,3.631h-24.18a1.816,1.816,0,0,1,0-3.631" transform="translate(-141.094 -69.184)"/>
                  <path id="Trazado_641542" data-name="Trazado 641542" d="M148.652,83.9h24.18a1.816,1.816,0,1,1,0,3.631h-24.18a1.816,1.816,0,0,1,0-3.631" transform="translate(-141.094 -68.932)"/>
                  <path id="Trazado_641543" data-name="Trazado 641543" d="M148.652,92.576h24.18a1.816,1.816,0,1,1,0,3.631h-24.18a1.816,1.816,0,0,1,0-3.631" transform="translate(-141.094 -68.681)"/>
                </g>
              </g>
            </g>
            <path id="Trazado_641544" data-name="Trazado 641544" d="M144.763,62.354h32.831a3.669,3.669,0,0,1,3.507,3.812v33.79c0,3.4-3.777,5.1-5.987,2.7l-4.5-4.891a3.369,3.369,0,0,0-2.48-1.116H144.763a3.669,3.669,0,0,1-3.507-3.812V66.166a3.669,3.669,0,0,1,3.507-3.812" transform="translate(4.093 1.807)" fill="#1a1a2e"/>
            <path id="Trazado_641545" data-name="Trazado 641545" d="M148.652,68.223h24.18a1.816,1.816,0,1,1,0,3.631h-24.18a1.816,1.816,0,0,1,0-3.631" transform="translate(4.255 1.977)" fill="#8f8fd8"/>
            <path id="Trazado_641546" data-name="Trazado 641546" d="M148.652,76.9h24.18a1.816,1.816,0,1,1,0,3.631h-24.18a1.816,1.816,0,0,1,0-3.631" transform="translate(4.255 2.228)" fill="#8f8fd8"/>
            <path id="Trazado_641547" data-name="Trazado 641547" d="M148.652,85.576h24.18a1.816,1.816,0,1,1,0,3.631h-24.18a1.816,1.816,0,0,1,0-3.631" transform="translate(4.255 2.48)" fill="#8f8fd8"/>
            <g id="Grupo_1074763" data-name="Grupo 1074763" transform="translate(233.757 7.203)" opacity="0.1" style="mix-blend-mode: multiply;isolation: isolate">
              <g id="Grupo_1074762" data-name="Grupo 1074762">
                <g id="Grupo_1074761" data-name="Grupo 1074761" clip-path="url(#clip-path-13)">
                  <path id="Trazado_641548" data-name="Trazado 641548" d="M260.277,81.955A23.083,23.083,0,0,1,237.221,58.9V30.056a23.056,23.056,0,0,1,46.113,0V58.9a23.083,23.083,0,0,1-23.056,23.056m0-67.752a15.872,15.872,0,0,0-15.853,15.853V58.9a15.853,15.853,0,0,0,31.707,0V30.056A15.872,15.872,0,0,0,260.277,14.2" transform="translate(-226.883 -7)"/>
                  <g id="Grupo_1074760" data-name="Grupo 1074760" transform="translate(10.339 33.618)" opacity="0.2" style="mix-blend-mode: multiply;isolation: isolate">
                    <g id="Grupo_1074759" data-name="Grupo 1074759" transform="translate(0 0)">
                      <g id="Grupo_1074758" data-name="Grupo 1074758" clip-path="url(#clip-path-14)">
                        <path id="Trazado_641549" data-name="Trazado 641549" d="M276.132,39.671V57.952a15.853,15.853,0,0,1-31.707,0V39.671a53.472,53.472,0,0,0-7.2,2.082v16.2a23.056,23.056,0,1,0,46.113,0v-16.2a53.322,53.322,0,0,0-7.2-2.083" transform="translate(-237.222 -39.671)"/>
                      </g>
                    </g>
                  </g>
                  <path id="Trazado_641550" data-name="Trazado 641550" d="M293.964,59.388c0-23.272-66.791-23.272-66.791,0s14.952,42.139,33.4,42.139,33.4-18.866,33.4-42.139" transform="translate(-227.174 -5.988)"/>
                  <path id="Trazado_641551" data-name="Trazado 641551" d="M227.987,62.107c0-23.272,65.164-23.272,65.164,0a53.528,53.528,0,0,1-1.534,12.8,51.8,51.8,0,0,0,2.347-15.514c0-23.273-66.791-23.273-66.791,0A51.8,51.8,0,0,0,229.52,74.9a53.529,53.529,0,0,1-1.533-12.8" transform="translate(-227.174 -5.988)"/>
                  <path id="Trazado_641552" data-name="Trazado 641552" d="M266.124,85.144l-3.439-19.7a6.218,6.218,0,1,0-5.756,0l-3.44,19.7Z" transform="translate(-226.411 -5.642)"/>
                  <path id="Trazado_641553" data-name="Trazado 641553" d="M265.919,85.127,262.589,65.8a6.022,6.022,0,1,0-5.575,0l-3.331,19.327Z" transform="translate(-226.406 -5.625)"/>
                </g>
              </g>
            </g>
            <path id="Trazado_641554" data-name="Trazado 641554" d="M260.277,74.955A23.083,23.083,0,0,1,237.221,51.9V23.056a23.056,23.056,0,0,1,46.113,0V51.9a23.083,23.083,0,0,1-23.056,23.056m0-67.752a15.872,15.872,0,0,0-15.853,15.853V51.9a15.853,15.853,0,0,0,31.707,0V23.056A15.872,15.872,0,0,0,260.277,7.2" transform="translate(6.874 0)" fill="#f6a8a8"/>
            <g id="Grupo_1074766" data-name="Grupo 1074766" transform="translate(244.096 33.618)" opacity="0.2" style="mix-blend-mode: multiply;isolation: isolate">
              <g id="Grupo_1074765" data-name="Grupo 1074765">
                <g id="Grupo_1074764" data-name="Grupo 1074764" clip-path="url(#clip-path-14)">
                  <path id="Trazado_641555" data-name="Trazado 641555" d="M276.132,32.671V50.952a15.853,15.853,0,0,1-31.707,0V32.671a53.471,53.471,0,0,0-7.2,2.082v16.2a23.056,23.056,0,1,0,46.113,0v-16.2a53.321,53.321,0,0,0-7.2-2.083" transform="translate(-237.222 -32.671)" fill="#999"/>
                </g>
              </g>
            </g>
            <path id="Trazado_641556" data-name="Trazado 641556" d="M293.964,52.388c0-23.272-66.791-23.272-66.791,0s14.952,42.139,33.4,42.139,33.4-18.866,33.4-42.139" transform="translate(6.583 1.012)" fill="#e79e9e"/>
            <path id="Trazado_641557" data-name="Trazado 641557" d="M227.987,55.107c0-23.272,65.164-23.272,65.164,0a53.528,53.528,0,0,1-1.534,12.8,51.8,51.8,0,0,0,2.347-15.514c0-23.273-66.791-23.273-66.791,0A51.8,51.8,0,0,0,229.52,67.9a53.529,53.529,0,0,1-1.533-12.8" transform="translate(6.583 1.012)" fill="#b55757"/>
            <path id="Trazado_641558" data-name="Trazado 641558" d="M266.124,78.144l-3.439-19.7a6.218,6.218,0,1,0-5.756,0l-3.44,19.7Z" transform="translate(7.346 1.358)" fill="#b0e6f4"/>
            <path id="Trazado_641559" data-name="Trazado 641559" d="M265.919,78.127,262.589,58.8a6.022,6.022,0,1,0-5.575,0l-3.331,19.327Z" transform="translate(7.351 1.375)" fill="#1a1a2e"/>
            <path id="Trazado_641560" data-name="Trazado 641560" d="M126.555,339.1a34.989,34.989,0,0,0-6.541-4.665,33.579,33.579,0,0,1-6.817-4.659c-2.37-2.259-3.113-4.721-4.027-7.782-1.442-4.824-3.719-8.3-8.076-10.907-3.239-1.936-7.1-2.228-10.424-3.946-5.24-2.705-8.714-9.941-15.119-10.111-7.881-.209-7.76,9.835-6.051,15.071,1.207,3.7,3.4,7.467,3.145,11.461-.3,4.54-2.527,8.708-2.559,13.28C70,348.4,84.041,353.127,85.761,363.971c.539,3.4.334,6.863.465,10.3.291,7.692,3.679,14.236,10.6,17.944a58.4,58.4,0,0,0,14.608,5.029c3.081.71,6.173,1.4,9.3,1.855,2.42.354,6.391,1.378,8.632-.011,1.614-1,2.306-3.531,2.938-5.219,3.195-8.54,3.9-17.8,3.89-26.843-.005-6.278-.708-12.886-3.2-18.781a25.888,25.888,0,0,0-6.441-9.147" transform="translate(1.987 8.607)" fill="#ccb67b"/>
            <path id="Trazado_641561" data-name="Trazado 641561" d="M71.677,298.029C67.79,300.694,68.14,307.9,69.5,312.07c1.207,3.7,3.4,7.467,3.145,11.461-.3,4.54-2.527,8.708-2.559,13.28C70,348.369,84.041,353.1,85.761,363.941c.539,3.4.334,6.863.465,10.3.292,7.691,3.679,14.235,10.6,17.943a58.354,58.354,0,0,0,14.608,5.029c3.081.71,6.173,1.4,9.3,1.855,2.352.344,6.165,1.315,8.435.093C125.4,384.944,109.9,334.372,71.677,298.029" transform="translate(1.987 8.636)" fill="#665b3d"/>
            <path id="Trazado_641562" data-name="Trazado 641562" d="M127.659,399.209a222.6,222.6,0,0,0-8.092-24.756,252.293,252.293,0,0,0-10.69-23.823c-1.926-3.908-4.106-7.679-6.226-11.483-1.1-1.881-2.266-3.72-3.395-5.581l-1.708-2.785-1.825-2.708-3.663-5.41-3.916-5.229-1.966-2.611-2.094-2.507L79.892,307.3l-.019-.023a.514.514,0,0,1,.784-.665l4.284,4.987,2.142,2.5,2.013,2.6,4.012,5.212,3.76,5.394,1.875,2.7,1.756,2.78c1.162,1.858,2.364,3.694,3.492,5.573,2.188,3.8,4.433,7.569,6.425,11.476a254.3,254.3,0,0,1,11.09,23.854,224.4,224.4,0,0,1,8.522,24.948,1.219,1.219,0,1,1-2.353.64l0-.009Z" transform="translate(2.311 8.88)" fill="#8f8fd8"/>
            <path id="Trazado_641563" data-name="Trazado 641563" d="M101.9,364.017a26.792,26.792,0,0,0-6.091-.891,25.727,25.727,0,0,1-6.277-.79c-2.406-.71-3.772-2.128-5.467-3.895a13.361,13.361,0,0,0-9.322-4.608c-2.885-.186-5.616.964-8.485.958-4.518-.011-9.418-3.727-13.842-1.6-5.445,2.616-1.848,9.419,1.148,12.39,2.117,2.1,4.933,3.9,6.153,6.711,1.387,3.2,1.325,6.819,2.9,9.946,3.988,7.906,15.21,6.217,20.177,13.005a66.36,66.36,0,0,1,3.921,6.859c2.89,5.14,7.488,8.415,13.5,8.522a44.744,44.744,0,0,0,11.717-1.683c2.348-.595,4.7-1.208,6.99-1.991,1.773-.606,4.837-1.3,5.879-3.028.75-1.247.336-3.214.176-4.585-.81-6.938-3.571-13.493-6.741-19.656A37.259,37.259,0,0,0,109.49,368a19.828,19.828,0,0,0-7.591-3.98" transform="translate(1.437 10.216)" fill="#ccb67b"/>
            <path id="Trazado_641564" data-name="Trazado 641564" d="M50.136,355.171c-1.716,3.176,1.044,7.967,3.43,10.332,2.117,2.1,4.932,3.9,6.152,6.711,1.387,3.2,1.325,6.82,2.9,9.946,3.988,7.906,15.21,6.217,20.177,13.005a66.173,66.173,0,0,1,3.921,6.859c2.89,5.14,7.488,8.415,13.5,8.522a44.746,44.746,0,0,0,11.716-1.683c2.348-.594,4.7-1.207,6.99-1.991,1.724-.589,4.661-1.26,5.781-2.887-7.54-8.376-35.805-37.416-74.57-48.814" transform="translate(1.437 10.292)" fill="#665b3d"/>
            <path id="Trazado_641565" data-name="Trazado 641565" d="M123.734,404.518a170.513,170.513,0,0,0-14.177-14.041,193.814,193.814,0,0,0-15.621-12.5c-2.68-1.989-5.485-3.8-8.263-5.648-1.406-.9-2.845-1.742-4.266-2.616l-2.138-1.3-2.192-1.207L72.686,364.8l-4.5-2.194-2.253-1.092-2.3-.975-4.612-1.952L59,358.581a.394.394,0,0,1,.3-.727l4.664,1.9,2.333.951,2.281,1.067,4.558,2.147,4.45,2.361,2.223,1.186,2.17,1.28c1.442.86,2.9,1.691,4.33,2.576,2.82,1.825,5.67,3.609,8.4,5.575a195.145,195.145,0,0,1,15.9,12.377A172.025,172.025,0,0,1,125.148,403.3a.934.934,0,0,1-1.381,1.259l-.005-.005Z" transform="translate(1.703 10.369)" fill="#8f8fd8"/>
            <path id="Trazado_641566" data-name="Trazado 641566" d="M390.84,353.537c-2.489,5.9-3.191,12.5-3.2,18.781-.008,9.046.695,18.3,3.89,26.843.632,1.688,1.323,4.218,2.938,5.219,2.241,1.39,6.212.365,8.632.011,3.13-.457,6.221-1.144,9.3-1.855a58.369,58.369,0,0,0,14.608-5.029c6.917-3.708,10.3-10.253,10.6-17.943.131-3.439-.075-6.9.464-10.3,1.721-10.843,15.759-15.573,15.678-27.13-.032-4.571-2.264-8.74-2.559-13.28-.259-3.992,1.938-7.763,3.144-11.461,1.709-5.235,1.831-15.28-6.051-15.071-6.4.17-9.878,7.407-15.118,10.112-3.328,1.717-7.184,2.011-10.424,3.945-4.358,2.6-6.636,6.083-8.077,10.907-.915,3.062-1.657,5.525-4.026,7.782a33.582,33.582,0,0,1-6.817,4.659,34.99,34.99,0,0,0-6.541,4.665,25.871,25.871,0,0,0-6.441,9.147" transform="translate(11.233 8.76)" fill="#ccb67b"/>
            <path id="Trazado_641567" data-name="Trazado 641567" d="M451.962,303.321c3.886,2.665,3.537,9.874,2.177,14.041-1.207,3.7-3.4,7.468-3.145,11.461.3,4.54,2.527,8.708,2.559,13.28.081,11.556-13.956,16.287-15.677,27.13-.539,3.4-.334,6.863-.465,10.3-.292,7.691-3.679,14.235-10.6,17.943a58.355,58.355,0,0,1-14.608,5.029c-3.081.71-6.173,1.4-9.3,1.855-2.352.344-6.165,1.315-8.435.093,3.763-14.219,19.273-64.791,57.491-101.134" transform="translate(11.431 8.79)" fill="#665b3d"/>
            <path id="Trazado_641568" data-name="Trazado 641568" d="M395.69,404.5a222.607,222.607,0,0,1,8.092-24.756,252.3,252.3,0,0,1,10.69-23.823c1.926-3.908,4.106-7.679,6.226-11.483,1.1-1.881,2.265-3.719,3.395-5.581l1.708-2.785,1.825-2.708,3.664-5.41,3.915-5.229,1.965-2.611,2.1-2.507,4.191-5.015.019-.023a.514.514,0,0,0-.784-.665l-4.284,4.987-2.142,2.5-2.013,2.6-4.012,5.212-3.761,5.394-1.874,2.7-1.757,2.78c-1.162,1.858-2.364,3.694-3.492,5.573-2.188,3.8-4.433,7.569-6.425,11.476a254.281,254.281,0,0,0-11.09,23.854,224.389,224.389,0,0,0-8.522,24.948,1.219,1.219,0,1,0,2.353.64l0-.009Z" transform="translate(11.396 9.033)" fill="#8f8fd8"/>
            <path id="Trazado_641569" data-name="Trazado 641569" d="M416.026,367.375a37.246,37.246,0,0,0-8.75,11.682c-3.17,6.163-5.931,12.717-6.742,19.655-.159,1.372-.573,3.338.177,4.585,1.041,1.732,4.107,2.422,5.879,3.028,2.295.784,4.642,1.4,6.99,1.991A44.74,44.74,0,0,0,425.295,410c6.013-.107,10.61-3.382,13.5-8.522a65.97,65.97,0,0,1,3.92-6.859c4.967-6.788,16.189-5.1,20.177-13.005,1.578-3.126,1.516-6.749,2.9-9.946,1.219-2.812,4.036-4.613,6.152-6.711,3-2.971,6.594-9.774,1.148-12.39-4.425-2.125-9.324,1.592-13.842,1.6-2.87.006-5.6-1.144-8.485-.958a13.359,13.359,0,0,0-9.322,4.608c-1.695,1.767-3.062,3.185-5.467,3.895a25.733,25.733,0,0,1-6.276.79,26.839,26.839,0,0,0-6.092.891,19.825,19.825,0,0,0-7.59,3.98" transform="translate(11.599 10.198)" fill="#ccb67b"/>
            <path id="Trazado_641570" data-name="Trazado 641570" d="M475.363,354.549c1.716,3.176-1.044,7.967-3.43,10.332-2.117,2.1-4.932,3.9-6.152,6.711-1.387,3.2-1.325,6.82-2.9,9.946-3.988,7.906-15.21,6.217-20.177,13.005a66.172,66.172,0,0,0-3.921,6.859c-2.89,5.14-7.488,8.415-13.5,8.522a44.742,44.742,0,0,1-11.716-1.683c-2.348-.595-4.7-1.207-6.99-1.991-1.724-.589-4.661-1.26-5.781-2.888,7.54-8.375,35.805-37.415,74.57-48.813" transform="translate(11.614 10.274)" fill="#665b3d"/>
            <path id="Trazado_641571" data-name="Trazado 641571" d="M401.527,403.9A170.506,170.506,0,0,1,415.7,389.855a193.8,193.8,0,0,1,15.621-12.5c2.681-1.989,5.485-3.8,8.263-5.648,1.406-.9,2.845-1.742,4.266-2.616l2.138-1.3,2.192-1.207,4.391-2.406,4.5-2.194,2.253-1.092,2.3-.975,4.612-1.952.021-.008a.394.394,0,0,0-.3-.728l-4.664,1.9-2.333.951-2.281,1.067-4.558,2.147-4.45,2.361-2.223,1.186-2.17,1.28c-1.442.86-2.9,1.691-4.33,2.576-2.82,1.824-5.67,3.609-8.4,5.575a195.141,195.141,0,0,0-15.9,12.376,172.027,172.027,0,0,0-14.538,14.022.934.934,0,0,0,1.381,1.259l.005-.005Z" transform="translate(11.587 10.351)" fill="#8f8fd8"/>
            <path id="Trazado_641572" data-name="Trazado 641572" d="M126.635,379.459a24.329,24.329,0,0,0-4.215,8.551,38.16,38.16,0,0,0-1.968,13.43c.062.9.033,2.212.664,2.922.877.987,2.927,1.063,4.139,1.239,1.567.227,3.148.34,4.727.438a29.209,29.209,0,0,0,7.725-.325,10.1,10.1,0,0,0,7.644-7.094,43.3,43.3,0,0,1,1.694-4.874c2.374-4.956,9.781-5.219,11.393-10.773.638-2.2.163-4.515.67-6.735.446-1.952,2.037-3.446,3.145-5.048,1.567-2.267,3.059-7.067-.75-8.092-3.1-.833-5.8,2.141-8.695,2.69-1.842.349-3.733-.062-5.563.4a8.728,8.728,0,0,0-5.432,4.078,7.857,7.857,0,0,1-3.043,3.157,16.768,16.768,0,0,1-3.935,1.262,17.474,17.474,0,0,0-3.8,1.3,12.939,12.939,0,0,0-4.4,3.467" transform="translate(3.489 10.518)" fill="#ccb67b"/>
            <path id="Trazado_641573" data-name="Trazado 641573" d="M163.189,364.112c1.483,1.834.286,5.241-.961,7.045-1.107,1.6-2.7,3.1-3.145,5.048-.506,2.219-.032,4.537-.67,6.735-1.611,5.554-9.019,5.818-11.393,10.772a43.254,43.254,0,0,0-1.694,4.875,10.1,10.1,0,0,1-7.644,7.093,29.208,29.208,0,0,1-7.725.325c-1.579-.1-3.16-.211-4.727-.438-1.177-.171-3.145-.25-4.058-1.16,3.836-6.283,18.5-28.323,42.016-40.3" transform="translate(3.511 10.551)" fill="#665b3d"/>
            <path id="Trazado_641574" data-name="Trazado 641574" d="M121.717,404.634a111.249,111.249,0,0,1,7.417-10.718,126.279,126.279,0,0,1,8.528-9.9c1.483-1.6,3.066-3.1,4.626-4.618.8-.745,1.618-1.46,2.425-2.192l1.217-1.093,1.262-1.038,2.53-2.071,2.625-1.949,1.316-.971,1.362-.9,2.726-1.807.012-.008a.257.257,0,0,0-.281-.431l-2.767,1.78-1.384.891-1.336.959-2.669,1.926-2.573,2.05-1.285,1.029-1.239,1.082c-.823.725-1.662,1.434-2.472,2.173-1.591,1.511-3.206,3-4.72,4.587a127.281,127.281,0,0,0-8.726,9.857,112.328,112.328,0,0,0-7.65,10.749.611.611,0,1,0,1.038.643l0,0Z" transform="translate(3.494 10.632)" fill="#8f8fd8"/>
            <path id="Trazado_641575" data-name="Trazado 641575" d="M397.728,396.969c-.356-2.1-2.537-2.847-4.423-2.519a4.8,4.8,0,0,0,1.468-1.654c.639-1.658.309-4.154-1.329-5.129a4.832,4.832,0,0,0-4.615.25,6.277,6.277,0,0,0-2.425,2.449,9.876,9.876,0,0,0-1.148,3.124c-1.2-1.281-2.446-2.367-4.4-1.519a3.672,3.672,0,0,0-2.048,2.393c-.346-1.316-.844-2.535-2.407-2.088a5.159,5.159,0,0,0-2.838,2.445,16.715,16.715,0,0,0-.163-5.587c-.339-1.465-1.106-4.093-3.01-4.04s-3.058,2.322-3.393,3.9a8.91,8.91,0,0,0,.73,5.8,2.508,2.508,0,0,0-2.678.224,1.9,1.9,0,0,0-.7,1.657c-1.475-1.005-3.647-2.244-4.028.412-.378,2.626,2.086,5.457,4.471,6.061a.221.221,0,0,0,.279-.2,9.858,9.858,0,0,0,3.579.59q3.482.167,6.967.286l13.344.463a.388.388,0,0,0,.469.1,28.113,28.113,0,0,0,5.927-3.733c1.093-.91,2.643-2.06,2.369-3.681" transform="translate(10.44 11.159)" fill="#0a1"/>
            <path id="Trazado_641576" data-name="Trazado 641576" d="M367.583,375.992a17.513,17.513,0,0,0-3.8-1.3,16.8,16.8,0,0,1-3.935-1.26,7.869,7.869,0,0,1-3.044-3.158,8.726,8.726,0,0,0-5.431-4.078c-1.83-.465-3.721-.055-5.563-.4-2.9-.549-5.6-3.524-8.695-2.691-3.81,1.025-2.317,5.825-.75,8.093,1.107,1.6,2.7,3.1,3.145,5.047.506,2.22.032,4.538.669,6.735,1.611,5.554,9.02,5.819,11.393,10.773a43.257,43.257,0,0,1,1.695,4.875,10.1,10.1,0,0,0,7.644,7.093,29.205,29.205,0,0,0,7.725.325c1.579-.1,3.16-.211,4.727-.438,1.211-.176,3.262-.252,4.138-1.238.632-.711.6-2.024.664-2.923a38.15,38.15,0,0,0-1.967-13.429,24.341,24.341,0,0,0-4.215-8.552,12.972,12.972,0,0,0-4.4-3.467" transform="translate(9.699 10.518)" fill="#ccb67b"/>
            <path id="Trazado_641577" data-name="Trazado 641577" d="M335.4,364.112c-1.483,1.834-.286,5.241.961,7.045,1.107,1.6,2.7,3.1,3.145,5.048.506,2.219.032,4.537.67,6.735,1.611,5.554,9.019,5.818,11.393,10.772a43.251,43.251,0,0,1,1.694,4.875,10.1,10.1,0,0,0,7.644,7.093,29.207,29.207,0,0,0,7.725.325c1.579-.1,3.16-.211,4.727-.438,1.177-.171,3.145-.25,4.058-1.16-3.836-6.283-18.5-28.323-42.016-40.3" transform="translate(9.699 10.551)" fill="#665b3d"/>
            <path id="Trazado_641578" data-name="Trazado 641578" d="M376.721,404.634a111.436,111.436,0,0,0-7.417-10.718,126.483,126.483,0,0,0-8.528-9.9c-1.483-1.6-3.066-3.1-4.626-4.618-.8-.745-1.618-1.46-2.425-2.192l-1.217-1.093-1.262-1.038L348.716,373l-2.625-1.949-1.316-.971-1.362-.9-2.727-1.807-.011-.008a.257.257,0,0,1,.281-.431l2.767,1.78,1.384.891,1.336.959,2.669,1.926,2.574,2.05,1.285,1.029,1.239,1.082c.823.725,1.662,1.434,2.472,2.173,1.591,1.511,3.206,3,4.72,4.587a127.7,127.7,0,0,1,8.726,9.857,112.325,112.325,0,0,1,7.65,10.749.611.611,0,1,1-1.038.643l0,0Z" transform="translate(9.869 10.632)" fill="#8f8fd8"/>
            <path id="Trazado_641579" data-name="Trazado 641579" d="M200.848,396.3c-.563-3.421-4.106-4.655-7.176-4.134a7.84,7.84,0,0,0,2.4-2.681c1.054-2.692.537-6.757-2.121-8.358-2.262-1.361-5.3-.823-7.513.369a10.211,10.211,0,0,0-3.969,3.966,16.1,16.1,0,0,0-1.893,5.075c-1.943-2.1-3.962-3.872-7.145-2.508a5.982,5.982,0,0,0-3.352,3.879c-.552-2.145-1.353-4.133-3.9-3.417a8.387,8.387,0,0,0-4.638,3.955,27.222,27.222,0,0,0-.22-9.1c-.539-2.387-1.767-6.67-4.865-6.6s-5,3.756-5.553,6.324a14.509,14.509,0,0,0,1.14,9.438,4.086,4.086,0,0,0-4.362.343,3.1,3.1,0,0,0-1.151,2.691c-2.391-1.648-5.917-3.683-6.56.638-.635,4.27,3.351,8.9,7.228,9.9a.36.36,0,0,0,.455-.33,16.072,16.072,0,0,0,5.82.99q5.668.3,11.337.523l21.713.861a.627.627,0,0,0,.761.169,45.789,45.789,0,0,0,9.678-6.027c1.784-1.471,4.319-3.332,3.884-5.971" transform="translate(4.054 10.917)" fill="#0a1"/>
            <path id="Trazado_641580" data-name="Trazado 641580" d="M465.234,400.763c-.377-2.857-3.288-3.976-5.852-3.625a6.505,6.505,0,0,0,2.067-2.163c.946-2.208.625-5.6-1.541-7-1.842-1.192-4.383-.824-6.25.108a8.479,8.479,0,0,0-3.4,3.189,13.386,13.386,0,0,0-1.707,4.165c-1.559-1.791-3.188-3.32-5.869-2.272a4.968,4.968,0,0,0-2.887,3.133c-.4-1.8-1.015-3.47-3.15-2.943a6.967,6.967,0,0,0-3.956,3.164,22.674,22.674,0,0,0,.059-7.562c-.386-2-1.291-5.587-3.868-5.61s-4.249,2.987-4.781,5.106a12.059,12.059,0,0,0,.7,7.87,3.4,3.4,0,0,0-3.632.17,2.572,2.572,0,0,0-1.028,2.2c-1.943-1.432-4.818-3.216-5.466.356-.641,3.531,2.548,7.48,5.741,8.416a.3.3,0,0,0,.387-.262,13.379,13.379,0,0,0,4.808.976q4.7.4,9.4.734l18.014,1.291a.521.521,0,0,0,.628.162,38.058,38.058,0,0,0,8.2-4.75c1.522-1.175,3.676-2.654,3.385-4.858" transform="translate(12.014 11.109)" fill="#0a1"/>
            <path id="Trazado_641581" data-name="Trazado 641581" d="M100.228,403.706c-.594-2.046-2.846-2.538-4.681-2a4.817,4.817,0,0,0,1.269-1.811c.445-1.719-.168-4.162-1.907-4.943a4.828,4.828,0,0,0-4.556.776,6.278,6.278,0,0,0-2.13,2.71,9.887,9.887,0,0,0-.783,3.234c-1.339-1.135-2.7-2.071-4.543-1.005a3.675,3.675,0,0,0-1.761,2.612c-.494-1.268-1.129-2.422-2.63-1.8a5.158,5.158,0,0,0-2.538,2.754,16.74,16.74,0,0,0-.8-5.532c-.5-1.417-1.567-3.94-3.452-3.669s-2.772,2.658-2.924,4.265a8.91,8.91,0,0,0,1.388,5.674,2.512,2.512,0,0,0-2.636.529,1.905,1.905,0,0,0-.505,1.727c-1.579-.83-3.879-1.813-3.955.869-.074,2.652,2.7,5.182,5.136,5.509a.221.221,0,0,0,.253-.235,9.874,9.874,0,0,0,3.623.177q3.479-.232,6.954-.512l13.31-1.066a.388.388,0,0,0,.477.047,28.113,28.113,0,0,0,5.461-4.387c.982-1.029,2.39-2.349,1.932-3.928" transform="translate(1.828 11.436)" fill="#0a1"/>
            <path id="Trazado_641582" data-name="Trazado 641582" d="M506.265,412.318c0-7.574-102.421-13.715-228.763-13.715S48.737,404.744,48.737,412.318,151.158,426.033,277.5,426.033s228.763-6.141,228.763-13.715" transform="translate(1.412 11.551)" fill="#543f5c"/>
            <path id="Trazado_641583" data-name="Trazado 641583" d="M195.535,285.981c-25.772,0-50.549-5.109-69.764-14.384l2.237-4.632c18.532,8.945,42.513,13.872,67.527,13.872s48.995-4.927,67.526-13.872L265.3,271.6c-19.215,9.275-43.99,14.384-69.763,14.384" transform="translate(3.645 7.736)" fill="#2a2a47"/>
            <path id="Trazado_641584" data-name="Trazado 641584" d="M328.3,285.981c-25.773,0-50.549-5.109-69.764-14.384l2.237-4.632c18.532,8.945,42.512,13.872,67.527,13.872s48.994-4.927,67.527-13.872l2.237,4.632c-19.216,9.275-43.992,14.384-69.764,14.384" transform="translate(7.492 7.736)" fill="#2a2a47"/>
            <path id="Trazado_641585" data-name="Trazado 641585" d="M141.834,407.61H114.211a2.1,2.1,0,1,0,0,4.208h27.623a2.1,2.1,0,0,0,0-4.208" transform="translate(3.249 11.812)" fill="#1a1a2e"/>
            <path id="Trazado_641586" data-name="Trazado 641586" d="M136.973,403.522H118.806a2.1,2.1,0,0,0,0,4.207h18.167a2.1,2.1,0,0,0,0-4.207" transform="translate(3.382 11.693)" fill="#1a1a2e"/>
            <rect id="Rectángulo_379187" data-name="Rectángulo 379187" width="6.104" height="132.514" transform="translate(128.22 282.701)" fill="#8f8fd8"/>
            <g id="Grupo_1074769" data-name="Grupo 1074769" transform="translate(128.22 282.701)" opacity="0.2" style="mix-blend-mode: multiply;isolation: isolate">
              <g id="Grupo_1074768" data-name="Grupo 1074768">
                <g id="Grupo_1074767" data-name="Grupo 1074767" clip-path="url(#clip-path-16)">
                  <rect id="Rectángulo_379188" data-name="Rectángulo 379188" width="6.104" height="9.082" fill="#999"/>
                </g>
              </g>
            </g>
            <path id="Trazado_641587" data-name="Trazado 641587" d="M136.64,267.921a8.816,8.816,0,1,0-8.816,8.816,8.816,8.816,0,0,0,8.816-8.816" transform="translate(3.449 7.508)" fill="#2a2a47"/>
            <path id="Trazado_641588" data-name="Trazado 641588" d="M134.595,262.189a7.657,7.657,0,1,1-13.543,0,8.816,8.816,0,1,0,13.543,0" transform="translate(3.449 7.598)" fill="#1a1a2e"/>
            <path id="Trazado_641589" data-name="Trazado 641589" d="M273.888,407.61H246.265a2.1,2.1,0,1,0,0,4.208h27.623a2.1,2.1,0,0,0,0-4.208" transform="translate(7.075 11.812)" fill="#1a1a2e"/>
            <path id="Trazado_641590" data-name="Trazado 641590" d="M269.027,403.522H250.86a2.1,2.1,0,0,0,0,4.207h18.167a2.1,2.1,0,0,0,0-4.207" transform="translate(7.208 11.693)" fill="#1a1a2e"/>
            <rect id="Rectángulo_379190" data-name="Rectángulo 379190" width="6.104" height="132.514" transform="translate(264.099 282.701)" fill="#8f8fd8"/>
            <g id="Grupo_1074772" data-name="Grupo 1074772" transform="translate(264.099 282.701)" opacity="0.2" style="mix-blend-mode: multiply;isolation: isolate">
              <g id="Grupo_1074771" data-name="Grupo 1074771">
                <g id="Grupo_1074770" data-name="Grupo 1074770" clip-path="url(#clip-path-16)">
                  <rect id="Rectángulo_379191" data-name="Rectángulo 379191" width="6.104" height="9.082" fill="#999"/>
                </g>
              </g>
            </g>
            <path id="Trazado_641591" data-name="Trazado 641591" d="M268.694,267.921a8.816,8.816,0,1,0-8.816,8.816,8.816,8.816,0,0,0,8.816-8.816" transform="translate(7.275 7.508)" fill="#2a2a47"/>
            <path id="Trazado_641592" data-name="Trazado 641592" d="M266.649,262.189a7.657,7.657,0,1,1-13.543,0,8.816,8.816,0,1,0,13.543,0" transform="translate(7.275 7.598)" fill="#1a1a2e"/>
            <path id="Trazado_641593" data-name="Trazado 641593" d="M405.942,407.61H378.319a2.1,2.1,0,1,0,0,4.208h27.623a2.1,2.1,0,0,0,0-4.208" transform="translate(10.902 11.812)" fill="#1a1a2e"/>
            <path id="Trazado_641594" data-name="Trazado 641594" d="M401.081,403.522H382.914a2.1,2.1,0,0,0,0,4.207h18.167a2.1,2.1,0,0,0,0-4.207" transform="translate(11.035 11.693)" fill="#1a1a2e"/>
            <rect id="Rectángulo_379193" data-name="Rectángulo 379193" width="6.104" height="132.514" transform="translate(399.98 282.701)" fill="#8f8fd8"/>
            <g id="Grupo_1074775" data-name="Grupo 1074775" transform="translate(399.98 282.701)" opacity="0.2" style="mix-blend-mode: multiply;isolation: isolate">
              <g id="Grupo_1074774" data-name="Grupo 1074774">
                <g id="Grupo_1074773" data-name="Grupo 1074773" clip-path="url(#clip-path-16)">
                  <rect id="Rectángulo_379194" data-name="Rectángulo 379194" width="6.104" height="9.082" fill="#999"/>
                </g>
              </g>
            </g>
            <path id="Trazado_641595" data-name="Trazado 641595" d="M400.746,267.921a8.816,8.816,0,1,0-8.816,8.816,8.816,8.816,0,0,0,8.816-8.816" transform="translate(11.102 7.508)" fill="#2a2a47"/>
            <path id="Trazado_641596" data-name="Trazado 641596" d="M398.7,262.189a7.657,7.657,0,1,1-13.543,0,8.816,8.816,0,1,0,13.543,0" transform="translate(11.102 7.598)" fill="#1a1a2e"/>
            <path id="Trazado_641597" data-name="Trazado 641597" d="M114.217,157.755l5.956,1.6-5.956,1.6-1.6,5.957-1.6-5.957-5.956-1.6,5.956-1.6,1.6-5.956Z" transform="translate(3.044 4.399)" fill="#1a1a2e"/>
            <path id="Trazado_641598" data-name="Trazado 641598" d="M55.351,326.242l5.956,1.6-5.956,1.6-1.6,5.957-1.6-5.957-5.957-1.6,5.957-1.6,1.6-5.956Z" transform="translate(1.338 9.281)" fill="#1a1a2e"/>
            <path id="Trazado_641599" data-name="Trazado 641599" d="M378.032,227.332l5.956,1.6-5.956,1.6-1.6,5.957-1.6-5.957-5.956-1.6,5.956-1.6,1.6-5.956Z" transform="translate(10.689 6.415)" fill="#1a1a2e"/>
            <path id="Trazado_641600" data-name="Trazado 641600" d="M365.833,124.459l3.658.985-3.658.985-.985,3.658-.985-3.658-3.658-.985,3.658-.985.985-3.658Z" transform="translate(10.438 3.501)" fill="#1a1a2e"/>
            <path id="Trazado_641601" data-name="Trazado 641601" d="M305.057,243.583l3.658.985-3.658.985-.985,3.658-.985-3.658-3.658-.985,3.658-.985.985-3.658Z" transform="translate(8.677 6.952)" fill="#1a1a2e"/>
            <path id="Trazado_641602" data-name="Trazado 641602" d="M443.294,323.686l3.658.985-3.658.985-.985,3.658-.985-3.658-3.658-.985,3.658-.985.985-3.658Z" transform="translate(12.683 9.274)" fill="#1a1a2e"/>
            <path id="Trazado_641603" data-name="Trazado 641603" d="M192.144,46.591l3.658.985-3.658.985-.985,3.658-.985-3.658-3.658-.985,3.658-.985.985-3.658Z" transform="translate(5.405 1.244)" fill="#1a1a2e"/>
            <path id="Trazado_641604" data-name="Trazado 641604" d="M141.635,180.988l2.978.8-2.978.8-.8,2.978-.8-2.978-2.978-.8,2.978-.8.8-2.978Z" transform="translate(3.971 5.158)" fill="#fff"/>
            <path id="Trazado_641605" data-name="Trazado 641605" d="M131.449,260.339l2.978.8-2.978.8-.8,2.978-.8-2.978-2.978-.8,2.978-.8.8-2.978Z" transform="translate(3.676 7.458)" fill="#fff"/>
            <path id="Trazado_641606" data-name="Trazado 641606" d="M296.665,36.88l2.978.8-2.978.8-.8,2.978-.8-2.978-2.978-.8,2.978-.8.8-2.978Z" transform="translate(8.464 0.982)" fill="#fff"/>
            <path id="Trazado_641607" data-name="Trazado 641607" d="M203.327,55.735l2.978.8-2.978.8-.8,2.978-.8-2.978-2.979-.8,2.979-.8.8-2.978Z" transform="translate(5.759 1.529)" fill="#fff"/>
            <path id="Trazado_641608" data-name="Trazado 641608" d="M69.466,301.621l2.978.8-2.978.8-.8,2.978-.8-2.978-2.978-.8,2.978-.8.8-2.978Z" transform="translate(1.88 8.654)" fill="#fff"/>
            <path id="Trazado_641609" data-name="Trazado 641609" d="M388.552,262.637l2.978.8-2.978.8-.8,2.978-.8-2.978-2.978-.8,2.978-.8.8-2.978Z" transform="translate(11.127 7.524)" fill="#fff"/>
            <path id="Trazado_641610" data-name="Trazado 641610" d="M352.618,69.292l2.978.8-2.978.8-.8,2.978-.8-2.978-2.979-.8,2.979-.8.8-2.978Z" transform="translate(10.085 1.922)" fill="#fff"/>
            <path id="Trazado_641611" data-name="Trazado 641611" d="M203.327,165.8l2.978.8-2.978.8-.8,2.978-.8-2.978-2.979-.8,2.979-.8.8-2.978Z" transform="translate(5.759 4.718)" fill="#fff"/>
            <path id="Trazado_641612" data-name="Trazado 641612" d="M124.365,191.8l6.29,1.694-6.29,1.694-1.694,6.291-1.694-6.291-6.291-1.694,6.291-1.694,1.694-6.29Z" transform="translate(3.323 5.376)" fill="#fff"/>
            <path id="Trazado_641613" data-name="Trazado 641613" d="M280.737,41.224l6.29,1.694-6.29,1.694-1.694,6.29-1.694-6.29-6.291-1.694,6.291-1.694,1.694-6.29Z" transform="translate(7.855 1.012)" fill="#fff"/>
            <path id="Trazado_641614" data-name="Trazado 641614" d="M220.916,177.783l6.29,1.694-6.29,1.694-1.694,6.291-1.694-6.291-6.291-1.694,6.291-1.694,1.694-6.29Z" transform="translate(6.121 4.97)" fill="#fff"/>
            <path id="Trazado_641615" data-name="Trazado 641615" d="M321.271,260.72l6.29,1.694-6.29,1.694-1.694,6.291-1.694-6.291-6.29-1.694,6.29-1.694,1.694-6.29Z" transform="translate(9.029 7.373)" fill="#fff"/>
            <path id="Trazado_641616" data-name="Trazado 641616" d="M85.291,313.176l4.353,1.172-4.353,1.172-1.172,4.354-1.172-4.354-4.354-1.172,4.354-1.172,1.172-4.354Z" transform="translate(2.277 8.949)" fill="#fff"/>
            <path id="Trazado_641617" data-name="Trazado 641617" d="M416.279,350.343l2.978.8-2.978.8-.8,2.978-.8-2.978-2.978-.8,2.978-.8.8-2.978Z" transform="translate(11.93 10.066)" fill="#fff"/>
            <path id="Trazado_641618" data-name="Trazado 641618" d="M432.1,361.9l4.353,1.172-4.353,1.172-1.172,4.354-1.172-4.354-4.354-1.172,4.354-1.172,1.172-4.354Z" transform="translate(12.327 10.361)" fill="#fff"/>
            <path id="Trazado_641619" data-name="Trazado 641619" d="M388.971,213.646l4.353,1.172-4.353,1.172-1.172,4.354-1.172-4.354-4.354-1.172,4.354-1.172,1.172-4.354Z" transform="translate(11.077 6.065)" fill="#fff"/>
            <path id="Trazado_641620" data-name="Trazado 641620" d="M334.992,91.38l6.29,1.694-6.29,1.694-1.694,6.291L331.6,94.767l-6.291-1.694L331.6,91.38l1.694-6.29Z" transform="translate(9.427 2.466)" fill="#fff"/>
          </g>
        </g>
      </g>
    </g>
    <ellipse id="Elipse_5888" data-name="Elipse 5888" cx="5.157" cy="5.157" rx="5.157" ry="5.157" transform="translate(672.494 563.831)" fill="#665b3d"/>
    <rect id="Rectángulo_379062" data-name="Rectángulo 379062" width="244.324" height="2.813" transform="translate(677.182 567.581)" fill="#665b3d"/>
    <ellipse id="Elipse_5888-2" data-name="Elipse 5888" cx="5.157" cy="5.157" rx="5.157" ry="5.157" transform="translate(755 644.82)" fill="#665b3d"/>
    <rect id="Rectángulo_379062-2" data-name="Rectángulo 379062" width="160.324" height="2.813" transform="translate(759.688 648.57)" fill="#665b3d"/>
    <ellipse id="Elipse_5888-3" data-name="Elipse 5888" cx="5.157" cy="5.157" rx="5.157" ry="5.157" transform="translate(668 725.81)" fill="#665b3d"/>
    <rect id="Rectángulo_379062-3" data-name="Rectángulo 379062" width="252.324" height="2.813" transform="translate(672.688 729.56)" fill="#665b3d"/>
    <ellipse id="Elipse_5888-4" data-name="Elipse 5888" cx="5.157" cy="5.157" rx="5.157" ry="5.157" transform="translate(755 811.33)" fill="#665b3d"/>
    <rect id="Rectángulo_379062-4" data-name="Rectángulo 379062" width="160.324" height="2.813" transform="translate(759.688 815.08)" fill="#665b3d"/>
    <ellipse id="Elipse_5888-5" data-name="Elipse 5888" cx="5.157" cy="5.157" rx="5.157" ry="5.157" transform="translate(668 889.024)" fill="#665b3d"/>
    <path id="Trazado_641621" data-name="Trazado 641621" d="M0,0H242.313V2.813H0Z" transform="translate(672.688 892.774)" fill="#665b3d"/>
    <rect id="Rectángulo_347091" data-name="Rectángulo 347091" width="237.205" height="34.69" rx="9" transform="translate(916.896 551.017)" fill="#d29de5"/>
    <path id="Trazado_642852" data-name="Trazado 642852" d="M62.475,13.186H57.793L56.814,16H54.631L59.2,3.914h1.884L65.654,16H63.463Zm-4.092-1.693h3.5L60.134,6.479Zm13.8,3.627a3.128,3.128,0,0,1-2.523,1.046,2.788,2.788,0,0,1-2.212-.855,3.637,3.637,0,0,1-.751-2.474V7.019h2.017v5.794q0,1.71,1.419,1.71a1.993,1.993,0,0,0,1.984-1.054V7.019h2.017V16h-1.9ZM78.711,4.835V7.019H80.3V8.513H78.711v5.014a1.1,1.1,0,0,0,.2.743.943.943,0,0,0,.726.228,3.107,3.107,0,0,0,.706-.083v1.561a4.968,4.968,0,0,1-1.328.191q-2.324,0-2.324-2.565V8.513H75.217V7.019h1.478V4.835Zm2.5,6.591a5.3,5.3,0,0,1,.523-2.378A3.819,3.819,0,0,1,83.2,7.421a4.14,4.14,0,0,1,2.175-.569,3.923,3.923,0,0,1,2.951,1.17,4.6,4.6,0,0,1,1.224,3.1l.008.473a5.343,5.343,0,0,1-.51,2.374,3.773,3.773,0,0,1-1.461,1.619,4.17,4.17,0,0,1-2.2.573A3.9,3.9,0,0,1,82.351,14.9a4.848,4.848,0,0,1-1.141-3.374Zm2.017.174a3.619,3.619,0,0,0,.573,2.171,1.862,1.862,0,0,0,1.594.784,1.842,1.842,0,0,0,1.59-.8,4,4,0,0,0,.569-2.333,3.572,3.572,0,0,0-.585-2.158,1.973,1.973,0,0,0-3.158-.012A3.922,3.922,0,0,0,83.227,11.6Zm11.729,2.955a1.824,1.824,0,0,0,1.253-.44,1.5,1.5,0,0,0,.531-1.087h1.9a2.963,2.963,0,0,1-.523,1.565,3.43,3.43,0,0,1-1.328,1.15,3.958,3.958,0,0,1-1.81.423,3.829,3.829,0,0,1-2.988-1.22,4.84,4.84,0,0,1-1.1-3.37v-.208a4.759,4.759,0,0,1,1.1-3.283,3.8,3.8,0,0,1,2.988-1.233,3.69,3.69,0,0,1,2.611.934,3.345,3.345,0,0,1,1.058,2.453h-1.9a1.847,1.847,0,0,0-.527-1.27,1.7,1.7,0,0,0-1.258-.5,1.775,1.775,0,0,0-1.511.71,3.621,3.621,0,0,0-.54,2.154v.324a3.681,3.681,0,0,0,.527,2.179A1.773,1.773,0,0,0,94.956,14.556Zm4.831-3.129a5.3,5.3,0,0,1,.523-2.378,3.819,3.819,0,0,1,1.469-1.627,4.14,4.14,0,0,1,2.175-.569,3.923,3.923,0,0,1,2.951,1.17,4.6,4.6,0,0,1,1.224,3.1l.008.473a5.343,5.343,0,0,1-.51,2.374,3.773,3.773,0,0,1-1.461,1.619,4.17,4.17,0,0,1-2.2.573,3.9,3.9,0,0,1-3.042-1.266,4.848,4.848,0,0,1-1.141-3.374Zm2.017.174a3.619,3.619,0,0,0,.573,2.171,1.862,1.862,0,0,0,1.594.784,1.842,1.842,0,0,0,1.59-.8,4,4,0,0,0,.569-2.333,3.572,3.572,0,0,0-.585-2.158,1.973,1.973,0,0,0-3.158-.012A3.922,3.922,0,0,0,101.8,11.6Zm9.911-4.582.058,1.038a3.229,3.229,0,0,1,2.615-1.2q2.806,0,2.855,3.212V16h-2.017V10.181a1.85,1.85,0,0,0-.369-1.266,1.554,1.554,0,0,0-1.208-.411,1.944,1.944,0,0,0-1.818,1.1V16h-2.017V7.019Zm11.272,7.537a1.824,1.824,0,0,0,1.253-.44,1.5,1.5,0,0,0,.531-1.087h1.9a2.963,2.963,0,0,1-.523,1.565,3.43,3.43,0,0,1-1.328,1.15,3.958,3.958,0,0,1-1.81.423,3.829,3.829,0,0,1-2.988-1.22,4.84,4.84,0,0,1-1.1-3.37v-.208a4.759,4.759,0,0,1,1.1-3.283A3.8,3.8,0,0,1,123,6.853a3.69,3.69,0,0,1,2.611.934,3.345,3.345,0,0,1,1.058,2.453h-1.9a1.847,1.847,0,0,0-.527-1.27,1.7,1.7,0,0,0-1.258-.5,1.775,1.775,0,0,0-1.511.71,3.621,3.621,0,0,0-.54,2.154v.324a3.681,3.681,0,0,0,.527,2.179A1.773,1.773,0,0,0,122.988,14.556ZM130.342,16h-2.017V7.019h2.017ZM128.2,4.686a1.07,1.07,0,0,1,.295-.772,1.113,1.113,0,0,1,.843-.307,1.127,1.127,0,0,1,.847.307,1.062,1.062,0,0,1,.3.772,1.038,1.038,0,0,1-.3.76,1.136,1.136,0,0,1-.847.3,1.122,1.122,0,0,1-.843-.3A1.046,1.046,0,0,1,128.2,4.686Zm8.292,11.48a4.173,4.173,0,0,1-3.109-1.208,4.381,4.381,0,0,1-1.191-3.217v-.249a5.389,5.389,0,0,1,.519-2.4,3.949,3.949,0,0,1,1.457-1.648,3.851,3.851,0,0,1,2.092-.589,3.525,3.525,0,0,1,2.835,1.17,4.949,4.949,0,0,1,1,3.312v.813h-5.869a2.7,2.7,0,0,0,.743,1.76,2.23,2.23,0,0,0,1.639.647,2.731,2.731,0,0,0,2.258-1.121l1.087,1.038a3.631,3.631,0,0,1-1.44,1.249A4.509,4.509,0,0,1,136.493,16.166Zm-.241-7.695a1.7,1.7,0,0,0-1.341.581,3.012,3.012,0,0,0-.652,1.619H138.1v-.149a2.452,2.452,0,0,0-.54-1.531A1.686,1.686,0,0,0,136.252,8.471Zm7.28-1.453.058,1.038a3.229,3.229,0,0,1,2.615-1.2q2.806,0,2.855,3.212V16h-2.017V10.181a1.85,1.85,0,0,0-.369-1.266,1.554,1.554,0,0,0-1.208-.411,1.944,1.944,0,0,0-1.818,1.1V16h-2.017V7.019ZM154.8,14.556a1.824,1.824,0,0,0,1.253-.44,1.5,1.5,0,0,0,.531-1.087h1.9a2.963,2.963,0,0,1-.523,1.565,3.43,3.43,0,0,1-1.328,1.15,3.958,3.958,0,0,1-1.81.423,3.829,3.829,0,0,1-2.988-1.22,4.84,4.84,0,0,1-1.1-3.37v-.208a4.759,4.759,0,0,1,1.1-3.283,3.8,3.8,0,0,1,2.988-1.233,3.69,3.69,0,0,1,2.611.934,3.345,3.345,0,0,1,1.058,2.453h-1.9a1.847,1.847,0,0,0-.527-1.27,1.7,1.7,0,0,0-1.258-.5,1.775,1.775,0,0,0-1.511.71,3.621,3.621,0,0,0-.54,2.154v.324a3.682,3.682,0,0,0,.527,2.179A1.773,1.773,0,0,0,154.8,14.556ZM162.159,16h-2.017V7.019h2.017ZM160.018,4.686a1.07,1.07,0,0,1,.295-.772,1.113,1.113,0,0,1,.843-.307,1.127,1.127,0,0,1,.847.307,1.062,1.062,0,0,1,.3.772,1.038,1.038,0,0,1-.3.76,1.136,1.136,0,0,1-.847.3,1.122,1.122,0,0,1-.843-.3A1.046,1.046,0,0,1,160.018,4.686ZM169.721,16a3.113,3.113,0,0,1-.232-.838,3.393,3.393,0,0,1-4.565.232,2.47,2.47,0,0,1-.855-1.909,2.55,2.55,0,0,1,1.067-2.2,5.169,5.169,0,0,1,3.051-.768h1.237V9.924a1.573,1.573,0,0,0-.39-1.116,1.547,1.547,0,0,0-1.187-.419,1.777,1.777,0,0,0-1.129.344,1.066,1.066,0,0,0-.44.876h-2.017a2.239,2.239,0,0,1,.49-1.382,3.263,3.263,0,0,1,1.332-1.009,4.68,4.68,0,0,1,1.88-.365,3.769,3.769,0,0,1,2.515.793,2.827,2.827,0,0,1,.963,2.229v4.051a4.591,4.591,0,0,0,.34,1.934V16ZM167.5,14.547a2.294,2.294,0,0,0,1.125-.291,1.941,1.941,0,0,0,.793-.78V11.783h-1.087a2.973,2.973,0,0,0-1.685.39,1.264,1.264,0,0,0-.564,1.1,1.179,1.179,0,0,0,.386.926A1.5,1.5,0,0,0,167.5,14.547Z" transform="translate(927.102 558.361)" fill="#12263f"/>
    <rect id="Rectángulo_347091-2" data-name="Rectángulo 347091" width="237.205" height="34.69" rx="9" transform="translate(916.896 632.007)" fill="#d29de5"/>
    <path id="Trazado_642853" data-name="Trazado 642853" d="M60.661,13.186H55.98L55,16H52.817L57.383,3.914h1.884L63.841,16H61.649Zm-4.092-1.693h3.5L58.321,6.479Zm13.8,3.627a3.128,3.128,0,0,1-2.523,1.046,2.788,2.788,0,0,1-2.212-.855,3.637,3.637,0,0,1-.751-2.474V7.019H66.9v5.794q0,1.71,1.419,1.71A1.993,1.993,0,0,0,70.3,13.468V7.019h2.017V16h-1.9ZM76.9,4.835V7.019h1.585V8.513H76.9v5.014a1.1,1.1,0,0,0,.2.743.943.943,0,0,0,.726.228,3.107,3.107,0,0,0,.706-.083v1.561a4.968,4.968,0,0,1-1.328.191q-2.324,0-2.324-2.565V8.513H73.4V7.019h1.478V4.835Zm2.5,6.591a5.3,5.3,0,0,1,.523-2.378,3.819,3.819,0,0,1,1.469-1.627,4.14,4.14,0,0,1,2.175-.569,3.923,3.923,0,0,1,2.951,1.17,4.6,4.6,0,0,1,1.224,3.1l.008.473a5.343,5.343,0,0,1-.51,2.374,3.773,3.773,0,0,1-1.461,1.619,4.17,4.17,0,0,1-2.2.573A3.9,3.9,0,0,1,80.538,14.9,4.848,4.848,0,0,1,79.4,11.526Zm2.017.174a3.619,3.619,0,0,0,.573,2.171,1.862,1.862,0,0,0,1.594.784,1.842,1.842,0,0,0,1.59-.8,4,4,0,0,0,.569-2.333,3.572,3.572,0,0,0-.585-2.158,1.973,1.973,0,0,0-3.158-.012A3.922,3.922,0,0,0,81.413,11.6ZM94.155,8.861a4.991,4.991,0,0,0-.822-.066,1.85,1.85,0,0,0-1.868,1.063V16H89.448V7.019h1.926l.05,1a2.273,2.273,0,0,1,2.025-1.17,1.888,1.888,0,0,1,.714.116Zm5.977,0a4.991,4.991,0,0,0-.822-.066,1.85,1.85,0,0,0-1.868,1.063V16H95.425V7.019h1.926l.05,1a2.273,2.273,0,0,1,2.025-1.17,1.888,1.888,0,0,1,.714.116Zm5.072,7.3a4.173,4.173,0,0,1-3.109-1.208,4.381,4.381,0,0,1-1.191-3.217v-.249a5.389,5.389,0,0,1,.519-2.4,3.949,3.949,0,0,1,1.457-1.648,3.851,3.851,0,0,1,2.092-.589,3.525,3.525,0,0,1,2.835,1.17,4.949,4.949,0,0,1,1,3.312v.813h-5.869a2.7,2.7,0,0,0,.743,1.76,2.23,2.23,0,0,0,1.639.647,2.731,2.731,0,0,0,2.258-1.121l1.087,1.038a3.631,3.631,0,0,1-1.44,1.249A4.509,4.509,0,0,1,105.2,16.166Zm-.241-7.695a1.7,1.7,0,0,0-1.341.581,3.012,3.012,0,0,0-.652,1.619h3.843v-.149a2.452,2.452,0,0,0-.54-1.531A1.686,1.686,0,0,0,104.963,8.471Zm5.055,2.972A5.253,5.253,0,0,1,111,8.1a3.157,3.157,0,0,1,2.611-1.249,2.958,2.958,0,0,1,2.416,1.071l.091-.9h1.818v8.708a3.619,3.619,0,0,1-1.1,2.789,4.189,4.189,0,0,1-2.968,1.021,4.783,4.783,0,0,1-1.93-.411,3.429,3.429,0,0,1-1.432-1.075l.955-1.212a2.883,2.883,0,0,0,2.291,1.1,2.228,2.228,0,0,0,1.585-.544,2.084,2.084,0,0,0,.581-1.6v-.606a2.97,2.97,0,0,1-2.324.971,3.15,3.15,0,0,1-2.577-1.253A5.423,5.423,0,0,1,110.018,11.443Zm2.009.174a3.616,3.616,0,0,0,.552,2.129,1.775,1.775,0,0,0,1.531.776,1.941,1.941,0,0,0,1.81-1.046V9.525A1.913,1.913,0,0,0,114.127,8.5a1.782,1.782,0,0,0-1.548.789A4.049,4.049,0,0,0,112.027,11.617Zm13.422,3.5a3.128,3.128,0,0,1-2.523,1.046,2.788,2.788,0,0,1-2.212-.855,3.637,3.637,0,0,1-.751-2.474V7.019h2.017v5.794q0,1.71,1.419,1.71a1.993,1.993,0,0,0,1.984-1.054V7.019H127.4V16h-1.9ZM131.6,16h-2.017V3.25H131.6Zm7.562,0a3.113,3.113,0,0,1-.232-.838,3.393,3.393,0,0,1-4.565.232,2.47,2.47,0,0,1-.855-1.909,2.55,2.55,0,0,1,1.067-2.2,5.169,5.169,0,0,1,3.051-.768h1.237V9.924a1.573,1.573,0,0,0-.39-1.116,1.547,1.547,0,0,0-1.187-.419,1.777,1.777,0,0,0-1.129.344,1.066,1.066,0,0,0-.44.876H133.7a2.239,2.239,0,0,1,.49-1.382,3.263,3.263,0,0,1,1.332-1.009,4.68,4.68,0,0,1,1.88-.365,3.769,3.769,0,0,1,2.515.793,2.827,2.827,0,0,1,.963,2.229v4.051a4.591,4.591,0,0,0,.34,1.934V16Zm-2.216-1.453a2.294,2.294,0,0,0,1.125-.291,1.941,1.941,0,0,0,.793-.78V11.783h-1.087a2.973,2.973,0,0,0-1.685.39,1.264,1.264,0,0,0-.564,1.1,1.179,1.179,0,0,0,.386.926A1.5,1.5,0,0,0,136.946,14.547Zm9.737.008a1.824,1.824,0,0,0,1.253-.44,1.5,1.5,0,0,0,.531-1.087h1.9a2.963,2.963,0,0,1-.523,1.565,3.43,3.43,0,0,1-1.328,1.15,3.958,3.958,0,0,1-1.81.423,3.829,3.829,0,0,1-2.988-1.22,4.84,4.84,0,0,1-1.1-3.37v-.208a4.759,4.759,0,0,1,1.1-3.283A3.8,3.8,0,0,1,146.7,6.853a3.69,3.69,0,0,1,2.611.934,3.345,3.345,0,0,1,1.058,2.453h-1.9a1.847,1.847,0,0,0-.527-1.27,1.7,1.7,0,0,0-1.258-.5,1.775,1.775,0,0,0-1.511.71,3.621,3.621,0,0,0-.54,2.154v.324a3.682,3.682,0,0,0,.527,2.179A1.773,1.773,0,0,0,146.682,14.556ZM154.037,16H152.02V7.019h2.017ZM151.9,4.686a1.07,1.07,0,0,1,.295-.772,1.113,1.113,0,0,1,.843-.307,1.127,1.127,0,0,1,.847.307,1.062,1.062,0,0,1,.3.772,1.038,1.038,0,0,1-.3.76,1.136,1.136,0,0,1-.847.3,1.122,1.122,0,0,1-.843-.3A1.046,1.046,0,0,1,151.9,4.686Zm3.959,6.74a5.3,5.3,0,0,1,.523-2.378,3.819,3.819,0,0,1,1.469-1.627,4.14,4.14,0,0,1,2.175-.569,3.923,3.923,0,0,1,2.951,1.17,4.6,4.6,0,0,1,1.224,3.1l.008.473a5.343,5.343,0,0,1-.51,2.374,3.773,3.773,0,0,1-1.461,1.619,4.17,4.17,0,0,1-2.2.573A3.9,3.9,0,0,1,157,14.9a4.848,4.848,0,0,1-1.141-3.374Zm2.017.174a3.619,3.619,0,0,0,.573,2.171,1.862,1.862,0,0,0,1.594.784,1.842,1.842,0,0,0,1.59-.8,4,4,0,0,0,.569-2.333,3.572,3.572,0,0,0-.585-2.158,1.973,1.973,0,0,0-3.158-.012A3.922,3.922,0,0,0,157.872,11.6Zm2.706-8.351h2.3l-2.3,2.515-1.619,0Zm7.205,3.769.058,1.038a3.229,3.229,0,0,1,2.615-1.2q2.806,0,2.855,3.212V16h-2.017V10.181a1.85,1.85,0,0,0-.369-1.266,1.554,1.554,0,0,0-1.208-.411,1.944,1.944,0,0,0-1.818,1.1V16h-2.017V7.019Z" transform="translate(927.102 639.352)" fill="#12263f"/>
    <rect id="Rectángulo_347091-3" data-name="Rectángulo 347091" width="237.205" height="34.69" rx="9" transform="translate(916.896 712.996)" fill="#d29de5"/>
    <path id="Trazado_642854" data-name="Trazado 642854" d="M83.7,11.352H81.359V16h-2.1V3.914h4.25a4.944,4.944,0,0,1,3.229.939A3.321,3.321,0,0,1,87.875,7.57,3.4,3.4,0,0,1,87.29,9.6a3.724,3.724,0,0,1-1.631,1.259l2.714,5.033V16h-2.25ZM81.359,9.658h2.158a2.4,2.4,0,0,0,1.66-.535,1.867,1.867,0,0,0,.6-1.465,1.988,1.988,0,0,0-.552-1.5,2.345,2.345,0,0,0-1.648-.548H81.359Zm12.269,6.508a4.173,4.173,0,0,1-3.109-1.208,4.381,4.381,0,0,1-1.191-3.217v-.249a5.389,5.389,0,0,1,.519-2.4A3.949,3.949,0,0,1,91.3,7.442,3.851,3.851,0,0,1,93.4,6.853a3.525,3.525,0,0,1,2.835,1.17,4.949,4.949,0,0,1,1,3.312v.813H91.362a2.7,2.7,0,0,0,.743,1.76,2.23,2.23,0,0,0,1.639.647A2.731,2.731,0,0,0,96,13.435l1.087,1.038a3.631,3.631,0,0,1-1.44,1.249A4.509,4.509,0,0,1,93.628,16.166Zm-.241-7.695a1.7,1.7,0,0,0-1.341.581,3.012,3.012,0,0,0-.652,1.619h3.843v-.149A2.452,2.452,0,0,0,94.7,8.99,1.686,1.686,0,0,0,93.387,8.471ZM104.61,4.852a10.962,10.962,0,0,0-1.461-.116q-1.627,0-1.627,1.527v.755h1.826V8.513h-1.826V16H99.5V8.513h-1.37V7.019H99.5V6.213a3.007,3.007,0,0,1,.9-2.328,3.618,3.618,0,0,1,2.519-.809,30.331,30.331,0,0,1,3.7.4V16H104.61Zm8.2,11.314a4.173,4.173,0,0,1-3.109-1.208,4.381,4.381,0,0,1-1.191-3.217v-.249a5.389,5.389,0,0,1,.519-2.4,3.949,3.949,0,0,1,1.457-1.648,3.851,3.851,0,0,1,2.092-.589,3.525,3.525,0,0,1,2.835,1.17,4.949,4.949,0,0,1,1,3.312v.813h-5.869a2.7,2.7,0,0,0,.743,1.76,2.23,2.23,0,0,0,1.639.647,2.731,2.731,0,0,0,2.258-1.121l1.087,1.038a3.631,3.631,0,0,1-1.44,1.249A4.509,4.509,0,0,1,112.811,16.166Zm-.241-7.695a1.7,1.7,0,0,0-1.341.581,3.012,3.012,0,0,0-.652,1.619h3.843v-.149a2.452,2.452,0,0,0-.54-1.531A1.686,1.686,0,0,0,112.57,8.471Zm8.633,1.5,1.71-2.955h2.241l-2.748,4.424L125.246,16h-2.225l-1.793-3.071L119.443,16H117.2l2.839-4.557L117.3,7.019h2.225ZM128.674,16h-2.017V7.019h2.017ZM126.532,4.686a1.071,1.071,0,0,1,.295-.772,1.113,1.113,0,0,1,.843-.307,1.127,1.127,0,0,1,.847.307,1.062,1.062,0,0,1,.3.772,1.038,1.038,0,0,1-.3.76,1.136,1.136,0,0,1-.847.3,1.122,1.122,0,0,1-.843-.3A1.046,1.046,0,0,1,126.532,4.686Zm3.959,6.74a5.3,5.3,0,0,1,.523-2.378,3.819,3.819,0,0,1,1.469-1.627,4.14,4.14,0,0,1,2.175-.569,3.923,3.923,0,0,1,2.951,1.17,4.6,4.6,0,0,1,1.224,3.1l.008.473a5.343,5.343,0,0,1-.51,2.374,3.773,3.773,0,0,1-1.461,1.619,4.17,4.17,0,0,1-2.2.573,3.9,3.9,0,0,1-3.042-1.266,4.848,4.848,0,0,1-1.141-3.374Zm2.017.174a3.619,3.619,0,0,0,.573,2.171,1.862,1.862,0,0,0,1.594.784,1.842,1.842,0,0,0,1.59-.8,4,4,0,0,0,.569-2.333,3.572,3.572,0,0,0-.585-2.158,1.973,1.973,0,0,0-3.158-.012A3.922,3.922,0,0,0,132.509,11.6Zm2.706-8.351h2.3l-2.3,2.515-1.619,0Zm7.205,3.769.058,1.038a3.229,3.229,0,0,1,2.615-1.2q2.806,0,2.855,3.212V16h-2.017V10.181a1.85,1.85,0,0,0-.369-1.266,1.554,1.554,0,0,0-1.208-.411,1.944,1.944,0,0,0-1.818,1.1V16h-2.017V7.019Z" transform="translate(927.102 720.341)" fill="#12263f"/>
    <rect id="Rectángulo_347091-4" data-name="Rectángulo 347091" width="237.205" height="34.69" rx="9" transform="translate(916.896 793.985)" fill="#d29de5"/>
    <path id="Trazado_642855" data-name="Trazado 642855" d="M46.529,3.914l3.486,9.264,3.478-9.264h2.714V16H54.116V12.016l.208-5.329L50.754,16h-1.5L45.691,6.695l.208,5.321V16H43.807V3.914Zm11.588,7.512a5.3,5.3,0,0,1,.523-2.378,3.819,3.819,0,0,1,1.469-1.627,4.14,4.14,0,0,1,2.175-.569,3.923,3.923,0,0,1,2.951,1.17,4.6,4.6,0,0,1,1.224,3.1l.008.473a5.343,5.343,0,0,1-.51,2.374A3.773,3.773,0,0,1,64.5,15.593a4.17,4.17,0,0,1-2.2.573A3.9,3.9,0,0,1,59.259,14.9a4.848,4.848,0,0,1-1.141-3.374Zm2.017.174a3.619,3.619,0,0,0,.573,2.171,1.862,1.862,0,0,0,1.594.784,1.842,1.842,0,0,0,1.59-.8,4,4,0,0,0,.569-2.333,3.572,3.572,0,0,0-.585-2.158,1.973,1.973,0,0,0-3.158-.012A3.922,3.922,0,0,0,60.134,11.6ZM70.7,4.835V7.019h1.585V8.513H70.7v5.014a1.1,1.1,0,0,0,.2.743.943.943,0,0,0,.726.228,3.107,3.107,0,0,0,.706-.083v1.561a4.968,4.968,0,0,1-1.328.191q-2.324,0-2.324-2.565V8.513H67.207V7.019h1.478V4.835ZM75.972,16H73.955V7.019h2.017ZM73.831,4.686a1.071,1.071,0,0,1,.295-.772,1.113,1.113,0,0,1,.843-.307,1.127,1.127,0,0,1,.847.307,1.062,1.062,0,0,1,.3.772,1.038,1.038,0,0,1-.3.76,1.136,1.136,0,0,1-.847.3,1.122,1.122,0,0,1-.843-.3A1.046,1.046,0,0,1,73.831,4.686Zm7.5,8.757,1.9-6.425h2.083L82.206,16H80.455L77.317,7.019h2.092ZM91.818,16a3.113,3.113,0,0,1-.232-.838,3.393,3.393,0,0,1-4.565.232,2.47,2.47,0,0,1-.855-1.909,2.55,2.55,0,0,1,1.067-2.2,5.169,5.169,0,0,1,3.051-.768H91.52V9.924a1.573,1.573,0,0,0-.39-1.116,1.547,1.547,0,0,0-1.187-.419,1.777,1.777,0,0,0-1.129.344,1.066,1.066,0,0,0-.44.876H86.356a2.239,2.239,0,0,1,.49-1.382,3.263,3.263,0,0,1,1.332-1.009,4.68,4.68,0,0,1,1.88-.365,3.769,3.769,0,0,1,2.515.793,2.827,2.827,0,0,1,.963,2.229v4.051a4.591,4.591,0,0,0,.34,1.934V16ZM89.6,14.547a2.294,2.294,0,0,0,1.125-.291,1.941,1.941,0,0,0,.793-.78V11.783H90.432a2.973,2.973,0,0,0-1.685.39,1.264,1.264,0,0,0-.564,1.1,1.179,1.179,0,0,0,.386.926A1.5,1.5,0,0,0,89.6,14.547Zm9.737.008a1.824,1.824,0,0,0,1.253-.44,1.5,1.5,0,0,0,.531-1.087h1.9a2.963,2.963,0,0,1-.523,1.565,3.43,3.43,0,0,1-1.328,1.15,3.958,3.958,0,0,1-1.81.423,3.829,3.829,0,0,1-2.988-1.22,4.84,4.84,0,0,1-1.1-3.37v-.208a4.759,4.759,0,0,1,1.1-3.283,3.8,3.8,0,0,1,2.988-1.233,3.69,3.69,0,0,1,2.611.934,3.345,3.345,0,0,1,1.058,2.453h-1.9a1.847,1.847,0,0,0-.527-1.27,1.7,1.7,0,0,0-1.258-.5,1.775,1.775,0,0,0-1.511.71,3.621,3.621,0,0,0-.54,2.154v.324a3.681,3.681,0,0,0,.527,2.179A1.773,1.773,0,0,0,99.339,14.556ZM106.693,16h-2.017V7.019h2.017ZM104.552,4.686a1.071,1.071,0,0,1,.295-.772,1.113,1.113,0,0,1,.843-.307,1.127,1.127,0,0,1,.847.307,1.062,1.062,0,0,1,.3.772,1.038,1.038,0,0,1-.3.76,1.136,1.136,0,0,1-.847.3,1.122,1.122,0,0,1-.843-.3A1.046,1.046,0,0,1,104.552,4.686Zm3.959,6.74a5.3,5.3,0,0,1,.523-2.378A3.819,3.819,0,0,1,110.5,7.421a4.14,4.14,0,0,1,2.175-.569,3.923,3.923,0,0,1,2.951,1.17,4.6,4.6,0,0,1,1.224,3.1l.008.473a5.343,5.343,0,0,1-.51,2.374,3.773,3.773,0,0,1-1.461,1.619,4.17,4.17,0,0,1-2.2.573,3.9,3.9,0,0,1-3.042-1.266,4.848,4.848,0,0,1-1.141-3.374Zm2.017.174a3.619,3.619,0,0,0,.573,2.171,1.862,1.862,0,0,0,1.594.784,1.842,1.842,0,0,0,1.59-.8,4,4,0,0,0,.569-2.333,3.572,3.572,0,0,0-.585-2.158,1.973,1.973,0,0,0-3.158-.012A3.922,3.922,0,0,0,110.528,11.6Zm2.706-8.351h2.3l-2.3,2.515-1.619,0Zm7.205,3.769.058,1.038a3.229,3.229,0,0,1,2.615-1.2q2.806,0,2.855,3.212V16h-2.017V10.181a1.85,1.85,0,0,0-.369-1.266,1.554,1.554,0,0,0-1.208-.411,1.944,1.944,0,0,0-1.818,1.1V16h-2.017V7.019ZM134.4,16h-2.017V7.019H134.4ZM132.26,4.686a1.07,1.07,0,0,1,.295-.772,1.113,1.113,0,0,1,.843-.307,1.127,1.127,0,0,1,.847.307,1.062,1.062,0,0,1,.3.772,1.038,1.038,0,0,1-.3.76,1.136,1.136,0,0,1-.847.3,1.122,1.122,0,0,1-.843-.3A1.046,1.046,0,0,1,132.26,4.686Zm6.209,2.333.058,1.038a3.229,3.229,0,0,1,2.615-1.2q2.806,0,2.855,3.212V16H141.98V10.181a1.85,1.85,0,0,0-.369-1.266A1.554,1.554,0,0,0,140.4,8.5a1.944,1.944,0,0,0-1.818,1.1V16h-2.017V7.019Zm10.11-2.183V7.019h1.585V8.513h-1.585v5.014a1.1,1.1,0,0,0,.2.743.943.943,0,0,0,.726.228,3.107,3.107,0,0,0,.706-.083v1.561a4.968,4.968,0,0,1-1.328.191q-2.324,0-2.324-2.565V8.513h-1.478V7.019h1.478V4.835Zm7.081,11.331a4.173,4.173,0,0,1-3.109-1.208,4.381,4.381,0,0,1-1.191-3.217v-.249a5.389,5.389,0,0,1,.519-2.4,3.949,3.949,0,0,1,1.457-1.648,3.851,3.851,0,0,1,2.092-.589,3.525,3.525,0,0,1,2.835,1.17,4.949,4.949,0,0,1,1,3.312v.813h-5.869a2.7,2.7,0,0,0,.743,1.76,2.23,2.23,0,0,0,1.639.647,2.731,2.731,0,0,0,2.258-1.121l1.087,1.038a3.631,3.631,0,0,1-1.44,1.249A4.509,4.509,0,0,1,155.66,16.166Zm-.241-7.695a1.7,1.7,0,0,0-1.341.581,3.012,3.012,0,0,0-.652,1.619h3.843v-.149a2.452,2.452,0,0,0-.54-1.531A1.686,1.686,0,0,0,155.419,8.471Zm10.11.39a4.991,4.991,0,0,0-.822-.066,1.85,1.85,0,0,0-1.868,1.063V16h-2.017V7.019h1.926l.05,1a2.273,2.273,0,0,1,2.025-1.17,1.888,1.888,0,0,1,.714.116Zm3.146-1.843.058,1.038a3.229,3.229,0,0,1,2.615-1.2q2.806,0,2.855,3.212V16h-2.017V10.181a1.85,1.85,0,0,0-.369-1.266,1.554,1.554,0,0,0-1.208-.411,1.944,1.944,0,0,0-1.818,1.1V16h-2.017V7.019ZM181.625,16a3.113,3.113,0,0,1-.232-.838,3.393,3.393,0,0,1-4.565.232,2.47,2.47,0,0,1-.855-1.909,2.55,2.55,0,0,1,1.067-2.2,5.169,5.169,0,0,1,3.051-.768h1.237V9.924a1.573,1.573,0,0,0-.39-1.116,1.547,1.547,0,0,0-1.187-.419,1.777,1.777,0,0,0-1.129.344,1.066,1.066,0,0,0-.44.876h-2.017a2.239,2.239,0,0,1,.49-1.382,3.263,3.263,0,0,1,1.332-1.009,4.68,4.68,0,0,1,1.88-.365,3.769,3.769,0,0,1,2.515.793,2.827,2.827,0,0,1,.963,2.229v4.051a4.591,4.591,0,0,0,.34,1.934V16Zm-2.216-1.453a2.294,2.294,0,0,0,1.125-.291,1.941,1.941,0,0,0,.793-.78V11.783h-1.087a2.973,2.973,0,0,0-1.685.39,1.264,1.264,0,0,0-.564,1.1,1.179,1.179,0,0,0,.386.926A1.5,1.5,0,0,0,179.408,14.547Z" transform="translate(927.102 801.33)" fill="#12263f"/>
    <rect id="Rectángulo_347091-5" data-name="Rectángulo 347091" width="237.205" height="34.69" rx="9" transform="translate(916.896 876.21)" fill="#d29de5"/>
    <path id="Trazado_642856" data-name="Trazado 642856" d="M37.955,13.186H33.273L32.293,16H30.11L34.676,3.914H36.56L41.134,16H38.942Zm-4.092-1.693h3.5L35.614,6.479Zm13.8,3.627a3.128,3.128,0,0,1-2.523,1.046,2.788,2.788,0,0,1-2.212-.855,3.637,3.637,0,0,1-.751-2.474V7.019h2.017v5.794q0,1.71,1.419,1.71a1.993,1.993,0,0,0,1.984-1.054V7.019h2.017V16h-1.9ZM54.191,4.835V7.019h1.585V8.513H54.191v5.014a1.1,1.1,0,0,0,.2.743.943.943,0,0,0,.726.228,3.107,3.107,0,0,0,.706-.083v1.561a4.968,4.968,0,0,1-1.328.191q-2.324,0-2.324-2.565V8.513H50.7V7.019h1.478V4.835Zm2.5,6.591a5.3,5.3,0,0,1,.523-2.378,3.819,3.819,0,0,1,1.469-1.627,4.14,4.14,0,0,1,2.175-.569,3.923,3.923,0,0,1,2.951,1.17,4.6,4.6,0,0,1,1.224,3.1l.008.473a5.343,5.343,0,0,1-.51,2.374,3.773,3.773,0,0,1-1.461,1.619,4.17,4.17,0,0,1-2.2.573A3.9,3.9,0,0,1,57.831,14.9a4.848,4.848,0,0,1-1.141-3.374Zm2.017.174a3.619,3.619,0,0,0,.573,2.171,1.862,1.862,0,0,0,1.594.784,1.842,1.842,0,0,0,1.59-.8,4,4,0,0,0,.569-2.333,3.572,3.572,0,0,0-.585-2.158,1.973,1.973,0,0,0-3.158-.012A3.922,3.922,0,0,0,58.707,11.6Zm9.911-4.582.058,1.038a3.229,3.229,0,0,1,2.615-1.2q2.806,0,2.855,3.212V16H72.129V10.181a1.85,1.85,0,0,0-.369-1.266A1.554,1.554,0,0,0,70.552,8.5a1.944,1.944,0,0,0-1.818,1.1V16H66.717V7.019Zm7.205,4.408a5.3,5.3,0,0,1,.523-2.378,3.819,3.819,0,0,1,1.469-1.627,4.14,4.14,0,0,1,2.175-.569,3.923,3.923,0,0,1,2.951,1.17,4.6,4.6,0,0,1,1.224,3.1l.008.473a5.343,5.343,0,0,1-.51,2.374A3.773,3.773,0,0,1,82.2,15.593a4.17,4.17,0,0,1-2.2.573A3.9,3.9,0,0,1,76.964,14.9a4.848,4.848,0,0,1-1.141-3.374Zm2.017.174a3.619,3.619,0,0,0,.573,2.171,1.862,1.862,0,0,0,1.594.784,1.842,1.842,0,0,0,1.59-.8,4,4,0,0,0,.569-2.333,3.572,3.572,0,0,0-.585-2.158,1.973,1.973,0,0,0-3.158-.012A3.922,3.922,0,0,0,77.84,11.6Zm9.936-4.582.058.938a3.232,3.232,0,0,1,2.59-1.1A2.483,2.483,0,0,1,92.889,8.23a3.186,3.186,0,0,1,2.756-1.378,2.8,2.8,0,0,1,2.212.822A3.618,3.618,0,0,1,98.6,10.1V16H96.583V10.156A1.786,1.786,0,0,0,96.209,8.9a1.635,1.635,0,0,0-1.237-.4,1.679,1.679,0,0,0-1.125.369,1.948,1.948,0,0,0-.61.967L93.246,16H91.229V10.09A1.439,1.439,0,0,0,89.61,8.5a1.776,1.776,0,0,0-1.718.988V16H85.875V7.019ZM102.842,16h-2.017V7.019h2.017ZM102.46,3.308h2.3l-2.3,2.515-1.619,0ZM110.5,16a3.113,3.113,0,0,1-.232-.838,3.393,3.393,0,0,1-4.565.232,2.47,2.47,0,0,1-.855-1.909,2.55,2.55,0,0,1,1.067-2.2,5.169,5.169,0,0,1,3.051-.768H110.2V9.924a1.573,1.573,0,0,0-.39-1.116,1.547,1.547,0,0,0-1.187-.419,1.777,1.777,0,0,0-1.129.344,1.066,1.066,0,0,0-.44.876h-2.017a2.239,2.239,0,0,1,.49-1.382,3.263,3.263,0,0,1,1.332-1.009,4.68,4.68,0,0,1,1.88-.365,3.769,3.769,0,0,1,2.515.793,2.827,2.827,0,0,1,.963,2.229v4.051a4.591,4.591,0,0,0,.34,1.934V16Zm-2.216-1.453a2.294,2.294,0,0,0,1.125-.291,1.941,1.941,0,0,0,.793-.78V11.783h-1.087a2.973,2.973,0,0,0-1.685.39,1.264,1.264,0,0,0-.564,1.1,1.179,1.179,0,0,0,.386.926A1.5,1.5,0,0,0,108.287,14.547Zm14.236,1.619a4.173,4.173,0,0,1-3.109-1.208,4.381,4.381,0,0,1-1.191-3.217v-.249a5.389,5.389,0,0,1,.519-2.4A3.949,3.949,0,0,1,120.2,7.442a3.851,3.851,0,0,1,2.092-.589,3.525,3.525,0,0,1,2.835,1.17,4.949,4.949,0,0,1,1,3.312v.813h-5.869a2.7,2.7,0,0,0,.743,1.76,2.23,2.23,0,0,0,1.639.647,2.731,2.731,0,0,0,2.258-1.121l1.087,1.038a3.631,3.631,0,0,1-1.44,1.249A4.509,4.509,0,0,1,122.523,16.166Zm-.241-7.695a1.7,1.7,0,0,0-1.341.581,3.012,3.012,0,0,0-.652,1.619h3.843v-.149a2.452,2.452,0,0,0-.54-1.531A1.686,1.686,0,0,0,122.282,8.471Zm7.3-1.453.058.938a3.232,3.232,0,0,1,2.59-1.1A2.483,2.483,0,0,1,134.7,8.23a3.186,3.186,0,0,1,2.756-1.378,2.8,2.8,0,0,1,2.212.822,3.618,3.618,0,0,1,.743,2.424V16h-2.017V10.156a1.786,1.786,0,0,0-.374-1.253,1.635,1.635,0,0,0-1.237-.4,1.679,1.679,0,0,0-1.125.369,1.948,1.948,0,0,0-.61.967L135.057,16H133.04V10.09A1.439,1.439,0,0,0,131.421,8.5a1.776,1.776,0,0,0-1.718.988V16h-2.017V7.019ZM142.1,11.426a5.3,5.3,0,0,1,.523-2.378A3.819,3.819,0,0,1,144.1,7.421a4.14,4.14,0,0,1,2.175-.569,3.923,3.923,0,0,1,2.951,1.17,4.6,4.6,0,0,1,1.224,3.1l.008.473a5.343,5.343,0,0,1-.51,2.374,3.773,3.773,0,0,1-1.461,1.619,4.17,4.17,0,0,1-2.2.573,3.9,3.9,0,0,1-3.042-1.266,4.848,4.848,0,0,1-1.141-3.374Zm2.017.174a3.619,3.619,0,0,0,.573,2.171,1.862,1.862,0,0,0,1.594.784,1.842,1.842,0,0,0,1.59-.8,4,4,0,0,0,.569-2.333,3.572,3.572,0,0,0-.585-2.158,1.973,1.973,0,0,0-3.158-.012A3.922,3.922,0,0,0,144.122,11.6Zm11.729,2.955a1.824,1.824,0,0,0,1.253-.44,1.5,1.5,0,0,0,.531-1.087h1.9a2.963,2.963,0,0,1-.523,1.565,3.43,3.43,0,0,1-1.328,1.15,3.958,3.958,0,0,1-1.81.423,3.829,3.829,0,0,1-2.988-1.22,4.84,4.84,0,0,1-1.1-3.37v-.208a4.759,4.759,0,0,1,1.1-3.283,3.8,3.8,0,0,1,2.988-1.233,3.69,3.69,0,0,1,2.611.934,3.345,3.345,0,0,1,1.058,2.453h-1.9a1.847,1.847,0,0,0-.527-1.27,1.7,1.7,0,0,0-1.258-.5,1.775,1.775,0,0,0-1.511.71,3.621,3.621,0,0,0-.54,2.154v.324a3.682,3.682,0,0,0,.527,2.179A1.773,1.773,0,0,0,155.851,14.556ZM163.205,16h-2.017V7.019h2.017ZM161.063,4.686a1.07,1.07,0,0,1,.295-.772,1.113,1.113,0,0,1,.843-.307,1.127,1.127,0,0,1,.847.307,1.062,1.062,0,0,1,.3.772,1.038,1.038,0,0,1-.3.76,1.136,1.136,0,0,1-.847.3,1.122,1.122,0,0,1-.843-.3A1.046,1.046,0,0,1,161.063,4.686Zm3.959,6.74a5.3,5.3,0,0,1,.523-2.378,3.819,3.819,0,0,1,1.469-1.627,4.14,4.14,0,0,1,2.175-.569,3.923,3.923,0,0,1,2.951,1.17,4.6,4.6,0,0,1,1.224,3.1l.008.473a5.343,5.343,0,0,1-.51,2.374,3.773,3.773,0,0,1-1.461,1.619,4.17,4.17,0,0,1-2.2.573,3.9,3.9,0,0,1-3.042-1.266,4.848,4.848,0,0,1-1.141-3.374Zm2.017.174a3.619,3.619,0,0,0,.573,2.171,1.862,1.862,0,0,0,1.594.784,1.842,1.842,0,0,0,1.59-.8,4,4,0,0,0,.569-2.333,3.572,3.572,0,0,0-.585-2.158,1.973,1.973,0,0,0-3.158-.012A3.922,3.922,0,0,0,167.04,11.6Zm9.911-4.582.058,1.038a3.229,3.229,0,0,1,2.615-1.2q2.806,0,2.855,3.212V16h-2.017V10.181a1.85,1.85,0,0,0-.369-1.266,1.554,1.554,0,0,0-1.208-.411,1.944,1.944,0,0,0-1.818,1.1V16H175.05V7.019ZM189.9,16a3.113,3.113,0,0,1-.232-.838,3.393,3.393,0,0,1-4.565.232,2.47,2.47,0,0,1-.855-1.909,2.55,2.55,0,0,1,1.067-2.2,5.169,5.169,0,0,1,3.051-.768H189.6V9.924a1.573,1.573,0,0,0-.39-1.116,1.547,1.547,0,0,0-1.187-.419,1.777,1.777,0,0,0-1.129.344,1.066,1.066,0,0,0-.44.876h-2.017a2.239,2.239,0,0,1,.49-1.382,3.263,3.263,0,0,1,1.332-1.009,4.68,4.68,0,0,1,1.88-.365,3.769,3.769,0,0,1,2.515.793,2.827,2.827,0,0,1,.963,2.229v4.051a4.591,4.591,0,0,0,.34,1.934V16Zm-2.216-1.453a2.294,2.294,0,0,0,1.125-.291,1.941,1.941,0,0,0,.793-.78V11.783h-1.087a2.973,2.973,0,0,0-1.685.39,1.264,1.264,0,0,0-.564,1.1,1.179,1.179,0,0,0,.386.926A1.5,1.5,0,0,0,187.684,14.547ZM195.877,16H193.86V3.25h2.017Z" transform="translate(927.102 883.555)" fill="#12263f"/>
  </g>
</svg>
