<svg xmlns="http://www.w3.org/2000/svg" xmlns:xlink="http://www.w3.org/1999/xlink" width="139" height="139" viewBox="0 0 139 139">
  <defs>
    <clipPath id="clip-path">
      <rect id="Rectángulo_379385" data-name="Rectángulo 379385" width="94" height="96" transform="translate(104 814.284)" fill="#fff" stroke="#707070" stroke-width="1"/>
    </clipPath>
    <clipPath id="clip-path-2">
      <rect id="Rectángulo_379387" data-name="Rectángulo 379387" width="71" height="48" transform="translate(-0.031)" fill="#7edbb4"/>
    </clipPath>
    <clipPath id="clip-path-3">
      <rect id="Rectángulo_379389" data-name="Rectángulo 379389" width="88" height="88" fill="none"/>
    </clipPath>
    <clipPath id="clip-path-4">
      <path id="Trazado_641838" data-name="Trazado 641838" d="M46.221,19.942l-6.643,7.991H9.516A8.517,8.517,0,0,0,1,36.449V53.481a5.678,5.678,0,0,0,5.677,5.677v21.29h21.29V35.029H43.325C53.757,21.943,53.516,22.638,53.516,21.148a3.149,3.149,0,0,0-3.4-3.141,5.09,5.09,0,0,0-3.892,1.935" transform="translate(-1 -18.007)" fill="#b285c3"/>
    </clipPath>
    <clipPath id="clip-path-6">
      <path id="Trazado_641841" data-name="Trazado 641841" d="M7,19.806v2.839a7.806,7.806,0,1,0,15.613,0V19.806A7.806,7.806,0,1,0,7,19.806" transform="translate(-7 -12)" fill="none"/>
    </clipPath>
    <linearGradient id="linear-gradient" x1="-0.636" y1="3.846" x2="-0.545" y2="3.846" gradientUnits="objectBoundingBox">
      <stop offset="0" stop-color="#f2c4b0"/>
      <stop offset="1" stop-color="#ffe3d7"/>
    </linearGradient>
    <clipPath id="clip-path-7">
      <path id="Trazado_641842" data-name="Trazado 641842" d="M25,47.1v2.839a7.1,7.1,0,0,0,14.194,0V47.1A7.1,7.1,0,0,0,25,47.1" transform="translate(-25 -40)" fill="none"/>
    </clipPath>
    <linearGradient id="linear-gradient-2" x1="-2.5" y1="1.833" x2="-2.4" y2="1.833" xlink:href="#linear-gradient"/>
    <clipPath id="clip-path-8">
      <path id="Trazado_641843" data-name="Trazado 641843" d="M20,66.194H48.387a14.194,14.194,0,1,0-28.387,0" transform="translate(-20 -52)" fill="#fff4d6"/>
    </clipPath>
    <clipPath id="clip-path-9">
      <path id="Trazado_641844" data-name="Trazado 641844" d="M45,47.1v2.839a7.1,7.1,0,0,0,14.194,0V47.1A7.1,7.1,0,0,0,45,47.1" transform="translate(-45 -40)" fill="none"/>
    </clipPath>
    <linearGradient id="linear-gradient-3" x1="-4.5" y1="1.833" x2="-4.4" y2="1.833" xlink:href="#linear-gradient"/>
    <clipPath id="clip-path-10">
      <path id="Trazado_641845" data-name="Trazado 641845" d="M40,66.194H68.387a14.194,14.194,0,1,0-28.387,0" transform="translate(-40 -52)" fill="#fff4d6"/>
    </clipPath>
    <clipPath id="clip-path-11">
      <path id="Trazado_641846" data-name="Trazado 641846" d="M5,47.1v2.839a7.1,7.1,0,0,0,14.194,0V47.1A7.1,7.1,0,0,0,5,47.1" transform="translate(-5 -40)" fill="none"/>
    </clipPath>
    <linearGradient id="linear-gradient-4" x1="-0.5" y1="1.833" x2="-0.4" y2="1.833" xlink:href="#linear-gradient"/>
    <clipPath id="clip-path-17">
      <path id="Trazado_641855" data-name="Trazado 641855" d="M0,66.194H28.387A14.194,14.194,0,1,0,0,66.194" transform="translate(0 -52)" fill="#fff4d6"/>
    </clipPath>
  </defs>
  <g id="Grupo_1075354" data-name="Grupo 1075354" transform="translate(-1046 -912.612)">
    <g id="Grupo_1074805" data-name="Grupo 1074805" transform="translate(-388.668 -4969.388)">
      <g id="Grupo_1072229" data-name="Grupo 1072229" transform="translate(1434.668 5882)">
        <path id="Trazado_608385" data-name="Trazado 608385" d="M69.5,0A69.5,69.5,0,1,1,0,69.5,69.5,69.5,0,0,1,69.5,0Z" transform="translate(0)" fill="#fff"/>
      </g>
    </g>
    <g id="Enmascarar_grupo_1074718" data-name="Enmascarar grupo 1074718" transform="translate(965 120)" clip-path="url(#clip-path)">
      <g id="Grupo_1075000" data-name="Grupo 1075000" transform="translate(107 818.284)">
        <g id="Grupo_1074967" data-name="Grupo 1074967" transform="translate(17.032)">
          <g id="Grupo_1074966" data-name="Grupo 1074966" clip-path="url(#clip-path-2)">
            <rect id="Rectángulo_379386" data-name="Rectángulo 379386" width="71" height="48" transform="translate(-0.031)" fill="#7edbb4"/>
          </g>
        </g>
        <g id="Grupo_1074969" data-name="Grupo 1074969">
          <g id="Grupo_1074968" data-name="Grupo 1074968" clip-path="url(#clip-path-3)">
            <path id="Trazado_641837" data-name="Trazado 641837" d="M35,24.29V4.419a1.419,1.419,0,1,1,2.839,0V24.29a1.419,1.419,0,1,1-2.839,0" transform="translate(14.677 1.258)" fill="#adb3c4"/>
            <rect id="Rectángulo_379388" data-name="Rectángulo 379388" width="61" height="4" transform="translate(27 44)" fill="#4da67f"/>
          </g>
        </g>
        <g id="Grupo_1074971" data-name="Grupo 1074971" transform="translate(1.419 25.558)">
          <g id="Grupo_1074970" data-name="Grupo 1074970" clip-path="url(#clip-path-4)">
            <rect id="Rectángulo_379390" data-name="Rectángulo 379390" width="52.757" height="62.442" transform="translate(0 0)" fill="#b285c3"/>
          </g>
        </g>
        <g id="Grupo_1074973" data-name="Grupo 1074973">
          <g id="Grupo_1074972" data-name="Grupo 1074972" clip-path="url(#clip-path-3)">
            <path id="Trazado_641839" data-name="Trazado 641839" d="M26.29,57.633v9.4H5V51.558a17.032,17.032,0,0,1,21.29,6.075" transform="translate(2.097 20.971)" fill="#543f5c"/>
            <path id="Trazado_641840" data-name="Trazado 641840" d="M6.839,31.419V55.548L5.419,54.129A5.21,5.21,0,0,1,4,53.945V31.419a1.419,1.419,0,1,1,2.839,0" transform="translate(1.677 12.581)" fill="#543f5c"/>
          </g>
        </g>
        <g id="Grupo_1074975" data-name="Grupo 1074975" transform="translate(9.935 17.032)">
          <g id="Grupo_1074974" data-name="Grupo 1074974" clip-path="url(#clip-path-6)">
            <rect id="Rectángulo_379392" data-name="Rectángulo 379392" width="16" height="18" transform="translate(0.064 -0.032)" fill="url(#linear-gradient)"/>
          </g>
        </g>
        <g id="Grupo_1074977" data-name="Grupo 1074977" transform="translate(35.484 56.774)">
          <g id="Grupo_1074976" data-name="Grupo 1074976" clip-path="url(#clip-path-7)">
            <rect id="Rectángulo_379393" data-name="Rectángulo 379393" width="15" height="17" transform="translate(-0.484 0.226)" fill="url(#linear-gradient-2)"/>
          </g>
        </g>
        <g id="Grupo_1074979" data-name="Grupo 1074979" transform="translate(28.387 73.806)">
          <g id="Grupo_1074978" data-name="Grupo 1074978" clip-path="url(#clip-path-8)">
            <rect id="Rectángulo_379394" data-name="Rectángulo 379394" width="29" height="14" transform="translate(-0.387 0.193)" fill="#fff4d6"/>
          </g>
        </g>
        <g id="Grupo_1074981" data-name="Grupo 1074981" transform="translate(63.871 56.774)">
          <g id="Grupo_1074980" data-name="Grupo 1074980" clip-path="url(#clip-path-9)">
            <rect id="Rectángulo_379395" data-name="Rectángulo 379395" width="14" height="17" transform="translate(0.129 0.226)" fill="url(#linear-gradient-3)"/>
          </g>
        </g>
        <g id="Grupo_1074983" data-name="Grupo 1074983" transform="translate(56.774 73.806)">
          <g id="Grupo_1074982" data-name="Grupo 1074982" clip-path="url(#clip-path-10)">
            <rect id="Rectángulo_379396" data-name="Rectángulo 379396" width="28" height="14" transform="translate(0.227 0.193)" fill="#fff4d6"/>
          </g>
        </g>
        <g id="Grupo_1074985" data-name="Grupo 1074985" transform="translate(7.097 56.774)">
          <g id="Grupo_1074984" data-name="Grupo 1074984" clip-path="url(#clip-path-11)">
            <rect id="Rectángulo_379397" data-name="Rectángulo 379397" width="14" height="17" transform="translate(-0.098 0.226)" fill="url(#linear-gradient-4)"/>
          </g>
        </g>
        <g id="Grupo_1074987" data-name="Grupo 1074987" transform="translate(9.935 17.032)">
          <g id="Grupo_1074986" data-name="Grupo 1074986" clip-path="url(#clip-path-6)">
            <rect id="Rectángulo_379398" data-name="Rectángulo 379398" width="16" height="18" transform="translate(0.064 -0.032)" fill="url(#linear-gradient)"/>
          </g>
        </g>
        <g id="Grupo_1074989" data-name="Grupo 1074989" transform="translate(35.484 56.774)">
          <g id="Grupo_1074988" data-name="Grupo 1074988" clip-path="url(#clip-path-7)">
            <rect id="Rectángulo_379399" data-name="Rectángulo 379399" width="15" height="17" transform="translate(-0.484 0.226)" fill="url(#linear-gradient-2)"/>
          </g>
        </g>
        <g id="Grupo_1074991" data-name="Grupo 1074991" transform="translate(63.871 56.774)">
          <g id="Grupo_1074990" data-name="Grupo 1074990" clip-path="url(#clip-path-9)">
            <rect id="Rectángulo_379400" data-name="Rectángulo 379400" width="14" height="17" transform="translate(0.129 0.226)" fill="url(#linear-gradient-3)"/>
          </g>
        </g>
        <g id="Grupo_1074993" data-name="Grupo 1074993" transform="translate(7.097 56.774)">
          <g id="Grupo_1074992" data-name="Grupo 1074992" clip-path="url(#clip-path-11)">
            <rect id="Rectángulo_379401" data-name="Rectángulo 379401" width="14" height="17" transform="translate(-0.098 0.226)" fill="url(#linear-gradient-4)"/>
          </g>
        </g>
        <g id="Grupo_1074995" data-name="Grupo 1074995">
          <g id="Grupo_1074994" data-name="Grupo 1074994" clip-path="url(#clip-path-3)">
            <path id="Trazado_641851" data-name="Trazado 641851" d="M22.613,17.5v2.839A7.806,7.806,0,1,1,7,20.339V17.5a7.806,7.806,0,0,0,15.613,0" transform="translate(2.935 7.339)" fill="#eab39b"/>
            <path id="Trazado_641852" data-name="Trazado 641852" d="M39.194,45v2.839a7.1,7.1,0,0,1-14.194,0V45a7.1,7.1,0,1,0,14.194,0" transform="translate(10.484 18.871)" fill="#eab39b"/>
            <path id="Trazado_641853" data-name="Trazado 641853" d="M59.194,45v2.839a7.1,7.1,0,0,1-14.194,0V45a7.1,7.1,0,1,0,14.194,0" transform="translate(18.871 18.871)" fill="#eab39b"/>
            <path id="Trazado_641854" data-name="Trazado 641854" d="M19.194,45v2.839A7.1,7.1,0,0,1,5,47.839V45a7.1,7.1,0,1,0,14.194,0" transform="translate(2.097 18.871)" fill="#eab39b"/>
          </g>
        </g>
        <g id="Grupo_1074997" data-name="Grupo 1074997" transform="translate(0 73.806)">
          <g id="Grupo_1074996" data-name="Grupo 1074996" clip-path="url(#clip-path-17)">
            <rect id="Rectángulo_379403" data-name="Rectángulo 379403" width="28" height="14" transform="translate(0 0.193)" fill="#fff4d6"/>
          </g>
        </g>
        <g id="Grupo_1074999" data-name="Grupo 1074999">
          <g id="Grupo_1074998" data-name="Grupo 1074998" clip-path="url(#clip-path-3)">
            <path id="Trazado_641856" data-name="Trazado 641856" d="M6.839,59.419v4.258H4V59.419a1.419,1.419,0,1,1,2.839,0" transform="translate(1.677 24.323)" fill="#ccb67b"/>
            <path id="Trazado_641857" data-name="Trazado 641857" d="M16.839,59.419v4.258H14V59.419a1.419,1.419,0,1,1,2.839,0" transform="translate(5.871 24.323)" fill="#ccb67b"/>
            <path id="Trazado_641858" data-name="Trazado 641858" d="M26.839,59.419v4.258H24V59.419a1.419,1.419,0,1,1,2.839,0" transform="translate(10.065 24.323)" fill="#ccb67b"/>
            <path id="Trazado_641859" data-name="Trazado 641859" d="M36.839,59.419v4.258H34V59.419a1.419,1.419,0,1,1,2.839,0" transform="translate(14.258 24.323)" fill="#ccb67b"/>
            <path id="Trazado_641860" data-name="Trazado 641860" d="M46.839,59.419v4.258H44V59.419a1.419,1.419,0,1,1,2.839,0" transform="translate(18.452 24.323)" fill="#ccb67b"/>
            <path id="Trazado_641861" data-name="Trazado 641861" d="M56.839,59.419v4.258H54V59.419a1.419,1.419,0,0,1,2.839,0" transform="translate(22.645 24.323)" fill="#ccb67b"/>
            <path id="Trazado_641862" data-name="Trazado 641862" d="M28.1,60a14.544,14.544,0,0,1,.284,2.839H0A14.119,14.119,0,0,1,.284,60Z" transform="translate(0 25.161)" fill="#ccb67b"/>
            <path id="Trazado_641863" data-name="Trazado 641863" d="M48.1,60a14.544,14.544,0,0,1,.284,2.839H20A14.119,14.119,0,0,1,20.284,60Z" transform="translate(8.387 25.161)" fill="#ccb67b"/>
            <path id="Trazado_641864" data-name="Trazado 641864" d="M68.387,62.839H40A14.119,14.119,0,0,1,40.284,60H68.1a14.543,14.543,0,0,1,.284,2.839" transform="translate(16.774 25.161)" fill="#ccb67b"/>
          </g>
        </g>
      </g>
    </g>
  </g>
</svg>
