<svg xmlns="http://www.w3.org/2000/svg" xmlns:xlink="http://www.w3.org/1999/xlink" width="107" height="107" viewBox="0 0 107 107">
  <defs>
    <clipPath id="clip-path">
      <rect id="Rect치ngulo_379414" data-name="Rect치ngulo 379414" width="74" height="74" transform="translate(302 1112.284)" fill="#fff" stroke="#707070" stroke-width="1"/>
    </clipPath>
    <clipPath id="clip-path-2">
      <rect id="Rect치ngulo_379413" data-name="Rect치ngulo 379413" width="65" height="70.519" fill="#fff"/>
    </clipPath>
  </defs>
  <g id="Grupo_1075353" data-name="Grupo 1075353" transform="translate(-285 -1095.284)">
    <path id="Elipse_5845" data-name="Elipse 5845" d="M53.5,0A53.5,53.5,0,1,1,0,53.5,53.5,53.5,0,0,1,53.5,0Z" transform="translate(285 1095.284)" fill="#543f5c"/>
    <g id="Enmascarar_grupo_1074719" data-name="Enmascarar grupo 1074719" clip-path="url(#clip-path)">
      <g id="Grupo_1075022" data-name="Grupo 1075022" transform="translate(306 1113.284)">
        <g id="Grupo_1075021" data-name="Grupo 1075021" clip-path="url(#clip-path-2)">
          <path id="Trazado_641968" data-name="Trazado 641968" d="M59.845,90.493H59.36q-11.534.008-23.067.013a2.923,2.923,0,0,1-.564-.054c-.611-.121-.841-.436-.825-1.1a.9.9,0,0,1,.878-.865,4.024,4.024,0,0,1,.566-.041q11.882,0,23.763.016a.775.775,0,0,0,.762-.422,10.489,10.489,0,0,1,1.228-1.6c1.3-1.349,2.643-2.657,3.965-3.985,1.27-1.275,2.534-2.557,3.805-3.831q2.065-2.067,4.144-4.119a1.023,1.023,0,0,0,.338-.8q-.013-18.154,0-36.309a2.022,2.022,0,0,1,.24-.89.939.939,0,0,1,1.078-.394.969.969,0,0,1,.714.894c.013.558.013,1.116.013,1.674q0,15.737,0,31.474v1.864a3.448,3.448,0,0,0,.314-.242q2.493-2.465,4.98-4.935a4.613,4.613,0,0,1,2.787-1.415,4.3,4.3,0,0,1,3.5,1.1,21.807,21.807,0,0,1,1.943,1.942A4.423,4.423,0,0,1,89.7,74.6c-.966,1-1.96,1.972-2.943,2.956L79.19,85.128c-2.941,2.943-5.9,5.867-8.814,8.836a9.85,9.85,0,0,1-4.9,2.762c-.756.177-1.493.432-2.246.625a3.571,3.571,0,0,1-4.185-2.773,4.779,4.779,0,0,1,.285-2.349c.176-.557.333-1.12.514-1.737m2.936-1.851c.433.445.831.864,1.238,1.273,1.152,1.157,2.311,2.307,3.458,3.469.166.168.295.2.471.038.193-.178.406-.336.591-.521q4.939-4.937,9.873-9.879c.639-.638,1.287-1.267,1.914-1.885l-4.975-4.973L62.781,88.642M85.7,75.688c.09-.071.142-.1.185-.147.811-.8,1.639-1.576,2.426-2.395a2.459,2.459,0,0,0,.081-3.382,16.109,16.109,0,0,0-1.742-1.736,2.325,2.325,0,0,0-2.439-.478A3.362,3.362,0,0,0,83,68.37c-.485.483-.969.966-1.447,1.455-.271.276-.531.564-.779.829l4.93,5.035M76.839,74.6c1.6,1.625,3.178,3.227,4.751,4.835.135.138.234.191.386.035.754-.775,1.512-1.547,2.257-2.308l-4.965-4.945L76.839,74.6M65.692,94.564,61.927,90.7c-.039.053-.066.075-.074.1q-.422,1.434-.839,2.869a.839.839,0,0,0-.041.341,1.562,1.562,0,0,0,2.043,1.335,1.834,1.834,0,0,1,.333-.091l2.342-.689" transform="translate(-26.05 -26.927)" fill="#fff"/>
          <path id="Trazado_641969" data-name="Trazado 641969" d="M0,31.745V6.653A6.771,6.771,0,0,1,4.353.448,8.054,8.054,0,0,1,7.175,0Q25.315,0,43.454,0a6.7,6.7,0,0,1,6.477,4.374A2.618,2.618,0,0,1,50.114,5.5a.867.867,0,0,1-.819.752.927.927,0,0,1-1-.552,5.281,5.281,0,0,1-.193-.5,4.552,4.552,0,0,0-3.791-3.114,5.051,5.051,0,0,0-.816-.063q-18.345,0-36.69,0A4.632,4.632,0,0,0,2.331,5.083a4.954,4.954,0,0,0-.29,1.635Q2.018,31.857,2.03,57a4.615,4.615,0,0,0,3.036,4.255,2.292,2.292,0,0,1,.534.263.959.959,0,0,1,.253,1.267,1.008,1.008,0,0,1-1.2.443A6.72,6.72,0,0,1,0,56.837Q.011,44.291,0,31.745" transform="translate(0 0)" fill="#fff"/>
          <path id="Trazado_641970" data-name="Trazado 641970" d="M57.293,28.815c-3.529,0-7.058-.031-10.586.013a3.8,3.8,0,0,1-3.651-3.5,19.157,19.157,0,0,1,.075-3.276,3.7,3.7,0,0,1,3.649-3.114q10.539-.013,21.078,0a3.833,3.833,0,0,1,3.451,2.491,4.164,4.164,0,0,1,.253,1.543c-.019.695.008,1.391-.007,2.086A3.729,3.729,0,0,1,69.536,28.4a3.23,3.23,0,0,1-1.657.422c-3.529-.017-7.057-.008-10.586-.008h0m.01-2.034v0c3.5,0,6.992-.02,10.488.014a1.683,1.683,0,0,0,1.715-1.639c.007-.873.006-1.748-.028-2.621a1.672,1.672,0,0,0-1.673-1.567q-10.5,0-21.007,0a1.652,1.652,0,0,0-1.645,1.34,19.726,19.726,0,0,0,.008,3.2,1.457,1.457,0,0,0,1.56,1.273H57.3" transform="translate(-32.111 -14.133)" fill="#fff"/>
          <path id="Trazado_641971" data-name="Trazado 641971" d="M31.611,180.92a4.5,4.5,0,1,1,4.484,4.526,4.547,4.547,0,0,1-4.484-4.526m6.935.021a2.445,2.445,0,0,0-2.345-2.5,2.493,2.493,0,0,0-2.542,2.283,2.421,2.421,0,0,0,2.309,2.677,2.4,2.4,0,0,0,2.578-2.462" transform="translate(-23.594 -131.68)" fill="#fff"/>
          <path id="Trazado_641972" data-name="Trazado 641972" d="M36.084,133.952a4.573,4.573,0,0,1-4.5-4.585,4.506,4.506,0,1,1,4.5,4.585m2.431-4.508a2.367,2.367,0,0,0-2.3-2.472,2.472,2.472,0,0,0-2.583,2.616,2.524,2.524,0,0,0,2.55,2.343,2.386,2.386,0,0,0,2.336-2.486" transform="translate(-23.576 -93.242)" fill="#fff"/>
          <path id="Trazado_641973" data-name="Trazado 641973" d="M98.472,89.129q-4.091,0-8.181,0a1.163,1.163,0,0,1-1.149-.564.922.922,0,0,1,.438-1.315,2.947,2.947,0,0,1,.953-.172c1.273-.021,2.548-.014,3.822-.015q5.607,0,11.214,0c.421,0,.843.008,1.262.048a1.025,1.025,0,0,1,.966.776.892.892,0,0,1-.378,1.022,1.269,1.269,0,0,1-.7.212c-1.8.018-3.6.012-5.4.013H98.472v-.01" transform="translate(-66.442 -64.982)" fill="#fff"/>
          <path id="Trazado_641974" data-name="Trazado 641974" d="M98.512,140.625q-4.107,0-8.215,0a1.16,1.16,0,0,1-1-.368.973.973,0,0,1,.53-1.6,3.047,3.047,0,0,1,.688-.078q7.994-.006,15.988,0c.765,0,1.1.2,1.288.731a.96.96,0,0,1-.785,1.288,6.493,6.493,0,0,1-.788.042q-3.855,0-7.71,0v-.014" transform="translate(-66.47 -103.428)" fill="#fff"/>
          <path id="Trazado_641975" data-name="Trazado 641975" d="M98.465,190.4q4.2,0,8.4,0a.968.968,0,0,1,.387,1.851,2.129,2.129,0,0,1-.759.168q-8.057.014-16.114.006a1.267,1.267,0,0,1-1.252-.63.957.957,0,0,1,.834-1.392q4.25,0,8.5,0Z" transform="translate(-66.445 -142.106)" fill="#fff"/>
          <path id="Trazado_641976" data-name="Trazado 641976" d="M32.163,77.465c.5-.521.971-1.019,1.452-1.5q1.867-1.886,3.743-3.763a1.06,1.06,0,0,1,1.04-.39.985.985,0,0,1,.588,1.563,3.976,3.976,0,0,1-.5.567q-2.72,2.732-5.445,5.458a1.1,1.1,0,0,1-1.82,0c-.749-.755-1.5-1.505-2.24-2.273a.967.967,0,0,1-.163-1.143.883.883,0,0,1,.952-.529,1.576,1.576,0,0,1,.742.367c.46.415.874.881,1.309,1.325.087.089.18.172.341.326" transform="translate(-21.425 -53.574)" fill="#fff"/>
          <path id="Trazado_641977" data-name="Trazado 641977" d="M178.5,215.229a2.984,2.984,0,0,1-.368.624q-1.6,1.635-3.231,3.238a.972.972,0,0,1-1.387,0,1.006,1.006,0,0,1,0-1.4c.892-.909,1.8-1.805,2.695-2.706q.268-.268.539-.532a1.131,1.131,0,0,1,1.168-.211,1.21,1.21,0,0,1,.587.982" transform="translate(-129.298 -159.848)" fill="#fff"/>
        </g>
      </g>
    </g>
  </g>
</svg>
